# Wavefront OBJ file generated by Antigravity
# High quality low-poly ice spike
mtllib IceSpike.mtl
o IceSpike

v 0.500000000 0.000000000 0.000000000
v 0.250000000 0.000000000 0.433012702
v 0.230000000 0.800000000 0.398371686
v 0.500000000 0.000000000 0.000000000
v 0.230000000 0.800000000 0.398371686
v 0.460000000 0.800000000 0.000000000
v 0.250000000 0.000000000 0.433012702
v -0.250000000 0.000000000 0.433012702
v -0.230000000 0.800000000 0.398371686
v 0.250000000 0.000000000 0.433012702
v -0.230000000 0.800000000 0.398371686
v 0.230000000 0.800000000 0.398371686
v -0.250000000 0.000000000 0.433012702
v -0.500000000 0.000000000 0.000000000
v -0.460000000 0.800000000 0.000000000
v -0.250000000 0.000000000 0.433012702
v -0.460000000 0.800000000 0.000000000
v -0.230000000 0.800000000 0.398371686
v -0.500000000 0.000000000 0.000000000
v -0.250000000 0.000000000 -0.433012702
v -0.230000000 0.800000000 -0.398371686
v -0.500000000 0.000000000 0.000000000
v -0.230000000 0.800000000 -0.398371686
v -0.460000000 0.800000000 0.000000000
v -0.250000000 0.000000000 -0.433012702
v 0.250000000 0.000000000 -0.433012702
v 0.230000000 0.800000000 -0.398371686
v -0.250000000 0.000000000 -0.433012702
v 0.230000000 0.800000000 -0.398371686
v -0.230000000 0.800000000 -0.398371686
v 0.250000000 0.000000000 -0.433012702
v 0.500000000 0.000000000 0.000000000
v 0.460000000 0.800000000 0.000000000
v 0.250000000 0.000000000 -0.433012702
v 0.460000000 0.800000000 0.000000000
v 0.230000000 0.800000000 -0.398371686
v 0.460000000 0.800000000 0.000000000
v 0.230000000 0.800000000 0.398371686
v 0.160000000 1.800000000 0.277128129
v 0.460000000 0.800000000 0.000000000
v 0.160000000 1.800000000 0.277128129
v 0.320000000 1.800000000 0.000000000
v 0.230000000 0.800000000 0.398371686
v -0.230000000 0.800000000 0.398371686
v -0.160000000 1.800000000 0.277128129
v 0.230000000 0.800000000 0.398371686
v -0.160000000 1.800000000 0.277128129
v 0.160000000 1.800000000 0.277128129
v -0.230000000 0.800000000 0.398371686
v -0.460000000 0.800000000 0.000000000
v -0.320000000 1.800000000 0.000000000
v -0.230000000 0.800000000 0.398371686
v -0.320000000 1.800000000 0.000000000
v -0.160000000 1.800000000 0.277128129
v -0.460000000 0.800000000 0.000000000
v -0.230000000 0.800000000 -0.398371686
v -0.160000000 1.800000000 -0.277128129
v -0.460000000 0.800000000 0.000000000
v -0.160000000 1.800000000 -0.277128129
v -0.320000000 1.800000000 0.000000000
v -0.230000000 0.800000000 -0.398371686
v 0.230000000 0.800000000 -0.398371686
v 0.160000000 1.800000000 -0.277128129
v -0.230000000 0.800000000 -0.398371686
v 0.160000000 1.800000000 -0.277128129
v -0.160000000 1.800000000 -0.277128129
v 0.230000000 0.800000000 -0.398371686
v 0.460000000 0.800000000 0.000000000
v 0.320000000 1.800000000 0.000000000
v 0.230000000 0.800000000 -0.398371686
v 0.320000000 1.800000000 0.000000000
v 0.160000000 1.800000000 -0.277128129
v 0.320000000 1.800000000 0.000000000
v 0.160000000 1.800000000 0.277128129
v 0.075000000 2.800000000 0.129903811
v 0.320000000 1.800000000 0.000000000
v 0.075000000 2.800000000 0.129903811
v 0.150000000 2.800000000 0.000000000
v 0.160000000 1.800000000 0.277128129
v -0.160000000 1.800000000 0.277128129
v -0.075000000 2.800000000 0.129903811
v 0.160000000 1.800000000 0.277128129
v -0.075000000 2.800000000 0.129903811
v 0.075000000 2.800000000 0.129903811
v -0.160000000 1.800000000 0.277128129
v -0.320000000 1.800000000 0.000000000
v -0.150000000 2.800000000 0.000000000
v -0.160000000 1.800000000 0.277128129
v -0.150000000 2.800000000 0.000000000
v -0.075000000 2.800000000 0.129903811
v -0.320000000 1.800000000 0.000000000
v -0.160000000 1.800000000 -0.277128129
v -0.075000000 2.800000000 -0.129903811
v -0.320000000 1.800000000 0.000000000
v -0.075000000 2.800000000 -0.129903811
v -0.150000000 2.800000000 0.000000000
v -0.160000000 1.800000000 -0.277128129
v 0.160000000 1.800000000 -0.277128129
v 0.075000000 2.800000000 -0.129903811
v -0.160000000 1.800000000 -0.277128129
v 0.075000000 2.800000000 -0.129903811
v -0.075000000 2.800000000 -0.129903811
v 0.160000000 1.800000000 -0.277128129
v 0.320000000 1.800000000 0.000000000
v 0.150000000 2.800000000 0.000000000
v 0.160000000 1.800000000 -0.277128129
v 0.150000000 2.800000000 0.000000000
v 0.075000000 2.800000000 -0.129903811
v 0.150000000 2.800000000 0.000000000
v 0.075000000 2.800000000 0.129903811
v 0.000000000 3.600000000 0.000000000
v 0.075000000 2.800000000 0.129903811
v -0.075000000 2.800000000 0.129903811
v 0.000000000 3.600000000 0.000000000
v -0.075000000 2.800000000 0.129903811
v -0.150000000 2.800000000 0.000000000
v 0.000000000 3.600000000 0.000000000
v -0.150000000 2.800000000 0.000000000
v -0.075000000 2.800000000 -0.129903811
v 0.000000000 3.600000000 0.000000000
v -0.075000000 2.800000000 -0.129903811
v 0.075000000 2.800000000 -0.129903811
v 0.000000000 3.600000000 0.000000000
v 0.075000000 2.800000000 -0.129903811
v 0.150000000 2.800000000 0.000000000
v 0.000000000 3.600000000 0.000000000
v 0.250000000 0.000000000 0.433012702
v 0.500000000 0.000000000 0.000000000
v 0.000000000 0.000000000 0.000000000
v -0.250000000 0.000000000 0.433012702
v 0.250000000 0.000000000 0.433012702
v 0.000000000 0.000000000 0.000000000
v -0.500000000 0.000000000 0.000000000
v -0.250000000 0.000000000 0.433012702
v 0.000000000 0.000000000 0.000000000
v -0.250000000 0.000000000 -0.433012702
v -0.500000000 0.000000000 0.000000000
v 0.000000000 0.000000000 0.000000000
v 0.250000000 0.000000000 -0.433012702
v -0.250000000 0.000000000 -0.433012702
v 0.000000000 0.000000000 0.000000000
v 0.500000000 0.000000000 0.000000000
v 0.250000000 0.000000000 -0.433012702
v 0.000000000 0.000000000 0.000000000
v 0.320000000 0.000000000 -0.100000000
v 0.560000000 0.000000000 -0.100000000
v 0.500000000 1.050000000 0.000000000
v 0.560000000 0.000000000 -0.100000000
v 0.560000000 0.000000000 0.100000000
v 0.500000000 1.050000000 0.000000000
v 0.560000000 0.000000000 0.100000000
v 0.320000000 0.000000000 0.100000000
v 0.500000000 1.050000000 0.000000000
v 0.320000000 0.000000000 0.100000000
v 0.320000000 0.000000000 -0.100000000
v 0.500000000 1.050000000 0.000000000
v 0.320000000 0.000000000 0.100000000
v 0.560000000 0.000000000 0.100000000
v 0.560000000 0.000000000 -0.100000000
v 0.320000000 0.000000000 0.100000000
v 0.560000000 0.000000000 -0.100000000
v 0.320000000 0.000000000 -0.100000000
v -0.073397460 0.000000000 0.327128129
v -0.193397460 0.000000000 0.534974226
v -0.250000000 0.800000000 0.433012702
v -0.193397460 0.000000000 0.534974226
v -0.366602540 0.000000000 0.434974226
v -0.250000000 0.800000000 0.433012702
v -0.366602540 0.000000000 0.434974226
v -0.246602540 0.000000000 0.227128129
v -0.250000000 0.800000000 0.433012702
v -0.246602540 0.000000000 0.227128129
v -0.073397460 0.000000000 0.327128129
v -0.250000000 0.800000000 0.433012702
v -0.246602540 0.000000000 0.227128129
v -0.366602540 0.000000000 0.434974226
v -0.193397460 0.000000000 0.534974226
v -0.246602540 0.000000000 0.227128129
v -0.193397460 0.000000000 0.534974226
v -0.073397460 0.000000000 0.327128129
v -0.246602540 0.000000000 -0.227128129
v -0.366602540 0.000000000 -0.434974226
v -0.250000000 1.300000000 -0.433012702
v -0.366602540 0.000000000 -0.434974226
v -0.193397460 0.000000000 -0.534974226
v -0.250000000 1.300000000 -0.433012702
v -0.193397460 0.000000000 -0.534974226
v -0.073397460 0.000000000 -0.327128129
v -0.250000000 1.300000000 -0.433012702
v -0.073397460 0.000000000 -0.327128129
v -0.246602540 0.000000000 -0.227128129
v -0.250000000 1.300000000 -0.433012702
v -0.073397460 0.000000000 -0.327128129
v -0.193397460 0.000000000 -0.534974226
v -0.366602540 0.000000000 -0.434974226
v -0.073397460 0.000000000 -0.327128129
v -0.366602540 0.000000000 -0.434974226
v -0.246602540 0.000000000 -0.227128129

vt 0.000000 0.000000
vt 0.166667 0.000000
vt 0.166667 0.222222
vt 0.000000 0.000000
vt 0.166667 0.222222
vt 0.000000 0.222222
vt 0.166667 0.000000
vt 0.333333 0.000000
vt 0.333333 0.222222
vt 0.166667 0.000000
vt 0.333333 0.222222
vt 0.166667 0.222222
vt 0.333333 0.000000
vt 0.500000 0.000000
vt 0.500000 0.222222
vt 0.333333 0.000000
vt 0.500000 0.222222
vt 0.333333 0.222222
vt 0.500000 0.000000
vt 0.666667 0.000000
vt 0.666667 0.222222
vt 0.500000 0.000000
vt 0.666667 0.222222
vt 0.500000 0.222222
vt 0.666667 0.000000
vt 0.833333 0.000000
vt 0.833333 0.222222
vt 0.666667 0.000000
vt 0.833333 0.222222
vt 0.666667 0.222222
vt 0.833333 0.000000
vt 1.000000 0.000000
vt 1.000000 0.222222
vt 0.833333 0.000000
vt 1.000000 0.222222
vt 0.833333 0.222222
vt 0.000000 0.222222
vt 0.166667 0.222222
vt 0.166667 0.500000
vt 0.000000 0.222222
vt 0.166667 0.500000
vt 0.000000 0.500000
vt 0.166667 0.222222
vt 0.333333 0.222222
vt 0.333333 0.500000
vt 0.166667 0.222222
vt 0.333333 0.500000
vt 0.166667 0.500000
vt 0.333333 0.222222
vt 0.500000 0.222222
vt 0.500000 0.500000
vt 0.333333 0.222222
vt 0.500000 0.500000
vt 0.333333 0.500000
vt 0.500000 0.222222
vt 0.666667 0.222222
vt 0.666667 0.500000
vt 0.500000 0.222222
vt 0.666667 0.500000
vt 0.500000 0.500000
vt 0.666667 0.222222
vt 0.833333 0.222222
vt 0.833333 0.500000
vt 0.666667 0.222222
vt 0.833333 0.500000
vt 0.666667 0.500000
vt 0.833333 0.222222
vt 1.000000 0.222222
vt 1.000000 0.500000
vt 0.833333 0.222222
vt 1.000000 0.500000
vt 0.833333 0.500000
vt 0.000000 0.500000
vt 0.166667 0.500000
vt 0.166667 0.777778
vt 0.000000 0.500000
vt 0.166667 0.777778
vt 0.000000 0.777778
vt 0.166667 0.500000
vt 0.333333 0.500000
vt 0.333333 0.777778
vt 0.166667 0.500000
vt 0.333333 0.777778
vt 0.166667 0.777778
vt 0.333333 0.500000
vt 0.500000 0.500000
vt 0.500000 0.777778
vt 0.333333 0.500000
vt 0.500000 0.777778
vt 0.333333 0.777778
vt 0.500000 0.500000
vt 0.666667 0.500000
vt 0.666667 0.777778
vt 0.500000 0.500000
vt 0.666667 0.777778
vt 0.500000 0.777778
vt 0.666667 0.500000
vt 0.833333 0.500000
vt 0.833333 0.777778
vt 0.666667 0.500000
vt 0.833333 0.777778
vt 0.666667 0.777778
vt 0.833333 0.500000
vt 1.000000 0.500000
vt 1.000000 0.777778
vt 0.833333 0.500000
vt 1.000000 0.777778
vt 0.833333 0.777778
vt 0.000000 0.777778
vt 0.166667 0.777778
vt 0.083333 1.000000
vt 0.166667 0.777778
vt 0.333333 0.777778
vt 0.250000 1.000000
vt 0.333333 0.777778
vt 0.500000 0.777778
vt 0.416667 1.000000
vt 0.500000 0.777778
vt 0.666667 0.777778
vt 0.583333 1.000000
vt 0.666667 0.777778
vt 0.833333 0.777778
vt 0.750000 1.000000
vt 0.833333 0.777778
vt 1.000000 0.777778
vt 0.916667 1.000000
vt 0.700000 0.846410
vt 0.900000 0.500000
vt 0.5 0.5
vt 0.300000 0.846410
vt 0.700000 0.846410
vt 0.5 0.5
vt 0.100000 0.500000
vt 0.300000 0.846410
vt 0.5 0.5
vt 0.300000 0.153590
vt 0.100000 0.500000
vt 0.5 0.5
vt 0.700000 0.153590
vt 0.300000 0.153590
vt 0.5 0.5
vt 0.900000 0.500000
vt 0.700000 0.153590
vt 0.5 0.5
vt 0.1 0.1
vt 0.3 0.1
vt 0.2 0.8
vt 0.3 0.1
vt 0.5 0.1
vt 0.4 0.8
vt 0.5 0.1
vt 0.7 0.1
vt 0.6 0.8
vt 0.7 0.1
vt 0.9 0.1
vt 0.8 0.8
vt 0.3 0.1
vt 0.5 0.1
vt 0.5 0.3
vt 0.3 0.1
vt 0.5 0.3
vt 0.3 0.3
vt 0.1 0.1
vt 0.3 0.1
vt 0.2 0.8
vt 0.3 0.1
vt 0.5 0.1
vt 0.4 0.8
vt 0.5 0.1
vt 0.7 0.1
vt 0.6 0.8
vt 0.7 0.1
vt 0.9 0.1
vt 0.8 0.8
vt 0.3 0.1
vt 0.5 0.1
vt 0.5 0.3
vt 0.3 0.1
vt 0.5 0.3
vt 0.3 0.3
vt 0.1 0.1
vt 0.3 0.1
vt 0.2 0.8
vt 0.3 0.1
vt 0.5 0.1
vt 0.4 0.8
vt 0.5 0.1
vt 0.7 0.1
vt 0.6 0.8
vt 0.7 0.1
vt 0.9 0.1
vt 0.8 0.8
vt 0.3 0.1
vt 0.5 0.1
vt 0.5 0.3
vt 0.3 0.1
vt 0.5 0.3
vt 0.3 0.3


# 側面のねじれを除き、外向きの面法線を保持する。
s off
vn 0.865214645 0.043260732 0.499531908
vn 0.865214645 0.043260732 0.499531908
vn 0.000000000 0.043260732 0.999063816
vn 0.000000000 0.043260732 0.999063816
vn -0.865214645 0.043260732 0.499531908
vn -0.865214645 0.043260732 0.499531908
vn -0.865214645 0.043260732 -0.499531908
vn -0.865214645 0.043260732 -0.499531908
vn -0.000000000 0.043260732 -0.999063816
vn -0.000000000 0.043260732 -0.999063816
vn 0.865214645 0.043260732 -0.499531908
vn 0.865214645 0.043260732 -0.499531908
vn 0.859729446 0.120362122 0.496365027
vn 0.859729446 0.120362122 0.496365027
vn 0.000000000 0.120362122 0.992730054
vn 0.000000000 0.120362122 0.992730054
vn -0.859729446 0.120362122 0.496365027
vn -0.859729446 0.120362122 0.496365027
vn -0.859729446 0.120362122 -0.496365027
vn -0.859729446 0.120362122 -0.496365027
vn -0.000000000 0.120362122 -0.992730054
vn -0.000000000 0.120362122 -0.992730054
vn 0.859729446 0.120362122 -0.496365027
vn 0.859729446 0.120362122 -0.496365027
vn 0.856789723 0.145654253 0.494667777
vn 0.856789723 0.145654253 0.494667777
vn 0.000000000 0.145654253 0.989335554
vn 0.000000000 0.145654253 0.989335554
vn -0.856789723 0.145654253 0.494667777
vn -0.856789723 0.145654253 0.494667777
vn -0.856789723 0.145654253 -0.494667777
vn -0.856789723 0.145654253 -0.494667777
vn -0.000000000 0.145654253 -0.989335554
vn -0.000000000 0.145654253 -0.989335554
vn 0.856789723 0.145654253 -0.494667777
vn 0.856789723 0.145654253 -0.494667777
vn 0.854829010 0.160280439 0.493535759
vn 0.000000000 0.160280439 0.987071518
vn -0.854829010 0.160280439 0.493535759
vn -0.854829010 0.160280439 -0.493535759
vn -0.000000000 0.160280439 -0.987071518
vn 0.854829010 0.160280439 -0.493535759
vn 0.000000000 -1.000000000 -0.000000000
vn 0.000000000 -1.000000000 0.000000000
vn 0.000000000 -1.000000000 0.000000000
vn 0.000000000 -1.000000000 0.000000000
vn 0.000000000 -1.000000000 0.000000000
vn -0.000000000 -1.000000000 0.000000000
vn 0.000000000 0.094809093 -0.995495473
vn 0.998371334 0.057049791 -0.000000000
vn 0.000000000 0.094809093 0.995495473
vn -0.985622255 0.168963815 0.000000000
vn 0.000000000 -1.000000000 0.000000000
vn 0.000000000 -1.000000000 0.000000000
vn 0.859337849 0.124034735 0.496138938
vn -0.498599655 0.074789948 0.863599935
vn -0.859337849 0.124034735 -0.496138938
vn 0.487804878 0.219512195 -0.844902833
vn 0.000000000 -1.000000000 0.000000000
vn 0.000000000 -1.000000000 0.000000000
vn -0.863474513 0.076696499 0.498527243
vn -0.499468305 0.046104767 -0.865104481
vn 0.863474513 0.076696499 -0.498527243
vn 0.495274933 0.137153058 0.857841348
vn 0.000000000 -1.000000000 0.000000000
vn -0.000000000 -1.000000000 0.000000000

usemtl IceSpike_Material
f 1/1/1 3/3/1 2/2/1
f 4/4/2 6/6/2 5/5/2
f 7/7/3 9/9/3 8/8/3
f 10/10/4 12/12/4 11/11/4
f 13/13/5 15/15/5 14/14/5
f 16/16/6 18/18/6 17/17/6
f 19/19/7 21/21/7 20/20/7
f 22/22/8 24/24/8 23/23/8
f 25/25/9 27/27/9 26/26/9
f 28/28/10 30/30/10 29/29/10
f 31/31/11 33/33/11 32/32/11
f 34/34/12 36/36/12 35/35/12
f 37/37/13 39/39/13 38/38/13
f 40/40/14 42/42/14 41/41/14
f 43/43/15 45/45/15 44/44/15
f 46/46/16 48/48/16 47/47/16
f 49/49/17 51/51/17 50/50/17
f 52/52/18 54/54/18 53/53/18
f 55/55/19 57/57/19 56/56/19
f 58/58/20 60/60/20 59/59/20
f 61/61/21 63/63/21 62/62/21
f 64/64/22 66/66/22 65/65/22
f 67/67/23 69/69/23 68/68/23
f 70/70/24 72/72/24 71/71/24
f 73/73/25 75/75/25 74/74/25
f 76/76/26 78/78/26 77/77/26
f 79/79/27 81/81/27 80/80/27
f 82/82/28 84/84/28 83/83/28
f 85/85/29 87/87/29 86/86/29
f 88/88/30 90/90/30 89/89/30
f 91/91/31 93/93/31 92/92/31
f 94/94/32 96/96/32 95/95/32
f 97/97/33 99/99/33 98/98/33
f 100/100/34 102/102/34 101/101/34
f 103/103/35 105/105/35 104/104/35
f 106/106/36 108/108/36 107/107/36
f 109/109/37 111/111/37 110/110/37
f 112/112/38 114/114/38 113/113/38
f 115/115/39 117/117/39 116/116/39
f 118/118/40 120/120/40 119/119/40
f 121/121/41 123/123/41 122/122/41
f 124/124/42 126/126/42 125/125/42
f 127/127/43 129/129/43 128/128/43
f 130/130/44 132/132/44 131/131/44
f 133/133/45 135/135/45 134/134/45
f 136/136/46 138/138/46 137/137/46
f 139/139/47 141/141/47 140/140/47
f 142/142/48 144/144/48 143/143/48
f 145/145/49 147/147/49 146/146/49
f 148/148/50 150/150/50 149/149/50
f 151/151/51 153/153/51 152/152/51
f 154/154/52 156/156/52 155/155/52
f 157/157/53 159/159/53 158/158/53
f 160/160/54 162/162/54 161/161/54
f 163/163/55 165/165/55 164/164/55
f 166/166/56 168/168/56 167/167/56
f 169/169/57 171/171/57 170/170/57
f 172/172/58 174/174/58 173/173/58
f 175/175/59 177/177/59 176/176/59
f 178/178/60 180/180/60 179/179/60
f 181/181/61 183/183/61 182/182/61
f 184/184/62 186/186/62 185/185/62
f 187/187/63 189/189/63 188/188/63
f 190/190/64 192/192/64 191/191/64
f 193/193/65 195/195/65 194/194/65
f 196/196/66 198/198/66 197/197/66
