# Blender 4.5.11 LTS
# www.blender.org
mtllib Terrain_Demo_Terrain.mtl
o Demo_Terrain
v 12.000000 -2.937912 8.633333
v 10.800000 -2.641273 8.633333
v 9.600000 -2.233166 8.633333
v 8.400000 -1.784531 8.633333
v 7.200000 -1.373348 8.633333
v 6.000000 -1.071092 8.633333
v 4.800000 -0.930300 8.633333
v 3.600000 -0.975446 8.633333
v 2.400000 -1.198682 8.633333
v 1.200000 -1.561205 8.633333
v 0.000000 -2.000000 8.633333
v -1.200000 -2.438795 8.633333
v -2.400000 -2.801318 8.633333
v -3.600000 -3.024554 8.633333
v -4.800000 -3.069700 8.633333
v -6.000000 -2.928908 8.633333
v -7.200000 -2.626652 8.633333
v -8.400000 -2.215470 8.633333
v -9.600000 -1.766834 8.633333
v -10.800000 -1.358727 8.633333
v -12.000000 -1.062088 8.633333
v 12.000000 -3.040831 9.833333
v 10.800000 -2.711641 9.833333
v 9.600000 -2.258752 9.833333
v 8.400000 -1.760886 9.833333
v 7.200000 -1.304584 9.833333
v 6.000000 -0.969160 9.833333
v 4.800000 -0.812919 9.833333
v 3.600000 -0.863019 9.833333
v 2.400000 -1.110751 9.833333
v 1.200000 -1.513055 9.833333
v 0.000000 -2.000000 9.833333
v -1.200000 -2.486945 9.833333
v -2.400000 -2.889249 9.833333
v -3.600000 -3.136981 9.833333
v -4.800000 -3.187081 9.833333
v -6.000000 -3.030840 9.833333
v -7.200000 -2.695416 9.833333
v -8.400000 -2.239114 9.833333
v -9.600000 -1.741248 9.833333
v -10.800000 -1.288359 9.833333
v -12.000000 -0.959169 9.833333
v 12.000000 -3.010309 11.033333
v 10.800000 -2.690773 11.033333
v 9.600000 -2.251164 11.033333
v 8.400000 -1.767898 11.033333
v 7.200000 -1.324977 11.033333
v 6.000000 -0.999389 11.033333
v 4.800000 -0.847730 11.033333
v 3.600000 -0.896361 11.033333
v 2.400000 -1.136828 11.033333
v 1.200000 -1.527334 11.033333
v 0.000000 -2.000000 11.033333
v -1.200000 -2.472666 11.033333
v -2.400000 -2.863172 11.033333
v -3.600000 -3.103640 11.033333
v -4.800000 -3.152270 11.033333
v -6.000000 -3.000611 11.033333
v -7.200000 -2.675023 11.033333
v -8.400000 -2.232102 11.033333
v -9.600000 -1.748836 11.033333
v -10.800000 -1.309227 11.033333
v -12.000000 -0.989691 11.033333
v 12.000000 -2.850259 12.233334
v 10.800000 -2.581342 12.233334
v 9.600000 -2.211376 12.233334
v 8.400000 -1.804667 12.233334
v 7.200000 -1.431912 12.233334
v 6.000000 -1.157903 12.233334
v 4.800000 -1.030269 12.233334
v 3.600000 -1.071195 12.233334
v 2.400000 -1.273569 12.233334
v 1.200000 -1.602212 12.233334
v 0.000000 -2.000000 12.233334
v -1.200000 -2.397788 12.233334
v -2.400000 -2.726431 12.233334
v -3.600000 -2.928804 12.233334
v -4.800000 -2.969731 12.233334
v -6.000000 -2.842097 12.233334
v -7.200000 -2.568088 12.233334
v -8.400000 -2.195333 12.233334
v -9.600000 -1.788624 12.233334
v -10.800000 -1.418658 12.233334
v -12.000000 -1.149741 12.233334
v 12.000000 -2.581201 13.433333
v 10.800000 -2.397381 13.433333
v 9.600000 -2.144487 13.433333
v 8.400000 -1.866479 13.433333
v 7.200000 -1.611679 13.433333
v 6.000000 -1.424378 13.433333
v 4.800000 -1.337133 13.433333
v 3.600000 -1.365109 13.433333
v 2.400000 -1.503443 13.433333
v 1.200000 -1.728089 13.433333
v 0.000000 -2.000000 13.433333
v -1.200000 -2.271911 13.433333
v -2.400000 -2.496557 13.433333
v -3.600000 -2.634891 13.433333
v -4.800000 -2.662867 13.433333
v -6.000000 -2.575622 13.433333
v -7.200000 -2.388321 13.433333
v -8.400000 -2.133521 13.433333
v -9.600000 -1.855513 13.433333
v -10.800000 -1.602619 13.433333
v -12.000000 -1.418799 13.433333
v 12.000000 -2.237629 14.633333
v 10.800000 -2.162472 14.633333
v 9.600000 -2.059075 14.633333
v 8.400000 -1.945409 14.633333
v 7.200000 -1.841232 14.633333
v 6.000000 -1.764652 14.633333
v 4.800000 -1.728981 14.633333
v 3.600000 -1.740420 14.633333
v 2.400000 -1.796979 14.633333
v 1.200000 -1.888827 14.633333
v 0.000000 -2.000000 14.633333
v -1.200000 -2.111173 14.633333
v -2.400000 -2.203021 14.633333
v -3.600000 -2.259580 14.633333
v -4.800000 -2.271019 14.633333
v -6.000000 -2.235348 14.633333
v -7.200000 -2.158768 14.633333
v -8.400000 -2.054591 14.633333
v -9.600000 -1.940925 14.633333
v -10.800000 -1.837528 14.633333
v -12.000000 -1.762371 14.633333
v 12.000000 -1.863591 15.833333
v 10.800000 -1.906734 15.833333
v 9.600000 -1.966089 15.833333
v 8.400000 -2.031338 15.833333
v 7.200000 -2.091140 15.833333
v 6.000000 -2.135100 15.833333
v 4.800000 -2.155576 15.833333
v 3.600000 -2.149010 15.833333
v 2.400000 -2.116543 15.833333
v 1.200000 -2.063818 15.833333
v 0.000000 -2.000000 15.833333
v -1.200000 -1.936182 15.833333
v -2.400000 -1.883457 15.833333
v -3.600000 -1.850990 15.833333
v -4.800000 -1.844424 15.833333
v -6.000000 -1.864900 15.833333
v -7.200000 -1.908860 15.833333
v -8.400000 -1.968662 15.833333
v -9.600000 -2.033911 15.833333
v -10.800000 -2.093266 15.833333
v -12.000000 -2.136409 15.833333
v 12.000000 -1.507042 17.033333
v 10.800000 -1.662953 17.033333
v 9.600000 -1.877450 17.033333
v 8.400000 -2.113249 17.033333
v 7.200000 -2.329363 17.033333
v 6.000000 -2.488226 17.033333
v 4.800000 -2.562225 17.033333
v 3.600000 -2.538496 17.033333
v 2.400000 -2.421166 17.033333
v 1.200000 -2.230627 17.033333
v 0.000000 -2.000000 17.033333
v -1.200000 -1.769373 17.033333
v -2.400000 -1.578834 17.033333
v -3.600000 -1.461503 17.033333
v -4.800000 -1.437775 17.033333
v -6.000000 -1.511774 17.033333
v -7.200000 -1.670637 17.033333
v -8.400000 -1.886751 17.033333
v -9.600000 -2.122550 17.033333
v -10.800000 -2.337047 17.033333
v -12.000000 -2.492958 17.033333
v 12.000000 -1.213693 18.233334
v 10.800000 -1.462383 18.233334
v 9.600000 -1.804523 18.233334
v 8.400000 -2.180641 18.233334
v 7.200000 -2.525359 18.233334
v 6.000000 -2.778759 18.233334
v 4.800000 -2.896793 18.233334
v 3.600000 -2.858944 18.233334
v 2.400000 -2.671792 18.233334
v 1.200000 -2.367868 18.233334
v 0.000000 -2.000000 18.233334
v -1.200000 -1.632132 18.233334
v -2.400000 -1.328208 18.233334
v -3.600000 -1.141056 18.233334
v -4.800000 -1.103207 18.233334
v -6.000000 -1.221241 18.233334
v -7.200000 -1.474641 18.233334
v -8.400000 -1.819359 18.233334
v -9.600000 -2.195477 18.233334
v -10.800000 -2.537617 18.233334
v -12.000000 -2.786307 18.233334
v 12.000000 -1.021154 19.433332
v 10.800000 -1.330739 19.433332
v 9.600000 -1.756657 19.433332
v 8.400000 -2.224874 19.433332
v 7.200000 -2.654002 19.433332
v 6.000000 -2.969450 19.433332
v 4.800000 -3.116386 19.433332
v 3.600000 -3.069270 19.433332
v 2.400000 -2.836291 19.433332
v 1.200000 -2.457946 19.433332
v 0.000000 -2.000000 19.433332
v -1.200000 -1.542054 19.433332
v -2.400000 -1.163709 19.433332
v -3.600000 -0.930730 19.433332
v -4.800000 -0.883614 19.433332
v -6.000000 -1.030550 19.433332
v -7.200000 -1.345998 19.433332
v -8.400000 -1.775126 19.433332
v -9.600000 -2.243343 19.433332
v -10.800000 -2.669261 19.433332
v -12.000000 -2.978846 19.433332
v 12.000000 -0.954109 20.633333
v 10.800000 -1.284899 20.633333
v 9.600000 -1.739990 20.633333
v 8.400000 -2.240276 20.633333
v 7.200000 -2.698797 20.633333
v 6.000000 -3.035851 20.633333
v 4.800000 -3.192852 20.633333
v 3.600000 -3.142509 20.633333
v 2.400000 -2.893572 20.633333
v 1.200000 -2.489313 20.633333
v 0.000000 -2.000000 20.633333
v -1.200000 -1.510687 20.633333
v -2.400000 -1.106428 20.633333
v -3.600000 -0.857492 20.633333
v -4.800000 -0.807148 20.633333
v -6.000000 -0.964149 20.633333
v -7.200000 -1.301203 20.633333
v -8.400000 -1.759724 20.633333
v -9.600000 -2.260010 20.633333
v -10.800000 -2.715101 20.633333
v -12.000000 -3.045891 20.633333
v 12.000000 -1.021154 21.833334
v 10.800000 -1.330739 21.833334
v 9.600000 -1.756657 21.833334
v 8.400000 -2.224874 21.833334
v 7.200000 -2.654002 21.833334
v 6.000000 -2.969450 21.833334
v 4.800000 -3.116386 21.833334
v 3.600000 -3.069270 21.833334
v 2.400000 -2.836291 21.833334
v 1.200000 -2.457946 21.833334
v 0.000000 -2.000000 21.833334
v -1.200000 -1.542054 21.833334
v -2.400000 -1.163709 21.833334
v -3.600000 -0.930730 21.833334
v -4.800000 -0.883614 21.833334
v -6.000000 -1.030550 21.833334
v -7.200000 -1.345998 21.833334
v -8.400000 -1.775126 21.833334
v -9.600000 -2.243343 21.833334
v -10.800000 -2.669261 21.833334
v -12.000000 -2.978846 21.833334
v 12.000000 -1.213693 23.033333
v 10.800000 -1.462383 23.033333
v 9.600000 -1.804523 23.033333
v 8.400000 -2.180641 23.033333
v 7.200000 -2.525359 23.033333
v 6.000000 -2.778759 23.033333
v 4.800000 -2.896793 23.033333
v 3.600000 -2.858944 23.033333
v 2.400000 -2.671792 23.033333
v 1.200000 -2.367868 23.033333
v 0.000000 -2.000000 23.033333
v -1.200000 -1.632132 23.033333
v -2.400000 -1.328208 23.033333
v -3.600000 -1.141056 23.033333
v -4.800000 -1.103207 23.033333
v -6.000000 -1.221241 23.033333
v -7.200000 -1.474641 23.033333
v -8.400000 -1.819359 23.033333
v -9.600000 -2.195477 23.033333
v -10.800000 -2.537617 23.033333
v -12.000000 -2.786307 23.033333
v 12.000000 -1.507042 24.233334
v 10.800000 -1.662953 24.233334
v 9.600000 -1.877450 24.233334
v 8.400000 -2.113249 24.233334
v 7.200000 -2.329363 24.233334
v 6.000000 -2.488226 24.233334
v 4.800000 -2.562225 24.233334
v 3.600000 -2.538496 24.233334
v 2.400000 -2.421166 24.233334
v 1.200000 -2.230627 24.233334
v 0.000000 -2.000000 24.233334
v -1.200000 -1.769373 24.233334
v -2.400000 -1.578834 24.233334
v -3.600000 -1.461503 24.233334
v -4.800000 -1.437775 24.233334
v -6.000000 -1.511774 24.233334
v -7.200000 -1.670637 24.233334
v -8.400000 -1.886751 24.233334
v -9.600000 -2.122550 24.233334
v -10.800000 -2.337047 24.233334
v -12.000000 -2.492958 24.233334
v 12.000000 -1.863591 25.433334
v 10.800000 -1.906734 25.433334
v 9.600000 -1.966089 25.433334
v 8.400000 -2.031338 25.433334
v 7.200000 -2.091140 25.433334
v 6.000000 -2.135100 25.433334
v 4.800000 -2.155576 25.433334
v 3.600000 -2.149010 25.433334
v 2.400000 -2.116543 25.433334
v 1.200000 -2.063818 25.433334
v 0.000000 -2.000000 25.433334
v -1.200000 -1.936182 25.433334
v -2.400000 -1.883457 25.433334
v -3.600000 -1.850990 25.433334
v -4.800000 -1.844424 25.433334
v -6.000000 -1.864900 25.433334
v -7.200000 -1.908860 25.433334
v -8.400000 -1.968662 25.433334
v -9.600000 -2.033911 25.433334
v -10.800000 -2.093266 25.433334
v -12.000000 -2.136409 25.433334
v 12.000000 -2.237629 26.633333
v 10.800000 -2.162472 26.633333
v 9.600000 -2.059075 26.633333
v 8.400000 -1.945409 26.633333
v 7.200000 -1.841232 26.633333
v 6.000000 -1.764652 26.633333
v 4.800000 -1.728981 26.633333
v 3.600000 -1.740420 26.633333
v 2.400000 -1.796979 26.633333
v 1.200000 -1.888827 26.633333
v 0.000000 -2.000000 26.633333
v -1.200000 -2.111173 26.633333
v -2.400000 -2.203021 26.633333
v -3.600000 -2.259580 26.633333
v -4.800000 -2.271019 26.633333
v -6.000000 -2.235348 26.633333
v -7.200000 -2.158768 26.633333
v -8.400000 -2.054591 26.633333
v -9.600000 -1.940925 26.633333
v -10.800000 -1.837528 26.633333
v -12.000000 -1.762371 26.633333
v 12.000000 -2.581201 27.833332
v 10.800000 -2.397381 27.833332
v 9.600000 -2.144487 27.833332
v 8.400000 -1.866479 27.833332
v 7.200000 -1.611679 27.833332
v 6.000000 -1.424378 27.833332
v 4.800000 -1.337133 27.833332
v 3.600000 -1.365109 27.833332
v 2.400000 -1.503443 27.833332
v 1.200000 -1.728089 27.833332
v 0.000000 -2.000000 27.833332
v -1.200000 -2.271911 27.833332
v -2.400000 -2.496557 27.833332
v -3.600000 -2.634891 27.833332
v -4.800000 -2.662867 27.833332
v -6.000000 -2.575622 27.833332
v -7.200000 -2.388321 27.833332
v -8.400000 -2.133521 27.833332
v -9.600000 -1.855513 27.833332
v -10.800000 -1.602619 27.833332
v -12.000000 -1.418799 27.833332
v 12.000000 -2.850259 29.033333
v 10.800000 -2.581342 29.033333
v 9.600000 -2.211376 29.033333
v 8.400000 -1.804667 29.033333
v 7.200000 -1.431912 29.033333
v 6.000000 -1.157903 29.033333
v 4.800000 -1.030269 29.033333
v 3.600000 -1.071195 29.033333
v 2.400000 -1.273569 29.033333
v 1.200000 -1.602212 29.033333
v 0.000000 -2.000000 29.033333
v -1.200000 -2.397788 29.033333
v -2.400000 -2.726431 29.033333
v -3.600000 -2.928804 29.033333
v -4.800000 -2.969731 29.033333
v -6.000000 -2.842097 29.033333
v -7.200000 -2.568088 29.033333
v -8.400000 -2.195333 29.033333
v -9.600000 -1.788624 29.033333
v -10.800000 -1.418658 29.033333
v -12.000000 -1.149741 29.033333
v 12.000000 -3.010309 30.233334
v 10.800000 -2.690773 30.233334
v 9.600000 -2.251164 30.233334
v 8.400000 -1.767898 30.233334
v 7.200000 -1.324977 30.233334
v 6.000000 -0.999389 30.233334
v 4.800000 -0.847730 30.233334
v 3.600000 -0.896361 30.233334
v 2.400000 -1.136828 30.233334
v 1.200000 -1.527334 30.233334
v 0.000000 -2.000000 30.233334
v -1.200000 -2.472666 30.233334
v -2.400000 -2.863172 30.233334
v -3.600000 -3.103640 30.233334
v -4.800000 -3.152270 30.233334
v -6.000000 -3.000611 30.233334
v -7.200000 -2.675023 30.233334
v -8.400000 -2.232102 30.233334
v -9.600000 -1.748836 30.233334
v -10.800000 -1.309227 30.233334
v -12.000000 -0.989691 30.233334
v 12.000000 -3.040831 31.433334
v 10.800000 -2.711641 31.433334
v 9.600000 -2.258752 31.433334
v 8.400000 -1.760886 31.433334
v 7.200000 -1.304584 31.433334
v 6.000000 -0.969160 31.433334
v 4.800000 -0.812919 31.433334
v 3.600000 -0.863019 31.433334
v 2.400000 -1.110751 31.433334
v 1.200000 -1.513055 31.433334
v 0.000000 -2.000000 31.433334
v -1.200000 -2.486945 31.433334
v -2.400000 -2.889249 31.433334
v -3.600000 -3.136981 31.433334
v -4.800000 -3.187081 31.433334
v -6.000000 -3.030840 31.433334
v -7.200000 -2.695416 31.433334
v -8.400000 -2.239114 31.433334
v -9.600000 -1.741248 31.433334
v -10.800000 -1.288359 31.433334
v -12.000000 -0.959169 31.433334
v 12.000000 -2.937912 32.633331
v 10.800000 -2.641273 32.633331
v 9.600000 -2.233166 32.633331
v 8.400000 -1.784531 32.633331
v 7.200000 -1.373348 32.633331
v 6.000000 -1.071092 32.633331
v 4.800000 -0.930300 32.633331
v 3.600000 -0.975446 32.633331
v 2.400000 -1.198682 32.633331
v 1.200000 -1.561205 32.633331
v 0.000000 -2.000000 32.633331
v -1.200000 -2.438795 32.633331
v -2.400000 -2.801318 32.633331
v -3.600000 -3.024554 32.633331
v -4.800000 -3.069700 32.633331
v -6.000000 -2.928908 32.633331
v -7.200000 -2.626652 32.633331
v -8.400000 -2.215470 32.633331
v -9.600000 -1.766834 32.633331
v -10.800000 -1.358727 32.633331
v -12.000000 -1.062088 32.633331
vn 0.2517 0.9653 0.0697
vn 0.3374 0.9406 0.0376
vn 0.3669 0.9303 0.0008
vn 0.3397 0.9398 -0.0362
vn 0.2562 0.9642 -0.0686
vn 0.1223 0.9884 -0.0903
vn -0.0395 0.9947 -0.0952
vn -0.1919 0.9780 -0.0816
vn -0.3032 0.9514 -0.0539
vn -0.3598 0.9328 -0.0187
vn -0.3598 0.9328 0.0187
vn -0.3032 0.9514 0.0539
vn -0.1919 0.9780 0.0816
vn -0.0395 0.9947 0.0952
vn 0.1223 0.9884 0.0903
vn 0.2562 0.9642 0.0686
vn 0.3397 0.9398 0.0362
vn 0.3669 0.9303 -0.0008
vn 0.3374 0.9406 -0.0376
vn 0.2517 0.9653 -0.0697
vn 0.2609 0.9651 -0.0207
vn 0.3485 0.9372 -0.0111
vn 0.3784 0.9256 -0.0002
vn 0.3508 0.9364 0.0107
vn 0.2655 0.9639 0.0203
vn 0.1272 0.9915 0.0269
vn -0.0411 0.9988 0.0284
vn -0.1993 0.9796 0.0243
vn -0.3136 0.9494 0.0160
vn -0.3713 0.9285 0.0055
vn -0.3713 0.9285 -0.0055
vn -0.3136 0.9494 -0.0160
vn -0.1993 0.9796 -0.0243
vn -0.0411 0.9988 -0.0284
vn 0.1272 0.9915 -0.0269
vn 0.2655 0.9639 -0.0203
vn 0.3508 0.9364 -0.0107
vn 0.3784 0.9256 0.0002
vn 0.3485 0.9372 0.0111
vn 0.2609 0.9651 0.0207
vn 0.2367 0.9655 -0.1084
vn 0.3191 0.9459 -0.0588
vn 0.3477 0.9376 -0.0012
vn 0.3213 0.9453 0.0566
vn 0.2410 0.9646 0.1067
vn 0.1145 0.9835 0.1398
vn -0.0369 0.9884 0.1472
vn -0.1800 0.9755 0.1266
vn -0.2860 0.9545 0.0842
vn -0.3408 0.9397 0.0293
vn -0.3408 0.9397 -0.0293
vn -0.2860 0.9545 -0.0842
vn -0.1800 0.9755 -0.1266
vn -0.0369 0.9884 -0.1472
vn 0.1145 0.9835 -0.1398
vn 0.2410 0.9646 -0.1067
vn 0.3213 0.9453 -0.0566
vn 0.3477 0.9376 0.0012
vn 0.3191 0.9459 0.0588
vn 0.2367 0.9655 0.1084
vn 0.1823 0.9662 -0.1824
vn 0.2499 0.9630 -0.1007
vn 0.2744 0.9616 -0.0020
vn 0.2518 0.9629 0.0969
vn 0.1857 0.9661 0.1796
vn 0.0868 0.9690 0.2315
vn -0.0278 0.9697 0.2427
vn -0.1374 0.9677 0.2112
vn -0.2223 0.9644 0.1430
vn -0.2684 0.9620 0.0505
vn -0.2684 0.9620 -0.0505
vn -0.2223 0.9644 -0.1430
vn -0.1374 0.9677 -0.2112
vn -0.0278 0.9697 -0.2427
vn 0.0868 0.9690 -0.2315
vn 0.1857 0.9661 -0.1796
vn 0.2518 0.9629 -0.0969
vn 0.2744 0.9616 0.0020
vn 0.2499 0.9630 0.1007
vn 0.1823 0.9662 0.1824
vn 0.1043 0.9669 -0.2330
vn 0.1456 0.9807 -0.1309
vn 0.1611 0.9869 -0.0027
vn 0.1467 0.9811 0.1261
vn 0.1064 0.9674 0.2297
vn 0.0489 0.9553 0.2914
vn -0.0156 0.9524 0.3044
vn -0.0780 0.9604 0.2676
vn -0.1285 0.9744 0.1844
vn -0.1573 0.9853 0.0660
vn -0.1573 0.9853 -0.0660
vn -0.1285 0.9744 -0.1844
vn -0.0780 0.9604 -0.2676
vn -0.0156 0.9524 -0.3044
vn 0.0489 0.9553 -0.2914
vn 0.1064 0.9674 -0.2297
vn 0.1467 0.9811 -0.1261
vn 0.1611 0.9869 0.0027
vn 0.1456 0.9807 0.1309
vn 0.1043 0.9669 0.2330
vn 0.0129 0.9672 -0.2538
vn 0.0182 0.9894 -0.1438
vn 0.0202 0.9998 -0.0029
vn 0.0183 0.9902 0.1386
vn 0.0132 0.9681 0.2502
vn 0.0060 0.9490 0.3152
vn -0.0019 0.9444 0.3287
vn -0.0096 0.9569 0.2903
vn -0.0160 0.9793 0.2018
vn -0.0197 0.9972 0.0727
vn -0.0197 0.9972 -0.0727
vn -0.0160 0.9793 -0.2018
vn -0.0096 0.9569 -0.2903
vn -0.0019 0.9444 -0.3287
vn 0.0060 0.9490 -0.3152
vn 0.0132 0.9681 -0.2502
vn 0.0183 0.9902 -0.1386
vn 0.0202 0.9998 0.0029
vn 0.0182 0.9894 0.1438
vn 0.0129 0.9672 0.2538
vn -0.0802 0.9670 -0.2419
vn -0.1123 0.9843 -0.1363
vn -0.1245 0.9922 -0.0028
vn -0.1132 0.9848 0.1314
vn -0.0818 0.9677 0.2384
vn -0.0375 0.9527 0.3016
vn 0.0120 0.9491 0.3148
vn 0.0599 0.9589 0.2773
vn 0.0990 0.9764 0.1918
vn 0.1215 0.9902 0.0688
vn 0.1215 0.9902 -0.0688
vn 0.0990 0.9764 -0.1918
vn 0.0599 0.9589 -0.2773
vn 0.0120 0.9491 -0.3148
vn -0.0375 0.9527 -0.3016
vn -0.0818 0.9677 -0.2384
vn -0.1132 0.9848 -0.1314
vn -0.1245 0.9922 0.0028
vn -0.1123 0.9843 0.1363
vn -0.0802 0.9670 0.2419
vn -0.1629 0.9664 -0.1989
vn -0.2246 0.9682 -0.1103
vn -0.2471 0.9690 -0.0022
vn -0.2263 0.9683 0.1063
vn -0.1660 0.9665 0.1959
vn -0.0772 0.9648 0.2513
vn 0.0247 0.9644 0.2632
vn 0.1225 0.9655 0.2297
vn 0.1993 0.9674 0.1563
vn 0.2416 0.9688 0.0554
vn 0.2416 0.9688 -0.0554
vn 0.1993 0.9674 -0.1563
vn 0.1225 0.9655 -0.2297
vn 0.0247 0.9644 -0.2632
vn -0.0772 0.9648 -0.2513
vn -0.1660 0.9665 -0.1959
vn -0.2263 0.9683 -0.1063
vn -0.2471 0.9690 0.0022
vn -0.2246 0.9682 0.1103
vn -0.1629 0.9664 0.1989
vn -0.2246 0.9657 -0.1304
vn -0.3040 0.9500 -0.0711
vn -0.3319 0.9433 -0.0014
vn -0.3062 0.9495 0.0684
vn -0.2287 0.9650 0.1284
vn -0.1082 0.9799 0.1675
vn 0.0348 0.9837 0.1762
vn 0.1704 0.9736 0.1520
vn 0.2720 0.9569 0.1015
vn 0.3252 0.9450 0.0355
vn 0.3252 0.9450 -0.0355
vn 0.2720 0.9569 -0.1015
vn 0.1704 0.9736 -0.1520
vn 0.0348 0.9837 -0.1762
vn -0.1082 0.9799 -0.1675
vn -0.2287 0.9650 -0.1284
vn -0.3062 0.9495 -0.0684
vn -0.3319 0.9433 0.0014
vn -0.3040 0.9500 0.0711
vn -0.2246 0.9657 0.1304
vn -0.2575 0.9652 -0.0454
vn -0.3445 0.9385 -0.0244
vn -0.3742 0.9273 -0.0005
vn -0.3468 0.9376 0.0235
vn -0.2621 0.9640 0.0447
vn -0.1254 0.9904 0.0590
vn 0.0405 0.9972 0.0622
vn 0.1966 0.9790 0.0532
vn 0.3098 0.9501 0.0351
vn 0.3671 0.9301 0.0122
vn 0.3671 0.9301 -0.0122
vn 0.3098 0.9501 -0.0351
vn 0.1966 0.9790 -0.0532
vn 0.0405 0.9972 -0.0622
vn -0.1254 0.9904 -0.0590
vn -0.2621 0.9640 -0.0447
vn -0.3468 0.9376 -0.0235
vn -0.3742 0.9273 0.0005
vn -0.3445 0.9385 0.0244
vn -0.2575 0.9652 0.0454
s 0
usemtl Demo_TerrainMaterial
f 1//1 2//1 23//1 22//1
f 2//2 3//2 24//2 23//2
f 3//3 4//3 25//3 24//3
f 4//4 5//4 26//4 25//4
f 5//5 6//5 27//5 26//5
f 6//6 7//6 28//6 27//6
f 7//7 8//7 29//7 28//7
f 8//8 9//8 30//8 29//8
f 9//9 10//9 31//9 30//9
f 10//10 11//10 32//10 31//10
f 11//11 12//11 33//11 32//11
f 12//12 13//12 34//12 33//12
f 13//13 14//13 35//13 34//13
f 14//14 15//14 36//14 35//14
f 15//15 16//15 37//15 36//15
f 16//16 17//16 38//16 37//16
f 17//17 18//17 39//17 38//17
f 18//18 19//18 40//18 39//18
f 19//19 20//19 41//19 40//19
f 20//20 21//20 42//20 41//20
f 22//21 23//21 44//21 43//21
f 23//22 24//22 45//22 44//22
f 24//23 25//23 46//23 45//23
f 25//24 26//24 47//24 46//24
f 26//25 27//25 48//25 47//25
f 27//26 28//26 49//26 48//26
f 28//27 29//27 50//27 49//27
f 29//28 30//28 51//28 50//28
f 30//29 31//29 52//29 51//29
f 31//30 32//30 53//30 52//30
f 32//31 33//31 54//31 53//31
f 33//32 34//32 55//32 54//32
f 34//33 35//33 56//33 55//33
f 35//34 36//34 57//34 56//34
f 36//35 37//35 58//35 57//35
f 37//36 38//36 59//36 58//36
f 38//37 39//37 60//37 59//37
f 39//38 40//38 61//38 60//38
f 40//39 41//39 62//39 61//39
f 41//40 42//40 63//40 62//40
f 43//41 44//41 65//41 64//41
f 44//42 45//42 66//42 65//42
f 45//43 46//43 67//43 66//43
f 46//44 47//44 68//44 67//44
f 47//45 48//45 69//45 68//45
f 48//46 49//46 70//46 69//46
f 49//47 50//47 71//47 70//47
f 50//48 51//48 72//48 71//48
f 51//49 52//49 73//49 72//49
f 52//50 53//50 74//50 73//50
f 53//51 54//51 75//51 74//51
f 54//52 55//52 76//52 75//52
f 55//53 56//53 77//53 76//53
f 56//54 57//54 78//54 77//54
f 57//55 58//55 79//55 78//55
f 58//56 59//56 80//56 79//56
f 59//57 60//57 81//57 80//57
f 60//58 61//58 82//58 81//58
f 61//59 62//59 83//59 82//59
f 62//60 63//60 84//60 83//60
f 64//61 65//61 86//61 85//61
f 65//62 66//62 87//62 86//62
f 66//63 67//63 88//63 87//63
f 67//64 68//64 89//64 88//64
f 68//65 69//65 90//65 89//65
f 69//66 70//66 91//66 90//66
f 70//67 71//67 92//67 91//67
f 71//68 72//68 93//68 92//68
f 72//69 73//69 94//69 93//69
f 73//70 74//70 95//70 94//70
f 74//71 75//71 96//71 95//71
f 75//72 76//72 97//72 96//72
f 76//73 77//73 98//73 97//73
f 77//74 78//74 99//74 98//74
f 78//75 79//75 100//75 99//75
f 79//76 80//76 101//76 100//76
f 80//77 81//77 102//77 101//77
f 81//78 82//78 103//78 102//78
f 82//79 83//79 104//79 103//79
f 83//80 84//80 105//80 104//80
f 85//81 86//81 107//81 106//81
f 86//82 87//82 108//82 107//82
f 87//83 88//83 109//83 108//83
f 88//84 89//84 110//84 109//84
f 89//85 90//85 111//85 110//85
f 90//86 91//86 112//86 111//86
f 91//87 92//87 113//87 112//87
f 92//88 93//88 114//88 113//88
f 93//89 94//89 115//89 114//89
f 94//90 95//90 116//90 115//90
f 95//91 96//91 117//91 116//91
f 96//92 97//92 118//92 117//92
f 97//93 98//93 119//93 118//93
f 98//94 99//94 120//94 119//94
f 99//95 100//95 121//95 120//95
f 100//96 101//96 122//96 121//96
f 101//97 102//97 123//97 122//97
f 102//98 103//98 124//98 123//98
f 103//99 104//99 125//99 124//99
f 104//100 105//100 126//100 125//100
f 106//101 107//101 128//101 127//101
f 107//102 108//102 129//102 128//102
f 108//103 109//103 130//103 129//103
f 109//104 110//104 131//104 130//104
f 110//105 111//105 132//105 131//105
f 111//106 112//106 133//106 132//106
f 112//107 113//107 134//107 133//107
f 113//108 114//108 135//108 134//108
f 114//109 115//109 136//109 135//109
f 115//110 116//110 137//110 136//110
f 116//111 117//111 138//111 137//111
f 117//112 118//112 139//112 138//112
f 118//113 119//113 140//113 139//113
f 119//114 120//114 141//114 140//114
f 120//115 121//115 142//115 141//115
f 121//116 122//116 143//116 142//116
f 122//117 123//117 144//117 143//117
f 123//118 124//118 145//118 144//118
f 124//119 125//119 146//119 145//119
f 125//120 126//120 147//120 146//120
f 127//121 128//121 149//121 148//121
f 128//122 129//122 150//122 149//122
f 129//123 130//123 151//123 150//123
f 130//124 131//124 152//124 151//124
f 131//125 132//125 153//125 152//125
f 132//126 133//126 154//126 153//126
f 133//127 134//127 155//127 154//127
f 134//128 135//128 156//128 155//128
f 135//129 136//129 157//129 156//129
f 136//130 137//130 158//130 157//130
f 137//131 138//131 159//131 158//131
f 138//132 139//132 160//132 159//132
f 139//133 140//133 161//133 160//133
f 140//134 141//134 162//134 161//134
f 141//135 142//135 163//135 162//135
f 142//136 143//136 164//136 163//136
f 143//137 144//137 165//137 164//137
f 144//138 145//138 166//138 165//138
f 145//139 146//139 167//139 166//139
f 146//140 147//140 168//140 167//140
f 148//141 149//141 170//141 169//141
f 149//142 150//142 171//142 170//142
f 150//143 151//143 172//143 171//143
f 151//144 152//144 173//144 172//144
f 152//145 153//145 174//145 173//145
f 153//146 154//146 175//146 174//146
f 154//147 155//147 176//147 175//147
f 155//148 156//148 177//148 176//148
f 156//149 157//149 178//149 177//149
f 157//150 158//150 179//150 178//150
f 158//151 159//151 180//151 179//151
f 159//152 160//152 181//152 180//152
f 160//153 161//153 182//153 181//153
f 161//154 162//154 183//154 182//154
f 162//155 163//155 184//155 183//155
f 163//156 164//156 185//156 184//156
f 164//157 165//157 186//157 185//157
f 165//158 166//158 187//158 186//158
f 166//159 167//159 188//159 187//159
f 167//160 168//160 189//160 188//160
f 169//161 170//161 191//161 190//161
f 170//162 171//162 192//162 191//162
f 171//163 172//163 193//163 192//163
f 172//164 173//164 194//164 193//164
f 173//165 174//165 195//165 194//165
f 174//166 175//166 196//166 195//166
f 175//167 176//167 197//167 196//167
f 176//168 177//168 198//168 197//168
f 177//169 178//169 199//169 198//169
f 178//170 179//170 200//170 199//170
f 179//171 180//171 201//171 200//171
f 180//172 181//172 202//172 201//172
f 181//173 182//173 203//173 202//173
f 182//174 183//174 204//174 203//174
f 183//175 184//175 205//175 204//175
f 184//176 185//176 206//176 205//176
f 185//177 186//177 207//177 206//177
f 186//178 187//178 208//178 207//178
f 187//179 188//179 209//179 208//179
f 188//180 189//180 210//180 209//180
f 190//181 191//181 212//181 211//181
f 191//182 192//182 213//182 212//182
f 192//183 193//183 214//183 213//183
f 193//184 194//184 215//184 214//184
f 194//185 195//185 216//185 215//185
f 195//186 196//186 217//186 216//186
f 196//187 197//187 218//187 217//187
f 197//188 198//188 219//188 218//188
f 198//189 199//189 220//189 219//189
f 199//190 200//190 221//190 220//190
f 200//191 201//191 222//191 221//191
f 201//192 202//192 223//192 222//192
f 202//193 203//193 224//193 223//193
f 203//194 204//194 225//194 224//194
f 204//195 205//195 226//195 225//195
f 205//196 206//196 227//196 226//196
f 206//197 207//197 228//197 227//197
f 207//198 208//198 229//198 228//198
f 208//199 209//199 230//199 229//199
f 209//200 210//200 231//200 230//200
f 211//200 212//200 233//200 232//200
f 212//199 213//199 234//199 233//199
f 213//198 214//198 235//198 234//198
f 214//197 215//197 236//197 235//197
f 215//196 216//196 237//196 236//196
f 216//195 217//195 238//195 237//195
f 217//194 218//194 239//194 238//194
f 218//193 219//193 240//193 239//193
f 219//192 220//192 241//192 240//192
f 220//191 221//191 242//191 241//191
f 221//190 222//190 243//190 242//190
f 222//189 223//189 244//189 243//189
f 223//188 224//188 245//188 244//188
f 224//187 225//187 246//187 245//187
f 225//186 226//186 247//186 246//186
f 226//185 227//185 248//185 247//185
f 227//184 228//184 249//184 248//184
f 228//183 229//183 250//183 249//183
f 229//182 230//182 251//182 250//182
f 230//181 231//181 252//181 251//181
f 232//180 233//180 254//180 253//180
f 233//179 234//179 255//179 254//179
f 234//178 235//178 256//178 255//178
f 235//177 236//177 257//177 256//177
f 236//176 237//176 258//176 257//176
f 237//175 238//175 259//175 258//175
f 238//174 239//174 260//174 259//174
f 239//173 240//173 261//173 260//173
f 240//172 241//172 262//172 261//172
f 241//171 242//171 263//171 262//171
f 242//170 243//170 264//170 263//170
f 243//169 244//169 265//169 264//169
f 244//168 245//168 266//168 265//168
f 245//167 246//167 267//167 266//167
f 246//166 247//166 268//166 267//166
f 247//165 248//165 269//165 268//165
f 248//164 249//164 270//164 269//164
f 249//163 250//163 271//163 270//163
f 250//162 251//162 272//162 271//162
f 251//161 252//161 273//161 272//161
f 253//160 254//160 275//160 274//160
f 254//159 255//159 276//159 275//159
f 255//158 256//158 277//158 276//158
f 256//157 257//157 278//157 277//157
f 257//156 258//156 279//156 278//156
f 258//155 259//155 280//155 279//155
f 259//154 260//154 281//154 280//154
f 260//153 261//153 282//153 281//153
f 261//152 262//152 283//152 282//152
f 262//151 263//151 284//151 283//151
f 263//150 264//150 285//150 284//150
f 264//149 265//149 286//149 285//149
f 265//148 266//148 287//148 286//148
f 266//147 267//147 288//147 287//147
f 267//146 268//146 289//146 288//146
f 268//145 269//145 290//145 289//145
f 269//144 270//144 291//144 290//144
f 270//143 271//143 292//143 291//143
f 271//142 272//142 293//142 292//142
f 272//141 273//141 294//141 293//141
f 274//140 275//140 296//140 295//140
f 275//139 276//139 297//139 296//139
f 276//138 277//138 298//138 297//138
f 277//137 278//137 299//137 298//137
f 278//136 279//136 300//136 299//136
f 279//135 280//135 301//135 300//135
f 280//134 281//134 302//134 301//134
f 281//133 282//133 303//133 302//133
f 282//132 283//132 304//132 303//132
f 283//131 284//131 305//131 304//131
f 284//130 285//130 306//130 305//130
f 285//129 286//129 307//129 306//129
f 286//128 287//128 308//128 307//128
f 287//127 288//127 309//127 308//127
f 288//126 289//126 310//126 309//126
f 289//125 290//125 311//125 310//125
f 290//124 291//124 312//124 311//124
f 291//123 292//123 313//123 312//123
f 292//122 293//122 314//122 313//122
f 293//121 294//121 315//121 314//121
f 295//120 296//120 317//120 316//120
f 296//119 297//119 318//119 317//119
f 297//118 298//118 319//118 318//118
f 298//117 299//117 320//117 319//117
f 299//116 300//116 321//116 320//116
f 300//115 301//115 322//115 321//115
f 301//114 302//114 323//114 322//114
f 302//113 303//113 324//113 323//113
f 303//112 304//112 325//112 324//112
f 304//111 305//111 326//111 325//111
f 305//110 306//110 327//110 326//110
f 306//109 307//109 328//109 327//109
f 307//108 308//108 329//108 328//108
f 308//107 309//107 330//107 329//107
f 309//106 310//106 331//106 330//106
f 310//105 311//105 332//105 331//105
f 311//104 312//104 333//104 332//104
f 312//103 313//103 334//103 333//103
f 313//102 314//102 335//102 334//102
f 314//101 315//101 336//101 335//101
f 316//100 317//100 338//100 337//100
f 317//99 318//99 339//99 338//99
f 318//98 319//98 340//98 339//98
f 319//97 320//97 341//97 340//97
f 320//96 321//96 342//96 341//96
f 321//95 322//95 343//95 342//95
f 322//94 323//94 344//94 343//94
f 323//93 324//93 345//93 344//93
f 324//92 325//92 346//92 345//92
f 325//91 326//91 347//91 346//91
f 326//90 327//90 348//90 347//90
f 327//89 328//89 349//89 348//89
f 328//88 329//88 350//88 349//88
f 329//87 330//87 351//87 350//87
f 330//86 331//86 352//86 351//86
f 331//85 332//85 353//85 352//85
f 332//84 333//84 354//84 353//84
f 333//83 334//83 355//83 354//83
f 334//82 335//82 356//82 355//82
f 335//81 336//81 357//81 356//81
f 337//80 338//80 359//80 358//80
f 338//79 339//79 360//79 359//79
f 339//78 340//78 361//78 360//78
f 340//77 341//77 362//77 361//77
f 341//76 342//76 363//76 362//76
f 342//75 343//75 364//75 363//75
f 343//74 344//74 365//74 364//74
f 344//73 345//73 366//73 365//73
f 345//72 346//72 367//72 366//72
f 346//71 347//71 368//71 367//71
f 347//70 348//70 369//70 368//70
f 348//69 349//69 370//69 369//69
f 349//68 350//68 371//68 370//68
f 350//67 351//67 372//67 371//67
f 351//66 352//66 373//66 372//66
f 352//65 353//65 374//65 373//65
f 353//64 354//64 375//64 374//64
f 354//63 355//63 376//63 375//63
f 355//62 356//62 377//62 376//62
f 356//61 357//61 378//61 377//61
f 358//60 359//60 380//60 379//60
f 359//59 360//59 381//59 380//59
f 360//58 361//58 382//58 381//58
f 361//57 362//57 383//57 382//57
f 362//56 363//56 384//56 383//56
f 363//55 364//55 385//55 384//55
f 364//54 365//54 386//54 385//54
f 365//53 366//53 387//53 386//53
f 366//52 367//52 388//52 387//52
f 367//51 368//51 389//51 388//51
f 368//50 369//50 390//50 389//50
f 369//49 370//49 391//49 390//49
f 370//48 371//48 392//48 391//48
f 371//47 372//47 393//47 392//47
f 372//46 373//46 394//46 393//46
f 373//45 374//45 395//45 394//45
f 374//44 375//44 396//44 395//44
f 375//43 376//43 397//43 396//43
f 376//42 377//42 398//42 397//42
f 377//41 378//41 399//41 398//41
f 379//40 380//40 401//40 400//40
f 380//39 381//39 402//39 401//39
f 381//38 382//38 403//38 402//38
f 382//37 383//37 404//37 403//37
f 383//36 384//36 405//36 404//36
f 384//35 385//35 406//35 405//35
f 385//34 386//34 407//34 406//34
f 386//33 387//33 408//33 407//33
f 387//32 388//32 409//32 408//32
f 388//31 389//31 410//31 409//31
f 389//30 390//30 411//30 410//30
f 390//29 391//29 412//29 411//29
f 391//28 392//28 413//28 412//28
f 392//27 393//27 414//27 413//27
f 393//26 394//26 415//26 414//26
f 394//25 395//25 416//25 415//25
f 395//24 396//24 417//24 416//24
f 396//23 397//23 418//23 417//23
f 397//22 398//22 419//22 418//22
f 398//21 399//21 420//21 419//21
f 400//20 401//20 422//20 421//20
f 401//19 402//19 423//19 422//19
f 402//18 403//18 424//18 423//18
f 403//17 404//17 425//17 424//17
f 404//16 405//16 426//16 425//16
f 405//15 406//15 427//15 426//15
f 406//14 407//14 428//14 427//14
f 407//13 408//13 429//13 428//13
f 408//12 409//12 430//12 429//12
f 409//11 410//11 431//11 430//11
f 410//10 411//10 432//10 431//10
f 411//9 412//9 433//9 432//9
f 412//8 413//8 434//8 433//8
f 413//7 414//7 435//7 434//7
f 414//6 415//6 436//6 435//6
f 415//5 416//5 437//5 436//5
f 416//4 417//4 438//4 437//4
f 417//3 418//3 439//3 438//3
f 418//2 419//2 440//2 439//2
f 419//1 420//1 441//1 440//1
