{
	"asset":{
		"generator":"Khronos glTF Blender I/O v4.4.56",
		"version":"2.0"
	},
	"scene":0,
	"scenes":[
		{
			"name":"Scene",
			"nodes":[
				0
			]
		}
	],
	"nodes":[
		{
			"mesh":0,
			"name":"\u30c6\u30ad\u30b9\u30c8",
			"scale":[
				2.5436339378356934,
				2.5436339378356934,
				2.5436339378356934
			]
		}
	],
	"materials":[
		{
			"doubleSided":true,
			"name":"\u30de\u30c6\u30ea\u30a2\u30eb",
			"pbrMetallicRoughness":{
				"baseColorTexture":{
					"index":0
				},
				"metallicFactor":0,
				"roughnessFactor":0.5
			}
		}
	],
	"meshes":[
		{
			"name":"\u30c6\u30ad\u30b9\u30c8",
			"primitives":[
				{
					"attributes":{
						"POSITION":0,
						"NORMAL":1,
						"TEXCOORD_0":2
					},
					"indices":3,
					"material":0
				}
			]
		}
	],
	"textures":[
		{
			"sampler":0,
			"source":0
		}
	],
	"images":[
		{
			"mimeType":"image/png",
			"name":"ground",
			"uri":"ground.png"
		}
	],
	"accessors":[
		{
			"bufferView":0,
			"componentType":5126,
			"count":10526,
			"max":[
				2.526536703109741,
				0.32999998331069946,
				0.17304609715938568
			],
			"min":[
				-2.5047802925109863,
				-0.32999998331069946,
				-0.8508701920509338
			],
			"type":"VEC3"
		},
		{
			"bufferView":1,
			"componentType":5126,
			"count":10526,
			"type":"VEC3"
		},
		{
			"bufferView":2,
			"componentType":5126,
			"count":10526,
			"type":"VEC2"
		},
		{
			"bufferView":3,
			"componentType":5123,
			"count":53388,
			"type":"SCALAR"
		}
	],
	"bufferViews":[
		{
			"buffer":0,
			"byteLength":126312,
			"byteOffset":0,
			"target":34962
		},
		{
			"buffer":0,
			"byteLength":126312,
			"byteOffset":126312,
			"target":34962
		},
		{
			"buffer":0,
			"byteLength":84208,
			"byteOffset":252624,
			"target":34962
		},
		{
			"buffer":0,
			"byteLength":106776,
			"byteOffset":336832,
			"target":34963
		}
	],
	"samplers":[
		{
			"magFilter":9729,
			"minFilter":9987
		}
	],
	"buffers":[
		{
			"byteLength":443608,
			"uri":"arumatitle.bin"
		}
	]
}
