# Blender 4.4.1
# www.blender.org
mtllib ArmoredEnemy.mtl
o ArmoredEnemy
v 0.000000 0.000000 -0.900000
v -0.651247 0.369059 -0.402498
v 0.248749 0.597156 -0.402498
v 0.804984 0.000000 -0.402494
v 0.248749 -0.597156 -0.402498
v -0.651247 -0.369059 -0.402498
v -0.248749 0.597156 0.402498
v 0.651247 0.369059 0.402498
v 0.651247 -0.369059 0.402498
v -0.248749 -0.597156 0.402498
v -0.804984 0.000000 0.402494
v 0.000000 0.000000 0.900000
v 0.146210 0.350997 -0.765589
v -0.382790 0.216926 -0.765589
v -0.236582 0.567926 -0.473164
v -0.765583 0.000000 -0.473162
v -0.382790 -0.216926 -0.765589
v 0.473157 0.000000 -0.765586
v 0.619370 0.350998 -0.473163
v 0.146210 -0.350997 -0.765589
v 0.619370 -0.350998 -0.473163
v -0.236582 -0.567926 -0.473164
v -0.855952 0.216927 0.000000
v -0.855952 -0.216927 0.000000
v 0.000000 0.702000 0.000000
v -0.529007 0.567930 0.000000
v 0.855952 0.216927 0.000000
v 0.529007 0.567930 0.000000
v 0.529007 -0.567930 0.000000
v 0.855952 -0.216927 0.000000
v -0.529007 -0.567930 0.000000
v 0.000000 -0.702000 0.000000
v -0.619370 0.350998 0.473163
v 0.236582 0.567926 0.473164
v 0.765583 0.000000 0.473162
v 0.236582 -0.567926 0.473164
v -0.619370 -0.350998 0.473163
v -0.146210 0.350997 0.765589
v -0.473157 0.000000 0.765586
v 0.382790 0.216926 0.765589
v 0.382790 -0.216926 0.765589
v -0.146210 -0.350997 0.765589
v 0.000000 0.630000 -0.360000
v -0.293061 0.842919 -0.136124
v 0.111937 0.974513 -0.136124
v 0.362243 0.630000 -0.136122
v 0.111937 0.285487 -0.136124
v -0.293061 0.417081 -0.136124
v -0.111937 0.974513 0.226124
v 0.293061 0.842919 0.226124
v 0.293061 0.417081 0.226124
v -0.111937 0.285487 0.226124
v -0.362243 0.630000 0.226122
v 0.000000 0.630000 0.450000
v 0.065795 0.832498 -0.299515
v -0.172256 0.755150 -0.299515
v -0.106462 0.957650 -0.167924
v -0.344512 0.630000 -0.167923
v -0.172256 0.504850 -0.299515
v 0.212921 0.630000 -0.299514
v 0.278717 0.832499 -0.167923
v 0.065795 0.427502 -0.299515
v 0.278717 0.427501 -0.167923
v -0.106462 0.302350 -0.167924
v -0.385178 0.755150 0.045000
v -0.385178 0.504850 0.045000
v 0.000000 1.035000 0.045000
v -0.238053 0.957652 0.045000
v 0.385178 0.755150 0.045000
v 0.238053 0.957652 0.045000
v 0.238053 0.302348 0.045000
v 0.385178 0.504850 0.045000
v -0.238053 0.302348 0.045000
v 0.000000 0.225000 0.045000
v -0.278717 0.832499 0.257923
v 0.106462 0.957650 0.257924
v 0.344512 0.630000 0.257923
v 0.106462 0.302350 0.257924
v -0.278717 0.427501 0.257923
v -0.065795 0.832498 0.389515
v -0.212921 0.630000 0.389514
v 0.172256 0.755150 0.389515
v 0.172256 0.504850 0.389515
v -0.065795 0.427502 0.389515
v -0.282136 0.778382 0.051995
v -0.322464 0.826782 0.051995
v -0.355328 0.840401 0.000000
v -0.347864 0.805618 -0.051995
v -0.307536 0.757218 -0.051995
v -0.274672 0.743599 -0.000000
v -0.351814 0.724942 0.079655
v -0.389170 0.775658 0.078466
v -0.420385 0.790561 0.025811
v -0.414245 0.754748 -0.025654
v -0.376889 0.704032 -0.024465
v -0.345673 0.689129 0.028189
v -0.415354 0.681102 0.103633
v -0.451990 0.732334 0.102168
v -0.482806 0.747522 0.049360
v -0.476986 0.711480 -0.001983
v -0.440350 0.660248 -0.000517
v -0.409534 0.645059 0.052291
v -0.473272 0.639511 0.125905
v -0.512525 0.688786 0.125466
v -0.544793 0.702889 0.073227
v -0.537808 0.667718 0.021427
v -0.498555 0.618443 0.021867
v -0.466287 0.604339 0.074106
v -0.527196 0.592487 0.148754
v -0.571485 0.637259 0.150476
v -0.606547 0.648864 0.099437
v -0.597320 0.615697 0.046675
v -0.553031 0.570925 0.044953
v -0.517969 0.559320 0.095992
v -0.579413 0.531848 0.174723
v -0.629050 0.570396 0.179109
v -0.667079 0.578548 0.129548
v -0.655471 0.548152 0.075600
v -0.605834 0.509604 0.071214
v -0.567805 0.501453 0.120776
v -0.644275 0.429403 0.213885
v -0.698311 0.461018 0.220923
v -0.738781 0.465324 0.172833
v -0.725214 0.438014 0.117705
v -0.671178 0.406399 0.110667
v -0.630708 0.402093 0.158757
v -0.688665 0.330569 0.247998
v -0.745548 0.356048 0.257172
v -0.787597 0.356949 0.210267
v -0.772763 0.332372 0.154187
v -0.715880 0.306892 0.145013
v -0.673831 0.305991 0.191918
v -0.723165 0.229184 0.280764
v -0.781161 0.251585 0.290946
v -0.823827 0.250779 0.244600
v -0.808497 0.227571 0.188072
v -0.750502 0.205170 0.177890
v -0.707835 0.205976 0.224236
v -0.758069 0.119863 0.315632
v -0.815781 0.143105 0.325543
v -0.858289 0.142765 0.279046
v -0.843086 0.119183 0.222639
v -0.785375 0.095942 0.212728
v -0.742867 0.096281 0.259224
v -0.803678 -0.001615 0.355753
v -0.860036 0.025150 0.364495
v -0.901794 0.026765 0.317349
v -0.887193 0.001615 0.261463
v -0.830835 -0.025150 0.252721
v -0.789077 -0.026765 0.299867
v -0.070353 0.838060 0.333037
v -0.133031 0.831698 0.333037
v -0.160018 0.785639 0.299583
v -0.124327 0.745940 0.266128
v -0.061649 0.752302 0.266128
v -0.034662 0.798361 0.299583
v -0.065858 0.787669 0.403646
v -0.128575 0.781730 0.403064
v -0.155400 0.733905 0.372044
v -0.119509 0.692020 0.341606
v -0.056792 0.697960 0.342188
v -0.029967 0.745785 0.373208
v -0.062742 0.744508 0.470471
v -0.125466 0.738662 0.469749
v -0.152260 0.690445 0.439317
v -0.116331 0.648073 0.409606
v -0.053607 0.653919 0.410328
v -0.026812 0.702137 0.440760
v -0.059238 0.700341 0.536133
v -0.121932 0.694138 0.535922
v -0.148853 0.647412 0.503350
v -0.113082 0.606888 0.470990
v -0.050388 0.613091 0.471201
v -0.023466 0.659817 0.503772
v -0.053512 0.647385 0.601666
v -0.116115 0.640363 0.602449
v -0.143418 0.597070 0.565717
v -0.108118 0.560799 0.528203
v -0.045516 0.567821 0.527420
v -0.018213 0.611114 0.564152
v -0.043790 0.578549 0.667136
v -0.106232 0.570394 0.668994
v -0.134207 0.531845 0.627758
v -0.099738 0.501451 0.584663
v -0.037296 0.509607 0.582804
v -0.009322 0.548155 0.624041
v -0.025057 0.466973 0.747515
v -0.087287 0.457556 0.750284
v -0.116148 0.424291 0.705234
v -0.082778 0.400444 0.657414
v -0.020547 0.409861 0.654644
v 0.008313 0.443126 0.699695
v -0.004814 0.360057 0.804708
v -0.066835 0.349523 0.808091
v -0.096574 0.320936 0.760473
v -0.064291 0.302883 0.709474
v -0.002270 0.313418 0.706092
v 0.027468 0.342004 0.753709
v 0.016497 0.254618 0.849450
v -0.045412 0.243523 0.853081
v -0.075619 0.217283 0.804420
v -0.043917 0.202137 0.752126
v 0.017992 0.213231 0.748494
v 0.048199 0.239472 0.797156
v 0.038648 0.146404 0.892954
v -0.023292 0.135463 0.896521
v -0.053369 0.108582 0.848129
v -0.021507 0.092642 0.796171
v 0.040433 0.103584 0.792603
v 0.070511 0.130465 0.840995
v 0.061798 0.029567 0.946557
v -0.000268 0.019266 0.949824
v -0.029817 -0.010300 0.902689
v 0.002701 -0.029567 0.852287
v 0.064768 -0.019266 0.849020
v 0.094316 0.010300 0.896155
v 0.266472 0.822969 0.238768
v 0.227363 0.773578 0.238768
v 0.215731 0.742609 0.185152
v 0.243208 0.761031 0.131537
v 0.282318 0.810422 0.131537
v 0.293950 0.841391 0.185152
v 0.334797 0.772740 0.256257
v 0.298480 0.721266 0.256964
v 0.289430 0.688371 0.204001
v 0.316698 0.706950 0.150333
v 0.353015 0.758423 0.149626
v 0.362065 0.791319 0.202589
v 0.399263 0.729615 0.273930
v 0.363616 0.677678 0.274815
v 0.355186 0.644353 0.222019
v 0.382403 0.662967 0.168337
v 0.418051 0.714904 0.167451
v 0.426480 0.748228 0.220248
v 0.462983 0.685311 0.290937
v 0.424889 0.635133 0.291186
v 0.414196 0.603437 0.237801
v 0.441597 0.621918 0.184166
v 0.479692 0.672095 0.183918
v 0.490385 0.703792 0.237303
v 0.527452 0.632042 0.305827
v 0.484549 0.585915 0.304987
v 0.469409 0.557965 0.250594
v 0.497171 0.576142 0.197041
v 0.540074 0.622269 0.197882
v 0.555214 0.650218 0.252275
v 0.593132 0.562771 0.316881
v 0.544929 0.522244 0.315151
v 0.524886 0.499473 0.259935
v 0.553047 0.517229 0.206450
v 0.601250 0.557756 0.208180
v 0.621292 0.580527 0.263395
v 0.675723 0.450712 0.323934
v 0.622916 0.416421 0.321808
v 0.598615 0.399417 0.266226
v 0.627121 0.416705 0.212770
v 0.679928 0.450996 0.214896
v 0.704229 0.468000 0.270478
v 0.736620 0.343369 0.322352
v 0.680612 0.314597 0.320275
v 0.653351 0.302699 0.264739
v 0.682098 0.319572 0.211280
v 0.738106 0.348343 0.213356
v 0.765367 0.360242 0.268892
v 0.785861 0.237715 0.315898
v 0.728510 0.211712 0.313967
v 0.700007 0.202375 0.258565
v 0.728855 0.219040 0.205094
v 0.786205 0.245043 0.207026
v 0.814709 0.254380 0.262428
v 0.834054 0.129560 0.308278
v 0.777054 0.102801 0.306300
v 0.748874 0.092765 0.250854
v 0.777696 0.109486 0.197387
v 0.834696 0.136245 0.199366
v 0.862875 0.146282 0.254811
v 0.892063 0.012968 0.302836
v 0.836666 -0.016960 0.300722
v 0.809970 -0.029928 0.245151
v 0.838670 -0.012968 0.191694
v 0.894068 0.016960 0.193809
v 0.920764 0.029928 0.249380
v 0.301603 0.779206 -0.144921
v 0.249483 0.743816 -0.144921
v 0.202720 0.756609 -0.185152
v 0.208078 0.804794 -0.225384
v 0.260198 0.840184 -0.225384
v 0.306960 0.827391 -0.185152
v 0.340682 0.727170 -0.206612
v 0.290084 0.689713 -0.209029
v 0.243409 0.702388 -0.249400
v 0.247332 0.752520 -0.287353
v 0.297930 0.789976 -0.284936
v 0.344605 0.777301 -0.244565
v 0.377738 0.683643 -0.262967
v 0.327515 0.645726 -0.265961
v 0.280861 0.658374 -0.306365
v 0.284431 0.708939 -0.343774
v 0.334654 0.746856 -0.340780
v 0.381308 0.734207 -0.300376
v 0.412422 0.640866 -0.316464
v 0.360848 0.604695 -0.317345
v 0.314116 0.617444 -0.357628
v 0.318959 0.666363 -0.397028
v 0.370534 0.702534 -0.396147
v 0.417265 0.689785 -0.355865
v 0.444317 0.591112 -0.369500
v 0.390241 0.558959 -0.366179
v 0.343365 0.571939 -0.406219
v 0.350566 0.617072 -0.449580
v 0.404642 0.649225 -0.452901
v 0.451517 0.636245 -0.412861
v 0.472970 0.526700 -0.424413
v 0.416430 0.500102 -0.416365
v 0.369413 0.513402 -0.456133
v 0.378936 0.553300 -0.503949
v 0.435475 0.579899 -0.511998
v 0.482493 0.566599 -0.472230
v 0.503638 0.420052 -0.497089
v 0.445314 0.399639 -0.484818
v 0.398194 0.413296 -0.524343
v 0.409398 0.447365 -0.576139
v 0.467723 0.467778 -0.588409
v 0.514843 0.454122 -0.548884
v 0.520135 0.317499 -0.552840
v 0.460876 0.302561 -0.537535
v 0.413702 0.316533 -0.576885
v 0.425787 0.345442 -0.631540
v 0.485046 0.360379 -0.646846
v 0.532220 0.346408 -0.607495
v 0.528973 0.214248 -0.600518
v 0.469439 0.202057 -0.583901
v 0.422249 0.216186 -0.623176
v 0.434593 0.242507 -0.679067
v 0.494127 0.254698 -0.695684
v 0.541317 0.240569 -0.656409
v 0.536673 0.105437 -0.649008
v 0.477203 0.092496 -0.632737
v 0.430017 0.106582 -0.672031
v 0.442301 0.133610 -0.727597
v 0.501772 0.146551 -0.743869
v 0.548958 0.132464 -0.704575
v 0.549741 -0.013905 -0.707220
v 0.490634 -0.029990 -0.692502
v 0.443469 -0.016084 -0.731886
v 0.455411 0.013905 -0.785988
v 0.514519 0.029990 -0.800705
v 0.561684 0.016084 -0.761321
v -0.094456 0.746556 -0.256045
v -0.142619 0.787168 -0.256045
v -0.145503 0.832612 -0.299583
v -0.100224 0.837444 -0.343120
v -0.052062 0.796832 -0.343120
v -0.049178 0.751388 -0.299583
v -0.143197 0.692096 -0.314849
v -0.190134 0.734094 -0.313378
v -0.190978 0.781842 -0.354468
v -0.144886 0.787593 -0.397028
v -0.097949 0.745596 -0.398500
v -0.097105 0.697847 -0.357410
v -0.185851 0.648029 -0.368134
v -0.232497 0.690335 -0.366304
v -0.232858 0.738597 -0.406797
v -0.186573 0.744553 -0.449120
v -0.139927 0.702247 -0.450950
v -0.139566 0.653985 -0.410457
v -0.224144 0.607300 -0.415379
v -0.271858 0.648435 -0.414848
v -0.273995 0.694750 -0.457502
v -0.228418 0.699929 -0.500688
v -0.180705 0.658793 -0.501218
v -0.178568 0.612479 -0.458564
v -0.260947 0.562259 -0.457787
v -0.310822 0.600701 -0.459722
v -0.316554 0.642534 -0.506479
v -0.272412 0.645925 -0.551300
v -0.222537 0.607483 -0.549365
v -0.216805 0.565650 -0.502609
v -0.299938 0.504362 -0.497546
v -0.352316 0.539080 -0.502031
v -0.362215 0.574718 -0.553030
v -0.319734 0.575638 -0.599545
v -0.267356 0.540920 -0.595059
v -0.257457 0.505282 -0.544060
v -0.355517 0.404970 -0.545649
v -0.410217 0.435541 -0.552147
v -0.423979 0.464280 -0.606495
v -0.383040 0.462447 -0.654345
v -0.328339 0.431876 -0.647847
v -0.314577 0.403137 -0.593500
v -0.400394 0.308838 -0.576424
v -0.456837 0.335739 -0.584146
v -0.473496 0.358371 -0.640532
v -0.433712 0.354102 -0.689194
v -0.377270 0.327201 -0.681472
v -0.360611 0.304569 -0.625087
v -0.441644 0.208809 -0.598781
v -0.498866 0.233868 -0.606950
v -0.516821 0.253437 -0.664079
v -0.477555 0.247946 -0.713038
v -0.420334 0.222886 -0.704869
v -0.402378 0.203318 -0.647740
v -0.485744 0.099118 -0.621285
v -0.542758 0.124680 -0.629342
v -0.560369 0.145085 -0.686285
v -0.520966 0.139928 -0.735170
v -0.463952 0.114366 -0.727113
v -0.446341 0.093961 -0.670170
v -0.538670 -0.023911 -0.652670
v -0.594769 0.003759 -0.660174
v -0.610857 0.027670 -0.716196
v -0.570845 0.023911 -0.764714
v -0.514746 -0.003759 -0.757210
v -0.498659 -0.027670 -0.701188
v -0.337331 0.137186 0.000000
v -1.164302 0.522494 0.000000
v -0.890464 0.074396 -0.361401
v -0.447385 -0.650643 -0.223358
v -0.447385 -0.650643 0.223358
v -0.890464 0.074396 0.361401
v -1.380000 -0.500000 0.000000
v -0.168666 0.137186 0.292137
v -0.972208 0.355261 0.665107
v -0.734880 -0.183977 0.421615
v -0.012648 -0.643093 0.514621
v 0.196388 -0.387604 0.815594
v -0.396652 0.229413 0.908600
v -0.690000 -0.500000 1.195115
v 0.168666 0.137186 0.292137
v -0.204208 -0.607261 0.665107
v 0.371348 -0.481413 0.421615
v 0.964388 0.135604 0.514621
v 0.755352 0.391093 0.815594
v 0.033120 -0.068023 0.908600
v 0.690000 -0.500000 1.195115
v 0.337331 0.137186 0.000000
v 0.371698 -0.774494 0.000000
v 0.645536 -0.326396 -0.361401
v 1.088615 0.398643 -0.223358
v 1.088615 0.398643 0.223358
v 0.645536 -0.326396 0.361401
v 1.380000 -0.500000 0.000000
v 0.168666 0.137186 -0.292137
v -0.204208 -0.607261 -0.665107
v 0.033120 -0.068023 -0.908600
v 0.755352 0.391093 -0.815594
v 0.964388 0.135604 -0.514621
v 0.371348 -0.481413 -0.421615
v 0.690000 -0.500000 -1.195115
v -0.168666 0.137186 -0.292137
v -0.972208 0.355261 -0.665107
v -0.396652 0.229413 -0.908600
v 0.196388 -0.387604 -0.815594
v -0.012648 -0.643093 -0.514621
v -0.734880 -0.183977 -0.421615
v -0.690000 -0.500000 -1.195115
v 0.000000 -0.450000 -1.000000
v -0.723600 -0.108282 -0.447215
v 0.276385 0.102916 -0.447215
v 0.894425 -0.450000 -0.447215
v 0.276385 -1.002916 -0.447215
v -0.723600 -0.791718 -0.447215
v -0.276385 0.102916 0.447215
v 0.723600 -0.108282 0.447215
v 0.723600 -0.791718 0.447215
v -0.276385 -1.002916 0.447215
v -0.894425 -0.450000 0.447215
v 0.000000 -0.450000 1.000000
vn -0.0000 -0.0000 -1.0000
vn -0.4128 0.3845 -0.8257
vn 0.1508 0.5949 -0.7895
vn -0.6667 0.6210 -0.4121
vn -0.8506 -0.0000 -0.5257
vn 0.5257 -0.0000 -0.8507
vn 0.1508 -0.5949 -0.7895
vn -0.4128 -0.3845 -0.8257
vn -0.9231 0.3845 -0.0000
vn 0.2283 0.9008 -0.3694
vn -0.2205 0.8700 -0.4410
vn -0.0000 1.0000 -0.0000
vn 0.8944 -0.0000 -0.4472
vn 0.6387 0.5949 -0.4879
vn 0.9231 0.3845 -0.0000
vn 0.2283 -0.9008 -0.3694
vn 0.6387 -0.5949 -0.4879
vn 0.4930 -0.8700 -0.0000
vn -0.6667 -0.6210 -0.4121
vn -0.2205 -0.8700 -0.4410
vn -0.4930 -0.8700 -0.0000
vn -0.4930 0.8700 -0.0000
vn 0.4930 0.8700 -0.0000
vn 0.9231 -0.3845 -0.0000
vn -0.0000 -1.0000 -0.0000
vn -0.9231 -0.3845 -0.0000
vn -0.2283 0.9008 0.3694
vn -0.6387 0.5949 0.4879
vn -0.1508 0.5949 0.7895
vn 0.6667 0.6210 0.4121
vn 0.2205 0.8700 0.4410
vn 0.4128 0.3845 0.8257
vn 0.6667 -0.6210 0.4121
vn 0.8506 -0.0000 0.5257
vn 0.4128 -0.3845 0.8257
vn -0.2283 -0.9008 0.3694
vn 0.2205 -0.8700 0.4410
vn -0.1508 -0.5949 0.7895
vn -0.8944 -0.0000 0.4472
vn -0.6387 -0.5949 0.4879
vn -0.5257 -0.0000 0.8507
vn -0.0000 -0.0000 1.0000
vn -0.0009 -0.0000 -1.0000
vn -0.4221 0.3221 -0.8474
vn 0.1590 0.5160 -0.8417
vn -0.7145 0.5427 -0.4416
vn 0.1590 -0.5160 -0.8417
vn -0.4221 -0.3221 -0.8474
vn -0.9467 0.3221 0.0014
vn 0.2659 0.8627 -0.4302
vn -0.2553 0.8249 -0.5043
vn 0.8948 -0.0000 -0.4464
vn 0.6818 0.5160 -0.5186
vn 0.9467 0.3221 -0.0014
vn 0.2659 -0.8627 -0.4302
vn 0.6818 -0.5160 -0.5186
vn 0.5652 -0.8249 0.0028
vn -0.7145 -0.5427 -0.4416
vn -0.2553 -0.8249 -0.5043
vn -0.5652 -0.8249 -0.0028
vn -0.5652 0.8249 -0.0028
vn 0.5652 0.8249 0.0028
vn 0.9467 -0.3221 -0.0014
vn -0.9467 -0.3221 0.0014
vn -0.2659 0.8627 0.4302
vn -0.6818 0.5160 0.5186
vn -0.1590 0.5160 0.8417
vn 0.7145 0.5427 0.4416
vn 0.2553 0.8249 0.5043
vn 0.4221 0.3221 0.8474
vn 0.7145 -0.5427 0.4416
vn 0.4221 -0.3221 0.8474
vn -0.2659 -0.8627 0.4302
vn 0.2553 -0.8249 0.5043
vn -0.1590 -0.5160 0.8417
vn -0.8948 -0.0000 0.4464
vn -0.6818 -0.5160 0.5186
vn 0.0009 -0.0000 1.0000
vn 0.4867 -0.1937 0.8518
vn 0.5071 -0.2571 0.8226
vn 0.5872 -0.8095 0.0016
vn 0.6114 -0.7912 0.0113
vn -0.1593 0.6099 0.7763
vn -0.1165 0.5876 0.8007
vn -0.6017 0.7983 0.0253
vn -0.5897 0.8076 -0.0004
vn -0.5384 0.2935 -0.7900
vn -0.4995 0.2475 -0.8302
vn 0.1019 -0.5588 -0.8230
vn 0.1267 -0.5949 -0.7937
vn 0.4956 -0.2557 0.8301
vn 0.5774 -0.8164 0.0050
vn -0.1188 0.5972 0.7933
vn -0.5766 0.8170 -0.0054
vn -0.4986 0.2594 -0.8271
vn 0.1148 -0.5943 -0.7960
vn 0.5122 -0.2297 0.8276
vn 0.6206 -0.7841 -0.0113
vn -0.1442 0.5854 0.7978
vn -0.6163 0.7875 0.0091
vn -0.5272 0.2463 -0.8133
vn 0.1246 -0.5727 -0.8102
vn 0.5511 -0.1836 0.8140
vn 0.7017 -0.7110 -0.0445
vn -0.1824 0.5496 0.8152
vn -0.6951 0.7177 0.0406
vn -0.5743 0.2041 -0.7928
vn 0.1527 -0.5337 -0.8317
vn 0.5959 -0.1267 0.7930
vn 0.7869 -0.6113 -0.0847
vn -0.2168 0.4983 0.8394
vn -0.7811 0.6193 0.0803
vn -0.6199 0.1426 -0.7716
vn 0.1862 -0.4856 -0.8541
vn 0.6328 -0.0648 0.7716
vn 0.8566 -0.5007 -0.1243
vn -0.2426 0.4432 0.8630
vn -0.8525 0.5087 0.1201
vn -0.6558 0.0759 -0.7511
vn 0.2131 -0.4338 -0.8754
vn 0.6603 -0.0119 0.7509
vn 0.9015 -0.4040 -0.1555
vn -0.2539 0.3951 0.8829
vn -0.8996 0.4092 0.1527
vn -0.6752 0.0174 -0.7374
vn 0.2344 -0.3900 -0.8905
vn 0.6755 0.0135 0.7373
vn 0.9187 -0.3568 -0.1694
vn -0.2523 0.3703 0.8940
vn -0.9184 0.3579 0.1688
vn -0.6785 -0.0125 -0.7345
vn 0.2483 -0.3694 -0.8955
vn 0.6785 0.0042 0.7346
vn 0.9135 -0.3720 -0.1644
vn -0.2435 0.3749 0.8945
vn -0.9143 0.3695 0.1658
vn -0.6706 -0.0067 -0.7418
vn 0.2539 -0.3772 -0.8907
vn 0.7191 -0.0409 0.6937
vn 0.8972 -0.3992 -0.1886
vn -0.2067 0.3758 0.9033
vn -0.9130 0.3861 0.1321
vn -0.6193 -0.0268 -0.7847
vn 0.2900 -0.3966 -0.8710
vn 0.3789 0.7645 0.5215
vn 0.4032 0.7668 0.4995
vn 0.9954 0.0953 0.0077
vn 0.9866 0.1559 0.0484
vn -0.5004 0.6894 0.5238
vn -0.5407 0.6813 0.4934
vn -0.9983 -0.0512 0.0270
vn -0.9941 -0.1066 -0.0200
vn -0.4197 -0.7510 -0.5097
vn -0.3940 -0.7706 -0.5010
vn 0.5718 -0.6498 -0.5007
vn 0.5355 -0.6850 -0.4940
vn 0.3954 0.7760 0.4914
vn 0.9946 0.1017 0.0183
vn -0.5369 0.6920 0.4826
vn -0.9952 -0.0973 -0.0135
vn -0.3989 -0.7747 -0.4906
vn 0.5390 -0.6907 -0.4821
vn 0.3939 0.7536 0.5263
vn 0.9932 0.1149 0.0202
vn -0.5334 0.6636 0.5245
vn -0.9954 -0.0952 0.0036
vn -0.4107 -0.7469 -0.5229
vn 0.5428 -0.6572 -0.5229
vn 0.4025 0.6980 0.5923
vn 0.9915 0.1294 0.0119
vn -0.5295 0.5944 0.6052
vn -0.9941 -0.1060 0.0250
vn -0.4267 -0.6881 -0.5869
vn 0.5425 -0.5846 -0.6033
vn 0.4201 0.6198 0.6628
vn 0.9897 0.1434 -0.0038
vn -0.5228 0.4972 0.6925
vn -0.9911 -0.1261 0.0421
vn -0.4437 -0.6103 -0.6563
vn 0.5349 -0.4874 -0.6902
vn 0.4408 0.5336 0.7218
vn 0.9870 0.1594 -0.0188
vn -0.5116 0.3892 0.7660
vn -0.9874 -0.1479 0.0554
vn -0.4627 -0.5252 -0.7142
vn 0.5224 -0.3806 -0.7630
vn 0.4622 0.4567 0.7601
vn 0.9843 0.1730 -0.0353
vn -0.5002 0.2931 0.8148
vn -0.9841 -0.1676 0.0591
vn -0.4763 -0.4516 -0.7545
vn 0.5071 -0.2878 -0.8124
vn 0.4766 0.4171 0.7739
vn 0.9826 0.1791 -0.0491
vn -0.4954 0.2438 0.8337
vn -0.9825 -0.1782 0.0539
vn -0.4795 -0.4161 -0.7727
vn 0.4968 -0.2427 -0.8332
vn 0.4794 0.4256 0.7675
vn 0.9829 0.1752 -0.0566
vn -0.5001 0.2549 0.8276
vn -0.9831 -0.1776 0.0440
vn -0.4720 -0.4280 -0.7707
vn 0.4965 -0.2573 -0.8290
vn 0.4861 0.4422 0.7538
vn 0.9832 0.1425 -0.1137
vn -0.5452 0.2579 0.7976
vn -0.9790 -0.2029 -0.0193
vn -0.4547 -0.4445 -0.7718
vn 0.4517 -0.2968 -0.8413
vn 0.2127 0.5664 0.7962
vn 0.1623 0.5429 0.8240
vn 0.5759 0.8175 -0.0013
vn 0.5903 0.8071 0.0118
vn -0.4186 -0.2671 0.8680
vn -0.4475 -0.3190 0.8355
vn -0.5928 -0.8054 0.0004
vn -0.5724 -0.8199 -0.0044
vn -0.1500 -0.5003 -0.8528
vn -0.1683 -0.5488 -0.8189
vn 0.4693 0.3574 -0.8075
vn 0.4381 0.3084 -0.8444
vn 0.1571 0.5545 0.8172
vn 0.5628 0.8266 0.0005
vn -0.4401 -0.3126 0.8418
vn -0.5639 -0.8258 0.0018
vn -0.1546 -0.5524 -0.8191
vn 0.4437 0.3168 -0.8383
vn 0.1962 0.5300 0.8250
vn 0.5996 0.8002 0.0126
vn -0.4360 -0.3017 0.8479
vn -0.6054 -0.7959 -0.0020
vn -0.1845 -0.5199 -0.8341
vn 0.4544 0.3200 -0.8313
vn 0.2663 0.4671 0.8431
vn 0.6752 0.7371 0.0283
vn -0.4366 -0.2915 0.8511
vn -0.6838 -0.7296 -0.0126
vn -0.2493 -0.4534 -0.8557
vn 0.4660 0.3133 -0.8274
vn 0.3403 0.3785 0.8608
vn 0.7605 0.6482 0.0384
vn -0.4416 -0.2836 0.8512
vn -0.7682 -0.6398 -0.0225
vn -0.3231 -0.3665 -0.8725
vn 0.4730 0.2998 -0.8285
vn 0.4032 0.2810 0.8709
vn 0.8349 0.5489 0.0411
vn -0.4463 -0.2752 0.8515
vn -0.8408 -0.5408 -0.0255
vn -0.3866 -0.2715 -0.8814
vn 0.4769 0.2860 -0.8311
vn 0.4442 0.1950 0.8744
vn 0.8874 0.4596 0.0360
vn -0.4538 -0.2690 0.8495
vn -0.8905 -0.4544 -0.0255
vn -0.4333 -0.1896 -0.8811
vn 0.4740 0.2742 -0.8367
vn 0.4582 0.1510 0.8759
vn 0.9100 0.4135 0.0290
vn -0.4626 -0.2669 0.8454
vn -0.9106 -0.4124 -0.0268
vn -0.4560 -0.1500 -0.8773
vn 0.4668 0.2678 -0.8429
vn 0.4493 0.1607 0.8788
vn 0.9054 0.4237 0.0259
vn -0.4699 -0.2696 0.8405
vn -0.9041 -0.4262 -0.0315
vn -0.4552 -0.1631 -0.8753
vn 0.4591 0.2673 -0.8472
vn 0.3936 0.1536 0.9064
vn 0.8954 0.4441 0.0309
vn -0.5151 -0.2940 0.8052
vn -0.8953 -0.4444 -0.0293
vn -0.4966 -0.2081 -0.8427
vn 0.4148 0.2472 -0.8757
vn 0.7637 -0.1660 0.6239
vn 0.7272 -0.2204 0.6501
vn 0.7891 0.6142 0.0133
vn 0.7754 0.6302 -0.0400
vn -0.0782 -0.7858 0.6135
vn -0.0848 -0.8021 0.5912
vn -0.8164 -0.5767 -0.0303
vn -0.7854 -0.6189 -0.0077
vn -0.6981 0.2646 -0.6653
vn -0.7372 0.2093 -0.6424
vn 0.1031 0.7917 -0.6022
vn 0.0786 0.7991 -0.5961
vn 0.7339 -0.2126 0.6452
vn 0.7801 0.6254 0.0179
vn -0.0756 -0.8072 0.5854
vn -0.7814 -0.6237 -0.0202
vn -0.7299 0.2169 -0.6482
vn 0.0781 0.8082 -0.5837
vn 0.7426 -0.2057 0.6374
vn 0.8008 0.5987 -0.0178
vn -0.0887 -0.7782 0.6218
vn -0.8071 -0.5904 0.0070
vn -0.7234 0.2249 -0.6528
vn 0.1005 0.7835 -0.6133
vn 0.7494 -0.2054 0.6294
vn 0.8426 0.5321 -0.0823
vn -0.1185 -0.7151 0.6890
vn -0.8513 -0.5204 0.0672
vn -0.7211 0.2282 -0.6542
vn 0.1358 0.7235 -0.6768
vn 0.7521 -0.2107 0.6244
vn 0.8857 0.4385 -0.1521
vn -0.1500 -0.6304 0.7616
vn -0.8935 -0.4277 0.1372
vn -0.7240 0.2276 -0.6512
vn 0.1677 0.6393 -0.7505
vn 0.7537 -0.2167 0.6205
vn 0.9176 0.3352 -0.2136
vn -0.1721 -0.5373 0.8256
vn -0.9241 -0.3261 0.1993
vn -0.7278 0.2279 -0.6469
vn 0.1896 0.5456 -0.8163
vn 0.7511 -0.2228 0.6215
vn 0.9356 0.2436 -0.2556
vn -0.1862 -0.4565 0.8700
vn -0.9395 -0.2383 0.2462
vn -0.7346 0.2280 -0.6391
vn 0.1981 0.4617 -0.8646
vn 0.7454 -0.2266 0.6269
vn 0.9422 0.1967 -0.2711
vn -0.1941 -0.4173 0.8878
vn -0.9430 -0.1957 0.2692
vn -0.7421 0.2275 -0.6305
vn 0.1965 0.4184 -0.8868
vn 0.7392 -0.2278 0.6338
vn 0.9424 0.2072 -0.2625
vn -0.1977 -0.4303 0.8808
vn -0.9405 -0.2096 0.2676
vn -0.7478 0.2254 -0.6244
vn 0.1913 0.4278 -0.8834
vn 0.6939 -0.2529 0.6742
vn 0.9570 0.2049 -0.2054
vn -0.2020 -0.4473 0.8713
vn -0.9162 -0.2524 0.3114
vn -0.7864 0.1991 -0.5848
vn 0.1859 0.4470 -0.8750
vn 0.0266 -0.7444 0.6672
vn 0.0394 -0.7688 0.6382
vn 0.7260 -0.6876 0.0106
vn 0.7515 -0.6596 -0.0121
vn -0.7516 -0.0384 0.6585
vn -0.7238 -0.1032 0.6822
vn -0.7205 0.6921 -0.0432
vn -0.7314 0.6819 -0.0008
vn -0.0778 0.7632 -0.6415
vn -0.0385 0.7664 -0.6412
vn 0.6919 0.1449 -0.7073
vn 0.7325 0.0924 -0.6745
vn 0.0316 -0.7756 0.6305
vn 0.7244 -0.6893 -0.0014
vn -0.7327 -0.0994 0.6732
vn -0.7224 0.6915 -0.0025
vn -0.0321 0.7763 -0.6295
vn 0.7293 0.1036 -0.6763
vn 0.0572 -0.7424 0.6675
vn 0.7473 -0.6644 0.0098
vn -0.7286 -0.0784 0.6805
vn -0.7379 0.6743 -0.0286
vn -0.0590 0.7466 -0.6626
vn 0.7119 0.0970 -0.6955
vn 0.1105 -0.6684 0.7355
vn 0.7872 -0.6154 0.0400
vn -0.7114 -0.0454 0.7013
vn -0.7750 0.6283 -0.0677
vn -0.1123 0.6760 -0.7283
vn 0.6859 0.0680 -0.7245
vn 0.1727 -0.5679 0.8048
vn 0.8302 -0.5524 0.0746
vn -0.6871 -0.0067 0.7265
vn -0.8197 0.5635 -0.1027
vn -0.1739 0.5764 -0.7985
vn 0.6605 0.0237 -0.7504
vn 0.2299 -0.4568 0.8593
vn 0.8691 -0.4842 0.1010
vn -0.6638 0.0357 0.7470
vn -0.8605 0.4930 -0.1280
vn -0.2313 0.4650 -0.8546
vn 0.6381 -0.0242 -0.7696
vn 0.2731 -0.3598 0.8922
vn 0.8967 -0.4258 0.1207
vn -0.6420 0.0719 0.7633
vn -0.8917 0.4309 -0.1386
vn -0.2741 0.3651 -0.8897
vn 0.6251 -0.0664 -0.7778
vn 0.2927 -0.3125 0.9037
vn 0.9077 -0.3980 0.1331
vn -0.6274 0.0891 0.7736
vn -0.9067 0.3990 -0.1367
vn -0.2929 0.3136 -0.9032
vn 0.6239 -0.0881 -0.7765
vn 0.2881 -0.3278 0.8998
vn 0.9025 -0.4078 0.1383
vn -0.6233 0.0821 0.7777
vn -0.9050 0.4054 -0.1288
vn -0.2874 0.3253 -0.9009
vn 0.6323 -0.0845 -0.7701
vn 0.3183 -0.3605 0.8768
vn 0.8896 -0.4252 0.1666
vn -0.5784 0.0410 0.8147
vn -0.9045 0.4145 -0.1006
vn -0.2444 0.3367 -0.9093
vn 0.6806 -0.1081 -0.7246
vn 0.3292 0.7065 -0.6265
vn -0.6928 0.1461 -0.7062
vn 0.5266 0.1630 -0.8343
vn -0.2704 -0.3370 -0.9018
vn 0.9904 -0.1383 -0.0000
vn -0.1595 -0.9872 -0.0000
vn 0.5266 0.1630 0.8343
vn -0.2704 -0.3370 0.9018
vn 0.3292 0.7065 0.6265
vn -0.6928 0.1461 0.7062
vn -0.3499 0.2533 -0.9019
vn -0.9263 -0.3647 -0.0952
vn -0.0575 -0.2844 -0.9570
vn -0.4820 -0.8205 -0.3073
vn 0.8208 0.0013 -0.5712
vn 0.3099 -0.8201 0.4809
vn 0.7233 0.6700 0.1673
vn 0.3620 0.2111 0.9080
vn 0.2365 0.9699 -0.0577
vn -0.2654 0.4431 0.8563
vn -0.3175 -0.2928 -0.9019
vn 0.1740 -0.9801 -0.0952
vn 0.2673 -0.1127 -0.9570
vn 0.7088 -0.6350 -0.3073
vn 0.1613 0.8048 -0.5712
vn 0.8653 0.1414 0.4809
vn -0.5135 0.8416 0.1673
vn -0.1352 0.3966 0.9080
vn -0.9039 0.4239 -0.0577
vn -0.4869 -0.1724 0.8563
vn -0.7788 -0.0294 -0.6265
vn 0.1860 -0.6832 -0.7062
vn -0.3853 0.3943 -0.8343
vn 0.4232 -0.0869 -0.9018
vn -0.3287 0.9444 -0.0000
vn 0.9512 0.3084 -0.0000
vn -0.3853 0.3943 0.8343
vn 0.4232 -0.0869 0.9018
vn -0.7788 -0.0294 0.6265
vn 0.1860 -0.6832 0.7062
vn -0.9039 0.4239 0.0577
vn -0.4869 -0.1724 -0.8563
vn -0.5135 0.8416 -0.1673
vn -0.1352 0.3966 -0.9080
vn 0.1613 0.8048 0.5712
vn 0.8653 0.1414 -0.4809
vn 0.2673 -0.1127 0.9570
vn 0.7088 -0.6350 0.3073
vn -0.3175 -0.2928 0.9019
vn 0.1740 -0.9801 0.0952
vn 0.2365 0.9699 0.0577
vn -0.2654 0.4431 -0.8563
vn 0.7233 0.6700 -0.1673
vn 0.3620 0.2111 -0.9080
vn 0.8208 0.0013 0.5712
vn 0.3099 -0.8201 -0.4809
vn -0.0575 -0.2844 0.9570
vn -0.4820 -0.8205 0.3073
vn -0.3499 0.2533 0.9019
vn -0.9263 -0.3647 0.0952
vn -0.1555 0.7362 -0.6586
vn -0.6071 -0.0000 -0.7947
vn 0.4533 0.5066 -0.7334
vn 0.4533 -0.5066 -0.7334
vn -0.1555 -0.7362 -0.6586
vn -0.9822 -0.0000 -0.1876
vn -0.2050 0.9705 -0.1267
vn 0.6586 0.7362 -0.1555
vn 0.6586 -0.7362 -0.1555
vn -0.2050 -0.9705 -0.1267
vn -0.6586 0.7362 0.1555
vn 0.2050 0.9705 0.1267
vn 0.9822 -0.0000 0.1876
vn 0.2050 -0.9705 0.1267
vn -0.6586 -0.7362 0.1555
vn -0.4533 0.5066 0.7334
vn 0.1555 0.7362 0.6586
vn 0.6071 -0.0000 0.7947
vn 0.1555 -0.7362 0.6586
vn -0.4533 -0.5066 0.7334
vt 0.181819 0.000000
vt 0.227273 0.078731
vt 0.136365 0.078731
vt 0.272728 0.157461
vt 0.318182 0.078731
vt 0.363637 0.157461
vt 0.909091 0.000000
vt 0.954545 0.078731
vt 0.863636 0.078731
vt 0.727273 0.000000
vt 0.772727 0.078731
vt 0.681818 0.078731
vt 0.545455 0.000000
vt 0.590909 0.078731
vt 0.500000 0.078731
vt 0.318182 0.236191
vt 0.090910 0.157461
vt 0.181819 0.157461
vt 0.136365 0.236191
vt 0.818182 0.157461
vt 0.909091 0.157461
vt 0.863636 0.236191
vt 0.636364 0.157461
vt 0.727273 0.157461
vt 0.681818 0.236191
vt 0.454546 0.157461
vt 0.545455 0.157461
vt 0.500000 0.236191
vt 0.227273 0.236191
vt 0.045455 0.236191
vt 0.772727 0.236191
vt 0.590909 0.236191
vt 0.409092 0.236191
vt 0.181819 0.314921
vt 0.272728 0.314921
vt 0.227273 0.393651
vt 0.000000 0.314921
vt 0.090910 0.314921
vt 0.045455 0.393651
vt 0.727273 0.314921
vt 0.818182 0.314921
vt 0.772727 0.393651
vt 0.545455 0.314921
vt 0.636364 0.314921
vt 0.590909 0.393651
vt 0.363637 0.314921
vt 0.454546 0.314921
vt 0.409092 0.393651
vt 0.500000 0.393651
vt 0.454546 0.472382
vt 0.681818 0.393651
vt 0.636364 0.472382
vt 0.863636 0.393651
vt 0.818182 0.472382
vt 0.909091 0.314921
vt 0.136365 0.393651
vt 0.090910 0.472382
vt 0.318182 0.393651
vt 0.272728 0.472382
vt 0.954545 0.236191
vt 1.000000 0.157461
vt 0.409092 0.078731
vt 0.363637 0.000000
vt 0.000000 1.000000
vt 0.100000 1.000000
vt 0.100000 0.833333
vt 0.000000 0.833333
vt 0.000000 0.166667
vt 0.100000 0.166667
vt 0.100000 0.000000
vt 0.000000 0.000000
vt 0.000000 0.333333
vt 0.100000 0.333333
vt 0.000000 0.500000
vt 0.100000 0.500000
vt 0.000000 0.666667
vt 0.100000 0.666667
vt 0.200000 1.000000
vt 0.200000 0.833333
vt 0.200000 0.166667
vt 0.200000 0.000000
vt 0.200000 0.333333
vt 0.200000 0.500000
vt 0.200000 0.666667
vt 0.300000 1.000000
vt 0.300000 0.833333
vt 0.300000 0.166667
vt 0.300000 0.000000
vt 0.300000 0.333333
vt 0.300000 0.500000
vt 0.300000 0.666667
vt 0.400000 1.000000
vt 0.400000 0.833333
vt 0.400000 0.166667
vt 0.400000 0.000000
vt 0.400000 0.333333
vt 0.400000 0.500000
vt 0.400000 0.666667
vt 0.500000 1.000000
vt 0.500000 0.833333
vt 0.500000 0.166667
vt 0.500000 0.000000
vt 0.500000 0.333333
vt 0.500000 0.500000
vt 0.500000 0.666667
vt 0.600000 1.000000
vt 0.600000 0.833333
vt 0.600000 0.166667
vt 0.600000 0.000000
vt 0.600000 0.333333
vt 0.600000 0.500000
vt 0.600000 0.666667
vt 0.700000 1.000000
vt 0.700000 0.833333
vt 0.700000 0.166667
vt 0.700000 0.000000
vt 0.700000 0.333333
vt 0.700000 0.500000
vt 0.700000 0.666667
vt 0.800000 1.000000
vt 0.800000 0.833333
vt 0.800000 0.166667
vt 0.800000 0.000000
vt 0.800000 0.333333
vt 0.800000 0.500000
vt 0.800000 0.666667
vt 0.900000 1.000000
vt 0.900000 0.833333
vt 0.900000 0.166667
vt 0.900000 0.000000
vt 0.900000 0.333333
vt 0.900000 0.500000
vt 0.900000 0.666667
vt 1.000000 1.000000
vt 1.000000 0.833333
vt 1.000000 0.166667
vt 1.000000 0.000000
vt 1.000000 0.333333
vt 1.000000 0.500000
vt 1.000000 0.666667
s 1
usemtl UnknownOrganicMatter
f 1/1/1 14/2/2 13/3/3
f 2/4/4 14/5/2 16/6/5
f 1/7/1 13/8/3 18/9/6
f 1/10/1 18/11/6 20/12/7
f 1/13/1 20/14/7 17/15/8
f 2/4/4 16/6/5 23/16/9
f 3/17/10 15/18/11 25/19/12
f 4/20/13 19/21/14 27/22/15
f 5/23/16 21/24/17 29/25/18
f 6/26/19 22/27/20 31/28/21
f 2/4/4 23/16/9 26/29/22
f 3/17/10 25/19/12 28/30/23
f 4/20/13 27/22/15 30/31/24
f 5/23/16 29/25/18 32/32/25
f 6/26/19 31/28/21 24/33/26
f 7/34/27 33/35/28 38/36/29
f 8/37/30 34/38/31 40/39/32
f 9/40/33 35/41/34 41/42/35
f 10/43/36 36/44/37 42/45/38
f 11/46/39 37/47/40 39/48/41
f 39/48/41 42/49/38 12/50/42
f 39/48/41 37/47/40 42/49/38
f 37/47/40 10/43/36 42/49/38
f 42/45/38 41/51/35 12/52/42
f 42/45/38 36/44/37 41/51/35
f 36/44/37 9/40/33 41/51/35
f 41/42/35 40/53/32 12/54/42
f 41/42/35 35/41/34 40/53/32
f 35/41/34 8/55/30 40/53/32
f 40/39/32 38/56/29 12/57/42
f 40/39/32 34/38/31 38/56/29
f 34/38/31 7/34/27 38/56/29
f 38/36/29 39/58/41 12/59/42
f 38/36/29 33/35/28 39/58/41
f 33/35/28 11/46/39 39/58/41
f 24/33/26 37/47/40 11/46/39
f 24/33/26 31/28/21 37/47/40
f 31/28/21 10/43/36 37/47/40
f 32/32/25 36/44/37 10/43/36
f 32/32/25 29/25/18 36/44/37
f 29/25/18 9/40/33 36/44/37
f 30/31/24 35/41/34 9/40/33
f 30/31/24 27/22/15 35/41/34
f 27/22/15 8/55/30 35/41/34
f 28/30/23 34/38/31 8/37/30
f 28/30/23 25/19/12 34/38/31
f 25/19/12 7/34/27 34/38/31
f 26/29/22 33/35/28 7/34/27
f 26/29/22 23/16/9 33/35/28
f 23/16/9 11/46/39 33/35/28
f 31/28/21 32/32/25 10/43/36
f 31/28/21 22/27/20 32/32/25
f 22/27/20 5/23/16 32/32/25
f 29/25/18 30/31/24 9/40/33
f 29/25/18 21/24/17 30/31/24
f 21/24/17 4/20/13 30/31/24
f 27/22/15 28/60/23 8/55/30
f 27/22/15 19/21/14 28/60/23
f 19/21/14 3/61/10 28/60/23
f 25/19/12 26/29/22 7/34/27
f 25/19/12 15/18/11 26/29/22
f 15/18/11 2/4/4 26/29/22
f 23/16/9 24/33/26 11/46/39
f 23/16/9 16/6/5 24/33/26
f 16/6/5 6/26/19 24/33/26
f 17/15/8 22/27/20 6/26/19
f 17/15/8 20/14/7 22/27/20
f 20/14/7 5/23/16 22/27/20
f 20/12/7 21/24/17 5/23/16
f 20/12/7 18/11/6 21/24/17
f 18/11/6 4/20/13 21/24/17
f 18/9/6 19/21/14 4/20/13
f 18/9/6 13/8/3 19/21/14
f 13/8/3 3/61/10 19/21/14
f 16/6/5 17/62/8 6/26/19
f 16/6/5 14/5/2 17/62/8
f 14/5/2 1/63/1 17/62/8
f 13/3/3 15/18/11 3/17/10
f 13/3/3 14/2/2 15/18/11
f 14/2/2 2/4/4 15/18/11
f 85/64/79 91/65/80 96/66/81 90/67/82
f 86/68/83 92/69/84 91/70/80 85/71/79
f 87/72/85 93/73/86 92/69/84 86/68/83
f 88/74/87 94/75/88 93/73/86 87/72/85
f 89/76/89 95/77/90 94/75/88 88/74/87
f 90/67/82 96/66/81 95/77/90 89/76/89
f 91/65/80 97/78/91 102/79/92 96/66/81
f 92/69/84 98/80/93 97/81/91 91/70/80
f 93/73/86 99/82/94 98/80/93 92/69/84
f 94/75/88 100/83/95 99/82/94 93/73/86
f 95/77/90 101/84/96 100/83/95 94/75/88
f 96/66/81 102/79/92 101/84/96 95/77/90
f 97/78/91 103/85/97 108/86/98 102/79/92
f 98/80/93 104/87/99 103/88/97 97/81/91
f 99/82/94 105/89/100 104/87/99 98/80/93
f 100/83/95 106/90/101 105/89/100 99/82/94
f 101/84/96 107/91/102 106/90/101 100/83/95
f 102/79/92 108/86/98 107/91/102 101/84/96
f 103/85/97 109/92/103 114/93/104 108/86/98
f 104/87/99 110/94/105 109/95/103 103/88/97
f 105/89/100 111/96/106 110/94/105 104/87/99
f 106/90/101 112/97/107 111/96/106 105/89/100
f 107/91/102 113/98/108 112/97/107 106/90/101
f 108/86/98 114/93/104 113/98/108 107/91/102
f 109/92/103 115/99/109 120/100/110 114/93/104
f 110/94/105 116/101/111 115/102/109 109/95/103
f 111/96/106 117/103/112 116/101/111 110/94/105
f 112/97/107 118/104/113 117/103/112 111/96/106
f 113/98/108 119/105/114 118/104/113 112/97/107
f 114/93/104 120/100/110 119/105/114 113/98/108
f 115/99/109 121/106/115 126/107/116 120/100/110
f 116/101/111 122/108/117 121/109/115 115/102/109
f 117/103/112 123/110/118 122/108/117 116/101/111
f 118/104/113 124/111/119 123/110/118 117/103/112
f 119/105/114 125/112/120 124/111/119 118/104/113
f 120/100/110 126/107/116 125/112/120 119/105/114
f 121/106/115 127/113/121 132/114/122 126/107/116
f 122/108/117 128/115/123 127/116/121 121/109/115
f 123/110/118 129/117/124 128/115/123 122/108/117
f 124/111/119 130/118/125 129/117/124 123/110/118
f 125/112/120 131/119/126 130/118/125 124/111/119
f 126/107/116 132/114/122 131/119/126 125/112/120
f 127/113/121 133/120/127 138/121/128 132/114/122
f 128/115/123 134/122/129 133/123/127 127/116/121
f 129/117/124 135/124/130 134/122/129 128/115/123
f 130/118/125 136/125/131 135/124/130 129/117/124
f 131/119/126 137/126/132 136/125/131 130/118/125
f 132/114/122 138/121/128 137/126/132 131/119/126
f 133/120/127 139/127/133 144/128/134 138/121/128
f 134/122/129 140/129/135 139/130/133 133/123/127
f 135/124/130 141/131/136 140/129/135 134/122/129
f 136/125/131 142/132/137 141/131/136 135/124/130
f 137/126/132 143/133/138 142/132/137 136/125/131
f 138/121/128 144/128/134 143/133/138 137/126/132
f 139/127/133 145/134/139 150/135/140 144/128/134
f 140/129/135 146/136/141 145/137/139 139/130/133
f 141/131/136 147/138/142 146/136/141 140/129/135
f 142/132/137 148/139/143 147/138/142 141/131/136
f 143/133/138 149/140/144 148/139/143 142/132/137
f 144/128/134 150/135/140 149/140/144 143/133/138
f 151/64/145 157/65/146 162/66/147 156/67/148
f 152/68/149 158/69/150 157/70/146 151/71/145
f 153/72/151 159/73/152 158/69/150 152/68/149
f 154/74/153 160/75/154 159/73/152 153/72/151
f 155/76/155 161/77/156 160/75/154 154/74/153
f 156/67/148 162/66/147 161/77/156 155/76/155
f 157/65/146 163/78/157 168/79/158 162/66/147
f 158/69/150 164/80/159 163/81/157 157/70/146
f 159/73/152 165/82/160 164/80/159 158/69/150
f 160/75/154 166/83/161 165/82/160 159/73/152
f 161/77/156 167/84/162 166/83/161 160/75/154
f 162/66/147 168/79/158 167/84/162 161/77/156
f 163/78/157 169/85/163 174/86/164 168/79/158
f 164/80/159 170/87/165 169/88/163 163/81/157
f 165/82/160 171/89/166 170/87/165 164/80/159
f 166/83/161 172/90/167 171/89/166 165/82/160
f 167/84/162 173/91/168 172/90/167 166/83/161
f 168/79/158 174/86/164 173/91/168 167/84/162
f 169/85/163 175/92/169 180/93/170 174/86/164
f 170/87/165 176/94/171 175/95/169 169/88/163
f 171/89/166 177/96/172 176/94/171 170/87/165
f 172/90/167 178/97/173 177/96/172 171/89/166
f 173/91/168 179/98/174 178/97/173 172/90/167
f 174/86/164 180/93/170 179/98/174 173/91/168
f 175/92/169 181/99/175 186/100/176 180/93/170
f 176/94/171 182/101/177 181/102/175 175/95/169
f 177/96/172 183/103/178 182/101/177 176/94/171
f 178/97/173 184/104/179 183/103/178 177/96/172
f 179/98/174 185/105/180 184/104/179 178/97/173
f 180/93/170 186/100/176 185/105/180 179/98/174
f 181/99/175 187/106/181 192/107/182 186/100/176
f 182/101/177 188/108/183 187/109/181 181/102/175
f 183/103/178 189/110/184 188/108/183 182/101/177
f 184/104/179 190/111/185 189/110/184 183/103/178
f 185/105/180 191/112/186 190/111/185 184/104/179
f 186/100/176 192/107/182 191/112/186 185/105/180
f 187/106/181 193/113/187 198/114/188 192/107/182
f 188/108/183 194/115/189 193/116/187 187/109/181
f 189/110/184 195/117/190 194/115/189 188/108/183
f 190/111/185 196/118/191 195/117/190 189/110/184
f 191/112/186 197/119/192 196/118/191 190/111/185
f 192/107/182 198/114/188 197/119/192 191/112/186
f 193/113/187 199/120/193 204/121/194 198/114/188
f 194/115/189 200/122/195 199/123/193 193/116/187
f 195/117/190 201/124/196 200/122/195 194/115/189
f 196/118/191 202/125/197 201/124/196 195/117/190
f 197/119/192 203/126/198 202/125/197 196/118/191
f 198/114/188 204/121/194 203/126/198 197/119/192
f 199/120/193 205/127/199 210/128/200 204/121/194
f 200/122/195 206/129/201 205/130/199 199/123/193
f 201/124/196 207/131/202 206/129/201 200/122/195
f 202/125/197 208/132/203 207/131/202 201/124/196
f 203/126/198 209/133/204 208/132/203 202/125/197
f 204/121/194 210/128/200 209/133/204 203/126/198
f 205/127/199 211/134/205 216/135/206 210/128/200
f 206/129/201 212/136/207 211/137/205 205/130/199
f 207/131/202 213/138/208 212/136/207 206/129/201
f 208/132/203 214/139/209 213/138/208 207/131/202
f 209/133/204 215/140/210 214/139/209 208/132/203
f 210/128/200 216/135/206 215/140/210 209/133/204
f 217/64/211 223/65/212 228/66/213 222/67/214
f 218/68/215 224/69/216 223/70/212 217/71/211
f 219/72/217 225/73/218 224/69/216 218/68/215
f 220/74/219 226/75/220 225/73/218 219/72/217
f 221/76/221 227/77/222 226/75/220 220/74/219
f 222/67/214 228/66/213 227/77/222 221/76/221
f 223/65/212 229/78/223 234/79/224 228/66/213
f 224/69/216 230/80/225 229/81/223 223/70/212
f 225/73/218 231/82/226 230/80/225 224/69/216
f 226/75/220 232/83/227 231/82/226 225/73/218
f 227/77/222 233/84/228 232/83/227 226/75/220
f 228/66/213 234/79/224 233/84/228 227/77/222
f 229/78/223 235/85/229 240/86/230 234/79/224
f 230/80/225 236/87/231 235/88/229 229/81/223
f 231/82/226 237/89/232 236/87/231 230/80/225
f 232/83/227 238/90/233 237/89/232 231/82/226
f 233/84/228 239/91/234 238/90/233 232/83/227
f 234/79/224 240/86/230 239/91/234 233/84/228
f 235/85/229 241/92/235 246/93/236 240/86/230
f 236/87/231 242/94/237 241/95/235 235/88/229
f 237/89/232 243/96/238 242/94/237 236/87/231
f 238/90/233 244/97/239 243/96/238 237/89/232
f 239/91/234 245/98/240 244/97/239 238/90/233
f 240/86/230 246/93/236 245/98/240 239/91/234
f 241/92/235 247/99/241 252/100/242 246/93/236
f 242/94/237 248/101/243 247/102/241 241/95/235
f 243/96/238 249/103/244 248/101/243 242/94/237
f 244/97/239 250/104/245 249/103/244 243/96/238
f 245/98/240 251/105/246 250/104/245 244/97/239
f 246/93/236 252/100/242 251/105/246 245/98/240
f 247/99/241 253/106/247 258/107/248 252/100/242
f 248/101/243 254/108/249 253/109/247 247/102/241
f 249/103/244 255/110/250 254/108/249 248/101/243
f 250/104/245 256/111/251 255/110/250 249/103/244
f 251/105/246 257/112/252 256/111/251 250/104/245
f 252/100/242 258/107/248 257/112/252 251/105/246
f 253/106/247 259/113/253 264/114/254 258/107/248
f 254/108/249 260/115/255 259/116/253 253/109/247
f 255/110/250 261/117/256 260/115/255 254/108/249
f 256/111/251 262/118/257 261/117/256 255/110/250
f 257/112/252 263/119/258 262/118/257 256/111/251
f 258/107/248 264/114/254 263/119/258 257/112/252
f 259/113/253 265/120/259 270/121/260 264/114/254
f 260/115/255 266/122/261 265/123/259 259/116/253
f 261/117/256 267/124/262 266/122/261 260/115/255
f 262/118/257 268/125/263 267/124/262 261/117/256
f 263/119/258 269/126/264 268/125/263 262/118/257
f 264/114/254 270/121/260 269/126/264 263/119/258
f 265/120/259 271/127/265 276/128/266 270/121/260
f 266/122/261 272/129/267 271/130/265 265/123/259
f 267/124/262 273/131/268 272/129/267 266/122/261
f 268/125/263 274/132/269 273/131/268 267/124/262
f 269/126/264 275/133/270 274/132/269 268/125/263
f 270/121/260 276/128/266 275/133/270 269/126/264
f 271/127/265 277/134/271 282/135/272 276/128/266
f 272/129/267 278/136/273 277/137/271 271/130/265
f 273/131/268 279/138/274 278/136/273 272/129/267
f 274/132/269 280/139/275 279/138/274 273/131/268
f 275/133/270 281/140/276 280/139/275 274/132/269
f 276/128/266 282/135/272 281/140/276 275/133/270
f 283/64/277 289/65/278 294/66/279 288/67/280
f 284/68/281 290/69/282 289/70/278 283/71/277
f 285/72/283 291/73/284 290/69/282 284/68/281
f 286/74/285 292/75/286 291/73/284 285/72/283
f 287/76/287 293/77/288 292/75/286 286/74/285
f 288/67/280 294/66/279 293/77/288 287/76/287
f 289/65/278 295/78/289 300/79/290 294/66/279
f 290/69/282 296/80/291 295/81/289 289/70/278
f 291/73/284 297/82/292 296/80/291 290/69/282
f 292/75/286 298/83/293 297/82/292 291/73/284
f 293/77/288 299/84/294 298/83/293 292/75/286
f 294/66/279 300/79/290 299/84/294 293/77/288
f 295/78/289 301/85/295 306/86/296 300/79/290
f 296/80/291 302/87/297 301/88/295 295/81/289
f 297/82/292 303/89/298 302/87/297 296/80/291
f 298/83/293 304/90/299 303/89/298 297/82/292
f 299/84/294 305/91/300 304/90/299 298/83/293
f 300/79/290 306/86/296 305/91/300 299/84/294
f 301/85/295 307/92/301 312/93/302 306/86/296
f 302/87/297 308/94/303 307/95/301 301/88/295
f 303/89/298 309/96/304 308/94/303 302/87/297
f 304/90/299 310/97/305 309/96/304 303/89/298
f 305/91/300 311/98/306 310/97/305 304/90/299
f 306/86/296 312/93/302 311/98/306 305/91/300
f 307/92/301 313/99/307 318/100/308 312/93/302
f 308/94/303 314/101/309 313/102/307 307/95/301
f 309/96/304 315/103/310 314/101/309 308/94/303
f 310/97/305 316/104/311 315/103/310 309/96/304
f 311/98/306 317/105/312 316/104/311 310/97/305
f 312/93/302 318/100/308 317/105/312 311/98/306
f 313/99/307 319/106/313 324/107/314 318/100/308
f 314/101/309 320/108/315 319/109/313 313/102/307
f 315/103/310 321/110/316 320/108/315 314/101/309
f 316/104/311 322/111/317 321/110/316 315/103/310
f 317/105/312 323/112/318 322/111/317 316/104/311
f 318/100/308 324/107/314 323/112/318 317/105/312
f 319/106/313 325/113/319 330/114/320 324/107/314
f 320/108/315 326/115/321 325/116/319 319/109/313
f 321/110/316 327/117/322 326/115/321 320/108/315
f 322/111/317 328/118/323 327/117/322 321/110/316
f 323/112/318 329/119/324 328/118/323 322/111/317
f 324/107/314 330/114/320 329/119/324 323/112/318
f 325/113/319 331/120/325 336/121/326 330/114/320
f 326/115/321 332/122/327 331/123/325 325/116/319
f 327/117/322 333/124/328 332/122/327 326/115/321
f 328/118/323 334/125/329 333/124/328 327/117/322
f 329/119/324 335/126/330 334/125/329 328/118/323
f 330/114/320 336/121/326 335/126/330 329/119/324
f 331/120/325 337/127/331 342/128/332 336/121/326
f 332/122/327 338/129/333 337/130/331 331/123/325
f 333/124/328 339/131/334 338/129/333 332/122/327
f 334/125/329 340/132/335 339/131/334 333/124/328
f 335/126/330 341/133/336 340/132/335 334/125/329
f 336/121/326 342/128/332 341/133/336 335/126/330
f 337/127/331 343/134/337 348/135/338 342/128/332
f 338/129/333 344/136/339 343/137/337 337/130/331
f 339/131/334 345/138/340 344/136/339 338/129/333
f 340/132/335 346/139/341 345/138/340 339/131/334
f 341/133/336 347/140/342 346/139/341 340/132/335
f 342/128/332 348/135/338 347/140/342 341/133/336
f 349/64/343 355/65/344 360/66/345 354/67/346
f 350/68/347 356/69/348 355/70/344 349/71/343
f 351/72/349 357/73/350 356/69/348 350/68/347
f 352/74/351 358/75/352 357/73/350 351/72/349
f 353/76/353 359/77/354 358/75/352 352/74/351
f 354/67/346 360/66/345 359/77/354 353/76/353
f 355/65/344 361/78/355 366/79/356 360/66/345
f 356/69/348 362/80/357 361/81/355 355/70/344
f 357/73/350 363/82/358 362/80/357 356/69/348
f 358/75/352 364/83/359 363/82/358 357/73/350
f 359/77/354 365/84/360 364/83/359 358/75/352
f 360/66/345 366/79/356 365/84/360 359/77/354
f 361/78/355 367/85/361 372/86/362 366/79/356
f 362/80/357 368/87/363 367/88/361 361/81/355
f 363/82/358 369/89/364 368/87/363 362/80/357
f 364/83/359 370/90/365 369/89/364 363/82/358
f 365/84/360 371/91/366 370/90/365 364/83/359
f 366/79/356 372/86/362 371/91/366 365/84/360
f 367/85/361 373/92/367 378/93/368 372/86/362
f 368/87/363 374/94/369 373/95/367 367/88/361
f 369/89/364 375/96/370 374/94/369 368/87/363
f 370/90/365 376/97/371 375/96/370 369/89/364
f 371/91/366 377/98/372 376/97/371 370/90/365
f 372/86/362 378/93/368 377/98/372 371/91/366
f 373/92/367 379/99/373 384/100/374 378/93/368
f 374/94/369 380/101/375 379/102/373 373/95/367
f 375/96/370 381/103/376 380/101/375 374/94/369
f 376/97/371 382/104/377 381/103/376 375/96/370
f 377/98/372 383/105/378 382/104/377 376/97/371
f 378/93/368 384/100/374 383/105/378 377/98/372
f 379/99/373 385/106/379 390/107/380 384/100/374
f 380/101/375 386/108/381 385/109/379 379/102/373
f 381/103/376 387/110/382 386/108/381 380/101/375
f 382/104/377 388/111/383 387/110/382 381/103/376
f 383/105/378 389/112/384 388/111/383 382/104/377
f 384/100/374 390/107/380 389/112/384 383/105/378
f 385/106/379 391/113/385 396/114/386 390/107/380
f 386/108/381 392/115/387 391/116/385 385/109/379
f 387/110/382 393/117/388 392/115/387 386/108/381
f 388/111/383 394/118/389 393/117/388 387/110/382
f 389/112/384 395/119/390 394/118/389 388/111/383
f 390/107/380 396/114/386 395/119/390 389/112/384
f 391/113/385 397/120/391 402/121/392 396/114/386
f 392/115/387 398/122/393 397/123/391 391/116/385
f 393/117/388 399/124/394 398/122/393 392/115/387
f 394/118/389 400/125/395 399/124/394 393/117/388
f 395/119/390 401/126/396 400/125/395 394/118/389
f 396/114/386 402/121/392 401/126/396 395/119/390
f 397/120/391 403/127/397 408/128/398 402/121/392
f 398/122/393 404/129/399 403/130/397 397/123/391
f 399/124/394 405/131/400 404/129/399 398/122/393
f 400/125/395 406/132/401 405/131/400 399/124/394
f 401/126/396 407/133/402 406/132/401 400/125/395
f 402/121/392 408/128/398 407/133/402 401/126/396
f 403/127/397 409/134/403 414/135/404 408/128/398
f 404/129/399 410/136/405 409/137/403 403/130/397
f 405/131/400 411/138/406 410/136/405 404/129/399
f 406/132/401 412/139/407 411/138/406 405/131/400
f 407/133/402 413/140/408 412/139/407 406/132/401
f 408/128/398 414/135/404 413/140/408 407/133/402
usemtl AnomalyCore
f 43/1/43 56/2/44 55/3/45
f 44/4/46 56/5/44 58/6/5
f 43/7/43 55/8/45 60/9/6
f 43/10/43 60/11/6 62/12/47
f 43/13/43 62/14/47 59/15/48
f 44/4/46 58/6/5 65/16/49
f 45/17/50 57/18/51 67/19/12
f 46/20/52 61/21/53 69/22/54
f 47/23/55 63/24/56 71/25/57
f 48/26/58 64/27/59 73/28/60
f 44/4/46 65/16/49 68/29/61
f 45/17/50 67/19/12 70/30/62
f 46/20/52 69/22/54 72/31/63
f 47/23/55 71/25/57 74/32/25
f 48/26/58 73/28/60 66/33/64
f 49/34/65 75/35/66 80/36/67
f 50/37/68 76/38/69 82/39/70
f 51/40/71 77/41/34 83/42/72
f 52/43/73 78/44/74 84/45/75
f 53/46/76 79/47/77 81/48/41
f 81/48/41 84/49/75 54/50/78
f 81/48/41 79/47/77 84/49/75
f 79/47/77 52/43/73 84/49/75
f 84/45/75 83/51/72 54/52/78
f 84/45/75 78/44/74 83/51/72
f 78/44/74 51/40/71 83/51/72
f 83/42/72 82/53/70 54/54/78
f 83/42/72 77/41/34 82/53/70
f 77/41/34 50/55/68 82/53/70
f 82/39/70 80/56/67 54/57/78
f 82/39/70 76/38/69 80/56/67
f 76/38/69 49/34/65 80/56/67
f 80/36/67 81/58/41 54/59/78
f 80/36/67 75/35/66 81/58/41
f 75/35/66 53/46/76 81/58/41
f 66/33/64 79/47/77 53/46/76
f 66/33/64 73/28/60 79/47/77
f 73/28/60 52/43/73 79/47/77
f 74/32/25 78/44/74 52/43/73
f 74/32/25 71/25/57 78/44/74
f 71/25/57 51/40/71 78/44/74
f 72/31/63 77/41/34 51/40/71
f 72/31/63 69/22/54 77/41/34
f 69/22/54 50/55/68 77/41/34
f 70/30/62 76/38/69 50/37/68
f 70/30/62 67/19/12 76/38/69
f 67/19/12 49/34/65 76/38/69
f 68/29/61 75/35/66 49/34/65
f 68/29/61 65/16/49 75/35/66
f 65/16/49 53/46/76 75/35/66
f 73/28/60 74/32/25 52/43/73
f 73/28/60 64/27/59 74/32/25
f 64/27/59 47/23/55 74/32/25
f 71/25/57 72/31/63 51/40/71
f 71/25/57 63/24/56 72/31/63
f 63/24/56 46/20/52 72/31/63
f 69/22/54 70/60/62 50/55/68
f 69/22/54 61/21/53 70/60/62
f 61/21/53 45/61/50 70/60/62
f 67/19/12 68/29/61 49/34/65
f 67/19/12 57/18/51 68/29/61
f 57/18/51 44/4/46 68/29/61
f 65/16/49 66/33/64 53/46/76
f 65/16/49 58/6/5 66/33/64
f 58/6/5 48/26/58 66/33/64
f 59/15/48 64/27/59 48/26/58
f 59/15/48 62/14/47 64/27/59
f 62/14/47 47/23/55 64/27/59
f 62/12/47 63/24/56 47/23/55
f 62/12/47 60/11/6 63/24/56
f 60/11/6 46/20/52 63/24/56
f 60/9/6 61/21/53 46/20/52
f 60/9/6 55/8/45 61/21/53
f 55/8/45 45/61/50 61/21/53
f 58/6/5 59/62/48 48/26/58
f 58/6/5 56/5/44 59/62/48
f 56/5/44 43/63/43 59/62/48
f 55/3/45 57/18/51 45/17/50
f 55/3/45 56/2/44 57/18/51
f 56/2/44 44/4/46 57/18/51
s 0
usemtl FrostedArmor
f 415/71/409 417/71/409 416/71/409
f 416/71/410 417/71/410 421/71/410
f 415/71/411 418/71/411 417/71/411
f 417/71/412 418/71/412 421/71/412
f 415/71/413 419/71/413 418/71/413
f 418/71/414 419/71/414 421/71/414
f 415/71/415 420/71/415 419/71/415
f 419/71/416 420/71/416 421/71/416
f 415/71/417 416/71/417 420/71/417
f 420/71/418 416/71/418 421/71/418
f 422/71/419 424/71/419 423/71/419
f 423/71/420 424/71/420 428/71/420
f 422/71/421 425/71/421 424/71/421
f 424/71/422 425/71/422 428/71/422
f 422/71/423 426/71/423 425/71/423
f 425/71/424 426/71/424 428/71/424
f 422/71/425 427/71/425 426/71/425
f 426/71/426 427/71/426 428/71/426
f 422/71/427 423/71/427 427/71/427
f 427/71/428 423/71/428 428/71/428
f 429/71/429 431/71/429 430/71/429
f 430/71/430 431/71/430 435/71/430
f 429/71/431 432/71/431 431/71/431
f 431/71/432 432/71/432 435/71/432
f 429/71/433 433/71/433 432/71/433
f 432/71/434 433/71/434 435/71/434
f 429/71/435 434/71/435 433/71/435
f 433/71/436 434/71/436 435/71/436
f 429/71/437 430/71/437 434/71/437
f 434/71/438 430/71/438 435/71/438
f 436/71/439 438/71/439 437/71/439
f 437/71/440 438/71/440 442/71/440
f 436/71/441 439/71/441 438/71/441
f 438/71/442 439/71/442 442/71/442
f 436/71/443 440/71/443 439/71/443
f 439/71/444 440/71/444 442/71/444
f 436/71/445 441/71/445 440/71/445
f 440/71/446 441/71/446 442/71/446
f 436/71/447 437/71/447 441/71/447
f 441/71/448 437/71/448 442/71/448
f 443/71/449 445/71/449 444/71/449
f 444/71/450 445/71/450 449/71/450
f 443/71/451 446/71/451 445/71/451
f 445/71/452 446/71/452 449/71/452
f 443/71/453 447/71/453 446/71/453
f 446/71/454 447/71/454 449/71/454
f 443/71/455 448/71/455 447/71/455
f 447/71/456 448/71/456 449/71/456
f 443/71/457 444/71/457 448/71/457
f 448/71/458 444/71/458 449/71/458
f 450/71/459 452/71/459 451/71/459
f 451/71/460 452/71/460 456/71/460
f 450/71/461 453/71/461 452/71/461
f 452/71/462 453/71/462 456/71/462
f 450/71/463 454/71/463 453/71/463
f 453/71/464 454/71/464 456/71/464
f 450/71/465 455/71/465 454/71/465
f 454/71/466 455/71/466 456/71/466
f 450/71/467 451/71/467 455/71/467
f 455/71/468 451/71/468 456/71/468
f 457/1/469 458/4/469 459/17/469
f 458/4/470 457/63/470 462/26/470
f 457/7/471 459/61/471 460/20/471
f 457/10/472 460/20/472 461/23/472
f 457/13/473 461/23/473 462/26/473
f 458/4/474 462/26/474 467/46/474
f 459/17/475 458/4/475 463/34/475
f 460/20/476 459/61/476 464/55/476
f 461/23/477 460/20/477 465/40/477
f 462/26/478 461/23/478 466/43/478
f 458/4/479 467/46/479 463/34/479
f 459/17/480 463/34/480 464/37/480
f 460/20/481 464/55/481 465/40/481
f 461/23/482 465/40/482 466/43/482
f 462/26/483 466/43/483 467/46/483
f 463/34/484 467/46/484 468/59/484
f 464/37/485 463/34/485 468/57/485
f 465/40/486 464/55/486 468/54/486
f 466/43/487 465/40/487 468/52/487
f 467/46/488 466/43/488 468/50/488
