# Blender 4.4.1
# www.blender.org
mtllib MoveEnemy.mtl
o MoveEnemy
v 0.000000 0.000000 -0.550000
v -0.397984 0.225536 -0.245971
v 0.152013 0.364929 -0.245971
v 0.491934 0.000000 -0.245969
v 0.152013 -0.364929 -0.245971
v -0.397984 -0.225536 -0.245971
v -0.152013 0.364929 0.245971
v 0.397984 0.225536 0.245971
v 0.397984 -0.225536 0.245971
v -0.152013 -0.364929 0.245971
v -0.491934 0.000000 0.245969
v 0.000000 0.000000 0.550000
v 0.089351 0.214498 -0.467860
v -0.233927 0.132566 -0.467860
v -0.144578 0.347066 -0.289156
v -0.467856 0.000000 -0.289155
v -0.233927 -0.132566 -0.467860
v 0.289151 0.000000 -0.467858
v 0.378504 0.214499 -0.289155
v 0.089351 -0.214498 -0.467860
v 0.378504 -0.214499 -0.289155
v -0.144578 -0.347066 -0.289156
v -0.523082 0.132566 0.000000
v -0.523082 -0.132566 0.000000
v 0.000000 0.429000 0.000000
v -0.323282 0.347068 0.000000
v 0.523082 0.132566 0.000000
v 0.323282 0.347068 0.000000
v 0.323282 -0.347068 0.000000
v 0.523082 -0.132566 0.000000
v -0.323282 -0.347068 0.000000
v 0.000000 -0.429000 0.000000
v -0.378504 0.214499 0.289155
v 0.144578 0.347066 0.289156
v 0.467856 0.000000 0.289155
v 0.144578 -0.347066 0.289156
v -0.378504 -0.214499 0.289155
v -0.089351 0.214498 0.467860
v -0.289151 0.000000 0.467858
v 0.233927 0.132566 0.467860
v 0.233927 -0.132566 0.467860
v -0.089351 -0.214498 0.467860
v 0.000000 0.385000 -0.220000
v -0.179093 0.515117 -0.083187
v 0.068406 0.595536 -0.083187
v 0.221370 0.385000 -0.083186
v 0.068406 0.174464 -0.083187
v -0.179093 0.254883 -0.083187
v -0.068406 0.595536 0.138187
v 0.179093 0.515117 0.138187
v 0.179093 0.254883 0.138187
v -0.068406 0.174464 0.138187
v -0.221370 0.385000 0.138186
v 0.000000 0.385000 0.275000
v 0.040208 0.508749 -0.183037
v -0.105267 0.461480 -0.183037
v -0.065060 0.585230 -0.102620
v -0.210535 0.385000 -0.102620
v -0.105267 0.308520 -0.183037
v 0.130118 0.385000 -0.183036
v 0.170327 0.508749 -0.102620
v 0.040208 0.261251 -0.183037
v 0.170327 0.261251 -0.102620
v -0.065060 0.184770 -0.102620
v -0.235387 0.461481 0.027500
v -0.235387 0.308519 0.027500
v 0.000000 0.632500 0.027500
v -0.145477 0.585232 0.027500
v 0.235387 0.461481 0.027500
v 0.145477 0.585232 0.027500
v 0.145477 0.184768 0.027500
v 0.235387 0.308519 0.027500
v -0.145477 0.184768 0.027500
v 0.000000 0.137500 0.027500
v -0.170327 0.508749 0.157620
v 0.065060 0.585230 0.157620
v 0.210535 0.385000 0.157620
v 0.065060 0.184770 0.157620
v -0.170327 0.261251 0.157620
v -0.040208 0.508749 0.238037
v -0.130118 0.385000 0.238036
v 0.105267 0.461480 0.238037
v 0.105267 0.308520 0.238037
v -0.040208 0.261251 0.238037
v -0.172416 0.475678 0.031775
v -0.197061 0.505256 0.031775
v -0.217145 0.513578 -0.000000
v -0.212584 0.492322 -0.031775
v -0.187939 0.462744 -0.031775
v -0.167855 0.454422 0.000000
v -0.214997 0.443020 0.048678
v -0.237826 0.474013 0.047951
v -0.256902 0.483121 0.015774
v -0.253149 0.461235 -0.015678
v -0.230321 0.430242 -0.014951
v -0.211245 0.421134 0.017227
v -0.253827 0.416229 0.063332
v -0.276216 0.447537 0.062436
v -0.295048 0.456819 0.030164
v -0.291491 0.434793 -0.001212
v -0.269103 0.403485 -0.000316
v -0.250271 0.394203 0.031956
v -0.289222 0.390812 0.076942
v -0.313210 0.420925 0.076673
v -0.332929 0.429544 0.044750
v -0.328660 0.408050 0.013095
v -0.304672 0.377937 0.013363
v -0.284953 0.369319 0.045287
v -0.322176 0.362075 0.090905
v -0.349241 0.389436 0.091958
v -0.370668 0.396528 0.060767
v -0.365029 0.376259 0.028524
v -0.337963 0.348899 0.027471
v -0.316537 0.341807 0.058662
v -0.354086 0.325018 0.106775
v -0.384420 0.348575 0.109456
v -0.407659 0.353557 0.079168
v -0.400566 0.334982 0.046200
v -0.370232 0.311425 0.043520
v -0.346992 0.306443 0.073807
v -0.393724 0.262413 0.130708
v -0.426746 0.281733 0.135009
v -0.451477 0.284365 0.105620
v -0.443186 0.267675 0.071931
v -0.410164 0.248355 0.067630
v -0.385433 0.245724 0.097018
v -0.420851 0.202014 0.151554
v -0.455613 0.217585 0.157161
v -0.481309 0.218136 0.128496
v -0.472244 0.203116 0.094226
v -0.437482 0.187545 0.088619
v -0.411786 0.186994 0.117283
v -0.441934 0.140057 0.171578
v -0.477376 0.153746 0.177800
v -0.503450 0.153254 0.149478
v -0.494082 0.139071 0.114933
v -0.458640 0.125382 0.108711
v -0.432566 0.125874 0.137033
v -0.463265 0.073250 0.192886
v -0.498533 0.087453 0.198943
v -0.524510 0.087245 0.170528
v -0.515220 0.072834 0.136057
v -0.479951 0.058631 0.130000
v -0.453974 0.058839 0.158415
v -0.491136 -0.000987 0.217405
v -0.525577 0.015369 0.222747
v -0.551096 0.016356 0.193936
v -0.542174 0.000987 0.159783
v -0.507732 -0.015369 0.154441
v -0.482214 -0.016356 0.183252
v -0.042994 0.512148 0.203523
v -0.081297 0.508260 0.203523
v -0.097789 0.480112 0.183078
v -0.075978 0.455852 0.162634
v -0.037675 0.459740 0.162634
v -0.021183 0.487888 0.183078
v -0.040247 0.481354 0.246672
v -0.078574 0.477724 0.246317
v -0.094967 0.448498 0.227360
v -0.073033 0.422901 0.208759
v -0.034706 0.426531 0.209115
v -0.018313 0.455757 0.228071
v -0.038342 0.454977 0.287510
v -0.076674 0.451405 0.287069
v -0.093048 0.421939 0.268471
v -0.071091 0.396045 0.250315
v -0.032760 0.399617 0.250756
v -0.016385 0.429084 0.269354
v -0.036201 0.427986 0.327637
v -0.074514 0.424196 0.327508
v -0.090966 0.395641 0.307603
v -0.069105 0.370876 0.287827
v -0.030793 0.374666 0.287956
v -0.014340 0.403221 0.307861
v -0.032702 0.395624 0.367685
v -0.070959 0.391333 0.368163
v -0.087644 0.364876 0.345716
v -0.066072 0.342710 0.322791
v -0.027815 0.347001 0.322312
v -0.011130 0.373459 0.344760
v -0.026761 0.353558 0.407694
v -0.064920 0.348574 0.408830
v -0.082015 0.325016 0.383630
v -0.060951 0.306443 0.357294
v -0.022792 0.311426 0.356158
v -0.005697 0.334984 0.381358
v -0.015313 0.285372 0.456815
v -0.053342 0.279617 0.458507
v -0.070979 0.259289 0.430976
v -0.050586 0.244716 0.401753
v -0.012557 0.250471 0.400060
v 0.005080 0.270799 0.427591
v -0.002942 0.220035 0.491766
v -0.040844 0.213597 0.493833
v -0.059017 0.196128 0.464734
v -0.039289 0.185095 0.433567
v -0.001387 0.191533 0.431500
v 0.016786 0.209003 0.460600
v 0.010082 0.155600 0.519108
v -0.027752 0.148820 0.521327
v -0.046212 0.132784 0.491590
v -0.026838 0.123528 0.459633
v 0.010995 0.130308 0.457413
v 0.029455 0.146344 0.487151
v 0.023618 0.089469 0.545694
v -0.014234 0.082783 0.547874
v -0.032615 0.066355 0.518301
v -0.013143 0.056615 0.486549
v 0.024709 0.063301 0.484369
v 0.043090 0.079728 0.513941
v 0.037765 0.018068 0.578452
v -0.000164 0.011774 0.580448
v -0.018221 -0.006295 0.551643
v 0.001651 -0.018068 0.520842
v 0.039580 -0.011774 0.518845
v 0.057638 0.006295 0.547650
v 0.162844 0.502925 0.145914
v 0.138944 0.472742 0.145914
v 0.131836 0.453817 0.113149
v 0.148627 0.465075 0.080384
v 0.172527 0.495258 0.080384
v 0.179636 0.514183 0.113149
v 0.204598 0.472230 0.156602
v 0.182404 0.440774 0.157033
v 0.176874 0.420671 0.124667
v 0.193538 0.432025 0.091870
v 0.215732 0.463481 0.091438
v 0.221262 0.483584 0.123804
v 0.243994 0.445876 0.167401
v 0.222210 0.414136 0.167943
v 0.217058 0.393772 0.135678
v 0.233691 0.405146 0.102873
v 0.255475 0.436886 0.102331
v 0.260627 0.457251 0.134596
v 0.282934 0.418801 0.177795
v 0.259655 0.388137 0.177947
v 0.253120 0.368767 0.145323
v 0.269865 0.380061 0.112546
v 0.293145 0.410725 0.112394
v 0.299679 0.430095 0.145018
v 0.322332 0.386248 0.186894
v 0.296113 0.358059 0.186381
v 0.286861 0.340979 0.153141
v 0.303827 0.352087 0.120414
v 0.330045 0.380275 0.120928
v 0.339298 0.397356 0.154168
v 0.362470 0.343916 0.193650
v 0.333012 0.319149 0.192592
v 0.320764 0.305233 0.158849
v 0.337973 0.316084 0.126164
v 0.367430 0.340851 0.127221
v 0.379679 0.354767 0.160964
v 0.412942 0.275435 0.197960
v 0.380671 0.254479 0.196660
v 0.365820 0.244088 0.162693
v 0.383241 0.254653 0.130026
v 0.415512 0.275609 0.131325
v 0.430362 0.286000 0.165292
v 0.450157 0.209836 0.196993
v 0.415930 0.192254 0.195724
v 0.399270 0.184983 0.161785
v 0.416838 0.195294 0.129115
v 0.451065 0.212876 0.130384
v 0.467724 0.220148 0.164323
v 0.480249 0.145270 0.193049
v 0.445201 0.129380 0.191868
v 0.427782 0.123674 0.158012
v 0.445411 0.133858 0.125335
v 0.480459 0.149748 0.126516
v 0.497878 0.155454 0.160372
v 0.509700 0.079175 0.188392
v 0.474866 0.062823 0.187183
v 0.457645 0.056689 0.153300
v 0.475258 0.066908 0.120626
v 0.510092 0.083261 0.121835
v 0.527313 0.089394 0.155718
v 0.545150 0.007925 0.185067
v 0.511296 -0.010364 0.183775
v 0.494981 -0.018289 0.149815
v 0.512521 -0.007925 0.117147
v 0.546375 0.010364 0.118439
v 0.562689 0.018289 0.152399
v 0.184313 0.476182 -0.088563
v 0.152462 0.454554 -0.088563
v 0.123885 0.462372 -0.113149
v 0.127159 0.491818 -0.137735
v 0.159010 0.513446 -0.137735
v 0.187587 0.505628 -0.113149
v 0.208194 0.444382 -0.126263
v 0.177273 0.421492 -0.127740
v 0.148750 0.429237 -0.152411
v 0.151147 0.459873 -0.175605
v 0.182068 0.482763 -0.174128
v 0.210592 0.475018 -0.149457
v 0.230840 0.417782 -0.160702
v 0.200148 0.394610 -0.162532
v 0.171637 0.402340 -0.187223
v 0.173819 0.433241 -0.210084
v 0.204511 0.456412 -0.208254
v 0.233021 0.448682 -0.183563
v 0.252036 0.391640 -0.193395
v 0.220518 0.369536 -0.193933
v 0.191960 0.377327 -0.218550
v 0.194920 0.407222 -0.242629
v 0.226437 0.429326 -0.242090
v 0.254995 0.421535 -0.217473
v 0.271527 0.361235 -0.225805
v 0.238480 0.341586 -0.223776
v 0.209834 0.349519 -0.248245
v 0.214235 0.377100 -0.274743
v 0.247281 0.396748 -0.276773
v 0.275927 0.388816 -0.252304
v 0.289037 0.321872 -0.259364
v 0.254485 0.305618 -0.254445
v 0.225752 0.313745 -0.278748
v 0.231572 0.338128 -0.307969
v 0.266124 0.354382 -0.312888
v 0.294857 0.346255 -0.288585
v 0.307779 0.256699 -0.303777
v 0.272136 0.244224 -0.296278
v 0.243341 0.252570 -0.320432
v 0.250188 0.273390 -0.352085
v 0.285831 0.285864 -0.359583
v 0.314626 0.277519 -0.335429
v 0.317860 0.194027 -0.337847
v 0.281646 0.184898 -0.328493
v 0.252818 0.193437 -0.352541
v 0.260203 0.211103 -0.385941
v 0.296417 0.220232 -0.395294
v 0.325245 0.211694 -0.371247
v 0.323261 0.130929 -0.366983
v 0.286879 0.123479 -0.356828
v 0.258041 0.132114 -0.380830
v 0.265585 0.148199 -0.414985
v 0.301967 0.155649 -0.425140
v 0.330805 0.147014 -0.401139
v 0.327967 0.064433 -0.396616
v 0.291624 0.056525 -0.386672
v 0.262788 0.065133 -0.410686
v 0.270295 0.081650 -0.444643
v 0.306638 0.089559 -0.454587
v 0.335474 0.080950 -0.430573
v 0.335953 -0.008498 -0.432190
v 0.299832 -0.018327 -0.423196
v 0.271009 -0.009829 -0.447264
v 0.278307 0.008498 -0.480326
v 0.314428 0.018327 -0.489320
v 0.343251 0.009829 -0.465252
v -0.057723 0.456228 -0.156472
v -0.087156 0.481047 -0.156472
v -0.088918 0.508819 -0.183078
v -0.061248 0.511772 -0.209685
v -0.031815 0.486953 -0.209685
v -0.030053 0.459181 -0.183078
v -0.087509 0.422948 -0.192408
v -0.116193 0.448613 -0.191509
v -0.116709 0.477793 -0.216619
v -0.088541 0.481307 -0.242628
v -0.059858 0.455642 -0.243527
v -0.059342 0.426462 -0.218417
v -0.113575 0.396018 -0.224971
v -0.142081 0.421871 -0.223852
v -0.142302 0.451365 -0.248598
v -0.114017 0.455004 -0.274462
v -0.085511 0.429151 -0.275580
v -0.085290 0.399658 -0.250835
v -0.136977 0.371128 -0.253842
v -0.166135 0.396266 -0.253518
v -0.167441 0.424569 -0.279585
v -0.139589 0.427734 -0.305976
v -0.110431 0.402596 -0.306300
v -0.109125 0.374293 -0.280233
v -0.159467 0.343603 -0.279759
v -0.189946 0.367095 -0.280941
v -0.193450 0.392659 -0.309515
v -0.166474 0.394732 -0.336906
v -0.135995 0.371240 -0.335723
v -0.132492 0.345675 -0.307150
v -0.183295 0.308221 -0.304056
v -0.215304 0.329438 -0.306797
v -0.221353 0.351217 -0.337963
v -0.195393 0.351779 -0.366388
v -0.163384 0.330562 -0.363647
v -0.157335 0.308783 -0.332481
v -0.217260 0.247482 -0.333452
v -0.250688 0.266164 -0.337423
v -0.259098 0.283727 -0.370636
v -0.234080 0.282607 -0.399878
v -0.200652 0.263924 -0.395907
v -0.192242 0.246362 -0.362694
v -0.244686 0.188735 -0.352259
v -0.279178 0.205174 -0.356978
v -0.289358 0.219004 -0.391436
v -0.265046 0.216396 -0.421174
v -0.230554 0.199956 -0.416455
v -0.220374 0.186126 -0.381998
v -0.269894 0.127605 -0.365922
v -0.304862 0.142920 -0.370914
v -0.315835 0.154878 -0.405826
v -0.291839 0.151522 -0.435746
v -0.256871 0.136208 -0.430753
v -0.245898 0.124250 -0.395841
v -0.296844 0.060572 -0.379674
v -0.331686 0.076194 -0.384598
v -0.342448 0.088663 -0.419396
v -0.318368 0.085512 -0.449271
v -0.283526 0.069890 -0.444347
v -0.272764 0.057421 -0.409548
v -0.329187 -0.014612 -0.398854
v -0.363470 0.002297 -0.403440
v -0.373301 0.016909 -0.437675
v -0.348850 0.014612 -0.467325
v -0.314567 -0.002297 -0.462739
v -0.304736 -0.016909 -0.428504
v 0.269637 0.073329 -0.036665
v 0.568817 -0.898103 0.144000
v 0.875023 -0.515386 -0.179298
v 1.232330 0.181571 -0.055809
v 1.146952 0.229596 0.343809
v 0.736878 -0.437679 0.467298
v 2.000000 -0.900000 0.450000
v 0.198313 0.129083 0.046651
v 0.183203 0.076199 0.046651
v 0.184890 0.047116 0.000000
v 0.201687 0.070917 -0.046651
v 0.216797 0.123801 -0.046651
v 0.215110 0.152884 -0.000000
v 0.351144 0.090764 0.077873
v 0.338745 0.037183 0.078432
v 0.341240 0.007893 0.031947
v 0.356134 0.032183 -0.015097
v 0.368533 0.085765 -0.015656
v 0.366038 0.115055 0.030829
v 0.489463 0.061974 0.104448
v 0.477708 0.008249 0.105133
v 0.480394 -0.021084 0.058685
v 0.494837 0.003308 0.011553
v 0.506592 0.057032 0.010868
v 0.503906 0.086365 0.057315
v 0.621858 0.032235 0.130507
v 0.607742 -0.020923 0.130717
v 0.609725 -0.050087 0.084128
v 0.625825 -0.026094 0.037329
v 0.639941 0.027064 0.037119
v 0.637957 0.056228 0.083708
v 0.756456 -0.008951 0.160129
v 0.737580 -0.060603 0.159278
v 0.738146 -0.089319 0.112372
v 0.757587 -0.066382 0.066319
v 0.776463 -0.014730 0.067170
v 0.775898 0.013986 0.114075
v 0.901082 -0.072004 0.197329
v 0.876676 -0.121240 0.195054
v 0.875594 -0.149236 0.147725
v 0.898918 -0.127996 0.102671
v 0.923324 -0.078760 0.104946
v 0.924406 -0.050764 0.152275
v 1.069127 -0.170485 0.247759
v 1.039540 -0.216691 0.243930
v 1.036915 -0.243784 0.196138
v 1.063877 -0.224672 0.152175
v 1.093464 -0.178466 0.156003
v 1.096089 -0.151373 0.203795
v 1.206426 -0.274154 0.295591
v 1.172885 -0.317433 0.290402
v 1.169082 -0.343654 0.242205
v 1.198820 -0.326596 0.199197
v 1.232361 -0.283317 0.204386
v 1.236164 -0.257096 0.252583
v 1.329833 -0.383623 0.343238
v 1.294489 -0.425352 0.337367
v 1.290149 -0.451112 0.288967
v 1.321153 -0.435142 0.246438
v 1.356497 -0.393413 0.252309
v 1.360837 -0.367653 0.300709
v 1.456439 -0.499706 0.393200
v 1.421576 -0.541864 0.387515
v 1.417379 -0.567751 0.339170
v 1.448045 -0.551481 0.296510
v 1.482908 -0.509323 0.302195
v 1.487104 -0.483435 0.350539
v 1.603568 -0.623590 0.448112
v 1.570817 -0.667502 0.443209
v 1.567249 -0.693912 0.395097
v 1.596432 -0.676410 0.351888
v 1.629184 -0.632498 0.356791
v 1.632751 -0.606088 0.404903
v -0.269637 0.073329 -0.036665
v -1.255183 0.322103 0.144000
v -1.087122 -0.138321 -0.179298
v -0.677048 -0.805596 -0.055809
v -0.591670 -0.757571 0.343809
v -0.948977 -0.060614 0.467298
v -2.000000 -0.900000 0.450000
v -0.183203 0.076199 0.046651
v -0.198313 0.129083 0.046651
v -0.215110 0.152884 -0.000000
v -0.216797 0.123801 -0.046651
v -0.201687 0.070917 -0.046651
v -0.184890 0.047116 0.000000
v -0.338745 0.037183 0.078432
v -0.351144 0.090764 0.077873
v -0.366038 0.115055 0.030829
v -0.368533 0.085765 -0.015656
v -0.356134 0.032183 -0.015097
v -0.341240 0.007893 0.031947
v -0.477708 0.008249 0.105133
v -0.489463 0.061974 0.104448
v -0.503906 0.086365 0.057315
v -0.506592 0.057032 0.010868
v -0.494837 0.003308 0.011553
v -0.480394 -0.021084 0.058685
v -0.607742 -0.020923 0.130717
v -0.621858 0.032235 0.130507
v -0.637957 0.056228 0.083708
v -0.639941 0.027064 0.037119
v -0.625825 -0.026094 0.037329
v -0.609725 -0.050087 0.084128
v -0.737580 -0.060603 0.159278
v -0.756456 -0.008951 0.160129
v -0.775898 0.013986 0.114075
v -0.776463 -0.014730 0.067170
v -0.757587 -0.066382 0.066319
v -0.738146 -0.089319 0.112372
v -0.876676 -0.121240 0.195054
v -0.901082 -0.072004 0.197329
v -0.924406 -0.050764 0.152275
v -0.923324 -0.078760 0.104946
v -0.898918 -0.127996 0.102671
v -0.875594 -0.149236 0.147725
v -1.039540 -0.216691 0.243930
v -1.069127 -0.170485 0.247759
v -1.096089 -0.151373 0.203795
v -1.093464 -0.178466 0.156003
v -1.063877 -0.224672 0.152175
v -1.036915 -0.243784 0.196138
v -1.172885 -0.317433 0.290402
v -1.206426 -0.274154 0.295591
v -1.236164 -0.257096 0.252583
v -1.232361 -0.283317 0.204386
v -1.198820 -0.326596 0.199197
v -1.169082 -0.343654 0.242205
v -1.294489 -0.425352 0.337367
v -1.329833 -0.383623 0.343238
v -1.360837 -0.367653 0.300709
v -1.356497 -0.393413 0.252309
v -1.321153 -0.435142 0.246438
v -1.290149 -0.451112 0.288967
v -1.421576 -0.541864 0.387515
v -1.456439 -0.499706 0.393200
v -1.487104 -0.483435 0.350539
v -1.482908 -0.509323 0.302195
v -1.448045 -0.551481 0.296510
v -1.417379 -0.567751 0.339170
v -1.570817 -0.667502 0.443209
v -1.603568 -0.623590 0.448112
v -1.632751 -0.606088 0.404903
v -1.629184 -0.632498 0.356791
v -1.596432 -0.676410 0.351888
v -1.567249 -0.693912 0.395097
v 0.000000 -0.184328 -0.006567
v -0.300000 -0.730000 0.048000
v -0.092705 -0.744195 -0.093951
v 0.242705 -0.738773 -0.039730
v 0.242705 -0.721227 0.135730
v -0.092705 -0.715805 0.189950
v 0.000000 -1.750000 0.150000
vn -0.0000 -0.0000 -1.0000
vn -0.4128 0.3845 -0.8257
vn 0.1508 0.5949 -0.7895
vn -0.6667 0.6210 -0.4121
vn -0.8506 -0.0000 -0.5257
vn 0.5257 -0.0000 -0.8507
vn 0.1508 -0.5949 -0.7895
vn -0.4128 -0.3845 -0.8257
vn -0.9231 0.3845 -0.0000
vn 0.2283 0.9008 -0.3694
vn -0.2205 0.8700 -0.4410
vn -0.0000 1.0000 -0.0000
vn 0.8944 -0.0000 -0.4472
vn 0.6387 0.5949 -0.4879
vn 0.9231 0.3845 -0.0000
vn 0.2283 -0.9008 -0.3694
vn 0.6387 -0.5949 -0.4879
vn 0.4930 -0.8700 -0.0000
vn -0.6667 -0.6210 -0.4121
vn -0.2205 -0.8700 -0.4410
vn -0.4930 -0.8700 -0.0000
vn -0.4930 0.8700 -0.0000
vn 0.4930 0.8700 -0.0000
vn 0.9231 -0.3845 -0.0000
vn -0.0000 -1.0000 -0.0000
vn -0.9231 -0.3845 -0.0000
vn -0.2283 0.9008 0.3694
vn -0.6387 0.5949 0.4879
vn -0.1508 0.5949 0.7895
vn 0.6667 0.6210 0.4121
vn 0.2205 0.8700 0.4410
vn 0.4128 0.3845 0.8257
vn 0.6667 -0.6210 0.4121
vn 0.8506 -0.0000 0.5257
vn 0.4128 -0.3845 0.8257
vn -0.2283 -0.9008 0.3694
vn 0.2205 -0.8700 0.4410
vn -0.1508 -0.5949 0.7895
vn -0.8944 -0.0000 0.4472
vn -0.6387 -0.5949 0.4879
vn -0.5257 -0.0000 0.8507
vn -0.0000 -0.0000 1.0000
vn -0.0009 -0.0000 -1.0000
vn -0.4221 0.3221 -0.8474
vn 0.1590 0.5160 -0.8417
vn -0.7145 0.5427 -0.4416
vn 0.1590 -0.5160 -0.8417
vn -0.4221 -0.3221 -0.8474
vn -0.9467 0.3221 0.0014
vn 0.2659 0.8627 -0.4302
vn -0.2553 0.8249 -0.5043
vn 0.8948 -0.0000 -0.4464
vn 0.6818 0.5160 -0.5186
vn 0.9467 0.3221 -0.0014
vn 0.2659 -0.8627 -0.4302
vn 0.6818 -0.5160 -0.5186
vn 0.5652 -0.8249 0.0028
vn -0.7145 -0.5427 -0.4416
vn -0.2553 -0.8249 -0.5043
vn -0.5652 -0.8249 -0.0028
vn -0.5652 0.8249 -0.0028
vn 0.5652 0.8249 0.0028
vn 0.9467 -0.3221 -0.0014
vn -0.9467 -0.3221 0.0014
vn -0.2659 0.8627 0.4302
vn -0.6818 0.5160 0.5186
vn -0.1590 0.5160 0.8417
vn 0.7145 0.5427 0.4416
vn 0.2553 0.8249 0.5043
vn 0.4221 0.3221 0.8474
vn 0.7145 -0.5427 0.4416
vn 0.4221 -0.3221 0.8474
vn -0.2659 -0.8627 0.4302
vn 0.2553 -0.8249 0.5043
vn -0.1590 -0.5160 0.8417
vn -0.8948 -0.0000 0.4464
vn -0.6818 -0.5160 0.5186
vn 0.0009 -0.0000 1.0000
vn 0.4867 -0.1937 0.8518
vn 0.5071 -0.2571 0.8226
vn 0.5872 -0.8095 0.0016
vn 0.6114 -0.7912 0.0113
vn -0.1593 0.6099 0.7763
vn -0.1165 0.5876 0.8007
vn -0.6017 0.7983 0.0253
vn -0.5897 0.8076 -0.0004
vn -0.5384 0.2935 -0.7900
vn -0.4995 0.2475 -0.8302
vn 0.1019 -0.5588 -0.8230
vn 0.1267 -0.5949 -0.7937
vn 0.4956 -0.2557 0.8301
vn 0.5774 -0.8164 0.0050
vn -0.1188 0.5972 0.7933
vn -0.5766 0.8170 -0.0054
vn -0.4986 0.2594 -0.8271
vn 0.1148 -0.5943 -0.7960
vn 0.5122 -0.2297 0.8276
vn 0.6206 -0.7841 -0.0113
vn -0.1442 0.5854 0.7978
vn -0.6163 0.7875 0.0091
vn -0.5272 0.2463 -0.8133
vn 0.1246 -0.5727 -0.8102
vn 0.5511 -0.1836 0.8140
vn 0.7017 -0.7110 -0.0445
vn -0.1824 0.5496 0.8152
vn -0.6951 0.7177 0.0406
vn -0.5743 0.2041 -0.7928
vn 0.1527 -0.5337 -0.8317
vn 0.5959 -0.1267 0.7930
vn 0.7869 -0.6113 -0.0847
vn -0.2168 0.4983 0.8394
vn -0.7811 0.6193 0.0803
vn -0.6199 0.1426 -0.7716
vn 0.1862 -0.4856 -0.8541
vn 0.6328 -0.0648 0.7716
vn 0.8566 -0.5007 -0.1243
vn -0.2426 0.4432 0.8630
vn -0.8525 0.5087 0.1201
vn -0.6558 0.0759 -0.7511
vn 0.2131 -0.4338 -0.8754
vn 0.6603 -0.0119 0.7509
vn 0.9015 -0.4040 -0.1555
vn -0.2539 0.3951 0.8829
vn -0.8996 0.4092 0.1527
vn -0.6752 0.0174 -0.7374
vn 0.2344 -0.3900 -0.8905
vn 0.6755 0.0135 0.7373
vn 0.9187 -0.3568 -0.1694
vn -0.2523 0.3703 0.8940
vn -0.9184 0.3579 0.1688
vn -0.6785 -0.0125 -0.7345
vn 0.2483 -0.3694 -0.8955
vn 0.6785 0.0042 0.7346
vn 0.9135 -0.3720 -0.1644
vn -0.2435 0.3749 0.8945
vn -0.9143 0.3695 0.1658
vn -0.6706 -0.0067 -0.7418
vn 0.2539 -0.3772 -0.8907
vn 0.7191 -0.0409 0.6937
vn 0.8972 -0.3992 -0.1886
vn -0.2067 0.3758 0.9033
vn -0.9130 0.3861 0.1321
vn -0.6193 -0.0268 -0.7847
vn 0.2900 -0.3966 -0.8710
vn 0.3789 0.7645 0.5215
vn 0.4032 0.7668 0.4995
vn 0.9954 0.0953 0.0077
vn 0.9866 0.1559 0.0484
vn -0.5004 0.6894 0.5238
vn -0.5407 0.6813 0.4934
vn -0.9983 -0.0512 0.0270
vn -0.9941 -0.1066 -0.0200
vn -0.4197 -0.7510 -0.5097
vn -0.3940 -0.7706 -0.5010
vn 0.5718 -0.6498 -0.5007
vn 0.5355 -0.6850 -0.4940
vn 0.3954 0.7760 0.4914
vn 0.9946 0.1017 0.0183
vn -0.5369 0.6920 0.4826
vn -0.9952 -0.0973 -0.0135
vn -0.3989 -0.7747 -0.4906
vn 0.5389 -0.6907 -0.4821
vn 0.3939 0.7536 0.5263
vn 0.9932 0.1149 0.0202
vn -0.5334 0.6636 0.5245
vn -0.9954 -0.0952 0.0036
vn -0.4107 -0.7469 -0.5229
vn 0.5428 -0.6572 -0.5229
vn 0.4025 0.6980 0.5923
vn 0.9915 0.1294 0.0119
vn -0.5295 0.5944 0.6052
vn -0.9941 -0.1060 0.0250
vn -0.4267 -0.6881 -0.5869
vn 0.5425 -0.5846 -0.6033
vn 0.4201 0.6198 0.6628
vn 0.9897 0.1434 -0.0038
vn -0.5228 0.4972 0.6925
vn -0.9911 -0.1261 0.0421
vn -0.4437 -0.6103 -0.6563
vn 0.5349 -0.4874 -0.6902
vn 0.4408 0.5336 0.7218
vn 0.9870 0.1594 -0.0188
vn -0.5116 0.3892 0.7660
vn -0.9874 -0.1479 0.0554
vn -0.4627 -0.5252 -0.7142
vn 0.5224 -0.3806 -0.7630
vn 0.4622 0.4567 0.7601
vn 0.9843 0.1730 -0.0353
vn -0.5002 0.2931 0.8148
vn -0.9841 -0.1676 0.0591
vn -0.4763 -0.4516 -0.7545
vn 0.5071 -0.2878 -0.8124
vn 0.4766 0.4171 0.7739
vn 0.9826 0.1791 -0.0491
vn -0.4954 0.2438 0.8337
vn -0.9825 -0.1782 0.0539
vn -0.4795 -0.4161 -0.7727
vn 0.4968 -0.2427 -0.8332
vn 0.4794 0.4256 0.7675
vn 0.9829 0.1752 -0.0566
vn -0.5001 0.2549 0.8276
vn -0.9831 -0.1776 0.0440
vn -0.4720 -0.4280 -0.7707
vn 0.4965 -0.2573 -0.8290
vn 0.4861 0.4422 0.7538
vn 0.9832 0.1425 -0.1137
vn -0.5452 0.2579 0.7976
vn -0.9790 -0.2029 -0.0193
vn -0.4547 -0.4445 -0.7718
vn 0.4517 -0.2968 -0.8413
vn 0.2126 0.5664 0.7962
vn 0.1623 0.5429 0.8240
vn 0.5759 0.8175 -0.0013
vn 0.5903 0.8071 0.0118
vn -0.4186 -0.2671 0.8680
vn -0.4475 -0.3190 0.8355
vn -0.5928 -0.8054 0.0004
vn -0.5724 -0.8199 -0.0044
vn -0.1500 -0.5003 -0.8528
vn -0.1683 -0.5488 -0.8189
vn 0.4693 0.3574 -0.8075
vn 0.4381 0.3084 -0.8444
vn 0.1571 0.5545 0.8172
vn 0.5628 0.8266 0.0004
vn -0.4401 -0.3126 0.8418
vn -0.5639 -0.8258 0.0018
vn -0.1546 -0.5524 -0.8191
vn 0.4437 0.3168 -0.8383
vn 0.1962 0.5300 0.8250
vn 0.5996 0.8002 0.0126
vn -0.4360 -0.3017 0.8479
vn -0.6054 -0.7959 -0.0020
vn -0.1845 -0.5199 -0.8341
vn 0.4544 0.3200 -0.8313
vn 0.2663 0.4671 0.8431
vn 0.6752 0.7371 0.0283
vn -0.4366 -0.2915 0.8511
vn -0.6838 -0.7296 -0.0126
vn -0.2493 -0.4534 -0.8557
vn 0.4660 0.3133 -0.8274
vn 0.3403 0.3785 0.8608
vn 0.7605 0.6482 0.0384
vn -0.4416 -0.2836 0.8512
vn -0.7682 -0.6398 -0.0225
vn -0.3231 -0.3665 -0.8725
vn 0.4730 0.2998 -0.8285
vn 0.4032 0.2810 0.8709
vn 0.8349 0.5489 0.0411
vn -0.4463 -0.2752 0.8515
vn -0.8408 -0.5408 -0.0255
vn -0.3866 -0.2715 -0.8814
vn 0.4769 0.2860 -0.8311
vn 0.4442 0.1950 0.8744
vn 0.8874 0.4596 0.0360
vn -0.4538 -0.2690 0.8495
vn -0.8905 -0.4544 -0.0255
vn -0.4333 -0.1896 -0.8811
vn 0.4740 0.2742 -0.8367
vn 0.4582 0.1510 0.8759
vn 0.9100 0.4135 0.0290
vn -0.4626 -0.2669 0.8454
vn -0.9106 -0.4124 -0.0268
vn -0.4560 -0.1500 -0.8773
vn 0.4668 0.2678 -0.8429
vn 0.4493 0.1607 0.8788
vn 0.9054 0.4237 0.0259
vn -0.4699 -0.2696 0.8405
vn -0.9041 -0.4262 -0.0315
vn -0.4552 -0.1631 -0.8753
vn 0.4591 0.2673 -0.8472
vn 0.3936 0.1536 0.9064
vn 0.8954 0.4441 0.0309
vn -0.5151 -0.2940 0.8052
vn -0.8953 -0.4444 -0.0293
vn -0.4966 -0.2081 -0.8427
vn 0.4148 0.2472 -0.8757
vn 0.7637 -0.1660 0.6239
vn 0.7272 -0.2204 0.6501
vn 0.7891 0.6142 0.0133
vn 0.7754 0.6302 -0.0400
vn -0.0782 -0.7858 0.6135
vn -0.0848 -0.8021 0.5912
vn -0.8164 -0.5767 -0.0304
vn -0.7854 -0.6189 -0.0077
vn -0.6981 0.2646 -0.6653
vn -0.7372 0.2093 -0.6424
vn 0.1031 0.7917 -0.6022
vn 0.0786 0.7991 -0.5961
vn 0.7339 -0.2126 0.6452
vn 0.7801 0.6254 0.0179
vn -0.0756 -0.8072 0.5854
vn -0.7814 -0.6237 -0.0202
vn -0.7299 0.2169 -0.6482
vn 0.0781 0.8082 -0.5837
vn 0.7426 -0.2057 0.6374
vn 0.8008 0.5987 -0.0178
vn -0.0887 -0.7782 0.6218
vn -0.8071 -0.5904 0.0070
vn -0.7234 0.2249 -0.6528
vn 0.1005 0.7835 -0.6133
vn 0.7494 -0.2054 0.6294
vn 0.8426 0.5321 -0.0823
vn -0.1185 -0.7151 0.6890
vn -0.8513 -0.5204 0.0672
vn -0.7211 0.2282 -0.6542
vn 0.1358 0.7235 -0.6768
vn 0.7521 -0.2107 0.6244
vn 0.8857 0.4385 -0.1521
vn -0.1500 -0.6304 0.7616
vn -0.8935 -0.4277 0.1372
vn -0.7240 0.2276 -0.6512
vn 0.1677 0.6393 -0.7505
vn 0.7537 -0.2167 0.6205
vn 0.9176 0.3352 -0.2136
vn -0.1721 -0.5373 0.8256
vn -0.9241 -0.3261 0.1993
vn -0.7278 0.2279 -0.6469
vn 0.1896 0.5456 -0.8163
vn 0.7511 -0.2228 0.6215
vn 0.9356 0.2436 -0.2556
vn -0.1862 -0.4565 0.8700
vn -0.9395 -0.2383 0.2462
vn -0.7346 0.2280 -0.6391
vn 0.1981 0.4617 -0.8646
vn 0.7454 -0.2266 0.6269
vn 0.9422 0.1967 -0.2711
vn -0.1941 -0.4173 0.8878
vn -0.9430 -0.1957 0.2692
vn -0.7421 0.2275 -0.6305
vn 0.1965 0.4184 -0.8868
vn 0.7392 -0.2278 0.6338
vn 0.9424 0.2072 -0.2624
vn -0.1977 -0.4303 0.8808
vn -0.9405 -0.2096 0.2676
vn -0.7478 0.2254 -0.6244
vn 0.1913 0.4278 -0.8834
vn 0.6939 -0.2529 0.6742
vn 0.9570 0.2049 -0.2054
vn -0.2020 -0.4473 0.8713
vn -0.9162 -0.2524 0.3114
vn -0.7864 0.1991 -0.5848
vn 0.1859 0.4470 -0.8750
vn 0.0266 -0.7444 0.6672
vn 0.0394 -0.7688 0.6382
vn 0.7260 -0.6876 0.0106
vn 0.7515 -0.6596 -0.0121
vn -0.7516 -0.0384 0.6585
vn -0.7238 -0.1032 0.6822
vn -0.7205 0.6921 -0.0432
vn -0.7314 0.6819 -0.0008
vn -0.0778 0.7632 -0.6415
vn -0.0385 0.7664 -0.6412
vn 0.6919 0.1449 -0.7073
vn 0.7325 0.0924 -0.6745
vn 0.0316 -0.7756 0.6305
vn 0.7244 -0.6893 -0.0014
vn -0.7327 -0.0994 0.6732
vn -0.7224 0.6915 -0.0025
vn -0.0321 0.7763 -0.6295
vn 0.7293 0.1036 -0.6763
vn 0.0572 -0.7424 0.6675
vn 0.7473 -0.6644 0.0098
vn -0.7286 -0.0784 0.6805
vn -0.7379 0.6743 -0.0286
vn -0.0590 0.7466 -0.6626
vn 0.7119 0.0970 -0.6955
vn 0.1105 -0.6684 0.7355
vn 0.7872 -0.6154 0.0400
vn -0.7114 -0.0454 0.7013
vn -0.7750 0.6283 -0.0677
vn -0.1123 0.6760 -0.7283
vn 0.6859 0.0680 -0.7245
vn 0.1727 -0.5679 0.8048
vn 0.8302 -0.5524 0.0746
vn -0.6871 -0.0067 0.7265
vn -0.8197 0.5635 -0.1027
vn -0.1739 0.5764 -0.7985
vn 0.6605 0.0237 -0.7504
vn 0.2299 -0.4568 0.8593
vn 0.8691 -0.4842 0.1010
vn -0.6638 0.0357 0.7470
vn -0.8605 0.4930 -0.1280
vn -0.2313 0.4650 -0.8546
vn 0.6381 -0.0242 -0.7696
vn 0.2731 -0.3598 0.8922
vn 0.8967 -0.4258 0.1207
vn -0.6420 0.0719 0.7633
vn -0.8917 0.4309 -0.1386
vn -0.2741 0.3651 -0.8897
vn 0.6251 -0.0664 -0.7778
vn 0.2927 -0.3125 0.9037
vn 0.9077 -0.3980 0.1331
vn -0.6274 0.0891 0.7736
vn -0.9067 0.3990 -0.1367
vn -0.2929 0.3136 -0.9032
vn 0.6239 -0.0881 -0.7765
vn 0.2881 -0.3278 0.8998
vn 0.9025 -0.4078 0.1383
vn -0.6233 0.0821 0.7777
vn -0.9050 0.4054 -0.1288
vn -0.2874 0.3253 -0.9009
vn 0.6323 -0.0845 -0.7701
vn 0.3183 -0.3605 0.8768
vn 0.8896 -0.4252 0.1666
vn -0.5784 0.0410 0.8147
vn -0.9045 0.4145 -0.1006
vn -0.2444 0.3367 -0.9093
vn 0.6806 -0.1081 -0.7246
vn -0.4871 -0.3024 -0.8193
vn 0.1475 -0.7045 -0.6942
vn -0.0414 0.1949 -0.9800
vn 0.4650 -0.0822 -0.8815
vn -0.1134 0.9833 -0.1424
vn 0.7900 0.6056 0.0960
vn -0.4234 0.4097 0.8080
vn 0.0657 0.1424 0.9876
vn -0.7901 -0.1320 0.5987
vn -0.1792 -0.5207 0.8347
vn -0.0170 0.5899 0.8073
vn -0.0336 0.5670 0.8230
vn 0.2246 0.9744 -0.0020
vn 0.2422 0.9702 0.0050
vn -0.2859 -0.4513 0.8453
vn -0.2760 -0.4845 0.8301
vn -0.2440 -0.9698 0.0036
vn -0.2236 -0.9747 0.0047
vn 0.0316 -0.5525 -0.8329
vn 0.0281 -0.5790 -0.8148
vn 0.2918 0.4991 -0.8159
vn 0.2741 0.4736 -0.8370
vn -0.0338 0.5766 0.8164
vn 0.2124 0.9772 -0.0062
vn -0.2661 -0.4792 0.8364
vn -0.2126 -0.9771 0.0052
vn 0.0359 -0.5719 -0.8195
vn 0.2669 0.4835 -0.8337
vn -0.0147 0.5805 0.8141
vn 0.2542 0.9672 0.0006
vn -0.2955 -0.4626 0.8359
vn -0.2561 -0.9666 -0.0057
vn 0.0260 -0.5587 -0.8289
vn 0.3000 0.4824 -0.8230
vn 0.0185 0.5728 0.8195
vn 0.3390 0.9406 0.0189
vn -0.3559 -0.4358 0.8267
vn -0.3433 -0.9388 -0.0269
vn 0.0019 -0.5430 -0.8397
vn 0.3649 0.4633 -0.8076
vn 0.0529 0.5532 0.8314
vn 0.4385 0.8976 0.0449
vn -0.4268 -0.4012 0.8105
vn -0.4440 -0.8944 -0.0536
vn -0.0284 -0.5265 -0.8497
vn 0.4385 0.4263 -0.7912
vn 0.0828 0.5288 0.8447
vn 0.5323 0.8433 0.0736
vn -0.4929 -0.3590 0.7926
vn -0.5380 -0.8389 -0.0824
vn -0.0566 -0.5070 -0.8601
vn 0.5059 0.3800 -0.7744
vn 0.1002 0.5037 0.8581
vn 0.6052 0.7898 0.1000
vn -0.5452 -0.3215 0.7742
vn -0.6090 -0.7860 -0.1060
vn -0.0819 -0.4913 -0.8671
vn 0.5545 0.3338 -0.7623
vn 0.1024 0.4881 0.8668
vn 0.6396 0.7601 0.1149
vn -0.5717 -0.3046 0.7618
vn -0.6404 -0.7592 -0.1161
vn -0.0985 -0.4857 -0.8685
vn 0.5737 0.3070 -0.7594
vn 0.0930 0.4867 0.8686
vn 0.6322 0.7664 0.1137
vn -0.5691 -0.3149 0.7596
vn -0.6303 -0.7685 -0.1105
vn -0.1029 -0.4929 -0.8640
vn 0.5640 0.3087 -0.7659
vn 0.0466 0.4505 0.8915
vn 0.6187 0.7792 0.1003
vn -0.5862 -0.3790 0.7160
vn -0.6146 -0.7806 -0.1140
vn -0.1440 -0.5389 -0.8299
vn 0.5249 0.2648 -0.8089
vn -0.0055 0.5733 -0.8193
vn -0.6786 0.2398 -0.6942
vn 0.1880 -0.0658 -0.9800
vn -0.3117 -0.3547 -0.8815
vn 0.8992 -0.4137 -0.1424
vn 0.1073 -0.9896 0.0960
vn 0.5700 0.1491 0.8080
vn 0.0876 -0.1301 0.9876
vn 0.2975 0.7437 0.5987
vn -0.3520 0.4235 0.8347
vn 0.2859 -0.4513 0.8453
vn 0.2760 -0.4845 0.8301
vn 0.2236 -0.9747 0.0047
vn 0.2440 -0.9698 0.0036
vn 0.0170 0.5899 0.8073
vn 0.0336 0.5670 0.8230
vn -0.2422 0.9702 0.0050
vn -0.2246 0.9744 -0.0020
vn -0.2918 0.4991 -0.8159
vn -0.2741 0.4736 -0.8370
vn -0.0316 -0.5525 -0.8329
vn -0.0281 -0.5790 -0.8148
vn 0.2661 -0.4792 0.8364
vn 0.2126 -0.9771 0.0052
vn 0.0338 0.5766 0.8164
vn -0.2124 0.9772 -0.0062
vn -0.2669 0.4835 -0.8337
vn -0.0359 -0.5719 -0.8195
vn 0.2955 -0.4626 0.8359
vn 0.2561 -0.9666 -0.0057
vn 0.0147 0.5805 0.8141
vn -0.2542 0.9672 0.0006
vn -0.3000 0.4824 -0.8230
vn -0.0260 -0.5587 -0.8289
vn 0.3559 -0.4358 0.8267
vn 0.3433 -0.9388 -0.0269
vn -0.0185 0.5728 0.8195
vn -0.3390 0.9406 0.0189
vn -0.3649 0.4633 -0.8076
vn -0.0019 -0.5430 -0.8397
vn 0.4268 -0.4012 0.8105
vn 0.4440 -0.8944 -0.0536
vn -0.0529 0.5532 0.8314
vn -0.4385 0.8976 0.0449
vn -0.4385 0.4263 -0.7912
vn 0.0284 -0.5265 -0.8497
vn 0.4929 -0.3590 0.7926
vn 0.5380 -0.8389 -0.0824
vn -0.0828 0.5288 0.8447
vn -0.5323 0.8433 0.0736
vn -0.5059 0.3800 -0.7744
vn 0.0566 -0.5070 -0.8601
vn 0.5452 -0.3215 0.7742
vn 0.6090 -0.7860 -0.1060
vn -0.1002 0.5037 0.8581
vn -0.6052 0.7898 0.1000
vn -0.5545 0.3338 -0.7623
vn 0.0819 -0.4913 -0.8671
vn 0.5717 -0.3046 0.7618
vn 0.6404 -0.7592 -0.1161
vn -0.1024 0.4881 0.8668
vn -0.6396 0.7601 0.1149
vn -0.5737 0.3070 -0.7594
vn 0.0985 -0.4857 -0.8685
vn 0.5691 -0.3149 0.7596
vn 0.6303 -0.7685 -0.1105
vn -0.0930 0.4867 0.8686
vn -0.6322 0.7664 0.1137
vn -0.5640 0.3087 -0.7659
vn 0.1029 -0.4929 -0.8640
vn 0.5862 -0.3790 0.7160
vn 0.6146 -0.7806 -0.1140
vn -0.0466 0.4505 0.8915
vn -0.6187 0.7792 0.1003
vn -0.5249 0.2648 -0.8089
vn 0.1440 -0.5389 -0.8299
vn -0.5415 0.2165 -0.8124
vn -0.5593 -0.2437 -0.7923
vn 0.1563 0.1270 -0.9795
vn 0.1592 -0.2188 -0.9627
vn 0.9144 0.4027 -0.0403
vn 0.9731 -0.2293 0.0229
vn 0.1563 0.3184 0.9350
vn 0.1592 -0.0239 0.9870
vn -0.5415 0.3730 0.7534
vn -0.5593 -0.0820 0.8249
vt 0.181819 0.000000
vt 0.227273 0.078731
vt 0.136365 0.078731
vt 0.272728 0.157461
vt 0.318182 0.078731
vt 0.363637 0.157461
vt 0.909091 0.000000
vt 0.954545 0.078731
vt 0.863636 0.078731
vt 0.727273 0.000000
vt 0.772727 0.078731
vt 0.681818 0.078731
vt 0.545455 0.000000
vt 0.590909 0.078731
vt 0.500000 0.078731
vt 0.318182 0.236191
vt 0.090910 0.157461
vt 0.181819 0.157461
vt 0.136365 0.236191
vt 0.818182 0.157461
vt 0.909091 0.157461
vt 0.863636 0.236191
vt 0.636364 0.157461
vt 0.727273 0.157461
vt 0.681818 0.236191
vt 0.454546 0.157461
vt 0.545455 0.157461
vt 0.500000 0.236191
vt 0.227273 0.236191
vt 0.045455 0.236191
vt 0.772727 0.236191
vt 0.590909 0.236191
vt 0.409092 0.236191
vt 0.181819 0.314921
vt 0.272728 0.314921
vt 0.227273 0.393651
vt 0.000000 0.314921
vt 0.090910 0.314921
vt 0.045455 0.393651
vt 0.727273 0.314921
vt 0.818182 0.314921
vt 0.772727 0.393651
vt 0.545455 0.314921
vt 0.636364 0.314921
vt 0.590909 0.393651
vt 0.363637 0.314921
vt 0.454546 0.314921
vt 0.409092 0.393651
vt 0.500000 0.393651
vt 0.454546 0.472382
vt 0.681818 0.393651
vt 0.636364 0.472382
vt 0.863636 0.393651
vt 0.818182 0.472382
vt 0.909091 0.314921
vt 0.136365 0.393651
vt 0.090910 0.472382
vt 0.318182 0.393651
vt 0.272728 0.472382
vt 0.954545 0.236191
vt 1.000000 0.157461
vt 0.409092 0.078731
vt 0.363637 0.000000
vt 0.000000 1.000000
vt 0.100000 1.000000
vt 0.100000 0.833333
vt 0.000000 0.833333
vt 0.000000 0.166667
vt 0.100000 0.166667
vt 0.100000 0.000000
vt 0.000000 0.000000
vt 0.000000 0.333333
vt 0.100000 0.333333
vt 0.000000 0.500000
vt 0.100000 0.500000
vt 0.000000 0.666667
vt 0.100000 0.666667
vt 0.200000 1.000000
vt 0.200000 0.833333
vt 0.200000 0.166667
vt 0.200000 0.000000
vt 0.200000 0.333333
vt 0.200000 0.500000
vt 0.200000 0.666667
vt 0.300000 1.000000
vt 0.300000 0.833333
vt 0.300000 0.166667
vt 0.300000 0.000000
vt 0.300000 0.333333
vt 0.300000 0.500000
vt 0.300000 0.666667
vt 0.400000 1.000000
vt 0.400000 0.833333
vt 0.400000 0.166667
vt 0.400000 0.000000
vt 0.400000 0.333333
vt 0.400000 0.500000
vt 0.400000 0.666667
vt 0.500000 1.000000
vt 0.500000 0.833333
vt 0.500000 0.166667
vt 0.500000 0.000000
vt 0.500000 0.333333
vt 0.500000 0.500000
vt 0.500000 0.666667
vt 0.600000 1.000000
vt 0.600000 0.833333
vt 0.600000 0.166667
vt 0.600000 0.000000
vt 0.600000 0.333333
vt 0.600000 0.500000
vt 0.600000 0.666667
vt 0.700000 1.000000
vt 0.700000 0.833333
vt 0.700000 0.166667
vt 0.700000 0.000000
vt 0.700000 0.333333
vt 0.700000 0.500000
vt 0.700000 0.666667
vt 0.800000 1.000000
vt 0.800000 0.833333
vt 0.800000 0.166667
vt 0.800000 0.000000
vt 0.800000 0.333333
vt 0.800000 0.500000
vt 0.800000 0.666667
vt 0.900000 1.000000
vt 0.900000 0.833333
vt 0.900000 0.166667
vt 0.900000 0.000000
vt 0.900000 0.333333
vt 0.900000 0.500000
vt 0.900000 0.666667
vt 1.000000 1.000000
vt 1.000000 0.833333
vt 1.000000 0.166667
vt 1.000000 0.000000
vt 1.000000 0.333333
vt 1.000000 0.500000
vt 1.000000 0.666667
s 1
usemtl UnknownOrganicMatter
f 1/1/1 14/2/2 13/3/3
f 2/4/4 14/5/2 16/6/5
f 1/7/1 13/8/3 18/9/6
f 1/10/1 18/11/6 20/12/7
f 1/13/1 20/14/7 17/15/8
f 2/4/4 16/6/5 23/16/9
f 3/17/10 15/18/11 25/19/12
f 4/20/13 19/21/14 27/22/15
f 5/23/16 21/24/17 29/25/18
f 6/26/19 22/27/20 31/28/21
f 2/4/4 23/16/9 26/29/22
f 3/17/10 25/19/12 28/30/23
f 4/20/13 27/22/15 30/31/24
f 5/23/16 29/25/18 32/32/25
f 6/26/19 31/28/21 24/33/26
f 7/34/27 33/35/28 38/36/29
f 8/37/30 34/38/31 40/39/32
f 9/40/33 35/41/34 41/42/35
f 10/43/36 36/44/37 42/45/38
f 11/46/39 37/47/40 39/48/41
f 39/48/41 42/49/38 12/50/42
f 39/48/41 37/47/40 42/49/38
f 37/47/40 10/43/36 42/49/38
f 42/45/38 41/51/35 12/52/42
f 42/45/38 36/44/37 41/51/35
f 36/44/37 9/40/33 41/51/35
f 41/42/35 40/53/32 12/54/42
f 41/42/35 35/41/34 40/53/32
f 35/41/34 8/55/30 40/53/32
f 40/39/32 38/56/29 12/57/42
f 40/39/32 34/38/31 38/56/29
f 34/38/31 7/34/27 38/56/29
f 38/36/29 39/58/41 12/59/42
f 38/36/29 33/35/28 39/58/41
f 33/35/28 11/46/39 39/58/41
f 24/33/26 37/47/40 11/46/39
f 24/33/26 31/28/21 37/47/40
f 31/28/21 10/43/36 37/47/40
f 32/32/25 36/44/37 10/43/36
f 32/32/25 29/25/18 36/44/37
f 29/25/18 9/40/33 36/44/37
f 30/31/24 35/41/34 9/40/33
f 30/31/24 27/22/15 35/41/34
f 27/22/15 8/55/30 35/41/34
f 28/30/23 34/38/31 8/37/30
f 28/30/23 25/19/12 34/38/31
f 25/19/12 7/34/27 34/38/31
f 26/29/22 33/35/28 7/34/27
f 26/29/22 23/16/9 33/35/28
f 23/16/9 11/46/39 33/35/28
f 31/28/21 32/32/25 10/43/36
f 31/28/21 22/27/20 32/32/25
f 22/27/20 5/23/16 32/32/25
f 29/25/18 30/31/24 9/40/33
f 29/25/18 21/24/17 30/31/24
f 21/24/17 4/20/13 30/31/24
f 27/22/15 28/60/23 8/55/30
f 27/22/15 19/21/14 28/60/23
f 19/21/14 3/61/10 28/60/23
f 25/19/12 26/29/22 7/34/27
f 25/19/12 15/18/11 26/29/22
f 15/18/11 2/4/4 26/29/22
f 23/16/9 24/33/26 11/46/39
f 23/16/9 16/6/5 24/33/26
f 16/6/5 6/26/19 24/33/26
f 17/15/8 22/27/20 6/26/19
f 17/15/8 20/14/7 22/27/20
f 20/14/7 5/23/16 22/27/20
f 20/12/7 21/24/17 5/23/16
f 20/12/7 18/11/6 21/24/17
f 18/11/6 4/20/13 21/24/17
f 18/9/6 19/21/14 4/20/13
f 18/9/6 13/8/3 19/21/14
f 13/8/3 3/61/10 19/21/14
f 16/6/5 17/62/8 6/26/19
f 16/6/5 14/5/2 17/62/8
f 14/5/2 1/63/1 17/62/8
f 13/3/3 15/18/11 3/17/10
f 13/3/3 14/2/2 15/18/11
f 14/2/2 2/4/4 15/18/11
f 85/64/79 91/65/80 96/66/81 90/67/82
f 86/68/83 92/69/84 91/70/80 85/71/79
f 87/72/85 93/73/86 92/69/84 86/68/83
f 88/74/87 94/75/88 93/73/86 87/72/85
f 89/76/89 95/77/90 94/75/88 88/74/87
f 90/67/82 96/66/81 95/77/90 89/76/89
f 91/65/80 97/78/91 102/79/92 96/66/81
f 92/69/84 98/80/93 97/81/91 91/70/80
f 93/73/86 99/82/94 98/80/93 92/69/84
f 94/75/88 100/83/95 99/82/94 93/73/86
f 95/77/90 101/84/96 100/83/95 94/75/88
f 96/66/81 102/79/92 101/84/96 95/77/90
f 97/78/91 103/85/97 108/86/98 102/79/92
f 98/80/93 104/87/99 103/88/97 97/81/91
f 99/82/94 105/89/100 104/87/99 98/80/93
f 100/83/95 106/90/101 105/89/100 99/82/94
f 101/84/96 107/91/102 106/90/101 100/83/95
f 102/79/92 108/86/98 107/91/102 101/84/96
f 103/85/97 109/92/103 114/93/104 108/86/98
f 104/87/99 110/94/105 109/95/103 103/88/97
f 105/89/100 111/96/106 110/94/105 104/87/99
f 106/90/101 112/97/107 111/96/106 105/89/100
f 107/91/102 113/98/108 112/97/107 106/90/101
f 108/86/98 114/93/104 113/98/108 107/91/102
f 109/92/103 115/99/109 120/100/110 114/93/104
f 110/94/105 116/101/111 115/102/109 109/95/103
f 111/96/106 117/103/112 116/101/111 110/94/105
f 112/97/107 118/104/113 117/103/112 111/96/106
f 113/98/108 119/105/114 118/104/113 112/97/107
f 114/93/104 120/100/110 119/105/114 113/98/108
f 115/99/109 121/106/115 126/107/116 120/100/110
f 116/101/111 122/108/117 121/109/115 115/102/109
f 117/103/112 123/110/118 122/108/117 116/101/111
f 118/104/113 124/111/119 123/110/118 117/103/112
f 119/105/114 125/112/120 124/111/119 118/104/113
f 120/100/110 126/107/116 125/112/120 119/105/114
f 121/106/115 127/113/121 132/114/122 126/107/116
f 122/108/117 128/115/123 127/116/121 121/109/115
f 123/110/118 129/117/124 128/115/123 122/108/117
f 124/111/119 130/118/125 129/117/124 123/110/118
f 125/112/120 131/119/126 130/118/125 124/111/119
f 126/107/116 132/114/122 131/119/126 125/112/120
f 127/113/121 133/120/127 138/121/128 132/114/122
f 128/115/123 134/122/129 133/123/127 127/116/121
f 129/117/124 135/124/130 134/122/129 128/115/123
f 130/118/125 136/125/131 135/124/130 129/117/124
f 131/119/126 137/126/132 136/125/131 130/118/125
f 132/114/122 138/121/128 137/126/132 131/119/126
f 133/120/127 139/127/133 144/128/134 138/121/128
f 134/122/129 140/129/135 139/130/133 133/123/127
f 135/124/130 141/131/136 140/129/135 134/122/129
f 136/125/131 142/132/137 141/131/136 135/124/130
f 137/126/132 143/133/138 142/132/137 136/125/131
f 138/121/128 144/128/134 143/133/138 137/126/132
f 139/127/133 145/134/139 150/135/140 144/128/134
f 140/129/135 146/136/141 145/137/139 139/130/133
f 141/131/136 147/138/142 146/136/141 140/129/135
f 142/132/137 148/139/143 147/138/142 141/131/136
f 143/133/138 149/140/144 148/139/143 142/132/137
f 144/128/134 150/135/140 149/140/144 143/133/138
f 151/64/145 157/65/146 162/66/147 156/67/148
f 152/68/149 158/69/150 157/70/146 151/71/145
f 153/72/151 159/73/152 158/69/150 152/68/149
f 154/74/153 160/75/154 159/73/152 153/72/151
f 155/76/155 161/77/156 160/75/154 154/74/153
f 156/67/148 162/66/147 161/77/156 155/76/155
f 157/65/146 163/78/157 168/79/158 162/66/147
f 158/69/150 164/80/159 163/81/157 157/70/146
f 159/73/152 165/82/160 164/80/159 158/69/150
f 160/75/154 166/83/161 165/82/160 159/73/152
f 161/77/156 167/84/162 166/83/161 160/75/154
f 162/66/147 168/79/158 167/84/162 161/77/156
f 163/78/157 169/85/163 174/86/164 168/79/158
f 164/80/159 170/87/165 169/88/163 163/81/157
f 165/82/160 171/89/166 170/87/165 164/80/159
f 166/83/161 172/90/167 171/89/166 165/82/160
f 167/84/162 173/91/168 172/90/167 166/83/161
f 168/79/158 174/86/164 173/91/168 167/84/162
f 169/85/163 175/92/169 180/93/170 174/86/164
f 170/87/165 176/94/171 175/95/169 169/88/163
f 171/89/166 177/96/172 176/94/171 170/87/165
f 172/90/167 178/97/173 177/96/172 171/89/166
f 173/91/168 179/98/174 178/97/173 172/90/167
f 174/86/164 180/93/170 179/98/174 173/91/168
f 175/92/169 181/99/175 186/100/176 180/93/170
f 176/94/171 182/101/177 181/102/175 175/95/169
f 177/96/172 183/103/178 182/101/177 176/94/171
f 178/97/173 184/104/179 183/103/178 177/96/172
f 179/98/174 185/105/180 184/104/179 178/97/173
f 180/93/170 186/100/176 185/105/180 179/98/174
f 181/99/175 187/106/181 192/107/182 186/100/176
f 182/101/177 188/108/183 187/109/181 181/102/175
f 183/103/178 189/110/184 188/108/183 182/101/177
f 184/104/179 190/111/185 189/110/184 183/103/178
f 185/105/180 191/112/186 190/111/185 184/104/179
f 186/100/176 192/107/182 191/112/186 185/105/180
f 187/106/181 193/113/187 198/114/188 192/107/182
f 188/108/183 194/115/189 193/116/187 187/109/181
f 189/110/184 195/117/190 194/115/189 188/108/183
f 190/111/185 196/118/191 195/117/190 189/110/184
f 191/112/186 197/119/192 196/118/191 190/111/185
f 192/107/182 198/114/188 197/119/192 191/112/186
f 193/113/187 199/120/193 204/121/194 198/114/188
f 194/115/189 200/122/195 199/123/193 193/116/187
f 195/117/190 201/124/196 200/122/195 194/115/189
f 196/118/191 202/125/197 201/124/196 195/117/190
f 197/119/192 203/126/198 202/125/197 196/118/191
f 198/114/188 204/121/194 203/126/198 197/119/192
f 199/120/193 205/127/199 210/128/200 204/121/194
f 200/122/195 206/129/201 205/130/199 199/123/193
f 201/124/196 207/131/202 206/129/201 200/122/195
f 202/125/197 208/132/203 207/131/202 201/124/196
f 203/126/198 209/133/204 208/132/203 202/125/197
f 204/121/194 210/128/200 209/133/204 203/126/198
f 205/127/199 211/134/205 216/135/206 210/128/200
f 206/129/201 212/136/207 211/137/205 205/130/199
f 207/131/202 213/138/208 212/136/207 206/129/201
f 208/132/203 214/139/209 213/138/208 207/131/202
f 209/133/204 215/140/210 214/139/209 208/132/203
f 210/128/200 216/135/206 215/140/210 209/133/204
f 217/64/211 223/65/212 228/66/213 222/67/214
f 218/68/215 224/69/216 223/70/212 217/71/211
f 219/72/217 225/73/218 224/69/216 218/68/215
f 220/74/219 226/75/220 225/73/218 219/72/217
f 221/76/221 227/77/222 226/75/220 220/74/219
f 222/67/214 228/66/213 227/77/222 221/76/221
f 223/65/212 229/78/223 234/79/224 228/66/213
f 224/69/216 230/80/225 229/81/223 223/70/212
f 225/73/218 231/82/226 230/80/225 224/69/216
f 226/75/220 232/83/227 231/82/226 225/73/218
f 227/77/222 233/84/228 232/83/227 226/75/220
f 228/66/213 234/79/224 233/84/228 227/77/222
f 229/78/223 235/85/229 240/86/230 234/79/224
f 230/80/225 236/87/231 235/88/229 229/81/223
f 231/82/226 237/89/232 236/87/231 230/80/225
f 232/83/227 238/90/233 237/89/232 231/82/226
f 233/84/228 239/91/234 238/90/233 232/83/227
f 234/79/224 240/86/230 239/91/234 233/84/228
f 235/85/229 241/92/235 246/93/236 240/86/230
f 236/87/231 242/94/237 241/95/235 235/88/229
f 237/89/232 243/96/238 242/94/237 236/87/231
f 238/90/233 244/97/239 243/96/238 237/89/232
f 239/91/234 245/98/240 244/97/239 238/90/233
f 240/86/230 246/93/236 245/98/240 239/91/234
f 241/92/235 247/99/241 252/100/242 246/93/236
f 242/94/237 248/101/243 247/102/241 241/95/235
f 243/96/238 249/103/244 248/101/243 242/94/237
f 244/97/239 250/104/245 249/103/244 243/96/238
f 245/98/240 251/105/246 250/104/245 244/97/239
f 246/93/236 252/100/242 251/105/246 245/98/240
f 247/99/241 253/106/247 258/107/248 252/100/242
f 248/101/243 254/108/249 253/109/247 247/102/241
f 249/103/244 255/110/250 254/108/249 248/101/243
f 250/104/245 256/111/251 255/110/250 249/103/244
f 251/105/246 257/112/252 256/111/251 250/104/245
f 252/100/242 258/107/248 257/112/252 251/105/246
f 253/106/247 259/113/253 264/114/254 258/107/248
f 254/108/249 260/115/255 259/116/253 253/109/247
f 255/110/250 261/117/256 260/115/255 254/108/249
f 256/111/251 262/118/257 261/117/256 255/110/250
f 257/112/252 263/119/258 262/118/257 256/111/251
f 258/107/248 264/114/254 263/119/258 257/112/252
f 259/113/253 265/120/259 270/121/260 264/114/254
f 260/115/255 266/122/261 265/123/259 259/116/253
f 261/117/256 267/124/262 266/122/261 260/115/255
f 262/118/257 268/125/263 267/124/262 261/117/256
f 263/119/258 269/126/264 268/125/263 262/118/257
f 264/114/254 270/121/260 269/126/264 263/119/258
f 265/120/259 271/127/265 276/128/266 270/121/260
f 266/122/261 272/129/267 271/130/265 265/123/259
f 267/124/262 273/131/268 272/129/267 266/122/261
f 268/125/263 274/132/269 273/131/268 267/124/262
f 269/126/264 275/133/270 274/132/269 268/125/263
f 270/121/260 276/128/266 275/133/270 269/126/264
f 271/127/265 277/134/271 282/135/272 276/128/266
f 272/129/267 278/136/273 277/137/271 271/130/265
f 273/131/268 279/138/274 278/136/273 272/129/267
f 274/132/269 280/139/275 279/138/274 273/131/268
f 275/133/270 281/140/276 280/139/275 274/132/269
f 276/128/266 282/135/272 281/140/276 275/133/270
f 283/64/277 289/65/278 294/66/279 288/67/280
f 284/68/281 290/69/282 289/70/278 283/71/277
f 285/72/283 291/73/284 290/69/282 284/68/281
f 286/74/285 292/75/286 291/73/284 285/72/283
f 287/76/287 293/77/288 292/75/286 286/74/285
f 288/67/280 294/66/279 293/77/288 287/76/287
f 289/65/278 295/78/289 300/79/290 294/66/279
f 290/69/282 296/80/291 295/81/289 289/70/278
f 291/73/284 297/82/292 296/80/291 290/69/282
f 292/75/286 298/83/293 297/82/292 291/73/284
f 293/77/288 299/84/294 298/83/293 292/75/286
f 294/66/279 300/79/290 299/84/294 293/77/288
f 295/78/289 301/85/295 306/86/296 300/79/290
f 296/80/291 302/87/297 301/88/295 295/81/289
f 297/82/292 303/89/298 302/87/297 296/80/291
f 298/83/293 304/90/299 303/89/298 297/82/292
f 299/84/294 305/91/300 304/90/299 298/83/293
f 300/79/290 306/86/296 305/91/300 299/84/294
f 301/85/295 307/92/301 312/93/302 306/86/296
f 302/87/297 308/94/303 307/95/301 301/88/295
f 303/89/298 309/96/304 308/94/303 302/87/297
f 304/90/299 310/97/305 309/96/304 303/89/298
f 305/91/300 311/98/306 310/97/305 304/90/299
f 306/86/296 312/93/302 311/98/306 305/91/300
f 307/92/301 313/99/307 318/100/308 312/93/302
f 308/94/303 314/101/309 313/102/307 307/95/301
f 309/96/304 315/103/310 314/101/309 308/94/303
f 310/97/305 316/104/311 315/103/310 309/96/304
f 311/98/306 317/105/312 316/104/311 310/97/305
f 312/93/302 318/100/308 317/105/312 311/98/306
f 313/99/307 319/106/313 324/107/314 318/100/308
f 314/101/309 320/108/315 319/109/313 313/102/307
f 315/103/310 321/110/316 320/108/315 314/101/309
f 316/104/311 322/111/317 321/110/316 315/103/310
f 317/105/312 323/112/318 322/111/317 316/104/311
f 318/100/308 324/107/314 323/112/318 317/105/312
f 319/106/313 325/113/319 330/114/320 324/107/314
f 320/108/315 326/115/321 325/116/319 319/109/313
f 321/110/316 327/117/322 326/115/321 320/108/315
f 322/111/317 328/118/323 327/117/322 321/110/316
f 323/112/318 329/119/324 328/118/323 322/111/317
f 324/107/314 330/114/320 329/119/324 323/112/318
f 325/113/319 331/120/325 336/121/326 330/114/320
f 326/115/321 332/122/327 331/123/325 325/116/319
f 327/117/322 333/124/328 332/122/327 326/115/321
f 328/118/323 334/125/329 333/124/328 327/117/322
f 329/119/324 335/126/330 334/125/329 328/118/323
f 330/114/320 336/121/326 335/126/330 329/119/324
f 331/120/325 337/127/331 342/128/332 336/121/326
f 332/122/327 338/129/333 337/130/331 331/123/325
f 333/124/328 339/131/334 338/129/333 332/122/327
f 334/125/329 340/132/335 339/131/334 333/124/328
f 335/126/330 341/133/336 340/132/335 334/125/329
f 336/121/326 342/128/332 341/133/336 335/126/330
f 337/127/331 343/134/337 348/135/338 342/128/332
f 338/129/333 344/136/339 343/137/337 337/130/331
f 339/131/334 345/138/340 344/136/339 338/129/333
f 340/132/335 346/139/341 345/138/340 339/131/334
f 341/133/336 347/140/342 346/139/341 340/132/335
f 342/128/332 348/135/338 347/140/342 341/133/336
f 349/64/343 355/65/344 360/66/345 354/67/346
f 350/68/347 356/69/348 355/70/344 349/71/343
f 351/72/349 357/73/350 356/69/348 350/68/347
f 352/74/351 358/75/352 357/73/350 351/72/349
f 353/76/353 359/77/354 358/75/352 352/74/351
f 354/67/346 360/66/345 359/77/354 353/76/353
f 355/65/344 361/78/355 366/79/356 360/66/345
f 356/69/348 362/80/357 361/81/355 355/70/344
f 357/73/350 363/82/358 362/80/357 356/69/348
f 358/75/352 364/83/359 363/82/358 357/73/350
f 359/77/354 365/84/360 364/83/359 358/75/352
f 360/66/345 366/79/356 365/84/360 359/77/354
f 361/78/355 367/85/361 372/86/362 366/79/356
f 362/80/357 368/87/363 367/88/361 361/81/355
f 363/82/358 369/89/364 368/87/363 362/80/357
f 364/83/359 370/90/365 369/89/364 363/82/358
f 365/84/360 371/91/366 370/90/365 364/83/359
f 366/79/356 372/86/362 371/91/366 365/84/360
f 367/85/361 373/92/367 378/93/368 372/86/362
f 368/87/363 374/94/369 373/95/367 367/88/361
f 369/89/364 375/96/370 374/94/369 368/87/363
f 370/90/365 376/97/371 375/96/370 369/89/364
f 371/91/366 377/98/372 376/97/371 370/90/365
f 372/86/362 378/93/368 377/98/372 371/91/366
f 373/92/367 379/99/373 384/100/374 378/93/368
f 374/94/369 380/101/375 379/102/373 373/95/367
f 375/96/370 381/103/376 380/101/375 374/94/369
f 376/97/371 382/104/377 381/103/376 375/96/370
f 377/98/372 383/105/378 382/104/377 376/97/371
f 378/93/368 384/100/374 383/105/378 377/98/372
f 379/99/373 385/106/379 390/107/380 384/100/374
f 380/101/375 386/108/381 385/109/379 379/102/373
f 381/103/376 387/110/382 386/108/381 380/101/375
f 382/104/377 388/111/383 387/110/382 381/103/376
f 383/105/378 389/112/384 388/111/383 382/104/377
f 384/100/374 390/107/380 389/112/384 383/105/378
f 385/106/379 391/113/385 396/114/386 390/107/380
f 386/108/381 392/115/387 391/116/385 385/109/379
f 387/110/382 393/117/388 392/115/387 386/108/381
f 388/111/383 394/118/389 393/117/388 387/110/382
f 389/112/384 395/119/390 394/118/389 388/111/383
f 390/107/380 396/114/386 395/119/390 389/112/384
f 391/113/385 397/120/391 402/121/392 396/114/386
f 392/115/387 398/122/393 397/123/391 391/116/385
f 393/117/388 399/124/394 398/122/393 392/115/387
f 394/118/389 400/125/395 399/124/394 393/117/388
f 395/119/390 401/126/396 400/125/395 394/118/389
f 396/114/386 402/121/392 401/126/396 395/119/390
f 397/120/391 403/127/397 408/128/398 402/121/392
f 398/122/393 404/129/399 403/130/397 397/123/391
f 399/124/394 405/131/400 404/129/399 398/122/393
f 400/125/395 406/132/401 405/131/400 399/124/394
f 401/126/396 407/133/402 406/132/401 400/125/395
f 402/121/392 408/128/398 407/133/402 401/126/396
f 403/127/397 409/134/403 414/135/404 408/128/398
f 404/129/399 410/136/405 409/137/403 403/130/397
f 405/131/400 411/138/406 410/136/405 404/129/399
f 406/132/401 412/139/407 411/138/406 405/131/400
f 407/133/402 413/140/408 412/139/407 406/132/401
f 408/128/398 414/135/404 413/140/408 407/133/402
f 422/64/419 428/65/420 433/66/421 427/67/422
f 423/68/423 429/69/424 428/70/420 422/71/419
f 424/72/425 430/73/426 429/69/424 423/68/423
f 425/74/427 431/75/428 430/73/426 424/72/425
f 426/76/429 432/77/430 431/75/428 425/74/427
f 427/67/422 433/66/421 432/77/430 426/76/429
f 428/65/420 434/78/431 439/79/432 433/66/421
f 429/69/424 435/80/433 434/81/431 428/70/420
f 430/73/426 436/82/434 435/80/433 429/69/424
f 431/75/428 437/83/435 436/82/434 430/73/426
f 432/77/430 438/84/436 437/83/435 431/75/428
f 433/66/421 439/79/432 438/84/436 432/77/430
f 434/78/431 440/85/437 445/86/438 439/79/432
f 435/80/433 441/87/439 440/88/437 434/81/431
f 436/82/434 442/89/440 441/87/439 435/80/433
f 437/83/435 443/90/441 442/89/440 436/82/434
f 438/84/436 444/91/442 443/90/441 437/83/435
f 439/79/432 445/86/438 444/91/442 438/84/436
f 440/85/437 446/92/443 451/93/444 445/86/438
f 441/87/439 447/94/445 446/95/443 440/88/437
f 442/89/440 448/96/446 447/94/445 441/87/439
f 443/90/441 449/97/447 448/96/446 442/89/440
f 444/91/442 450/98/448 449/97/447 443/90/441
f 445/86/438 451/93/444 450/98/448 444/91/442
f 446/92/443 452/99/449 457/100/450 451/93/444
f 447/94/445 453/101/451 452/102/449 446/95/443
f 448/96/446 454/103/452 453/101/451 447/94/445
f 449/97/447 455/104/453 454/103/452 448/96/446
f 450/98/448 456/105/454 455/104/453 449/97/447
f 451/93/444 457/100/450 456/105/454 450/98/448
f 452/99/449 458/106/455 463/107/456 457/100/450
f 453/101/451 459/108/457 458/109/455 452/102/449
f 454/103/452 460/110/458 459/108/457 453/101/451
f 455/104/453 461/111/459 460/110/458 454/103/452
f 456/105/454 462/112/460 461/111/459 455/104/453
f 457/100/450 463/107/456 462/112/460 456/105/454
f 458/106/455 464/113/461 469/114/462 463/107/456
f 459/108/457 465/115/463 464/116/461 458/109/455
f 460/110/458 466/117/464 465/115/463 459/108/457
f 461/111/459 467/118/465 466/117/464 460/110/458
f 462/112/460 468/119/466 467/118/465 461/111/459
f 463/107/456 469/114/462 468/119/466 462/112/460
f 464/113/461 470/120/467 475/121/468 469/114/462
f 465/115/463 471/122/469 470/123/467 464/116/461
f 466/117/464 472/124/470 471/122/469 465/115/463
f 467/118/465 473/125/471 472/124/470 466/117/464
f 468/119/466 474/126/472 473/125/471 467/118/465
f 469/114/462 475/121/468 474/126/472 468/119/466
f 470/120/467 476/127/473 481/128/474 475/121/468
f 471/122/469 477/129/475 476/130/473 470/123/467
f 472/124/470 478/131/476 477/129/475 471/122/469
f 473/125/471 479/132/477 478/131/476 472/124/470
f 474/126/472 480/133/478 479/132/477 473/125/471
f 475/121/468 481/128/474 480/133/478 474/126/472
f 476/127/473 482/134/479 487/135/480 481/128/474
f 477/129/475 483/136/481 482/137/479 476/130/473
f 478/131/476 484/138/482 483/136/481 477/129/475
f 479/132/477 485/139/483 484/138/482 478/131/476
f 480/133/478 486/140/484 485/139/483 479/132/477
f 481/128/474 487/135/480 486/140/484 480/133/478
f 495/64/495 501/65/496 506/66/497 500/67/498
f 496/68/499 502/69/500 501/70/496 495/71/495
f 497/72/501 503/73/502 502/69/500 496/68/499
f 498/74/503 504/75/504 503/73/502 497/72/501
f 499/76/505 505/77/506 504/75/504 498/74/503
f 500/67/498 506/66/497 505/77/506 499/76/505
f 501/65/496 507/78/507 512/79/508 506/66/497
f 502/69/500 508/80/509 507/81/507 501/70/496
f 503/73/502 509/82/510 508/80/509 502/69/500
f 504/75/504 510/83/511 509/82/510 503/73/502
f 505/77/506 511/84/512 510/83/511 504/75/504
f 506/66/497 512/79/508 511/84/512 505/77/506
f 507/78/507 513/85/513 518/86/514 512/79/508
f 508/80/509 514/87/515 513/88/513 507/81/507
f 509/82/510 515/89/516 514/87/515 508/80/509
f 510/83/511 516/90/517 515/89/516 509/82/510
f 511/84/512 517/91/518 516/90/517 510/83/511
f 512/79/508 518/86/514 517/91/518 511/84/512
f 513/85/513 519/92/519 524/93/520 518/86/514
f 514/87/515 520/94/521 519/95/519 513/88/513
f 515/89/516 521/96/522 520/94/521 514/87/515
f 516/90/517 522/97/523 521/96/522 515/89/516
f 517/91/518 523/98/524 522/97/523 516/90/517
f 518/86/514 524/93/520 523/98/524 517/91/518
f 519/92/519 525/99/525 530/100/526 524/93/520
f 520/94/521 526/101/527 525/102/525 519/95/519
f 521/96/522 527/103/528 526/101/527 520/94/521
f 522/97/523 528/104/529 527/103/528 521/96/522
f 523/98/524 529/105/530 528/104/529 522/97/523
f 524/93/520 530/100/526 529/105/530 523/98/524
f 525/99/525 531/106/531 536/107/532 530/100/526
f 526/101/527 532/108/533 531/109/531 525/102/525
f 527/103/528 533/110/534 532/108/533 526/101/527
f 528/104/529 534/111/535 533/110/534 527/103/528
f 529/105/530 535/112/536 534/111/535 528/104/529
f 530/100/526 536/107/532 535/112/536 529/105/530
f 531/106/531 537/113/537 542/114/538 536/107/532
f 532/108/533 538/115/539 537/116/537 531/109/531
f 533/110/534 539/117/540 538/115/539 532/108/533
f 534/111/535 540/118/541 539/117/540 533/110/534
f 535/112/536 541/119/542 540/118/541 534/111/535
f 536/107/532 542/114/538 541/119/542 535/112/536
f 537/113/537 543/120/543 548/121/544 542/114/538
f 538/115/539 544/122/545 543/123/543 537/116/537
f 539/117/540 545/124/546 544/122/545 538/115/539
f 540/118/541 546/125/547 545/124/546 539/117/540
f 541/119/542 547/126/548 546/125/547 540/118/541
f 542/114/538 548/121/544 547/126/548 541/119/542
f 543/120/543 549/127/549 554/128/550 548/121/544
f 544/122/545 550/129/551 549/130/549 543/123/543
f 545/124/546 551/131/552 550/129/551 544/122/545
f 546/125/547 552/132/553 551/131/552 545/124/546
f 547/126/548 553/133/554 552/132/553 546/125/547
f 548/121/544 554/128/550 553/133/554 547/126/548
f 549/127/549 555/134/555 560/135/556 554/128/550
f 550/129/551 556/136/557 555/137/555 549/130/549
f 551/131/552 557/138/558 556/136/557 550/129/551
f 552/132/553 558/139/559 557/138/558 551/131/552
f 553/133/554 559/140/560 558/139/559 552/132/553
f 554/128/550 560/135/556 559/140/560 553/133/554
usemtl AnomalyCore
f 43/1/43 56/2/44 55/3/45
f 44/4/46 56/5/44 58/6/5
f 43/7/43 55/8/45 60/9/6
f 43/10/43 60/11/6 62/12/47
f 43/13/43 62/14/47 59/15/48
f 44/4/46 58/6/5 65/16/49
f 45/17/50 57/18/51 67/19/12
f 46/20/52 61/21/53 69/22/54
f 47/23/55 63/24/56 71/25/57
f 48/26/58 64/27/59 73/28/60
f 44/4/46 65/16/49 68/29/61
f 45/17/50 67/19/12 70/30/62
f 46/20/52 69/22/54 72/31/63
f 47/23/55 71/25/57 74/32/25
f 48/26/58 73/28/60 66/33/64
f 49/34/65 75/35/66 80/36/67
f 50/37/68 76/38/69 82/39/70
f 51/40/71 77/41/34 83/42/72
f 52/43/73 78/44/74 84/45/75
f 53/46/76 79/47/77 81/48/41
f 81/48/41 84/49/75 54/50/78
f 81/48/41 79/47/77 84/49/75
f 79/47/77 52/43/73 84/49/75
f 84/45/75 83/51/72 54/52/78
f 84/45/75 78/44/74 83/51/72
f 78/44/74 51/40/71 83/51/72
f 83/42/72 82/53/70 54/54/78
f 83/42/72 77/41/34 82/53/70
f 77/41/34 50/55/68 82/53/70
f 82/39/70 80/56/67 54/57/78
f 82/39/70 76/38/69 80/56/67
f 76/38/69 49/34/65 80/56/67
f 80/36/67 81/58/41 54/59/78
f 80/36/67 75/35/66 81/58/41
f 75/35/66 53/46/76 81/58/41
f 66/33/64 79/47/77 53/46/76
f 66/33/64 73/28/60 79/47/77
f 73/28/60 52/43/73 79/47/77
f 74/32/25 78/44/74 52/43/73
f 74/32/25 71/25/57 78/44/74
f 71/25/57 51/40/71 78/44/74
f 72/31/63 77/41/34 51/40/71
f 72/31/63 69/22/54 77/41/34
f 69/22/54 50/55/68 77/41/34
f 70/30/62 76/38/69 50/37/68
f 70/30/62 67/19/12 76/38/69
f 67/19/12 49/34/65 76/38/69
f 68/29/61 75/35/66 49/34/65
f 68/29/61 65/16/49 75/35/66
f 65/16/49 53/46/76 75/35/66
f 73/28/60 74/32/25 52/43/73
f 73/28/60 64/27/59 74/32/25
f 64/27/59 47/23/55 74/32/25
f 71/25/57 72/31/63 51/40/71
f 71/25/57 63/24/56 72/31/63
f 63/24/56 46/20/52 72/31/63
f 69/22/54 70/60/62 50/55/68
f 69/22/54 61/21/53 70/60/62
f 61/21/53 45/61/50 70/60/62
f 67/19/12 68/29/61 49/34/65
f 67/19/12 57/18/51 68/29/61
f 57/18/51 44/4/46 68/29/61
f 65/16/49 66/33/64 53/46/76
f 65/16/49 58/6/5 66/33/64
f 58/6/5 48/26/58 66/33/64
f 59/15/48 64/27/59 48/26/58
f 59/15/48 62/14/47 64/27/59
f 62/14/47 47/23/55 64/27/59
f 62/12/47 63/24/56 47/23/55
f 62/12/47 60/11/6 63/24/56
f 60/11/6 46/20/52 63/24/56
f 60/9/6 61/21/53 46/20/52
f 60/9/6 55/8/45 61/21/53
f 55/8/45 45/61/50 61/21/53
f 58/6/5 59/62/48 48/26/58
f 58/6/5 56/5/44 59/62/48
f 56/5/44 43/63/43 59/62/48
f 55/3/45 57/18/51 45/17/50
f 55/3/45 56/2/44 57/18/51
f 56/2/44 44/4/46 57/18/51
s 0
usemtl GlacierIce
f 415/71/409 417/71/409 416/71/409
f 416/71/410 417/71/410 421/71/410
f 415/71/411 418/71/411 417/71/411
f 417/71/412 418/71/412 421/71/412
f 415/71/413 419/71/413 418/71/413
f 418/71/414 419/71/414 421/71/414
f 415/71/415 420/71/415 419/71/415
f 419/71/416 420/71/416 421/71/416
f 415/71/417 416/71/417 420/71/417
f 420/71/418 416/71/418 421/71/418
f 488/71/485 490/71/485 489/71/485
f 489/71/486 490/71/486 494/71/486
f 488/71/487 491/71/487 490/71/487
f 490/71/488 491/71/488 494/71/488
f 488/71/489 492/71/489 491/71/489
f 491/71/490 492/71/490 494/71/490
f 488/71/491 493/71/491 492/71/491
f 492/71/492 493/71/492 494/71/492
f 488/71/493 489/71/493 493/71/493
f 493/71/494 489/71/494 494/71/494
f 561/71/561 563/71/561 562/71/561
f 562/71/562 563/71/562 567/71/562
f 561/71/563 564/71/563 563/71/563
f 563/71/564 564/71/564 567/71/564
f 561/71/565 565/71/565 564/71/565
f 564/71/566 565/71/566 567/71/566
f 561/71/567 566/71/567 565/71/567
f 565/71/568 566/71/568 567/71/568
f 561/71/569 562/71/569 566/71/569
f 566/71/570 562/71/570 567/71/570
