# Blender 4.4.1
# www.blender.org
mtllib PaintShooterEnemy.mtl
o PaintShooterEnemy
v 0.000000 0.000000 -0.850000
v -0.615066 0.348556 -0.380137
v 0.234930 0.563980 -0.380137
v 0.760262 0.000000 -0.380133
v 0.234930 -0.563980 -0.380137
v -0.615066 -0.348556 -0.380137
v -0.234930 0.563980 0.380137
v 0.615066 0.348556 0.380137
v 0.615066 -0.348556 0.380137
v -0.234930 -0.563980 0.380137
v -0.760262 0.000000 0.380133
v 0.000000 0.000000 0.850000
v 0.138087 0.331497 -0.723056
v -0.361524 0.204875 -0.723056
v -0.223439 0.536375 -0.446877
v -0.723051 0.000000 -0.446876
v -0.361524 -0.204875 -0.723056
v 0.446870 0.000000 -0.723054
v 0.584961 0.331498 -0.446876
v 0.138087 -0.331497 -0.723056
v 0.584961 -0.331498 -0.446876
v -0.223439 -0.536375 -0.446877
v -0.808399 0.204875 0.000000
v -0.808399 -0.204875 0.000000
v 0.000000 0.663000 0.000000
v -0.499618 0.536378 0.000000
v 0.808399 0.204875 0.000000
v 0.499618 0.536378 0.000000
v 0.499618 -0.536378 0.000000
v 0.808399 -0.204875 0.000000
v -0.499618 -0.536378 0.000000
v 0.000000 -0.663000 0.000000
v -0.584961 0.331498 0.446876
v 0.223439 0.536375 0.446877
v 0.723051 0.000000 0.446876
v 0.223439 -0.536375 0.446877
v -0.584961 -0.331498 0.446876
v -0.138087 0.331497 0.723056
v -0.446870 0.000000 0.723054
v 0.361524 0.204875 0.723056
v 0.361524 -0.204875 0.723056
v -0.138087 -0.331497 0.723056
v 0.000000 0.595000 -0.340000
v -0.276780 0.796090 -0.128561
v 0.105718 0.920373 -0.128562
v 0.342118 0.595000 -0.128560
v 0.105718 0.269627 -0.128562
v -0.276780 0.393910 -0.128561
v -0.105718 0.920373 0.213562
v 0.276780 0.796090 0.213561
v 0.276780 0.393910 0.213561
v -0.105718 0.269627 0.213562
v -0.342118 0.595000 0.213560
v 0.000000 0.595000 0.425000
v 0.062139 0.786248 -0.282875
v -0.162686 0.713197 -0.282875
v -0.100547 0.904447 -0.158595
v -0.325373 0.595000 -0.158594
v -0.162686 0.476803 -0.282875
v 0.201092 0.595000 -0.282874
v 0.263232 0.786249 -0.158594
v 0.062139 0.403752 -0.282875
v 0.263232 0.403751 -0.158594
v -0.100547 0.285553 -0.158595
v -0.363780 0.713197 0.042500
v -0.363780 0.476803 0.042500
v 0.000000 0.977500 0.042500
v -0.224828 0.904449 0.042500
v 0.363780 0.713197 0.042500
v 0.224828 0.904449 0.042500
v 0.224828 0.285551 0.042500
v 0.363780 0.476803 0.042500
v -0.224828 0.285551 0.042500
v 0.000000 0.212500 0.042500
v -0.263232 0.786249 0.243594
v 0.100547 0.904447 0.243595
v 0.325373 0.595000 0.243594
v 0.100547 0.285553 0.243595
v -0.263232 0.403751 0.243594
v -0.062139 0.786248 0.367875
v -0.201092 0.595000 0.367874
v 0.162686 0.713197 0.367875
v 0.162686 0.476803 0.367875
v -0.062139 0.403752 0.367875
v -0.266461 0.735138 0.049106
v -0.304549 0.780850 0.049106
v -0.335588 0.793712 0.000000
v -0.328539 0.760862 -0.049106
v -0.290451 0.715150 -0.049106
v -0.259412 0.702288 0.000000
v -0.332269 0.684668 0.075230
v -0.367549 0.732566 0.074107
v -0.397030 0.746641 0.024377
v -0.391231 0.712817 -0.024229
v -0.355950 0.664919 -0.023106
v -0.326469 0.650844 0.026623
v -0.392279 0.643263 0.097876
v -0.426879 0.691648 0.096492
v -0.455983 0.705993 0.046618
v -0.450486 0.671953 -0.001872
v -0.415886 0.623568 -0.000488
v -0.386782 0.609223 0.049386
v -0.446979 0.603983 0.118910
v -0.484052 0.650520 0.118495
v -0.514527 0.663840 0.069159
v -0.507930 0.630622 0.020237
v -0.470858 0.584085 0.020652
v -0.440383 0.570765 0.069989
v -0.497908 0.559571 0.140490
v -0.539736 0.601856 0.142117
v -0.572850 0.612816 0.093913
v -0.564135 0.581492 0.044082
v -0.522307 0.539207 0.042455
v -0.489193 0.528247 0.090659
v -0.547223 0.502301 0.165016
v -0.594103 0.538707 0.169159
v -0.630019 0.546406 0.122351
v -0.619056 0.517699 0.071400
v -0.572176 0.481293 0.067258
v -0.536260 0.473594 0.114066
v -0.608482 0.405547 0.202003
v -0.659516 0.435406 0.208650
v -0.697738 0.439473 0.163231
v -0.684925 0.413680 0.111166
v -0.633890 0.383821 0.104519
v -0.595669 0.379755 0.149937
v -0.650406 0.312204 0.234220
v -0.704129 0.336267 0.242884
v -0.743841 0.337119 0.198585
v -0.729831 0.313907 0.145621
v -0.676109 0.289843 0.136957
v -0.636396 0.288991 0.181256
v -0.682989 0.216451 0.265166
v -0.737763 0.237608 0.274782
v -0.778059 0.236847 0.231011
v -0.763581 0.214928 0.177624
v -0.708807 0.193772 0.168007
v -0.668511 0.194533 0.211778
v -0.715954 0.113204 0.298097
v -0.770460 0.135155 0.307457
v -0.810607 0.134833 0.263544
v -0.796248 0.112562 0.210270
v -0.741743 0.090611 0.200910
v -0.701596 0.090933 0.244823
v -0.759029 -0.001525 0.335989
v -0.812256 0.023753 0.344245
v -0.851694 0.025278 0.299719
v -0.837905 0.001525 0.246937
v -0.784678 -0.023753 0.238681
v -0.745240 -0.025278 0.283208
v -0.066445 0.791501 0.314535
v -0.125641 0.785493 0.314535
v -0.151128 0.741992 0.282939
v -0.117420 0.704499 0.251343
v -0.058224 0.710507 0.251343
v -0.032737 0.754008 0.282939
v -0.062199 0.743910 0.381221
v -0.121432 0.738300 0.380672
v -0.146767 0.693133 0.351375
v -0.112869 0.653575 0.322628
v -0.053637 0.659185 0.323177
v -0.028302 0.704352 0.352474
v -0.059256 0.703147 0.444334
v -0.118496 0.697626 0.443652
v -0.143801 0.652087 0.414910
v -0.109868 0.612069 0.386850
v -0.050628 0.617590 0.387532
v -0.025323 0.663129 0.416274
v -0.055947 0.661433 0.506348
v -0.115158 0.655575 0.506148
v -0.140584 0.611445 0.475386
v -0.106799 0.573172 0.444824
v -0.047589 0.579030 0.445023
v -0.022162 0.623160 0.475785
v -0.050539 0.611419 0.568241
v -0.109664 0.604788 0.568980
v -0.135450 0.563899 0.534289
v -0.102112 0.529643 0.498858
v -0.042987 0.536275 0.498119
v -0.017201 0.577163 0.532810
v -0.041357 0.546407 0.630073
v -0.100331 0.538705 0.631828
v -0.126751 0.502298 0.592882
v -0.094197 0.473593 0.552182
v -0.035224 0.481295 0.550426
v -0.008804 0.517702 0.589372
v -0.023665 0.441030 0.705986
v -0.082438 0.432136 0.708602
v -0.109695 0.400720 0.666054
v -0.078179 0.378197 0.620891
v -0.019406 0.387091 0.618275
v 0.007851 0.418508 0.660823
v -0.004547 0.340054 0.760002
v -0.063122 0.330105 0.763197
v -0.091208 0.303106 0.718225
v -0.060720 0.286056 0.670059
v -0.002144 0.296005 0.666864
v 0.025942 0.323004 0.711836
v 0.015581 0.240472 0.802258
v -0.042889 0.229994 0.805688
v -0.071418 0.205212 0.759730
v -0.041477 0.190907 0.710341
v 0.016992 0.201385 0.706911
v 0.045521 0.226168 0.752870
v 0.036501 0.138271 0.843345
v -0.021998 0.127937 0.846714
v -0.050404 0.102549 0.801011
v -0.020312 0.087495 0.751939
v 0.038187 0.097829 0.748570
v 0.066593 0.123217 0.794273
v 0.058365 0.027924 0.893971
v -0.000253 0.018196 0.897056
v -0.028160 -0.009728 0.852540
v 0.002551 -0.027924 0.804938
v 0.061170 -0.018196 0.801852
v 0.089076 0.009728 0.846368
v 0.251668 0.777248 0.225503
v 0.214732 0.730601 0.225503
v 0.203746 0.701353 0.174866
v 0.229697 0.718752 0.124229
v 0.266633 0.765399 0.124229
v 0.277619 0.794647 0.174866
v 0.316198 0.729810 0.242021
v 0.281898 0.681196 0.242688
v 0.273351 0.650128 0.192668
v 0.299103 0.667675 0.141981
v 0.333403 0.716289 0.141314
v 0.341950 0.747357 0.191334
v 0.377082 0.689081 0.258711
v 0.343415 0.640029 0.259548
v 0.335454 0.608556 0.209685
v 0.361159 0.626135 0.158985
v 0.394826 0.675187 0.158149
v 0.402787 0.706660 0.208012
v 0.437262 0.647238 0.274774
v 0.401284 0.599848 0.275009
v 0.391185 0.569913 0.224589
v 0.417064 0.587367 0.173935
v 0.453042 0.634757 0.173700
v 0.463141 0.664692 0.224119
v 0.498149 0.596928 0.288837
v 0.457630 0.553364 0.288043
v 0.443331 0.526967 0.236672
v 0.469551 0.544134 0.186095
v 0.510070 0.587698 0.186888
v 0.524369 0.614095 0.238260
v 0.560180 0.531506 0.299277
v 0.514655 0.493230 0.297643
v 0.495726 0.471724 0.245494
v 0.522322 0.488494 0.194980
v 0.567847 0.526770 0.196614
v 0.586776 0.548276 0.248762
v 0.638183 0.425673 0.305937
v 0.588309 0.393286 0.303929
v 0.565359 0.377227 0.251435
v 0.592281 0.393555 0.200949
v 0.642154 0.425941 0.202957
v 0.665105 0.442000 0.255451
v 0.695697 0.324292 0.304443
v 0.642801 0.297119 0.302482
v 0.617054 0.285882 0.250031
v 0.644204 0.301818 0.199542
v 0.697100 0.328991 0.201503
v 0.722847 0.340228 0.253954
v 0.742202 0.224508 0.298348
v 0.688038 0.199950 0.296524
v 0.661118 0.191132 0.244200
v 0.688363 0.206871 0.193700
v 0.742527 0.231429 0.195524
v 0.769447 0.240248 0.247848
v 0.787718 0.122362 0.291152
v 0.733884 0.097090 0.289283
v 0.707270 0.087611 0.236918
v 0.734490 0.103404 0.186421
v 0.788324 0.128676 0.188290
v 0.814938 0.138155 0.240655
v 0.842504 0.012247 0.286012
v 0.790185 -0.016018 0.284015
v 0.764971 -0.028265 0.231532
v 0.792078 -0.012247 0.181045
v 0.844397 0.016018 0.183041
v 0.869611 0.028265 0.235525
v 0.284847 0.735917 -0.136870
v 0.235623 0.702493 -0.136870
v 0.191458 0.714576 -0.174866
v 0.196518 0.760083 -0.212862
v 0.245742 0.793507 -0.212862
v 0.289907 0.781424 -0.174866
v 0.321755 0.686772 -0.195134
v 0.273968 0.651396 -0.197417
v 0.229886 0.663367 -0.235544
v 0.233591 0.710713 -0.271389
v 0.281378 0.746089 -0.269106
v 0.325460 0.734118 -0.230978
v 0.356753 0.645662 -0.248358
v 0.309320 0.609852 -0.251186
v 0.265258 0.621798 -0.289345
v 0.268629 0.669554 -0.324676
v 0.316062 0.705364 -0.321848
v 0.360124 0.693418 -0.283688
v 0.389510 0.605262 -0.298883
v 0.340801 0.571101 -0.299715
v 0.296665 0.583141 -0.337760
v 0.301239 0.629343 -0.374971
v 0.349948 0.663504 -0.374139
v 0.394083 0.651464 -0.336095
v 0.419632 0.558272 -0.348972
v 0.368561 0.527906 -0.345835
v 0.324290 0.540165 -0.383651
v 0.331090 0.582790 -0.424603
v 0.382162 0.613157 -0.427740
v 0.426433 0.600897 -0.389924
v 0.446694 0.497439 -0.400835
v 0.393295 0.472318 -0.393233
v 0.348890 0.484879 -0.430792
v 0.357884 0.522561 -0.475952
v 0.411282 0.547682 -0.483553
v 0.455687 0.535121 -0.445995
v 0.475658 0.396716 -0.469473
v 0.420574 0.377437 -0.457884
v 0.376072 0.390335 -0.495213
v 0.386654 0.422511 -0.544131
v 0.441738 0.441790 -0.555720
v 0.486240 0.428893 -0.518391
v 0.491238 0.299860 -0.522127
v 0.435271 0.285752 -0.507672
v 0.390718 0.298947 -0.544836
v 0.402132 0.326250 -0.596455
v 0.458099 0.340358 -0.610910
v 0.502652 0.327163 -0.573746
v 0.499585 0.202345 -0.567156
v 0.443359 0.190831 -0.551462
v 0.398791 0.204176 -0.588555
v 0.410449 0.229034 -0.641341
v 0.466676 0.240548 -0.657035
v 0.511244 0.227204 -0.619942
v 0.506858 0.099579 -0.612952
v 0.450691 0.087357 -0.597585
v 0.406127 0.100661 -0.634696
v 0.417729 0.126187 -0.687175
v 0.473896 0.138409 -0.702543
v 0.518460 0.125105 -0.665432
v 0.519200 -0.013133 -0.667930
v 0.463377 -0.028324 -0.654030
v 0.418832 -0.015191 -0.691226
v 0.430111 0.013133 -0.742322
v 0.485934 0.028324 -0.756222
v 0.530479 0.015191 -0.719026
v -0.089209 0.705080 -0.241821
v -0.134696 0.743437 -0.241821
v -0.137419 0.786356 -0.282939
v -0.094656 0.790920 -0.324058
v -0.049169 0.752563 -0.324058
v -0.046446 0.709644 -0.282939
v -0.135242 0.653646 -0.297358
v -0.179571 0.693311 -0.295968
v -0.180368 0.738407 -0.334775
v -0.136837 0.743838 -0.374971
v -0.092508 0.704174 -0.376361
v -0.091710 0.659078 -0.337554
v -0.175526 0.612028 -0.347682
v -0.219580 0.651983 -0.345954
v -0.219922 0.697564 -0.384197
v -0.176208 0.703189 -0.424169
v -0.132153 0.663233 -0.425897
v -0.131812 0.617653 -0.387654
v -0.211692 0.573561 -0.392302
v -0.256755 0.612411 -0.391801
v -0.258773 0.656153 -0.432086
v -0.215728 0.661044 -0.472872
v -0.170666 0.622194 -0.473373
v -0.168647 0.578452 -0.433088
v -0.246450 0.531023 -0.432355
v -0.293554 0.567329 -0.434182
v -0.298968 0.606837 -0.478341
v -0.257278 0.610040 -0.520672
v -0.210174 0.573734 -0.518845
v -0.204760 0.534225 -0.474686
v -0.283274 0.476342 -0.469904
v -0.332743 0.509131 -0.474140
v -0.342092 0.542789 -0.522307
v -0.301971 0.543658 -0.566237
v -0.252503 0.510869 -0.562001
v -0.243154 0.477211 -0.513834
v -0.335766 0.382471 -0.515336
v -0.387427 0.411344 -0.521472
v -0.400424 0.438487 -0.572801
v -0.361760 0.436756 -0.617993
v -0.310098 0.407883 -0.611856
v -0.297101 0.380741 -0.560527
v -0.378150 0.291681 -0.544401
v -0.431457 0.317087 -0.551694
v -0.447190 0.338461 -0.604946
v -0.409617 0.334430 -0.650906
v -0.356311 0.309023 -0.643612
v -0.340577 0.287649 -0.590360
v -0.417109 0.197208 -0.565515
v -0.471151 0.220876 -0.573231
v -0.488109 0.239357 -0.627186
v -0.451024 0.234171 -0.673425
v -0.396982 0.210504 -0.665710
v -0.380024 0.192023 -0.611755
v -0.458758 0.093612 -0.586769
v -0.512605 0.117754 -0.594379
v -0.529238 0.137025 -0.648158
v -0.492024 0.132154 -0.694328
v -0.438177 0.108012 -0.686718
v -0.421544 0.088741 -0.632938
v -0.508744 -0.022583 -0.616410
v -0.561726 0.003550 -0.623498
v -0.576920 0.026132 -0.676407
v -0.539132 0.022583 -0.722230
v -0.486149 -0.003550 -0.715142
v -0.470955 -0.026132 -0.662233
v 0.000000 -0.280000 -0.900000
v -0.723607 0.193153 -0.347220
v 0.276388 0.485584 -0.347220
v 0.894426 -0.280000 -0.347216
v 0.276388 -1.045584 -0.347220
v -0.723607 -0.753153 -0.347220
v -0.276388 0.485584 0.547220
v 0.723607 0.193153 0.547220
v 0.723607 -0.753153 0.547220
v -0.276388 -1.045584 0.547220
v -0.894426 -0.280000 0.547216
v 0.000000 -0.280000 1.100000
v 0.162456 0.169996 -0.750655
v -0.425323 -0.001890 -0.750654
v -0.262869 0.448111 -0.425738
v -0.850648 -0.280000 -0.425736
v -0.425323 -0.558110 -0.750654
v 0.525730 -0.280000 -0.750652
v 0.688189 0.169997 -0.425736
v 0.162456 -0.729996 -0.750655
v 0.688189 -0.729997 -0.425736
v -0.262869 -1.008111 -0.425738
v -0.951058 -0.001889 0.100000
v -0.951058 -0.558111 0.100000
v 0.000000 0.620000 0.100000
v -0.587786 0.448115 0.100000
v 0.951058 -0.001889 0.100000
v 0.587786 0.448115 0.100000
v 0.587786 -1.008115 0.100000
v 0.951058 -0.558111 0.100000
v -0.587786 -1.008115 0.100000
v 0.000000 -1.180000 0.100000
v -0.688189 0.169997 0.625736
v 0.262869 0.448111 0.625738
v 0.850648 -0.280000 0.625736
v 0.262869 -1.008111 0.625738
v -0.688189 -0.729997 0.625736
v -0.162456 0.169996 0.950654
v -0.525730 -0.280000 0.950652
v 0.425323 -0.001890 0.950654
v 0.425323 -0.558110 0.950654
v -0.162456 -0.729996 0.950654
v -0.618294 -0.067318 0.000000
v -1.088556 0.175391 0.000000
v -0.985907 -0.081234 -0.190211
v -0.819816 -0.496461 -0.117557
v -0.819816 -0.496461 0.117557
v -0.985907 -0.081234 0.190211
v -1.450000 -0.400000 0.000000
v 0.309147 -0.067318 0.535458
v 0.220122 -0.508348 0.814064
v 0.512214 -0.388065 0.700980
v 0.745968 -0.002355 0.744175
v 0.598343 0.115744 0.883953
v 0.273353 -0.196976 0.927148
v 0.725000 -0.400000 1.255737
v 0.309147 -0.067318 -0.535458
v 0.220122 -0.508348 -0.814064
v 0.273353 -0.196976 -0.927148
v 0.598343 0.115744 -0.883953
v 0.745968 -0.002355 -0.744175
v 0.512214 -0.388065 -0.700980
v 0.725000 -0.400000 -1.255737
v -0.430000 1.000000 0.000000
v -0.365000 1.112583 0.000000
v -0.235000 1.112583 0.000000
v -0.170000 1.000000 0.000000
v -0.235000 0.887417 -0.000000
v -0.365000 0.887417 -0.000000
v -0.397268 1.000000 0.164554
v -0.337216 1.112583 0.139679
v -0.217112 1.112583 0.089931
v -0.157060 1.000000 0.065056
v -0.217112 0.887417 0.089931
v -0.337216 0.887417 0.139679
v -0.304056 1.000000 0.304056
v -0.258094 1.112583 0.258094
v -0.166170 1.112583 0.166170
v -0.120208 1.000000 0.120208
v -0.166170 0.887417 0.166170
v -0.258094 0.887417 0.258094
v -0.164554 1.000000 0.397268
v -0.139680 1.112583 0.337216
v -0.089931 1.112583 0.217112
v -0.065056 1.000000 0.157060
v -0.089931 0.887417 0.217112
v -0.139680 0.887417 0.337216
v -0.000000 1.000000 0.430000
v -0.000000 1.112583 0.365000
v -0.000000 1.112583 0.235000
v -0.000000 1.000000 0.170000
v -0.000000 0.887417 0.235000
v -0.000000 0.887417 0.365000
v 0.164554 1.000000 0.397268
v 0.139679 1.112583 0.337216
v 0.089931 1.112583 0.217112
v 0.065056 1.000000 0.157060
v 0.089931 0.887417 0.217112
v 0.139679 0.887417 0.337216
v 0.304056 1.000000 0.304056
v 0.258094 1.112583 0.258094
v 0.166170 1.112583 0.166170
v 0.120208 1.000000 0.120208
v 0.166170 0.887417 0.166170
v 0.258094 0.887417 0.258094
v 0.397268 1.000000 0.164554
v 0.337216 1.112583 0.139679
v 0.217112 1.112583 0.089931
v 0.157060 1.000000 0.065056
v 0.217112 0.887417 0.089931
v 0.337216 0.887417 0.139679
v 0.430000 1.000000 0.000000
v 0.365000 1.112583 0.000000
v 0.235000 1.112583 0.000000
v 0.170000 1.000000 0.000000
v 0.235000 0.887417 0.000000
v 0.365000 0.887417 0.000000
v 0.397268 1.000000 -0.164554
v 0.337216 1.112583 -0.139679
v 0.217112 1.112583 -0.089931
v 0.157060 1.000000 -0.065056
v 0.217112 0.887417 -0.089931
v 0.337216 0.887417 -0.139679
v 0.304056 1.000000 -0.304056
v 0.258094 1.112583 -0.258094
v 0.166170 1.112583 -0.166170
v 0.120208 1.000000 -0.120208
v 0.166170 0.887417 -0.166170
v 0.258094 0.887417 -0.258094
v 0.164554 1.000000 -0.397268
v 0.139679 1.112583 -0.337216
v 0.089931 1.112583 -0.217112
v 0.065056 1.000000 -0.157060
v 0.089931 0.887417 -0.217112
v 0.139679 0.887417 -0.337216
v -0.000000 1.000000 -0.430000
v -0.000000 1.112583 -0.365000
v -0.000000 1.112583 -0.235000
v -0.000000 1.000000 -0.170000
v -0.000000 0.887417 -0.235000
v -0.000000 0.887417 -0.365000
v -0.164554 1.000000 -0.397268
v -0.139680 1.112583 -0.337216
v -0.089931 1.112583 -0.217112
v -0.065056 1.000000 -0.157060
v -0.089931 0.887417 -0.217112
v -0.139680 0.887417 -0.337216
v -0.304056 1.000000 -0.304056
v -0.258094 1.112583 -0.258094
v -0.166170 1.112583 -0.166170
v -0.120208 1.000000 -0.120208
v -0.166170 0.887417 -0.166170
v -0.258094 0.887417 -0.258094
v -0.397268 1.000000 -0.164554
v -0.337216 1.112583 -0.139680
v -0.217112 1.112583 -0.089931
v -0.157060 1.000000 -0.065056
v -0.217112 0.887417 -0.089931
v -0.337216 0.887417 -0.139680
v 0.000000 0.970000 -0.220000
v -0.159194 0.985772 -0.098388
v 0.060805 0.995519 -0.098388
v 0.196774 0.970000 -0.098387
v 0.060805 0.944481 -0.098388
v -0.159194 0.954228 -0.098388
v -0.060805 0.995519 0.098388
v 0.159194 0.985772 0.098388
v 0.159194 0.954228 0.098388
v -0.060805 0.944481 0.098388
v -0.196774 0.970000 0.098387
v 0.000000 0.970000 0.220000
v 0.035740 0.985000 -0.187144
v -0.093571 0.979270 -0.187144
v -0.057831 0.994270 -0.115662
v -0.187143 0.970000 -0.115662
v -0.093571 0.960730 -0.187144
v 0.115661 0.970000 -0.187143
v 0.151402 0.985000 -0.115662
v 0.035740 0.955000 -0.187144
v 0.151402 0.955000 -0.115662
v -0.057831 0.945730 -0.115662
v -0.209233 0.979270 0.000000
v -0.209233 0.960730 0.000000
v 0.000000 1.000000 0.000000
v -0.129313 0.994271 0.000000
v 0.209233 0.979270 0.000000
v 0.129313 0.994271 0.000000
v 0.129313 0.945729 0.000000
v 0.209233 0.960730 0.000000
v -0.129313 0.945729 0.000000
v 0.000000 0.940000 0.000000
v -0.151402 0.985000 0.115662
v 0.057831 0.994270 0.115662
v 0.187143 0.970000 0.115662
v 0.057831 0.945730 0.115662
v -0.151402 0.955000 0.115662
v -0.035740 0.985000 0.187144
v -0.115661 0.970000 0.187143
v 0.093571 0.979270 0.187144
v 0.093571 0.960730 0.187144
v -0.035740 0.955000 0.187144
vn -0.0000 -0.0000 -1.0000
vn -0.4128 0.3845 -0.8257
vn 0.1508 0.5949 -0.7895
vn -0.6667 0.6210 -0.4121
vn -0.8506 -0.0000 -0.5257
vn 0.5257 -0.0000 -0.8507
vn 0.1508 -0.5949 -0.7895
vn -0.4128 -0.3845 -0.8257
vn -0.9231 0.3845 -0.0000
vn 0.2283 0.9008 -0.3694
vn -0.2205 0.8700 -0.4410
vn -0.0000 1.0000 -0.0000
vn 0.8944 -0.0000 -0.4472
vn 0.6387 0.5949 -0.4879
vn 0.9231 0.3845 -0.0000
vn 0.2283 -0.9008 -0.3694
vn 0.6387 -0.5949 -0.4879
vn 0.4930 -0.8700 -0.0000
vn -0.6667 -0.6210 -0.4121
vn -0.2205 -0.8700 -0.4410
vn -0.4930 -0.8700 -0.0000
vn -0.4930 0.8700 -0.0000
vn 0.4930 0.8700 -0.0000
vn 0.9231 -0.3845 -0.0000
vn -0.0000 -1.0000 -0.0000
vn -0.9231 -0.3845 -0.0000
vn -0.2283 0.9008 0.3694
vn -0.6387 0.5949 0.4879
vn -0.1508 0.5949 0.7895
vn 0.6667 0.6210 0.4121
vn 0.2205 0.8700 0.4410
vn 0.4128 0.3845 0.8257
vn 0.6667 -0.6210 0.4121
vn 0.8506 -0.0000 0.5257
vn 0.4128 -0.3845 0.8257
vn -0.2283 -0.9008 0.3694
vn 0.2205 -0.8700 0.4410
vn -0.1508 -0.5949 0.7895
vn -0.8944 -0.0000 0.4472
vn -0.6387 -0.5949 0.4879
vn -0.5257 -0.0000 0.8507
vn -0.0000 -0.0000 1.0000
vn -0.0009 -0.0000 -1.0000
vn -0.4221 0.3221 -0.8474
vn 0.1590 0.5160 -0.8417
vn -0.7145 0.5427 -0.4416
vn 0.1590 -0.5160 -0.8417
vn -0.4221 -0.3221 -0.8474
vn -0.9467 0.3221 0.0014
vn 0.2659 0.8627 -0.4302
vn -0.2553 0.8249 -0.5043
vn 0.8948 -0.0000 -0.4464
vn 0.6818 0.5160 -0.5186
vn 0.9467 0.3221 -0.0014
vn 0.2659 -0.8627 -0.4302
vn 0.6818 -0.5160 -0.5186
vn 0.5652 -0.8249 0.0028
vn -0.7145 -0.5427 -0.4416
vn -0.2553 -0.8249 -0.5043
vn -0.5652 -0.8249 -0.0028
vn -0.5652 0.8249 -0.0028
vn 0.5652 0.8249 0.0028
vn 0.9467 -0.3221 -0.0014
vn -0.9467 -0.3221 0.0014
vn -0.2659 0.8627 0.4302
vn -0.6818 0.5160 0.5186
vn -0.1590 0.5160 0.8417
vn 0.7145 0.5427 0.4416
vn 0.2553 0.8249 0.5043
vn 0.4221 0.3221 0.8474
vn 0.7145 -0.5427 0.4416
vn 0.4221 -0.3221 0.8474
vn -0.2659 -0.8627 0.4302
vn 0.2553 -0.8249 0.5043
vn -0.1590 -0.5160 0.8417
vn -0.8948 -0.0000 0.4464
vn -0.6818 -0.5160 0.5186
vn 0.0009 -0.0000 1.0000
vn 0.4867 -0.1937 0.8518
vn 0.5071 -0.2571 0.8226
vn 0.5872 -0.8095 0.0016
vn 0.6114 -0.7912 0.0113
vn -0.1593 0.6099 0.7763
vn -0.1165 0.5876 0.8007
vn -0.6017 0.7983 0.0253
vn -0.5897 0.8076 -0.0004
vn -0.5384 0.2935 -0.7900
vn -0.4995 0.2475 -0.8302
vn 0.1019 -0.5588 -0.8230
vn 0.1267 -0.5949 -0.7937
vn 0.4956 -0.2557 0.8301
vn 0.5774 -0.8164 0.0050
vn -0.1188 0.5972 0.7933
vn -0.5766 0.8170 -0.0054
vn -0.4986 0.2594 -0.8271
vn 0.1148 -0.5943 -0.7960
vn 0.5122 -0.2297 0.8276
vn 0.6206 -0.7841 -0.0113
vn -0.1442 0.5854 0.7978
vn -0.6163 0.7875 0.0091
vn -0.5272 0.2463 -0.8133
vn 0.1246 -0.5727 -0.8102
vn 0.5511 -0.1836 0.8140
vn 0.7017 -0.7110 -0.0445
vn -0.1824 0.5496 0.8152
vn -0.6951 0.7177 0.0406
vn -0.5743 0.2041 -0.7928
vn 0.1527 -0.5337 -0.8317
vn 0.5959 -0.1267 0.7930
vn 0.7869 -0.6113 -0.0847
vn -0.2168 0.4983 0.8394
vn -0.7811 0.6193 0.0803
vn -0.6199 0.1426 -0.7716
vn 0.1862 -0.4856 -0.8541
vn 0.6328 -0.0648 0.7716
vn 0.8566 -0.5007 -0.1243
vn -0.2426 0.4432 0.8630
vn -0.8525 0.5087 0.1201
vn -0.6558 0.0759 -0.7511
vn 0.2131 -0.4338 -0.8754
vn 0.6603 -0.0119 0.7509
vn 0.9015 -0.4040 -0.1555
vn -0.2539 0.3951 0.8829
vn -0.8996 0.4092 0.1527
vn -0.6752 0.0174 -0.7374
vn 0.2344 -0.3900 -0.8905
vn 0.6755 0.0135 0.7373
vn 0.9187 -0.3568 -0.1694
vn -0.2523 0.3703 0.8940
vn -0.9184 0.3579 0.1688
vn -0.6785 -0.0125 -0.7345
vn 0.2483 -0.3694 -0.8955
vn 0.6785 0.0042 0.7346
vn 0.9135 -0.3720 -0.1644
vn -0.2435 0.3749 0.8945
vn -0.9143 0.3695 0.1658
vn -0.6706 -0.0067 -0.7418
vn 0.2539 -0.3772 -0.8907
vn 0.7191 -0.0409 0.6937
vn 0.8972 -0.3992 -0.1886
vn -0.2067 0.3758 0.9033
vn -0.9130 0.3861 0.1321
vn -0.6193 -0.0268 -0.7847
vn 0.2900 -0.3966 -0.8710
vn 0.3789 0.7645 0.5215
vn 0.4032 0.7668 0.4995
vn 0.9954 0.0953 0.0077
vn 0.9866 0.1559 0.0484
vn -0.5004 0.6894 0.5238
vn -0.5407 0.6813 0.4934
vn -0.9983 -0.0512 0.0270
vn -0.9941 -0.1066 -0.0200
vn -0.4197 -0.7510 -0.5097
vn -0.3940 -0.7706 -0.5010
vn 0.5718 -0.6498 -0.5007
vn 0.5355 -0.6850 -0.4940
vn 0.3954 0.7760 0.4914
vn 0.9946 0.1017 0.0183
vn -0.5369 0.6920 0.4826
vn -0.9952 -0.0973 -0.0135
vn -0.3989 -0.7747 -0.4906
vn 0.5390 -0.6907 -0.4821
vn 0.3939 0.7536 0.5263
vn 0.9932 0.1149 0.0202
vn -0.5334 0.6636 0.5245
vn -0.9954 -0.0952 0.0036
vn -0.4107 -0.7469 -0.5229
vn 0.5428 -0.6572 -0.5229
vn 0.4025 0.6980 0.5923
vn 0.9915 0.1294 0.0119
vn -0.5295 0.5944 0.6052
vn -0.9941 -0.1060 0.0250
vn -0.4267 -0.6881 -0.5869
vn 0.5425 -0.5846 -0.6033
vn 0.4201 0.6198 0.6628
vn 0.9897 0.1434 -0.0038
vn -0.5228 0.4972 0.6925
vn -0.9911 -0.1261 0.0421
vn -0.4437 -0.6103 -0.6563
vn 0.5349 -0.4874 -0.6902
vn 0.4408 0.5336 0.7218
vn 0.9870 0.1594 -0.0188
vn -0.5116 0.3892 0.7660
vn -0.9874 -0.1479 0.0554
vn -0.4627 -0.5252 -0.7142
vn 0.5224 -0.3806 -0.7630
vn 0.4622 0.4567 0.7601
vn 0.9843 0.1730 -0.0353
vn -0.5002 0.2931 0.8148
vn -0.9841 -0.1676 0.0591
vn -0.4763 -0.4516 -0.7545
vn 0.5071 -0.2878 -0.8124
vn 0.4766 0.4171 0.7739
vn 0.9826 0.1791 -0.0491
vn -0.4954 0.2438 0.8337
vn -0.9825 -0.1782 0.0539
vn -0.4795 -0.4161 -0.7727
vn 0.4968 -0.2427 -0.8332
vn 0.4794 0.4256 0.7675
vn 0.9829 0.1752 -0.0566
vn -0.5001 0.2549 0.8276
vn -0.9831 -0.1776 0.0440
vn -0.4720 -0.4280 -0.7707
vn 0.4965 -0.2573 -0.8290
vn 0.4861 0.4422 0.7538
vn 0.9832 0.1425 -0.1137
vn -0.5452 0.2579 0.7976
vn -0.9790 -0.2029 -0.0193
vn -0.4547 -0.4445 -0.7718
vn 0.4517 -0.2968 -0.8413
vn 0.2126 0.5664 0.7962
vn 0.1623 0.5429 0.8240
vn 0.5759 0.8175 -0.0013
vn 0.5903 0.8071 0.0118
vn -0.4186 -0.2671 0.8680
vn -0.4475 -0.3190 0.8355
vn -0.5928 -0.8054 0.0004
vn -0.5724 -0.8199 -0.0044
vn -0.1500 -0.5003 -0.8528
vn -0.1683 -0.5488 -0.8189
vn 0.4693 0.3574 -0.8075
vn 0.4381 0.3084 -0.8444
vn 0.1571 0.5545 0.8172
vn 0.5628 0.8266 0.0005
vn -0.4401 -0.3126 0.8418
vn -0.5639 -0.8258 0.0018
vn -0.1546 -0.5524 -0.8191
vn 0.4437 0.3168 -0.8383
vn 0.1962 0.5300 0.8250
vn 0.5996 0.8002 0.0126
vn -0.4360 -0.3017 0.8479
vn -0.6054 -0.7959 -0.0020
vn -0.1845 -0.5199 -0.8341
vn 0.4544 0.3200 -0.8313
vn 0.2663 0.4671 0.8431
vn 0.6752 0.7371 0.0283
vn -0.4366 -0.2915 0.8511
vn -0.6838 -0.7296 -0.0126
vn -0.2493 -0.4534 -0.8557
vn 0.4660 0.3133 -0.8274
vn 0.3403 0.3785 0.8608
vn 0.7605 0.6482 0.0384
vn -0.4416 -0.2836 0.8512
vn -0.7682 -0.6398 -0.0225
vn -0.3231 -0.3665 -0.8725
vn 0.4730 0.2998 -0.8285
vn 0.4032 0.2810 0.8709
vn 0.8349 0.5489 0.0411
vn -0.4463 -0.2752 0.8515
vn -0.8408 -0.5408 -0.0255
vn -0.3866 -0.2715 -0.8814
vn 0.4769 0.2860 -0.8311
vn 0.4442 0.1950 0.8744
vn 0.8874 0.4596 0.0360
vn -0.4538 -0.2690 0.8495
vn -0.8905 -0.4544 -0.0255
vn -0.4333 -0.1896 -0.8811
vn 0.4740 0.2742 -0.8367
vn 0.4582 0.1510 0.8759
vn 0.9100 0.4135 0.0290
vn -0.4626 -0.2669 0.8454
vn -0.9106 -0.4124 -0.0268
vn -0.4560 -0.1500 -0.8773
vn 0.4668 0.2678 -0.8429
vn 0.4493 0.1607 0.8788
vn 0.9054 0.4237 0.0259
vn -0.4699 -0.2696 0.8405
vn -0.9041 -0.4262 -0.0315
vn -0.4552 -0.1631 -0.8753
vn 0.4591 0.2673 -0.8472
vn 0.3936 0.1536 0.9064
vn 0.8954 0.4441 0.0309
vn -0.5151 -0.2940 0.8052
vn -0.8953 -0.4444 -0.0293
vn -0.4966 -0.2081 -0.8427
vn 0.4148 0.2472 -0.8757
vn 0.7637 -0.1660 0.6239
vn 0.7272 -0.2204 0.6501
vn 0.7891 0.6142 0.0133
vn 0.7754 0.6302 -0.0400
vn -0.0782 -0.7858 0.6135
vn -0.0848 -0.8021 0.5912
vn -0.8164 -0.5767 -0.0303
vn -0.7854 -0.6189 -0.0077
vn -0.6981 0.2646 -0.6653
vn -0.7372 0.2093 -0.6424
vn 0.1031 0.7917 -0.6022
vn 0.0786 0.7991 -0.5961
vn 0.7339 -0.2126 0.6452
vn 0.7801 0.6254 0.0179
vn -0.0756 -0.8072 0.5854
vn -0.7814 -0.6237 -0.0202
vn -0.7299 0.2169 -0.6482
vn 0.0781 0.8082 -0.5837
vn 0.7426 -0.2057 0.6374
vn 0.8008 0.5987 -0.0178
vn -0.0887 -0.7782 0.6218
vn -0.8071 -0.5904 0.0070
vn -0.7234 0.2249 -0.6528
vn 0.1005 0.7835 -0.6133
vn 0.7494 -0.2054 0.6294
vn 0.8426 0.5321 -0.0823
vn -0.1185 -0.7151 0.6890
vn -0.8513 -0.5204 0.0672
vn -0.7211 0.2282 -0.6542
vn 0.1358 0.7235 -0.6768
vn 0.7521 -0.2107 0.6244
vn 0.8857 0.4385 -0.1521
vn -0.1500 -0.6304 0.7616
vn -0.8935 -0.4277 0.1372
vn -0.7240 0.2276 -0.6512
vn 0.1677 0.6393 -0.7505
vn 0.7537 -0.2167 0.6205
vn 0.9176 0.3352 -0.2136
vn -0.1721 -0.5373 0.8256
vn -0.9241 -0.3261 0.1993
vn -0.7278 0.2279 -0.6469
vn 0.1896 0.5456 -0.8163
vn 0.7511 -0.2228 0.6215
vn 0.9356 0.2436 -0.2556
vn -0.1862 -0.4565 0.8700
vn -0.9395 -0.2383 0.2462
vn -0.7346 0.2280 -0.6391
vn 0.1981 0.4617 -0.8646
vn 0.7454 -0.2266 0.6269
vn 0.9422 0.1967 -0.2711
vn -0.1941 -0.4173 0.8878
vn -0.9430 -0.1957 0.2692
vn -0.7421 0.2275 -0.6305
vn 0.1965 0.4184 -0.8868
vn 0.7392 -0.2278 0.6338
vn 0.9424 0.2072 -0.2625
vn -0.1977 -0.4303 0.8808
vn -0.9405 -0.2096 0.2676
vn -0.7478 0.2254 -0.6244
vn 0.1913 0.4278 -0.8834
vn 0.6939 -0.2529 0.6742
vn 0.9570 0.2049 -0.2054
vn -0.2020 -0.4473 0.8713
vn -0.9162 -0.2524 0.3114
vn -0.7864 0.1991 -0.5848
vn 0.1859 0.4470 -0.8750
vn 0.0266 -0.7444 0.6672
vn 0.0394 -0.7688 0.6382
vn 0.7260 -0.6876 0.0106
vn 0.7515 -0.6596 -0.0121
vn -0.7516 -0.0384 0.6585
vn -0.7238 -0.1032 0.6822
vn -0.7205 0.6921 -0.0432
vn -0.7314 0.6819 -0.0008
vn -0.0778 0.7632 -0.6415
vn -0.0385 0.7664 -0.6412
vn 0.6919 0.1449 -0.7073
vn 0.7325 0.0924 -0.6745
vn 0.0316 -0.7756 0.6305
vn 0.7244 -0.6893 -0.0014
vn -0.7327 -0.0994 0.6732
vn -0.7224 0.6915 -0.0025
vn -0.0321 0.7763 -0.6295
vn 0.7293 0.1036 -0.6763
vn 0.0572 -0.7424 0.6675
vn 0.7473 -0.6644 0.0098
vn -0.7286 -0.0784 0.6805
vn -0.7379 0.6743 -0.0286
vn -0.0590 0.7466 -0.6626
vn 0.7119 0.0970 -0.6955
vn 0.1105 -0.6684 0.7355
vn 0.7872 -0.6154 0.0400
vn -0.7114 -0.0454 0.7013
vn -0.7750 0.6283 -0.0677
vn -0.1123 0.6760 -0.7283
vn 0.6859 0.0680 -0.7245
vn 0.1727 -0.5679 0.8048
vn 0.8302 -0.5524 0.0746
vn -0.6871 -0.0067 0.7265
vn -0.8197 0.5635 -0.1027
vn -0.1739 0.5764 -0.7985
vn 0.6605 0.0237 -0.7504
vn 0.2299 -0.4568 0.8593
vn 0.8691 -0.4842 0.1010
vn -0.6638 0.0357 0.7471
vn -0.8605 0.4930 -0.1280
vn -0.2313 0.4650 -0.8546
vn 0.6381 -0.0242 -0.7696
vn 0.2731 -0.3598 0.8922
vn 0.8967 -0.4258 0.1207
vn -0.6420 0.0719 0.7633
vn -0.8917 0.4309 -0.1386
vn -0.2741 0.3651 -0.8897
vn 0.6251 -0.0664 -0.7778
vn 0.2927 -0.3125 0.9037
vn 0.9077 -0.3980 0.1331
vn -0.6274 0.0891 0.7736
vn -0.9067 0.3990 -0.1367
vn -0.2929 0.3136 -0.9032
vn 0.6239 -0.0881 -0.7765
vn 0.2881 -0.3278 0.8998
vn 0.9025 -0.4078 0.1383
vn -0.6233 0.0821 0.7777
vn -0.9050 0.4054 -0.1288
vn -0.2874 0.3253 -0.9009
vn 0.6323 -0.0845 -0.7701
vn 0.3183 -0.3605 0.8768
vn 0.8896 -0.4252 0.1666
vn -0.5784 0.0410 0.8147
vn -0.9045 0.4145 -0.1006
vn -0.2444 0.3367 -0.9093
vn 0.6806 -0.1081 -0.7246
vn -0.1012 0.3461 -0.9327
vn -0.6944 0.2953 -0.6562
vn 0.2668 0.2154 -0.9394
vn 0.2668 -0.2154 -0.9394
vn -0.1012 -0.3461 -0.9327
vn -0.8975 0.2953 -0.3276
vn -0.0225 0.9535 -0.3005
vn 0.8795 0.3461 -0.3266
vn 0.5402 -0.7821 -0.3106
vn -0.5003 -0.8088 -0.3092
vn -0.7724 0.6235 -0.1209
vn 0.2788 0.9535 -0.1143
vn 0.9921 -0.0000 -0.1256
vn 0.2788 -0.9535 -0.1143
vn -0.7724 -0.6235 -0.1209
vn -0.3912 0.6680 0.6330
vn 0.4536 0.6235 0.6368
vn 0.6944 -0.2953 0.6562
vn -0.0362 -0.7821 0.6221
vn -0.7208 -0.2154 0.6588
vn -0.2669 -0.2154 0.9394
vn -0.4839 -0.3907 0.7831
vn -0.3912 -0.6680 0.6330
vn 0.1012 -0.3461 0.9327
vn 0.1807 -0.6178 0.7653
vn 0.4536 -0.6235 0.6368
vn 0.3313 -0.0000 0.9435
vn 0.6071 -0.0000 0.7947
vn 0.6944 0.2953 0.6562
vn 0.1012 0.3461 0.9327
vn 0.1807 0.6178 0.7653
vn -0.0362 0.7821 0.6221
vn -0.2669 0.2154 0.9394
vn -0.4839 0.3907 0.7831
vn -0.7208 0.2154 0.6588
vn -0.8795 -0.3461 0.3266
vn -0.7653 -0.6178 0.1807
vn -0.5402 -0.7821 0.3106
vn 0.0225 -0.9535 0.3005
vn 0.2765 -0.9457 0.1709
vn 0.5003 -0.8088 0.3092
vn 0.8975 -0.2953 0.3276
vn 0.9822 -0.0000 0.1876
vn 0.8975 0.2953 0.3276
vn 0.5003 0.8088 0.3092
vn 0.2765 0.9457 0.1709
vn 0.0225 0.9535 0.3005
vn -0.5402 0.7821 0.3106
vn -0.7653 0.6178 0.1807
vn -0.8795 0.3461 0.3266
vn -0.2788 -0.9535 0.1143
vn -0.2765 -0.9457 -0.1709
vn -0.0225 -0.9535 -0.3005
vn 0.7724 -0.6235 0.1209
vn 0.7653 -0.6178 -0.1807
vn 0.8795 -0.3461 -0.3266
vn 0.7724 0.6235 0.1209
vn 0.7653 0.6178 -0.1807
vn 0.5402 0.7821 -0.3106
vn -0.2788 0.9535 0.1143
vn -0.2765 0.9457 -0.1709
vn -0.5003 0.8088 -0.3092
vn -0.9921 -0.0000 0.1256
vn -0.9822 -0.0000 -0.1876
vn -0.8975 -0.2953 -0.3276
vn -0.4536 -0.6235 -0.6368
vn -0.1807 -0.6178 -0.7653
vn 0.0362 -0.7821 -0.6221
vn 0.3912 -0.6680 -0.6330
vn 0.4839 -0.3907 -0.7831
vn 0.7208 -0.2154 -0.6588
vn 0.7208 0.2154 -0.6588
vn 0.4839 0.3907 -0.7831
vn 0.3912 0.6680 -0.6330
vn -0.6944 -0.2953 -0.6562
vn -0.6071 -0.0000 -0.7947
vn -0.3313 -0.0000 -0.9435
vn 0.0362 0.7821 -0.6221
vn -0.1807 0.6178 -0.7653
vn -0.4536 0.6235 -0.6368
vn 0.3323 0.6438 -0.6893
vn -0.5489 0.3448 -0.7614
vn 0.4585 0.0280 -0.8882
vn -0.2145 -0.2510 -0.9439
vn 0.9052 -0.4251 -0.0000
vn -0.1513 -0.9885 -0.0000
vn 0.4585 0.0280 0.8882
vn -0.2145 -0.2510 0.9439
vn 0.3323 0.6438 0.6893
vn -0.5489 0.3448 0.7614
vn -0.1178 -0.5133 -0.8501
vn 0.3279 -0.9334 -0.1459
vn 0.4454 -0.1715 -0.8788
vn 0.8242 -0.4630 -0.3261
vn 0.1397 0.8242 -0.5488
vn 0.7739 0.4843 0.4082
vn -0.6700 0.7208 0.1774
vn -0.3612 0.4853 0.7963
vn -0.9833 0.1792 -0.0305
vn -0.6283 -0.1684 0.7595
vn -0.9833 0.1792 0.0305
vn -0.6283 -0.1684 -0.7595
vn -0.6700 0.7208 -0.1774
vn -0.3612 0.4853 -0.7963
vn 0.1397 0.8242 0.5488
vn 0.7739 0.4843 -0.4082
vn 0.4454 -0.1715 0.8788
vn 0.8242 -0.4630 0.3261
vn -0.1178 -0.5133 0.8501
vn 0.3279 -0.9334 0.1459
vn -0.8535 0.4927 0.1698
vn 0.8535 0.4927 -0.1698
vn 0.8535 -0.4927 -0.1698
vn -0.8535 -0.4927 0.1698
vn -0.7235 0.4927 0.4834
vn 0.7235 0.4927 -0.4834
vn 0.7235 -0.4927 -0.4834
vn -0.7235 -0.4927 0.4834
vn -0.4834 0.4927 0.7235
vn 0.4834 0.4927 -0.7235
vn 0.4834 -0.4927 -0.7235
vn -0.4834 -0.4927 0.7235
vn -0.1698 0.4927 0.8535
vn 0.1698 0.4927 -0.8535
vn 0.1698 -0.4927 -0.8535
vn -0.1698 -0.4927 0.8535
vn 0.1698 0.4927 0.8535
vn -0.1698 0.4927 -0.8535
vn -0.1698 -0.4927 -0.8535
vn 0.1698 -0.4927 0.8535
vn 0.4834 0.4927 0.7235
vn -0.4834 0.4927 -0.7235
vn -0.4834 -0.4927 -0.7235
vn 0.4834 -0.4927 0.7235
vn 0.7235 0.4927 0.4834
vn -0.7235 0.4927 -0.4834
vn -0.7235 -0.4927 -0.4834
vn 0.7235 -0.4927 0.4834
vn 0.8535 0.4927 0.1698
vn -0.8535 0.4927 -0.1698
vn -0.8535 -0.4927 -0.1698
vn 0.8535 -0.4927 0.1698
vn -0.0227 -0.0000 -0.9997
vn -0.3371 0.6877 -0.6430
vn 0.0733 0.9413 -0.3294
vn -0.2481 0.9565 -0.1533
vn 0.0733 -0.9413 -0.3294
vn -0.3371 -0.6877 -0.6430
vn -0.7259 0.6877 -0.0139
vn 0.0508 0.9953 -0.0822
vn -0.0509 0.9931 -0.1057
vn 0.9044 -0.0000 -0.4268
vn 0.2618 0.9413 -0.2129
vn 0.7259 0.6877 0.0139
vn 0.0508 -0.9953 -0.0822
vn 0.2618 -0.9413 -0.2129
vn 0.1173 -0.9931 -0.0018
vn -0.2481 -0.9565 -0.1533
vn -0.0509 -0.9931 -0.1057
vn -0.1173 -0.9931 0.0018
vn -0.1173 0.9931 0.0018
vn 0.1173 0.9931 -0.0018
vn 0.7259 -0.6877 0.0139
vn -0.7259 -0.6877 -0.0139
vn -0.0508 0.9953 0.0822
vn -0.2618 0.9413 0.2129
vn -0.0733 0.9413 0.3294
vn 0.2481 0.9565 0.1533
vn 0.0509 0.9931 0.1057
vn 0.3371 0.6877 0.6430
vn 0.2481 -0.9565 0.1533
vn 0.3371 -0.6877 0.6430
vn -0.0508 -0.9953 0.0822
vn 0.0509 -0.9931 0.1057
vn -0.0733 -0.9413 0.3294
vn -0.9044 -0.0000 0.4268
vn -0.2618 -0.9413 0.2129
vn 0.0227 -0.0000 0.9997
vt 0.181819 0.000000
vt 0.227273 0.078731
vt 0.136365 0.078731
vt 0.272728 0.157461
vt 0.318182 0.078731
vt 0.363637 0.157461
vt 0.909091 0.000000
vt 0.954545 0.078731
vt 0.863636 0.078731
vt 0.727273 0.000000
vt 0.772727 0.078731
vt 0.681818 0.078731
vt 0.545455 0.000000
vt 0.590909 0.078731
vt 0.500000 0.078731
vt 0.318182 0.236191
vt 0.090910 0.157461
vt 0.181819 0.157461
vt 0.136365 0.236191
vt 0.818182 0.157461
vt 0.909091 0.157461
vt 0.863636 0.236191
vt 0.636364 0.157461
vt 0.727273 0.157461
vt 0.681818 0.236191
vt 0.454546 0.157461
vt 0.545455 0.157461
vt 0.500000 0.236191
vt 0.227273 0.236191
vt 0.045455 0.236191
vt 0.772727 0.236191
vt 0.590909 0.236191
vt 0.409092 0.236191
vt 0.181819 0.314921
vt 0.272728 0.314921
vt 0.227273 0.393651
vt 0.000000 0.314921
vt 0.090910 0.314921
vt 0.045455 0.393651
vt 0.727273 0.314921
vt 0.818182 0.314921
vt 0.772727 0.393651
vt 0.545455 0.314921
vt 0.636364 0.314921
vt 0.590909 0.393651
vt 0.363637 0.314921
vt 0.454546 0.314921
vt 0.409092 0.393651
vt 0.500000 0.393651
vt 0.454546 0.472382
vt 0.681818 0.393651
vt 0.636364 0.472382
vt 0.863636 0.393651
vt 0.818182 0.472382
vt 0.909091 0.314921
vt 0.136365 0.393651
vt 0.090910 0.472382
vt 0.318182 0.393651
vt 0.272728 0.472382
vt 0.954545 0.236191
vt 1.000000 0.157461
vt 0.409092 0.078731
vt 0.363637 0.000000
vt 0.000000 1.000000
vt 0.100000 1.000000
vt 0.100000 0.833333
vt 0.000000 0.833333
vt 0.000000 0.166667
vt 0.100000 0.166667
vt 0.100000 0.000000
vt 0.000000 0.000000
vt 0.000000 0.333333
vt 0.100000 0.333333
vt 0.000000 0.500000
vt 0.100000 0.500000
vt 0.000000 0.666667
vt 0.100000 0.666667
vt 0.200000 1.000000
vt 0.200000 0.833333
vt 0.200000 0.166667
vt 0.200000 0.000000
vt 0.200000 0.333333
vt 0.200000 0.500000
vt 0.200000 0.666667
vt 0.300000 1.000000
vt 0.300000 0.833333
vt 0.300000 0.166667
vt 0.300000 0.000000
vt 0.300000 0.333333
vt 0.300000 0.500000
vt 0.300000 0.666667
vt 0.400000 1.000000
vt 0.400000 0.833333
vt 0.400000 0.166667
vt 0.400000 0.000000
vt 0.400000 0.333333
vt 0.400000 0.500000
vt 0.400000 0.666667
vt 0.500000 1.000000
vt 0.500000 0.833333
vt 0.500000 0.166667
vt 0.500000 0.000000
vt 0.500000 0.333333
vt 0.500000 0.500000
vt 0.500000 0.666667
vt 0.600000 1.000000
vt 0.600000 0.833333
vt 0.600000 0.166667
vt 0.600000 0.000000
vt 0.600000 0.333333
vt 0.600000 0.500000
vt 0.600000 0.666667
vt 0.700000 1.000000
vt 0.700000 0.833333
vt 0.700000 0.166667
vt 0.700000 0.000000
vt 0.700000 0.333333
vt 0.700000 0.500000
vt 0.700000 0.666667
vt 0.800000 1.000000
vt 0.800000 0.833333
vt 0.800000 0.166667
vt 0.800000 0.000000
vt 0.800000 0.333333
vt 0.800000 0.500000
vt 0.800000 0.666667
vt 0.900000 1.000000
vt 0.900000 0.833333
vt 0.900000 0.166667
vt 0.900000 0.000000
vt 0.900000 0.333333
vt 0.900000 0.500000
vt 0.900000 0.666667
vt 1.000000 1.000000
vt 1.000000 0.833333
vt 1.000000 0.166667
vt 1.000000 0.000000
vt 1.000000 0.333333
vt 1.000000 0.500000
vt 1.000000 0.666667
vt 0.562500 0.500000
vt 0.562500 0.666667
vt 0.562500 0.833333
vt 0.562500 1.000000
vt 0.500000 -0.000000
vt 0.562500 -0.000000
vt 0.562500 0.166667
vt 0.562500 0.333333
vt 0.625000 0.500000
vt 0.625000 0.666667
vt 0.625000 0.833333
vt 0.625000 1.000000
vt 0.625000 -0.000000
vt 0.625000 0.166667
vt 0.625000 0.333333
vt 0.687500 0.500000
vt 0.687500 0.666667
vt 0.687500 0.833333
vt 0.687500 1.000000
vt 0.687500 -0.000000
vt 0.687500 0.166667
vt 0.687500 0.333333
vt 0.750000 0.500000
vt 0.750000 0.666667
vt 0.750000 0.833333
vt 0.750000 1.000000
vt 0.750000 -0.000000
vt 0.750000 0.166667
vt 0.750000 0.333333
vt 0.812500 0.500000
vt 0.812500 0.666667
vt 0.812500 0.833333
vt 0.812500 1.000000
vt 0.812500 -0.000000
vt 0.812500 0.166667
vt 0.812500 0.333333
vt 0.875000 0.500000
vt 0.875000 0.666667
vt 0.875000 0.833333
vt 0.875000 1.000000
vt 0.875000 -0.000000
vt 0.875000 0.166667
vt 0.875000 0.333333
vt 0.937500 0.500000
vt 0.937500 0.666667
vt 0.937500 0.833333
vt 0.937500 1.000000
vt 0.937500 -0.000000
vt 0.937500 0.166667
vt 0.937500 0.333333
vt 1.000000 -0.000000
vt 0.062500 0.500000
vt 0.062500 0.666667
vt 0.062500 0.833333
vt 0.062500 1.000000
vt 0.000000 -0.000000
vt 0.062500 -0.000000
vt 0.062500 0.166667
vt 0.062500 0.333333
vt 0.125000 0.500000
vt 0.125000 0.666667
vt 0.125000 0.833333
vt 0.125000 1.000000
vt 0.125000 -0.000000
vt 0.125000 0.166667
vt 0.125000 0.333333
vt 0.187500 0.500000
vt 0.187500 0.666667
vt 0.187500 0.833333
vt 0.187500 1.000000
vt 0.187500 -0.000000
vt 0.187500 0.166667
vt 0.187500 0.333333
vt 0.250000 0.500000
vt 0.250000 0.666667
vt 0.250000 0.833333
vt 0.250000 1.000000
vt 0.250000 -0.000000
vt 0.250000 0.166667
vt 0.250000 0.333333
vt 0.312500 0.500000
vt 0.312500 0.666667
vt 0.312500 0.833333
vt 0.312500 1.000000
vt 0.312500 -0.000000
vt 0.312500 0.166667
vt 0.312500 0.333333
vt 0.375000 0.500000
vt 0.375000 0.666667
vt 0.375000 0.833333
vt 0.375000 1.000000
vt 0.375000 -0.000000
vt 0.375000 0.166667
vt 0.375000 0.333333
vt 0.437500 0.500000
vt 0.437500 0.666667
vt 0.437500 0.833333
vt 0.437500 1.000000
vt 0.437500 -0.000000
vt 0.437500 0.166667
vt 0.437500 0.333333
s 1
usemtl UnknownOrganicMatter
f 1/1/1 14/2/2 13/3/3
f 2/4/4 14/5/2 16/6/5
f 1/7/1 13/8/3 18/9/6
f 1/10/1 18/11/6 20/12/7
f 1/13/1 20/14/7 17/15/8
f 2/4/4 16/6/5 23/16/9
f 3/17/10 15/18/11 25/19/12
f 4/20/13 19/21/14 27/22/15
f 5/23/16 21/24/17 29/25/18
f 6/26/19 22/27/20 31/28/21
f 2/4/4 23/16/9 26/29/22
f 3/17/10 25/19/12 28/30/23
f 4/20/13 27/22/15 30/31/24
f 5/23/16 29/25/18 32/32/25
f 6/26/19 31/28/21 24/33/26
f 7/34/27 33/35/28 38/36/29
f 8/37/30 34/38/31 40/39/32
f 9/40/33 35/41/34 41/42/35
f 10/43/36 36/44/37 42/45/38
f 11/46/39 37/47/40 39/48/41
f 39/48/41 42/49/38 12/50/42
f 39/48/41 37/47/40 42/49/38
f 37/47/40 10/43/36 42/49/38
f 42/45/38 41/51/35 12/52/42
f 42/45/38 36/44/37 41/51/35
f 36/44/37 9/40/33 41/51/35
f 41/42/35 40/53/32 12/54/42
f 41/42/35 35/41/34 40/53/32
f 35/41/34 8/55/30 40/53/32
f 40/39/32 38/56/29 12/57/42
f 40/39/32 34/38/31 38/56/29
f 34/38/31 7/34/27 38/56/29
f 38/36/29 39/58/41 12/59/42
f 38/36/29 33/35/28 39/58/41
f 33/35/28 11/46/39 39/58/41
f 24/33/26 37/47/40 11/46/39
f 24/33/26 31/28/21 37/47/40
f 31/28/21 10/43/36 37/47/40
f 32/32/25 36/44/37 10/43/36
f 32/32/25 29/25/18 36/44/37
f 29/25/18 9/40/33 36/44/37
f 30/31/24 35/41/34 9/40/33
f 30/31/24 27/22/15 35/41/34
f 27/22/15 8/55/30 35/41/34
f 28/30/23 34/38/31 8/37/30
f 28/30/23 25/19/12 34/38/31
f 25/19/12 7/34/27 34/38/31
f 26/29/22 33/35/28 7/34/27
f 26/29/22 23/16/9 33/35/28
f 23/16/9 11/46/39 33/35/28
f 31/28/21 32/32/25 10/43/36
f 31/28/21 22/27/20 32/32/25
f 22/27/20 5/23/16 32/32/25
f 29/25/18 30/31/24 9/40/33
f 29/25/18 21/24/17 30/31/24
f 21/24/17 4/20/13 30/31/24
f 27/22/15 28/60/23 8/55/30
f 27/22/15 19/21/14 28/60/23
f 19/21/14 3/61/10 28/60/23
f 25/19/12 26/29/22 7/34/27
f 25/19/12 15/18/11 26/29/22
f 15/18/11 2/4/4 26/29/22
f 23/16/9 24/33/26 11/46/39
f 23/16/9 16/6/5 24/33/26
f 16/6/5 6/26/19 24/33/26
f 17/15/8 22/27/20 6/26/19
f 17/15/8 20/14/7 22/27/20
f 20/14/7 5/23/16 22/27/20
f 20/12/7 21/24/17 5/23/16
f 20/12/7 18/11/6 21/24/17
f 18/11/6 4/20/13 21/24/17
f 18/9/6 19/21/14 4/20/13
f 18/9/6 13/8/3 19/21/14
f 13/8/3 3/61/10 19/21/14
f 16/6/5 17/62/8 6/26/19
f 16/6/5 14/5/2 17/62/8
f 14/5/2 1/63/1 17/62/8
f 13/3/3 15/18/11 3/17/10
f 13/3/3 14/2/2 15/18/11
f 14/2/2 2/4/4 15/18/11
f 85/64/79 91/65/80 96/66/81 90/67/82
f 86/68/83 92/69/84 91/70/80 85/71/79
f 87/72/85 93/73/86 92/69/84 86/68/83
f 88/74/87 94/75/88 93/73/86 87/72/85
f 89/76/89 95/77/90 94/75/88 88/74/87
f 90/67/82 96/66/81 95/77/90 89/76/89
f 91/65/80 97/78/91 102/79/92 96/66/81
f 92/69/84 98/80/93 97/81/91 91/70/80
f 93/73/86 99/82/94 98/80/93 92/69/84
f 94/75/88 100/83/95 99/82/94 93/73/86
f 95/77/90 101/84/96 100/83/95 94/75/88
f 96/66/81 102/79/92 101/84/96 95/77/90
f 97/78/91 103/85/97 108/86/98 102/79/92
f 98/80/93 104/87/99 103/88/97 97/81/91
f 99/82/94 105/89/100 104/87/99 98/80/93
f 100/83/95 106/90/101 105/89/100 99/82/94
f 101/84/96 107/91/102 106/90/101 100/83/95
f 102/79/92 108/86/98 107/91/102 101/84/96
f 103/85/97 109/92/103 114/93/104 108/86/98
f 104/87/99 110/94/105 109/95/103 103/88/97
f 105/89/100 111/96/106 110/94/105 104/87/99
f 106/90/101 112/97/107 111/96/106 105/89/100
f 107/91/102 113/98/108 112/97/107 106/90/101
f 108/86/98 114/93/104 113/98/108 107/91/102
f 109/92/103 115/99/109 120/100/110 114/93/104
f 110/94/105 116/101/111 115/102/109 109/95/103
f 111/96/106 117/103/112 116/101/111 110/94/105
f 112/97/107 118/104/113 117/103/112 111/96/106
f 113/98/108 119/105/114 118/104/113 112/97/107
f 114/93/104 120/100/110 119/105/114 113/98/108
f 115/99/109 121/106/115 126/107/116 120/100/110
f 116/101/111 122/108/117 121/109/115 115/102/109
f 117/103/112 123/110/118 122/108/117 116/101/111
f 118/104/113 124/111/119 123/110/118 117/103/112
f 119/105/114 125/112/120 124/111/119 118/104/113
f 120/100/110 126/107/116 125/112/120 119/105/114
f 121/106/115 127/113/121 132/114/122 126/107/116
f 122/108/117 128/115/123 127/116/121 121/109/115
f 123/110/118 129/117/124 128/115/123 122/108/117
f 124/111/119 130/118/125 129/117/124 123/110/118
f 125/112/120 131/119/126 130/118/125 124/111/119
f 126/107/116 132/114/122 131/119/126 125/112/120
f 127/113/121 133/120/127 138/121/128 132/114/122
f 128/115/123 134/122/129 133/123/127 127/116/121
f 129/117/124 135/124/130 134/122/129 128/115/123
f 130/118/125 136/125/131 135/124/130 129/117/124
f 131/119/126 137/126/132 136/125/131 130/118/125
f 132/114/122 138/121/128 137/126/132 131/119/126
f 133/120/127 139/127/133 144/128/134 138/121/128
f 134/122/129 140/129/135 139/130/133 133/123/127
f 135/124/130 141/131/136 140/129/135 134/122/129
f 136/125/131 142/132/137 141/131/136 135/124/130
f 137/126/132 143/133/138 142/132/137 136/125/131
f 138/121/128 144/128/134 143/133/138 137/126/132
f 139/127/133 145/134/139 150/135/140 144/128/134
f 140/129/135 146/136/141 145/137/139 139/130/133
f 141/131/136 147/138/142 146/136/141 140/129/135
f 142/132/137 148/139/143 147/138/142 141/131/136
f 143/133/138 149/140/144 148/139/143 142/132/137
f 144/128/134 150/135/140 149/140/144 143/133/138
f 151/64/145 157/65/146 162/66/147 156/67/148
f 152/68/149 158/69/150 157/70/146 151/71/145
f 153/72/151 159/73/152 158/69/150 152/68/149
f 154/74/153 160/75/154 159/73/152 153/72/151
f 155/76/155 161/77/156 160/75/154 154/74/153
f 156/67/148 162/66/147 161/77/156 155/76/155
f 157/65/146 163/78/157 168/79/158 162/66/147
f 158/69/150 164/80/159 163/81/157 157/70/146
f 159/73/152 165/82/160 164/80/159 158/69/150
f 160/75/154 166/83/161 165/82/160 159/73/152
f 161/77/156 167/84/162 166/83/161 160/75/154
f 162/66/147 168/79/158 167/84/162 161/77/156
f 163/78/157 169/85/163 174/86/164 168/79/158
f 164/80/159 170/87/165 169/88/163 163/81/157
f 165/82/160 171/89/166 170/87/165 164/80/159
f 166/83/161 172/90/167 171/89/166 165/82/160
f 167/84/162 173/91/168 172/90/167 166/83/161
f 168/79/158 174/86/164 173/91/168 167/84/162
f 169/85/163 175/92/169 180/93/170 174/86/164
f 170/87/165 176/94/171 175/95/169 169/88/163
f 171/89/166 177/96/172 176/94/171 170/87/165
f 172/90/167 178/97/173 177/96/172 171/89/166
f 173/91/168 179/98/174 178/97/173 172/90/167
f 174/86/164 180/93/170 179/98/174 173/91/168
f 175/92/169 181/99/175 186/100/176 180/93/170
f 176/94/171 182/101/177 181/102/175 175/95/169
f 177/96/172 183/103/178 182/101/177 176/94/171
f 178/97/173 184/104/179 183/103/178 177/96/172
f 179/98/174 185/105/180 184/104/179 178/97/173
f 180/93/170 186/100/176 185/105/180 179/98/174
f 181/99/175 187/106/181 192/107/182 186/100/176
f 182/101/177 188/108/183 187/109/181 181/102/175
f 183/103/178 189/110/184 188/108/183 182/101/177
f 184/104/179 190/111/185 189/110/184 183/103/178
f 185/105/180 191/112/186 190/111/185 184/104/179
f 186/100/176 192/107/182 191/112/186 185/105/180
f 187/106/181 193/113/187 198/114/188 192/107/182
f 188/108/183 194/115/189 193/116/187 187/109/181
f 189/110/184 195/117/190 194/115/189 188/108/183
f 190/111/185 196/118/191 195/117/190 189/110/184
f 191/112/186 197/119/192 196/118/191 190/111/185
f 192/107/182 198/114/188 197/119/192 191/112/186
f 193/113/187 199/120/193 204/121/194 198/114/188
f 194/115/189 200/122/195 199/123/193 193/116/187
f 195/117/190 201/124/196 200/122/195 194/115/189
f 196/118/191 202/125/197 201/124/196 195/117/190
f 197/119/192 203/126/198 202/125/197 196/118/191
f 198/114/188 204/121/194 203/126/198 197/119/192
f 199/120/193 205/127/199 210/128/200 204/121/194
f 200/122/195 206/129/201 205/130/199 199/123/193
f 201/124/196 207/131/202 206/129/201 200/122/195
f 202/125/197 208/132/203 207/131/202 201/124/196
f 203/126/198 209/133/204 208/132/203 202/125/197
f 204/121/194 210/128/200 209/133/204 203/126/198
f 205/127/199 211/134/205 216/135/206 210/128/200
f 206/129/201 212/136/207 211/137/205 205/130/199
f 207/131/202 213/138/208 212/136/207 206/129/201
f 208/132/203 214/139/209 213/138/208 207/131/202
f 209/133/204 215/140/210 214/139/209 208/132/203
f 210/128/200 216/135/206 215/140/210 209/133/204
f 217/64/211 223/65/212 228/66/213 222/67/214
f 218/68/215 224/69/216 223/70/212 217/71/211
f 219/72/217 225/73/218 224/69/216 218/68/215
f 220/74/219 226/75/220 225/73/218 219/72/217
f 221/76/221 227/77/222 226/75/220 220/74/219
f 222/67/214 228/66/213 227/77/222 221/76/221
f 223/65/212 229/78/223 234/79/224 228/66/213
f 224/69/216 230/80/225 229/81/223 223/70/212
f 225/73/218 231/82/226 230/80/225 224/69/216
f 226/75/220 232/83/227 231/82/226 225/73/218
f 227/77/222 233/84/228 232/83/227 226/75/220
f 228/66/213 234/79/224 233/84/228 227/77/222
f 229/78/223 235/85/229 240/86/230 234/79/224
f 230/80/225 236/87/231 235/88/229 229/81/223
f 231/82/226 237/89/232 236/87/231 230/80/225
f 232/83/227 238/90/233 237/89/232 231/82/226
f 233/84/228 239/91/234 238/90/233 232/83/227
f 234/79/224 240/86/230 239/91/234 233/84/228
f 235/85/229 241/92/235 246/93/236 240/86/230
f 236/87/231 242/94/237 241/95/235 235/88/229
f 237/89/232 243/96/238 242/94/237 236/87/231
f 238/90/233 244/97/239 243/96/238 237/89/232
f 239/91/234 245/98/240 244/97/239 238/90/233
f 240/86/230 246/93/236 245/98/240 239/91/234
f 241/92/235 247/99/241 252/100/242 246/93/236
f 242/94/237 248/101/243 247/102/241 241/95/235
f 243/96/238 249/103/244 248/101/243 242/94/237
f 244/97/239 250/104/245 249/103/244 243/96/238
f 245/98/240 251/105/246 250/104/245 244/97/239
f 246/93/236 252/100/242 251/105/246 245/98/240
f 247/99/241 253/106/247 258/107/248 252/100/242
f 248/101/243 254/108/249 253/109/247 247/102/241
f 249/103/244 255/110/250 254/108/249 248/101/243
f 250/104/245 256/111/251 255/110/250 249/103/244
f 251/105/246 257/112/252 256/111/251 250/104/245
f 252/100/242 258/107/248 257/112/252 251/105/246
f 253/106/247 259/113/253 264/114/254 258/107/248
f 254/108/249 260/115/255 259/116/253 253/109/247
f 255/110/250 261/117/256 260/115/255 254/108/249
f 256/111/251 262/118/257 261/117/256 255/110/250
f 257/112/252 263/119/258 262/118/257 256/111/251
f 258/107/248 264/114/254 263/119/258 257/112/252
f 259/113/253 265/120/259 270/121/260 264/114/254
f 260/115/255 266/122/261 265/123/259 259/116/253
f 261/117/256 267/124/262 266/122/261 260/115/255
f 262/118/257 268/125/263 267/124/262 261/117/256
f 263/119/258 269/126/264 268/125/263 262/118/257
f 264/114/254 270/121/260 269/126/264 263/119/258
f 265/120/259 271/127/265 276/128/266 270/121/260
f 266/122/261 272/129/267 271/130/265 265/123/259
f 267/124/262 273/131/268 272/129/267 266/122/261
f 268/125/263 274/132/269 273/131/268 267/124/262
f 269/126/264 275/133/270 274/132/269 268/125/263
f 270/121/260 276/128/266 275/133/270 269/126/264
f 271/127/265 277/134/271 282/135/272 276/128/266
f 272/129/267 278/136/273 277/137/271 271/130/265
f 273/131/268 279/138/274 278/136/273 272/129/267
f 274/132/269 280/139/275 279/138/274 273/131/268
f 275/133/270 281/140/276 280/139/275 274/132/269
f 276/128/266 282/135/272 281/140/276 275/133/270
f 283/64/277 289/65/278 294/66/279 288/67/280
f 284/68/281 290/69/282 289/70/278 283/71/277
f 285/72/283 291/73/284 290/69/282 284/68/281
f 286/74/285 292/75/286 291/73/284 285/72/283
f 287/76/287 293/77/288 292/75/286 286/74/285
f 288/67/280 294/66/279 293/77/288 287/76/287
f 289/65/278 295/78/289 300/79/290 294/66/279
f 290/69/282 296/80/291 295/81/289 289/70/278
f 291/73/284 297/82/292 296/80/291 290/69/282
f 292/75/286 298/83/293 297/82/292 291/73/284
f 293/77/288 299/84/294 298/83/293 292/75/286
f 294/66/279 300/79/290 299/84/294 293/77/288
f 295/78/289 301/85/295 306/86/296 300/79/290
f 296/80/291 302/87/297 301/88/295 295/81/289
f 297/82/292 303/89/298 302/87/297 296/80/291
f 298/83/293 304/90/299 303/89/298 297/82/292
f 299/84/294 305/91/300 304/90/299 298/83/293
f 300/79/290 306/86/296 305/91/300 299/84/294
f 301/85/295 307/92/301 312/93/302 306/86/296
f 302/87/297 308/94/303 307/95/301 301/88/295
f 303/89/298 309/96/304 308/94/303 302/87/297
f 304/90/299 310/97/305 309/96/304 303/89/298
f 305/91/300 311/98/306 310/97/305 304/90/299
f 306/86/296 312/93/302 311/98/306 305/91/300
f 307/92/301 313/99/307 318/100/308 312/93/302
f 308/94/303 314/101/309 313/102/307 307/95/301
f 309/96/304 315/103/310 314/101/309 308/94/303
f 310/97/305 316/104/311 315/103/310 309/96/304
f 311/98/306 317/105/312 316/104/311 310/97/305
f 312/93/302 318/100/308 317/105/312 311/98/306
f 313/99/307 319/106/313 324/107/314 318/100/308
f 314/101/309 320/108/315 319/109/313 313/102/307
f 315/103/310 321/110/316 320/108/315 314/101/309
f 316/104/311 322/111/317 321/110/316 315/103/310
f 317/105/312 323/112/318 322/111/317 316/104/311
f 318/100/308 324/107/314 323/112/318 317/105/312
f 319/106/313 325/113/319 330/114/320 324/107/314
f 320/108/315 326/115/321 325/116/319 319/109/313
f 321/110/316 327/117/322 326/115/321 320/108/315
f 322/111/317 328/118/323 327/117/322 321/110/316
f 323/112/318 329/119/324 328/118/323 322/111/317
f 324/107/314 330/114/320 329/119/324 323/112/318
f 325/113/319 331/120/325 336/121/326 330/114/320
f 326/115/321 332/122/327 331/123/325 325/116/319
f 327/117/322 333/124/328 332/122/327 326/115/321
f 328/118/323 334/125/329 333/124/328 327/117/322
f 329/119/324 335/126/330 334/125/329 328/118/323
f 330/114/320 336/121/326 335/126/330 329/119/324
f 331/120/325 337/127/331 342/128/332 336/121/326
f 332/122/327 338/129/333 337/130/331 331/123/325
f 333/124/328 339/131/334 338/129/333 332/122/327
f 334/125/329 340/132/335 339/131/334 333/124/328
f 335/126/330 341/133/336 340/132/335 334/125/329
f 336/121/326 342/128/332 341/133/336 335/126/330
f 337/127/331 343/134/337 348/135/338 342/128/332
f 338/129/333 344/136/339 343/137/337 337/130/331
f 339/131/334 345/138/340 344/136/339 338/129/333
f 340/132/335 346/139/341 345/138/340 339/131/334
f 341/133/336 347/140/342 346/139/341 340/132/335
f 342/128/332 348/135/338 347/140/342 341/133/336
f 349/64/343 355/65/344 360/66/345 354/67/346
f 350/68/347 356/69/348 355/70/344 349/71/343
f 351/72/349 357/73/350 356/69/348 350/68/347
f 352/74/351 358/75/352 357/73/350 351/72/349
f 353/76/353 359/77/354 358/75/352 352/74/351
f 354/67/346 360/66/345 359/77/354 353/76/353
f 355/65/344 361/78/355 366/79/356 360/66/345
f 356/69/348 362/80/357 361/81/355 355/70/344
f 357/73/350 363/82/358 362/80/357 356/69/348
f 358/75/352 364/83/359 363/82/358 357/73/350
f 359/77/354 365/84/360 364/83/359 358/75/352
f 360/66/345 366/79/356 365/84/360 359/77/354
f 361/78/355 367/85/361 372/86/362 366/79/356
f 362/80/357 368/87/363 367/88/361 361/81/355
f 363/82/358 369/89/364 368/87/363 362/80/357
f 364/83/359 370/90/365 369/89/364 363/82/358
f 365/84/360 371/91/366 370/90/365 364/83/359
f 366/79/356 372/86/362 371/91/366 365/84/360
f 367/85/361 373/92/367 378/93/368 372/86/362
f 368/87/363 374/94/369 373/95/367 367/88/361
f 369/89/364 375/96/370 374/94/369 368/87/363
f 370/90/365 376/97/371 375/96/370 369/89/364
f 371/91/366 377/98/372 376/97/371 370/90/365
f 372/86/362 378/93/368 377/98/372 371/91/366
f 373/92/367 379/99/373 384/100/374 378/93/368
f 374/94/369 380/101/375 379/102/373 373/95/367
f 375/96/370 381/103/376 380/101/375 374/94/369
f 376/97/371 382/104/377 381/103/376 375/96/370
f 377/98/372 383/105/378 382/104/377 376/97/371
f 378/93/368 384/100/374 383/105/378 377/98/372
f 379/99/373 385/106/379 390/107/380 384/100/374
f 380/101/375 386/108/381 385/109/379 379/102/373
f 381/103/376 387/110/382 386/108/381 380/101/375
f 382/104/377 388/111/383 387/110/382 381/103/376
f 383/105/378 389/112/384 388/111/383 382/104/377
f 384/100/374 390/107/380 389/112/384 383/105/378
f 385/106/379 391/113/385 396/114/386 390/107/380
f 386/108/381 392/115/387 391/116/385 385/109/379
f 387/110/382 393/117/388 392/115/387 386/108/381
f 388/111/383 394/118/389 393/117/388 387/110/382
f 389/112/384 395/119/390 394/118/389 388/111/383
f 390/107/380 396/114/386 395/119/390 389/112/384
f 391/113/385 397/120/391 402/121/392 396/114/386
f 392/115/387 398/122/393 397/123/391 391/116/385
f 393/117/388 399/124/394 398/122/393 392/115/387
f 394/118/389 400/125/395 399/124/394 393/117/388
f 395/119/390 401/126/396 400/125/395 394/118/389
f 396/114/386 402/121/392 401/126/396 395/119/390
f 397/120/391 403/127/397 408/128/398 402/121/392
f 398/122/393 404/129/399 403/130/397 397/123/391
f 399/124/394 405/131/400 404/129/399 398/122/393
f 400/125/395 406/132/401 405/131/400 399/124/394
f 401/126/396 407/133/402 406/132/401 400/125/395
f 402/121/392 408/128/398 407/133/402 401/126/396
f 403/127/397 409/134/403 414/135/404 408/128/398
f 404/129/399 410/136/405 409/137/403 403/130/397
f 405/131/400 411/138/406 410/136/405 404/129/399
f 406/132/401 412/139/407 411/138/406 405/131/400
f 407/133/402 413/140/408 412/139/407 406/132/401
f 408/128/398 414/135/404 413/140/408 407/133/402
s 0
f 478/104/519 484/141/519 485/142/519 479/105/519
f 479/105/12 485/142/12 486/143/12 480/100/12
f 480/100/520 486/143/520 487/144/520 481/99/520
f 481/145/521 487/146/521 488/147/521 482/101/521
f 482/101/25 488/147/25 489/148/25 483/103/25
f 483/103/522 489/148/522 484/141/522 478/104/522
f 484/141/523 490/149/523 491/150/523 485/142/523
f 485/142/12 491/150/12 492/151/12 486/143/12
f 486/143/524 492/151/524 493/152/524 487/144/524
f 487/146/525 493/153/525 494/154/525 488/147/525
f 488/147/25 494/154/25 495/155/25 489/148/25
f 489/148/526 495/155/526 490/149/526 484/141/526
f 490/149/527 496/156/527 497/157/527 491/150/527
f 491/150/12 497/157/12 498/158/12 492/151/12
f 492/151/528 498/158/528 499/159/528 493/152/528
f 493/153/529 499/160/529 500/161/529 494/154/529
f 494/154/25 500/161/25 501/162/25 495/155/25
f 495/155/530 501/162/530 496/156/530 490/149/530
f 496/156/531 502/163/531 503/164/531 497/157/531
f 497/157/12 503/164/12 504/165/12 498/158/12
f 498/158/532 504/165/532 505/166/532 499/159/532
f 499/160/533 505/167/533 506/168/533 500/161/533
f 500/161/25 506/168/25 507/169/25 501/162/25
f 501/162/534 507/169/534 502/163/534 496/156/534
f 502/163/535 508/170/535 509/171/535 503/164/535
f 503/164/12 509/171/12 510/172/12 504/165/12
f 504/165/536 510/172/536 511/173/536 505/166/536
f 505/167/537 511/174/537 512/175/537 506/168/537
f 506/168/25 512/175/25 513/176/25 507/169/25
f 507/169/538 513/176/538 508/170/538 502/163/538
f 508/170/539 514/177/539 515/178/539 509/171/539
f 509/171/12 515/178/12 516/179/12 510/172/12
f 510/172/540 516/179/540 517/180/540 511/173/540
f 511/174/541 517/181/541 518/182/541 512/175/541
f 512/175/25 518/182/25 519/183/25 513/176/25
f 513/176/542 519/183/542 514/177/542 508/170/542
f 514/177/543 520/184/543 521/185/543 515/178/543
f 515/178/12 521/185/12 522/186/12 516/179/12
f 516/179/544 522/186/544 523/187/544 517/180/544
f 517/181/545 523/188/545 524/189/545 518/182/545
f 518/182/25 524/189/25 525/190/25 519/183/25
f 519/183/546 525/190/546 520/184/546 514/177/546
f 520/184/547 526/139/547 527/140/547 521/185/547
f 521/185/12 527/140/12 528/135/12 522/186/12
f 522/186/548 528/135/548 529/134/548 523/187/548
f 523/188/549 529/191/549 530/136/549 524/189/549
f 524/189/25 530/136/25 531/138/25 525/190/25
f 525/190/550 531/138/550 526/139/550 520/184/550
f 526/74/520 532/192/520 533/193/520 527/76/520
f 527/76/12 533/193/12 534/194/12 528/67/12
f 528/67/519 534/194/519 535/195/519 529/64/519
f 529/196/522 535/197/522 536/198/522 530/68/522
f 530/68/25 536/198/25 537/199/25 531/72/25
f 531/72/521 537/199/521 532/192/521 526/74/521
f 532/192/524 538/200/524 539/201/524 533/193/524
f 533/193/12 539/201/12 540/202/12 534/194/12
f 534/194/523 540/202/523 541/203/523 535/195/523
f 535/197/526 541/204/526 542/205/526 536/198/526
f 536/198/25 542/205/25 543/206/25 537/199/25
f 537/199/525 543/206/525 538/200/525 532/192/525
f 538/200/528 544/207/528 545/208/528 539/201/528
f 539/201/12 545/208/12 546/209/12 540/202/12
f 540/202/527 546/209/527 547/210/527 541/203/527
f 541/204/530 547/211/530 548/212/530 542/205/530
f 542/205/25 548/212/25 549/213/25 543/206/25
f 543/206/529 549/213/529 544/207/529 538/200/529
f 544/207/532 550/214/532 551/215/532 545/208/532
f 545/208/12 551/215/12 552/216/12 546/209/12
f 546/209/531 552/216/531 553/217/531 547/210/531
f 547/211/534 553/218/534 554/219/534 548/212/534
f 548/212/25 554/219/25 555/220/25 549/213/25
f 549/213/533 555/220/533 550/214/533 544/207/533
f 550/214/536 556/221/536 557/222/536 551/215/536
f 551/215/12 557/222/12 558/223/12 552/216/12
f 552/216/535 558/223/535 559/224/535 553/217/535
f 553/218/538 559/225/538 560/226/538 554/219/538
f 554/219/25 560/226/25 561/227/25 555/220/25
f 555/220/537 561/227/537 556/221/537 550/214/537
f 556/221/540 562/228/540 563/229/540 557/222/540
f 557/222/12 563/229/12 564/230/12 558/223/12
f 558/223/539 564/230/539 565/231/539 559/224/539
f 559/225/542 565/232/542 566/233/542 560/226/542
f 560/226/25 566/233/25 567/234/25 561/227/25
f 561/227/541 567/234/541 562/228/541 556/221/541
f 562/228/544 568/235/544 569/236/544 563/229/544
f 563/229/12 569/236/12 570/237/12 564/230/12
f 564/230/543 570/237/543 571/238/543 565/231/543
f 565/232/546 571/239/546 572/240/546 566/233/546
f 566/233/25 572/240/25 573/241/25 567/234/25
f 567/234/545 573/241/545 568/235/545 562/228/545
f 568/235/548 478/104/548 479/105/548 569/236/548
f 569/236/12 479/105/12 480/100/12 570/237/12
f 570/237/547 480/100/547 481/99/547 571/238/547
f 571/239/550 481/145/550 482/101/550 572/240/550
f 572/240/25 482/101/25 483/103/25 573/241/25
f 573/241/549 483/103/549 478/104/549 568/235/549
s 1
f 574/1/551 587/2/552 586/3/553
f 575/4/554 587/5/552 589/6/5
f 574/7/551 586/8/553 591/9/6
f 574/10/551 591/11/6 593/12/555
f 574/13/551 593/14/555 590/15/556
f 575/4/554 589/6/5 596/16/557
f 576/17/558 588/18/559 598/19/12
f 577/20/560 592/21/561 600/22/562
f 578/23/563 594/24/564 602/25/565
f 579/26/566 595/27/567 604/28/568
f 575/4/554 596/16/557 599/29/569
f 576/17/558 598/19/12 601/30/570
f 577/20/560 600/22/562 603/31/571
f 578/23/563 602/25/565 605/32/25
f 579/26/566 604/28/568 597/33/572
f 580/34/573 606/35/574 611/36/575
f 581/37/576 607/38/577 613/39/578
f 582/40/579 608/41/34 614/42/580
f 583/43/581 609/44/582 615/45/583
f 584/46/584 610/47/585 612/48/41
f 612/48/41 615/49/583 585/50/586
f 612/48/41 610/47/585 615/49/583
f 610/47/585 583/43/581 615/49/583
f 615/45/583 614/51/580 585/52/586
f 615/45/583 609/44/582 614/51/580
f 609/44/582 582/40/579 614/51/580
f 614/42/580 613/53/578 585/54/586
f 614/42/580 608/41/34 613/53/578
f 608/41/34 581/55/576 613/53/578
f 613/39/578 611/56/575 585/57/586
f 613/39/578 607/38/577 611/56/575
f 607/38/577 580/34/573 611/56/575
f 611/36/575 612/58/41 585/59/586
f 611/36/575 606/35/574 612/58/41
f 606/35/574 584/46/584 612/58/41
f 597/33/572 610/47/585 584/46/584
f 597/33/572 604/28/568 610/47/585
f 604/28/568 583/43/581 610/47/585
f 605/32/25 609/44/582 583/43/581
f 605/32/25 602/25/565 609/44/582
f 602/25/565 582/40/579 609/44/582
f 603/31/571 608/41/34 582/40/579
f 603/31/571 600/22/562 608/41/34
f 600/22/562 581/55/576 608/41/34
f 601/30/570 607/38/577 581/37/576
f 601/30/570 598/19/12 607/38/577
f 598/19/12 580/34/573 607/38/577
f 599/29/569 606/35/574 580/34/573
f 599/29/569 596/16/557 606/35/574
f 596/16/557 584/46/584 606/35/574
f 604/28/568 605/32/25 583/43/581
f 604/28/568 595/27/567 605/32/25
f 595/27/567 578/23/563 605/32/25
f 602/25/565 603/31/571 582/40/579
f 602/25/565 594/24/564 603/31/571
f 594/24/564 577/20/560 603/31/571
f 600/22/562 601/60/570 581/55/576
f 600/22/562 592/21/561 601/60/570
f 592/21/561 576/61/558 601/60/570
f 598/19/12 599/29/569 580/34/573
f 598/19/12 588/18/559 599/29/569
f 588/18/559 575/4/554 599/29/569
f 596/16/557 597/33/572 584/46/584
f 596/16/557 589/6/5 597/33/572
f 589/6/5 579/26/566 597/33/572
f 590/15/556 595/27/567 579/26/566
f 590/15/556 593/14/555 595/27/567
f 593/14/555 578/23/563 595/27/567
f 593/12/555 594/24/564 578/23/563
f 593/12/555 591/11/6 594/24/564
f 591/11/6 577/20/560 594/24/564
f 591/9/6 592/21/561 577/20/560
f 591/9/6 586/8/553 592/21/561
f 586/8/553 576/61/558 592/21/561
f 589/6/5 590/62/556 579/26/566
f 589/6/5 587/5/552 590/62/556
f 587/5/552 574/63/551 590/62/556
f 586/3/553 588/18/559 576/17/558
f 586/3/553 587/2/552 588/18/559
f 587/2/552 575/4/554 588/18/559
usemtl AnomalyCore
f 43/1/43 56/2/44 55/3/45
f 44/4/46 56/5/44 58/6/5
f 43/7/43 55/8/45 60/9/6
f 43/10/43 60/11/6 62/12/47
f 43/13/43 62/14/47 59/15/48
f 44/4/46 58/6/5 65/16/49
f 45/17/50 57/18/51 67/19/12
f 46/20/52 61/21/53 69/22/54
f 47/23/55 63/24/56 71/25/57
f 48/26/58 64/27/59 73/28/60
f 44/4/46 65/16/49 68/29/61
f 45/17/50 67/19/12 70/30/62
f 46/20/52 69/22/54 72/31/63
f 47/23/55 71/25/57 74/32/25
f 48/26/58 73/28/60 66/33/64
f 49/34/65 75/35/66 80/36/67
f 50/37/68 76/38/69 82/39/70
f 51/40/71 77/41/34 83/42/72
f 52/43/73 78/44/74 84/45/75
f 53/46/76 79/47/77 81/48/41
f 81/48/41 84/49/75 54/50/78
f 81/48/41 79/47/77 84/49/75
f 79/47/77 52/43/73 84/49/75
f 84/45/75 83/51/72 54/52/78
f 84/45/75 78/44/74 83/51/72
f 78/44/74 51/40/71 83/51/72
f 83/42/72 82/53/70 54/54/78
f 83/42/72 77/41/34 82/53/70
f 77/41/34 50/55/68 82/53/70
f 82/39/70 80/56/67 54/57/78
f 82/39/70 76/38/69 80/56/67
f 76/38/69 49/34/65 80/56/67
f 80/36/67 81/58/41 54/59/78
f 80/36/67 75/35/66 81/58/41
f 75/35/66 53/46/76 81/58/41
f 66/33/64 79/47/77 53/46/76
f 66/33/64 73/28/60 79/47/77
f 73/28/60 52/43/73 79/47/77
f 74/32/25 78/44/74 52/43/73
f 74/32/25 71/25/57 78/44/74
f 71/25/57 51/40/71 78/44/74
f 72/31/63 77/41/34 51/40/71
f 72/31/63 69/22/54 77/41/34
f 69/22/54 50/55/68 77/41/34
f 70/30/62 76/38/69 50/37/68
f 70/30/62 67/19/12 76/38/69
f 67/19/12 49/34/65 76/38/69
f 68/29/61 75/35/66 49/34/65
f 68/29/61 65/16/49 75/35/66
f 65/16/49 53/46/76 75/35/66
f 73/28/60 74/32/25 52/43/73
f 73/28/60 64/27/59 74/32/25
f 64/27/59 47/23/55 74/32/25
f 71/25/57 72/31/63 51/40/71
f 71/25/57 63/24/56 72/31/63
f 63/24/56 46/20/52 72/31/63
f 69/22/54 70/60/62 50/55/68
f 69/22/54 61/21/53 70/60/62
f 61/21/53 45/61/50 70/60/62
f 67/19/12 68/29/61 49/34/65
f 67/19/12 57/18/51 68/29/61
f 57/18/51 44/4/46 68/29/61
f 65/16/49 66/33/64 53/46/76
f 65/16/49 58/6/5 66/33/64
f 58/6/5 48/26/58 66/33/64
f 59/15/48 64/27/59 48/26/58
f 59/15/48 62/14/47 64/27/59
f 62/14/47 47/23/55 64/27/59
f 62/12/47 63/24/56 47/23/55
f 62/12/47 60/11/6 63/24/56
f 60/11/6 46/20/52 63/24/56
f 60/9/6 61/21/53 46/20/52
f 60/9/6 55/8/45 61/21/53
f 55/8/45 45/61/50 61/21/53
f 58/6/5 59/62/48 48/26/58
f 58/6/5 56/5/44 59/62/48
f 56/5/44 43/63/43 59/62/48
f 55/3/45 57/18/51 45/17/50
f 55/3/45 56/2/44 57/18/51
f 56/2/44 44/4/46 57/18/51
s 0
usemtl GlacierIce
f 415/1/409 428/2/409 427/3/409
f 416/4/410 428/5/410 430/6/410
f 415/7/411 427/8/411 432/9/411
f 415/10/412 432/11/412 434/12/412
f 415/13/413 434/14/413 431/15/413
f 416/4/414 430/6/414 437/16/414
f 417/17/415 429/18/415 439/19/415
f 418/20/416 433/21/416 441/22/416
f 419/23/417 435/24/417 443/25/417
f 420/26/418 436/27/418 445/28/418
f 416/4/419 437/16/419 440/29/419
f 417/17/420 439/19/420 442/30/420
f 418/20/421 441/22/421 444/31/421
f 419/23/422 443/25/422 446/32/422
f 420/26/423 445/28/423 438/33/423
f 421/34/424 447/35/424 452/36/424
f 422/37/425 448/38/425 454/39/425
f 423/40/426 449/41/426 455/42/426
f 424/43/427 450/44/427 456/45/427
f 425/46/428 451/47/428 453/48/428
f 453/48/429 456/49/429 426/50/429
f 453/48/430 451/47/430 456/49/430
f 451/47/431 424/43/431 456/49/431
f 456/45/432 455/51/432 426/52/432
f 456/45/433 450/44/433 455/51/433
f 450/44/434 423/40/434 455/51/434
f 455/42/435 454/53/435 426/54/435
f 455/42/436 449/41/436 454/53/436
f 449/41/437 422/55/437 454/53/437
f 454/39/438 452/56/438 426/57/438
f 454/39/439 448/38/439 452/56/439
f 448/38/440 421/34/440 452/56/440
f 452/36/441 453/58/441 426/59/441
f 452/36/442 447/35/442 453/58/442
f 447/35/443 425/46/443 453/58/443
f 438/33/444 451/47/444 425/46/444
f 438/33/445 445/28/445 451/47/445
f 445/28/446 424/43/446 451/47/446
f 446/32/447 450/44/447 424/43/447
f 446/32/448 443/25/448 450/44/448
f 443/25/449 423/40/449 450/44/449
f 444/31/450 449/41/450 423/40/450
f 444/31/451 441/22/451 449/41/451
f 441/22/452 422/55/452 449/41/452
f 442/30/453 448/38/453 422/37/453
f 442/30/454 439/19/454 448/38/454
f 439/19/455 421/34/455 448/38/455
f 440/29/456 447/35/456 421/34/456
f 440/29/457 437/16/457 447/35/457
f 437/16/458 425/46/458 447/35/458
f 445/28/459 446/32/459 424/43/459
f 445/28/460 436/27/460 446/32/460
f 436/27/461 419/23/461 446/32/461
f 443/25/462 444/31/462 423/40/462
f 443/25/463 435/24/463 444/31/463
f 435/24/464 418/20/464 444/31/464
f 441/22/465 442/60/465 422/55/465
f 441/22/466 433/21/466 442/60/466
f 433/21/467 417/61/467 442/60/467
f 439/19/468 440/29/468 421/34/468
f 439/19/469 429/18/469 440/29/469
f 429/18/470 416/4/470 440/29/470
f 437/16/471 438/33/471 425/46/471
f 437/16/472 430/6/472 438/33/472
f 430/6/473 420/26/473 438/33/473
f 431/15/474 436/27/474 420/26/474
f 431/15/475 434/14/475 436/27/475
f 434/14/476 419/23/476 436/27/476
f 434/12/477 435/24/477 419/23/477
f 434/12/478 432/11/478 435/24/478
f 432/11/479 418/20/479 435/24/479
f 432/9/480 433/21/480 418/20/480
f 432/9/481 427/8/481 433/21/481
f 427/8/482 417/61/482 433/21/482
f 430/6/483 431/62/483 420/26/483
f 430/6/484 428/5/484 431/62/484
f 428/5/485 415/63/485 431/62/485
f 427/3/486 429/18/486 417/17/486
f 427/3/487 428/2/487 429/18/487
f 428/2/488 416/4/488 429/18/488
usemtl FrostedArmor
f 457/71/489 459/71/489 458/71/489
f 458/71/490 459/71/490 463/71/490
f 457/71/491 460/71/491 459/71/491
f 459/71/492 460/71/492 463/71/492
f 457/71/493 461/71/493 460/71/493
f 460/71/494 461/71/494 463/71/494
f 457/71/495 462/71/495 461/71/495
f 461/71/496 462/71/496 463/71/496
f 457/71/497 458/71/497 462/71/497
f 462/71/498 458/71/498 463/71/498
f 464/71/499 466/71/499 465/71/499
f 465/71/500 466/71/500 470/71/500
f 464/71/501 467/71/501 466/71/501
f 466/71/502 467/71/502 470/71/502
f 464/71/503 468/71/503 467/71/503
f 467/71/504 468/71/504 470/71/504
f 464/71/505 469/71/505 468/71/505
f 468/71/506 469/71/506 470/71/506
f 464/71/507 465/71/507 469/71/507
f 469/71/508 465/71/508 470/71/508
f 471/71/509 473/71/509 472/71/509
f 472/71/510 473/71/510 477/71/510
f 471/71/511 474/71/511 473/71/511
f 473/71/512 474/71/512 477/71/512
f 471/71/513 475/71/513 474/71/513
f 474/71/514 475/71/514 477/71/514
f 471/71/515 476/71/515 475/71/515
f 475/71/516 476/71/516 477/71/516
f 471/71/517 472/71/517 476/71/517
f 476/71/518 472/71/518 477/71/518
