# Blender 4.4.1
# www.blender.org
mtllib SwarmEnemy.mtl
o SwarmEnemy
v 0.000000 0.000000 -0.350000
v -0.253260 0.143522 -0.156525
v 0.096735 0.232225 -0.156525
v 0.313049 0.000000 -0.156525
v 0.096735 -0.232225 -0.156525
v -0.253260 -0.143522 -0.156525
v -0.096735 0.232225 0.156525
v 0.253260 0.143522 0.156525
v 0.253260 -0.143522 0.156525
v -0.096735 -0.232225 0.156525
v -0.313049 0.000000 0.156525
v 0.000000 0.000000 0.350000
v 0.000000 0.245000 -0.140000
v -0.113967 0.327801 -0.052936
v 0.043531 0.378976 -0.052936
v 0.140872 0.245000 -0.052936
v 0.043531 0.111024 -0.052936
v -0.113967 0.162199 -0.052936
v -0.043531 0.378976 0.087936
v 0.113967 0.327801 0.087936
v 0.113967 0.162199 0.087936
v -0.043531 0.111024 0.087936
v -0.140872 0.245000 0.087936
v 0.000000 0.245000 0.175000
v 0.000000 0.039474 -0.240790
v -0.450000 -0.160000 0.218000
v -0.139058 -0.356242 0.132677
v 0.364058 -0.281284 0.165268
v 0.364058 -0.038716 0.270732
v -0.139058 0.036242 0.303322
v 0.000000 -0.500000 1.000000
v 0.116906 -0.077937 0.027578
v 0.219966 -0.411051 -0.160000
v 0.254690 -0.251500 -0.245972
v 0.410074 -0.059473 -0.213133
v 0.471381 -0.100344 -0.106867
v 0.353888 -0.317632 -0.074028
v 0.750000 -0.500000 -0.500000
v -0.120212 -0.076169 0.029788
v -0.447433 -0.056209 -0.160000
v -0.302191 -0.134691 -0.242455
v -0.167741 -0.342123 -0.210960
v -0.229888 -0.391841 -0.109040
v -0.402747 -0.215136 -0.077545
v -0.650000 -0.500000 -0.500000
vn -0.0000 -0.0000 -1.0000
vn -0.6667 0.6210 -0.4121
vn 0.2283 0.9008 -0.3694
vn -0.6667 -0.6210 -0.4121
vn 0.8944 -0.0000 -0.4472
vn 0.2283 -0.9008 -0.3694
vn -0.8944 -0.0000 0.4472
vn -0.2283 0.9008 0.3694
vn 0.6667 0.6210 0.4121
vn 0.6667 -0.6210 0.4121
vn -0.2283 -0.9008 0.3694
vn -0.0000 -0.0000 1.0000
vn -0.0009 -0.0000 -1.0000
vn -0.6897 0.5853 -0.4263
vn 0.2413 0.8884 -0.3905
vn -0.6897 -0.5853 -0.4263
vn 0.8948 -0.0000 -0.4464
vn 0.2413 -0.8884 -0.3905
vn -0.8948 -0.0000 0.4464
vn -0.2413 0.8884 0.3905
vn 0.6897 0.5853 0.4263
vn 0.6897 -0.5853 0.4263
vn -0.2413 -0.8884 0.3905
vn 0.0009 -0.0000 1.0000
vn -0.5050 -0.4919 -0.7092
vn -0.5431 -0.8380 -0.0518
vn 0.1500 -0.7060 -0.6922
vn 0.1566 -0.9700 -0.1859
vn 0.8086 0.2346 -0.5396
vn 0.9197 -0.1566 0.3601
vn 0.1500 0.9877 0.0442
vn 0.1566 0.7975 0.5826
vn -0.5050 0.8541 -0.1240
vn -0.5431 0.6095 0.5775
vn -0.9015 -0.0361 -0.4312
vn -0.5502 -0.3001 -0.7792
vn -0.5496 0.5520 -0.6271
vn -0.2700 0.3704 -0.8888
vn 0.1628 0.9487 0.2710
vn 0.7270 0.6670 -0.1629
vn 0.3515 -0.0488 0.9349
vn 0.6550 -0.2462 0.7144
vn -0.1711 -0.5231 0.8349
vn 0.2144 -0.8099 0.5461
vn 0.2695 0.8886 -0.3711
vn -0.0948 0.6323 -0.7689
vn 0.7270 0.3849 -0.5687
vn 0.4652 0.1696 -0.8688
vn 0.8487 -0.4302 0.3077
vn 0.4059 -0.8942 -0.1887
vn -0.1819 -0.3422 0.9218
vn -0.4706 -0.5790 0.6658
vn -0.4646 0.3014 0.8327
vn -0.8672 0.0144 0.4978
vt 0.181819 0.000000
vt 0.272728 0.157461
vt 0.090910 0.157461
vt 0.363637 0.000000
vt 0.454546 0.157461
vt 0.909091 0.000000
vt 1.000000 0.157461
vt 0.818182 0.157461
vt 0.727273 0.000000
vt 0.636364 0.157461
vt 0.545455 0.000000
vt 0.363637 0.314921
vt 0.181819 0.314921
vt 0.909091 0.314921
vt 0.727273 0.314921
vt 0.545455 0.314921
vt 0.000000 0.314921
vt 0.272728 0.472382
vt 0.090910 0.472382
vt 0.818182 0.472382
vt 0.636364 0.472382
vt 0.454546 0.472382
vt 0.000000 0.000000
s 1
usemtl UnknownOrganicMatter
f 1/1/1 2/2/2 3/3/3
f 2/2/2 1/4/1 6/5/4
f 1/6/1 3/7/3 4/8/5
f 1/9/1 4/8/5 5/10/6
f 1/11/1 5/10/6 6/5/4
f 2/2/2 6/5/4 11/12/7
f 3/3/3 2/2/2 7/13/8
f 4/8/5 3/7/3 8/14/9
f 5/10/6 4/8/5 9/15/10
f 6/5/4 5/10/6 10/16/11
f 2/2/2 11/12/7 7/13/8
f 3/3/3 7/13/8 8/17/9
f 4/8/5 8/14/9 9/15/10
f 5/10/6 9/15/10 10/16/11
f 6/5/4 10/16/11 11/12/7
f 7/13/8 11/12/7 12/18/12
f 8/17/9 7/13/8 12/19/12
f 9/15/10 8/14/9 12/20/12
f 10/16/11 9/15/10 12/21/12
f 11/12/7 10/16/11 12/22/12
usemtl AnomalyCore
f 13/1/13 14/2/14 15/3/15
f 14/2/14 13/4/13 18/5/16
f 13/6/13 15/7/15 16/8/17
f 13/9/13 16/8/17 17/10/18
f 13/11/13 17/10/18 18/5/16
f 14/2/14 18/5/16 23/12/19
f 15/3/15 14/2/14 19/13/20
f 16/8/17 15/7/15 20/14/21
f 17/10/18 16/8/17 21/15/22
f 18/5/16 17/10/18 22/16/23
f 14/2/14 23/12/19 19/13/20
f 15/3/15 19/13/20 20/17/21
f 16/8/17 20/14/21 21/15/22
f 17/10/18 21/15/22 22/16/23
f 18/5/16 22/16/23 23/12/19
f 19/13/20 23/12/19 24/18/24
f 20/17/21 19/13/20 24/19/24
f 21/15/22 20/14/21 24/20/24
f 22/16/23 21/15/22 24/21/24
f 23/12/19 22/16/23 24/22/24
s 0
usemtl GlacierIce
f 25/23/25 27/23/25 26/23/25
f 26/23/26 27/23/26 31/23/26
f 25/23/27 28/23/27 27/23/27
f 27/23/28 28/23/28 31/23/28
f 25/23/29 29/23/29 28/23/29
f 28/23/30 29/23/30 31/23/30
f 25/23/31 30/23/31 29/23/31
f 29/23/32 30/23/32 31/23/32
f 25/23/33 26/23/33 30/23/33
f 30/23/34 26/23/34 31/23/34
f 32/23/35 34/23/35 33/23/35
f 33/23/36 34/23/36 38/23/36
f 32/23/37 35/23/37 34/23/37
f 34/23/38 35/23/38 38/23/38
f 32/23/39 36/23/39 35/23/39
f 35/23/40 36/23/40 38/23/40
f 32/23/41 37/23/41 36/23/41
f 36/23/42 37/23/42 38/23/42
f 32/23/43 33/23/43 37/23/43
f 37/23/44 33/23/44 38/23/44
f 39/23/45 41/23/45 40/23/45
f 40/23/46 41/23/46 45/23/46
f 39/23/47 42/23/47 41/23/47
f 41/23/48 42/23/48 45/23/48
f 39/23/49 43/23/49 42/23/49
f 42/23/50 43/23/50 45/23/50
f 39/23/51 44/23/51 43/23/51
f 43/23/52 44/23/52 45/23/52
f 39/23/53 40/23/53 44/23/53
f 44/23/54 40/23/54 45/23/54
