# Blender 4.4.1
# www.blender.org
mtllib MoveEnemy.mtl
o MoveEnemy
v 0.000000 -0.331642 0.000000
v 0.239978 -0.148317 0.135995
v -0.091662 -0.148317 0.220046
v -0.296629 -0.148315 0.000000
v -0.091662 -0.148317 -0.220046
v 0.239978 -0.148317 -0.135995
v 0.091662 0.148317 0.220046
v -0.239978 0.148317 0.135995
v -0.239978 0.148317 -0.135995
v 0.091662 0.148317 -0.220046
v 0.296629 0.148315 0.000000
v 0.000000 0.331642 0.000000
v -0.053877 -0.282113 0.129339
v 0.141055 -0.282112 0.079935
v 0.087178 -0.174357 0.209276
v 0.282110 -0.174356 0.000000
v 0.141055 -0.282112 -0.079935
v -0.174354 -0.282112 0.000000
v -0.228232 -0.174356 0.129340
v -0.053877 -0.282113 -0.129339
v -0.228232 -0.174356 -0.129340
v 0.087178 -0.174357 -0.209276
v 0.315411 0.000000 0.079936
v 0.315411 0.000000 -0.079936
v 0.000000 0.000000 0.258681
v 0.194934 0.000000 0.209277
v -0.315411 0.000000 0.079936
v -0.194934 0.000000 0.209277
v -0.194934 0.000000 -0.209277
v -0.315411 0.000000 -0.079936
v 0.194934 0.000000 -0.209277
v 0.000000 0.000000 -0.258681
v 0.228232 0.174356 0.129340
v -0.087178 0.174357 0.209276
v -0.282110 0.174356 0.000000
v -0.087178 0.174357 -0.209276
v 0.228232 0.174356 -0.129340
v 0.053877 0.282113 0.129339
v 0.174354 0.282112 0.000000
v -0.141055 0.282112 0.079935
v -0.141055 0.282112 -0.079935
v 0.053877 0.282113 -0.129339
v 0.000000 -0.132657 0.232149
v 0.107990 -0.050160 0.310608
v -0.041248 -0.050160 0.359099
v -0.133483 -0.050160 0.232149
v -0.041248 -0.050160 0.105199
v 0.107990 -0.050160 0.153691
v 0.041248 0.083325 0.359099
v -0.107990 0.083325 0.310608
v -0.107990 0.083325 0.153691
v 0.041248 0.083325 0.105199
v 0.133483 0.083324 0.232149
v 0.000000 0.165821 0.232149
v -0.024245 -0.110369 0.306768
v 0.063475 -0.110369 0.278266
v 0.039230 -0.061878 0.352885
v 0.126950 -0.061878 0.232149
v 0.063475 -0.110369 0.186033
v -0.078459 -0.110368 0.232149
v -0.102705 -0.061878 0.306768
v -0.024245 -0.110369 0.157531
v -0.102705 -0.061878 0.157530
v 0.039230 -0.061878 0.111413
v 0.141935 0.016582 0.278266
v 0.141935 0.016582 0.186033
v 0.000000 0.016582 0.381388
v 0.087720 0.016582 0.352886
v -0.141935 0.016582 0.278266
v -0.087720 0.016582 0.352886
v -0.087720 0.016582 0.111413
v -0.141935 0.016582 0.186033
v 0.087720 0.016582 0.111413
v 0.000000 0.016582 0.082910
v 0.102705 0.095042 0.306768
v -0.039230 0.095043 0.352885
v -0.126950 0.095042 0.232149
v -0.039230 0.095043 0.111413
v 0.102705 0.095042 0.157530
v 0.024245 0.143533 0.306768
v 0.078459 0.143532 0.232149
v -0.063475 0.143533 0.278266
v -0.063475 0.143533 0.186033
v 0.024245 0.143533 0.157531
v 0.103964 0.019160 0.286827
v 0.118825 0.019160 0.304662
v 0.130935 -0.000000 0.309680
v 0.128185 -0.019160 0.296863
v 0.113324 -0.019160 0.279028
v 0.101214 0.000000 0.274010
v 0.129640 0.029352 0.267135
v 0.143405 0.028914 0.285823
v 0.154908 0.009511 0.291315
v 0.152645 -0.009453 0.278118
v 0.138880 -0.009015 0.259429
v 0.127377 0.010388 0.253938
v 0.153054 0.038188 0.250980
v 0.166554 0.037648 0.269858
v 0.177909 0.018189 0.275455
v 0.175765 -0.000731 0.262174
v 0.162265 -0.000191 0.243295
v 0.150910 0.019269 0.237698
v 0.174397 0.046395 0.235654
v 0.188861 0.046233 0.253811
v 0.200751 0.026983 0.259008
v 0.198177 0.007896 0.246048
v 0.183713 0.008058 0.227891
v 0.171823 0.027307 0.222694
v 0.194267 0.054814 0.218326
v 0.210587 0.055449 0.234824
v 0.223507 0.036642 0.239100
v 0.220107 0.017199 0.226879
v 0.203787 0.016565 0.210381
v 0.190867 0.035372 0.206104
v 0.213508 0.064384 0.195981
v 0.231799 0.066000 0.210186
v 0.245813 0.047737 0.213189
v 0.241535 0.027858 0.201989
v 0.223244 0.026242 0.187785
v 0.209231 0.044505 0.184781
v 0.237409 0.078815 0.158231
v 0.257321 0.081408 0.169881
v 0.272234 0.063687 0.171468
v 0.267235 0.043373 0.161404
v 0.247323 0.040780 0.149754
v 0.232410 0.058500 0.148168
v 0.253767 0.091385 0.121812
v 0.274728 0.094765 0.131200
v 0.290222 0.077481 0.131533
v 0.284756 0.056817 0.122476
v 0.263795 0.053436 0.113087
v 0.248301 0.070720 0.112755
v 0.266480 0.103459 0.084452
v 0.287851 0.107211 0.092707
v 0.303573 0.090133 0.092410
v 0.297924 0.069303 0.083858
v 0.276553 0.065551 0.075603
v 0.260831 0.082629 0.075900
v 0.279342 0.116307 0.044168
v 0.300608 0.119959 0.052733
v 0.316272 0.102826 0.052608
v 0.310670 0.082040 0.043918
v 0.289404 0.078388 0.035354
v 0.273740 0.095522 0.035479
v 0.296148 0.131092 -0.000595
v 0.316915 0.134313 0.009268
v 0.332303 0.116940 0.009862
v 0.326923 0.096347 0.000595
v 0.306155 0.093126 -0.009268
v 0.290768 0.110498 -0.009862
v 0.025925 0.122721 0.308817
v 0.049021 0.122721 0.306473
v 0.058965 0.110394 0.289501
v 0.045814 0.098066 0.274872
v 0.022717 0.098066 0.277216
v 0.012773 0.110394 0.294189
v 0.024268 0.148740 0.290249
v 0.047379 0.148525 0.288060
v 0.057264 0.137095 0.270437
v 0.044038 0.125879 0.255003
v 0.020927 0.126093 0.257192
v 0.011043 0.137524 0.274815
v 0.023120 0.173364 0.274345
v 0.046233 0.173098 0.272190
v 0.056107 0.161884 0.254423
v 0.042867 0.150936 0.238809
v 0.019754 0.151202 0.240963
v 0.009880 0.162416 0.258731
v 0.021829 0.197560 0.258069
v 0.044931 0.197482 0.255784
v 0.054851 0.185480 0.238566
v 0.041670 0.173556 0.223633
v 0.018567 0.173633 0.225918
v 0.008647 0.185635 0.243136
v 0.019719 0.221709 0.238556
v 0.042787 0.221997 0.235968
v 0.052848 0.208462 0.220015
v 0.039841 0.194638 0.206649
v 0.016772 0.194350 0.209237
v 0.006711 0.207885 0.225190
v 0.016136 0.245833 0.213190
v 0.039146 0.246518 0.210185
v 0.049454 0.231323 0.195980
v 0.036753 0.215443 0.184780
v 0.013743 0.214758 0.187785
v 0.003435 0.229953 0.201990
v 0.009233 0.275452 0.172075
v 0.032165 0.276473 0.168605
v 0.042799 0.259872 0.156348
v 0.030503 0.242251 0.147560
v 0.007571 0.241230 0.151030
v -0.003063 0.257831 0.163288
v 0.001774 0.296528 0.132678
v 0.024628 0.297774 0.128796
v 0.035586 0.280228 0.118262
v 0.023691 0.261435 0.111610
v 0.000837 0.260188 0.115492
v -0.010122 0.277735 0.126025
v -0.006079 0.313014 0.093824
v 0.016734 0.314353 0.089736
v 0.027865 0.296421 0.080067
v 0.016183 0.277152 0.074486
v -0.006630 0.275813 0.078574
v -0.017761 0.293745 0.088243
v -0.014242 0.329045 0.053949
v 0.008583 0.330360 0.049917
v 0.019666 0.312528 0.040011
v 0.007925 0.293382 0.034138
v -0.014899 0.292067 0.038170
v -0.025983 0.309899 0.048075
v -0.022772 0.348798 0.010895
v 0.000099 0.350002 0.007099
v 0.010987 0.332633 -0.003796
v -0.000995 0.314060 -0.010895
v -0.023866 0.312856 -0.007099
v -0.034755 0.330225 0.003796
v -0.098193 0.087984 0.303257
v -0.083781 0.087984 0.285056
v -0.079495 0.068227 0.273645
v -0.089620 0.048470 0.280433
v -0.104031 0.048470 0.298633
v -0.108318 0.068227 0.310045
v -0.123370 0.094428 0.284748
v -0.109987 0.094689 0.265780
v -0.106652 0.075173 0.253659
v -0.116700 0.055396 0.260505
v -0.130083 0.055136 0.279472
v -0.133418 0.074652 0.291594
v -0.147125 0.100941 0.268856
v -0.133989 0.101267 0.249718
v -0.130883 0.081812 0.237438
v -0.140912 0.062031 0.244297
v -0.154048 0.061704 0.263436
v -0.157154 0.081159 0.275715
v -0.170605 0.107208 0.252531
v -0.156568 0.107299 0.234041
v -0.152628 0.087627 0.222361
v -0.162725 0.067864 0.229171
v -0.176762 0.067772 0.247661
v -0.180702 0.087444 0.259341
v -0.194361 0.112695 0.232902
v -0.178552 0.112385 0.215904
v -0.172973 0.092342 0.205605
v -0.183203 0.072608 0.212303
v -0.199012 0.072918 0.229300
v -0.204591 0.092961 0.239600
v -0.218564 0.116768 0.207376
v -0.200801 0.116130 0.192442
v -0.193416 0.095784 0.184051
v -0.203793 0.076075 0.190594
v -0.221555 0.076712 0.205528
v -0.228941 0.097059 0.213919
v -0.248998 0.119367 0.166083
v -0.229539 0.118583 0.153447
v -0.220584 0.098102 0.147182
v -0.231088 0.078404 0.153552
v -0.250547 0.079187 0.166188
v -0.259502 0.099669 0.172454
v -0.271438 0.118784 0.126528
v -0.250799 0.118018 0.115926
v -0.240754 0.097554 0.111542
v -0.251347 0.077855 0.117759
v -0.271985 0.078620 0.128361
v -0.282031 0.099084 0.132746
v -0.289583 0.116406 0.087596
v -0.268449 0.115694 0.078014
v -0.257946 0.095279 0.074573
v -0.268576 0.075575 0.080714
v -0.289710 0.076287 0.090296
v -0.300213 0.096702 0.093737
v -0.307341 0.113598 0.047742
v -0.286337 0.112869 0.037881
v -0.275953 0.092438 0.034183
v -0.286574 0.072735 0.040345
v -0.307578 0.073465 0.050205
v -0.317962 0.093896 0.053903
v -0.328717 0.111592 0.004778
v -0.308304 0.110813 -0.006250
v -0.298466 0.090336 -0.011028
v -0.309042 0.070638 -0.004778
v -0.329456 0.071417 0.006250
v -0.339293 0.091894 0.011028
v -0.111138 -0.053402 0.287130
v -0.091932 -0.053402 0.274089
v -0.074701 -0.068227 0.278804
v -0.076675 -0.083052 0.296559
v -0.095881 -0.083052 0.309600
v -0.113112 -0.068227 0.304886
v -0.125538 -0.076135 0.267956
v -0.106893 -0.077025 0.254153
v -0.089694 -0.091902 0.258824
v -0.091139 -0.105887 0.277297
v -0.109784 -0.104996 0.291099
v -0.126984 -0.090120 0.286428
v -0.139193 -0.096901 0.251916
v -0.120686 -0.098004 0.237944
v -0.103495 -0.112893 0.242605
v -0.104810 -0.126678 0.261238
v -0.123317 -0.125574 0.275210
v -0.140508 -0.110686 0.270549
v -0.151974 -0.116614 0.236153
v -0.132969 -0.116939 0.222825
v -0.115749 -0.131783 0.227522
v -0.117534 -0.146301 0.245549
v -0.136538 -0.145977 0.258877
v -0.153758 -0.131133 0.254180
v -0.163727 -0.136157 0.217819
v -0.143800 -0.134933 0.205971
v -0.126527 -0.149688 0.210754
v -0.129180 -0.165666 0.227386
v -0.149107 -0.166890 0.239233
v -0.166380 -0.152135 0.234450
v -0.174285 -0.156392 0.194084
v -0.153451 -0.153427 0.184283
v -0.136125 -0.168081 0.189184
v -0.139634 -0.185701 0.203886
v -0.160469 -0.188667 0.213687
v -0.177794 -0.174012 0.208786
v -0.185586 -0.183173 0.154785
v -0.164094 -0.178651 0.147263
v -0.146731 -0.193216 0.152296
v -0.150860 -0.212302 0.164850
v -0.172352 -0.216823 0.172372
v -0.189715 -0.202259 0.167340
v -0.191665 -0.203716 0.116995
v -0.169828 -0.198077 0.111491
v -0.152445 -0.212577 0.116639
v -0.156899 -0.232717 0.127292
v -0.178735 -0.238357 0.132796
v -0.196118 -0.223856 0.127648
v -0.194922 -0.221285 0.078948
v -0.172984 -0.215162 0.074456
v -0.155595 -0.229635 0.079663
v -0.160144 -0.250230 0.089362
v -0.182081 -0.256353 0.093854
v -0.199470 -0.241881 0.088647
v -0.197759 -0.239154 0.038852
v -0.175845 -0.233158 0.034084
v -0.158457 -0.247637 0.039275
v -0.162984 -0.268113 0.049234
v -0.184898 -0.274109 0.054003
v -0.202286 -0.259629 0.048812
v -0.202575 -0.260604 -0.005124
v -0.180794 -0.255181 -0.011051
v -0.163414 -0.269693 -0.005927
v -0.167815 -0.289629 0.005124
v -0.189595 -0.295053 0.011051
v -0.206975 -0.280540 0.005927
v 0.034806 -0.094350 0.275099
v 0.052554 -0.094350 0.290064
v 0.053616 -0.110394 0.306810
v 0.036932 -0.126437 0.308591
v 0.019184 -0.126437 0.293625
v 0.018122 -0.110394 0.276879
v 0.052767 -0.116019 0.255031
v 0.070063 -0.115477 0.270507
v 0.070374 -0.130618 0.288102
v 0.053389 -0.146301 0.290221
v 0.036093 -0.146843 0.274745
v 0.035782 -0.131702 0.257150
v 0.068484 -0.135654 0.238793
v 0.085673 -0.134980 0.254382
v 0.085806 -0.149901 0.272166
v 0.068750 -0.165497 0.274361
v 0.051562 -0.166171 0.258772
v 0.051429 -0.151250 0.240988
v 0.082595 -0.153063 0.223785
v 0.100177 -0.152868 0.238943
v 0.100965 -0.168585 0.256009
v 0.084170 -0.184499 0.257917
v 0.066588 -0.184694 0.242759
v 0.065801 -0.168977 0.225693
v 0.096156 -0.168690 0.207187
v 0.114535 -0.169403 0.221353
v 0.116647 -0.186633 0.236768
v 0.100381 -0.203149 0.238017
v 0.082003 -0.202436 0.223852
v 0.079890 -0.185207 0.208437
v 0.110524 -0.183341 0.185853
v 0.129825 -0.184994 0.198646
v 0.133473 -0.203787 0.211778
v 0.117819 -0.220927 0.212117
v 0.098518 -0.219274 0.199324
v 0.094871 -0.200481 0.186192
v 0.131005 -0.201067 0.149228
v 0.151161 -0.203461 0.160493
v 0.156232 -0.223488 0.171083
v 0.141147 -0.241120 0.170408
v 0.120990 -0.238726 0.159142
v 0.115919 -0.218699 0.148552
v 0.147542 -0.212407 0.113804
v 0.168340 -0.215253 0.123717
v 0.174479 -0.236030 0.132056
v 0.159819 -0.253962 0.130483
v 0.139021 -0.251116 0.120571
v 0.132882 -0.230339 0.112231
v 0.162742 -0.220645 0.076944
v 0.183827 -0.223656 0.086178
v 0.190444 -0.244707 0.093389
v 0.175975 -0.262748 0.091366
v 0.154889 -0.259738 0.082132
v 0.148273 -0.238686 0.074921
v 0.178992 -0.228938 0.036524
v 0.200002 -0.231907 0.045944
v 0.206491 -0.252890 0.053463
v 0.191971 -0.270904 0.051562
v 0.170962 -0.267934 0.042143
v 0.164472 -0.246951 0.034624
v 0.198495 -0.240503 -0.008811
v 0.219167 -0.243268 0.001385
v 0.225095 -0.263912 0.010196
v 0.210351 -0.281790 0.008811
v 0.189679 -0.279025 -0.001385
v 0.183751 -0.258381 -0.010196
v -0.162587 -0.022108 0.044216
v -0.342988 0.086830 -0.541543
v -0.527626 -0.108114 -0.310770
v -0.743077 -0.033652 0.109485
v -0.691595 0.207312 0.138443
v -0.444326 0.281774 -0.263914
v -1.205970 0.271343 -0.542687
v -0.119580 0.028130 0.077835
v -0.110469 0.028130 0.045947
v -0.111486 0.000000 0.028410
v -0.121615 -0.028130 0.042762
v -0.130725 -0.028130 0.074650
v -0.129708 -0.000000 0.092187
v -0.211735 0.046956 0.054729
v -0.204258 0.047293 0.022421
v -0.205763 0.019264 0.004759
v -0.214743 -0.009103 0.019406
v -0.222220 -0.009440 0.051715
v -0.220716 0.018590 0.069376
v -0.295139 0.062980 0.037369
v -0.288051 0.063393 0.004974
v -0.289671 0.035386 -0.012713
v -0.298379 0.006966 0.001994
v -0.305468 0.006553 0.034390
v -0.303848 0.034560 0.052077
v -0.374971 0.078694 0.019437
v -0.366459 0.078820 -0.012616
v -0.367655 0.050728 -0.030202
v -0.377363 0.022509 -0.015734
v -0.385875 0.022382 0.016319
v -0.384679 0.050475 0.033905
v -0.456132 0.096555 -0.005397
v -0.444750 0.096042 -0.036543
v -0.445091 0.067759 -0.053858
v -0.456814 0.039989 -0.040027
v -0.468196 0.040503 -0.008882
v -0.467855 0.068786 0.008433
v -0.543339 0.118987 -0.043417
v -0.528623 0.117615 -0.073106
v -0.527970 0.089076 -0.089987
v -0.542034 0.061909 -0.077180
v -0.556751 0.063281 -0.047491
v -0.557403 0.091820 -0.030610
v -0.644668 0.149395 -0.102800
v -0.626827 0.147086 -0.130661
v -0.625244 0.118268 -0.146998
v -0.641502 0.091759 -0.135474
v -0.659342 0.094068 -0.107612
v -0.660925 0.122885 -0.091276
v -0.727457 0.178237 -0.165311
v -0.707232 0.175108 -0.191407
v -0.704939 0.146046 -0.207218
v -0.722871 0.120113 -0.196933
v -0.743095 0.123242 -0.170836
v -0.745389 0.152304 -0.155025
v -0.801870 0.206968 -0.231319
v -0.780558 0.203427 -0.256481
v -0.777941 0.174243 -0.272014
v -0.796635 0.148598 -0.262384
v -0.817947 0.152138 -0.237222
v -0.820564 0.181323 -0.221689
v -0.878211 0.237093 -0.301315
v -0.857189 0.233666 -0.326736
v -0.854659 0.204514 -0.342345
v -0.873150 0.178791 -0.332535
v -0.894171 0.182219 -0.307114
v -0.896702 0.211370 -0.291504
v -0.966927 0.270205 -0.376015
v -0.947179 0.267248 -0.402494
v -0.945028 0.238237 -0.418419
v -0.962625 0.212183 -0.407865
v -0.982373 0.215140 -0.381387
v -0.984525 0.244151 -0.365462
v 0.162587 -0.022108 0.044216
v 0.756857 0.086830 0.194223
v 0.655518 -0.108114 -0.083406
v 0.408250 -0.033652 -0.485763
v 0.356768 0.207312 -0.456804
v 0.572219 0.281774 -0.036550
v 1.205970 0.271343 -0.542687
v 0.110469 0.028130 0.045947
v 0.119580 0.028130 0.077835
v 0.129708 -0.000000 0.092187
v 0.130725 -0.028130 0.074650
v 0.121615 -0.028130 0.042762
v 0.111486 0.000000 0.028410
v 0.204258 0.047293 0.022421
v 0.211735 0.046956 0.054729
v 0.220716 0.018590 0.069376
v 0.222220 -0.009440 0.051715
v 0.214743 -0.009103 0.019406
v 0.205763 0.019264 0.004759
v 0.288051 0.063393 0.004974
v 0.295139 0.062980 0.037369
v 0.303848 0.034560 0.052077
v 0.305468 0.006553 0.034390
v 0.298379 0.006966 0.001994
v 0.289671 0.035386 -0.012713
v 0.366459 0.078820 -0.012616
v 0.374971 0.078694 0.019437
v 0.384679 0.050475 0.033905
v 0.385875 0.022382 0.016319
v 0.377363 0.022509 -0.015734
v 0.367655 0.050728 -0.030202
v 0.444750 0.096042 -0.036543
v 0.456132 0.096555 -0.005397
v 0.467855 0.068786 0.008433
v 0.468196 0.040503 -0.008882
v 0.456814 0.039989 -0.040027
v 0.445091 0.067759 -0.053858
v 0.528623 0.117615 -0.073106
v 0.543339 0.118987 -0.043417
v 0.557403 0.091820 -0.030610
v 0.556751 0.063281 -0.047491
v 0.542034 0.061909 -0.077180
v 0.527970 0.089076 -0.089987
v 0.626827 0.147086 -0.130661
v 0.644668 0.149395 -0.102800
v 0.660925 0.122885 -0.091276
v 0.659342 0.094068 -0.107612
v 0.641502 0.091759 -0.135474
v 0.625244 0.118268 -0.146998
v 0.707232 0.175108 -0.191407
v 0.727457 0.178237 -0.165311
v 0.745389 0.152304 -0.155025
v 0.743095 0.123242 -0.170836
v 0.722871 0.120113 -0.196933
v 0.704939 0.146046 -0.207218
v 0.780558 0.203427 -0.256481
v 0.801870 0.206968 -0.231319
v 0.820564 0.181323 -0.221689
v 0.817947 0.152138 -0.237222
v 0.796635 0.148598 -0.262384
v 0.777941 0.174243 -0.272014
v 0.857189 0.233666 -0.326736
v 0.878211 0.237093 -0.301315
v 0.896702 0.211370 -0.291504
v 0.894171 0.182219 -0.307114
v 0.873150 0.178791 -0.332535
v 0.854659 0.204514 -0.342345
v 0.947179 0.267248 -0.402494
v 0.966927 0.270205 -0.376015
v 0.984525 0.244151 -0.365462
v 0.982373 0.215140 -0.381387
v 0.962625 0.212183 -0.407865
v 0.945028 0.238237 -0.418419
v 0.000000 -0.003960 -0.111147
v 0.180896 0.028943 -0.440179
v 0.055900 -0.056651 -0.448739
v -0.146348 -0.023957 -0.445469
v -0.146348 0.081843 -0.434889
v 0.055900 0.114537 -0.431620
v 0.000000 0.090448 -1.055224
vn 0.0010 -1.0000 -0.0000
vn 0.4184 -0.8324 0.3633
vn -0.1555 -0.8035 0.5746
vn 0.6798 -0.4201 0.6012
vn 0.8506 -0.5257 -0.0000
vn -0.5257 -0.8507 -0.0000
vn -0.1555 -0.8035 -0.5746
vn 0.4184 -0.8324 -0.3633
vn 0.9317 -0.0020 0.3633
vn -0.2364 -0.3826 0.8932
vn 0.2271 -0.4592 0.8588
vn -0.0000 -0.0000 1.0000
vn -0.8949 -0.4464 -0.0000
vn -0.6491 -0.4985 0.5746
vn -0.9317 0.0020 0.3633
vn -0.2364 -0.3826 -0.8932
vn -0.6491 -0.4985 -0.5746
vn -0.5123 -0.0023 -0.8588
vn 0.6798 -0.4201 -0.6012
vn 0.2271 -0.4592 -0.8588
vn 0.5123 0.0023 -0.8588
vn 0.5123 0.0023 0.8588
vn -0.5123 -0.0023 0.8588
vn -0.9317 0.0020 -0.3633
vn -0.0000 -0.0000 -1.0000
vn 0.9317 -0.0020 -0.3633
vn 0.2364 0.3826 0.8932
vn 0.6491 0.4985 0.5746
vn 0.1555 0.8035 0.5746
vn -0.6798 0.4201 0.6012
vn -0.2271 0.4592 0.8588
vn -0.4184 0.8324 0.3633
vn -0.6798 0.4201 -0.6012
vn -0.8506 0.5257 -0.0000
vn -0.4184 0.8324 -0.3633
vn 0.2364 0.3826 -0.8932
vn -0.2271 0.4592 -0.8588
vn 0.1555 0.8035 -0.5746
vn 0.8949 0.4464 -0.0000
vn 0.6491 0.4985 -0.5746
vn 0.5257 0.8507 -0.0000
vn -0.0010 1.0000 -0.0000
vn -0.0000 -1.0000 -0.0000
vn 0.4253 -0.8507 0.3090
vn -0.1625 -0.8507 0.5000
vn 0.7236 -0.4472 0.5257
vn -0.1625 -0.8507 -0.5000
vn 0.4253 -0.8507 -0.3090
vn 0.9511 -0.0000 0.3090
vn -0.2764 -0.4472 0.8506
vn 0.2629 -0.5257 0.8090
vn -0.8944 -0.4472 -0.0000
vn -0.6882 -0.5257 0.5000
vn -0.9511 -0.0000 0.3090
vn -0.2764 -0.4472 -0.8506
vn -0.6882 -0.5257 -0.5000
vn -0.5878 -0.0000 -0.8090
vn 0.7236 -0.4472 -0.5257
vn 0.2629 -0.5257 -0.8090
vn 0.5878 -0.0000 -0.8090
vn 0.5878 -0.0000 0.8090
vn -0.5878 -0.0000 0.8090
vn -0.9511 -0.0000 -0.3090
vn 0.9511 -0.0000 -0.3090
vn 0.2764 0.4472 0.8506
vn 0.6882 0.5257 0.5000
vn 0.1625 0.8507 0.5000
vn -0.7236 0.4472 0.5257
vn -0.2629 0.5257 0.8090
vn -0.4253 0.8507 0.3090
vn -0.7236 0.4472 -0.5257
vn -0.4253 0.8507 -0.3090
vn 0.2764 0.4472 -0.8506
vn -0.2629 0.5257 -0.8090
vn 0.1625 0.8507 -0.5000
vn 0.8944 0.4472 -0.0000
vn 0.6882 0.5257 -0.5000
vn -0.0000 1.0000 -0.0000
vn -0.5101 0.8268 -0.2370
vn -0.5932 0.0193 -0.8048
vn -0.6117 0.0124 -0.7910
vn 0.0986 0.8253 0.5560
vn -0.4981 0.8328 -0.2415
vn 0.6109 -0.0110 0.7916
vn 0.0931 0.8203 0.5644
vn 0.4928 -0.8387 0.2315
vn 0.5014 -0.8365 0.2211
vn -0.1018 -0.8136 -0.5725
vn -0.1129 -0.8146 -0.5689
vn -0.5812 0.0232 -0.8134
vn -0.4881 0.8393 -0.2393
vn 0.5927 -0.0185 0.8052
vn 0.0941 0.8136 0.5737
vn 0.4902 -0.8370 0.2431
vn -0.0907 -0.8162 -0.5706
vn -0.6222 0.0064 -0.7828
vn -0.5068 0.8349 -0.2147
vn 0.5817 -0.0234 0.8131
vn 0.1194 0.8161 0.5655
vn 0.5174 -0.8235 0.2328
vn -0.1022 -0.8283 -0.5509
vn -0.7024 -0.0286 -0.7113
vn -0.5473 0.8192 -0.1712
vn 0.6238 -0.0076 0.7815
vn 0.1603 0.8289 0.5360
vn 0.5652 -0.8012 0.1965
vn -0.1321 -0.8462 -0.5163
vn -0.7875 -0.0710 -0.6122
vn -0.5930 0.7966 -0.1175
vn 0.7036 0.0262 0.7101
vn 0.1999 0.8481 0.4907
vn 0.6137 -0.7769 0.1408
vn -0.1680 -0.8645 -0.4738
vn -0.6310 0.7736 -0.0584
vn 0.2316 0.8677 0.4398
vn 0.8579 0.1104 0.5018
vn 0.7882 0.0683 0.6116
vn 0.6531 -0.7533 0.0779
vn -0.1984 -0.8823 -0.4269
vn -0.6596 0.7516 -0.0086
vn -0.8575 -0.1131 -0.5019
vn 0.2469 0.8856 0.3933
vn 0.9030 0.1446 0.4047
vn 0.6751 -0.7375 0.0199
vn -0.2238 -0.8946 -0.3868
vn -0.6757 0.7371 0.0139
vn -0.9029 -0.1467 -0.4041
vn 0.2458 0.8964 0.3689
vn 0.9206 0.1614 0.3556
vn 0.6789 -0.7341 -0.0117
vn -0.2410 -0.8981 -0.3678
vn -0.6789 0.7342 0.0026
vn -0.9206 -0.1619 -0.3554
vn 0.2350 0.8977 0.3728
vn 0.9160 0.1578 0.3689
vn 0.6705 -0.7419 -0.0082
vn -0.2476 -0.8930 -0.3758
vn -0.6773 0.7357 -0.0113
vn -0.9161 -0.1568 -0.3689
vn 0.2279 0.8959 0.3814
vn 0.9081 0.1510 0.3905
vn 0.6637 -0.7480 0.0020
vn -0.2480 -0.8883 -0.3865
vn -0.4337 0.5050 0.7462
vn -0.9961 0.0050 0.0881
vn -0.9962 -0.0015 0.0870
vn 0.5719 0.5003 0.6501
vn -0.4303 0.4909 0.7575
vn 0.9949 -0.0135 -0.1004
vn 0.9942 -0.0127 -0.1065
vn 0.4213 -0.4938 -0.7607
vn 0.4193 -0.5099 -0.7512
vn -0.5676 -0.4840 -0.6660
vn -0.5651 -0.5032 -0.6538
vn -0.9954 0.0131 0.0951
vn 0.5718 0.4822 0.6637
vn -0.4235 0.4837 0.7660
vn 0.9959 -0.0098 -0.0904
vn 0.4269 -0.4824 -0.7649
vn -0.5711 -0.4711 -0.6723
vn -0.9939 0.0118 0.1096
vn 0.5694 0.4720 0.6730
vn -0.4190 0.5201 0.7443
vn 0.9962 0.0051 -0.0873
vn 0.4358 -0.5138 -0.7390
vn -0.5719 -0.5115 -0.6413
vn -0.9919 0.0021 0.1269
vn 0.5639 0.5156 0.6452
vn -0.4212 0.5880 0.6905
vn 0.9950 0.0268 -0.0962
vn 0.4463 -0.5777 -0.6834
vn -0.5665 -0.5927 -0.5725
vn -0.9896 -0.0126 0.1433
vn 0.5545 0.5981 0.5786
vn -0.4316 0.6603 0.6147
vn 0.9922 0.0462 -0.1158
vn 0.4571 -0.6484 -0.6088
vn -0.5534 -0.6813 -0.4792
vn -0.4461 0.7212 0.5299
vn 0.5239 0.7616 0.3815
vn 0.5412 0.6866 0.4855
vn 0.9885 0.0618 -0.1384
vn 0.4707 -0.7084 -0.5259
vn -0.9867 -0.0259 0.1606
vn -0.4640 0.7602 0.4547
vn 0.5085 0.8112 0.2886
vn 0.9847 0.0663 -0.1611
vn -0.5359 -0.7563 -0.3754
vn 0.4803 -0.7512 -0.4528
vn -0.9840 -0.0410 0.1733
vn -0.4778 0.7734 0.4167
vn 0.5023 0.8304 0.2409
vn 0.9827 0.0603 -0.1750
vn -0.5165 -0.8077 -0.2843
vn 0.4811 -0.7715 -0.4163
vn -0.9826 -0.0550 0.1772
vn -0.4817 0.7656 0.4264
vn 0.5079 0.8237 0.2520
vn 0.9830 0.0497 -0.1767
vn -0.5040 -0.8297 -0.2399
vn 0.4732 -0.7706 -0.4270
vn -0.9833 -0.0635 0.1707
vn -0.4809 0.7569 0.4426
vn 0.5132 0.8141 0.2718
vn 0.9836 0.0439 -0.1747
vn -0.5036 -0.8257 -0.2540
vn 0.4670 -0.7649 -0.4437
vn -0.9841 -0.0659 0.1646
vn -0.1410 0.8428 0.5195
vn -0.5943 -0.0120 0.8042
vn -0.1554 0.8481 0.5066
vn 0.4360 0.8482 -0.3007
vn 0.4395 0.8455 -0.3033
vn 0.5760 0.0079 -0.8174
vn 0.5929 0.0012 -0.8053
vn 0.1639 -0.8413 -0.5151
vn -0.4287 -0.8574 0.2847
vn 0.1462 -0.8386 -0.5248
vn -0.4296 -0.8555 0.2890
vn -0.1349 0.8372 0.5300
vn -0.5769 -0.0146 0.8167
vn 0.4308 0.8535 -0.2932
vn 0.5658 0.0153 -0.8244
vn 0.1327 -0.8388 -0.5281
vn -0.4332 -0.8507 0.2977
vn -0.1749 0.8436 0.5078
vn -0.5657 -0.0127 0.8245
vn 0.4284 0.8582 -0.2827
vn 0.6051 0.0104 -0.7961
vn 0.1643 -0.8513 -0.4983
vn -0.4414 -0.8443 0.3039
vn -0.2481 0.8578 0.4502
vn -0.6042 0.0023 0.7969
vn 0.4291 0.8607 -0.2739
vn 0.6818 -0.0035 -0.7315
vn 0.2320 -0.8693 -0.4365
vn -0.4520 -0.8390 0.3029
vn -0.3265 0.8707 0.3678
vn -0.6802 0.0225 0.7327
vn 0.4330 0.8603 -0.2689
vn 0.7658 -0.0174 -0.6428
vn 0.3092 -0.8824 -0.3546
vn -0.4607 -0.8373 0.2946
vn -0.8377 0.0429 0.5445
vn -0.7644 0.0369 0.6437
vn -0.3942 0.8767 0.2756
vn 0.4372 0.8597 -0.2642
vn 0.3766 -0.8880 -0.2638
vn -0.4674 -0.8370 0.2845
vn -0.8887 0.0392 0.4568
vn -0.4387 0.8778 0.1925
vn 0.8387 -0.0239 -0.5441
vn 0.4454 0.8560 -0.2624
vn 0.4265 -0.8853 -0.1851
vn -0.4671 -0.8410 0.2732
vn -0.9103 0.0320 0.4127
vn -0.4538 0.8786 0.1490
vn 0.8893 -0.0265 -0.4566
vn 0.4556 0.8503 -0.2635
vn 0.4512 -0.8801 -0.1474
vn -0.4602 -0.8472 0.2655
vn -0.9048 0.0280 0.4248
vn -0.4439 0.8821 0.1575
vn 0.9104 -0.0294 -0.4127
vn 0.4634 0.8447 -0.2680
vn 0.4506 -0.8781 -0.1611
vn -0.4515 -0.8527 0.2628
vn -0.8955 0.0271 0.4443
vn -0.4334 0.8842 0.1744
vn 0.9047 -0.0348 -0.4246
vn 0.4662 0.8420 -0.2713
vn 0.4440 -0.8777 -0.1803
vn -0.4473 -0.8550 0.2624
vn -0.7370 0.6433 -0.2073
vn -0.8146 0.0277 0.5793
vn -0.7351 0.6441 -0.2115
vn 0.0660 0.6009 -0.7966
vn 0.0775 0.6139 -0.7856
vn 0.8019 -0.0358 -0.5964
vn 0.8105 -0.0192 -0.5855
vn 0.7477 -0.6356 0.1922
vn -0.0652 -0.6188 0.7829
vn 0.7447 -0.6383 0.1951
vn -0.0584 -0.6040 0.7949
vn -0.7420 0.6404 -0.1984
vn -0.8044 0.0410 0.5926
vn 0.0552 0.5942 -0.8024
vn 0.7976 -0.0486 -0.6013
vn 0.7391 -0.6423 0.2031
vn -0.0583 -0.5932 0.8029
vn -0.7491 0.6342 -0.1913
vn -0.7967 0.0464 0.6026
vn 0.0694 0.6280 -0.7751
vn 0.8209 -0.0194 -0.5708
vn 0.7343 -0.6445 0.2134
vn -0.0841 -0.6228 0.7778
vn -0.7559 0.6262 -0.1909
vn -0.8164 0.0089 0.5774
vn 0.1029 0.6921 -0.7144
vn 0.8619 0.0447 -0.5052
vn 0.7318 -0.6447 0.2212
vn -0.1249 -0.6846 0.7181
vn -0.7595 0.6198 -0.1976
vn -0.8550 -0.0602 0.5151
vn 0.1394 0.7625 -0.6318
vn 0.9010 0.1194 -0.4171
vn 0.7327 -0.6424 0.2246
vn -0.1622 -0.7555 0.6347
vn -0.9226 -0.2026 0.3284
vn -0.8941 -0.1356 0.4269
vn -0.7614 0.6147 -0.2060
vn 0.1662 0.8252 -0.5398
vn 0.7341 -0.6398 0.2275
vn -0.1888 -0.8191 0.5417
vn -0.9385 -0.2483 0.2400
vn -0.7580 0.6154 -0.2159
vn 0.9291 0.1864 -0.3194
vn 0.1841 0.8695 -0.4584
vn 0.7394 -0.6337 0.2276
vn -0.1993 -0.8657 0.4593
vn -0.9445 -0.2649 0.1941
vn -0.7510 0.6215 -0.2232
vn 0.9428 0.2374 -0.2341
vn 0.1944 0.8876 -0.4177
vn 0.7471 -0.6253 0.2253
vn -0.1976 -0.8868 0.4178
vn -0.9451 -0.2553 0.2040
vn -0.7440 0.6287 -0.2264
vn 0.9454 0.2627 -0.1929
vn 0.1990 0.8811 -0.4291
vn 0.7540 -0.6187 0.2208
vn -0.1909 -0.8829 0.4289
vn -0.9438 -0.2444 0.2224
vn -0.7408 0.6321 -0.2273
vn 0.9429 0.2612 -0.2068
vn 0.1999 0.8718 -0.4473
vn 0.7569 -0.6162 0.2177
vn -0.1868 -0.8748 0.4470
vn -0.0143 0.6520 -0.7581
vn -0.7485 -0.0063 -0.6631
vn -0.0273 0.6670 -0.7446
vn 0.7214 0.6860 -0.0951
vn 0.7564 0.0219 0.6538
vn 0.7285 0.6781 -0.0970
vn 0.0245 -0.6678 0.7439
vn 0.7475 0.0281 0.6637
vn -0.7347 -0.6730 0.0855
vn -0.7317 -0.6773 0.0768
vn -0.7425 -0.0186 -0.6696
vn -0.0053 0.6426 -0.7661
vn 0.7359 0.6708 -0.0924
vn 0.0125 -0.6524 0.7578
vn 0.7394 0.0271 0.6727
vn -0.7335 -0.6728 0.0968
vn -0.7413 -0.0309 -0.6705
vn -0.0320 0.6772 -0.7351
vn 0.7295 0.6802 -0.0718
vn 0.0061 -0.6427 0.7661
vn 0.7530 -0.0007 0.6581
vn -0.7173 -0.6906 0.0925
vn -0.7617 -0.0178 -0.6476
vn -0.0885 0.7429 -0.6635
vn 0.7108 0.7023 -0.0391
vn 0.0357 -0.6768 0.7353
vn 0.7857 -0.0450 0.6169
vn -0.6906 -0.7201 0.0680
vn -0.7977 0.0158 -0.6029
vn -0.1548 0.8105 -0.5649
vn 0.6859 0.7277 -0.0013
vn 0.0933 -0.7415 0.6645
vn 0.8261 -0.0867 0.5568
vn -0.6627 -0.7484 0.0275
vn -0.8367 0.0550 -0.5449
vn -0.8726 0.0866 -0.4807
vn 0.6622 0.7482 0.0400
vn 0.8639 -0.1189 0.4895
vn 0.2204 -0.8616 0.4572
vn 0.1593 -0.8086 0.5664
vn -0.6376 -0.7702 -0.0184
vn -0.2163 0.8637 -0.4552
vn -0.8984 0.1114 -0.4248
vn 0.6402 0.7646 0.0739
vn 0.8933 -0.1335 0.4291
vn 0.2657 -0.8943 0.3601
vn -0.6228 -0.7800 -0.0617
vn -0.2631 0.8958 -0.3583
vn -0.9088 0.1275 -0.3974
vn 0.6251 0.7756 0.0883
vn 0.9078 -0.1320 0.3981
vn 0.2853 -0.9066 0.3108
vn -0.6214 -0.7788 -0.0860
vn -0.2848 0.9070 -0.3103
vn -0.9037 0.1338 -0.4067
vn 0.6207 0.7801 0.0789
vn 0.9062 -0.1219 0.4048
vn 0.2788 -0.9042 0.3235
vn -0.6302 -0.7718 -0.0849
vn -0.2803 0.9035 -0.3243
vn -0.8974 0.1345 -0.4203
vn 0.6213 0.7806 0.0682
vn 0.9015 -0.1154 0.4171
vn 0.2693 -0.8992 0.3448
vn -0.6366 -0.7673 -0.0782
vn 0.4871 -0.8193 -0.3024
vn -0.1475 -0.6942 -0.7045
vn 0.0414 -0.9800 0.1949
vn -0.4650 -0.8815 -0.0822
vn 0.1134 -0.1424 0.9833
vn -0.7900 0.0960 0.6056
vn 0.4234 0.8080 0.4097
vn -0.0657 0.9876 0.1424
vn 0.7901 0.5987 -0.1320
vn 0.1792 0.8347 -0.5207
vn 0.0472 0.8483 0.5275
vn -0.2439 -0.0041 0.9698
vn 0.0427 0.8512 0.5231
vn 0.2713 0.8530 -0.4457
vn 0.2851 0.8489 -0.4452
vn 0.2258 0.0116 -0.9741
vn 0.2450 0.0087 -0.9695
vn -0.0366 -0.8413 -0.5393
vn -0.2832 -0.8563 0.4320
vn -0.0436 -0.8421 -0.5376
vn -0.2703 -0.8576 0.4375
vn 0.0482 0.8433 0.5353
vn -0.2251 -0.0087 0.9743
vn 0.2623 0.8578 -0.4419
vn 0.2135 0.0119 -0.9769
vn -0.0495 -0.8457 -0.5314
vn -0.2628 -0.8560 0.4451
vn 0.0323 0.8413 0.5396
vn -0.2139 -0.0130 0.9768
vn 0.2914 0.8553 -0.4285
vn 0.2559 0.0011 -0.9667
vn -0.0398 -0.8528 -0.5208
vn -0.2940 -0.8466 0.4438
vn 0.0033 0.8445 0.5355
vn -0.2574 -0.0065 0.9663
vn 0.3508 0.8441 -0.4056
vn 0.3422 -0.0196 -0.9394
vn -0.0174 -0.8610 -0.5083
vn -0.3560 -0.8307 0.4279
vn -0.0285 0.8524 0.5221
vn -0.3442 0.0116 0.9388
vn 0.4203 0.8263 -0.3749
vn 0.4427 -0.0456 -0.8955
vn 0.0106 -0.8685 -0.4956
vn -0.4276 -0.8121 0.3970
vn -0.5389 0.0657 0.8398
vn -0.4447 0.0374 0.8949
vn -0.0579 0.8616 0.5044
vn 0.4856 0.8066 -0.3370
vn 0.0374 -0.8762 -0.4805
vn -0.4945 -0.7923 0.3575
vn -0.6104 0.0917 0.7867
vn -0.0768 0.8716 0.4841
vn 0.5369 -0.0737 -0.8404
vn 0.5372 0.7869 -0.3035
vn 0.0614 -0.8809 -0.4693
vn -0.5440 -0.7770 0.3166
vn -0.6428 0.1062 0.7587
vn -0.0806 0.8791 0.4698
vn 0.6092 -0.0971 -0.7870
vn 0.5630 0.7743 -0.2890
vn 0.0773 -0.8809 -0.4669
vn -0.5645 -0.7722 0.2917
vn -0.6335 0.1048 0.7666
vn -0.0720 0.8814 0.4668
vn 0.6425 -0.1073 -0.7587
vn 0.5595 0.7730 -0.2992
vn 0.0806 -0.8766 -0.4745
vn -0.5556 -0.7783 0.2924
vn -0.6188 0.1001 0.7792
vn -0.0653 0.8812 0.4682
vn 0.6342 -0.1019 -0.7664
vn 0.5504 0.7751 -0.3102
vn 0.0787 -0.8733 -0.4807
vn -0.5444 -0.7837 0.2992
vn 0.0055 -0.8193 0.5733
vn 0.6786 -0.6942 0.2398
vn -0.1880 -0.9800 -0.0658
vn 0.3117 -0.8815 -0.3547
vn -0.8992 -0.1424 -0.4137
vn -0.1073 0.0960 -0.9896
vn -0.5700 0.8080 0.1491
vn -0.0876 0.9876 -0.1301
vn -0.2975 0.5987 0.7437
vn 0.3520 0.8347 0.4235
vn -0.2851 0.8489 -0.4452
vn -0.2258 0.0116 -0.9741
vn -0.2450 0.0087 -0.9695
vn -0.0427 0.8512 0.5231
vn -0.2713 0.8530 -0.4457
vn 0.2439 -0.0041 0.9698
vn -0.0472 0.8483 0.5275
vn 0.2703 -0.8576 0.4375
vn 0.2832 -0.8563 0.4320
vn 0.0436 -0.8421 -0.5376
vn 0.0366 -0.8413 -0.5393
vn -0.2135 0.0119 -0.9769
vn -0.2623 0.8578 -0.4419
vn 0.2251 -0.0087 0.9743
vn -0.0482 0.8433 0.5353
vn 0.2628 -0.8560 0.4451
vn 0.0495 -0.8457 -0.5314
vn -0.2559 0.0011 -0.9667
vn -0.2914 0.8553 -0.4285
vn 0.2139 -0.0130 0.9768
vn -0.0323 0.8413 0.5396
vn 0.2940 -0.8466 0.4438
vn 0.0398 -0.8528 -0.5208
vn -0.3422 -0.0196 -0.9394
vn -0.3508 0.8441 -0.4056
vn 0.2574 -0.0065 0.9663
vn -0.0033 0.8445 0.5355
vn 0.3560 -0.8307 0.4279
vn 0.0174 -0.8610 -0.5083
vn -0.4427 -0.0456 -0.8955
vn -0.4203 0.8263 -0.3749
vn 0.3442 0.0116 0.9388
vn 0.0285 0.8524 0.5221
vn 0.4276 -0.8121 0.3970
vn -0.0106 -0.8685 -0.4956
vn -0.4856 0.8066 -0.3370
vn 0.0579 0.8616 0.5044
vn 0.5389 0.0657 0.8398
vn 0.4447 0.0374 0.8949
vn 0.4945 -0.7923 0.3575
vn -0.0374 -0.8762 -0.4805
vn -0.5372 0.7869 -0.3035
vn -0.5369 -0.0737 -0.8404
vn 0.0768 0.8716 0.4841
vn 0.6104 0.0917 0.7867
vn 0.5440 -0.7770 0.3166
vn -0.0614 -0.8809 -0.4693
vn -0.5630 0.7743 -0.2890
vn -0.6092 -0.0971 -0.7870
vn 0.0806 0.8791 0.4698
vn 0.6428 0.1062 0.7587
vn 0.5645 -0.7722 0.2917
vn -0.0773 -0.8809 -0.4669
vn -0.5595 0.7730 -0.2992
vn -0.6425 -0.1073 -0.7587
vn 0.0720 0.8814 0.4668
vn 0.6335 0.1048 0.7666
vn 0.5556 -0.7783 0.2924
vn -0.0806 -0.8766 -0.4745
vn -0.5504 0.7751 -0.3102
vn -0.6342 -0.1019 -0.7664
vn 0.0653 0.8812 0.4682
vn 0.6188 0.1001 0.7792
vn 0.5444 -0.7837 0.2992
vn -0.0787 -0.8733 -0.4807
vn 0.5415 -0.8124 0.2165
vn 0.5593 -0.7923 -0.2437
vn -0.1563 -0.9795 0.1270
vn -0.1592 -0.9627 -0.2188
vn -0.9144 -0.0403 0.4027
vn -0.9731 0.0229 -0.2293
vn -0.1563 0.9350 0.3184
vn -0.1592 0.9870 -0.0239
vn 0.5415 0.7534 0.3730
vn 0.5593 0.8249 -0.0820
vn -0.9084 -0.1494 -0.3905
vn -0.5063 -0.8173 -0.2751
vn 0.8952 -0.0380 -0.4440
vn 0.9402 0.2540 -0.2271
vn -0.2717 0.8980 -0.3460
vn 0.6200 -0.0955 -0.7788
vn -0.6200 -0.0955 -0.7788
vt 0.181819 0.000000
vt 0.227273 0.078731
vt 0.136365 0.078731
vt 0.272728 0.157461
vt 0.318182 0.078731
vt 0.363637 0.157461
vt 0.909091 0.000000
vt 0.954545 0.078731
vt 0.863636 0.078731
vt 0.727273 0.000000
vt 0.772727 0.078731
vt 0.681818 0.078731
vt 0.545455 0.000000
vt 0.590909 0.078731
vt 0.500000 0.078731
vt 0.318182 0.236191
vt 0.090910 0.157461
vt 0.181819 0.157461
vt 0.136365 0.236191
vt 0.818182 0.157461
vt 0.909091 0.157461
vt 0.863636 0.236191
vt 0.636364 0.157461
vt 0.727273 0.157461
vt 0.681818 0.236191
vt 0.454546 0.157461
vt 0.545455 0.157461
vt 0.500000 0.236191
vt 0.227273 0.236191
vt 0.045455 0.236191
vt 0.772727 0.236191
vt 0.590909 0.236191
vt 0.409092 0.236191
vt 0.181819 0.314921
vt 0.272728 0.314921
vt 0.227273 0.393651
vt 0.000000 0.314921
vt 0.090910 0.314921
vt 0.045455 0.393651
vt 0.727273 0.314921
vt 0.818182 0.314921
vt 0.772727 0.393651
vt 0.545455 0.314921
vt 0.636364 0.314921
vt 0.590909 0.393651
vt 0.363637 0.314921
vt 0.454546 0.314921
vt 0.409092 0.393651
vt 0.500000 0.393651
vt 0.454546 0.472382
vt 0.681818 0.393651
vt 0.636364 0.472382
vt 0.863636 0.393651
vt 0.818182 0.472382
vt 0.909091 0.314921
vt 0.136365 0.393651
vt 0.090910 0.472382
vt 0.318182 0.393651
vt 0.272728 0.472382
vt 0.954545 0.236191
vt 1.000000 0.157461
vt 0.409092 0.078731
vt 0.363637 0.000000
vt 0.000000 1.000000
vt 0.100000 0.833333
vt 0.000000 0.833333
vt 0.000000 0.166667
vt 0.100000 0.000000
vt 0.000000 0.000000
vt 0.000000 0.333333
vt 0.100000 0.166667
vt 0.100000 0.500000
vt 0.000000 0.500000
vt 0.100000 0.666667
vt 0.000000 0.666667
vt 0.100000 1.000000
vt 0.200000 0.833333
vt 0.200000 0.000000
vt 0.100000 0.333333
vt 0.200000 0.166667
vt 0.200000 0.500000
vt 0.200000 0.666667
vt 0.200000 1.000000
vt 0.300000 0.833333
vt 0.300000 0.000000
vt 0.200000 0.333333
vt 0.300000 0.166667
vt 0.300000 0.500000
vt 0.300000 0.666667
vt 0.300000 1.000000
vt 0.400000 0.833333
vt 0.400000 0.000000
vt 0.300000 0.333333
vt 0.400000 0.166667
vt 0.400000 0.500000
vt 0.400000 0.666667
vt 0.400000 1.000000
vt 0.500000 0.833333
vt 0.500000 0.000000
vt 0.400000 0.333333
vt 0.500000 0.166667
vt 0.500000 0.500000
vt 0.500000 0.666667
vt 0.600000 1.000000
vt 0.500000 1.000000
vt 0.600000 0.166667
vt 0.600000 0.333333
vt 0.500000 0.333333
vt 0.600000 0.500000
vt 0.600000 0.666667
vt 0.700000 1.000000
vt 0.600000 0.833333
vt 0.700000 0.166667
vt 0.600000 0.000000
vt 0.700000 0.333333
vt 0.700000 0.500000
vt 0.700000 0.666667
vt 0.800000 1.000000
vt 0.700000 0.833333
vt 0.800000 0.166667
vt 0.700000 0.000000
vt 0.800000 0.333333
vt 0.800000 0.500000
vt 0.800000 0.666667
vt 0.900000 1.000000
vt 0.800000 0.833333
vt 0.900000 0.166667
vt 0.800000 0.000000
vt 0.900000 0.333333
vt 0.900000 0.500000
vt 0.900000 0.666667
vt 1.000000 1.000000
vt 0.900000 0.833333
vt 1.000000 0.166667
vt 0.900000 0.000000
vt 1.000000 0.333333
vt 1.000000 0.500000
vt 1.000000 0.666667
vt 1.000000 0.833333
vt 1.000000 0.000000
s 1
usemtl UnknownOrganicMatter
f 1/1/1 14/2/2 13/3/3
f 2/4/4 14/5/2 16/6/5
f 1/7/1 13/8/3 18/9/6
f 1/10/1 18/11/6 20/12/7
f 1/13/1 20/14/7 17/15/8
f 2/4/4 16/6/5 23/16/9
f 3/17/10 15/18/11 25/19/12
f 4/20/13 19/21/14 27/22/15
f 5/23/16 21/24/17 29/25/18
f 6/26/19 22/27/20 31/28/21
f 2/4/4 23/16/9 26/29/22
f 3/17/10 25/19/12 28/30/23
f 4/20/13 27/22/15 30/31/24
f 5/23/16 29/25/18 32/32/25
f 6/26/19 31/28/21 24/33/26
f 7/34/27 33/35/28 38/36/29
f 8/37/30 34/38/31 40/39/32
f 9/40/33 35/41/34 41/42/35
f 10/43/36 36/44/37 42/45/38
f 11/46/39 37/47/40 39/48/41
f 39/48/41 42/49/38 12/50/42
f 39/48/41 37/47/40 42/49/38
f 37/47/40 10/43/36 42/49/38
f 42/45/38 41/51/35 12/52/42
f 42/45/38 36/44/37 41/51/35
f 36/44/37 9/40/33 41/51/35
f 41/42/35 40/53/32 12/54/42
f 41/42/35 35/41/34 40/53/32
f 35/41/34 8/55/30 40/53/32
f 40/39/32 38/56/29 12/57/42
f 40/39/32 34/38/31 38/56/29
f 34/38/31 7/34/27 38/56/29
f 38/36/29 39/58/41 12/59/42
f 38/36/29 33/35/28 39/58/41
f 33/35/28 11/46/39 39/58/41
f 24/33/26 37/47/40 11/46/39
f 24/33/26 31/28/21 37/47/40
f 31/28/21 10/43/36 37/47/40
f 32/32/25 36/44/37 10/43/36
f 32/32/25 29/25/18 36/44/37
f 29/25/18 9/40/33 36/44/37
f 30/31/24 35/41/34 9/40/33
f 30/31/24 27/22/15 35/41/34
f 27/22/15 8/55/30 35/41/34
f 28/30/23 34/38/31 8/37/30
f 28/30/23 25/19/12 34/38/31
f 25/19/12 7/34/27 34/38/31
f 26/29/22 33/35/28 7/34/27
f 26/29/22 23/16/9 33/35/28
f 23/16/9 11/46/39 33/35/28
f 31/28/21 32/32/25 10/43/36
f 31/28/21 22/27/20 32/32/25
f 22/27/20 5/23/16 32/32/25
f 29/25/18 30/31/24 9/40/33
f 29/25/18 21/24/17 30/31/24
f 21/24/17 4/20/13 30/31/24
f 27/22/15 28/60/23 8/55/30
f 27/22/15 19/21/14 28/60/23
f 19/21/14 3/61/10 28/60/23
f 25/19/12 26/29/22 7/34/27
f 25/19/12 15/18/11 26/29/22
f 15/18/11 2/4/4 26/29/22
f 23/16/9 24/33/26 11/46/39
f 23/16/9 16/6/5 24/33/26
f 16/6/5 6/26/19 24/33/26
f 17/15/8 22/27/20 6/26/19
f 17/15/8 20/14/7 22/27/20
f 20/14/7 5/23/16 22/27/20
f 20/12/7 21/24/17 5/23/16
f 20/12/7 18/11/6 21/24/17
f 18/11/6 4/20/13 21/24/17
f 18/9/6 19/21/14 4/20/13
f 18/9/6 13/8/3 19/21/14
f 13/8/3 3/61/10 19/21/14
f 16/6/5 17/62/8 6/26/19
f 16/6/5 14/5/2 17/62/8
f 14/5/2 1/63/1 17/62/8
f 13/3/3 15/18/11 3/17/10
f 13/3/3 14/2/2 15/18/11
f 14/2/2 2/4/4 15/18/11
f 85/64/79 96/65/80 90/66/81
f 86/67/82 91/68/83 85/69/79
f 87/70/84 92/71/85 86/67/82
f 94/72/86 87/70/84 88/73/87
f 95/74/88 88/73/87 89/75/89
f 96/65/80 89/75/89 90/66/81
f 91/76/83 102/77/90 96/65/80
f 92/71/85 97/78/91 91/68/83
f 93/79/92 98/80/93 92/71/85
f 100/81/94 93/79/92 94/72/86
f 101/82/95 94/72/86 95/74/88
f 102/77/90 95/74/88 96/65/80
f 97/83/91 108/84/96 102/77/90
f 98/80/93 103/85/97 97/78/91
f 99/86/98 104/87/99 98/80/93
f 106/88/100 99/86/98 100/81/94
f 107/89/101 100/81/94 101/82/95
f 108/84/96 101/82/95 102/77/90
f 103/90/97 114/91/102 108/84/96
f 104/87/99 109/92/103 103/85/97
f 105/93/104 110/94/105 104/87/99
f 112/95/106 105/93/104 106/88/100
f 113/96/107 106/88/100 107/89/101
f 114/91/102 107/89/101 108/84/96
f 109/97/103 120/98/108 114/91/102
f 110/94/105 115/99/109 109/92/103
f 111/100/110 116/101/111 110/94/105
f 118/102/112 111/100/110 112/95/106
f 119/103/113 112/95/106 113/96/107
f 120/98/108 113/96/107 114/91/102
f 121/104/114 120/98/108 115/105/109
f 122/106/115 115/99/109 116/101/111
f 123/107/116 116/101/111 117/108/117
f 118/102/112 123/107/116 117/108/117
f 119/103/113 124/109/118 118/102/112
f 120/98/108 125/110/119 119/103/113
f 127/111/120 126/112/121 121/104/114
f 128/113/122 121/114/114 122/106/115
f 129/115/123 122/106/115 123/107/116
f 124/109/118 129/115/123 123/107/116
f 125/110/119 130/116/124 124/109/118
f 126/112/121 131/117/125 125/110/119
f 133/118/126 132/119/127 127/111/120
f 134/120/128 127/121/120 128/113/122
f 135/122/129 128/113/122 129/115/123
f 130/116/124 135/122/129 129/115/123
f 131/117/125 136/123/130 130/116/124
f 132/119/127 137/124/131 131/117/125
f 139/125/132 138/126/133 133/118/126
f 140/127/134 133/128/126 134/120/128
f 141/129/135 134/120/128 135/122/129
f 136/123/130 141/129/135 135/122/129
f 137/124/131 142/130/136 136/123/130
f 138/126/133 143/131/137 137/124/131
f 145/132/138 144/133/139 139/125/132
f 146/134/140 139/135/132 140/127/134
f 147/136/141 140/127/134 141/129/135
f 142/130/136 147/136/141 141/129/135
f 143/131/137 148/137/142 142/130/136
f 144/133/139 149/138/143 143/131/137
f 151/64/144 162/65/145 156/66/146
f 152/67/147 157/68/148 151/69/144
f 159/79/149 152/67/147 153/70/150
f 160/72/151 153/70/150 154/73/152
f 161/74/153 154/73/152 155/75/154
f 156/66/146 161/74/153 155/75/154
f 157/76/148 168/77/155 162/65/145
f 158/71/156 163/78/157 157/68/148
f 165/86/158 158/71/156 159/79/149
f 166/81/159 159/79/149 160/72/151
f 167/82/160 160/72/151 161/74/153
f 162/65/145 167/82/160 161/74/153
f 163/83/157 174/84/161 168/77/155
f 164/80/162 169/85/163 163/78/157
f 171/93/164 164/80/162 165/86/158
f 172/88/165 165/86/158 166/81/159
f 173/89/166 166/81/159 167/82/160
f 168/77/155 173/89/166 167/82/160
f 169/90/163 180/91/167 174/84/161
f 170/87/168 175/92/169 169/85/163
f 177/100/170 170/87/168 171/93/164
f 178/95/171 171/93/164 172/88/165
f 179/96/172 172/88/165 173/89/166
f 174/84/161 179/96/172 173/89/166
f 175/97/169 186/98/173 180/91/167
f 176/94/174 181/99/175 175/92/169
f 183/108/176 176/94/174 177/100/170
f 184/102/177 177/100/170 178/95/171
f 185/103/178 178/95/171 179/96/172
f 180/91/167 185/103/178 179/96/172
f 187/104/179 186/98/173 181/105/175
f 188/106/180 181/99/175 182/101/181
f 183/108/176 188/106/180 182/101/181
f 184/102/177 189/107/182 183/108/176
f 185/103/178 190/109/183 184/102/177
f 192/112/184 185/103/178 186/98/173
f 193/111/185 192/112/184 187/104/179
f 194/113/186 187/114/179 188/106/180
f 189/107/182 194/113/186 188/106/180
f 190/109/183 195/115/187 189/107/182
f 191/110/188 196/116/189 190/109/183
f 198/119/190 191/110/188 192/112/184
f 199/118/191 198/119/190 193/111/185
f 200/120/192 193/121/185 194/113/186
f 195/115/187 200/120/192 194/113/186
f 196/116/189 201/122/193 195/115/187
f 197/117/194 202/123/195 196/116/189
f 204/126/196 197/117/194 198/119/190
f 205/125/197 204/126/196 199/118/191
f 206/127/198 199/128/191 200/120/192
f 201/122/193 206/127/198 200/120/192
f 202/123/195 207/129/199 201/122/193
f 203/124/200 208/130/201 202/123/195
f 210/133/202 203/124/200 204/126/196
f 211/132/203 210/133/202 205/125/197
f 212/134/204 205/135/197 206/127/198
f 207/129/199 212/134/204 206/127/198
f 208/130/201 213/136/205 207/129/199
f 209/131/206 214/137/207 208/130/201
f 216/139/208 209/131/206 210/133/202
f 223/76/209 222/66/210 217/64/211
f 224/71/212 217/69/211 218/67/213
f 225/79/214 218/67/213 219/70/215
f 220/73/216 225/79/214 219/70/215
f 221/75/217 226/72/218 220/73/216
f 222/66/210 227/74/219 221/75/217
f 229/83/220 228/65/221 223/76/209
f 230/80/222 223/68/209 224/71/212
f 231/86/223 224/71/212 225/79/214
f 226/72/218 231/86/223 225/79/214
f 227/74/219 232/81/224 226/72/218
f 228/65/221 233/82/225 227/74/219
f 235/90/226 234/77/227 229/83/220
f 236/87/228 229/78/220 230/80/222
f 237/93/229 230/80/222 231/86/223
f 232/81/224 237/93/229 231/86/223
f 233/82/225 238/88/230 232/81/224
f 234/77/227 239/89/231 233/82/225
f 241/97/232 240/84/233 235/90/226
f 242/94/234 235/85/226 236/87/228
f 243/100/235 236/87/228 237/93/229
f 238/88/230 243/100/235 237/93/229
f 239/89/231 244/95/236 238/88/230
f 240/84/233 245/96/237 239/89/231
f 247/105/238 246/91/239 241/97/232
f 248/101/240 241/92/232 242/94/234
f 249/108/241 242/94/234 243/100/235
f 244/95/236 249/108/241 243/100/235
f 245/96/237 250/102/242 244/95/236
f 246/91/239 251/103/243 245/96/237
f 247/105/238 258/112/244 252/98/245
f 248/101/240 253/114/246 247/99/238
f 249/108/241 254/106/247 248/101/240
f 256/109/248 249/108/241 250/102/242
f 257/110/249 250/102/242 251/103/243
f 258/112/244 251/103/243 252/98/245
f 253/104/246 264/119/250 258/112/244
f 254/106/247 259/121/251 253/114/246
f 255/107/252 260/113/253 254/106/247
f 262/116/254 255/107/252 256/109/248
f 263/117/255 256/109/248 257/110/249
f 264/119/250 257/110/249 258/112/244
f 259/111/251 270/126/256 264/119/250
f 260/113/253 265/128/257 259/121/251
f 261/115/258 266/120/259 260/113/253
f 268/123/260 261/115/258 262/116/254
f 269/124/261 262/116/254 263/117/255
f 270/126/256 263/117/255 264/119/250
f 265/118/257 276/133/262 270/126/256
f 266/120/259 271/135/263 265/128/257
f 267/122/264 272/127/265 266/120/259
f 274/130/266 267/122/264 268/123/260
f 275/131/267 268/123/260 269/124/261
f 276/133/262 269/124/261 270/126/256
f 271/125/263 282/139/268 276/133/262
f 272/127/265 277/140/269 271/135/263
f 273/129/270 278/134/271 272/127/265
f 280/137/272 273/129/270 274/130/266
f 281/138/273 274/130/266 275/131/267
f 282/139/268 275/131/267 276/133/262
f 289/76/274 288/66/275 283/64/276
f 290/71/277 283/69/276 284/67/278
f 291/79/279 284/67/278 285/70/280
f 286/73/281 291/79/279 285/70/280
f 287/75/282 292/72/283 286/73/281
f 288/66/275 293/74/284 287/75/282
f 295/83/285 294/65/286 289/76/274
f 296/80/287 289/68/274 290/71/277
f 297/86/288 290/71/277 291/79/279
f 292/72/283 297/86/288 291/79/279
f 293/74/284 298/81/289 292/72/283
f 294/65/286 299/82/290 293/74/284
f 301/90/291 300/77/292 295/83/285
f 302/87/293 295/78/285 296/80/287
f 303/93/294 296/80/287 297/86/288
f 298/81/289 303/93/294 297/86/288
f 299/82/290 304/88/295 298/81/289
f 300/77/292 305/89/296 299/82/290
f 307/97/297 306/84/298 301/90/291
f 308/94/299 301/85/291 302/87/293
f 309/100/300 302/87/293 303/93/294
f 304/88/295 309/100/300 303/93/294
f 305/89/296 310/95/301 304/88/295
f 306/84/298 311/96/302 305/89/296
f 313/105/303 312/91/304 307/97/297
f 314/101/305 307/92/297 308/94/299
f 315/108/306 308/94/299 309/100/300
f 310/95/301 315/108/306 309/100/300
f 311/96/302 316/102/307 310/95/301
f 312/91/304 317/103/308 311/96/302
f 313/105/303 324/112/309 318/98/310
f 314/101/305 319/114/311 313/99/303
f 315/108/306 320/106/312 314/101/305
f 322/109/313 315/108/306 316/102/307
f 323/110/314 316/102/307 317/103/308
f 324/112/309 317/103/308 318/98/310
f 319/104/311 330/119/315 324/112/309
f 320/106/312 325/121/316 319/114/311
f 321/107/317 326/113/318 320/106/312
f 328/116/319 321/107/317 322/109/313
f 329/117/320 322/109/313 323/110/314
f 330/119/315 323/110/314 324/112/309
f 325/111/316 336/126/321 330/119/315
f 326/113/318 331/128/322 325/121/316
f 327/115/323 332/120/324 326/113/318
f 334/123/325 327/115/323 328/116/319
f 335/124/326 328/116/319 329/117/320
f 336/126/321 329/117/320 330/119/315
f 331/118/322 342/133/327 336/126/321
f 332/120/324 337/135/328 331/128/322
f 333/122/329 338/127/330 332/120/324
f 340/130/331 333/122/329 334/123/325
f 341/131/332 334/123/325 335/124/326
f 342/133/327 335/124/326 336/126/321
f 337/125/328 348/139/333 342/133/327
f 338/127/330 343/140/334 337/135/328
f 339/129/335 344/134/336 338/127/330
f 346/137/337 339/129/335 340/130/331
f 347/138/338 340/130/331 341/131/332
f 348/139/333 341/131/332 342/133/327
f 355/76/339 354/66/340 349/64/341
f 350/67/342 355/68/339 349/69/341
f 351/70/343 356/71/344 350/67/342
f 352/73/345 357/79/346 351/70/343
f 359/74/347 352/73/345 353/75/348
f 360/65/349 353/75/348 354/66/340
f 361/83/350 360/65/349 355/76/339
f 356/71/344 361/78/350 355/68/339
f 357/79/346 362/80/351 356/71/344
f 358/72/352 363/86/353 357/79/346
f 365/82/354 358/72/352 359/74/347
f 366/77/355 359/74/347 360/65/349
f 367/90/356 366/77/355 361/83/350
f 362/80/351 367/85/356 361/78/350
f 363/86/353 368/87/357 362/80/351
f 364/81/358 369/93/359 363/86/353
f 371/89/360 364/81/358 365/82/354
f 372/84/361 365/82/354 366/77/355
f 373/97/362 372/84/361 367/90/356
f 368/87/357 373/92/362 367/85/356
f 369/93/359 374/94/363 368/87/357
f 370/88/364 375/100/365 369/93/359
f 377/96/366 370/88/364 371/89/360
f 378/91/367 371/89/360 372/84/361
f 379/105/368 378/91/367 373/97/362
f 374/94/363 379/99/368 373/92/362
f 375/100/365 380/101/369 374/94/363
f 376/95/370 381/108/371 375/100/365
f 383/103/372 376/95/370 377/96/366
f 384/98/373 377/96/366 378/91/367
f 379/105/368 390/112/374 384/98/373
f 386/106/375 379/99/368 380/101/369
f 387/107/376 380/101/369 381/108/371
f 388/109/377 381/108/371 382/102/378
f 383/103/372 388/109/377 382/102/378
f 384/98/373 389/110/379 383/103/372
f 385/104/380 396/119/381 390/112/374
f 392/113/382 385/114/380 386/106/375
f 393/115/383 386/106/375 387/107/376
f 394/116/384 387/107/376 388/109/377
f 389/110/379 394/116/384 388/109/377
f 390/112/374 395/117/385 389/110/379
f 391/111/386 402/126/387 396/119/381
f 398/120/388 391/121/386 392/113/382
f 399/122/389 392/113/382 393/115/383
f 400/123/390 393/115/383 394/116/384
f 395/117/385 400/123/390 394/116/384
f 396/119/381 401/124/391 395/117/385
f 397/118/392 408/133/393 402/126/387
f 404/127/394 397/128/392 398/120/388
f 405/129/395 398/120/388 399/122/389
f 406/130/396 399/122/389 400/123/390
f 401/124/391 406/130/396 400/123/390
f 402/126/387 407/131/397 401/124/391
f 403/125/398 414/139/399 408/133/393
f 410/134/400 403/135/398 404/127/394
f 411/136/401 404/127/394 405/129/395
f 412/137/402 405/129/395 406/130/396
f 407/131/397 412/137/402 406/130/396
f 408/133/393 413/138/403 407/131/397
f 428/76/414 427/66/415 422/64/416
f 429/71/417 422/69/416 423/67/418
f 430/79/419 423/67/418 424/70/420
f 425/73/421 430/79/419 424/70/420
f 426/75/422 431/72/423 425/73/421
f 427/66/415 432/74/424 426/75/422
f 434/83/425 433/65/426 428/76/414
f 435/80/427 428/68/414 429/71/417
f 436/86/428 429/71/417 430/79/419
f 431/72/423 436/86/428 430/79/419
f 432/74/424 437/81/429 431/72/423
f 433/65/426 438/82/430 432/74/424
f 440/90/431 439/77/432 434/83/425
f 441/87/433 434/78/425 435/80/427
f 442/93/434 435/80/427 436/86/428
f 437/81/429 442/93/434 436/86/428
f 438/82/430 443/88/435 437/81/429
f 439/77/432 444/89/436 438/82/430
f 446/97/437 445/84/438 440/90/431
f 447/94/439 440/85/431 441/87/433
f 448/100/440 441/87/433 442/93/434
f 443/88/435 448/100/440 442/93/434
f 444/89/436 449/95/441 443/88/435
f 445/84/438 450/96/442 444/89/436
f 452/105/443 451/91/444 446/97/437
f 453/101/445 446/92/437 447/94/439
f 454/108/446 447/94/439 448/100/440
f 449/95/441 454/108/446 448/100/440
f 450/96/442 455/102/447 449/95/441
f 451/91/444 456/103/448 450/96/442
f 452/105/443 463/112/449 457/98/450
f 453/101/445 458/114/451 452/99/443
f 454/108/446 459/106/452 453/101/445
f 461/109/453 454/108/446 455/102/447
f 462/110/454 455/102/447 456/103/448
f 463/112/449 456/103/448 457/98/450
f 458/104/451 469/119/455 463/112/449
f 459/106/452 464/121/456 458/114/451
f 460/107/457 465/113/458 459/106/452
f 467/116/459 460/107/457 461/109/453
f 468/117/460 461/109/453 462/110/454
f 469/119/455 462/110/454 463/112/449
f 464/111/456 475/126/461 469/119/455
f 465/113/458 470/128/462 464/121/456
f 466/115/463 471/120/464 465/113/458
f 473/123/465 466/115/463 467/116/459
f 474/124/466 467/116/459 468/117/460
f 475/126/461 468/117/460 469/119/455
f 470/118/462 481/133/467 475/126/461
f 471/120/464 476/135/468 470/128/462
f 472/122/469 477/127/470 471/120/464
f 479/130/471 472/122/469 473/123/465
f 480/131/472 473/123/465 474/124/466
f 481/133/467 474/124/466 475/126/461
f 476/125/468 487/139/473 481/133/467
f 477/127/470 482/140/474 476/135/468
f 478/129/475 483/134/476 477/127/470
f 485/137/477 478/129/475 479/130/471
f 486/138/478 479/130/471 480/131/472
f 487/139/473 480/131/472 481/133/467
f 495/64/489 506/65/490 500/66/491
f 496/67/492 501/68/493 495/69/489
f 497/70/494 502/71/495 496/67/492
f 504/72/496 497/70/494 498/73/497
f 505/74/498 498/73/497 499/75/499
f 506/65/490 499/75/499 500/66/491
f 501/76/493 512/77/500 506/65/490
f 502/71/495 507/78/501 501/68/493
f 503/79/502 508/80/503 502/71/495
f 510/81/504 503/79/502 504/72/496
f 511/82/505 504/72/496 505/74/498
f 512/77/500 505/74/498 506/65/490
f 507/83/501 518/84/506 512/77/500
f 508/80/503 513/85/507 507/78/501
f 509/86/508 514/87/509 508/80/503
f 516/88/510 509/86/508 510/81/504
f 517/89/511 510/81/504 511/82/505
f 518/84/506 511/82/505 512/77/500
f 513/90/507 524/91/512 518/84/506
f 514/87/509 519/92/513 513/85/507
f 515/93/514 520/94/515 514/87/509
f 522/95/516 515/93/514 516/88/510
f 523/96/517 516/88/510 517/89/511
f 524/91/512 517/89/511 518/84/506
f 519/97/513 530/98/518 524/91/512
f 520/94/515 525/99/519 519/92/513
f 521/100/520 526/101/521 520/94/515
f 528/102/522 521/100/520 522/95/516
f 529/103/523 522/95/516 523/96/517
f 530/98/518 523/96/517 524/91/512
f 531/104/524 530/98/518 525/105/519
f 532/106/525 525/99/519 526/101/521
f 533/107/526 526/101/521 527/108/527
f 528/102/522 533/107/526 527/108/527
f 529/103/523 534/109/528 528/102/522
f 530/98/518 535/110/529 529/103/523
f 537/111/530 536/112/531 531/104/524
f 538/113/532 531/114/524 532/106/525
f 539/115/533 532/106/525 533/107/526
f 534/109/528 539/115/533 533/107/526
f 535/110/529 540/116/534 534/109/528
f 536/112/531 541/117/535 535/110/529
f 543/118/536 542/119/537 537/111/530
f 544/120/538 537/121/530 538/113/532
f 545/122/539 538/113/532 539/115/533
f 540/116/534 545/122/539 539/115/533
f 541/117/535 546/123/540 540/116/534
f 542/119/537 547/124/541 541/117/535
f 549/125/542 548/126/543 543/118/536
f 550/127/544 543/128/536 544/120/538
f 551/129/545 544/120/538 545/122/539
f 546/123/540 551/129/545 545/122/539
f 547/124/541 552/130/546 546/123/540
f 548/126/543 553/131/547 547/124/541
f 555/132/548 554/133/549 549/125/542
f 556/134/550 549/135/542 550/127/544
f 557/136/551 550/127/544 551/129/545
f 552/130/546 557/136/551 551/129/545
f 553/131/547 558/137/552 552/130/546
f 554/133/549 559/138/553 553/131/547
f 85/64/79 91/76/83 96/65/80
f 86/67/82 92/71/85 91/68/83
f 87/70/84 93/79/92 92/71/85
f 94/72/86 93/79/92 87/70/84
f 95/74/88 94/72/86 88/73/87
f 96/65/80 95/74/88 89/75/89
f 91/76/83 97/83/91 102/77/90
f 92/71/85 98/80/93 97/78/91
f 93/79/92 99/86/98 98/80/93
f 100/81/94 99/86/98 93/79/92
f 101/82/95 100/81/94 94/72/86
f 102/77/90 101/82/95 95/74/88
f 97/83/91 103/90/97 108/84/96
f 98/80/93 104/87/99 103/85/97
f 99/86/98 105/93/104 104/87/99
f 106/88/100 105/93/104 99/86/98
f 107/89/101 106/88/100 100/81/94
f 108/84/96 107/89/101 101/82/95
f 103/90/97 109/97/103 114/91/102
f 104/87/99 110/94/105 109/92/103
f 105/93/104 111/100/110 110/94/105
f 112/95/106 111/100/110 105/93/104
f 113/96/107 112/95/106 106/88/100
f 114/91/102 113/96/107 107/89/101
f 109/97/103 115/105/109 120/98/108
f 110/94/105 116/101/111 115/99/109
f 111/100/110 117/108/117 116/101/111
f 118/102/112 117/108/117 111/100/110
f 119/103/113 118/102/112 112/95/106
f 120/98/108 119/103/113 113/96/107
f 121/104/114 126/112/121 120/98/108
f 122/106/115 121/114/114 115/99/109
f 123/107/116 122/106/115 116/101/111
f 118/102/112 124/109/118 123/107/116
f 119/103/113 125/110/119 124/109/118
f 120/98/108 126/112/121 125/110/119
f 127/111/120 132/119/127 126/112/121
f 128/113/122 127/121/120 121/114/114
f 129/115/123 128/113/122 122/106/115
f 124/109/118 130/116/124 129/115/123
f 125/110/119 131/117/125 130/116/124
f 126/112/121 132/119/127 131/117/125
f 133/118/126 138/126/133 132/119/127
f 134/120/128 133/128/126 127/121/120
f 135/122/129 134/120/128 128/113/122
f 130/116/124 136/123/130 135/122/129
f 131/117/125 137/124/131 136/123/130
f 132/119/127 138/126/133 137/124/131
f 139/125/132 144/133/139 138/126/133
f 140/127/134 139/135/132 133/128/126
f 141/129/135 140/127/134 134/120/128
f 136/123/130 142/130/136 141/129/135
f 137/124/131 143/131/137 142/130/136
f 138/126/133 144/133/139 143/131/137
f 145/132/138 150/139/564 144/133/139
f 146/134/140 145/140/138 139/135/132
f 147/136/141 146/134/140 140/127/134
f 142/130/136 148/137/142 147/136/141
f 143/131/137 149/138/143 148/137/142
f 144/133/139 150/139/564 149/138/143
f 151/64/144 157/76/148 162/65/145
f 152/67/147 158/71/156 157/68/148
f 159/79/149 158/71/156 152/67/147
f 160/72/151 159/79/149 153/70/150
f 161/74/153 160/72/151 154/73/152
f 156/66/146 162/65/145 161/74/153
f 157/76/148 163/83/157 168/77/155
f 158/71/156 164/80/162 163/78/157
f 165/86/158 164/80/162 158/71/156
f 166/81/159 165/86/158 159/79/149
f 167/82/160 166/81/159 160/72/151
f 162/65/145 168/77/155 167/82/160
f 163/83/157 169/90/163 174/84/161
f 164/80/162 170/87/168 169/85/163
f 171/93/164 170/87/168 164/80/162
f 172/88/165 171/93/164 165/86/158
f 173/89/166 172/88/165 166/81/159
f 168/77/155 174/84/161 173/89/166
f 169/90/163 175/97/169 180/91/167
f 170/87/168 176/94/174 175/92/169
f 177/100/170 176/94/174 170/87/168
f 178/95/171 177/100/170 171/93/164
f 179/96/172 178/95/171 172/88/165
f 174/84/161 180/91/167 179/96/172
f 175/97/169 181/105/175 186/98/173
f 176/94/174 182/101/181 181/99/175
f 183/108/176 182/101/181 176/94/174
f 184/102/177 183/108/176 177/100/170
f 185/103/178 184/102/177 178/95/171
f 180/91/167 186/98/173 185/103/178
f 187/104/179 192/112/184 186/98/173
f 188/106/180 187/114/179 181/99/175
f 183/108/176 189/107/182 188/106/180
f 184/102/177 190/109/183 189/107/182
f 185/103/178 191/110/188 190/109/183
f 192/112/184 191/110/188 185/103/178
f 193/111/185 198/119/190 192/112/184
f 194/113/186 193/121/185 187/114/179
f 189/107/182 195/115/187 194/113/186
f 190/109/183 196/116/189 195/115/187
f 191/110/188 197/117/194 196/116/189
f 198/119/190 197/117/194 191/110/188
f 199/118/191 204/126/196 198/119/190
f 200/120/192 199/128/191 193/121/185
f 195/115/187 201/122/193 200/120/192
f 196/116/189 202/123/195 201/122/193
f 197/117/194 203/124/200 202/123/195
f 204/126/196 203/124/200 197/117/194
f 205/125/197 210/133/202 204/126/196
f 206/127/198 205/135/197 199/128/191
f 201/122/193 207/129/199 206/127/198
f 202/123/195 208/130/201 207/129/199
f 203/124/200 209/131/206 208/130/201
f 210/133/202 209/131/206 203/124/200
f 211/132/203 216/139/208 210/133/202
f 212/134/204 211/140/203 205/135/197
f 207/129/199 213/136/205 212/134/204
f 208/130/201 214/137/207 213/136/205
f 209/131/206 215/138/565 214/137/207
f 216/139/208 215/138/565 209/131/206
f 223/76/209 228/65/221 222/66/210
f 224/71/212 223/68/209 217/69/211
f 225/79/214 224/71/212 218/67/213
f 220/73/216 226/72/218 225/79/214
f 221/75/217 227/74/219 226/72/218
f 222/66/210 228/65/221 227/74/219
f 229/83/220 234/77/227 228/65/221
f 230/80/222 229/78/220 223/68/209
f 231/86/223 230/80/222 224/71/212
f 226/72/218 232/81/224 231/86/223
f 227/74/219 233/82/225 232/81/224
f 228/65/221 234/77/227 233/82/225
f 235/90/226 240/84/233 234/77/227
f 236/87/228 235/85/226 229/78/220
f 237/93/229 236/87/228 230/80/222
f 232/81/224 238/88/230 237/93/229
f 233/82/225 239/89/231 238/88/230
f 234/77/227 240/84/233 239/89/231
f 241/97/232 246/91/239 240/84/233
f 242/94/234 241/92/232 235/85/226
f 243/100/235 242/94/234 236/87/228
f 238/88/230 244/95/236 243/100/235
f 239/89/231 245/96/237 244/95/236
f 240/84/233 246/91/239 245/96/237
f 247/105/238 252/98/245 246/91/239
f 248/101/240 247/99/238 241/92/232
f 249/108/241 248/101/240 242/94/234
f 244/95/236 250/102/242 249/108/241
f 245/96/237 251/103/243 250/102/242
f 246/91/239 252/98/245 251/103/243
f 247/105/238 253/104/246 258/112/244
f 248/101/240 254/106/247 253/114/246
f 249/108/241 255/107/252 254/106/247
f 256/109/248 255/107/252 249/108/241
f 257/110/249 256/109/248 250/102/242
f 258/112/244 257/110/249 251/103/243
f 253/104/246 259/111/251 264/119/250
f 254/106/247 260/113/253 259/121/251
f 255/107/252 261/115/258 260/113/253
f 262/116/254 261/115/258 255/107/252
f 263/117/255 262/116/254 256/109/248
f 264/119/250 263/117/255 257/110/249
f 259/111/251 265/118/257 270/126/256
f 260/113/253 266/120/259 265/128/257
f 261/115/258 267/122/264 266/120/259
f 268/123/260 267/122/264 261/115/258
f 269/124/261 268/123/260 262/116/254
f 270/126/256 269/124/261 263/117/255
f 265/118/257 271/125/263 276/133/262
f 266/120/259 272/127/265 271/135/263
f 267/122/264 273/129/270 272/127/265
f 274/130/266 273/129/270 267/122/264
f 275/131/267 274/130/266 268/123/260
f 276/133/262 275/131/267 269/124/261
f 271/125/263 277/132/269 282/139/268
f 272/127/265 278/134/271 277/140/269
f 273/129/270 279/136/566 278/134/271
f 280/137/272 279/136/566 273/129/270
f 281/138/273 280/137/272 274/130/266
f 282/139/268 281/138/273 275/131/267
f 289/76/274 294/65/286 288/66/275
f 290/71/277 289/68/274 283/69/276
f 291/79/279 290/71/277 284/67/278
f 286/73/281 292/72/283 291/79/279
f 287/75/282 293/74/284 292/72/283
f 288/66/275 294/65/286 293/74/284
f 295/83/285 300/77/292 294/65/286
f 296/80/287 295/78/285 289/68/274
f 297/86/288 296/80/287 290/71/277
f 292/72/283 298/81/289 297/86/288
f 293/74/284 299/82/290 298/81/289
f 294/65/286 300/77/292 299/82/290
f 301/90/291 306/84/298 300/77/292
f 302/87/293 301/85/291 295/78/285
f 303/93/294 302/87/293 296/80/287
f 298/81/289 304/88/295 303/93/294
f 299/82/290 305/89/296 304/88/295
f 300/77/292 306/84/298 305/89/296
f 307/97/297 312/91/304 306/84/298
f 308/94/299 307/92/297 301/85/291
f 309/100/300 308/94/299 302/87/293
f 304/88/295 310/95/301 309/100/300
f 305/89/296 311/96/302 310/95/301
f 306/84/298 312/91/304 311/96/302
f 313/105/303 318/98/310 312/91/304
f 314/101/305 313/99/303 307/92/297
f 315/108/306 314/101/305 308/94/299
f 310/95/301 316/102/307 315/108/306
f 311/96/302 317/103/308 316/102/307
f 312/91/304 318/98/310 317/103/308
f 313/105/303 319/104/311 324/112/309
f 314/101/305 320/106/312 319/114/311
f 315/108/306 321/107/317 320/106/312
f 322/109/313 321/107/317 315/108/306
f 323/110/314 322/109/313 316/102/307
f 324/112/309 323/110/314 317/103/308
f 319/104/311 325/111/316 330/119/315
f 320/106/312 326/113/318 325/121/316
f 321/107/317 327/115/323 326/113/318
f 328/116/319 327/115/323 321/107/317
f 329/117/320 328/116/319 322/109/313
f 330/119/315 329/117/320 323/110/314
f 325/111/316 331/118/322 336/126/321
f 326/113/318 332/120/324 331/128/322
f 327/115/323 333/122/329 332/120/324
f 334/123/325 333/122/329 327/115/323
f 335/124/326 334/123/325 328/116/319
f 336/126/321 335/124/326 329/117/320
f 331/118/322 337/125/328 342/133/327
f 332/120/324 338/127/330 337/135/328
f 333/122/329 339/129/335 338/127/330
f 340/130/331 339/129/335 333/122/329
f 341/131/332 340/130/331 334/123/325
f 342/133/327 341/131/332 335/124/326
f 337/125/328 343/132/334 348/139/333
f 338/127/330 344/134/336 343/140/334
f 339/129/335 345/136/567 344/134/336
f 346/137/337 345/136/567 339/129/335
f 347/138/338 346/137/337 340/130/331
f 348/139/333 347/138/338 341/131/332
f 355/76/339 360/65/349 354/66/340
f 350/67/342 356/71/344 355/68/339
f 351/70/343 357/79/346 356/71/344
f 352/73/345 358/72/352 357/79/346
f 359/74/347 358/72/352 352/73/345
f 360/65/349 359/74/347 353/75/348
f 361/83/350 366/77/355 360/65/349
f 356/71/344 362/80/351 361/78/350
f 357/79/346 363/86/353 362/80/351
f 358/72/352 364/81/358 363/86/353
f 365/82/354 364/81/358 358/72/352
f 366/77/355 365/82/354 359/74/347
f 367/90/356 372/84/361 366/77/355
f 362/80/351 368/87/357 367/85/356
f 363/86/353 369/93/359 368/87/357
f 364/81/358 370/88/364 369/93/359
f 371/89/360 370/88/364 364/81/358
f 372/84/361 371/89/360 365/82/354
f 373/97/362 378/91/367 372/84/361
f 368/87/357 374/94/363 373/92/362
f 369/93/359 375/100/365 374/94/363
f 370/88/364 376/95/370 375/100/365
f 377/96/366 376/95/370 370/88/364
f 378/91/367 377/96/366 371/89/360
f 379/105/368 384/98/373 378/91/367
f 374/94/363 380/101/369 379/99/368
f 375/100/365 381/108/371 380/101/369
f 376/95/370 382/102/378 381/108/371
f 383/103/372 382/102/378 376/95/370
f 384/98/373 383/103/372 377/96/366
f 379/105/368 385/104/380 390/112/374
f 386/106/375 385/114/380 379/99/368
f 387/107/376 386/106/375 380/101/369
f 388/109/377 387/107/376 381/108/371
f 383/103/372 389/110/379 388/109/377
f 384/98/373 390/112/374 389/110/379
f 385/104/380 391/111/386 396/119/381
f 392/113/382 391/121/386 385/114/380
f 393/115/383 392/113/382 386/106/375
f 394/116/384 393/115/383 387/107/376
f 389/110/379 395/117/385 394/116/384
f 390/112/374 396/119/381 395/117/385
f 391/111/386 397/118/392 402/126/387
f 398/120/388 397/128/392 391/121/386
f 399/122/389 398/120/388 392/113/382
f 400/123/390 399/122/389 393/115/383
f 395/117/385 401/124/391 400/123/390
f 396/119/381 402/126/387 401/124/391
f 397/118/392 403/125/398 408/133/393
f 404/127/394 403/135/398 397/128/392
f 405/129/395 404/127/394 398/120/388
f 406/130/396 405/129/395 399/122/389
f 401/124/391 407/131/397 406/130/396
f 402/126/387 408/133/393 407/131/397
f 403/125/398 409/132/568 414/139/399
f 410/134/400 409/140/568 403/135/398
f 411/136/401 410/134/400 404/127/394
f 412/137/402 411/136/401 405/129/395
f 407/131/397 413/138/403 412/137/402
f 408/133/393 414/139/399 413/138/403
f 428/76/414 433/65/426 427/66/415
f 429/71/417 428/68/414 422/69/416
f 430/79/419 429/71/417 423/67/418
f 425/73/421 431/72/423 430/79/419
f 426/75/422 432/74/424 431/72/423
f 427/66/415 433/65/426 432/74/424
f 434/83/425 439/77/432 433/65/426
f 435/80/427 434/78/425 428/68/414
f 436/86/428 435/80/427 429/71/417
f 431/72/423 437/81/429 436/86/428
f 432/74/424 438/82/430 437/81/429
f 433/65/426 439/77/432 438/82/430
f 440/90/431 445/84/438 439/77/432
f 441/87/433 440/85/431 434/78/425
f 442/93/434 441/87/433 435/80/427
f 437/81/429 443/88/435 442/93/434
f 438/82/430 444/89/436 443/88/435
f 439/77/432 445/84/438 444/89/436
f 446/97/437 451/91/444 445/84/438
f 447/94/439 446/92/437 440/85/431
f 448/100/440 447/94/439 441/87/433
f 443/88/435 449/95/441 448/100/440
f 444/89/436 450/96/442 449/95/441
f 445/84/438 451/91/444 450/96/442
f 452/105/443 457/98/450 451/91/444
f 453/101/445 452/99/443 446/92/437
f 454/108/446 453/101/445 447/94/439
f 449/95/441 455/102/447 454/108/446
f 450/96/442 456/103/448 455/102/447
f 451/91/444 457/98/450 456/103/448
f 452/105/443 458/104/451 463/112/449
f 453/101/445 459/106/452 458/114/451
f 454/108/446 460/107/457 459/106/452
f 461/109/453 460/107/457 454/108/446
f 462/110/454 461/109/453 455/102/447
f 463/112/449 462/110/454 456/103/448
f 458/104/451 464/111/456 469/119/455
f 459/106/452 465/113/458 464/121/456
f 460/107/457 466/115/463 465/113/458
f 467/116/459 466/115/463 460/107/457
f 468/117/460 467/116/459 461/109/453
f 469/119/455 468/117/460 462/110/454
f 464/111/456 470/118/462 475/126/461
f 465/113/458 471/120/464 470/128/462
f 466/115/463 472/122/469 471/120/464
f 473/123/465 472/122/469 466/115/463
f 474/124/466 473/123/465 467/116/459
f 475/126/461 474/124/466 468/117/460
f 470/118/462 476/125/468 481/133/467
f 471/120/464 477/127/470 476/135/468
f 472/122/469 478/129/475 477/127/470
f 479/130/471 478/129/475 472/122/469
f 480/131/472 479/130/471 473/123/465
f 481/133/467 480/131/472 474/124/466
f 476/125/468 482/132/474 487/139/473
f 477/127/470 483/134/476 482/140/474
f 478/129/475 484/136/569 483/134/476
f 485/137/477 484/136/569 478/129/475
f 486/138/478 485/137/477 479/130/471
f 487/139/473 486/138/478 480/131/472
f 495/64/489 501/76/493 506/65/490
f 496/67/492 502/71/495 501/68/493
f 497/70/494 503/79/502 502/71/495
f 504/72/496 503/79/502 497/70/494
f 505/74/498 504/72/496 498/73/497
f 506/65/490 505/74/498 499/75/499
f 501/76/493 507/83/501 512/77/500
f 502/71/495 508/80/503 507/78/501
f 503/79/502 509/86/508 508/80/503
f 510/81/504 509/86/508 503/79/502
f 511/82/505 510/81/504 504/72/496
f 512/77/500 511/82/505 505/74/498
f 507/83/501 513/90/507 518/84/506
f 508/80/503 514/87/509 513/85/507
f 509/86/508 515/93/514 514/87/509
f 516/88/510 515/93/514 509/86/508
f 517/89/511 516/88/510 510/81/504
f 518/84/506 517/89/511 511/82/505
f 513/90/507 519/97/513 524/91/512
f 514/87/509 520/94/515 519/92/513
f 515/93/514 521/100/520 520/94/515
f 522/95/516 521/100/520 515/93/514
f 523/96/517 522/95/516 516/88/510
f 524/91/512 523/96/517 517/89/511
f 519/97/513 525/105/519 530/98/518
f 520/94/515 526/101/521 525/99/519
f 521/100/520 527/108/527 526/101/521
f 528/102/522 527/108/527 521/100/520
f 529/103/523 528/102/522 522/95/516
f 530/98/518 529/103/523 523/96/517
f 531/104/524 536/112/531 530/98/518
f 532/106/525 531/114/524 525/99/519
f 533/107/526 532/106/525 526/101/521
f 528/102/522 534/109/528 533/107/526
f 529/103/523 535/110/529 534/109/528
f 530/98/518 536/112/531 535/110/529
f 537/111/530 542/119/537 536/112/531
f 538/113/532 537/121/530 531/114/524
f 539/115/533 538/113/532 532/106/525
f 534/109/528 540/116/534 539/115/533
f 535/110/529 541/117/535 540/116/534
f 536/112/531 542/119/537 541/117/535
f 543/118/536 548/126/543 542/119/537
f 544/120/538 543/128/536 537/121/530
f 545/122/539 544/120/538 538/113/532
f 540/116/534 546/123/540 545/122/539
f 541/117/535 547/124/541 546/123/540
f 542/119/537 548/126/543 547/124/541
f 549/125/542 554/133/549 548/126/543
f 550/127/544 549/135/542 543/128/536
f 551/129/545 550/127/544 544/120/538
f 546/123/540 552/130/546 551/129/545
f 547/124/541 553/131/547 552/130/546
f 548/126/543 554/133/549 553/131/547
f 555/132/548 560/139/570 554/133/549
f 556/134/550 555/140/548 549/135/542
f 557/136/551 556/134/550 550/127/544
f 552/130/546 558/137/552 557/136/551
f 553/131/547 559/138/553 558/137/552
f 554/133/549 560/139/570 559/138/553
usemtl AnomalyCore
f 43/1/43 56/2/44 55/3/45
f 44/4/46 56/5/44 58/6/5
f 43/7/43 55/8/45 60/9/6
f 43/10/43 60/11/6 62/12/47
f 43/13/43 62/14/47 59/15/48
f 44/4/46 58/6/5 65/16/49
f 45/17/50 57/18/51 67/19/12
f 46/20/52 61/21/53 69/22/54
f 47/23/55 63/24/56 71/25/57
f 48/26/58 64/27/59 73/28/60
f 44/4/46 65/16/49 68/29/61
f 45/17/50 67/19/12 70/30/62
f 46/20/52 69/22/54 72/31/63
f 47/23/55 71/25/57 74/32/25
f 48/26/58 73/28/60 66/33/64
f 49/34/65 75/35/66 80/36/67
f 50/37/68 76/38/69 82/39/70
f 51/40/71 77/41/34 83/42/72
f 52/43/73 78/44/74 84/45/75
f 53/46/76 79/47/77 81/48/41
f 81/48/41 84/49/75 54/50/78
f 81/48/41 79/47/77 84/49/75
f 79/47/77 52/43/73 84/49/75
f 84/45/75 83/51/72 54/52/78
f 84/45/75 78/44/74 83/51/72
f 78/44/74 51/40/71 83/51/72
f 83/42/72 82/53/70 54/54/78
f 83/42/72 77/41/34 82/53/70
f 77/41/34 50/55/68 82/53/70
f 82/39/70 80/56/67 54/57/78
f 82/39/70 76/38/69 80/56/67
f 76/38/69 49/34/65 80/56/67
f 80/36/67 81/58/41 54/59/78
f 80/36/67 75/35/66 81/58/41
f 75/35/66 53/46/76 81/58/41
f 66/33/64 79/47/77 53/46/76
f 66/33/64 73/28/60 79/47/77
f 73/28/60 52/43/73 79/47/77
f 74/32/25 78/44/74 52/43/73
f 74/32/25 71/25/57 78/44/74
f 71/25/57 51/40/71 78/44/74
f 72/31/63 77/41/34 51/40/71
f 72/31/63 69/22/54 77/41/34
f 69/22/54 50/55/68 77/41/34
f 70/30/62 76/38/69 50/37/68
f 70/30/62 67/19/12 76/38/69
f 67/19/12 49/34/65 76/38/69
f 68/29/61 75/35/66 49/34/65
f 68/29/61 65/16/49 75/35/66
f 65/16/49 53/46/76 75/35/66
f 73/28/60 74/32/25 52/43/73
f 73/28/60 64/27/59 74/32/25
f 64/27/59 47/23/55 74/32/25
f 71/25/57 72/31/63 51/40/71
f 71/25/57 63/24/56 72/31/63
f 63/24/56 46/20/52 72/31/63
f 69/22/54 70/60/62 50/55/68
f 69/22/54 61/21/53 70/60/62
f 61/21/53 45/61/50 70/60/62
f 67/19/12 68/29/61 49/34/65
f 67/19/12 57/18/51 68/29/61
f 57/18/51 44/4/46 68/29/61
f 65/16/49 66/33/64 53/46/76
f 65/16/49 58/6/5 66/33/64
f 58/6/5 48/26/58 66/33/64
f 59/15/48 64/27/59 48/26/58
f 59/15/48 62/14/47 64/27/59
f 62/14/47 47/23/55 64/27/59
f 62/12/47 63/24/56 47/23/55
f 62/12/47 60/11/6 63/24/56
f 60/11/6 46/20/52 63/24/56
f 60/9/6 61/21/53 46/20/52
f 60/9/6 55/8/45 61/21/53
f 55/8/45 45/61/50 61/21/53
f 58/6/5 59/62/48 48/26/58
f 58/6/5 56/5/44 59/62/48
f 56/5/44 43/63/43 59/62/48
f 55/3/45 57/18/51 45/17/50
f 55/3/45 56/2/44 57/18/51
f 56/2/44 44/4/46 57/18/51
s 0
usemtl GlacierIce
f 415/69/404 417/69/404 416/69/404
f 416/69/405 417/69/405 421/69/405
f 415/69/406 418/69/406 417/69/406
f 417/69/407 418/69/407 421/69/407
f 415/69/408 419/69/408 418/69/408
f 418/69/409 419/69/409 421/69/409
f 415/69/410 420/69/410 419/69/410
f 419/69/411 420/69/411 421/69/411
f 415/69/412 416/69/412 420/69/412
f 420/69/413 416/69/413 421/69/413
f 488/69/479 490/69/479 489/69/479
f 489/69/480 490/69/480 494/69/480
f 488/69/481 491/69/481 490/69/481
f 490/69/482 491/69/482 494/69/482
f 488/69/483 492/69/483 491/69/483
f 491/69/484 492/69/484 494/69/484
f 488/69/485 493/69/485 492/69/485
f 492/69/486 493/69/486 494/69/486
f 488/69/487 489/69/487 493/69/487
f 493/69/488 489/69/488 494/69/488
f 561/69/554 563/69/554 562/69/554
f 562/69/555 563/69/555 567/69/555
f 561/69/556 564/69/556 563/69/556
f 563/69/557 564/69/557 567/69/557
f 561/69/558 565/69/558 564/69/558
f 564/69/559 565/69/559 567/69/559
f 561/69/560 566/69/560 565/69/560
f 565/69/561 566/69/561 567/69/561
f 561/69/562 562/69/562 566/69/562
f 566/69/563 562/69/563 567/69/563
