# Blender 4.4.1
# www.blender.org
mtllib NormalEnemy.mtl
o NormalEnemy
v 0.000000 -0.391332 0.000000
v 0.283171 -0.175011 0.160472
v -0.108159 -0.175011 0.259651
v -0.350017 -0.175010 0.000000
v -0.108159 -0.175011 -0.259651
v 0.283171 -0.175011 -0.160472
v 0.108159 0.175011 0.259651
v -0.283171 0.175011 0.160472
v -0.283171 0.175011 -0.160472
v 0.108159 0.175011 -0.259651
v 0.350017 0.175010 0.000000
v 0.000000 0.391332 0.000000
v -0.063574 -0.332888 0.152618
v 0.166442 -0.332888 0.094322
v 0.102869 -0.205738 0.246942
v 0.332886 -0.205737 0.000000
v 0.166442 -0.332888 -0.094322
v -0.205735 -0.332887 0.000000
v -0.269310 -0.205737 0.152618
v -0.063574 -0.332888 -0.152618
v -0.269310 -0.205737 -0.152618
v 0.102869 -0.205738 -0.246942
v 0.372179 0.000000 0.094323
v 0.372179 0.000000 -0.094323
v 0.000000 0.000000 0.305239
v 0.230019 0.000000 0.246943
v -0.372179 0.000000 0.094323
v -0.230019 0.000000 0.246943
v -0.230019 0.000000 -0.246943
v -0.372179 0.000000 -0.094323
v 0.230019 0.000000 -0.246943
v 0.000000 0.000000 -0.305239
v 0.269310 0.205737 0.152618
v -0.102869 0.205738 0.246942
v -0.332886 0.205737 0.000000
v -0.102869 0.205738 -0.246942
v 0.269310 0.205737 -0.152618
v 0.063574 0.332888 0.152618
v 0.205735 0.332887 0.000000
v -0.166442 0.332888 0.094322
v -0.166442 0.332888 -0.094322
v 0.063574 0.332888 -0.152618
v 0.000000 -0.156533 0.273932
v 0.127427 -0.059188 0.366512
v -0.048672 -0.059189 0.423731
v -0.157508 -0.059188 0.273932
v -0.048672 -0.059189 0.124134
v 0.127427 -0.059188 0.181352
v 0.048672 0.098322 0.423731
v -0.127427 0.098322 0.366512
v -0.127427 0.098322 0.181352
v 0.048672 0.098322 0.124134
v 0.157508 0.098321 0.273932
v 0.000000 0.195666 0.273932
v -0.028608 -0.130233 0.361981
v 0.074899 -0.130233 0.328349
v 0.046291 -0.073015 0.416399
v 0.149799 -0.073015 0.273932
v 0.074899 -0.130233 0.219516
v -0.092581 -0.130233 0.273932
v -0.121190 -0.073015 0.361981
v -0.028608 -0.130233 0.185883
v -0.121190 -0.073015 0.185883
v 0.046291 -0.073015 0.131466
v 0.167481 0.019567 0.328349
v 0.167481 0.019567 0.219515
v 0.000000 0.019567 0.450032
v 0.103509 0.019567 0.416400
v -0.167481 0.019567 0.328349
v -0.103509 0.019567 0.416400
v -0.103509 0.019567 0.131465
v -0.167481 0.019567 0.219515
v 0.103509 0.019567 0.131465
v 0.000000 0.019567 0.097833
v 0.121190 0.112148 0.361981
v -0.046291 0.112149 0.416399
v -0.149799 0.112148 0.273932
v -0.046291 0.112149 0.131466
v 0.121190 0.112148 0.185883
v 0.028608 0.169366 0.361981
v 0.092581 0.169366 0.273932
v -0.074899 0.169366 0.328349
v -0.074899 0.169366 0.219516
v 0.028608 0.169366 0.185883
v 0.122676 0.022608 0.338451
v 0.140212 0.022608 0.359496
v 0.154501 -0.000000 0.365417
v 0.151256 -0.022608 0.350293
v 0.133721 -0.022608 0.329248
v 0.119431 0.000000 0.323327
v 0.152973 0.034635 0.315214
v 0.169216 0.034118 0.337266
v 0.182789 0.011223 0.343746
v 0.180119 -0.011155 0.328174
v 0.163876 -0.010638 0.306122
v 0.150303 0.012257 0.299642
v 0.180601 0.045061 0.296152
v 0.196531 0.044424 0.318428
v 0.209930 0.021462 0.325033
v 0.207400 -0.000862 0.309361
v 0.191470 -0.000225 0.287085
v 0.178071 0.022737 0.280480
v 0.205785 0.054745 0.278068
v 0.222853 0.054554 0.299493
v 0.236883 0.031840 0.305626
v 0.233846 0.009317 0.290332
v 0.216778 0.009508 0.268907
v 0.202748 0.032222 0.262775
v 0.229232 0.064680 0.257621
v 0.248489 0.065429 0.277089
v 0.263735 0.043237 0.282135
v 0.259723 0.020295 0.267713
v 0.240465 0.019546 0.248246
v 0.225220 0.041738 0.243200
v 0.251936 0.075972 0.231255
v 0.273519 0.077879 0.248016
v 0.290055 0.056329 0.251560
v 0.285007 0.032872 0.238344
v 0.263424 0.030965 0.221583
v 0.246889 0.052515 0.218038
v 0.280139 0.093000 0.186710
v 0.303635 0.096060 0.200457
v 0.321232 0.075150 0.202329
v 0.315333 0.051180 0.190454
v 0.291837 0.048119 0.176708
v 0.274240 0.069030 0.174835
v 0.299441 0.107833 0.143736
v 0.324174 0.111822 0.154814
v 0.342457 0.091427 0.155206
v 0.336007 0.067043 0.144520
v 0.311274 0.063054 0.133441
v 0.292991 0.083449 0.133049
v 0.314442 0.122080 0.099652
v 0.339659 0.126507 0.109392
v 0.358211 0.106355 0.109042
v 0.351545 0.081776 0.098951
v 0.326328 0.077349 0.089211
v 0.307776 0.097501 0.089561
v 0.329619 0.137241 0.052118
v 0.354712 0.141550 0.062224
v 0.373195 0.121333 0.062076
v 0.366585 0.096806 0.051822
v 0.341491 0.092497 0.041717
v 0.323008 0.112714 0.041864
v 0.349450 0.154686 -0.000702
v 0.373955 0.158487 0.010936
v 0.392112 0.137988 0.011638
v 0.385763 0.113687 0.000702
v 0.361258 0.109887 -0.010936
v 0.343101 0.130386 -0.011638
v 0.030591 0.144809 0.364399
v 0.057844 0.144809 0.361633
v 0.069578 0.130263 0.341606
v 0.054059 0.115716 0.324345
v 0.026806 0.115716 0.327111
v 0.015072 0.130263 0.347138
v 0.028636 0.175510 0.342489
v 0.055906 0.175258 0.339906
v 0.067570 0.161770 0.319112
v 0.051964 0.148535 0.300900
v 0.024694 0.148788 0.303482
v 0.013030 0.162276 0.324277
v 0.027281 0.204567 0.323722
v 0.054554 0.204253 0.321180
v 0.066205 0.191021 0.300215
v 0.050582 0.178102 0.281791
v 0.023309 0.178416 0.284333
v 0.011658 0.191648 0.305298
v 0.025757 0.233117 0.304517
v 0.053017 0.233026 0.301821
v 0.064723 0.218863 0.281503
v 0.049169 0.204793 0.263883
v 0.021909 0.204884 0.266580
v 0.010203 0.219047 0.286897
v 0.023268 0.261612 0.281492
v 0.050488 0.261953 0.278438
v 0.062360 0.245981 0.259614
v 0.047011 0.229670 0.243843
v 0.019791 0.229329 0.246896
v 0.007919 0.245301 0.265720
v 0.019041 0.290079 0.251561
v 0.046191 0.290888 0.248015
v 0.058355 0.272957 0.231253
v 0.043368 0.254219 0.218038
v 0.016217 0.253411 0.221584
v 0.004053 0.271341 0.238345
v 0.010895 0.325029 0.203046
v 0.037954 0.326233 0.198951
v 0.050503 0.306645 0.184488
v 0.035993 0.285852 0.174118
v 0.008934 0.284648 0.178213
v -0.003615 0.304237 0.192677
v 0.002093 0.349898 0.156557
v 0.029061 0.351369 0.151977
v 0.041991 0.330664 0.139547
v 0.027955 0.308489 0.131698
v 0.000987 0.307018 0.136278
v -0.011944 0.327723 0.148708
v -0.007173 0.369352 0.110711
v 0.019746 0.370931 0.105887
v 0.032880 0.349772 0.094477
v 0.019096 0.327034 0.087892
v -0.007823 0.325455 0.092716
v -0.020958 0.346614 0.104126
v -0.016805 0.388268 0.063659
v 0.010128 0.389819 0.058901
v 0.023206 0.368778 0.047213
v 0.009351 0.346185 0.040282
v -0.017581 0.344634 0.045039
v -0.030659 0.365676 0.056728
v -0.026871 0.411575 0.012856
v 0.000117 0.412996 0.008377
v 0.012965 0.392501 -0.004479
v -0.001175 0.370586 -0.012856
v -0.028162 0.369165 -0.008377
v -0.041010 0.389660 0.004479
v -0.115866 0.103819 0.357838
v -0.098860 0.103819 0.336362
v -0.093803 0.080507 0.322896
v -0.105750 0.057194 0.330906
v -0.122755 0.057194 0.352382
v -0.127813 0.080507 0.365848
v -0.145574 0.111424 0.335998
v -0.129783 0.111731 0.313616
v -0.125848 0.088702 0.299313
v -0.137704 0.065367 0.307391
v -0.153496 0.065060 0.329772
v -0.157431 0.088088 0.344076
v -0.173605 0.119108 0.317246
v -0.158105 0.119493 0.294663
v -0.154440 0.096537 0.280173
v -0.166274 0.073195 0.288267
v -0.181774 0.072810 0.310850
v -0.185439 0.095767 0.325339
v -0.201311 0.126503 0.297982
v -0.184747 0.126611 0.276164
v -0.180098 0.103399 0.262382
v -0.192012 0.080078 0.270418
v -0.208576 0.079970 0.292236
v -0.213226 0.103182 0.306018
v -0.229343 0.132978 0.274820
v -0.210688 0.132612 0.254764
v -0.204105 0.108962 0.242611
v -0.216177 0.085676 0.250514
v -0.234831 0.086042 0.270571
v -0.241414 0.109692 0.282724
v -0.257902 0.137784 0.244700
v -0.236942 0.137032 0.227078
v -0.228227 0.113023 0.217177
v -0.240472 0.089767 0.224898
v -0.261431 0.090519 0.242520
v -0.270146 0.114528 0.252421
v -0.293813 0.140851 0.195976
v -0.270852 0.139926 0.181065
v -0.260286 0.115758 0.173672
v -0.272681 0.092515 0.181189
v -0.295642 0.093440 0.196099
v -0.306208 0.117607 0.203493
v -0.320292 0.140163 0.149301
v -0.295939 0.139260 0.136791
v -0.284086 0.115112 0.131617
v -0.296585 0.091867 0.138954
v -0.320938 0.092770 0.151464
v -0.332792 0.116918 0.156638
v -0.341703 0.137357 0.103362
v -0.316766 0.136517 0.092055
v -0.304372 0.112427 0.087995
v -0.316915 0.089178 0.095241
v -0.341852 0.090017 0.106548
v -0.354246 0.114107 0.110608
v -0.362658 0.134043 0.056334
v -0.337873 0.133183 0.044699
v -0.325620 0.109075 0.040335
v -0.338152 0.085827 0.047606
v -0.362937 0.086687 0.059241
v -0.375190 0.110795 0.063605
v -0.387881 0.131677 0.005639
v -0.363793 0.130758 -0.007374
v -0.352185 0.106595 -0.013013
v -0.364665 0.083351 -0.005639
v -0.388752 0.084271 0.007374
v -0.400360 0.108434 0.013013
v -0.131141 -0.063014 0.338809
v -0.108478 -0.063014 0.323421
v -0.088145 -0.080507 0.328984
v -0.090475 -0.098000 0.349935
v -0.113137 -0.098000 0.365323
v -0.133470 -0.080507 0.359760
v -0.148133 -0.089838 0.316183
v -0.126132 -0.090889 0.299896
v -0.105837 -0.108442 0.305408
v -0.107543 -0.124945 0.327205
v -0.129544 -0.123894 0.343492
v -0.149839 -0.106340 0.337981
v -0.164245 -0.114341 0.297257
v -0.142408 -0.115644 0.280770
v -0.122122 -0.133212 0.286270
v -0.123674 -0.149478 0.308256
v -0.145512 -0.148176 0.324743
v -0.165798 -0.130607 0.319243
v -0.179326 -0.137603 0.278657
v -0.156901 -0.137986 0.262929
v -0.136582 -0.155501 0.268473
v -0.138688 -0.172633 0.289744
v -0.161113 -0.172250 0.305471
v -0.181432 -0.154735 0.299928
v -0.193195 -0.160663 0.257023
v -0.169682 -0.159219 0.243043
v -0.149300 -0.176629 0.248687
v -0.152431 -0.195483 0.268311
v -0.175944 -0.196927 0.282291
v -0.196326 -0.179517 0.276647
v -0.205654 -0.184540 0.229016
v -0.181069 -0.181041 0.217451
v -0.160626 -0.198332 0.223234
v -0.164766 -0.219124 0.240582
v -0.189350 -0.222623 0.252148
v -0.209794 -0.205332 0.246365
v -0.218988 -0.216141 0.182644
v -0.193628 -0.210805 0.173768
v -0.173140 -0.227991 0.179706
v -0.178012 -0.250513 0.194520
v -0.203372 -0.255848 0.203396
v -0.223860 -0.238662 0.197458
v -0.226161 -0.240382 0.138053
v -0.200395 -0.233727 0.131558
v -0.179883 -0.250837 0.137633
v -0.185138 -0.274602 0.150203
v -0.210904 -0.281257 0.156698
v -0.231416 -0.264147 0.150623
v -0.230004 -0.261113 0.093158
v -0.204118 -0.253888 0.087857
v -0.183600 -0.270965 0.094001
v -0.188967 -0.295267 0.105445
v -0.214853 -0.302492 0.110746
v -0.235372 -0.285415 0.104602
v -0.233353 -0.282197 0.045845
v -0.207494 -0.275122 0.040218
v -0.186977 -0.292208 0.046343
v -0.192318 -0.316369 0.058095
v -0.218177 -0.323444 0.063722
v -0.238694 -0.306358 0.057597
v -0.239035 -0.307508 -0.006046
v -0.213334 -0.301109 -0.013040
v -0.192826 -0.318234 -0.006994
v -0.198019 -0.341758 0.006046
v -0.223720 -0.348157 0.013040
v -0.244227 -0.331032 0.006994
v 0.041071 -0.111332 0.324612
v 0.062013 -0.111332 0.342271
v 0.063267 -0.130263 0.362031
v 0.043579 -0.149193 0.364132
v 0.022637 -0.149193 0.346473
v 0.021383 -0.130263 0.326713
v 0.062264 -0.136901 0.300933
v 0.082673 -0.136261 0.319194
v 0.083040 -0.154127 0.339955
v 0.062998 -0.172633 0.342456
v 0.042590 -0.173273 0.324195
v 0.042222 -0.155407 0.303433
v 0.080810 -0.160069 0.281772
v 0.101093 -0.159274 0.300167
v 0.101250 -0.176881 0.321152
v 0.081124 -0.195283 0.323741
v 0.060842 -0.196079 0.305346
v 0.060685 -0.178472 0.284361
v 0.097461 -0.180612 0.264062
v 0.118207 -0.180381 0.281948
v 0.119137 -0.198928 0.302086
v 0.099319 -0.217706 0.304338
v 0.078573 -0.217936 0.286452
v 0.077644 -0.199390 0.266314
v 0.113463 -0.199052 0.244478
v 0.135149 -0.199893 0.261193
v 0.137642 -0.220224 0.279382
v 0.118448 -0.239713 0.280857
v 0.096762 -0.238871 0.264142
v 0.094269 -0.218541 0.245952
v 0.130417 -0.216339 0.219303
v 0.153192 -0.218290 0.234399
v 0.157496 -0.240465 0.249895
v 0.139025 -0.260690 0.250295
v 0.116250 -0.258740 0.235199
v 0.111946 -0.236564 0.219703
v 0.154583 -0.237256 0.176086
v 0.178368 -0.240081 0.189379
v 0.184352 -0.263712 0.201875
v 0.166551 -0.284518 0.201078
v 0.142766 -0.281693 0.187785
v 0.136782 -0.258061 0.175289
v 0.174097 -0.250637 0.134287
v 0.198639 -0.253995 0.145984
v 0.205882 -0.278511 0.155824
v 0.188584 -0.299671 0.153968
v 0.164042 -0.296313 0.142271
v 0.156798 -0.271796 0.132431
v 0.192033 -0.260358 0.090793
v 0.216913 -0.263910 0.101689
v 0.224721 -0.288750 0.110198
v 0.207647 -0.310038 0.107810
v 0.182767 -0.306486 0.096914
v 0.174959 -0.281646 0.088405
v 0.211208 -0.270143 0.043098
v 0.235999 -0.273646 0.054213
v 0.243656 -0.298406 0.063085
v 0.226523 -0.319662 0.060843
v 0.201732 -0.316158 0.049728
v 0.194075 -0.291399 0.040855
v 0.234221 -0.283789 -0.010397
v 0.258613 -0.287052 0.001634
v 0.265608 -0.311411 0.012031
v 0.248211 -0.332508 0.010397
v 0.223819 -0.329245 -0.001634
v 0.216823 -0.304886 -0.012031
v 0.000000 0.213847 -0.045880
v 0.341526 0.603363 -0.184993
v 0.105537 0.548740 -0.337937
v -0.276300 0.569604 -0.279518
v -0.276300 0.637121 -0.090469
v 0.105537 0.657985 -0.032049
v 0.000000 1.280722 -0.426907
v -0.185197 -0.106923 -0.045880
v -0.392322 -0.301681 -0.500725
v -0.411595 -0.444956 -0.253405
v -0.584173 -0.390230 0.088458
v -0.671558 -0.213133 0.052421
v -0.552988 -0.158407 -0.311714
v -1.109138 -0.640361 -0.426907
v 0.185197 -0.106923 -0.045880
v 0.652733 -0.301681 0.130738
v 0.492067 -0.444956 -0.058272
v 0.373496 -0.390230 -0.422407
v 0.460881 -0.213133 -0.458444
v 0.633459 -0.158407 -0.116581
v 1.109138 -0.640361 -0.426907
v 0.000000 -0.064350 0.210492
v -0.177878 -0.105304 0.442561
v -0.054967 -0.188603 0.427861
v 0.143906 -0.156785 0.433476
v 0.143906 -0.053822 0.451646
v -0.054967 -0.022005 0.457261
v 0.000000 -0.177878 0.853815
vn 0.0010 -1.0000 -0.0000
vn 0.4184 -0.8324 0.3633
vn -0.1555 -0.8035 0.5746
vn 0.6798 -0.4201 0.6012
vn 0.8506 -0.5257 -0.0000
vn -0.5257 -0.8507 -0.0000
vn -0.1555 -0.8035 -0.5746
vn 0.4184 -0.8324 -0.3633
vn 0.9317 -0.0020 0.3633
vn -0.2364 -0.3826 0.8932
vn 0.2271 -0.4592 0.8588
vn -0.0000 -0.0000 1.0000
vn -0.8949 -0.4464 -0.0000
vn -0.6491 -0.4985 0.5746
vn -0.9317 0.0020 0.3633
vn -0.2364 -0.3826 -0.8932
vn -0.6491 -0.4985 -0.5746
vn -0.5123 -0.0023 -0.8588
vn 0.6798 -0.4201 -0.6012
vn 0.2271 -0.4592 -0.8588
vn 0.5123 0.0023 -0.8588
vn 0.5123 0.0023 0.8588
vn -0.5123 -0.0023 0.8588
vn -0.9317 0.0020 -0.3633
vn -0.0000 -0.0000 -1.0000
vn 0.9317 -0.0020 -0.3633
vn 0.2364 0.3826 0.8932
vn 0.6491 0.4985 0.5746
vn 0.1555 0.8035 0.5746
vn -0.6798 0.4201 0.6012
vn -0.2271 0.4592 0.8588
vn -0.4184 0.8324 0.3633
vn -0.6798 0.4201 -0.6012
vn -0.8506 0.5257 -0.0000
vn -0.4184 0.8324 -0.3633
vn 0.2364 0.3826 -0.8932
vn -0.2271 0.4592 -0.8588
vn 0.1555 0.8035 -0.5746
vn 0.8949 0.4464 -0.0000
vn 0.6491 0.4985 -0.5746
vn 0.5257 0.8507 -0.0000
vn -0.0010 1.0000 -0.0000
vn -0.0000 -1.0000 -0.0000
vn 0.4253 -0.8507 0.3090
vn -0.1625 -0.8507 0.5000
vn 0.7236 -0.4472 0.5257
vn -0.1625 -0.8507 -0.5000
vn 0.4253 -0.8507 -0.3090
vn 0.9511 -0.0000 0.3090
vn -0.2764 -0.4472 0.8506
vn 0.2629 -0.5257 0.8090
vn -0.8944 -0.4472 -0.0000
vn -0.6882 -0.5257 0.5000
vn -0.9511 -0.0000 0.3090
vn -0.2764 -0.4472 -0.8506
vn -0.6882 -0.5257 -0.5000
vn -0.5878 -0.0000 -0.8090
vn 0.7236 -0.4472 -0.5257
vn 0.2629 -0.5257 -0.8090
vn 0.5878 -0.0000 -0.8090
vn 0.5878 -0.0000 0.8090
vn -0.5878 -0.0000 0.8090
vn -0.9511 -0.0000 -0.3090
vn 0.9511 -0.0000 -0.3090
vn 0.2764 0.4472 0.8506
vn 0.6882 0.5257 0.5000
vn 0.1625 0.8507 0.5000
vn -0.7236 0.4472 0.5257
vn -0.2629 0.5257 0.8090
vn -0.4253 0.8507 0.3090
vn -0.7236 0.4472 -0.5257
vn -0.4253 0.8507 -0.3090
vn 0.2764 0.4472 -0.8506
vn -0.2629 0.5257 -0.8090
vn 0.1625 0.8507 -0.5000
vn 0.8944 0.4472 -0.0000
vn 0.6882 0.5257 -0.5000
vn -0.0000 1.0000 -0.0000
vn -0.5101 0.8268 -0.2370
vn -0.5932 0.0193 -0.8048
vn -0.6117 0.0124 -0.7910
vn 0.0986 0.8253 0.5560
vn -0.4981 0.8328 -0.2415
vn 0.6109 -0.0110 0.7916
vn 0.0931 0.8203 0.5644
vn 0.4928 -0.8387 0.2315
vn 0.5014 -0.8365 0.2211
vn -0.1018 -0.8136 -0.5725
vn -0.1129 -0.8146 -0.5689
vn -0.5812 0.0232 -0.8134
vn -0.4881 0.8393 -0.2393
vn 0.5927 -0.0185 0.8052
vn 0.0941 0.8136 0.5737
vn 0.4902 -0.8370 0.2431
vn -0.0907 -0.8162 -0.5706
vn -0.6222 0.0064 -0.7828
vn -0.5068 0.8349 -0.2147
vn 0.5817 -0.0234 0.8131
vn 0.1194 0.8161 0.5655
vn 0.5174 -0.8235 0.2328
vn -0.1022 -0.8283 -0.5509
vn -0.7024 -0.0286 -0.7113
vn -0.5473 0.8192 -0.1712
vn 0.6238 -0.0076 0.7815
vn 0.1603 0.8289 0.5360
vn 0.5652 -0.8012 0.1965
vn -0.1321 -0.8462 -0.5163
vn -0.7875 -0.0710 -0.6122
vn -0.5930 0.7966 -0.1175
vn 0.7036 0.0262 0.7101
vn 0.1999 0.8481 0.4907
vn 0.6137 -0.7769 0.1408
vn -0.1680 -0.8645 -0.4738
vn -0.6310 0.7736 -0.0584
vn 0.2316 0.8677 0.4398
vn 0.8579 0.1104 0.5018
vn 0.7882 0.0683 0.6116
vn 0.6531 -0.7533 0.0779
vn -0.1984 -0.8823 -0.4269
vn -0.6595 0.7516 -0.0086
vn -0.8575 -0.1131 -0.5019
vn 0.2469 0.8856 0.3933
vn 0.9030 0.1446 0.4047
vn 0.6751 -0.7375 0.0199
vn -0.2238 -0.8946 -0.3868
vn -0.6757 0.7371 0.0139
vn -0.9029 -0.1467 -0.4041
vn 0.2458 0.8964 0.3689
vn 0.9206 0.1614 0.3556
vn 0.6789 -0.7341 -0.0117
vn -0.2410 -0.8981 -0.3678
vn -0.6789 0.7342 0.0026
vn -0.9206 -0.1619 -0.3554
vn 0.2350 0.8977 0.3728
vn 0.9160 0.1578 0.3689
vn 0.6705 -0.7419 -0.0082
vn -0.2476 -0.8930 -0.3758
vn -0.6773 0.7357 -0.0113
vn -0.9161 -0.1568 -0.3689
vn 0.2279 0.8959 0.3814
vn 0.9081 0.1510 0.3905
vn 0.6637 -0.7480 0.0020
vn -0.2480 -0.8883 -0.3865
vn -0.4337 0.5050 0.7462
vn -0.9961 0.0050 0.0881
vn -0.9962 -0.0015 0.0870
vn 0.5719 0.5004 0.6501
vn -0.4303 0.4909 0.7575
vn 0.9949 -0.0135 -0.1004
vn 0.9942 -0.0127 -0.1065
vn 0.4213 -0.4938 -0.7607
vn 0.4193 -0.5099 -0.7512
vn -0.5676 -0.4840 -0.6660
vn -0.5651 -0.5032 -0.6538
vn -0.9954 0.0131 0.0951
vn 0.5718 0.4822 0.6637
vn -0.4235 0.4837 0.7660
vn 0.9959 -0.0098 -0.0904
vn 0.4269 -0.4824 -0.7649
vn -0.5711 -0.4711 -0.6723
vn -0.9939 0.0118 0.1096
vn 0.5694 0.4720 0.6730
vn -0.4190 0.5201 0.7443
vn 0.9962 0.0051 -0.0873
vn 0.4358 -0.5138 -0.7390
vn -0.5719 -0.5115 -0.6413
vn -0.9919 0.0021 0.1269
vn 0.5639 0.5156 0.6452
vn -0.4212 0.5880 0.6905
vn 0.9950 0.0268 -0.0962
vn 0.4463 -0.5777 -0.6834
vn -0.5665 -0.5927 -0.5725
vn -0.9896 -0.0126 0.1433
vn 0.5545 0.5981 0.5786
vn -0.4316 0.6603 0.6147
vn 0.9922 0.0462 -0.1158
vn 0.4571 -0.6484 -0.6088
vn -0.5534 -0.6813 -0.4792
vn -0.4461 0.7212 0.5299
vn 0.5239 0.7616 0.3815
vn 0.5412 0.6866 0.4855
vn 0.9885 0.0618 -0.1384
vn 0.4707 -0.7084 -0.5259
vn -0.9867 -0.0259 0.1606
vn -0.4640 0.7602 0.4547
vn 0.5085 0.8112 0.2886
vn 0.9847 0.0663 -0.1611
vn -0.5359 -0.7563 -0.3754
vn 0.4803 -0.7512 -0.4528
vn -0.9840 -0.0410 0.1733
vn -0.4778 0.7734 0.4167
vn 0.5023 0.8304 0.2409
vn 0.9827 0.0603 -0.1750
vn -0.5165 -0.8077 -0.2843
vn 0.4811 -0.7715 -0.4163
vn -0.9826 -0.0550 0.1772
vn -0.4817 0.7656 0.4264
vn 0.5079 0.8237 0.2520
vn 0.9830 0.0497 -0.1767
vn -0.5040 -0.8297 -0.2399
vn 0.4732 -0.7706 -0.4270
vn -0.9833 -0.0635 0.1707
vn -0.4809 0.7569 0.4426
vn 0.5132 0.8141 0.2718
vn 0.9836 0.0439 -0.1747
vn -0.5036 -0.8257 -0.2540
vn 0.4670 -0.7648 -0.4437
vn -0.9841 -0.0659 0.1646
vn -0.1410 0.8428 0.5195
vn -0.5943 -0.0120 0.8042
vn -0.1554 0.8481 0.5066
vn 0.4360 0.8482 -0.3007
vn 0.4395 0.8455 -0.3033
vn 0.5760 0.0079 -0.8174
vn 0.5929 0.0012 -0.8053
vn 0.1639 -0.8413 -0.5151
vn -0.4287 -0.8574 0.2847
vn 0.1462 -0.8386 -0.5248
vn -0.4296 -0.8555 0.2890
vn -0.1349 0.8372 0.5300
vn -0.5769 -0.0146 0.8167
vn 0.4308 0.8535 -0.2932
vn 0.5658 0.0153 -0.8244
vn 0.1327 -0.8388 -0.5281
vn -0.4332 -0.8507 0.2977
vn -0.1749 0.8436 0.5078
vn -0.5657 -0.0127 0.8245
vn 0.4284 0.8582 -0.2827
vn 0.6051 0.0104 -0.7961
vn 0.1643 -0.8513 -0.4983
vn -0.4414 -0.8443 0.3039
vn -0.2481 0.8578 0.4502
vn -0.6042 0.0023 0.7969
vn 0.4291 0.8607 -0.2739
vn 0.6818 -0.0035 -0.7315
vn 0.2320 -0.8693 -0.4365
vn -0.4520 -0.8390 0.3029
vn -0.3265 0.8707 0.3678
vn -0.6802 0.0225 0.7327
vn 0.4330 0.8603 -0.2689
vn 0.7658 -0.0174 -0.6428
vn 0.3092 -0.8824 -0.3546
vn -0.4607 -0.8373 0.2946
vn -0.8377 0.0429 0.5445
vn -0.7644 0.0369 0.6437
vn -0.3942 0.8767 0.2756
vn 0.4372 0.8597 -0.2642
vn 0.3766 -0.8880 -0.2638
vn -0.4674 -0.8370 0.2845
vn -0.8887 0.0392 0.4568
vn -0.4387 0.8778 0.1925
vn 0.8387 -0.0239 -0.5441
vn 0.4454 0.8560 -0.2624
vn 0.4265 -0.8853 -0.1851
vn -0.4671 -0.8410 0.2732
vn -0.9103 0.0320 0.4127
vn -0.4538 0.8786 0.1490
vn 0.8893 -0.0265 -0.4566
vn 0.4556 0.8503 -0.2635
vn 0.4512 -0.8801 -0.1474
vn -0.4602 -0.8472 0.2655
vn -0.9048 0.0280 0.4248
vn -0.4439 0.8821 0.1575
vn 0.9104 -0.0294 -0.4127
vn 0.4634 0.8447 -0.2680
vn 0.4506 -0.8781 -0.1611
vn -0.4515 -0.8527 0.2628
vn -0.8955 0.0271 0.4443
vn -0.4334 0.8842 0.1744
vn 0.9047 -0.0348 -0.4246
vn 0.4662 0.8420 -0.2713
vn 0.4440 -0.8777 -0.1803
vn -0.4473 -0.8550 0.2624
vn -0.7370 0.6433 -0.2073
vn -0.8146 0.0277 0.5793
vn -0.7351 0.6441 -0.2115
vn 0.0660 0.6009 -0.7966
vn 0.0775 0.6139 -0.7856
vn 0.8019 -0.0358 -0.5964
vn 0.8105 -0.0192 -0.5855
vn 0.7477 -0.6356 0.1922
vn -0.0652 -0.6188 0.7829
vn 0.7447 -0.6383 0.1951
vn -0.0584 -0.6040 0.7949
vn -0.7420 0.6404 -0.1984
vn -0.8044 0.0410 0.5926
vn 0.0552 0.5942 -0.8024
vn 0.7976 -0.0486 -0.6013
vn 0.7391 -0.6423 0.2031
vn -0.0583 -0.5932 0.8029
vn -0.7491 0.6342 -0.1913
vn -0.7967 0.0464 0.6026
vn 0.0694 0.6280 -0.7751
vn 0.8209 -0.0194 -0.5708
vn 0.7343 -0.6445 0.2134
vn -0.0841 -0.6228 0.7778
vn -0.7559 0.6262 -0.1909
vn -0.8164 0.0089 0.5774
vn 0.1029 0.6921 -0.7144
vn 0.8619 0.0447 -0.5052
vn 0.7318 -0.6447 0.2212
vn -0.1249 -0.6846 0.7181
vn -0.7595 0.6198 -0.1976
vn -0.8550 -0.0602 0.5151
vn 0.1394 0.7625 -0.6318
vn 0.9010 0.1194 -0.4171
vn 0.7327 -0.6424 0.2246
vn -0.1622 -0.7555 0.6347
vn -0.9226 -0.2026 0.3284
vn -0.8941 -0.1356 0.4269
vn -0.7614 0.6147 -0.2060
vn 0.1662 0.8252 -0.5398
vn 0.7341 -0.6398 0.2275
vn -0.1888 -0.8191 0.5417
vn -0.9385 -0.2483 0.2400
vn -0.7580 0.6154 -0.2159
vn 0.9291 0.1864 -0.3194
vn 0.1841 0.8695 -0.4584
vn 0.7394 -0.6337 0.2276
vn -0.1993 -0.8657 0.4593
vn -0.9445 -0.2649 0.1941
vn -0.7510 0.6215 -0.2232
vn 0.9428 0.2374 -0.2341
vn 0.1944 0.8876 -0.4177
vn 0.7471 -0.6253 0.2253
vn -0.1976 -0.8868 0.4178
vn -0.9451 -0.2553 0.2040
vn -0.7440 0.6287 -0.2264
vn 0.9454 0.2627 -0.1929
vn 0.1990 0.8811 -0.4291
vn 0.7540 -0.6187 0.2208
vn -0.1909 -0.8829 0.4289
vn -0.9438 -0.2444 0.2224
vn -0.7408 0.6321 -0.2273
vn 0.9429 0.2612 -0.2068
vn 0.1999 0.8718 -0.4473
vn 0.7569 -0.6162 0.2177
vn -0.1868 -0.8748 0.4470
vn -0.0143 0.6520 -0.7581
vn -0.7485 -0.0063 -0.6631
vn -0.0273 0.6670 -0.7446
vn 0.7214 0.6860 -0.0951
vn 0.7564 0.0219 0.6538
vn 0.7285 0.6781 -0.0970
vn 0.0245 -0.6678 0.7439
vn 0.7475 0.0281 0.6637
vn -0.7347 -0.6730 0.0855
vn -0.7317 -0.6773 0.0768
vn -0.7425 -0.0186 -0.6696
vn -0.0053 0.6426 -0.7661
vn 0.7359 0.6708 -0.0924
vn 0.0125 -0.6524 0.7578
vn 0.7394 0.0271 0.6727
vn -0.7335 -0.6728 0.0968
vn -0.7413 -0.0309 -0.6705
vn -0.0320 0.6772 -0.7351
vn 0.7295 0.6802 -0.0718
vn 0.0061 -0.6427 0.7661
vn 0.7530 -0.0007 0.6581
vn -0.7173 -0.6906 0.0925
vn -0.7617 -0.0178 -0.6476
vn -0.0885 0.7429 -0.6635
vn 0.7108 0.7023 -0.0391
vn 0.0357 -0.6768 0.7353
vn 0.7857 -0.0450 0.6169
vn -0.6906 -0.7201 0.0680
vn -0.7977 0.0158 -0.6029
vn -0.1548 0.8105 -0.5649
vn 0.6859 0.7277 -0.0013
vn 0.0933 -0.7415 0.6645
vn 0.8261 -0.0867 0.5568
vn -0.6627 -0.7484 0.0275
vn -0.8367 0.0550 -0.5449
vn -0.8726 0.0866 -0.4807
vn 0.6622 0.7482 0.0400
vn 0.8639 -0.1189 0.4895
vn 0.2204 -0.8616 0.4572
vn 0.1593 -0.8086 0.5664
vn -0.6376 -0.7702 -0.0184
vn -0.2163 0.8637 -0.4552
vn -0.8984 0.1114 -0.4248
vn 0.6402 0.7646 0.0739
vn 0.8933 -0.1335 0.4291
vn 0.2657 -0.8943 0.3601
vn -0.6228 -0.7800 -0.0617
vn -0.2631 0.8958 -0.3583
vn -0.9088 0.1275 -0.3974
vn 0.6251 0.7756 0.0883
vn 0.9078 -0.1320 0.3981
vn 0.2853 -0.9066 0.3108
vn -0.6214 -0.7788 -0.0860
vn -0.2848 0.9070 -0.3103
vn -0.9037 0.1338 -0.4067
vn 0.6207 0.7801 0.0789
vn 0.9062 -0.1219 0.4048
vn 0.2788 -0.9042 0.3235
vn -0.6302 -0.7718 -0.0849
vn -0.2803 0.9035 -0.3243
vn -0.8974 0.1345 -0.4203
vn 0.6213 0.7806 0.0682
vn 0.9015 -0.1154 0.4171
vn 0.2693 -0.8992 0.3448
vn -0.6366 -0.7673 -0.0782
vn 0.5134 -0.6502 -0.5600
vn 0.5474 -0.0228 -0.8365
vn -0.1515 -0.6221 -0.7681
vn -0.1573 -0.1415 -0.9774
vn -0.8315 -0.5231 0.1868
vn -0.9335 0.3377 -0.1206
vn -0.1515 0.0052 0.9884
vn -0.1573 0.5097 0.8459
vn 0.5134 -0.1483 0.8452
vn 0.5474 0.5123 0.6617
vn 0.8663 -0.4586 -0.1981
vn 0.3430 -0.8242 -0.4507
vn 0.6153 -0.6685 0.4177
vn 0.2020 -0.9460 0.2534
vn 0.1360 0.2616 0.9556
vn -0.6484 -0.1689 0.7424
vn -0.1966 0.9770 0.0828
vn -0.6408 0.7619 -0.0941
vn 0.2167 0.8578 -0.4660
vn -0.3496 0.5794 -0.7363
vn -0.4748 -0.4586 0.7512
vn 0.0744 -0.8242 0.5615
vn -0.7309 -0.6685 0.1375
vn -0.3219 -0.9460 -0.0374
vn -0.7701 0.2616 -0.5819
vn -0.0634 -0.1689 -0.9836
vn 0.0811 0.9770 -0.1973
vn 0.5209 0.7619 -0.3849
vn 0.1748 0.8578 0.4833
vn 0.7670 0.5794 0.2759
vn -0.5212 -0.6775 -0.5190
vn -0.5511 -0.8294 0.0920
vn 0.1529 -0.8741 -0.4610
vn 0.1579 -0.9875 0.0045
vn 0.8535 0.0906 -0.5132
vn 0.9454 -0.0566 0.3208
vn 0.1529 0.9791 -0.1340
vn 0.1579 0.9263 0.3422
vn -0.5212 0.8142 -0.2558
vn -0.5511 0.7478 0.3703
vn -0.9084 -0.1494 -0.3905
vn -0.5063 -0.8173 -0.2751
vn 0.8952 -0.0380 -0.4440
vn 0.9402 0.2540 -0.2271
vn -0.2717 0.8980 -0.3460
vt 0.181819 0.000000
vt 0.227273 0.078731
vt 0.136365 0.078731
vt 0.272728 0.157461
vt 0.318182 0.078731
vt 0.363637 0.157461
vt 0.909091 0.000000
vt 0.954545 0.078731
vt 0.863636 0.078731
vt 0.727273 0.000000
vt 0.772727 0.078731
vt 0.681818 0.078731
vt 0.545455 0.000000
vt 0.590909 0.078731
vt 0.500000 0.078731
vt 0.318182 0.236191
vt 0.090910 0.157461
vt 0.181819 0.157461
vt 0.136365 0.236191
vt 0.818182 0.157461
vt 0.909091 0.157461
vt 0.863636 0.236191
vt 0.636364 0.157461
vt 0.727273 0.157461
vt 0.681818 0.236191
vt 0.454546 0.157461
vt 0.545455 0.157461
vt 0.500000 0.236191
vt 0.227273 0.236191
vt 0.045455 0.236191
vt 0.772727 0.236191
vt 0.590909 0.236191
vt 0.409092 0.236191
vt 0.181819 0.314921
vt 0.272728 0.314921
vt 0.227273 0.393651
vt 0.000000 0.314921
vt 0.090910 0.314921
vt 0.045455 0.393651
vt 0.727273 0.314921
vt 0.818182 0.314921
vt 0.772727 0.393651
vt 0.545455 0.314921
vt 0.636364 0.314921
vt 0.590909 0.393651
vt 0.363637 0.314921
vt 0.454546 0.314921
vt 0.409092 0.393651
vt 0.500000 0.393651
vt 0.454546 0.472382
vt 0.681818 0.393651
vt 0.636364 0.472382
vt 0.863636 0.393651
vt 0.818182 0.472382
vt 0.909091 0.314921
vt 0.136365 0.393651
vt 0.090910 0.472382
vt 0.318182 0.393651
vt 0.272728 0.472382
vt 0.954545 0.236191
vt 1.000000 0.157461
vt 0.409092 0.078731
vt 0.363637 0.000000
vt 0.000000 1.000000
vt 0.100000 0.833333
vt 0.000000 0.833333
vt 0.000000 0.166667
vt 0.100000 0.000000
vt 0.000000 0.000000
vt 0.000000 0.333333
vt 0.100000 0.166667
vt 0.100000 0.500000
vt 0.000000 0.500000
vt 0.100000 0.666667
vt 0.000000 0.666667
vt 0.100000 1.000000
vt 0.200000 0.833333
vt 0.200000 0.000000
vt 0.100000 0.333333
vt 0.200000 0.166667
vt 0.200000 0.500000
vt 0.200000 0.666667
vt 0.200000 1.000000
vt 0.300000 0.833333
vt 0.300000 0.000000
vt 0.200000 0.333333
vt 0.300000 0.166667
vt 0.300000 0.500000
vt 0.300000 0.666667
vt 0.300000 1.000000
vt 0.400000 0.833333
vt 0.400000 0.000000
vt 0.300000 0.333333
vt 0.400000 0.166667
vt 0.400000 0.500000
vt 0.400000 0.666667
vt 0.400000 1.000000
vt 0.500000 0.833333
vt 0.500000 0.000000
vt 0.400000 0.333333
vt 0.500000 0.166667
vt 0.500000 0.500000
vt 0.500000 0.666667
vt 0.600000 1.000000
vt 0.500000 1.000000
vt 0.600000 0.166667
vt 0.600000 0.333333
vt 0.500000 0.333333
vt 0.600000 0.500000
vt 0.600000 0.666667
vt 0.700000 1.000000
vt 0.600000 0.833333
vt 0.700000 0.166667
vt 0.600000 0.000000
vt 0.700000 0.333333
vt 0.700000 0.500000
vt 0.700000 0.666667
vt 0.800000 1.000000
vt 0.700000 0.833333
vt 0.800000 0.166667
vt 0.700000 0.000000
vt 0.800000 0.333333
vt 0.800000 0.500000
vt 0.800000 0.666667
vt 0.900000 1.000000
vt 0.800000 0.833333
vt 0.900000 0.166667
vt 0.800000 0.000000
vt 0.900000 0.333333
vt 0.900000 0.500000
vt 0.900000 0.666667
vt 1.000000 1.000000
vt 0.900000 0.833333
vt 1.000000 0.166667
vt 0.900000 0.000000
vt 1.000000 0.333333
vt 1.000000 0.500000
vt 1.000000 0.666667
vt 1.000000 0.833333
vt 1.000000 0.000000
s 1
usemtl UnknownOrganicMatter
f 1/1/1 14/2/2 13/3/3
f 2/4/4 14/5/2 16/6/5
f 1/7/1 13/8/3 18/9/6
f 1/10/1 18/11/6 20/12/7
f 1/13/1 20/14/7 17/15/8
f 2/4/4 16/6/5 23/16/9
f 3/17/10 15/18/11 25/19/12
f 4/20/13 19/21/14 27/22/15
f 5/23/16 21/24/17 29/25/18
f 6/26/19 22/27/20 31/28/21
f 2/4/4 23/16/9 26/29/22
f 3/17/10 25/19/12 28/30/23
f 4/20/13 27/22/15 30/31/24
f 5/23/16 29/25/18 32/32/25
f 6/26/19 31/28/21 24/33/26
f 7/34/27 33/35/28 38/36/29
f 8/37/30 34/38/31 40/39/32
f 9/40/33 35/41/34 41/42/35
f 10/43/36 36/44/37 42/45/38
f 11/46/39 37/47/40 39/48/41
f 39/48/41 42/49/38 12/50/42
f 39/48/41 37/47/40 42/49/38
f 37/47/40 10/43/36 42/49/38
f 42/45/38 41/51/35 12/52/42
f 42/45/38 36/44/37 41/51/35
f 36/44/37 9/40/33 41/51/35
f 41/42/35 40/53/32 12/54/42
f 41/42/35 35/41/34 40/53/32
f 35/41/34 8/55/30 40/53/32
f 40/39/32 38/56/29 12/57/42
f 40/39/32 34/38/31 38/56/29
f 34/38/31 7/34/27 38/56/29
f 38/36/29 39/58/41 12/59/42
f 38/36/29 33/35/28 39/58/41
f 33/35/28 11/46/39 39/58/41
f 24/33/26 37/47/40 11/46/39
f 24/33/26 31/28/21 37/47/40
f 31/28/21 10/43/36 37/47/40
f 32/32/25 36/44/37 10/43/36
f 32/32/25 29/25/18 36/44/37
f 29/25/18 9/40/33 36/44/37
f 30/31/24 35/41/34 9/40/33
f 30/31/24 27/22/15 35/41/34
f 27/22/15 8/55/30 35/41/34
f 28/30/23 34/38/31 8/37/30
f 28/30/23 25/19/12 34/38/31
f 25/19/12 7/34/27 34/38/31
f 26/29/22 33/35/28 7/34/27
f 26/29/22 23/16/9 33/35/28
f 23/16/9 11/46/39 33/35/28
f 31/28/21 32/32/25 10/43/36
f 31/28/21 22/27/20 32/32/25
f 22/27/20 5/23/16 32/32/25
f 29/25/18 30/31/24 9/40/33
f 29/25/18 21/24/17 30/31/24
f 21/24/17 4/20/13 30/31/24
f 27/22/15 28/60/23 8/55/30
f 27/22/15 19/21/14 28/60/23
f 19/21/14 3/61/10 28/60/23
f 25/19/12 26/29/22 7/34/27
f 25/19/12 15/18/11 26/29/22
f 15/18/11 2/4/4 26/29/22
f 23/16/9 24/33/26 11/46/39
f 23/16/9 16/6/5 24/33/26
f 16/6/5 6/26/19 24/33/26
f 17/15/8 22/27/20 6/26/19
f 17/15/8 20/14/7 22/27/20
f 20/14/7 5/23/16 22/27/20
f 20/12/7 21/24/17 5/23/16
f 20/12/7 18/11/6 21/24/17
f 18/11/6 4/20/13 21/24/17
f 18/9/6 19/21/14 4/20/13
f 18/9/6 13/8/3 19/21/14
f 13/8/3 3/61/10 19/21/14
f 16/6/5 17/62/8 6/26/19
f 16/6/5 14/5/2 17/62/8
f 14/5/2 1/63/1 17/62/8
f 13/3/3 15/18/11 3/17/10
f 13/3/3 14/2/2 15/18/11
f 14/2/2 2/4/4 15/18/11
f 85/64/79 96/65/80 90/66/81
f 86/67/82 91/68/83 85/69/79
f 87/70/84 92/71/85 86/67/82
f 94/72/86 87/70/84 88/73/87
f 95/74/88 88/73/87 89/75/89
f 96/65/80 89/75/89 90/66/81
f 91/76/83 102/77/90 96/65/80
f 92/71/85 97/78/91 91/68/83
f 93/79/92 98/80/93 92/71/85
f 100/81/94 93/79/92 94/72/86
f 101/82/95 94/72/86 95/74/88
f 102/77/90 95/74/88 96/65/80
f 97/83/91 108/84/96 102/77/90
f 98/80/93 103/85/97 97/78/91
f 99/86/98 104/87/99 98/80/93
f 106/88/100 99/86/98 100/81/94
f 107/89/101 100/81/94 101/82/95
f 108/84/96 101/82/95 102/77/90
f 103/90/97 114/91/102 108/84/96
f 104/87/99 109/92/103 103/85/97
f 105/93/104 110/94/105 104/87/99
f 112/95/106 105/93/104 106/88/100
f 113/96/107 106/88/100 107/89/101
f 114/91/102 107/89/101 108/84/96
f 109/97/103 120/98/108 114/91/102
f 110/94/105 115/99/109 109/92/103
f 111/100/110 116/101/111 110/94/105
f 118/102/112 111/100/110 112/95/106
f 119/103/113 112/95/106 113/96/107
f 120/98/108 113/96/107 114/91/102
f 121/104/114 120/98/108 115/105/109
f 122/106/115 115/99/109 116/101/111
f 123/107/116 116/101/111 117/108/117
f 118/102/112 123/107/116 117/108/117
f 119/103/113 124/109/118 118/102/112
f 120/98/108 125/110/119 119/103/113
f 127/111/120 126/112/121 121/104/114
f 128/113/122 121/114/114 122/106/115
f 129/115/123 122/106/115 123/107/116
f 124/109/118 129/115/123 123/107/116
f 125/110/119 130/116/124 124/109/118
f 126/112/121 131/117/125 125/110/119
f 133/118/126 132/119/127 127/111/120
f 134/120/128 127/121/120 128/113/122
f 135/122/129 128/113/122 129/115/123
f 130/116/124 135/122/129 129/115/123
f 131/117/125 136/123/130 130/116/124
f 132/119/127 137/124/131 131/117/125
f 139/125/132 138/126/133 133/118/126
f 140/127/134 133/128/126 134/120/128
f 141/129/135 134/120/128 135/122/129
f 136/123/130 141/129/135 135/122/129
f 137/124/131 142/130/136 136/123/130
f 138/126/133 143/131/137 137/124/131
f 145/132/138 144/133/139 139/125/132
f 146/134/140 139/135/132 140/127/134
f 147/136/141 140/127/134 141/129/135
f 142/130/136 147/136/141 141/129/135
f 143/131/137 148/137/142 142/130/136
f 144/133/139 149/138/143 143/131/137
f 151/64/144 162/65/145 156/66/146
f 152/67/147 157/68/148 151/69/144
f 159/79/149 152/67/147 153/70/150
f 160/72/151 153/70/150 154/73/152
f 161/74/153 154/73/152 155/75/154
f 156/66/146 161/74/153 155/75/154
f 157/76/148 168/77/155 162/65/145
f 158/71/156 163/78/157 157/68/148
f 165/86/158 158/71/156 159/79/149
f 166/81/159 159/79/149 160/72/151
f 167/82/160 160/72/151 161/74/153
f 162/65/145 167/82/160 161/74/153
f 163/83/157 174/84/161 168/77/155
f 164/80/162 169/85/163 163/78/157
f 171/93/164 164/80/162 165/86/158
f 172/88/165 165/86/158 166/81/159
f 173/89/166 166/81/159 167/82/160
f 168/77/155 173/89/166 167/82/160
f 169/90/163 180/91/167 174/84/161
f 170/87/168 175/92/169 169/85/163
f 177/100/170 170/87/168 171/93/164
f 178/95/171 171/93/164 172/88/165
f 179/96/172 172/88/165 173/89/166
f 174/84/161 179/96/172 173/89/166
f 175/97/169 186/98/173 180/91/167
f 176/94/174 181/99/175 175/92/169
f 183/108/176 176/94/174 177/100/170
f 184/102/177 177/100/170 178/95/171
f 185/103/178 178/95/171 179/96/172
f 180/91/167 185/103/178 179/96/172
f 187/104/179 186/98/173 181/105/175
f 188/106/180 181/99/175 182/101/181
f 183/108/176 188/106/180 182/101/181
f 184/102/177 189/107/182 183/108/176
f 185/103/178 190/109/183 184/102/177
f 192/112/184 185/103/178 186/98/173
f 193/111/185 192/112/184 187/104/179
f 194/113/186 187/114/179 188/106/180
f 189/107/182 194/113/186 188/106/180
f 190/109/183 195/115/187 189/107/182
f 191/110/188 196/116/189 190/109/183
f 198/119/190 191/110/188 192/112/184
f 199/118/191 198/119/190 193/111/185
f 200/120/192 193/121/185 194/113/186
f 195/115/187 200/120/192 194/113/186
f 196/116/189 201/122/193 195/115/187
f 197/117/194 202/123/195 196/116/189
f 204/126/196 197/117/194 198/119/190
f 205/125/197 204/126/196 199/118/191
f 206/127/198 199/128/191 200/120/192
f 201/122/193 206/127/198 200/120/192
f 202/123/195 207/129/199 201/122/193
f 203/124/200 208/130/201 202/123/195
f 210/133/202 203/124/200 204/126/196
f 211/132/203 210/133/202 205/125/197
f 212/134/204 205/135/197 206/127/198
f 207/129/199 212/134/204 206/127/198
f 208/130/201 213/136/205 207/129/199
f 209/131/206 214/137/207 208/130/201
f 216/139/208 209/131/206 210/133/202
f 223/76/209 222/66/210 217/64/211
f 224/71/212 217/69/211 218/67/213
f 225/79/214 218/67/213 219/70/215
f 220/73/216 225/79/214 219/70/215
f 221/75/217 226/72/218 220/73/216
f 222/66/210 227/74/219 221/75/217
f 229/83/220 228/65/221 223/76/209
f 230/80/222 223/68/209 224/71/212
f 231/86/223 224/71/212 225/79/214
f 226/72/218 231/86/223 225/79/214
f 227/74/219 232/81/224 226/72/218
f 228/65/221 233/82/225 227/74/219
f 235/90/226 234/77/227 229/83/220
f 236/87/228 229/78/220 230/80/222
f 237/93/229 230/80/222 231/86/223
f 232/81/224 237/93/229 231/86/223
f 233/82/225 238/88/230 232/81/224
f 234/77/227 239/89/231 233/82/225
f 241/97/232 240/84/233 235/90/226
f 242/94/234 235/85/226 236/87/228
f 243/100/235 236/87/228 237/93/229
f 238/88/230 243/100/235 237/93/229
f 239/89/231 244/95/236 238/88/230
f 240/84/233 245/96/237 239/89/231
f 247/105/238 246/91/239 241/97/232
f 248/101/240 241/92/232 242/94/234
f 249/108/241 242/94/234 243/100/235
f 244/95/236 249/108/241 243/100/235
f 245/96/237 250/102/242 244/95/236
f 246/91/239 251/103/243 245/96/237
f 247/105/238 258/112/244 252/98/245
f 248/101/240 253/114/246 247/99/238
f 249/108/241 254/106/247 248/101/240
f 256/109/248 249/108/241 250/102/242
f 257/110/249 250/102/242 251/103/243
f 258/112/244 251/103/243 252/98/245
f 253/104/246 264/119/250 258/112/244
f 254/106/247 259/121/251 253/114/246
f 255/107/252 260/113/253 254/106/247
f 262/116/254 255/107/252 256/109/248
f 263/117/255 256/109/248 257/110/249
f 264/119/250 257/110/249 258/112/244
f 259/111/251 270/126/256 264/119/250
f 260/113/253 265/128/257 259/121/251
f 261/115/258 266/120/259 260/113/253
f 268/123/260 261/115/258 262/116/254
f 269/124/261 262/116/254 263/117/255
f 270/126/256 263/117/255 264/119/250
f 265/118/257 276/133/262 270/126/256
f 266/120/259 271/135/263 265/128/257
f 267/122/264 272/127/265 266/120/259
f 274/130/266 267/122/264 268/123/260
f 275/131/267 268/123/260 269/124/261
f 276/133/262 269/124/261 270/126/256
f 271/125/263 282/139/268 276/133/262
f 272/127/265 277/140/269 271/135/263
f 273/129/270 278/134/271 272/127/265
f 280/137/272 273/129/270 274/130/266
f 281/138/273 274/130/266 275/131/267
f 282/139/268 275/131/267 276/133/262
f 289/76/274 288/66/275 283/64/276
f 290/71/277 283/69/276 284/67/278
f 291/79/279 284/67/278 285/70/280
f 286/73/281 291/79/279 285/70/280
f 287/75/282 292/72/283 286/73/281
f 288/66/275 293/74/284 287/75/282
f 295/83/285 294/65/286 289/76/274
f 296/80/287 289/68/274 290/71/277
f 297/86/288 290/71/277 291/79/279
f 292/72/283 297/86/288 291/79/279
f 293/74/284 298/81/289 292/72/283
f 294/65/286 299/82/290 293/74/284
f 301/90/291 300/77/292 295/83/285
f 302/87/293 295/78/285 296/80/287
f 303/93/294 296/80/287 297/86/288
f 298/81/289 303/93/294 297/86/288
f 299/82/290 304/88/295 298/81/289
f 300/77/292 305/89/296 299/82/290
f 307/97/297 306/84/298 301/90/291
f 308/94/299 301/85/291 302/87/293
f 309/100/300 302/87/293 303/93/294
f 304/88/295 309/100/300 303/93/294
f 305/89/296 310/95/301 304/88/295
f 306/84/298 311/96/302 305/89/296
f 313/105/303 312/91/304 307/97/297
f 314/101/305 307/92/297 308/94/299
f 315/108/306 308/94/299 309/100/300
f 310/95/301 315/108/306 309/100/300
f 311/96/302 316/102/307 310/95/301
f 312/91/304 317/103/308 311/96/302
f 313/105/303 324/112/309 318/98/310
f 314/101/305 319/114/311 313/99/303
f 315/108/306 320/106/312 314/101/305
f 322/109/313 315/108/306 316/102/307
f 323/110/314 316/102/307 317/103/308
f 324/112/309 317/103/308 318/98/310
f 319/104/311 330/119/315 324/112/309
f 320/106/312 325/121/316 319/114/311
f 321/107/317 326/113/318 320/106/312
f 328/116/319 321/107/317 322/109/313
f 329/117/320 322/109/313 323/110/314
f 330/119/315 323/110/314 324/112/309
f 325/111/316 336/126/321 330/119/315
f 326/113/318 331/128/322 325/121/316
f 327/115/323 332/120/324 326/113/318
f 334/123/325 327/115/323 328/116/319
f 335/124/326 328/116/319 329/117/320
f 336/126/321 329/117/320 330/119/315
f 331/118/322 342/133/327 336/126/321
f 332/120/324 337/135/328 331/128/322
f 333/122/329 338/127/330 332/120/324
f 340/130/331 333/122/329 334/123/325
f 341/131/332 334/123/325 335/124/326
f 342/133/327 335/124/326 336/126/321
f 337/125/328 348/139/333 342/133/327
f 338/127/330 343/140/334 337/135/328
f 339/129/335 344/134/336 338/127/330
f 346/137/337 339/129/335 340/130/331
f 347/138/338 340/130/331 341/131/332
f 348/139/333 341/131/332 342/133/327
f 355/76/339 354/66/340 349/64/341
f 350/67/342 355/68/339 349/69/341
f 351/70/343 356/71/344 350/67/342
f 352/73/345 357/79/346 351/70/343
f 359/74/347 352/73/345 353/75/348
f 360/65/349 353/75/348 354/66/340
f 361/83/350 360/65/349 355/76/339
f 356/71/344 361/78/350 355/68/339
f 357/79/346 362/80/351 356/71/344
f 358/72/352 363/86/353 357/79/346
f 365/82/354 358/72/352 359/74/347
f 366/77/355 359/74/347 360/65/349
f 367/90/356 366/77/355 361/83/350
f 362/80/351 367/85/356 361/78/350
f 363/86/353 368/87/357 362/80/351
f 364/81/358 369/93/359 363/86/353
f 371/89/360 364/81/358 365/82/354
f 372/84/361 365/82/354 366/77/355
f 373/97/362 372/84/361 367/90/356
f 368/87/357 373/92/362 367/85/356
f 369/93/359 374/94/363 368/87/357
f 370/88/364 375/100/365 369/93/359
f 377/96/366 370/88/364 371/89/360
f 378/91/367 371/89/360 372/84/361
f 379/105/368 378/91/367 373/97/362
f 374/94/363 379/99/368 373/92/362
f 375/100/365 380/101/369 374/94/363
f 376/95/370 381/108/371 375/100/365
f 383/103/372 376/95/370 377/96/366
f 384/98/373 377/96/366 378/91/367
f 379/105/368 390/112/374 384/98/373
f 386/106/375 379/99/368 380/101/369
f 387/107/376 380/101/369 381/108/371
f 388/109/377 381/108/371 382/102/378
f 383/103/372 388/109/377 382/102/378
f 384/98/373 389/110/379 383/103/372
f 385/104/380 396/119/381 390/112/374
f 392/113/382 385/114/380 386/106/375
f 393/115/383 386/106/375 387/107/376
f 394/116/384 387/107/376 388/109/377
f 389/110/379 394/116/384 388/109/377
f 390/112/374 395/117/385 389/110/379
f 391/111/386 402/126/387 396/119/381
f 398/120/388 391/121/386 392/113/382
f 399/122/389 392/113/382 393/115/383
f 400/123/390 393/115/383 394/116/384
f 395/117/385 400/123/390 394/116/384
f 396/119/381 401/124/391 395/117/385
f 397/118/392 408/133/393 402/126/387
f 404/127/394 397/128/392 398/120/388
f 405/129/395 398/120/388 399/122/389
f 406/130/396 399/122/389 400/123/390
f 401/124/391 406/130/396 400/123/390
f 402/126/387 407/131/397 401/124/391
f 403/125/398 414/139/399 408/133/393
f 410/134/400 403/135/398 404/127/394
f 411/136/401 404/127/394 405/129/395
f 412/137/402 405/129/395 406/130/396
f 407/131/397 412/137/402 406/130/396
f 408/133/393 413/138/403 407/131/397
f 85/64/79 91/76/83 96/65/80
f 86/67/82 92/71/85 91/68/83
f 87/70/84 93/79/92 92/71/85
f 94/72/86 93/79/92 87/70/84
f 95/74/88 94/72/86 88/73/87
f 96/65/80 95/74/88 89/75/89
f 91/76/83 97/83/91 102/77/90
f 92/71/85 98/80/93 97/78/91
f 93/79/92 99/86/98 98/80/93
f 100/81/94 99/86/98 93/79/92
f 101/82/95 100/81/94 94/72/86
f 102/77/90 101/82/95 95/74/88
f 97/83/91 103/90/97 108/84/96
f 98/80/93 104/87/99 103/85/97
f 99/86/98 105/93/104 104/87/99
f 106/88/100 105/93/104 99/86/98
f 107/89/101 106/88/100 100/81/94
f 108/84/96 107/89/101 101/82/95
f 103/90/97 109/97/103 114/91/102
f 104/87/99 110/94/105 109/92/103
f 105/93/104 111/100/110 110/94/105
f 112/95/106 111/100/110 105/93/104
f 113/96/107 112/95/106 106/88/100
f 114/91/102 113/96/107 107/89/101
f 109/97/103 115/105/109 120/98/108
f 110/94/105 116/101/111 115/99/109
f 111/100/110 117/108/117 116/101/111
f 118/102/112 117/108/117 111/100/110
f 119/103/113 118/102/112 112/95/106
f 120/98/108 119/103/113 113/96/107
f 121/104/114 126/112/121 120/98/108
f 122/106/115 121/114/114 115/99/109
f 123/107/116 122/106/115 116/101/111
f 118/102/112 124/109/118 123/107/116
f 119/103/113 125/110/119 124/109/118
f 120/98/108 126/112/121 125/110/119
f 127/111/120 132/119/127 126/112/121
f 128/113/122 127/121/120 121/114/114
f 129/115/123 128/113/122 122/106/115
f 124/109/118 130/116/124 129/115/123
f 125/110/119 131/117/125 130/116/124
f 126/112/121 132/119/127 131/117/125
f 133/118/126 138/126/133 132/119/127
f 134/120/128 133/128/126 127/121/120
f 135/122/129 134/120/128 128/113/122
f 130/116/124 136/123/130 135/122/129
f 131/117/125 137/124/131 136/123/130
f 132/119/127 138/126/133 137/124/131
f 139/125/132 144/133/139 138/126/133
f 140/127/134 139/135/132 133/128/126
f 141/129/135 140/127/134 134/120/128
f 136/123/130 142/130/136 141/129/135
f 137/124/131 143/131/137 142/130/136
f 138/126/133 144/133/139 143/131/137
f 145/132/138 150/139/444 144/133/139
f 146/134/140 145/140/138 139/135/132
f 147/136/141 146/134/140 140/127/134
f 142/130/136 148/137/142 147/136/141
f 143/131/137 149/138/143 148/137/142
f 144/133/139 150/139/444 149/138/143
f 151/64/144 157/76/148 162/65/145
f 152/67/147 158/71/156 157/68/148
f 159/79/149 158/71/156 152/67/147
f 160/72/151 159/79/149 153/70/150
f 161/74/153 160/72/151 154/73/152
f 156/66/146 162/65/145 161/74/153
f 157/76/148 163/83/157 168/77/155
f 158/71/156 164/80/162 163/78/157
f 165/86/158 164/80/162 158/71/156
f 166/81/159 165/86/158 159/79/149
f 167/82/160 166/81/159 160/72/151
f 162/65/145 168/77/155 167/82/160
f 163/83/157 169/90/163 174/84/161
f 164/80/162 170/87/168 169/85/163
f 171/93/164 170/87/168 164/80/162
f 172/88/165 171/93/164 165/86/158
f 173/89/166 172/88/165 166/81/159
f 168/77/155 174/84/161 173/89/166
f 169/90/163 175/97/169 180/91/167
f 170/87/168 176/94/174 175/92/169
f 177/100/170 176/94/174 170/87/168
f 178/95/171 177/100/170 171/93/164
f 179/96/172 178/95/171 172/88/165
f 174/84/161 180/91/167 179/96/172
f 175/97/169 181/105/175 186/98/173
f 176/94/174 182/101/181 181/99/175
f 183/108/176 182/101/181 176/94/174
f 184/102/177 183/108/176 177/100/170
f 185/103/178 184/102/177 178/95/171
f 180/91/167 186/98/173 185/103/178
f 187/104/179 192/112/184 186/98/173
f 188/106/180 187/114/179 181/99/175
f 183/108/176 189/107/182 188/106/180
f 184/102/177 190/109/183 189/107/182
f 185/103/178 191/110/188 190/109/183
f 192/112/184 191/110/188 185/103/178
f 193/111/185 198/119/190 192/112/184
f 194/113/186 193/121/185 187/114/179
f 189/107/182 195/115/187 194/113/186
f 190/109/183 196/116/189 195/115/187
f 191/110/188 197/117/194 196/116/189
f 198/119/190 197/117/194 191/110/188
f 199/118/191 204/126/196 198/119/190
f 200/120/192 199/128/191 193/121/185
f 195/115/187 201/122/193 200/120/192
f 196/116/189 202/123/195 201/122/193
f 197/117/194 203/124/200 202/123/195
f 204/126/196 203/124/200 197/117/194
f 205/125/197 210/133/202 204/126/196
f 206/127/198 205/135/197 199/128/191
f 201/122/193 207/129/199 206/127/198
f 202/123/195 208/130/201 207/129/199
f 203/124/200 209/131/206 208/130/201
f 210/133/202 209/131/206 203/124/200
f 211/132/203 216/139/208 210/133/202
f 212/134/204 211/140/203 205/135/197
f 207/129/199 213/136/205 212/134/204
f 208/130/201 214/137/207 213/136/205
f 209/131/206 215/138/445 214/137/207
f 216/139/208 215/138/445 209/131/206
f 223/76/209 228/65/221 222/66/210
f 224/71/212 223/68/209 217/69/211
f 225/79/214 224/71/212 218/67/213
f 220/73/216 226/72/218 225/79/214
f 221/75/217 227/74/219 226/72/218
f 222/66/210 228/65/221 227/74/219
f 229/83/220 234/77/227 228/65/221
f 230/80/222 229/78/220 223/68/209
f 231/86/223 230/80/222 224/71/212
f 226/72/218 232/81/224 231/86/223
f 227/74/219 233/82/225 232/81/224
f 228/65/221 234/77/227 233/82/225
f 235/90/226 240/84/233 234/77/227
f 236/87/228 235/85/226 229/78/220
f 237/93/229 236/87/228 230/80/222
f 232/81/224 238/88/230 237/93/229
f 233/82/225 239/89/231 238/88/230
f 234/77/227 240/84/233 239/89/231
f 241/97/232 246/91/239 240/84/233
f 242/94/234 241/92/232 235/85/226
f 243/100/235 242/94/234 236/87/228
f 238/88/230 244/95/236 243/100/235
f 239/89/231 245/96/237 244/95/236
f 240/84/233 246/91/239 245/96/237
f 247/105/238 252/98/245 246/91/239
f 248/101/240 247/99/238 241/92/232
f 249/108/241 248/101/240 242/94/234
f 244/95/236 250/102/242 249/108/241
f 245/96/237 251/103/243 250/102/242
f 246/91/239 252/98/245 251/103/243
f 247/105/238 253/104/246 258/112/244
f 248/101/240 254/106/247 253/114/246
f 249/108/241 255/107/252 254/106/247
f 256/109/248 255/107/252 249/108/241
f 257/110/249 256/109/248 250/102/242
f 258/112/244 257/110/249 251/103/243
f 253/104/246 259/111/251 264/119/250
f 254/106/247 260/113/253 259/121/251
f 255/107/252 261/115/258 260/113/253
f 262/116/254 261/115/258 255/107/252
f 263/117/255 262/116/254 256/109/248
f 264/119/250 263/117/255 257/110/249
f 259/111/251 265/118/257 270/126/256
f 260/113/253 266/120/259 265/128/257
f 261/115/258 267/122/264 266/120/259
f 268/123/260 267/122/264 261/115/258
f 269/124/261 268/123/260 262/116/254
f 270/126/256 269/124/261 263/117/255
f 265/118/257 271/125/263 276/133/262
f 266/120/259 272/127/265 271/135/263
f 267/122/264 273/129/270 272/127/265
f 274/130/266 273/129/270 267/122/264
f 275/131/267 274/130/266 268/123/260
f 276/133/262 275/131/267 269/124/261
f 271/125/263 277/132/269 282/139/268
f 272/127/265 278/134/271 277/140/269
f 273/129/270 279/136/446 278/134/271
f 280/137/272 279/136/446 273/129/270
f 281/138/273 280/137/272 274/130/266
f 282/139/268 281/138/273 275/131/267
f 289/76/274 294/65/286 288/66/275
f 290/71/277 289/68/274 283/69/276
f 291/79/279 290/71/277 284/67/278
f 286/73/281 292/72/283 291/79/279
f 287/75/282 293/74/284 292/72/283
f 288/66/275 294/65/286 293/74/284
f 295/83/285 300/77/292 294/65/286
f 296/80/287 295/78/285 289/68/274
f 297/86/288 296/80/287 290/71/277
f 292/72/283 298/81/289 297/86/288
f 293/74/284 299/82/290 298/81/289
f 294/65/286 300/77/292 299/82/290
f 301/90/291 306/84/298 300/77/292
f 302/87/293 301/85/291 295/78/285
f 303/93/294 302/87/293 296/80/287
f 298/81/289 304/88/295 303/93/294
f 299/82/290 305/89/296 304/88/295
f 300/77/292 306/84/298 305/89/296
f 307/97/297 312/91/304 306/84/298
f 308/94/299 307/92/297 301/85/291
f 309/100/300 308/94/299 302/87/293
f 304/88/295 310/95/301 309/100/300
f 305/89/296 311/96/302 310/95/301
f 306/84/298 312/91/304 311/96/302
f 313/105/303 318/98/310 312/91/304
f 314/101/305 313/99/303 307/92/297
f 315/108/306 314/101/305 308/94/299
f 310/95/301 316/102/307 315/108/306
f 311/96/302 317/103/308 316/102/307
f 312/91/304 318/98/310 317/103/308
f 313/105/303 319/104/311 324/112/309
f 314/101/305 320/106/312 319/114/311
f 315/108/306 321/107/317 320/106/312
f 322/109/313 321/107/317 315/108/306
f 323/110/314 322/109/313 316/102/307
f 324/112/309 323/110/314 317/103/308
f 319/104/311 325/111/316 330/119/315
f 320/106/312 326/113/318 325/121/316
f 321/107/317 327/115/323 326/113/318
f 328/116/319 327/115/323 321/107/317
f 329/117/320 328/116/319 322/109/313
f 330/119/315 329/117/320 323/110/314
f 325/111/316 331/118/322 336/126/321
f 326/113/318 332/120/324 331/128/322
f 327/115/323 333/122/329 332/120/324
f 334/123/325 333/122/329 327/115/323
f 335/124/326 334/123/325 328/116/319
f 336/126/321 335/124/326 329/117/320
f 331/118/322 337/125/328 342/133/327
f 332/120/324 338/127/330 337/135/328
f 333/122/329 339/129/335 338/127/330
f 340/130/331 339/129/335 333/122/329
f 341/131/332 340/130/331 334/123/325
f 342/133/327 341/131/332 335/124/326
f 337/125/328 343/132/334 348/139/333
f 338/127/330 344/134/336 343/140/334
f 339/129/335 345/136/447 344/134/336
f 346/137/337 345/136/447 339/129/335
f 347/138/338 346/137/337 340/130/331
f 348/139/333 347/138/338 341/131/332
f 355/76/339 360/65/349 354/66/340
f 350/67/342 356/71/344 355/68/339
f 351/70/343 357/79/346 356/71/344
f 352/73/345 358/72/352 357/79/346
f 359/74/347 358/72/352 352/73/345
f 360/65/349 359/74/347 353/75/348
f 361/83/350 366/77/355 360/65/349
f 356/71/344 362/80/351 361/78/350
f 357/79/346 363/86/353 362/80/351
f 358/72/352 364/81/358 363/86/353
f 365/82/354 364/81/358 358/72/352
f 366/77/355 365/82/354 359/74/347
f 367/90/356 372/84/361 366/77/355
f 362/80/351 368/87/357 367/85/356
f 363/86/353 369/93/359 368/87/357
f 364/81/358 370/88/364 369/93/359
f 371/89/360 370/88/364 364/81/358
f 372/84/361 371/89/360 365/82/354
f 373/97/362 378/91/367 372/84/361
f 368/87/357 374/94/363 373/92/362
f 369/93/359 375/100/365 374/94/363
f 370/88/364 376/95/370 375/100/365
f 377/96/366 376/95/370 370/88/364
f 378/91/367 377/96/366 371/89/360
f 379/105/368 384/98/373 378/91/367
f 374/94/363 380/101/369 379/99/368
f 375/100/365 381/108/371 380/101/369
f 376/95/370 382/102/378 381/108/371
f 383/103/372 382/102/378 376/95/370
f 384/98/373 383/103/372 377/96/366
f 379/105/368 385/104/380 390/112/374
f 386/106/375 385/114/380 379/99/368
f 387/107/376 386/106/375 380/101/369
f 388/109/377 387/107/376 381/108/371
f 383/103/372 389/110/379 388/109/377
f 384/98/373 390/112/374 389/110/379
f 385/104/380 391/111/386 396/119/381
f 392/113/382 391/121/386 385/114/380
f 393/115/383 392/113/382 386/106/375
f 394/116/384 393/115/383 387/107/376
f 389/110/379 395/117/385 394/116/384
f 390/112/374 396/119/381 395/117/385
f 391/111/386 397/118/392 402/126/387
f 398/120/388 397/128/392 391/121/386
f 399/122/389 398/120/388 392/113/382
f 400/123/390 399/122/389 393/115/383
f 395/117/385 401/124/391 400/123/390
f 396/119/381 402/126/387 401/124/391
f 397/118/392 403/125/398 408/133/393
f 404/127/394 403/135/398 397/128/392
f 405/129/395 404/127/394 398/120/388
f 406/130/396 405/129/395 399/122/389
f 401/124/391 407/131/397 406/130/396
f 402/126/387 408/133/393 407/131/397
f 403/125/398 409/132/448 414/139/399
f 410/134/400 409/140/448 403/135/398
f 411/136/401 410/134/400 404/127/394
f 412/137/402 411/136/401 405/129/395
f 407/131/397 413/138/403 412/137/402
f 408/133/393 414/139/399 413/138/403
usemtl AnomalyCore
f 43/1/43 56/2/44 55/3/45
f 44/4/46 56/5/44 58/6/5
f 43/7/43 55/8/45 60/9/6
f 43/10/43 60/11/6 62/12/47
f 43/13/43 62/14/47 59/15/48
f 44/4/46 58/6/5 65/16/49
f 45/17/50 57/18/51 67/19/12
f 46/20/52 61/21/53 69/22/54
f 47/23/55 63/24/56 71/25/57
f 48/26/58 64/27/59 73/28/60
f 44/4/46 65/16/49 68/29/61
f 45/17/50 67/19/12 70/30/62
f 46/20/52 69/22/54 72/31/63
f 47/23/55 71/25/57 74/32/25
f 48/26/58 73/28/60 66/33/64
f 49/34/65 75/35/66 80/36/67
f 50/37/68 76/38/69 82/39/70
f 51/40/71 77/41/34 83/42/72
f 52/43/73 78/44/74 84/45/75
f 53/46/76 79/47/77 81/48/41
f 81/48/41 84/49/75 54/50/78
f 81/48/41 79/47/77 84/49/75
f 79/47/77 52/43/73 84/49/75
f 84/45/75 83/51/72 54/52/78
f 84/45/75 78/44/74 83/51/72
f 78/44/74 51/40/71 83/51/72
f 83/42/72 82/53/70 54/54/78
f 83/42/72 77/41/34 82/53/70
f 77/41/34 50/55/68 82/53/70
f 82/39/70 80/56/67 54/57/78
f 82/39/70 76/38/69 80/56/67
f 76/38/69 49/34/65 80/56/67
f 80/36/67 81/58/41 54/59/78
f 80/36/67 75/35/66 81/58/41
f 75/35/66 53/46/76 81/58/41
f 66/33/64 79/47/77 53/46/76
f 66/33/64 73/28/60 79/47/77
f 73/28/60 52/43/73 79/47/77
f 74/32/25 78/44/74 52/43/73
f 74/32/25 71/25/57 78/44/74
f 71/25/57 51/40/71 78/44/74
f 72/31/63 77/41/34 51/40/71
f 72/31/63 69/22/54 77/41/34
f 69/22/54 50/55/68 77/41/34
f 70/30/62 76/38/69 50/37/68
f 70/30/62 67/19/12 76/38/69
f 67/19/12 49/34/65 76/38/69
f 68/29/61 75/35/66 49/34/65
f 68/29/61 65/16/49 75/35/66
f 65/16/49 53/46/76 75/35/66
f 73/28/60 74/32/25 52/43/73
f 73/28/60 64/27/59 74/32/25
f 64/27/59 47/23/55 74/32/25
f 71/25/57 72/31/63 51/40/71
f 71/25/57 63/24/56 72/31/63
f 63/24/56 46/20/52 72/31/63
f 69/22/54 70/60/62 50/55/68
f 69/22/54 61/21/53 70/60/62
f 61/21/53 45/61/50 70/60/62
f 67/19/12 68/29/61 49/34/65
f 67/19/12 57/18/51 68/29/61
f 57/18/51 44/4/46 68/29/61
f 65/16/49 66/33/64 53/46/76
f 65/16/49 58/6/5 66/33/64
f 58/6/5 48/26/58 66/33/64
f 59/15/48 64/27/59 48/26/58
f 59/15/48 62/14/47 64/27/59
f 62/14/47 47/23/55 64/27/59
f 62/12/47 63/24/56 47/23/55
f 62/12/47 60/11/6 63/24/56
f 60/11/6 46/20/52 63/24/56
f 60/9/6 61/21/53 46/20/52
f 60/9/6 55/8/45 61/21/53
f 55/8/45 45/61/50 61/21/53
f 58/6/5 59/62/48 48/26/58
f 58/6/5 56/5/44 59/62/48
f 56/5/44 43/63/43 59/62/48
f 55/3/45 57/18/51 45/17/50
f 55/3/45 56/2/44 57/18/51
f 56/2/44 44/4/46 57/18/51
s 0
usemtl GlacierIce
f 415/69/404 417/69/404 416/69/404
f 416/69/405 417/69/405 421/69/405
f 415/69/406 418/69/406 417/69/406
f 417/69/407 418/69/407 421/69/407
f 415/69/408 419/69/408 418/69/408
f 418/69/409 419/69/409 421/69/409
f 415/69/410 420/69/410 419/69/410
f 419/69/411 420/69/411 421/69/411
f 415/69/412 416/69/412 420/69/412
f 420/69/413 416/69/413 421/69/413
f 422/69/414 424/69/414 423/69/414
f 423/69/415 424/69/415 428/69/415
f 422/69/416 425/69/416 424/69/416
f 424/69/417 425/69/417 428/69/417
f 422/69/418 426/69/418 425/69/418
f 425/69/419 426/69/419 428/69/419
f 422/69/420 427/69/420 426/69/420
f 426/69/421 427/69/421 428/69/421
f 422/69/422 423/69/422 427/69/422
f 427/69/423 423/69/423 428/69/423
f 429/69/424 431/69/424 430/69/424
f 430/69/425 431/69/425 435/69/425
f 429/69/426 432/69/426 431/69/426
f 431/69/427 432/69/427 435/69/427
f 429/69/428 433/69/428 432/69/428
f 432/69/429 433/69/429 435/69/429
f 429/69/430 434/69/430 433/69/430
f 433/69/431 434/69/431 435/69/431
f 429/69/432 430/69/432 434/69/432
f 434/69/433 430/69/433 435/69/433
f 436/69/434 438/69/434 437/69/434
f 437/69/435 438/69/435 442/69/435
f 436/69/436 439/69/436 438/69/436
f 438/69/437 439/69/437 442/69/437
f 436/69/438 440/69/438 439/69/438
f 439/69/439 440/69/439 442/69/439
f 436/69/440 441/69/440 440/69/440
f 440/69/441 441/69/441 442/69/441
f 436/69/442 437/69/442 441/69/442
f 441/69/443 437/69/443 442/69/443
