# Blender 4.4.1
# www.blender.org
mtllib PaintShooterEnemy.mtl
o PaintShooterEnemy
v 0.000000 -0.762884 0.000000
v 0.552028 -0.341177 0.312832
v -0.210852 -0.341177 0.506178
v -0.682343 -0.341174 0.000000
v -0.210852 -0.341177 -0.506178
v 0.552028 -0.341177 -0.312832
v 0.210852 0.341177 0.506178
v -0.552028 0.341177 0.312832
v -0.552028 0.341177 -0.312832
v 0.210852 0.341177 -0.506178
v 0.682343 0.341174 0.000000
v 0.000000 0.762884 0.000000
v -0.123935 -0.648950 0.297522
v 0.324472 -0.648950 0.183877
v 0.200538 -0.401077 0.481402
v 0.648945 -0.401075 0.000000
v 0.324472 -0.648950 -0.183877
v -0.401071 -0.648948 0.000000
v -0.525008 -0.401076 0.297523
v -0.123935 -0.648950 -0.297522
v -0.525008 -0.401076 -0.297523
v 0.200538 -0.401077 -0.481402
v 0.725547 0.000000 0.183878
v 0.725547 0.000000 -0.183878
v 0.000000 0.000000 0.595049
v 0.448412 0.000000 0.481405
v -0.725547 0.000000 0.183878
v -0.448412 0.000000 0.481405
v -0.448412 0.000000 -0.481405
v -0.725547 0.000000 -0.183878
v 0.448412 0.000000 -0.481405
v 0.000000 0.000000 -0.595049
v 0.525008 0.401076 0.297523
v -0.200538 0.401077 0.481402
v -0.648945 0.401075 0.000000
v -0.200538 0.401077 -0.481402
v 0.525008 0.401076 -0.297523
v 0.123935 0.648950 0.297522
v 0.401071 0.648948 0.000000
v -0.324472 0.648950 0.183877
v -0.324472 0.648950 -0.183877
v 0.123935 0.648950 -0.297522
v 0.000000 -0.305153 0.534019
v 0.248413 -0.115385 0.714499
v -0.094883 -0.115385 0.826045
v -0.307054 -0.115384 0.534019
v -0.094883 -0.115385 0.241993
v 0.248413 -0.115385 0.353538
v 0.094883 0.191674 0.826045
v -0.248413 0.191674 0.714499
v -0.248413 0.191674 0.353538
v 0.094883 0.191674 0.241993
v 0.307054 0.191672 0.534019
v 0.000000 0.381442 0.534019
v -0.055771 -0.253884 0.705666
v 0.146012 -0.253883 0.640102
v 0.090242 -0.142340 0.811750
v 0.292025 -0.142340 0.534019
v 0.146012 -0.253883 0.427936
v -0.180482 -0.253883 0.534019
v -0.236254 -0.142340 0.705666
v -0.055771 -0.253884 0.362371
v -0.236254 -0.142340 0.362371
v 0.090242 -0.142340 0.256287
v 0.326496 0.038144 0.640102
v 0.326496 0.038144 0.427935
v 0.000000 0.038144 0.877316
v 0.201785 0.038144 0.811752
v -0.326496 0.038144 0.640102
v -0.201785 0.038144 0.811752
v -0.201785 0.038144 0.256285
v -0.326496 0.038144 0.427935
v 0.201785 0.038144 0.256285
v 0.000000 0.038144 0.190721
v 0.236254 0.218628 0.705666
v -0.090242 0.218629 0.811750
v -0.292025 0.218628 0.534019
v -0.090242 0.218629 0.256287
v 0.236254 0.218628 0.362371
v 0.055771 0.330172 0.705666
v 0.180482 0.330171 0.534019
v -0.146012 0.330172 0.640102
v -0.146012 0.330172 0.427936
v 0.055771 0.330172 0.362371
v 0.239152 0.044073 0.659794
v 0.273336 0.044073 0.700821
v 0.301194 0.000000 0.712364
v 0.294867 -0.044073 0.682881
v 0.260683 -0.044073 0.641854
v 0.232825 0.000000 0.630311
v 0.298214 0.067520 0.614496
v 0.329879 0.066512 0.657486
v 0.356339 0.021879 0.670118
v 0.351134 -0.021746 0.639761
v 0.319469 -0.020738 0.596771
v 0.293009 0.023895 0.584139
v 0.352074 0.087845 0.577335
v 0.383128 0.086602 0.620762
v 0.409250 0.041840 0.633636
v 0.404316 -0.001681 0.603085
v 0.373262 -0.000438 0.559658
v 0.347141 0.044324 0.546784
v 0.401169 0.106723 0.542081
v 0.434441 0.106351 0.583849
v 0.461793 0.062071 0.595803
v 0.455872 0.018163 0.565990
v 0.422599 0.018536 0.524222
v 0.395248 0.062816 0.512267
v 0.446877 0.126091 0.502221
v 0.484419 0.127551 0.540172
v 0.514139 0.084288 0.550008
v 0.506317 0.039564 0.521895
v 0.468776 0.038104 0.483944
v 0.439056 0.081367 0.474107
v 0.491139 0.148104 0.450820
v 0.533214 0.151822 0.483495
v 0.565449 0.109811 0.490405
v 0.555609 0.064082 0.464640
v 0.513534 0.060365 0.431965
v 0.481299 0.102375 0.425056
v 0.546119 0.181300 0.363983
v 0.591923 0.187265 0.390781
v 0.626227 0.146502 0.394431
v 0.614727 0.099772 0.371282
v 0.568923 0.093806 0.344483
v 0.534619 0.134570 0.340834
v 0.583746 0.210215 0.280206
v 0.631963 0.217991 0.301803
v 0.667605 0.178232 0.302568
v 0.655031 0.130697 0.281734
v 0.606815 0.122920 0.260137
v 0.571172 0.162679 0.259373
v 0.612990 0.237989 0.194267
v 0.662150 0.246620 0.213256
v 0.698316 0.207335 0.212572
v 0.685322 0.159419 0.192900
v 0.636162 0.150788 0.173912
v 0.599996 0.190073 0.174595
v 0.642577 0.267545 0.101602
v 0.691496 0.275946 0.121303
v 0.727528 0.236533 0.121014
v 0.714641 0.188720 0.101026
v 0.665722 0.180319 0.081325
v 0.629690 0.219731 0.081613
v 0.681236 0.301554 -0.001369
v 0.729008 0.308963 0.021318
v 0.764404 0.269001 0.022687
v 0.752028 0.221629 0.001369
v 0.704256 0.214219 -0.021318
v 0.668860 0.254182 -0.022687
v 0.059635 0.282299 0.710380
v 0.112764 0.282299 0.704988
v 0.135639 0.253941 0.665946
v 0.105386 0.225583 0.632295
v 0.052257 0.225583 0.637688
v 0.029381 0.253941 0.676730
v 0.055825 0.342150 0.667667
v 0.108986 0.341657 0.662632
v 0.131725 0.315363 0.622094
v 0.101301 0.289562 0.586590
v 0.048140 0.290055 0.591625
v 0.025401 0.316349 0.632163
v 0.053183 0.398794 0.631082
v 0.106351 0.398182 0.626126
v 0.129063 0.372386 0.585255
v 0.098608 0.347202 0.549338
v 0.045440 0.347814 0.554294
v 0.022727 0.373610 0.595165
v 0.050213 0.454452 0.593643
v 0.103355 0.454273 0.588385
v 0.126175 0.426664 0.548778
v 0.095853 0.399234 0.514428
v 0.042711 0.399413 0.519685
v 0.019891 0.427022 0.559293
v 0.045360 0.510002 0.548755
v 0.098425 0.510665 0.542803
v 0.121568 0.479530 0.506105
v 0.091646 0.447730 0.475360
v 0.038581 0.447067 0.481312
v 0.015438 0.478203 0.518010
v 0.037119 0.565497 0.490406
v 0.090048 0.567072 0.483493
v 0.113760 0.532118 0.450818
v 0.084543 0.495589 0.425055
v 0.031614 0.494013 0.431967
v 0.007902 0.528967 0.464643
v 0.021239 0.633630 0.395829
v 0.073989 0.635977 0.387846
v 0.098453 0.597790 0.359650
v 0.070167 0.557256 0.339436
v 0.017417 0.554908 0.347418
v -0.007047 0.593095 0.375615
v 0.004081 0.682110 0.305202
v 0.056652 0.684977 0.296272
v 0.081860 0.644614 0.272041
v 0.054496 0.601385 0.256739
v 0.001925 0.598518 0.265668
v -0.023283 0.638880 0.289899
v -0.013984 0.720035 0.215826
v 0.038493 0.723113 0.206422
v 0.064098 0.681865 0.184179
v 0.037226 0.637539 0.171341
v -0.015251 0.634460 0.180745
v -0.040856 0.675708 0.202988
v -0.032760 0.756911 0.124099
v 0.019743 0.759935 0.114825
v 0.045238 0.718916 0.092039
v 0.018230 0.674873 0.078528
v -0.034273 0.671849 0.087802
v -0.059768 0.712868 0.110588
v -0.052383 0.802348 0.025062
v 0.000227 0.805117 0.016331
v 0.025274 0.765163 -0.008731
v -0.002290 0.722440 -0.025062
v -0.054900 0.719670 -0.016331
v -0.079947 0.759624 0.008731
v -0.225875 0.202391 0.697588
v -0.192724 0.202391 0.655722
v -0.182864 0.156944 0.629472
v -0.206155 0.111497 0.645087
v -0.239306 0.111497 0.686953
v -0.249166 0.156944 0.713204
v -0.283791 0.217216 0.655012
v -0.253006 0.217815 0.611381
v -0.245335 0.172921 0.583497
v -0.268448 0.127429 0.599245
v -0.299233 0.126831 0.642876
v -0.306904 0.171724 0.670760
v -0.338435 0.232196 0.618457
v -0.308219 0.232947 0.574432
v -0.301073 0.188194 0.546185
v -0.324144 0.142691 0.561963
v -0.354360 0.141940 0.605987
v -0.361506 0.186693 0.634235
v -0.392447 0.246613 0.580903
v -0.360157 0.246823 0.538370
v -0.351093 0.201571 0.511503
v -0.374319 0.156108 0.527168
v -0.406610 0.155897 0.569701
v -0.415674 0.201150 0.596568
v -0.447094 0.259234 0.535749
v -0.410728 0.258522 0.496650
v -0.397894 0.212416 0.472959
v -0.421426 0.167022 0.488366
v -0.457793 0.167734 0.527465
v -0.470627 0.213840 0.551157
v -0.502768 0.268604 0.477032
v -0.461908 0.267137 0.442679
v -0.444919 0.220334 0.423377
v -0.468789 0.174997 0.438428
v -0.509649 0.176463 0.472781
v -0.526638 0.223267 0.492083
v -0.572775 0.274582 0.382046
v -0.528014 0.272780 0.352979
v -0.507415 0.225666 0.338565
v -0.531578 0.180354 0.353219
v -0.576340 0.182156 0.382286
v -0.596939 0.229270 0.396699
v -0.624395 0.273241 0.291056
v -0.576920 0.271481 0.266668
v -0.553812 0.224406 0.256582
v -0.578179 0.179091 0.270885
v -0.625654 0.180851 0.295273
v -0.648762 0.227926 0.305358
v -0.666134 0.267771 0.201499
v -0.617521 0.266133 0.179458
v -0.593360 0.219172 0.171543
v -0.617813 0.173848 0.185669
v -0.666426 0.175485 0.207710
v -0.690587 0.222446 0.215625
v -0.706985 0.261312 0.109821
v -0.658668 0.259635 0.087139
v -0.634782 0.212636 0.078632
v -0.659213 0.167315 0.092806
v -0.707529 0.168992 0.115488
v -0.731415 0.215990 0.123996
v -0.756156 0.256699 0.010992
v -0.709199 0.254907 -0.014376
v -0.686570 0.207802 -0.025368
v -0.710898 0.162489 -0.010992
v -0.757855 0.164282 0.014376
v -0.780485 0.211386 0.025368
v -0.255653 -0.122842 0.660493
v -0.211474 -0.122842 0.630494
v -0.171835 -0.156944 0.641339
v -0.176377 -0.191046 0.682182
v -0.220556 -0.191046 0.712181
v -0.260195 -0.156944 0.701336
v -0.288778 -0.175134 0.616385
v -0.245889 -0.177183 0.584635
v -0.206325 -0.211404 0.595379
v -0.209650 -0.243575 0.637872
v -0.252540 -0.241526 0.669622
v -0.292104 -0.207306 0.658879
v -0.320189 -0.222903 0.579489
v -0.277617 -0.225442 0.547349
v -0.238072 -0.259690 0.558070
v -0.241098 -0.291400 0.600931
v -0.283669 -0.288862 0.633071
v -0.323215 -0.254613 0.622350
v -0.349589 -0.268250 0.543229
v -0.305872 -0.268997 0.512569
v -0.266260 -0.303143 0.523375
v -0.270365 -0.336541 0.564842
v -0.314082 -0.335793 0.595502
v -0.353694 -0.301648 0.584695
v -0.376624 -0.313206 0.501055
v -0.330787 -0.310391 0.473801
v -0.291053 -0.344331 0.484804
v -0.297157 -0.381086 0.523060
v -0.342994 -0.383901 0.550314
v -0.382728 -0.349961 0.539312
v -0.400912 -0.359753 0.446456
v -0.352987 -0.352931 0.423910
v -0.313132 -0.386640 0.435184
v -0.321204 -0.427172 0.469004
v -0.369130 -0.433994 0.491550
v -0.408984 -0.400285 0.480276
v -0.426908 -0.421357 0.356057
v -0.377469 -0.410956 0.338754
v -0.337528 -0.444459 0.350329
v -0.347026 -0.488363 0.379208
v -0.396465 -0.498764 0.396511
v -0.436406 -0.465261 0.384935
v -0.440891 -0.468614 0.269127
v -0.390661 -0.455641 0.256465
v -0.350674 -0.488996 0.268308
v -0.360918 -0.535324 0.292813
v -0.411148 -0.548298 0.305475
v -0.451135 -0.514943 0.293632
v -0.448383 -0.509028 0.181607
v -0.397919 -0.494943 0.171273
v -0.357919 -0.528234 0.183250
v -0.368382 -0.575610 0.205561
v -0.418846 -0.589695 0.215894
v -0.458846 -0.556404 0.203918
v -0.454910 -0.550131 0.089373
v -0.404500 -0.536338 0.078404
v -0.364503 -0.569646 0.090344
v -0.374916 -0.616747 0.113254
v -0.425326 -0.630540 0.124223
v -0.465324 -0.597232 0.112283
v -0.465988 -0.599474 -0.011787
v -0.415885 -0.586998 -0.025421
v -0.375906 -0.620382 -0.013634
v -0.386029 -0.666241 0.011787
v -0.436131 -0.678717 0.025421
v -0.476110 -0.645333 0.013634
v 0.080066 -0.217037 0.632817
v 0.120891 -0.217037 0.667242
v 0.123335 -0.253941 0.705763
v 0.084955 -0.290845 0.709859
v 0.044130 -0.290845 0.675433
v 0.041685 -0.253941 0.636913
v 0.121381 -0.266881 0.586654
v 0.161167 -0.265634 0.622253
v 0.161882 -0.300464 0.662728
v 0.122812 -0.336541 0.667603
v 0.083026 -0.337788 0.632004
v 0.082311 -0.302958 0.591529
v 0.157536 -0.312048 0.549301
v 0.197076 -0.310497 0.585161
v 0.197382 -0.344821 0.626070
v 0.158148 -0.380696 0.631119
v 0.118609 -0.382247 0.595258
v 0.118303 -0.347923 0.554349
v 0.189996 -0.352095 0.514777
v 0.230440 -0.351645 0.549645
v 0.232251 -0.387801 0.588904
v 0.193618 -0.424407 0.593294
v 0.153174 -0.424857 0.558425
v 0.151363 -0.388701 0.519167
v 0.221191 -0.388043 0.476598
v 0.263467 -0.389683 0.509183
v 0.268327 -0.429316 0.544643
v 0.230910 -0.467309 0.547517
v 0.188633 -0.465669 0.514932
v 0.183774 -0.426036 0.479473
v 0.254242 -0.421744 0.427522
v 0.298640 -0.425546 0.456951
v 0.307031 -0.468776 0.487159
v 0.271022 -0.508203 0.487939
v 0.226624 -0.504401 0.458510
v 0.218233 -0.461172 0.428301
v 0.301353 -0.462519 0.343272
v 0.347720 -0.468027 0.369186
v 0.359385 -0.514095 0.393546
v 0.324683 -0.554655 0.391993
v 0.278316 -0.549147 0.366079
v 0.266651 -0.503079 0.341719
v 0.339394 -0.488605 0.261786
v 0.387237 -0.495151 0.284589
v 0.401358 -0.542946 0.303773
v 0.367636 -0.584195 0.300154
v 0.319793 -0.577649 0.277352
v 0.305672 -0.529854 0.258168
v 0.374359 -0.507556 0.176997
v 0.422863 -0.514480 0.198238
v 0.438083 -0.562905 0.214825
v 0.404799 -0.604406 0.210171
v 0.356295 -0.597481 0.188929
v 0.341075 -0.549056 0.172342
v 0.411740 -0.526631 0.084017
v 0.460068 -0.533461 0.105685
v 0.474996 -0.581728 0.122981
v 0.441596 -0.623166 0.118610
v 0.393268 -0.616336 0.096942
v 0.378340 -0.568069 0.079646
v 0.456603 -0.553235 -0.020268
v 0.504155 -0.559595 0.003186
v 0.517792 -0.607082 0.023454
v 0.483876 -0.648208 0.020268
v 0.436324 -0.641848 -0.003186
v 0.422687 -0.594361 -0.023454
v 0.000000 -0.807759 -0.251303
v 0.649445 -0.311633 0.173357
v -0.248061 -0.311633 0.435817
v -0.802757 -0.311630 -0.251303
v -0.248061 -0.311633 -0.938423
v 0.649445 -0.311633 -0.675962
v 0.248061 0.491135 0.435817
v -0.649445 0.491135 0.173357
v -0.649445 0.491135 -0.675962
v 0.248061 0.491135 -0.938423
v 0.802757 0.491132 -0.251303
v 0.000000 0.987261 -0.251303
v -0.145806 -0.673720 0.152573
v 0.381731 -0.673720 -0.001696
v 0.235927 -0.382104 0.402184
v 0.763465 -0.382102 -0.251303
v 0.381731 -0.673720 -0.500910
v -0.471848 -0.673718 -0.251303
v -0.617657 -0.382103 0.152574
v -0.145806 -0.673720 -0.655179
v -0.617657 -0.382103 -0.655180
v 0.235927 -0.382104 -0.904790
v 0.853584 0.089751 -0.001695
v 0.853584 0.089751 -0.500911
v 0.000000 0.089751 0.556456
v 0.527544 0.089751 0.402188
v -0.853584 0.089751 -0.001695
v -0.527544 0.089751 0.402188
v -0.527544 0.089751 -0.904794
v -0.853584 0.089751 -0.500911
v 0.527544 0.089751 -0.904794
v 0.000000 0.089751 -1.059062
v 0.617657 0.561605 0.152574
v -0.235927 0.561606 0.402184
v -0.763465 0.561604 -0.251303
v -0.235927 0.561606 -0.904790
v 0.617657 0.561605 -0.655180
v 0.145806 0.853222 0.152573
v 0.471848 0.853220 -0.251303
v -0.381731 0.853222 -0.001696
v -0.381731 0.853222 -0.500910
v 0.145806 0.853222 -0.655179
v 0.554925 0.000000 -0.060418
v 0.976991 0.000000 0.157415
v 0.884861 -0.170717 -0.072908
v 0.735793 -0.105509 -0.445579
v 0.735793 0.105509 -0.445579
v 0.884861 0.170717 -0.072908
v 1.301390 0.000000 -0.359004
v -0.277463 0.480579 -0.060418
v -0.197562 0.730631 -0.456247
v -0.459718 0.629137 -0.348293
v -0.669514 0.667904 -0.002114
v -0.537019 0.793357 0.103882
v -0.245337 0.832124 -0.176788
v -0.650695 1.127037 -0.359004
v -0.277463 -0.480579 -0.060418
v -0.197562 -0.730631 -0.456247
v -0.245337 -0.832124 -0.176788
v -0.537019 -0.793357 0.103882
v -0.669514 -0.667904 -0.002114
v -0.459718 -0.629137 -0.348293
v -0.650695 -1.127037 -0.359004
v 0.385929 0.000000 0.897510
v 0.327591 0.000000 0.998555
v 0.210915 0.000000 0.998555
v 0.152577 0.000000 0.897510
v 0.210915 -0.000000 0.796466
v 0.327591 -0.000000 0.796466
v 0.356552 0.147689 0.897510
v 0.302655 0.125364 0.998555
v 0.194860 0.080714 0.998555
v 0.140963 0.058389 0.897510
v 0.194860 0.080714 0.796466
v 0.302655 0.125364 0.796466
v 0.272893 0.272893 0.897510
v 0.231642 0.231642 0.998555
v 0.149139 0.149139 0.998555
v 0.107888 0.107888 0.897510
v 0.149139 0.149139 0.796466
v 0.231642 0.231642 0.796466
v 0.147689 0.356552 0.897510
v 0.125364 0.302655 0.998555
v 0.080714 0.194860 0.998555
v 0.058389 0.140963 0.897510
v 0.080714 0.194860 0.796466
v 0.125364 0.302655 0.796466
v 0.000000 0.385929 0.897510
v 0.000000 0.327591 0.998555
v 0.000000 0.210915 0.998555
v 0.000000 0.152577 0.897510
v 0.000000 0.210915 0.796466
v 0.000000 0.327591 0.796466
v -0.147689 0.356552 0.897510
v -0.125364 0.302655 0.998555
v -0.080714 0.194860 0.998555
v -0.058389 0.140963 0.897510
v -0.080714 0.194860 0.796466
v -0.125364 0.302655 0.796466
v -0.272893 0.272893 0.897510
v -0.231642 0.231642 0.998555
v -0.149139 0.149139 0.998555
v -0.107888 0.107888 0.897510
v -0.149139 0.149139 0.796466
v -0.231642 0.231642 0.796466
v -0.356552 0.147689 0.897510
v -0.302655 0.125364 0.998555
v -0.194860 0.080714 0.998555
v -0.140963 0.058389 0.897510
v -0.194860 0.080714 0.796466
v -0.302655 0.125364 0.796466
v -0.385929 0.000000 0.897510
v -0.327591 0.000000 0.998555
v -0.210915 0.000000 0.998555
v -0.152577 0.000000 0.897510
v -0.210915 0.000000 0.796466
v -0.327591 0.000000 0.796466
v -0.356552 -0.147689 0.897510
v -0.302655 -0.125364 0.998555
v -0.194860 -0.080714 0.998555
v -0.140963 -0.058389 0.897510
v -0.194860 -0.080714 0.796466
v -0.302655 -0.125364 0.796466
v -0.272893 -0.272893 0.897510
v -0.231642 -0.231642 0.998555
v -0.149139 -0.149139 0.998555
v -0.107888 -0.107888 0.897510
v -0.149139 -0.149139 0.796466
v -0.231642 -0.231642 0.796466
v -0.147689 -0.356552 0.897510
v -0.125364 -0.302655 0.998555
v -0.080714 -0.194860 0.998555
v -0.058389 -0.140963 0.897510
v -0.080714 -0.194860 0.796466
v -0.125364 -0.302655 0.796466
v 0.000000 -0.385929 0.897510
v 0.000000 -0.327591 0.998555
v 0.000000 -0.210915 0.998555
v 0.000000 -0.152577 0.897510
v 0.000000 -0.210915 0.796466
v 0.000000 -0.327591 0.796466
v 0.147689 -0.356552 0.897510
v 0.125364 -0.302655 0.998555
v 0.080714 -0.194860 0.998555
v 0.058389 -0.140963 0.897510
v 0.080714 -0.194860 0.796466
v 0.125364 -0.302655 0.796466
v 0.272893 -0.272893 0.897510
v 0.231642 -0.231642 0.998555
v 0.149139 -0.149139 0.998555
v 0.107888 -0.107888 0.897510
v 0.149139 -0.149139 0.796466
v 0.231642 -0.231642 0.796466
v 0.356552 -0.147689 0.897510
v 0.302655 -0.125364 0.998555
v 0.194860 -0.080714 0.998555
v 0.140963 -0.058389 0.897510
v 0.194860 -0.080714 0.796466
v 0.302655 -0.125364 0.796466
v 0.000000 -0.197452 0.870585
v 0.142878 -0.088305 0.884740
v -0.054573 -0.088305 0.893489
v -0.176606 -0.088304 0.870585
v -0.054573 -0.088305 0.847681
v 0.142878 -0.088305 0.856430
v 0.054573 0.088305 0.893489
v -0.142878 0.088305 0.884740
v -0.142878 0.088305 0.856430
v 0.054573 0.088305 0.847681
v 0.176606 0.088304 0.870585
v 0.000000 0.197452 0.870585
v -0.032077 -0.167964 0.884048
v 0.083981 -0.167964 0.878905
v 0.051904 -0.103808 0.892368
v 0.167962 -0.103808 0.870585
v 0.083981 -0.167964 0.862265
v -0.103807 -0.167963 0.870585
v -0.135885 -0.103808 0.884048
v -0.032077 -0.167964 0.857122
v -0.135885 -0.103808 0.857122
v 0.051904 -0.103808 0.848802
v 0.187789 0.000000 0.878905
v 0.187789 0.000000 0.862265
v 0.000000 0.000000 0.897510
v 0.116060 0.000000 0.892368
v -0.187789 0.000000 0.878905
v -0.116060 0.000000 0.892368
v -0.116060 0.000000 0.848802
v -0.187789 0.000000 0.862265
v 0.116060 0.000000 0.848802
v 0.000000 0.000000 0.843660
v 0.135885 0.103808 0.884048
v -0.051904 0.103808 0.892368
v -0.167962 0.103808 0.870585
v -0.051904 0.103808 0.848802
v 0.135885 0.103808 0.857122
v 0.032077 0.167964 0.884048
v 0.103807 0.167963 0.870585
v -0.083981 0.167964 0.878905
v -0.083981 0.167964 0.862265
v 0.032077 0.167964 0.857122
vn 0.0010 -1.0000 -0.0000
vn 0.4184 -0.8324 0.3633
vn -0.1555 -0.8035 0.5746
vn 0.6798 -0.4201 0.6012
vn 0.8506 -0.5257 -0.0000
vn -0.5257 -0.8507 -0.0000
vn -0.1555 -0.8035 -0.5746
vn 0.4184 -0.8324 -0.3633
vn 0.9317 -0.0020 0.3633
vn -0.2364 -0.3826 0.8932
vn 0.2271 -0.4592 0.8588
vn -0.0000 -0.0000 1.0000
vn -0.8949 -0.4464 -0.0000
vn -0.6491 -0.4985 0.5746
vn -0.9317 0.0020 0.3633
vn -0.2364 -0.3826 -0.8932
vn -0.6491 -0.4985 -0.5746
vn -0.5123 -0.0023 -0.8588
vn 0.6798 -0.4201 -0.6012
vn 0.2271 -0.4592 -0.8588
vn 0.5123 0.0023 -0.8588
vn 0.5123 0.0023 0.8588
vn -0.5123 -0.0023 0.8588
vn -0.9317 0.0020 -0.3633
vn -0.0000 -0.0000 -1.0000
vn 0.9317 -0.0020 -0.3633
vn 0.2364 0.3826 0.8932
vn 0.6491 0.4985 0.5746
vn 0.1555 0.8035 0.5746
vn -0.6798 0.4201 0.6012
vn -0.2271 0.4592 0.8588
vn -0.4184 0.8324 0.3633
vn -0.6798 0.4201 -0.6012
vn -0.8506 0.5257 -0.0000
vn -0.4184 0.8324 -0.3633
vn 0.2364 0.3826 -0.8932
vn -0.2271 0.4592 -0.8588
vn 0.1555 0.8035 -0.5746
vn 0.8949 0.4464 -0.0000
vn 0.6491 0.4985 -0.5746
vn 0.5257 0.8507 -0.0000
vn -0.0010 1.0000 -0.0000
vn -0.0000 -1.0000 -0.0000
vn 0.4253 -0.8507 0.3090
vn -0.1625 -0.8507 0.5000
vn 0.7236 -0.4472 0.5257
vn -0.1625 -0.8507 -0.5000
vn 0.4253 -0.8507 -0.3090
vn 0.9511 -0.0000 0.3090
vn -0.2764 -0.4472 0.8506
vn 0.2629 -0.5257 0.8090
vn -0.8944 -0.4472 -0.0000
vn -0.6882 -0.5257 0.5000
vn -0.9511 -0.0000 0.3090
vn -0.2764 -0.4472 -0.8506
vn -0.6882 -0.5257 -0.5000
vn -0.5878 -0.0000 -0.8090
vn 0.7236 -0.4472 -0.5257
vn 0.2629 -0.5257 -0.8090
vn 0.5878 -0.0000 -0.8090
vn 0.5878 -0.0000 0.8090
vn -0.5878 -0.0000 0.8090
vn -0.9511 -0.0000 -0.3090
vn 0.9511 -0.0000 -0.3090
vn 0.2764 0.4472 0.8506
vn 0.6882 0.5257 0.5000
vn 0.1625 0.8507 0.5000
vn -0.7236 0.4472 0.5257
vn -0.2629 0.5257 0.8090
vn -0.4253 0.8507 0.3090
vn -0.7236 0.4472 -0.5257
vn -0.4253 0.8507 -0.3090
vn 0.2764 0.4472 -0.8506
vn -0.2629 0.5257 -0.8090
vn 0.1625 0.8507 -0.5000
vn 0.8944 0.4472 -0.0000
vn 0.6882 0.5257 -0.5000
vn -0.0000 1.0000 -0.0000
vn -0.5101 0.8268 -0.2370
vn -0.5932 0.0193 -0.8048
vn -0.6117 0.0124 -0.7910
vn 0.0986 0.8253 0.5560
vn -0.4981 0.8328 -0.2415
vn 0.6109 -0.0110 0.7916
vn 0.0931 0.8203 0.5644
vn 0.4928 -0.8387 0.2315
vn 0.5014 -0.8365 0.2211
vn -0.1018 -0.8136 -0.5725
vn -0.1129 -0.8146 -0.5689
vn -0.5812 0.0232 -0.8134
vn -0.4881 0.8393 -0.2393
vn 0.5927 -0.0185 0.8052
vn 0.0941 0.8136 0.5737
vn 0.4902 -0.8370 0.2431
vn -0.0907 -0.8162 -0.5706
vn -0.6222 0.0064 -0.7828
vn -0.5068 0.8349 -0.2147
vn 0.5817 -0.0234 0.8131
vn 0.1194 0.8161 0.5655
vn 0.5174 -0.8235 0.2328
vn -0.1022 -0.8283 -0.5509
vn -0.7024 -0.0286 -0.7113
vn -0.5473 0.8192 -0.1712
vn 0.6238 -0.0076 0.7815
vn 0.1603 0.8289 0.5360
vn 0.5652 -0.8012 0.1965
vn -0.1321 -0.8462 -0.5163
vn -0.7875 -0.0710 -0.6122
vn -0.5930 0.7966 -0.1175
vn 0.7036 0.0262 0.7101
vn 0.1999 0.8481 0.4907
vn 0.6137 -0.7769 0.1408
vn -0.1680 -0.8645 -0.4738
vn -0.6310 0.7736 -0.0584
vn 0.2316 0.8677 0.4398
vn 0.8579 0.1104 0.5018
vn 0.7882 0.0683 0.6116
vn 0.6531 -0.7533 0.0779
vn -0.1984 -0.8823 -0.4269
vn -0.6596 0.7516 -0.0086
vn -0.8575 -0.1131 -0.5019
vn 0.2469 0.8856 0.3933
vn 0.9030 0.1446 0.4047
vn 0.6751 -0.7375 0.0199
vn -0.2238 -0.8946 -0.3868
vn -0.6757 0.7371 0.0139
vn -0.9029 -0.1467 -0.4041
vn 0.2458 0.8964 0.3689
vn 0.9206 0.1614 0.3556
vn 0.6789 -0.7341 -0.0117
vn -0.2410 -0.8981 -0.3678
vn -0.6789 0.7342 0.0026
vn -0.9206 -0.1619 -0.3554
vn 0.2350 0.8977 0.3728
vn 0.9160 0.1578 0.3689
vn 0.6705 -0.7419 -0.0082
vn -0.2476 -0.8930 -0.3758
vn -0.6773 0.7357 -0.0113
vn -0.9161 -0.1568 -0.3689
vn 0.2279 0.8959 0.3814
vn 0.9081 0.1510 0.3905
vn 0.6637 -0.7480 0.0020
vn -0.2480 -0.8883 -0.3865
vn -0.4337 0.5050 0.7462
vn -0.9961 0.0050 0.0881
vn -0.9962 -0.0015 0.0870
vn 0.5719 0.5004 0.6501
vn -0.4303 0.4909 0.7575
vn 0.9949 -0.0135 -0.1004
vn 0.9942 -0.0127 -0.1065
vn 0.4213 -0.4938 -0.7607
vn 0.4193 -0.5099 -0.7512
vn -0.5676 -0.4840 -0.6660
vn -0.5651 -0.5032 -0.6538
vn -0.9954 0.0131 0.0951
vn 0.5718 0.4822 0.6637
vn -0.4235 0.4837 0.7660
vn 0.9959 -0.0098 -0.0904
vn 0.4269 -0.4824 -0.7649
vn -0.5711 -0.4711 -0.6723
vn -0.9939 0.0118 0.1096
vn 0.5694 0.4720 0.6730
vn -0.4190 0.5201 0.7443
vn 0.9962 0.0051 -0.0873
vn 0.4358 -0.5138 -0.7390
vn -0.5719 -0.5115 -0.6413
vn -0.9919 0.0021 0.1269
vn 0.5639 0.5156 0.6452
vn -0.4212 0.5880 0.6905
vn 0.9950 0.0268 -0.0962
vn 0.4463 -0.5777 -0.6834
vn -0.5665 -0.5927 -0.5725
vn -0.9896 -0.0126 0.1433
vn 0.5545 0.5981 0.5786
vn -0.4316 0.6603 0.6147
vn 0.9922 0.0462 -0.1158
vn 0.4571 -0.6484 -0.6088
vn -0.5534 -0.6813 -0.4792
vn -0.4461 0.7212 0.5299
vn 0.5239 0.7616 0.3815
vn 0.5412 0.6866 0.4855
vn 0.9885 0.0618 -0.1384
vn 0.4707 -0.7084 -0.5259
vn -0.9867 -0.0259 0.1606
vn -0.4640 0.7602 0.4547
vn 0.5085 0.8112 0.2886
vn 0.9847 0.0663 -0.1611
vn -0.5359 -0.7563 -0.3754
vn 0.4803 -0.7512 -0.4528
vn -0.9840 -0.0410 0.1733
vn -0.4778 0.7734 0.4167
vn 0.5023 0.8304 0.2409
vn 0.9827 0.0603 -0.1750
vn -0.5165 -0.8077 -0.2843
vn 0.4811 -0.7715 -0.4163
vn -0.9826 -0.0550 0.1772
vn -0.4817 0.7656 0.4264
vn 0.5079 0.8237 0.2520
vn 0.9830 0.0497 -0.1767
vn -0.5040 -0.8297 -0.2399
vn 0.4732 -0.7706 -0.4270
vn -0.9833 -0.0635 0.1707
vn -0.4809 0.7569 0.4426
vn 0.5132 0.8141 0.2718
vn 0.9836 0.0439 -0.1747
vn -0.5036 -0.8257 -0.2540
vn 0.4670 -0.7649 -0.4437
vn -0.9841 -0.0659 0.1646
vn -0.1410 0.8428 0.5195
vn -0.5943 -0.0120 0.8042
vn -0.1554 0.8481 0.5066
vn 0.4360 0.8482 -0.3007
vn 0.4395 0.8455 -0.3033
vn 0.5760 0.0079 -0.8174
vn 0.5929 0.0012 -0.8053
vn 0.1639 -0.8413 -0.5151
vn -0.4287 -0.8574 0.2847
vn 0.1462 -0.8386 -0.5248
vn -0.4296 -0.8555 0.2890
vn -0.1349 0.8372 0.5300
vn -0.5769 -0.0146 0.8167
vn 0.4308 0.8535 -0.2932
vn 0.5658 0.0153 -0.8244
vn 0.1327 -0.8388 -0.5281
vn -0.4332 -0.8507 0.2977
vn -0.1749 0.8436 0.5078
vn -0.5657 -0.0127 0.8245
vn 0.4284 0.8582 -0.2827
vn 0.6051 0.0104 -0.7961
vn 0.1643 -0.8513 -0.4983
vn -0.4414 -0.8443 0.3039
vn -0.2481 0.8578 0.4502
vn -0.6042 0.0023 0.7969
vn 0.4291 0.8607 -0.2739
vn 0.6818 -0.0035 -0.7315
vn 0.2320 -0.8693 -0.4365
vn -0.4520 -0.8390 0.3029
vn -0.3265 0.8707 0.3678
vn -0.6802 0.0225 0.7327
vn 0.4330 0.8603 -0.2689
vn 0.7658 -0.0174 -0.6428
vn 0.3092 -0.8824 -0.3546
vn -0.4607 -0.8373 0.2946
vn -0.8377 0.0429 0.5445
vn -0.7644 0.0369 0.6437
vn -0.3942 0.8767 0.2756
vn 0.4372 0.8597 -0.2642
vn 0.3766 -0.8880 -0.2638
vn -0.4674 -0.8370 0.2845
vn -0.8887 0.0392 0.4568
vn -0.4387 0.8778 0.1925
vn 0.8387 -0.0239 -0.5441
vn 0.4454 0.8560 -0.2624
vn 0.4265 -0.8853 -0.1851
vn -0.4671 -0.8410 0.2732
vn -0.9103 0.0320 0.4127
vn -0.4538 0.8786 0.1490
vn 0.8893 -0.0265 -0.4566
vn 0.4556 0.8503 -0.2635
vn 0.4512 -0.8801 -0.1474
vn -0.4602 -0.8472 0.2655
vn -0.9048 0.0280 0.4248
vn -0.4439 0.8821 0.1575
vn 0.9104 -0.0294 -0.4127
vn 0.4634 0.8447 -0.2680
vn 0.4506 -0.8781 -0.1611
vn -0.4515 -0.8527 0.2628
vn -0.8955 0.0271 0.4443
vn -0.4334 0.8842 0.1744
vn 0.9047 -0.0348 -0.4246
vn 0.4662 0.8420 -0.2713
vn 0.4440 -0.8777 -0.1803
vn -0.4473 -0.8550 0.2624
vn -0.7370 0.6433 -0.2073
vn -0.8146 0.0277 0.5793
vn -0.7351 0.6441 -0.2115
vn 0.0660 0.6009 -0.7966
vn 0.0775 0.6139 -0.7856
vn 0.8019 -0.0358 -0.5964
vn 0.8105 -0.0192 -0.5855
vn 0.7477 -0.6356 0.1922
vn -0.0652 -0.6188 0.7829
vn 0.7447 -0.6383 0.1951
vn -0.0584 -0.6040 0.7949
vn -0.7420 0.6404 -0.1984
vn -0.8044 0.0410 0.5926
vn 0.0552 0.5942 -0.8024
vn 0.7976 -0.0486 -0.6013
vn 0.7391 -0.6423 0.2031
vn -0.0583 -0.5932 0.8029
vn -0.7491 0.6342 -0.1913
vn -0.7967 0.0464 0.6026
vn 0.0694 0.6280 -0.7751
vn 0.8209 -0.0194 -0.5708
vn 0.7343 -0.6445 0.2134
vn -0.0841 -0.6228 0.7778
vn -0.7559 0.6262 -0.1909
vn -0.8164 0.0089 0.5774
vn 0.1029 0.6921 -0.7144
vn 0.8619 0.0447 -0.5052
vn 0.7318 -0.6447 0.2212
vn -0.1249 -0.6846 0.7181
vn -0.7595 0.6198 -0.1976
vn -0.8550 -0.0602 0.5151
vn 0.1394 0.7625 -0.6318
vn 0.9010 0.1194 -0.4171
vn 0.7327 -0.6424 0.2246
vn -0.1622 -0.7555 0.6347
vn -0.9226 -0.2026 0.3284
vn -0.8941 -0.1356 0.4269
vn -0.7614 0.6147 -0.2060
vn 0.1662 0.8252 -0.5398
vn 0.7341 -0.6398 0.2275
vn -0.1888 -0.8191 0.5417
vn -0.9385 -0.2483 0.2400
vn -0.7580 0.6154 -0.2159
vn 0.9291 0.1864 -0.3194
vn 0.1841 0.8695 -0.4584
vn 0.7394 -0.6337 0.2276
vn -0.1993 -0.8657 0.4593
vn -0.9445 -0.2649 0.1941
vn -0.7510 0.6215 -0.2232
vn 0.9428 0.2374 -0.2341
vn 0.1944 0.8876 -0.4177
vn 0.7471 -0.6253 0.2253
vn -0.1976 -0.8868 0.4178
vn -0.9451 -0.2553 0.2040
vn -0.7440 0.6287 -0.2264
vn 0.9454 0.2627 -0.1929
vn 0.1990 0.8811 -0.4291
vn 0.7540 -0.6187 0.2208
vn -0.1909 -0.8829 0.4289
vn -0.9438 -0.2444 0.2224
vn -0.7408 0.6321 -0.2273
vn 0.9429 0.2612 -0.2068
vn 0.1999 0.8718 -0.4473
vn 0.7569 -0.6162 0.2177
vn -0.1868 -0.8748 0.4470
vn -0.0143 0.6520 -0.7581
vn -0.7485 -0.0063 -0.6631
vn -0.0273 0.6670 -0.7446
vn 0.7214 0.6860 -0.0951
vn 0.7564 0.0219 0.6538
vn 0.7285 0.6781 -0.0970
vn 0.0245 -0.6678 0.7439
vn 0.7475 0.0281 0.6637
vn -0.7347 -0.6730 0.0855
vn -0.7317 -0.6773 0.0768
vn -0.7425 -0.0186 -0.6696
vn -0.0053 0.6426 -0.7661
vn 0.7359 0.6708 -0.0924
vn 0.0125 -0.6524 0.7578
vn 0.7394 0.0271 0.6727
vn -0.7335 -0.6728 0.0968
vn -0.7413 -0.0309 -0.6705
vn -0.0320 0.6772 -0.7351
vn 0.7295 0.6802 -0.0718
vn 0.0061 -0.6427 0.7661
vn 0.7530 -0.0007 0.6581
vn -0.7173 -0.6906 0.0925
vn -0.7617 -0.0178 -0.6476
vn -0.0885 0.7429 -0.6635
vn 0.7108 0.7023 -0.0391
vn 0.0357 -0.6768 0.7353
vn 0.7857 -0.0450 0.6169
vn -0.6906 -0.7201 0.0680
vn -0.7977 0.0158 -0.6029
vn -0.1548 0.8105 -0.5649
vn 0.6859 0.7277 -0.0013
vn 0.0933 -0.7415 0.6645
vn 0.8261 -0.0867 0.5568
vn -0.6627 -0.7484 0.0275
vn -0.8367 0.0550 -0.5449
vn -0.8726 0.0866 -0.4807
vn 0.6622 0.7482 0.0400
vn 0.8639 -0.1189 0.4895
vn 0.2204 -0.8616 0.4572
vn 0.1593 -0.8086 0.5664
vn -0.6376 -0.7702 -0.0184
vn -0.2163 0.8637 -0.4552
vn -0.8984 0.1114 -0.4248
vn 0.6402 0.7646 0.0739
vn 0.8933 -0.1335 0.4291
vn 0.2657 -0.8943 0.3601
vn -0.6228 -0.7800 -0.0617
vn -0.2631 0.8958 -0.3583
vn -0.9088 0.1275 -0.3974
vn 0.6251 0.7756 0.0883
vn 0.9078 -0.1320 0.3981
vn 0.2853 -0.9066 0.3108
vn -0.6214 -0.7788 -0.0860
vn -0.2848 0.9070 -0.3103
vn -0.9037 0.1338 -0.4067
vn 0.6207 0.7801 0.0789
vn 0.9062 -0.1219 0.4048
vn 0.2788 -0.9042 0.3235
vn -0.6302 -0.7718 -0.0849
vn -0.2803 0.9035 -0.3243
vn -0.8974 0.1345 -0.4203
vn 0.6213 0.7806 0.0682
vn 0.9015 -0.1154 0.4171
vn 0.2693 -0.8992 0.3448
vn -0.6366 -0.7673 -0.0782
vn 0.1012 -0.9327 0.3461
vn 0.6944 -0.6562 0.2953
vn -0.2668 -0.9394 0.2154
vn -0.2668 -0.9394 -0.2154
vn 0.1012 -0.9327 -0.3461
vn 0.8975 -0.3276 0.2953
vn 0.0225 -0.3005 0.9535
vn -0.8795 -0.3266 0.3461
vn -0.5402 -0.3106 -0.7821
vn 0.5003 -0.3092 -0.8088
vn 0.7724 -0.1209 0.6235
vn -0.2788 -0.1143 0.9535
vn -0.9921 -0.1256 -0.0000
vn -0.2788 -0.1143 -0.9535
vn 0.7724 -0.1209 -0.6235
vn 0.3912 0.6330 0.6680
vn -0.4536 0.6368 0.6235
vn -0.6944 0.6562 -0.2953
vn 0.0362 0.6221 -0.7821
vn 0.7208 0.6588 -0.2154
vn 0.2668 0.9394 -0.2154
vn 0.4839 0.7831 -0.3907
vn 0.3912 0.6330 -0.6680
vn -0.1012 0.9327 -0.3461
vn -0.1807 0.7653 -0.6178
vn -0.4536 0.6368 -0.6235
vn -0.3313 0.9435 -0.0000
vn -0.6071 0.7947 -0.0000
vn -0.6944 0.6562 0.2953
vn -0.1012 0.9327 0.3461
vn -0.1807 0.7653 0.6178
vn 0.0362 0.6221 0.7821
vn 0.2668 0.9394 0.2154
vn 0.4839 0.7831 0.3907
vn 0.7208 0.6588 0.2154
vn 0.8795 0.3266 -0.3461
vn 0.7653 0.1807 -0.6178
vn 0.5402 0.3106 -0.7821
vn -0.0225 0.3005 -0.9535
vn -0.2765 0.1709 -0.9457
vn -0.5003 0.3092 -0.8088
vn -0.8975 0.3276 -0.2953
vn -0.9822 0.1876 -0.0000
vn -0.8975 0.3276 0.2953
vn -0.5003 0.3092 0.8088
vn -0.2765 0.1709 0.9457
vn -0.0225 0.3005 0.9535
vn 0.5402 0.3106 0.7821
vn 0.7653 0.1807 0.6178
vn 0.8795 0.3266 0.3461
vn 0.2788 0.1143 -0.9535
vn 0.2765 -0.1709 -0.9457
vn 0.0225 -0.3005 -0.9535
vn -0.7724 0.1209 -0.6235
vn -0.7653 -0.1807 -0.6178
vn -0.8795 -0.3266 -0.3461
vn -0.7724 0.1209 0.6235
vn -0.7653 -0.1807 0.6178
vn -0.5402 -0.3106 0.7821
vn 0.2788 0.1143 0.9535
vn 0.2765 -0.1709 0.9457
vn 0.5003 -0.3092 0.8088
vn 0.9921 0.1256 -0.0000
vn 0.9822 -0.1876 -0.0000
vn 0.8975 -0.3276 -0.2953
vn 0.4536 -0.6368 -0.6235
vn 0.1807 -0.7653 -0.6178
vn -0.0362 -0.6221 -0.7821
vn -0.3912 -0.6330 -0.6680
vn -0.4839 -0.7831 -0.3907
vn -0.7208 -0.6588 -0.2154
vn -0.7208 -0.6588 0.2154
vn -0.4839 -0.7831 0.3907
vn -0.3912 -0.6330 0.6680
vn 0.6944 -0.6562 -0.2953
vn 0.6071 -0.7947 -0.0000
vn 0.3313 -0.9435 -0.0000
vn -0.0362 -0.6221 0.7821
vn 0.1807 -0.7653 0.6178
vn 0.4536 -0.6368 0.6235
vn -0.3323 -0.6893 0.6438
vn 0.5489 -0.7614 0.3448
vn -0.4585 -0.8882 0.0280
vn 0.2145 -0.9439 -0.2510
vn -0.9052 -0.0000 -0.4251
vn 0.1513 -0.0000 -0.9885
vn -0.4585 0.8882 0.0280
vn 0.2145 0.9439 -0.2510
vn -0.3323 0.6893 0.6438
vn 0.5489 0.7614 0.3448
vn 0.1178 -0.8501 -0.5133
vn -0.3279 -0.1459 -0.9334
vn -0.4454 -0.8788 -0.1715
vn -0.8242 -0.3261 -0.4630
vn -0.1397 -0.5488 0.8242
vn -0.7739 0.4082 0.4843
vn 0.6700 0.1774 0.7208
vn 0.3612 0.7963 0.4853
vn 0.9833 -0.0305 0.1792
vn 0.6283 0.7595 -0.1684
vn 0.9833 0.0305 0.1792
vn 0.6283 -0.7595 -0.1684
vn 0.6700 -0.1774 0.7208
vn 0.3612 -0.7963 0.4853
vn -0.1397 0.5488 0.8242
vn -0.7739 -0.4082 0.4843
vn -0.4454 0.8788 -0.1715
vn -0.8242 0.3261 -0.4630
vn 0.1178 0.8501 -0.5133
vn -0.3279 0.1459 -0.9334
vn 0.8535 0.1698 0.4927
vn -0.8535 -0.1698 0.4927
vn -0.8535 -0.1698 -0.4927
vn 0.8535 0.1698 -0.4927
vn 0.7235 0.4834 0.4927
vn -0.7235 -0.4834 0.4927
vn -0.7235 -0.4834 -0.4927
vn 0.7235 0.4834 -0.4927
vn 0.4834 0.7235 0.4927
vn -0.4834 -0.7235 0.4927
vn -0.4834 -0.7235 -0.4927
vn 0.4834 0.7235 -0.4927
vn 0.1698 0.8535 0.4927
vn -0.1698 -0.8535 0.4927
vn -0.1698 -0.8535 -0.4927
vn 0.1698 0.8535 -0.4927
vn -0.1698 0.8535 0.4927
vn 0.1698 -0.8535 0.4927
vn 0.1698 -0.8535 -0.4927
vn -0.1698 0.8535 -0.4927
vn -0.4834 0.7235 0.4927
vn 0.4834 -0.7235 0.4927
vn 0.4834 -0.7235 -0.4927
vn -0.4834 0.7235 -0.4927
vn -0.7235 0.4834 0.4927
vn 0.7235 -0.4834 0.4927
vn 0.7235 -0.4834 -0.4927
vn -0.7235 0.4834 -0.4927
vn -0.8535 0.1698 0.4927
vn 0.8535 -0.1698 0.4927
vn 0.8535 -0.1698 -0.4927
vn -0.8535 0.1698 -0.4927
vn 0.0246 -0.9997 -0.0000
vn 0.3688 -0.6997 0.6119
vn -0.0767 -0.3391 0.9376
vn 0.2522 -0.1559 0.9550
vn -0.0767 -0.3391 -0.9376
vn 0.3688 -0.6997 -0.6119
vn 0.7908 -0.0169 0.6119
vn -0.0509 -0.0824 0.9953
vn 0.0510 -0.1061 0.9930
vn -0.9052 -0.4251 -0.0000
vn -0.2690 -0.2203 0.9376
vn -0.7908 0.0169 0.6119
vn -0.0509 -0.0824 -0.9953
vn -0.2690 -0.2203 -0.9376
vn -0.1178 -0.0019 -0.9930
vn 0.2522 -0.1559 -0.9550
vn 0.0510 -0.1061 -0.9930
vn 0.1178 0.0019 -0.9930
vn 0.1178 0.0019 0.9930
vn -0.1178 -0.0019 0.9930
vn -0.7908 0.0169 -0.6119
vn 0.7908 -0.0169 -0.6119
vn 0.0509 0.0824 0.9953
vn 0.2690 0.2203 0.9376
vn 0.0767 0.3391 0.9376
vn -0.2522 0.1559 0.9550
vn -0.0510 0.1061 0.9930
vn -0.3688 0.6997 0.6119
vn -0.2522 0.1559 -0.9550
vn -0.3688 0.6997 -0.6119
vn 0.0509 0.0824 -0.9953
vn -0.0510 0.1061 -0.9930
vn 0.0767 0.3391 -0.9376
vn 0.9052 0.4251 -0.0000
vn 0.2690 0.2203 -0.9376
vn -0.0246 0.9997 -0.0000
vn -0.9084 -0.1494 -0.3905
vn -0.5063 -0.8173 -0.2751
vn 0.8952 -0.0380 -0.4440
vn 0.9402 0.2540 -0.2271
vn -0.2717 0.8980 -0.3460
vt 0.181819 0.000000
vt 0.227273 0.078731
vt 0.136365 0.078731
vt 0.272728 0.157461
vt 0.318182 0.078731
vt 0.363637 0.157461
vt 0.909091 0.000000
vt 0.954545 0.078731
vt 0.863636 0.078731
vt 0.727273 0.000000
vt 0.772727 0.078731
vt 0.681818 0.078731
vt 0.545455 0.000000
vt 0.590909 0.078731
vt 0.500000 0.078731
vt 0.318182 0.236191
vt 0.090910 0.157461
vt 0.181819 0.157461
vt 0.136365 0.236191
vt 0.818182 0.157461
vt 0.909091 0.157461
vt 0.863636 0.236191
vt 0.636364 0.157461
vt 0.727273 0.157461
vt 0.681818 0.236191
vt 0.454546 0.157461
vt 0.545455 0.157461
vt 0.500000 0.236191
vt 0.227273 0.236191
vt 0.045455 0.236191
vt 0.772727 0.236191
vt 0.590909 0.236191
vt 0.409092 0.236191
vt 0.181819 0.314921
vt 0.272728 0.314921
vt 0.227273 0.393651
vt 0.000000 0.314921
vt 0.090910 0.314921
vt 0.045455 0.393651
vt 0.727273 0.314921
vt 0.818182 0.314921
vt 0.772727 0.393651
vt 0.545455 0.314921
vt 0.636364 0.314921
vt 0.590909 0.393651
vt 0.363637 0.314921
vt 0.454546 0.314921
vt 0.409092 0.393651
vt 0.500000 0.393651
vt 0.454546 0.472382
vt 0.681818 0.393651
vt 0.636364 0.472382
vt 0.863636 0.393651
vt 0.818182 0.472382
vt 0.909091 0.314921
vt 0.136365 0.393651
vt 0.090910 0.472382
vt 0.318182 0.393651
vt 0.272728 0.472382
vt 0.954545 0.236191
vt 1.000000 0.157461
vt 0.409092 0.078731
vt 0.363637 0.000000
vt 0.000000 1.000000
vt 0.100000 0.833333
vt 0.000000 0.833333
vt 0.000000 0.166667
vt 0.100000 0.000000
vt 0.000000 0.000000
vt 0.000000 0.333333
vt 0.100000 0.166667
vt 0.100000 0.500000
vt 0.000000 0.500000
vt 0.100000 0.666667
vt 0.000000 0.666667
vt 0.100000 1.000000
vt 0.200000 0.833333
vt 0.200000 0.000000
vt 0.100000 0.333333
vt 0.200000 0.166667
vt 0.200000 0.500000
vt 0.200000 0.666667
vt 0.200000 1.000000
vt 0.300000 0.833333
vt 0.300000 0.000000
vt 0.200000 0.333333
vt 0.300000 0.166667
vt 0.300000 0.500000
vt 0.300000 0.666667
vt 0.300000 1.000000
vt 0.400000 0.833333
vt 0.400000 0.000000
vt 0.300000 0.333333
vt 0.400000 0.166667
vt 0.400000 0.500000
vt 0.400000 0.666667
vt 0.400000 1.000000
vt 0.500000 0.833333
vt 0.500000 0.000000
vt 0.400000 0.333333
vt 0.500000 0.166667
vt 0.500000 0.500000
vt 0.500000 0.666667
vt 0.600000 1.000000
vt 0.500000 1.000000
vt 0.600000 0.166667
vt 0.600000 0.333333
vt 0.500000 0.333333
vt 0.600000 0.500000
vt 0.600000 0.666667
vt 0.700000 1.000000
vt 0.600000 0.833333
vt 0.700000 0.166667
vt 0.600000 0.000000
vt 0.700000 0.333333
vt 0.700000 0.500000
vt 0.700000 0.666667
vt 0.800000 1.000000
vt 0.700000 0.833333
vt 0.800000 0.166667
vt 0.700000 0.000000
vt 0.800000 0.333333
vt 0.800000 0.500000
vt 0.800000 0.666667
vt 0.900000 1.000000
vt 0.800000 0.833333
vt 0.900000 0.166667
vt 0.800000 0.000000
vt 0.900000 0.333333
vt 0.900000 0.500000
vt 0.900000 0.666667
vt 1.000000 1.000000
vt 0.900000 0.833333
vt 1.000000 0.166667
vt 0.900000 0.000000
vt 1.000000 0.333333
vt 1.000000 0.500000
vt 1.000000 0.666667
vt 1.000000 0.833333
vt 1.000000 0.000000
vt 0.562500 0.500000
vt 0.562500 0.666667
vt 0.562500 1.000000
vt 0.562500 -0.000000
vt 0.500000 -0.000000
vt 0.562500 0.166667
vt 0.562500 0.333333
vt 0.625000 0.500000
vt 0.625000 0.833333
vt 0.562500 0.833333
vt 0.625000 0.166667
vt 0.625000 0.333333
vt 0.687500 0.500000
vt 0.625000 0.666667
vt 0.687500 0.666667
vt 0.687500 0.833333
vt 0.625000 1.000000
vt 0.625000 -0.000000
vt 0.687500 0.166667
vt 0.750000 0.500000
vt 0.750000 0.833333
vt 0.687500 1.000000
vt 0.750000 -0.000000
vt 0.687500 -0.000000
vt 0.750000 0.166667
vt 0.687500 0.333333
vt 0.750000 0.333333
vt 0.812500 0.666667
vt 0.750000 0.666667
vt 0.812500 1.000000
vt 0.750000 1.000000
vt 0.812500 0.166667
vt 0.812500 0.333333
vt 0.875000 0.500000
vt 0.812500 0.500000
vt 0.875000 0.666667
vt 0.812500 0.833333
vt 0.875000 0.833333
vt 0.875000 -0.000000
vt 0.812500 -0.000000
vt 0.875000 0.166667
vt 0.937500 0.500000
vt 0.937500 0.833333
vt 0.875000 1.000000
vt 0.937500 -0.000000
vt 0.937500 0.166667
vt 0.875000 0.333333
vt 0.937500 0.333333
vt 0.937500 0.666667
vt 0.937500 1.000000
vt 0.062500 0.500000
vt 0.062500 0.666667
vt 0.062500 1.000000
vt 0.062500 -0.000000
vt 0.000000 -0.000000
vt 0.062500 0.333333
vt 0.125000 0.666667
vt 0.125000 0.833333
vt 0.062500 0.833333
vt 0.125000 -0.000000
vt 0.062500 0.166667
vt 0.125000 0.166667
vt 0.125000 0.333333
vt 0.125000 0.500000
vt 0.187500 0.666667
vt 0.187500 1.000000
vt 0.125000 1.000000
vt 0.187500 0.166667
vt 0.187500 0.333333
vt 0.250000 0.500000
vt 0.187500 0.500000
vt 0.250000 0.833333
vt 0.187500 0.833333
vt 0.250000 1.000000
vt 0.187500 -0.000000
vt 0.250000 0.166667
vt 0.250000 0.333333
vt 0.312500 0.500000
vt 0.250000 0.666667
vt 0.312500 0.666667
vt 0.312500 1.000000
vt 0.312500 -0.000000
vt 0.250000 -0.000000
vt 0.312500 0.333333
vt 0.375000 0.500000
vt 0.375000 0.666667
vt 0.312500 0.833333
vt 0.375000 0.833333
vt 0.375000 -0.000000
vt 0.312500 0.166667
vt 0.375000 0.166667
vt 0.375000 0.333333
vt 0.437500 0.500000
vt 0.437500 0.666667
vt 0.437500 1.000000
vt 0.375000 1.000000
vt 0.437500 0.166667
vt 0.437500 0.333333
vt 0.437500 0.833333
vt 0.437500 -0.000000
vt 1.000000 -0.000000
s 1
usemtl UnknownOrganicMatter
f 1/1/1 14/2/2 13/3/3
f 2/4/4 14/5/2 16/6/5
f 1/7/1 13/8/3 18/9/6
f 1/10/1 18/11/6 20/12/7
f 1/13/1 20/14/7 17/15/8
f 2/4/4 16/6/5 23/16/9
f 3/17/10 15/18/11 25/19/12
f 4/20/13 19/21/14 27/22/15
f 5/23/16 21/24/17 29/25/18
f 6/26/19 22/27/20 31/28/21
f 2/4/4 23/16/9 26/29/22
f 3/17/10 25/19/12 28/30/23
f 4/20/13 27/22/15 30/31/24
f 5/23/16 29/25/18 32/32/25
f 6/26/19 31/28/21 24/33/26
f 7/34/27 33/35/28 38/36/29
f 8/37/30 34/38/31 40/39/32
f 9/40/33 35/41/34 41/42/35
f 10/43/36 36/44/37 42/45/38
f 11/46/39 37/47/40 39/48/41
f 39/48/41 42/49/38 12/50/42
f 39/48/41 37/47/40 42/49/38
f 37/47/40 10/43/36 42/49/38
f 42/45/38 41/51/35 12/52/42
f 42/45/38 36/44/37 41/51/35
f 36/44/37 9/40/33 41/51/35
f 41/42/35 40/53/32 12/54/42
f 41/42/35 35/41/34 40/53/32
f 35/41/34 8/55/30 40/53/32
f 40/39/32 38/56/29 12/57/42
f 40/39/32 34/38/31 38/56/29
f 34/38/31 7/34/27 38/56/29
f 38/36/29 39/58/41 12/59/42
f 38/36/29 33/35/28 39/58/41
f 33/35/28 11/46/39 39/58/41
f 24/33/26 37/47/40 11/46/39
f 24/33/26 31/28/21 37/47/40
f 31/28/21 10/43/36 37/47/40
f 32/32/25 36/44/37 10/43/36
f 32/32/25 29/25/18 36/44/37
f 29/25/18 9/40/33 36/44/37
f 30/31/24 35/41/34 9/40/33
f 30/31/24 27/22/15 35/41/34
f 27/22/15 8/55/30 35/41/34
f 28/30/23 34/38/31 8/37/30
f 28/30/23 25/19/12 34/38/31
f 25/19/12 7/34/27 34/38/31
f 26/29/22 33/35/28 7/34/27
f 26/29/22 23/16/9 33/35/28
f 23/16/9 11/46/39 33/35/28
f 31/28/21 32/32/25 10/43/36
f 31/28/21 22/27/20 32/32/25
f 22/27/20 5/23/16 32/32/25
f 29/25/18 30/31/24 9/40/33
f 29/25/18 21/24/17 30/31/24
f 21/24/17 4/20/13 30/31/24
f 27/22/15 28/60/23 8/55/30
f 27/22/15 19/21/14 28/60/23
f 19/21/14 3/61/10 28/60/23
f 25/19/12 26/29/22 7/34/27
f 25/19/12 15/18/11 26/29/22
f 15/18/11 2/4/4 26/29/22
f 23/16/9 24/33/26 11/46/39
f 23/16/9 16/6/5 24/33/26
f 16/6/5 6/26/19 24/33/26
f 17/15/8 22/27/20 6/26/19
f 17/15/8 20/14/7 22/27/20
f 20/14/7 5/23/16 22/27/20
f 20/12/7 21/24/17 5/23/16
f 20/12/7 18/11/6 21/24/17
f 18/11/6 4/20/13 21/24/17
f 18/9/6 19/21/14 4/20/13
f 18/9/6 13/8/3 19/21/14
f 13/8/3 3/61/10 19/21/14
f 16/6/5 17/62/8 6/26/19
f 16/6/5 14/5/2 17/62/8
f 14/5/2 1/63/1 17/62/8
f 13/3/3 15/18/11 3/17/10
f 13/3/3 14/2/2 15/18/11
f 14/2/2 2/4/4 15/18/11
f 85/64/79 96/65/80 90/66/81
f 86/67/82 91/68/83 85/69/79
f 87/70/84 92/71/85 86/67/82
f 94/72/86 87/70/84 88/73/87
f 95/74/88 88/73/87 89/75/89
f 96/65/80 89/75/89 90/66/81
f 91/76/83 102/77/90 96/65/80
f 92/71/85 97/78/91 91/68/83
f 93/79/92 98/80/93 92/71/85
f 100/81/94 93/79/92 94/72/86
f 101/82/95 94/72/86 95/74/88
f 102/77/90 95/74/88 96/65/80
f 97/83/91 108/84/96 102/77/90
f 98/80/93 103/85/97 97/78/91
f 99/86/98 104/87/99 98/80/93
f 106/88/100 99/86/98 100/81/94
f 107/89/101 100/81/94 101/82/95
f 108/84/96 101/82/95 102/77/90
f 103/90/97 114/91/102 108/84/96
f 104/87/99 109/92/103 103/85/97
f 105/93/104 110/94/105 104/87/99
f 112/95/106 105/93/104 106/88/100
f 113/96/107 106/88/100 107/89/101
f 114/91/102 107/89/101 108/84/96
f 109/97/103 120/98/108 114/91/102
f 110/94/105 115/99/109 109/92/103
f 111/100/110 116/101/111 110/94/105
f 118/102/112 111/100/110 112/95/106
f 119/103/113 112/95/106 113/96/107
f 120/98/108 113/96/107 114/91/102
f 121/104/114 120/98/108 115/105/109
f 122/106/115 115/99/109 116/101/111
f 123/107/116 116/101/111 117/108/117
f 118/102/112 123/107/116 117/108/117
f 119/103/113 124/109/118 118/102/112
f 120/98/108 125/110/119 119/103/113
f 127/111/120 126/112/121 121/104/114
f 128/113/122 121/114/114 122/106/115
f 129/115/123 122/106/115 123/107/116
f 124/109/118 129/115/123 123/107/116
f 125/110/119 130/116/124 124/109/118
f 126/112/121 131/117/125 125/110/119
f 133/118/126 132/119/127 127/111/120
f 134/120/128 127/121/120 128/113/122
f 135/122/129 128/113/122 129/115/123
f 130/116/124 135/122/129 129/115/123
f 131/117/125 136/123/130 130/116/124
f 132/119/127 137/124/131 131/117/125
f 139/125/132 138/126/133 133/118/126
f 140/127/134 133/128/126 134/120/128
f 141/129/135 134/120/128 135/122/129
f 136/123/130 141/129/135 135/122/129
f 137/124/131 142/130/136 136/123/130
f 138/126/133 143/131/137 137/124/131
f 145/132/138 144/133/139 139/125/132
f 146/134/140 139/135/132 140/127/134
f 147/136/141 140/127/134 141/129/135
f 142/130/136 147/136/141 141/129/135
f 143/131/137 148/137/142 142/130/136
f 144/133/139 149/138/143 143/131/137
f 151/64/144 162/65/145 156/66/146
f 152/67/147 157/68/148 151/69/144
f 159/79/149 152/67/147 153/70/150
f 160/72/151 153/70/150 154/73/152
f 161/74/153 154/73/152 155/75/154
f 156/66/146 161/74/153 155/75/154
f 157/76/148 168/77/155 162/65/145
f 158/71/156 163/78/157 157/68/148
f 165/86/158 158/71/156 159/79/149
f 166/81/159 159/79/149 160/72/151
f 167/82/160 160/72/151 161/74/153
f 162/65/145 167/82/160 161/74/153
f 163/83/157 174/84/161 168/77/155
f 164/80/162 169/85/163 163/78/157
f 171/93/164 164/80/162 165/86/158
f 172/88/165 165/86/158 166/81/159
f 173/89/166 166/81/159 167/82/160
f 168/77/155 173/89/166 167/82/160
f 169/90/163 180/91/167 174/84/161
f 170/87/168 175/92/169 169/85/163
f 177/100/170 170/87/168 171/93/164
f 178/95/171 171/93/164 172/88/165
f 179/96/172 172/88/165 173/89/166
f 174/84/161 179/96/172 173/89/166
f 175/97/169 186/98/173 180/91/167
f 176/94/174 181/99/175 175/92/169
f 183/108/176 176/94/174 177/100/170
f 184/102/177 177/100/170 178/95/171
f 185/103/178 178/95/171 179/96/172
f 180/91/167 185/103/178 179/96/172
f 187/104/179 186/98/173 181/105/175
f 188/106/180 181/99/175 182/101/181
f 183/108/176 188/106/180 182/101/181
f 184/102/177 189/107/182 183/108/176
f 185/103/178 190/109/183 184/102/177
f 192/112/184 185/103/178 186/98/173
f 193/111/185 192/112/184 187/104/179
f 194/113/186 187/114/179 188/106/180
f 189/107/182 194/113/186 188/106/180
f 190/109/183 195/115/187 189/107/182
f 191/110/188 196/116/189 190/109/183
f 198/119/190 191/110/188 192/112/184
f 199/118/191 198/119/190 193/111/185
f 200/120/192 193/121/185 194/113/186
f 195/115/187 200/120/192 194/113/186
f 196/116/189 201/122/193 195/115/187
f 197/117/194 202/123/195 196/116/189
f 204/126/196 197/117/194 198/119/190
f 205/125/197 204/126/196 199/118/191
f 206/127/198 199/128/191 200/120/192
f 201/122/193 206/127/198 200/120/192
f 202/123/195 207/129/199 201/122/193
f 203/124/200 208/130/201 202/123/195
f 210/133/202 203/124/200 204/126/196
f 211/132/203 210/133/202 205/125/197
f 212/134/204 205/135/197 206/127/198
f 207/129/199 212/134/204 206/127/198
f 208/130/201 213/136/205 207/129/199
f 209/131/206 214/137/207 208/130/201
f 216/139/208 209/131/206 210/133/202
f 223/76/209 222/66/210 217/64/211
f 224/71/212 217/69/211 218/67/213
f 225/79/214 218/67/213 219/70/215
f 220/73/216 225/79/214 219/70/215
f 221/75/217 226/72/218 220/73/216
f 222/66/210 227/74/219 221/75/217
f 229/83/220 228/65/221 223/76/209
f 230/80/222 223/68/209 224/71/212
f 231/86/223 224/71/212 225/79/214
f 226/72/218 231/86/223 225/79/214
f 227/74/219 232/81/224 226/72/218
f 228/65/221 233/82/225 227/74/219
f 235/90/226 234/77/227 229/83/220
f 236/87/228 229/78/220 230/80/222
f 237/93/229 230/80/222 231/86/223
f 232/81/224 237/93/229 231/86/223
f 233/82/225 238/88/230 232/81/224
f 234/77/227 239/89/231 233/82/225
f 241/97/232 240/84/233 235/90/226
f 242/94/234 235/85/226 236/87/228
f 243/100/235 236/87/228 237/93/229
f 238/88/230 243/100/235 237/93/229
f 239/89/231 244/95/236 238/88/230
f 240/84/233 245/96/237 239/89/231
f 247/105/238 246/91/239 241/97/232
f 248/101/240 241/92/232 242/94/234
f 249/108/241 242/94/234 243/100/235
f 244/95/236 249/108/241 243/100/235
f 245/96/237 250/102/242 244/95/236
f 246/91/239 251/103/243 245/96/237
f 247/105/238 258/112/244 252/98/245
f 248/101/240 253/114/246 247/99/238
f 249/108/241 254/106/247 248/101/240
f 256/109/248 249/108/241 250/102/242
f 257/110/249 250/102/242 251/103/243
f 258/112/244 251/103/243 252/98/245
f 253/104/246 264/119/250 258/112/244
f 254/106/247 259/121/251 253/114/246
f 255/107/252 260/113/253 254/106/247
f 262/116/254 255/107/252 256/109/248
f 263/117/255 256/109/248 257/110/249
f 264/119/250 257/110/249 258/112/244
f 259/111/251 270/126/256 264/119/250
f 260/113/253 265/128/257 259/121/251
f 261/115/258 266/120/259 260/113/253
f 268/123/260 261/115/258 262/116/254
f 269/124/261 262/116/254 263/117/255
f 270/126/256 263/117/255 264/119/250
f 265/118/257 276/133/262 270/126/256
f 266/120/259 271/135/263 265/128/257
f 267/122/264 272/127/265 266/120/259
f 274/130/266 267/122/264 268/123/260
f 275/131/267 268/123/260 269/124/261
f 276/133/262 269/124/261 270/126/256
f 271/125/263 282/139/268 276/133/262
f 272/127/265 277/140/269 271/135/263
f 273/129/270 278/134/271 272/127/265
f 280/137/272 273/129/270 274/130/266
f 281/138/273 274/130/266 275/131/267
f 282/139/268 275/131/267 276/133/262
f 289/76/274 288/66/275 283/64/276
f 290/71/277 283/69/276 284/67/278
f 291/79/279 284/67/278 285/70/280
f 286/73/281 291/79/279 285/70/280
f 287/75/282 292/72/283 286/73/281
f 288/66/275 293/74/284 287/75/282
f 295/83/285 294/65/286 289/76/274
f 296/80/287 289/68/274 290/71/277
f 297/86/288 290/71/277 291/79/279
f 292/72/283 297/86/288 291/79/279
f 293/74/284 298/81/289 292/72/283
f 294/65/286 299/82/290 293/74/284
f 301/90/291 300/77/292 295/83/285
f 302/87/293 295/78/285 296/80/287
f 303/93/294 296/80/287 297/86/288
f 298/81/289 303/93/294 297/86/288
f 299/82/290 304/88/295 298/81/289
f 300/77/292 305/89/296 299/82/290
f 307/97/297 306/84/298 301/90/291
f 308/94/299 301/85/291 302/87/293
f 309/100/300 302/87/293 303/93/294
f 304/88/295 309/100/300 303/93/294
f 305/89/296 310/95/301 304/88/295
f 306/84/298 311/96/302 305/89/296
f 313/105/303 312/91/304 307/97/297
f 314/101/305 307/92/297 308/94/299
f 315/108/306 308/94/299 309/100/300
f 310/95/301 315/108/306 309/100/300
f 311/96/302 316/102/307 310/95/301
f 312/91/304 317/103/308 311/96/302
f 313/105/303 324/112/309 318/98/310
f 314/101/305 319/114/311 313/99/303
f 315/108/306 320/106/312 314/101/305
f 322/109/313 315/108/306 316/102/307
f 323/110/314 316/102/307 317/103/308
f 324/112/309 317/103/308 318/98/310
f 319/104/311 330/119/315 324/112/309
f 320/106/312 325/121/316 319/114/311
f 321/107/317 326/113/318 320/106/312
f 328/116/319 321/107/317 322/109/313
f 329/117/320 322/109/313 323/110/314
f 330/119/315 323/110/314 324/112/309
f 325/111/316 336/126/321 330/119/315
f 326/113/318 331/128/322 325/121/316
f 327/115/323 332/120/324 326/113/318
f 334/123/325 327/115/323 328/116/319
f 335/124/326 328/116/319 329/117/320
f 336/126/321 329/117/320 330/119/315
f 331/118/322 342/133/327 336/126/321
f 332/120/324 337/135/328 331/128/322
f 333/122/329 338/127/330 332/120/324
f 340/130/331 333/122/329 334/123/325
f 341/131/332 334/123/325 335/124/326
f 342/133/327 335/124/326 336/126/321
f 337/125/328 348/139/333 342/133/327
f 338/127/330 343/140/334 337/135/328
f 339/129/335 344/134/336 338/127/330
f 346/137/337 339/129/335 340/130/331
f 347/138/338 340/130/331 341/131/332
f 348/139/333 341/131/332 342/133/327
f 355/76/339 354/66/340 349/64/341
f 350/67/342 355/68/339 349/69/341
f 351/70/343 356/71/344 350/67/342
f 352/73/345 357/79/346 351/70/343
f 359/74/347 352/73/345 353/75/348
f 360/65/349 353/75/348 354/66/340
f 361/83/350 360/65/349 355/76/339
f 356/71/344 361/78/350 355/68/339
f 357/79/346 362/80/351 356/71/344
f 358/72/352 363/86/353 357/79/346
f 365/82/354 358/72/352 359/74/347
f 366/77/355 359/74/347 360/65/349
f 367/90/356 366/77/355 361/83/350
f 362/80/351 367/85/356 361/78/350
f 363/86/353 368/87/357 362/80/351
f 364/81/358 369/93/359 363/86/353
f 371/89/360 364/81/358 365/82/354
f 372/84/361 365/82/354 366/77/355
f 373/97/362 372/84/361 367/90/356
f 368/87/357 373/92/362 367/85/356
f 369/93/359 374/94/363 368/87/357
f 370/88/364 375/100/365 369/93/359
f 377/96/366 370/88/364 371/89/360
f 378/91/367 371/89/360 372/84/361
f 379/105/368 378/91/367 373/97/362
f 374/94/363 379/99/368 373/92/362
f 375/100/365 380/101/369 374/94/363
f 376/95/370 381/108/371 375/100/365
f 383/103/372 376/95/370 377/96/366
f 384/98/373 377/96/366 378/91/367
f 379/105/368 390/112/374 384/98/373
f 386/106/375 379/99/368 380/101/369
f 387/107/376 380/101/369 381/108/371
f 388/109/377 381/108/371 382/102/378
f 383/103/372 388/109/377 382/102/378
f 384/98/373 389/110/379 383/103/372
f 385/104/380 396/119/381 390/112/374
f 392/113/382 385/114/380 386/106/375
f 393/115/383 386/106/375 387/107/376
f 394/116/384 387/107/376 388/109/377
f 389/110/379 394/116/384 388/109/377
f 390/112/374 395/117/385 389/110/379
f 391/111/386 402/126/387 396/119/381
f 398/120/388 391/121/386 392/113/382
f 399/122/389 392/113/382 393/115/383
f 400/123/390 393/115/383 394/116/384
f 395/117/385 400/123/390 394/116/384
f 396/119/381 401/124/391 395/117/385
f 397/118/392 408/133/393 402/126/387
f 404/127/394 397/128/392 398/120/388
f 405/129/395 398/120/388 399/122/389
f 406/130/396 399/122/389 400/123/390
f 401/124/391 406/130/396 400/123/390
f 402/126/387 407/131/397 401/124/391
f 403/125/398 414/139/399 408/133/393
f 410/134/400 403/135/398 404/127/394
f 411/136/401 404/127/394 405/129/395
f 412/137/402 405/129/395 406/130/396
f 407/131/397 412/137/402 406/130/396
f 408/133/393 413/138/403 407/131/397
s 0
f 484/141/514 479/103/514 478/102/514
f 485/142/12 480/98/12 479/103/12
f 480/98/515 487/143/515 481/105/515
f 487/144/516 482/101/516 481/145/516
f 488/146/25 483/108/25 482/101/25
f 489/147/517 478/102/517 483/108/517
f 490/148/518 485/142/518 484/141/518
f 485/142/12 492/149/12 486/150/12
f 492/149/519 487/143/519 486/150/519
f 487/144/520 494/151/520 488/146/520
f 488/146/25 495/152/25 489/147/25
f 495/152/521 484/141/521 489/147/521
f 496/153/522 491/154/522 490/148/522
f 497/155/12 492/149/12 491/154/12
f 498/156/523 493/157/523 492/149/523
f 493/158/524 500/159/524 494/151/524
f 500/159/25 495/152/25 494/151/25
f 495/152/525 496/153/525 490/148/525
f 502/160/526 497/155/526 496/153/526
f 497/155/12 504/161/12 498/156/12
f 504/161/527 499/162/527 498/156/527
f 505/163/528 500/159/528 499/164/528
f 506/165/25 501/166/25 500/159/25
f 507/167/529 496/153/529 501/166/529
f 502/160/530 509/168/530 503/169/530
f 509/168/12 504/161/12 503/169/12
f 504/161/531 511/170/531 505/171/531
f 505/163/532 512/172/532 506/165/532
f 512/172/25 507/167/25 506/165/25
f 513/173/533 502/160/533 507/167/533
f 514/174/534 509/168/534 508/175/534
f 515/176/12 510/177/12 509/168/12
f 516/178/535 511/170/535 510/177/535
f 517/179/536 512/172/536 511/180/536
f 518/181/25 513/173/25 512/172/25
f 513/173/537 514/174/537 508/175/537
f 520/182/538 515/176/538 514/174/538
f 515/176/12 522/183/12 516/178/12
f 522/183/539 517/184/539 516/178/539
f 523/185/540 518/181/540 517/179/540
f 524/186/25 519/187/25 518/181/25
f 525/188/541 514/174/541 519/187/541
f 520/182/542 527/138/542 521/189/542
f 521/189/12 528/139/12 522/183/12
f 528/139/543 523/190/543 522/183/543
f 523/185/544 530/134/544 524/186/544
f 524/186/25 531/136/25 525/188/25
f 525/188/545 526/137/545 520/182/545
f 532/191/515 527/75/515 526/73/515
f 533/192/12 528/66/12 527/75/12
f 528/66/514 535/193/514 529/64/514
f 535/194/517 530/67/517 529/195/517
f 530/67/25 537/196/25 531/70/25
f 531/70/516 532/191/516 526/73/516
f 532/191/519 539/197/519 533/192/519
f 533/192/12 540/198/12 534/199/12
f 540/198/518 535/193/518 534/199/518
f 541/200/521 536/201/521 535/194/521
f 542/202/25 537/196/25 536/201/25
f 543/203/520 532/191/520 537/196/520
f 538/204/523 545/205/523 539/197/523
f 545/205/12 540/198/12 539/197/12
f 540/198/522 547/206/522 541/207/522
f 541/200/525 548/208/525 542/202/525
f 542/202/25 549/209/25 543/203/25
f 549/209/524 538/204/524 543/203/524
f 550/210/527 545/205/527 544/211/527
f 545/205/12 552/212/12 546/213/12
f 546/213/526 553/214/526 547/206/526
f 547/215/529 554/216/529 548/208/529
f 554/216/25 549/209/25 548/208/25
f 555/217/528 544/211/528 549/209/528
f 556/218/531 551/219/531 550/210/531
f 557/220/12 552/212/12 551/219/12
f 552/212/530 559/221/530 553/214/530
f 559/222/533 554/216/533 553/223/533
f 554/216/25 561/224/25 555/217/25
f 555/217/532 556/218/532 550/210/532
f 562/225/535 557/220/535 556/218/535
f 563/226/12 558/227/12 557/220/12
f 564/228/534 559/221/534 558/227/534
f 565/229/537 560/230/537 559/222/537
f 566/231/25 561/224/25 560/230/25
f 567/232/536 556/218/536 561/224/536
f 568/233/539 563/226/539 562/225/539
f 569/234/12 564/228/12 563/226/12
f 564/228/538 571/235/538 565/236/538
f 565/229/541 572/237/541 566/231/541
f 566/231/25 573/238/25 567/232/25
f 573/238/540 562/225/540 567/232/540
f 568/233/543 479/103/543 569/234/543
f 569/234/12 480/98/12 570/239/12
f 570/239/542 481/105/542 571/235/542
f 481/145/545 572/237/545 571/240/545
f 482/101/25 573/238/25 572/237/25
f 483/108/544 568/233/544 573/238/544
s 1
f 574/1/546 587/2/547 586/3/548
f 575/4/549 587/5/547 589/6/5
f 574/7/546 586/8/548 591/9/6
f 574/10/546 591/11/6 593/12/550
f 574/13/546 593/14/550 590/15/551
f 575/4/549 589/6/5 596/16/552
f 576/17/553 588/18/554 598/19/12
f 577/20/555 592/21/556 600/22/557
f 578/23/558 594/24/559 602/25/560
f 579/26/561 595/27/562 604/28/563
f 575/4/549 596/16/552 599/29/564
f 576/17/553 598/19/12 601/30/565
f 577/20/555 600/22/557 603/31/566
f 578/23/558 602/25/560 605/32/25
f 579/26/561 604/28/563 597/33/567
f 580/34/568 606/35/569 611/36/570
f 581/37/571 607/38/572 613/39/573
f 582/40/574 608/41/34 614/42/575
f 583/43/576 609/44/577 615/45/578
f 584/46/579 610/47/580 612/48/41
f 612/48/41 615/49/578 585/50/581
f 612/48/41 610/47/580 615/49/578
f 610/47/580 583/43/576 615/49/578
f 615/45/578 614/51/575 585/52/581
f 615/45/578 609/44/577 614/51/575
f 609/44/577 582/40/574 614/51/575
f 614/42/575 613/53/573 585/54/581
f 614/42/575 608/41/34 613/53/573
f 608/41/34 581/55/571 613/53/573
f 613/39/573 611/56/570 585/57/581
f 613/39/573 607/38/572 611/56/570
f 607/38/572 580/34/568 611/56/570
f 611/36/570 612/58/41 585/59/581
f 611/36/570 606/35/569 612/58/41
f 606/35/569 584/46/579 612/58/41
f 597/33/567 610/47/580 584/46/579
f 597/33/567 604/28/563 610/47/580
f 604/28/563 583/43/576 610/47/580
f 605/32/25 609/44/577 583/43/576
f 605/32/25 602/25/560 609/44/577
f 602/25/560 582/40/574 609/44/577
f 603/31/566 608/41/34 582/40/574
f 603/31/566 600/22/557 608/41/34
f 600/22/557 581/55/571 608/41/34
f 601/30/565 607/38/572 581/37/571
f 601/30/565 598/19/12 607/38/572
f 598/19/12 580/34/568 607/38/572
f 599/29/564 606/35/569 580/34/568
f 599/29/564 596/16/552 606/35/569
f 596/16/552 584/46/579 606/35/569
f 604/28/563 605/32/25 583/43/576
f 604/28/563 595/27/562 605/32/25
f 595/27/562 578/23/558 605/32/25
f 602/25/560 603/31/566 582/40/574
f 602/25/560 594/24/559 603/31/566
f 594/24/559 577/20/555 603/31/566
f 600/22/557 601/60/565 581/55/571
f 600/22/557 592/21/556 601/60/565
f 592/21/556 576/61/553 601/60/565
f 598/19/12 599/29/564 580/34/568
f 598/19/12 588/18/554 599/29/564
f 588/18/554 575/4/549 599/29/564
f 596/16/552 597/33/567 584/46/579
f 596/16/552 589/6/5 597/33/567
f 589/6/5 579/26/561 597/33/567
f 590/15/551 595/27/562 579/26/561
f 590/15/551 593/14/550 595/27/562
f 593/14/550 578/23/558 595/27/562
f 593/12/550 594/24/559 578/23/558
f 593/12/550 591/11/6 594/24/559
f 591/11/6 577/20/555 594/24/559
f 591/9/6 592/21/556 577/20/555
f 591/9/6 586/8/548 592/21/556
f 586/8/548 576/61/553 592/21/556
f 589/6/5 590/62/551 579/26/561
f 589/6/5 587/5/547 590/62/551
f 587/5/547 574/63/546 590/62/551
f 586/3/548 588/18/554 576/17/553
f 586/3/548 587/2/547 588/18/554
f 587/2/547 575/4/549 588/18/554
f 85/64/79 91/76/83 96/65/80
f 86/67/82 92/71/85 91/68/83
f 87/70/84 93/79/92 92/71/85
f 94/72/86 93/79/92 87/70/84
f 95/74/88 94/72/86 88/73/87
f 96/65/80 95/74/88 89/75/89
f 91/76/83 97/83/91 102/77/90
f 92/71/85 98/80/93 97/78/91
f 93/79/92 99/86/98 98/80/93
f 100/81/94 99/86/98 93/79/92
f 101/82/95 100/81/94 94/72/86
f 102/77/90 101/82/95 95/74/88
f 97/83/91 103/90/97 108/84/96
f 98/80/93 104/87/99 103/85/97
f 99/86/98 105/93/104 104/87/99
f 106/88/100 105/93/104 99/86/98
f 107/89/101 106/88/100 100/81/94
f 108/84/96 107/89/101 101/82/95
f 103/90/97 109/97/103 114/91/102
f 104/87/99 110/94/105 109/92/103
f 105/93/104 111/100/110 110/94/105
f 112/95/106 111/100/110 105/93/104
f 113/96/107 112/95/106 106/88/100
f 114/91/102 113/96/107 107/89/101
f 109/97/103 115/105/109 120/98/108
f 110/94/105 116/101/111 115/99/109
f 111/100/110 117/108/117 116/101/111
f 118/102/112 117/108/117 111/100/110
f 119/103/113 118/102/112 112/95/106
f 120/98/108 119/103/113 113/96/107
f 121/104/114 126/112/121 120/98/108
f 122/106/115 121/114/114 115/99/109
f 123/107/116 122/106/115 116/101/111
f 118/102/112 124/109/118 123/107/116
f 119/103/113 125/110/119 124/109/118
f 120/98/108 126/112/121 125/110/119
f 127/111/120 132/119/127 126/112/121
f 128/113/122 127/121/120 121/114/114
f 129/115/123 128/113/122 122/106/115
f 124/109/118 130/116/124 129/115/123
f 125/110/119 131/117/125 130/116/124
f 126/112/121 132/119/127 131/117/125
f 133/118/126 138/126/133 132/119/127
f 134/120/128 133/128/126 127/121/120
f 135/122/129 134/120/128 128/113/122
f 130/116/124 136/123/130 135/122/129
f 131/117/125 137/124/131 136/123/130
f 132/119/127 138/126/133 137/124/131
f 139/125/132 144/133/139 138/126/133
f 140/127/134 139/135/132 133/128/126
f 141/129/135 140/127/134 134/120/128
f 136/123/130 142/130/136 141/129/135
f 137/124/131 143/131/137 142/130/136
f 138/126/133 144/133/139 143/131/137
f 145/132/138 150/139/582 144/133/139
f 146/134/140 145/140/138 139/135/132
f 147/136/141 146/134/140 140/127/134
f 142/130/136 148/137/142 147/136/141
f 143/131/137 149/138/143 148/137/142
f 144/133/139 150/139/582 149/138/143
f 151/64/144 157/76/148 162/65/145
f 152/67/147 158/71/156 157/68/148
f 159/79/149 158/71/156 152/67/147
f 160/72/151 159/79/149 153/70/150
f 161/74/153 160/72/151 154/73/152
f 156/66/146 162/65/145 161/74/153
f 157/76/148 163/83/157 168/77/155
f 158/71/156 164/80/162 163/78/157
f 165/86/158 164/80/162 158/71/156
f 166/81/159 165/86/158 159/79/149
f 167/82/160 166/81/159 160/72/151
f 162/65/145 168/77/155 167/82/160
f 163/83/157 169/90/163 174/84/161
f 164/80/162 170/87/168 169/85/163
f 171/93/164 170/87/168 164/80/162
f 172/88/165 171/93/164 165/86/158
f 173/89/166 172/88/165 166/81/159
f 168/77/155 174/84/161 173/89/166
f 169/90/163 175/97/169 180/91/167
f 170/87/168 176/94/174 175/92/169
f 177/100/170 176/94/174 170/87/168
f 178/95/171 177/100/170 171/93/164
f 179/96/172 178/95/171 172/88/165
f 174/84/161 180/91/167 179/96/172
f 175/97/169 181/105/175 186/98/173
f 176/94/174 182/101/181 181/99/175
f 183/108/176 182/101/181 176/94/174
f 184/102/177 183/108/176 177/100/170
f 185/103/178 184/102/177 178/95/171
f 180/91/167 186/98/173 185/103/178
f 187/104/179 192/112/184 186/98/173
f 188/106/180 187/114/179 181/99/175
f 183/108/176 189/107/182 188/106/180
f 184/102/177 190/109/183 189/107/182
f 185/103/178 191/110/188 190/109/183
f 192/112/184 191/110/188 185/103/178
f 193/111/185 198/119/190 192/112/184
f 194/113/186 193/121/185 187/114/179
f 189/107/182 195/115/187 194/113/186
f 190/109/183 196/116/189 195/115/187
f 191/110/188 197/117/194 196/116/189
f 198/119/190 197/117/194 191/110/188
f 199/118/191 204/126/196 198/119/190
f 200/120/192 199/128/191 193/121/185
f 195/115/187 201/122/193 200/120/192
f 196/116/189 202/123/195 201/122/193
f 197/117/194 203/124/200 202/123/195
f 204/126/196 203/124/200 197/117/194
f 205/125/197 210/133/202 204/126/196
f 206/127/198 205/135/197 199/128/191
f 201/122/193 207/129/199 206/127/198
f 202/123/195 208/130/201 207/129/199
f 203/124/200 209/131/206 208/130/201
f 210/133/202 209/131/206 203/124/200
f 211/132/203 216/139/208 210/133/202
f 212/134/204 211/140/203 205/135/197
f 207/129/199 213/136/205 212/134/204
f 208/130/201 214/137/207 213/136/205
f 209/131/206 215/138/583 214/137/207
f 216/139/208 215/138/583 209/131/206
f 223/76/209 228/65/221 222/66/210
f 224/71/212 223/68/209 217/69/211
f 225/79/214 224/71/212 218/67/213
f 220/73/216 226/72/218 225/79/214
f 221/75/217 227/74/219 226/72/218
f 222/66/210 228/65/221 227/74/219
f 229/83/220 234/77/227 228/65/221
f 230/80/222 229/78/220 223/68/209
f 231/86/223 230/80/222 224/71/212
f 226/72/218 232/81/224 231/86/223
f 227/74/219 233/82/225 232/81/224
f 228/65/221 234/77/227 233/82/225
f 235/90/226 240/84/233 234/77/227
f 236/87/228 235/85/226 229/78/220
f 237/93/229 236/87/228 230/80/222
f 232/81/224 238/88/230 237/93/229
f 233/82/225 239/89/231 238/88/230
f 234/77/227 240/84/233 239/89/231
f 241/97/232 246/91/239 240/84/233
f 242/94/234 241/92/232 235/85/226
f 243/100/235 242/94/234 236/87/228
f 238/88/230 244/95/236 243/100/235
f 239/89/231 245/96/237 244/95/236
f 240/84/233 246/91/239 245/96/237
f 247/105/238 252/98/245 246/91/239
f 248/101/240 247/99/238 241/92/232
f 249/108/241 248/101/240 242/94/234
f 244/95/236 250/102/242 249/108/241
f 245/96/237 251/103/243 250/102/242
f 246/91/239 252/98/245 251/103/243
f 247/105/238 253/104/246 258/112/244
f 248/101/240 254/106/247 253/114/246
f 249/108/241 255/107/252 254/106/247
f 256/109/248 255/107/252 249/108/241
f 257/110/249 256/109/248 250/102/242
f 258/112/244 257/110/249 251/103/243
f 253/104/246 259/111/251 264/119/250
f 254/106/247 260/113/253 259/121/251
f 255/107/252 261/115/258 260/113/253
f 262/116/254 261/115/258 255/107/252
f 263/117/255 262/116/254 256/109/248
f 264/119/250 263/117/255 257/110/249
f 259/111/251 265/118/257 270/126/256
f 260/113/253 266/120/259 265/128/257
f 261/115/258 267/122/264 266/120/259
f 268/123/260 267/122/264 261/115/258
f 269/124/261 268/123/260 262/116/254
f 270/126/256 269/124/261 263/117/255
f 265/118/257 271/125/263 276/133/262
f 266/120/259 272/127/265 271/135/263
f 267/122/264 273/129/270 272/127/265
f 274/130/266 273/129/270 267/122/264
f 275/131/267 274/130/266 268/123/260
f 276/133/262 275/131/267 269/124/261
f 271/125/263 277/132/269 282/139/268
f 272/127/265 278/134/271 277/140/269
f 273/129/270 279/136/584 278/134/271
f 280/137/272 279/136/584 273/129/270
f 281/138/273 280/137/272 274/130/266
f 282/139/268 281/138/273 275/131/267
f 289/76/274 294/65/286 288/66/275
f 290/71/277 289/68/274 283/69/276
f 291/79/279 290/71/277 284/67/278
f 286/73/281 292/72/283 291/79/279
f 287/75/282 293/74/284 292/72/283
f 288/66/275 294/65/286 293/74/284
f 295/83/285 300/77/292 294/65/286
f 296/80/287 295/78/285 289/68/274
f 297/86/288 296/80/287 290/71/277
f 292/72/283 298/81/289 297/86/288
f 293/74/284 299/82/290 298/81/289
f 294/65/286 300/77/292 299/82/290
f 301/90/291 306/84/298 300/77/292
f 302/87/293 301/85/291 295/78/285
f 303/93/294 302/87/293 296/80/287
f 298/81/289 304/88/295 303/93/294
f 299/82/290 305/89/296 304/88/295
f 300/77/292 306/84/298 305/89/296
f 307/97/297 312/91/304 306/84/298
f 308/94/299 307/92/297 301/85/291
f 309/100/300 308/94/299 302/87/293
f 304/88/295 310/95/301 309/100/300
f 305/89/296 311/96/302 310/95/301
f 306/84/298 312/91/304 311/96/302
f 313/105/303 318/98/310 312/91/304
f 314/101/305 313/99/303 307/92/297
f 315/108/306 314/101/305 308/94/299
f 310/95/301 316/102/307 315/108/306
f 311/96/302 317/103/308 316/102/307
f 312/91/304 318/98/310 317/103/308
f 313/105/303 319/104/311 324/112/309
f 314/101/305 320/106/312 319/114/311
f 315/108/306 321/107/317 320/106/312
f 322/109/313 321/107/317 315/108/306
f 323/110/314 322/109/313 316/102/307
f 324/112/309 323/110/314 317/103/308
f 319/104/311 325/111/316 330/119/315
f 320/106/312 326/113/318 325/121/316
f 321/107/317 327/115/323 326/113/318
f 328/116/319 327/115/323 321/107/317
f 329/117/320 328/116/319 322/109/313
f 330/119/315 329/117/320 323/110/314
f 325/111/316 331/118/322 336/126/321
f 326/113/318 332/120/324 331/128/322
f 327/115/323 333/122/329 332/120/324
f 334/123/325 333/122/329 327/115/323
f 335/124/326 334/123/325 328/116/319
f 336/126/321 335/124/326 329/117/320
f 331/118/322 337/125/328 342/133/327
f 332/120/324 338/127/330 337/135/328
f 333/122/329 339/129/335 338/127/330
f 340/130/331 339/129/335 333/122/329
f 341/131/332 340/130/331 334/123/325
f 342/133/327 341/131/332 335/124/326
f 337/125/328 343/132/334 348/139/333
f 338/127/330 344/134/336 343/140/334
f 339/129/335 345/136/585 344/134/336
f 346/137/337 345/136/585 339/129/335
f 347/138/338 346/137/337 340/130/331
f 348/139/333 347/138/338 341/131/332
f 355/76/339 360/65/349 354/66/340
f 350/67/342 356/71/344 355/68/339
f 351/70/343 357/79/346 356/71/344
f 352/73/345 358/72/352 357/79/346
f 359/74/347 358/72/352 352/73/345
f 360/65/349 359/74/347 353/75/348
f 361/83/350 366/77/355 360/65/349
f 356/71/344 362/80/351 361/78/350
f 357/79/346 363/86/353 362/80/351
f 358/72/352 364/81/358 363/86/353
f 365/82/354 364/81/358 358/72/352
f 366/77/355 365/82/354 359/74/347
f 367/90/356 372/84/361 366/77/355
f 362/80/351 368/87/357 367/85/356
f 363/86/353 369/93/359 368/87/357
f 364/81/358 370/88/364 369/93/359
f 371/89/360 370/88/364 364/81/358
f 372/84/361 371/89/360 365/82/354
f 373/97/362 378/91/367 372/84/361
f 368/87/357 374/94/363 373/92/362
f 369/93/359 375/100/365 374/94/363
f 370/88/364 376/95/370 375/100/365
f 377/96/366 376/95/370 370/88/364
f 378/91/367 377/96/366 371/89/360
f 379/105/368 384/98/373 378/91/367
f 374/94/363 380/101/369 379/99/368
f 375/100/365 381/108/371 380/101/369
f 376/95/370 382/102/378 381/108/371
f 383/103/372 382/102/378 376/95/370
f 384/98/373 383/103/372 377/96/366
f 379/105/368 385/104/380 390/112/374
f 386/106/375 385/114/380 379/99/368
f 387/107/376 386/106/375 380/101/369
f 388/109/377 387/107/376 381/108/371
f 383/103/372 389/110/379 388/109/377
f 384/98/373 390/112/374 389/110/379
f 385/104/380 391/111/386 396/119/381
f 392/113/382 391/121/386 385/114/380
f 393/115/383 392/113/382 386/106/375
f 394/116/384 393/115/383 387/107/376
f 389/110/379 395/117/385 394/116/384
f 390/112/374 396/119/381 395/117/385
f 391/111/386 397/118/392 402/126/387
f 398/120/388 397/128/392 391/121/386
f 399/122/389 398/120/388 392/113/382
f 400/123/390 399/122/389 393/115/383
f 395/117/385 401/124/391 400/123/390
f 396/119/381 402/126/387 401/124/391
f 397/118/392 403/125/398 408/133/393
f 404/127/394 403/135/398 397/128/392
f 405/129/395 404/127/394 398/120/388
f 406/130/396 405/129/395 399/122/389
f 401/124/391 407/131/397 406/130/396
f 402/126/387 408/133/393 407/131/397
f 403/125/398 409/132/586 414/139/399
f 410/134/400 409/140/586 403/135/398
f 411/136/401 410/134/400 404/127/394
f 412/137/402 411/136/401 405/129/395
f 407/131/397 413/138/403 412/137/402
f 408/133/393 414/139/399 413/138/403
s 0
f 484/141/514 485/142/514 479/103/514
f 485/142/12 486/150/12 480/98/12
f 480/98/515 486/150/515 487/143/515
f 487/144/516 488/146/516 482/101/516
f 488/146/25 489/147/25 483/108/25
f 489/147/517 484/141/517 478/102/517
f 490/148/518 491/154/518 485/142/518
f 485/142/12 491/154/12 492/149/12
f 492/149/519 493/157/519 487/143/519
f 487/144/520 493/158/520 494/151/520
f 488/146/25 494/151/25 495/152/25
f 495/152/521 490/148/521 484/141/521
f 496/153/522 497/155/522 491/154/522
f 497/155/12 498/156/12 492/149/12
f 498/156/523 499/162/523 493/157/523
f 493/158/524 499/164/524 500/159/524
f 500/159/25 501/166/25 495/152/25
f 495/152/525 501/166/525 496/153/525
f 502/160/526 503/169/526 497/155/526
f 497/155/12 503/169/12 504/161/12
f 504/161/527 505/171/527 499/162/527
f 505/163/528 506/165/528 500/159/528
f 506/165/25 507/167/25 501/166/25
f 507/167/529 502/160/529 496/153/529
f 502/160/530 508/175/530 509/168/530
f 509/168/12 510/177/12 504/161/12
f 504/161/531 510/177/531 511/170/531
f 505/163/532 511/180/532 512/172/532
f 512/172/25 513/173/25 507/167/25
f 513/173/533 508/175/533 502/160/533
f 514/174/534 515/176/534 509/168/534
f 515/176/12 516/178/12 510/177/12
f 516/178/535 517/184/535 511/170/535
f 517/179/536 518/181/536 512/172/536
f 518/181/25 519/187/25 513/173/25
f 513/173/537 519/187/537 514/174/537
f 520/182/538 521/189/538 515/176/538
f 515/176/12 521/189/12 522/183/12
f 522/183/539 523/190/539 517/184/539
f 523/185/540 524/186/540 518/181/540
f 524/186/25 525/188/25 519/187/25
f 525/188/541 520/182/541 514/174/541
f 520/182/542 526/137/542 527/138/542
f 521/189/12 527/138/12 528/139/12
f 528/139/543 529/132/543 523/190/543
f 523/185/544 529/241/544 530/134/544
f 524/186/25 530/134/25 531/136/25
f 525/188/545 531/136/545 526/137/545
f 532/191/515 533/192/515 527/75/515
f 533/192/12 534/199/12 528/66/12
f 528/66/514 534/199/514 535/193/514
f 535/194/517 536/201/517 530/67/517
f 530/67/25 536/201/25 537/196/25
f 531/70/516 537/196/516 532/191/516
f 532/191/519 538/204/519 539/197/519
f 533/192/12 539/197/12 540/198/12
f 540/198/518 541/207/518 535/193/518
f 541/200/521 542/202/521 536/201/521
f 542/202/25 543/203/25 537/196/25
f 543/203/520 538/204/520 532/191/520
f 538/204/523 544/211/523 545/205/523
f 545/205/12 546/213/12 540/198/12
f 540/198/522 546/213/522 547/206/522
f 541/200/525 547/215/525 548/208/525
f 542/202/25 548/208/25 549/209/25
f 549/209/524 544/211/524 538/204/524
f 550/210/527 551/219/527 545/205/527
f 545/205/12 551/219/12 552/212/12
f 546/213/526 552/212/526 553/214/526
f 547/215/529 553/223/529 554/216/529
f 554/216/25 555/217/25 549/209/25
f 555/217/528 550/210/528 544/211/528
f 556/218/531 557/220/531 551/219/531
f 557/220/12 558/227/12 552/212/12
f 552/212/530 558/227/530 559/221/530
f 559/222/533 560/230/533 554/216/533
f 554/216/25 560/230/25 561/224/25
f 555/217/532 561/224/532 556/218/532
f 562/225/535 563/226/535 557/220/535
f 563/226/12 564/228/12 558/227/12
f 564/228/534 565/236/534 559/221/534
f 565/229/537 566/231/537 560/230/537
f 566/231/25 567/232/25 561/224/25
f 567/232/536 562/225/536 556/218/536
f 568/233/539 569/234/539 563/226/539
f 569/234/12 570/239/12 564/228/12
f 564/228/538 570/239/538 571/235/538
f 565/229/541 571/240/541 572/237/541
f 566/231/25 572/237/25 573/238/25
f 573/238/540 568/233/540 562/225/540
f 568/233/543 478/102/543 479/103/543
f 569/234/12 479/103/12 480/98/12
f 570/239/542 480/98/542 481/105/542
f 481/145/545 482/101/545 572/237/545
f 482/101/25 483/108/25 573/238/25
f 483/108/544 478/102/544 568/233/544
s 1
usemtl AnomalyCore
f 43/1/43 56/2/44 55/3/45
f 44/4/46 56/5/44 58/6/5
f 43/7/43 55/8/45 60/9/6
f 43/10/43 60/11/6 62/12/47
f 43/13/43 62/14/47 59/15/48
f 44/4/46 58/6/5 65/16/49
f 45/17/50 57/18/51 67/19/12
f 46/20/52 61/21/53 69/22/54
f 47/23/55 63/24/56 71/25/57
f 48/26/58 64/27/59 73/28/60
f 44/4/46 65/16/49 68/29/61
f 45/17/50 67/19/12 70/30/62
f 46/20/52 69/22/54 72/31/63
f 47/23/55 71/25/57 74/32/25
f 48/26/58 73/28/60 66/33/64
f 49/34/65 75/35/66 80/36/67
f 50/37/68 76/38/69 82/39/70
f 51/40/71 77/41/34 83/42/72
f 52/43/73 78/44/74 84/45/75
f 53/46/76 79/47/77 81/48/41
f 81/48/41 84/49/75 54/50/78
f 81/48/41 79/47/77 84/49/75
f 79/47/77 52/43/73 84/49/75
f 84/45/75 83/51/72 54/52/78
f 84/45/75 78/44/74 83/51/72
f 78/44/74 51/40/71 83/51/72
f 83/42/72 82/53/70 54/54/78
f 83/42/72 77/41/34 82/53/70
f 77/41/34 50/55/68 82/53/70
f 82/39/70 80/56/67 54/57/78
f 82/39/70 76/38/69 80/56/67
f 76/38/69 49/34/65 80/56/67
f 80/36/67 81/58/41 54/59/78
f 80/36/67 75/35/66 81/58/41
f 75/35/66 53/46/76 81/58/41
f 66/33/64 79/47/77 53/46/76
f 66/33/64 73/28/60 79/47/77
f 73/28/60 52/43/73 79/47/77
f 74/32/25 78/44/74 52/43/73
f 74/32/25 71/25/57 78/44/74
f 71/25/57 51/40/71 78/44/74
f 72/31/63 77/41/34 51/40/71
f 72/31/63 69/22/54 77/41/34
f 69/22/54 50/55/68 77/41/34
f 70/30/62 76/38/69 50/37/68
f 70/30/62 67/19/12 76/38/69
f 67/19/12 49/34/65 76/38/69
f 68/29/61 75/35/66 49/34/65
f 68/29/61 65/16/49 75/35/66
f 65/16/49 53/46/76 75/35/66
f 73/28/60 74/32/25 52/43/73
f 73/28/60 64/27/59 74/32/25
f 64/27/59 47/23/55 74/32/25
f 71/25/57 72/31/63 51/40/71
f 71/25/57 63/24/56 72/31/63
f 63/24/56 46/20/52 72/31/63
f 69/22/54 70/60/62 50/55/68
f 69/22/54 61/21/53 70/60/62
f 61/21/53 45/61/50 70/60/62
f 67/19/12 68/29/61 49/34/65
f 67/19/12 57/18/51 68/29/61
f 57/18/51 44/4/46 68/29/61
f 65/16/49 66/33/64 53/46/76
f 65/16/49 58/6/5 66/33/64
f 58/6/5 48/26/58 66/33/64
f 59/15/48 64/27/59 48/26/58
f 59/15/48 62/14/47 64/27/59
f 62/14/47 47/23/55 64/27/59
f 62/12/47 63/24/56 47/23/55
f 62/12/47 60/11/6 63/24/56
f 60/11/6 46/20/52 63/24/56
f 60/9/6 61/21/53 46/20/52
f 60/9/6 55/8/45 61/21/53
f 55/8/45 45/61/50 61/21/53
f 58/6/5 59/62/48 48/26/58
f 58/6/5 56/5/44 59/62/48
f 56/5/44 43/63/43 59/62/48
f 55/3/45 57/18/51 45/17/50
f 55/3/45 56/2/44 57/18/51
f 56/2/44 44/4/46 57/18/51
s 0
usemtl GlacierIce
f 415/1/404 428/2/404 427/3/404
f 416/4/405 428/5/405 430/6/405
f 415/7/406 427/8/406 432/9/406
f 415/10/407 432/11/407 434/12/407
f 415/13/408 434/14/408 431/15/408
f 416/4/409 430/6/409 437/16/409
f 417/17/410 429/18/410 439/19/410
f 418/20/411 433/21/411 441/22/411
f 419/23/412 435/24/412 443/25/412
f 420/26/413 436/27/413 445/28/413
f 416/4/414 437/16/414 440/29/414
f 417/17/415 439/19/415 442/30/415
f 418/20/416 441/22/416 444/31/416
f 419/23/417 443/25/417 446/32/417
f 420/26/418 445/28/418 438/33/418
f 421/34/419 447/35/419 452/36/419
f 422/37/420 448/38/420 454/39/420
f 423/40/421 449/41/421 455/42/421
f 424/43/422 450/44/422 456/45/422
f 425/46/423 451/47/423 453/48/423
f 453/48/424 456/49/424 426/50/424
f 453/48/425 451/47/425 456/49/425
f 451/47/426 424/43/426 456/49/426
f 456/45/427 455/51/427 426/52/427
f 456/45/428 450/44/428 455/51/428
f 450/44/429 423/40/429 455/51/429
f 455/42/430 454/53/430 426/54/430
f 455/42/431 449/41/431 454/53/431
f 449/41/432 422/55/432 454/53/432
f 454/39/433 452/56/433 426/57/433
f 454/39/434 448/38/434 452/56/434
f 448/38/435 421/34/435 452/56/435
f 452/36/436 453/58/436 426/59/436
f 452/36/437 447/35/437 453/58/437
f 447/35/438 425/46/438 453/58/438
f 438/33/439 451/47/439 425/46/439
f 438/33/440 445/28/440 451/47/440
f 445/28/441 424/43/441 451/47/441
f 446/32/442 450/44/442 424/43/442
f 446/32/443 443/25/443 450/44/443
f 443/25/444 423/40/444 450/44/444
f 444/31/445 449/41/445 423/40/445
f 444/31/446 441/22/446 449/41/446
f 441/22/447 422/55/447 449/41/447
f 442/30/448 448/38/448 422/37/448
f 442/30/449 439/19/449 448/38/449
f 439/19/450 421/34/450 448/38/450
f 440/29/451 447/35/451 421/34/451
f 440/29/452 437/16/452 447/35/452
f 437/16/453 425/46/453 447/35/453
f 445/28/454 446/32/454 424/43/454
f 445/28/455 436/27/455 446/32/455
f 436/27/456 419/23/456 446/32/456
f 443/25/457 444/31/457 423/40/457
f 443/25/458 435/24/458 444/31/458
f 435/24/459 418/20/459 444/31/459
f 441/22/460 442/60/460 422/55/460
f 441/22/461 433/21/461 442/60/461
f 433/21/462 417/61/462 442/60/462
f 439/19/463 440/29/463 421/34/463
f 439/19/464 429/18/464 440/29/464
f 429/18/465 416/4/465 440/29/465
f 437/16/466 438/33/466 425/46/466
f 437/16/467 430/6/467 438/33/467
f 430/6/468 420/26/468 438/33/468
f 431/15/469 436/27/469 420/26/469
f 431/15/470 434/14/470 436/27/470
f 434/14/471 419/23/471 436/27/471
f 434/12/472 435/24/472 419/23/472
f 434/12/473 432/11/473 435/24/473
f 432/11/474 418/20/474 435/24/474
f 432/9/475 433/21/475 418/20/475
f 432/9/476 427/8/476 433/21/476
f 427/8/477 417/61/477 433/21/477
f 430/6/478 431/62/478 420/26/478
f 430/6/479 428/5/479 431/62/479
f 428/5/480 415/63/480 431/62/480
f 427/3/481 429/18/481 417/17/481
f 427/3/482 428/2/482 429/18/482
f 428/2/483 416/4/483 429/18/483
usemtl FrostedArmor
f 457/69/484 459/69/484 458/69/484
f 458/69/485 459/69/485 463/69/485
f 457/69/486 460/69/486 459/69/486
f 459/69/487 460/69/487 463/69/487
f 457/69/488 461/69/488 460/69/488
f 460/69/489 461/69/489 463/69/489
f 457/69/490 462/69/490 461/69/490
f 461/69/491 462/69/491 463/69/491
f 457/69/492 458/69/492 462/69/492
f 462/69/493 458/69/493 463/69/493
f 464/69/494 466/69/494 465/69/494
f 465/69/495 466/69/495 470/69/495
f 464/69/496 467/69/496 466/69/496
f 466/69/497 467/69/497 470/69/497
f 464/69/498 468/69/498 467/69/498
f 467/69/499 468/69/499 470/69/499
f 464/69/500 469/69/500 468/69/500
f 468/69/501 469/69/501 470/69/501
f 464/69/502 465/69/502 469/69/502
f 469/69/503 465/69/503 470/69/503
f 471/69/504 473/69/504 472/69/504
f 472/69/505 473/69/505 477/69/505
f 471/69/506 474/69/506 473/69/506
f 473/69/507 474/69/507 477/69/507
f 471/69/508 475/69/508 474/69/508
f 474/69/509 475/69/509 477/69/509
f 471/69/510 476/69/510 475/69/510
f 475/69/511 476/69/511 477/69/511
f 471/69/512 472/69/512 476/69/512
f 476/69/513 472/69/513 477/69/513
