# Blender 4.4.1
# www.blender.org
mtllib SwarmEnemy.mtl
o SwarmEnemy
v 0.000000 -0.563489 0.000000
v 0.407741 -0.252001 0.231065
v -0.155740 -0.252001 0.373875
v -0.503999 -0.252001 0.000000
v -0.155740 -0.252001 -0.373875
v 0.407741 -0.252001 -0.231065
v 0.155740 0.252001 0.373875
v -0.407741 0.252001 0.231065
v -0.407741 0.252001 -0.231065
v 0.155740 0.252001 -0.373875
v 0.503999 0.252001 0.000000
v 0.000000 0.563489 0.000000
v 0.000000 -0.225396 0.394442
v 0.183483 -0.085226 0.527749
v -0.070083 -0.085226 0.610139
v -0.226799 -0.085226 0.394442
v -0.070083 -0.085226 0.178745
v 0.183483 -0.085226 0.261135
v 0.070083 0.141575 0.610139
v -0.183483 0.141575 0.527749
v -0.183483 0.141575 0.261135
v 0.070083 0.141575 0.178745
v 0.226799 0.141575 0.394442
v 0.000000 0.281745 0.394442
v 0.000000 -0.387664 0.063552
v 0.724486 0.350973 -0.257595
v 0.223878 0.213607 -0.573538
v -0.586121 0.266076 -0.452859
v -0.586121 0.435870 -0.062331
v 0.223878 0.488340 0.058348
v 0.000000 1.609969 -0.804984
v -0.188215 0.044400 -0.125477
v -0.354138 -0.257595 -0.661779
v -0.410044 -0.396007 -0.404907
v -0.660206 -0.343138 -0.095749
v -0.758910 -0.172052 -0.161552
v -0.569749 -0.119183 -0.511377
v -1.207477 -0.804984 -0.804984
v 0.193537 0.047958 -0.122631
v 0.720353 -0.257595 -0.090495
v 0.486519 -0.390346 -0.216849
v 0.270058 -0.339639 -0.550808
v 0.370112 -0.175551 -0.630851
v 0.648410 -0.124844 -0.346362
v 1.046480 -0.804984 -0.804984
vn 0.0007 -1.0000 -0.0000
vn 0.7089 -0.4381 0.5528
vn -0.2579 -0.4173 0.8714
vn 0.7089 -0.4381 -0.5528
vn -0.8948 -0.4466 -0.0000
vn -0.2579 -0.4173 -0.8714
vn 0.8948 0.4466 -0.0000
vn 0.2579 0.4173 0.8714
vn -0.7089 0.4381 0.5528
vn -0.7089 0.4381 -0.5528
vn 0.2579 0.4173 -0.8714
vn -0.0007 1.0000 -0.0000
vn -0.0000 -1.0000 -0.0000
vn 0.7236 -0.4472 0.5257
vn -0.2764 -0.4472 0.8507
vn 0.7236 -0.4472 -0.5257
vn -0.8944 -0.4472 -0.0000
vn -0.2764 -0.4472 -0.8507
vn 0.8944 0.4472 -0.0000
vn 0.2764 0.4472 0.8507
vn -0.7236 0.4472 0.5257
vn -0.7236 0.4472 -0.5257
vn 0.2764 0.4472 -0.8507
vn -0.0000 1.0000 -0.0000
vn 0.5050 -0.7092 -0.4919
vn 0.5431 -0.0518 -0.8380
vn -0.1500 -0.6922 -0.7060
vn -0.1566 -0.1859 -0.9700
vn -0.8086 -0.5396 0.2346
vn -0.9197 0.3601 -0.1566
vn -0.1500 0.0442 0.9877
vn -0.1566 0.5826 0.7975
vn 0.5050 -0.1240 0.8541
vn 0.5431 0.5775 0.6095
vn 0.9015 -0.4312 -0.0361
vn 0.5502 -0.7792 -0.3001
vn 0.5496 -0.6271 0.5520
vn 0.2700 -0.8888 0.3704
vn -0.1628 0.2710 0.9487
vn -0.7270 -0.1629 0.6670
vn -0.3515 0.9349 -0.0488
vn -0.6550 0.7144 -0.2462
vn 0.1711 0.8349 -0.5231
vn -0.2144 0.5461 -0.8099
vn -0.2695 -0.3711 0.8886
vn 0.0948 -0.7689 0.6323
vn -0.7270 -0.5687 0.3849
vn -0.4652 -0.8688 0.1696
vn -0.8487 0.3077 -0.4302
vn -0.4059 -0.1887 -0.8942
vn 0.1819 0.9218 -0.3422
vn 0.4706 0.6658 -0.5790
vn 0.4646 0.8327 0.3014
vn 0.8672 0.4978 0.0144
vt 0.181819 0.000000
vt 0.272728 0.157461
vt 0.090910 0.157461
vt 0.363637 0.000000
vt 0.454546 0.157461
vt 0.909091 0.000000
vt 1.000000 0.157461
vt 0.818182 0.157461
vt 0.727273 0.000000
vt 0.636364 0.157461
vt 0.545455 0.000000
vt 0.363637 0.314921
vt 0.181819 0.314921
vt 0.909091 0.314921
vt 0.727273 0.314921
vt 0.545455 0.314921
vt 0.000000 0.314921
vt 0.272728 0.472382
vt 0.090910 0.472382
vt 0.818182 0.472382
vt 0.636364 0.472382
vt 0.454546 0.472382
vt 0.000000 0.000000
s 1
usemtl UnknownOrganicMatter
f 1/1/1 2/2/2 3/3/3
f 2/2/2 1/4/1 6/5/4
f 1/6/1 3/7/3 4/8/5
f 1/9/1 4/8/5 5/10/6
f 1/11/1 5/10/6 6/5/4
f 2/2/2 6/5/4 11/12/7
f 3/3/3 2/2/2 7/13/8
f 4/8/5 3/7/3 8/14/9
f 5/10/6 4/8/5 9/15/10
f 6/5/4 5/10/6 10/16/11
f 2/2/2 11/12/7 7/13/8
f 3/3/3 7/13/8 8/17/9
f 4/8/5 8/14/9 9/15/10
f 5/10/6 9/15/10 10/16/11
f 6/5/4 10/16/11 11/12/7
f 7/13/8 11/12/7 12/18/12
f 8/17/9 7/13/8 12/19/12
f 9/15/10 8/14/9 12/20/12
f 10/16/11 9/15/10 12/21/12
f 11/12/7 10/16/11 12/22/12
usemtl AnomalyCore
f 13/1/13 14/2/14 15/3/15
f 14/2/14 13/4/13 18/5/16
f 13/6/13 15/7/15 16/8/17
f 13/9/13 16/8/17 17/10/18
f 13/11/13 17/10/18 18/5/16
f 14/2/14 18/5/16 23/12/19
f 15/3/15 14/2/14 19/13/20
f 16/8/17 15/7/15 20/14/21
f 17/10/18 16/8/17 21/15/22
f 18/5/16 17/10/18 22/16/23
f 14/2/14 23/12/19 19/13/20
f 15/3/15 19/13/20 20/17/21
f 16/8/17 20/14/21 21/15/22
f 17/10/18 21/15/22 22/16/23
f 18/5/16 22/16/23 23/12/19
f 19/13/20 23/12/19 24/18/24
f 20/17/21 19/13/20 24/19/24
f 21/15/22 20/14/21 24/20/24
f 22/16/23 21/15/22 24/21/24
f 23/12/19 22/16/23 24/22/24
s 0
usemtl GlacierIce
f 25/23/25 27/23/25 26/23/25
f 26/23/26 27/23/26 31/23/26
f 25/23/27 28/23/27 27/23/27
f 27/23/28 28/23/28 31/23/28
f 25/23/29 29/23/29 28/23/29
f 28/23/30 29/23/30 31/23/30
f 25/23/31 30/23/31 29/23/31
f 29/23/32 30/23/32 31/23/32
f 25/23/33 26/23/33 30/23/33
f 30/23/34 26/23/34 31/23/34
f 32/23/35 34/23/35 33/23/35
f 33/23/36 34/23/36 38/23/36
f 32/23/37 35/23/37 34/23/37
f 34/23/38 35/23/38 38/23/38
f 32/23/39 36/23/39 35/23/39
f 35/23/40 36/23/40 38/23/40
f 32/23/41 37/23/41 36/23/41
f 36/23/42 37/23/42 38/23/42
f 32/23/43 33/23/43 37/23/43
f 37/23/44 33/23/44 38/23/44
f 39/23/45 41/23/45 40/23/45
f 40/23/46 41/23/46 45/23/46
f 39/23/47 42/23/47 41/23/47
f 41/23/48 42/23/48 45/23/48
f 39/23/49 43/23/49 42/23/49
f 42/23/50 43/23/50 45/23/50
f 39/23/51 44/23/51 43/23/51
f 43/23/52 44/23/52 45/23/52
f 39/23/53 40/23/53 44/23/53
f 44/23/54 40/23/54 45/23/54
