mtllib ice.mtl
o IceCrystal
usemtl Ice
s off
vt 0.5 0.5
v 0.500000 0.000000 0.000000
v 0.250000 0.000000 0.433013
v -0.250000 0.000000 0.433013
v -0.500000 0.000000 0.000000
v -0.250000 0.000000 -0.433013
v 0.250000 0.000000 -0.433013
v 0.390000 0.680000 0.000000
v 0.195000 0.680000 0.337750
v -0.195000 0.680000 0.337750
v -0.390000 0.680000 0.000000
v -0.195000 0.680000 -0.337750
v 0.195000 0.680000 -0.337750
v 0.120000 1.000000 -0.050000
v 0.000000 0.000000 0.000000
vn 0.857650 0.138738 0.495165
vn 0.857650 0.138738 0.495165
vn 0.673341 0.628874 0.388754
vn 0.000000 -1.000000 0.000000
vn 0.000000 0.138738 0.990329
vn 0.000000 0.138738 0.990329
vn 0.000000 0.771269 0.636509
vn 0.000000 -1.000000 0.000000
vn -0.857650 0.138738 0.495165
vn -0.857650 0.138738 0.495165
vn -0.489757 0.824732 0.282762
vn 0.000000 -1.000000 0.000000
vn -0.857650 0.138738 -0.495165
vn -0.857650 0.138738 -0.495165
vn -0.527489 0.793100 -0.304546
vn -0.000000 -1.000000 0.000000
vn -0.000000 0.138738 -0.990329
vn -0.000000 0.138738 -0.990329
vn -0.000000 0.668644 -0.743583
vn 0.000000 -1.000000 -0.000000
vn 0.857650 0.138738 -0.495165
vn 0.857650 0.138738 -0.495165
vn 0.725256 0.546509 -0.418727
vn 0.000000 -1.000000 0.000000
f 1/1/1 7/1/1 8/1/1
f 1/1/2 8/1/2 2/1/2
f 7/1/3 13/1/3 8/1/3
f 14/1/4 1/1/4 2/1/4
f 2/1/5 8/1/5 9/1/5
f 2/1/6 9/1/6 3/1/6
f 8/1/7 13/1/7 9/1/7
f 14/1/8 2/1/8 3/1/8
f 3/1/9 9/1/9 10/1/9
f 3/1/10 10/1/10 4/1/10
f 9/1/11 13/1/11 10/1/11
f 14/1/12 3/1/12 4/1/12
f 4/1/13 10/1/13 11/1/13
f 4/1/14 11/1/14 5/1/14
f 10/1/15 13/1/15 11/1/15
f 14/1/16 4/1/16 5/1/16
f 5/1/17 11/1/17 12/1/17
f 5/1/18 12/1/18 6/1/18
f 11/1/19 13/1/19 12/1/19
f 14/1/20 5/1/20 6/1/20
f 6/1/21 12/1/21 7/1/21
f 6/1/22 7/1/22 1/1/22
f 12/1/23 13/1/23 7/1/23
f 14/1/24 6/1/24 1/1/24
