mtllib ice.mtl
o ice_slab
usemtl Ice
s off
v 0.390000 0.000000 0.000000
v 0.275772 0.000000 0.233345
v 0.000000 0.000000 0.330000
v -0.275772 0.000000 0.233345
v -0.390000 0.000000 0.000000
v -0.275772 0.000000 -0.233345
v -0.000000 0.000000 -0.330000
v 0.275772 0.000000 -0.233345
v 0.500000 0.120000 0.000000
v 0.353553 0.120000 0.325269
v 0.000000 0.120000 0.460000
v -0.353553 0.120000 0.325269
v -0.500000 0.120000 0.000000
v -0.353553 0.120000 -0.325269
v -0.000000 0.120000 -0.460000
v 0.353553 0.120000 -0.325269
v 0.485000 0.880000 0.000000
v 0.350269 0.880000 0.296985
v 0.025000 0.880000 0.420000
v -0.300269 0.880000 0.296985
v -0.435000 0.880000 0.000000
v -0.300269 0.880000 -0.296985
v 0.025000 0.880000 -0.420000
v 0.350269 0.880000 -0.296985
v 0.375000 1.000000 0.000000
v 0.269558 1.000000 0.226274
v 0.015000 1.000000 0.320000
v -0.239558 1.000000 0.226274
v -0.345000 1.000000 0.000000
v -0.239558 1.000000 -0.226274
v 0.015000 1.000000 -0.320000
v 0.269558 1.000000 -0.226274
vt 0.890000 0.000000
vt 0.775772 0.000000
vt 0.500000 0.000000
vt 0.224228 0.000000
vt 0.110000 0.000000
vt 0.224228 0.000000
vt 0.500000 0.000000
vt 0.775772 0.000000
vt 1.000000 0.120000
vt 0.853553 0.120000
vt 0.500000 0.120000
vt 0.146447 0.120000
vt 0.000000 0.120000
vt 0.146447 0.120000
vt 0.500000 0.120000
vt 0.853553 0.120000
vt 0.985000 0.880000
vt 0.850269 0.880000
vt 0.525000 0.880000
vt 0.199731 0.880000
vt 0.065000 0.880000
vt 0.199731 0.880000
vt 0.525000 0.880000
vt 0.850269 0.880000
vt 0.875000 1.000000
vt 0.769558 1.000000
vt 0.515000 1.000000
vt 0.260442 1.000000
vt 0.155000 1.000000
vt 0.260442 1.000000
vt 0.515000 1.000000
vt 0.769558 1.000000
vn 0.661322 -0.676647 0.323733
vn 0.699628 -0.641326 0.314995
vn 0.231284 -0.714880 0.659889
vn 0.258604 -0.687463 0.678615
vn -0.241325 -0.683867 0.688541
vn -0.250252 -0.711423 0.656698
vn -0.693390 -0.635607 0.339432
vn -0.675907 -0.671225 0.304315
vn -0.661322 -0.676647 -0.323733
vn -0.699628 -0.641326 -0.314995
vn -0.231284 -0.714880 -0.659889
vn -0.258604 -0.687463 -0.678615
vn 0.241325 -0.683867 -0.688541
vn 0.250252 -0.711423 -0.656698
vn 0.693390 -0.635607 -0.339432
vn 0.675907 -0.671225 -0.304315
vn 0.911674 0.019216 0.410465
vn 0.910522 0.017971 0.413070
vn 0.355847 0.037442 0.933794
vn 0.353509 0.036315 0.934726
vn -0.355463 0.059637 0.932786
vn -0.353089 0.060752 0.933615
vn -0.909082 0.077750 0.409298
vn -0.907825 0.078976 0.411846
vn -0.908995 0.078961 -0.409259
vn -0.907919 0.077651 -0.411889
vn -0.355438 0.060783 -0.932721
vn -0.353115 0.059505 -0.933686
vn 0.355862 0.036292 -0.933834
vn 0.353492 0.037566 -0.934683
vn 0.911695 0.017994 -0.410474
vn 0.910499 0.019307 -0.413059
vn 0.691840 0.650268 0.313862
vn 0.697169 0.639072 0.324874
vn 0.275024 0.628920 0.727201
vn 0.271732 0.617647 0.738021
vn -0.285696 0.589676 0.755420
vn -0.275985 0.601644 0.749571
vn -0.752005 0.564004 0.341157
vn -0.739961 0.577547 0.344815
vn -0.744587 0.575749 -0.337791
vn -0.749606 0.562205 -0.349309
vn -0.282997 0.599987 -0.748284
vn -0.279364 0.588434 -0.758750
vn 0.277699 0.619453 -0.734275
vn 0.268381 0.629799 -0.728920
vn 0.699098 0.640840 -0.317154
vn 0.687730 0.651401 -0.320475
vn 0.000000 -1.000000 0.000000
vn 0.000000 -1.000000 0.000000
vn 0.000000 -1.000000 0.000000
vn -0.000000 -1.000000 0.000000
vn 0.000000 -1.000000 0.000000
vn 0.000000 -1.000000 0.000000
vn 0.000000 1.000000 0.000000
vn 0.000000 1.000000 0.000000
vn 0.000000 1.000000 0.000000
vn 0.000000 1.000000 0.000000
vn 0.000000 1.000000 0.000000
vn 0.000000 1.000000 0.000000
f 1/1/1 10/10/1 2/2/1
f 1/1/2 9/9/2 10/10/2
f 2/2/3 11/11/3 3/3/3
f 2/2/4 10/10/4 11/11/4
f 3/3/5 12/12/5 4/4/5
f 3/3/6 11/11/6 12/12/6
f 4/4/7 13/13/7 5/5/7
f 4/4/8 12/12/8 13/13/8
f 5/5/9 14/14/9 6/6/9
f 5/5/10 13/13/10 14/14/10
f 6/6/11 15/15/11 7/7/11
f 6/6/12 14/14/12 15/15/12
f 7/7/13 16/16/13 8/8/13
f 7/7/14 15/15/14 16/16/14
f 8/8/15 9/9/15 1/1/15
f 8/8/16 16/16/16 9/9/16
f 9/9/17 18/18/17 10/10/17
f 9/9/18 17/17/18 18/18/18
f 10/10/19 19/19/19 11/11/19
f 10/10/20 18/18/20 19/19/20
f 11/11/21 20/20/21 12/12/21
f 11/11/22 19/19/22 20/20/22
f 12/12/23 21/21/23 13/13/23
f 12/12/24 20/20/24 21/21/24
f 13/13/25 22/22/25 14/14/25
f 13/13/26 21/21/26 22/22/26
f 14/14/27 23/23/27 15/15/27
f 14/14/28 22/22/28 23/23/28
f 15/15/29 24/24/29 16/16/29
f 15/15/30 23/23/30 24/24/30
f 16/16/31 17/17/31 9/9/31
f 16/16/32 24/24/32 17/17/32
f 17/17/33 26/26/33 18/18/33
f 17/17/34 25/25/34 26/26/34
f 18/18/35 27/27/35 19/19/35
f 18/18/36 26/26/36 27/27/36
f 19/19/37 28/28/37 20/20/37
f 19/19/38 27/27/38 28/28/38
f 20/20/39 29/29/39 21/21/39
f 20/20/40 28/28/40 29/29/40
f 21/21/41 30/30/41 22/22/41
f 21/21/42 29/29/42 30/30/42
f 22/22/43 31/31/43 23/23/43
f 22/22/44 30/30/44 31/31/44
f 23/23/45 32/32/45 24/24/45
f 23/23/46 31/31/46 32/32/46
f 24/24/47 25/25/47 17/17/47
f 24/24/48 32/32/48 25/25/48
f 1/1/49 2/2/49 3/3/49
f 1/1/50 3/3/50 4/4/50
f 1/1/51 4/4/51 5/5/51
f 1/1/52 5/5/52 6/6/52
f 1/1/53 6/6/53 7/7/53
f 1/1/54 7/7/54 8/8/54
f 25/25/55 27/27/55 26/26/55
f 25/25/56 28/28/56 27/27/56
f 25/25/57 29/29/57 28/28/57
f 25/25/58 30/30/58 29/29/58
f 25/25/59 31/31/59 30/30/59
f 25/25/60 32/32/60 31/31/60
