mtllib ice.mtl
o ice_boulder
usemtl Ice
s off
v 0.340000 0.000000 0.000000
v 0.240416 0.000000 0.219203
v 0.000000 0.000000 0.310000
v -0.240416 0.000000 0.219203
v -0.340000 0.000000 0.000000
v -0.240416 0.000000 -0.219203
v -0.000000 0.000000 -0.310000
v 0.240416 0.000000 -0.219203
v 0.500000 0.300000 0.000000
v 0.353553 0.300000 0.325269
v 0.000000 0.300000 0.460000
v -0.353553 0.300000 0.325269
v -0.500000 0.300000 0.000000
v -0.353553 0.300000 -0.325269
v -0.000000 0.300000 -0.460000
v 0.353553 0.300000 -0.325269
v 0.415000 0.780000 0.000000
v 0.300772 0.780000 0.240416
v 0.025000 0.780000 0.340000
v -0.250772 0.780000 0.240416
v -0.365000 0.780000 0.000000
v -0.250772 0.780000 -0.240416
v 0.025000 0.780000 -0.340000
v 0.300772 0.780000 -0.240416
v 0.160000 1.000000 0.000000
v 0.104350 1.000000 0.127279
v -0.030000 1.000000 0.180000
v -0.164350 1.000000 0.127279
v -0.220000 1.000000 0.000000
v -0.164350 1.000000 -0.127279
v -0.030000 1.000000 -0.180000
v 0.104350 1.000000 -0.127279
vt 0.840000 0.000000
vt 0.740416 0.000000
vt 0.500000 0.000000
vt 0.259584 0.000000
vt 0.160000 0.000000
vt 0.259584 0.000000
vt 0.500000 0.000000
vt 0.740416 0.000000
vt 1.000000 0.300000
vt 0.853553 0.300000
vt 0.500000 0.300000
vt 0.146447 0.300000
vt 0.000000 0.300000
vt 0.146447 0.300000
vt 0.500000 0.300000
vt 0.853553 0.300000
vt 0.915000 0.780000
vt 0.800772 0.780000
vt 0.525000 0.780000
vt 0.249228 0.780000
vt 0.135000 0.780000
vt 0.249228 0.780000
vt 0.525000 0.780000
vt 0.800772 0.780000
vt 0.660000 1.000000
vt 0.604350 1.000000
vt 0.470000 1.000000
vt 0.335650 1.000000
vt 0.280000 1.000000
vt 0.335650 1.000000
vt 0.470000 1.000000
vt 0.604350 1.000000
vn 0.817709 -0.439717 0.371484
vn 0.820016 -0.437342 0.369197
vn 0.320029 -0.423694 0.847387
vn 0.322935 -0.421398 0.847429
vn -0.320490 -0.420893 0.848608
vn -0.322620 -0.423300 0.846601
vn -0.819003 -0.436802 0.372072
vn -0.819141 -0.439309 0.368803
vn -0.817709 -0.439717 -0.371484
vn -0.820016 -0.437342 -0.369197
vn -0.320029 -0.423694 -0.847387
vn -0.322935 -0.421398 -0.847429
vn 0.320490 -0.420893 -0.848608
vn 0.322620 -0.423300 -0.846601
vn 0.819003 -0.436802 -0.372072
vn 0.819141 -0.439309 -0.368803
vn 0.898520 0.170317 0.404542
vn 0.891896 0.157940 0.423764
vn 0.348136 0.210258 0.913560
vn 0.332814 0.199522 0.921643
vn -0.346150 0.234696 0.908349
vn -0.329282 0.245116 0.911862
vn -0.883259 0.248417 0.397672
vn -0.872167 0.260010 0.414390
vn -0.880799 0.258708 -0.396564
vn -0.875427 0.246214 -0.415939
vn -0.345288 0.244505 -0.906087
vn -0.330340 0.232449 -0.914791
vn 0.348887 0.200209 -0.915530
vn 0.331887 0.212483 -0.919077
vn 0.900182 0.159407 -0.405291
vn 0.889684 0.172557 -0.422713
vn 0.630080 0.716504 0.299368
vn 0.628117 0.728044 0.274629
vn 0.269246 0.609571 0.745607
vn 0.284570 0.627003 0.725181
vn -0.289037 0.525161 0.800414
vn -0.315210 0.505387 0.803260
vn -0.776116 0.511531 0.368754
vn -0.797405 0.492535 0.348646
vn -0.782847 0.498801 -0.371952
vn -0.784328 0.516943 -0.342928
vn -0.291353 0.513946 -0.806829
vn -0.310156 0.528298 -0.790382
vn 0.266910 0.618412 -0.739138
vn 0.289666 0.609265 -0.738167
vn 0.623875 0.723128 -0.296420
vn 0.640138 0.715464 -0.279884
vn 0.000000 -1.000000 0.000000
vn 0.000000 -1.000000 0.000000
vn 0.000000 -1.000000 0.000000
vn -0.000000 -1.000000 0.000000
vn 0.000000 -1.000000 0.000000
vn 0.000000 -1.000000 0.000000
vn 0.000000 1.000000 0.000000
vn 0.000000 1.000000 0.000000
vn 0.000000 1.000000 0.000000
vn 0.000000 1.000000 0.000000
vn 0.000000 1.000000 0.000000
vn 0.000000 1.000000 0.000000
f 1/1/1 10/10/1 2/2/1
f 1/1/2 9/9/2 10/10/2
f 2/2/3 11/11/3 3/3/3
f 2/2/4 10/10/4 11/11/4
f 3/3/5 12/12/5 4/4/5
f 3/3/6 11/11/6 12/12/6
f 4/4/7 13/13/7 5/5/7
f 4/4/8 12/12/8 13/13/8
f 5/5/9 14/14/9 6/6/9
f 5/5/10 13/13/10 14/14/10
f 6/6/11 15/15/11 7/7/11
f 6/6/12 14/14/12 15/15/12
f 7/7/13 16/16/13 8/8/13
f 7/7/14 15/15/14 16/16/14
f 8/8/15 9/9/15 1/1/15
f 8/8/16 16/16/16 9/9/16
f 9/9/17 18/18/17 10/10/17
f 9/9/18 17/17/18 18/18/18
f 10/10/19 19/19/19 11/11/19
f 10/10/20 18/18/20 19/19/20
f 11/11/21 20/20/21 12/12/21
f 11/11/22 19/19/22 20/20/22
f 12/12/23 21/21/23 13/13/23
f 12/12/24 20/20/24 21/21/24
f 13/13/25 22/22/25 14/14/25
f 13/13/26 21/21/26 22/22/26
f 14/14/27 23/23/27 15/15/27
f 14/14/28 22/22/28 23/23/28
f 15/15/29 24/24/29 16/16/29
f 15/15/30 23/23/30 24/24/30
f 16/16/31 17/17/31 9/9/31
f 16/16/32 24/24/32 17/17/32
f 17/17/33 26/26/33 18/18/33
f 17/17/34 25/25/34 26/26/34
f 18/18/35 27/27/35 19/19/35
f 18/18/36 26/26/36 27/27/36
f 19/19/37 28/28/37 20/20/37
f 19/19/38 27/27/38 28/28/38
f 20/20/39 29/29/39 21/21/39
f 20/20/40 28/28/40 29/29/40
f 21/21/41 30/30/41 22/22/41
f 21/21/42 29/29/42 30/30/42
f 22/22/43 31/31/43 23/23/43
f 22/22/44 30/30/44 31/31/44
f 23/23/45 32/32/45 24/24/45
f 23/23/46 31/31/46 32/32/46
f 24/24/47 25/25/47 17/17/47
f 24/24/48 32/32/48 25/25/48
f 1/1/49 2/2/49 3/3/49
f 1/1/50 3/3/50 4/4/50
f 1/1/51 4/4/51 5/5/51
f 1/1/52 5/5/52 6/6/52
f 1/1/53 6/6/53 7/7/53
f 1/1/54 7/7/54 8/8/54
f 25/25/55 27/27/55 26/26/55
f 25/25/56 28/28/56 27/27/56
f 25/25/57 29/29/57 28/28/57
f 25/25/58 30/30/58 29/29/58
f 25/25/59 31/31/59 30/30/59
f 25/25/60 32/32/60 31/31/60
