# Stepped glacial island with three ice spires; Y up, base Y=0.
mtllib ice_island.mtl
o IceIsland
s off
v 1.108181 0.000000 0.000000
v 1.139862 0.000000 0.148040
v 1.153970 0.000000 0.307457
v 1.034075 0.000000 0.432048
v 0.857307 0.000000 0.510753
v 0.725400 0.000000 0.594828
v 0.599566 0.000000 0.676690
v 0.494908 0.000000 0.796475
v 0.314750 0.000000 0.794334
v 0.191008 0.000000 0.988903
v 0.000000 0.000000 1.016175
v -0.183665 0.000000 0.950883
v -0.351991 0.000000 0.888319
v -0.500773 0.000000 0.805915
v -0.627733 0.000000 0.708481
v -0.798089 0.000000 0.654433
v -0.805420 0.000000 0.479841
v -0.891915 0.000000 0.372652
v -1.191141 0.000000 0.317361
v -1.185187 0.000000 0.153926
v -1.183708 0.000000 0.000000
v -1.095747 0.000000 -0.142310
v -1.037162 0.000000 -0.276335
v -1.019861 0.000000 -0.426109
v -0.822188 0.000000 -0.489831
v -0.716553 0.000000 -0.587573
v -0.636027 0.000000 -0.717841
v -0.541554 0.000000 -0.871544
v -0.397170 0.000000 -1.002338
v -0.200593 0.000000 -1.038525
v -0.000000 0.000000 -0.912331
v 0.166896 0.000000 -0.864068
v 0.348267 0.000000 -0.878923
v 0.511619 0.000000 -0.823370
v 0.580105 0.000000 -0.654726
v 0.780694 0.000000 -0.640169
v 1.005640 0.000000 -0.599125
v 1.104227 0.000000 -0.461358
v 1.128860 0.000000 -0.300767
v 1.160598 0.000000 -0.150733
v 1.129910 0.150000 0.000000
v 1.162212 0.161686 0.150943
v 1.176597 0.144690 0.313486
v 1.054351 0.140727 0.440519
v 0.874117 0.159524 0.520768
v 0.739623 0.154945 0.606491
v 0.611322 0.138229 0.689958
v 0.504612 0.150403 0.812092
v 0.320921 0.161588 0.809909
v 0.194754 0.144331 1.008294
v 0.000000 0.140988 1.036100
v -0.187266 0.159764 0.969528
v -0.358893 0.154575 0.905737
v -0.510592 0.138157 0.821717
v -0.640042 0.150806 0.722372
v -0.813737 0.161477 0.667265
v -0.821212 0.143979 0.489249
v -0.909403 0.141260 0.379959
v -1.214497 0.159993 0.323583
v -1.208426 0.154199 0.156945
v -1.206918 0.138099 0.000000
v -1.117233 0.151209 -0.145101
v -1.057498 0.161352 -0.281754
v -1.039858 0.143633 -0.434464
v -0.838310 0.141541 -0.499435
v -0.730603 0.160211 -0.599094
v -0.648498 0.153819 -0.731917
v -0.552172 0.138054 -0.888633
v -0.404958 0.151609 -1.021992
v -0.204526 0.161215 -1.058888
v -0.000000 0.143295 -0.930220
v 0.170169 0.141832 -0.881011
v 0.355096 0.160417 -0.896157
v 0.521651 0.153434 -0.839514
v 0.591480 0.138022 -0.667563
v 0.796001 0.152008 -0.652721
v 1.025359 0.161065 -0.610873
v 1.125878 0.142964 -0.470404
v 1.150995 0.142132 -0.306664
v 1.183354 0.160611 -0.153688
v 0.852303 0.160000 0.000000
v 0.876669 0.171686 0.113858
v 0.887519 0.154690 0.236465
v 0.858193 0.150727 0.358562
v 0.711491 0.169524 0.423881
v 0.602019 0.164945 0.493656
v 0.497588 0.148229 0.561594
v 0.410731 0.160403 0.661005
v 0.261215 0.171588 0.659228
v 0.146905 0.154331 0.760566
v 0.000000 0.150988 0.781541
v -0.141257 0.169764 0.731325
v -0.292122 0.164575 0.737228
v -0.415598 0.148157 0.668839
v -0.520964 0.160806 0.587977
v -0.662344 0.171477 0.543122
v -0.668428 0.153979 0.398226
v -0.740212 0.151260 0.309269
v -0.916108 0.169993 0.244082
v -0.911529 0.164199 0.118385
v -0.910390 0.148099 0.000000
v -0.909375 0.161209 -0.118105
v -0.860754 0.171352 -0.229334
v -0.846396 0.153633 -0.353633
v -0.682345 0.151541 -0.406517
v -0.594676 0.170211 -0.487635
v -0.527848 0.163819 -0.595746
v -0.416509 0.148054 -0.670305
v -0.305464 0.161609 -0.770899
v -0.154276 0.171215 -0.798730
v -0.000000 0.153295 -0.757156
v 0.138509 0.151832 -0.717102
v 0.289032 0.170417 -0.729430
v 0.424600 0.163434 -0.683326
v 0.481437 0.148022 -0.543366
v 0.647908 0.162008 -0.531285
v 0.773439 0.171065 -0.460788
v 0.849262 0.152964 -0.354831
v 0.868207 0.152132 -0.231320
v 0.963195 0.170611 -0.125095
v 0.814839 0.480000 0.000000
v 0.838134 0.491686 0.108853
v 0.848507 0.474690 0.226071
v 0.820470 0.470727 0.342801
v 0.680216 0.489524 0.405249
v 0.575557 0.484945 0.471957
v 0.475716 0.468229 0.536909
v 0.392677 0.480403 0.631950
v 0.249733 0.491588 0.630251
v 0.140447 0.474331 0.727135
v 0.000000 0.470988 0.747187
v -0.135048 0.489764 0.699179
v -0.279281 0.484575 0.704822
v -0.397330 0.468157 0.639440
v -0.498065 0.480806 0.562132
v -0.633230 0.491477 0.519249
v -0.639047 0.473979 0.380722
v -0.707675 0.471260 0.295674
v -0.875839 0.489993 0.233353
v -0.871461 0.484199 0.113181
v -0.870373 0.468099 0.000000
v -0.869403 0.481209 -0.112914
v -0.822919 0.491352 -0.219254
v -0.809192 0.473633 -0.338089
v -0.652352 0.471541 -0.388648
v -0.568537 0.490211 -0.466200
v -0.504645 0.483819 -0.569560
v -0.398201 0.468054 -0.640841
v -0.292037 0.481609 -0.737013
v -0.147495 0.491215 -0.763621
v -0.000000 0.473295 -0.723874
v 0.132421 0.471832 -0.685581
v 0.276327 0.490417 -0.697367
v 0.405936 0.483434 -0.653289
v 0.460275 0.468022 -0.519481
v 0.619429 0.482008 -0.507932
v 0.739441 0.491065 -0.440533
v 0.811932 0.472964 -0.339234
v 0.830044 0.472132 -0.221152
v 0.920857 0.490611 -0.119597
v 0.786741 0.520000 0.000000
v 0.809232 0.520000 0.105099
v 0.819249 0.520000 0.218276
v 0.792178 0.520000 0.330980
v 0.656761 0.520000 0.391275
v 0.555710 0.520000 0.455682
v 0.459312 0.520000 0.518395
v 0.379136 0.520000 0.610159
v 0.241122 0.520000 0.608519
v 0.135604 0.520000 0.702061
v 0.000000 0.520000 0.721422
v -0.130391 0.520000 0.675069
v -0.269651 0.520000 0.680518
v -0.383629 0.520000 0.617390
v -0.480890 0.520000 0.542748
v -0.611395 0.520000 0.501344
v -0.617011 0.520000 0.367593
v -0.683272 0.520000 0.285479
v -0.845638 0.520000 0.225307
v -0.841411 0.520000 0.109278
v -0.840360 0.520000 0.000000
v -0.839423 0.520000 -0.109020
v -0.794542 0.520000 -0.211693
v -0.781289 0.520000 -0.326431
v -0.629857 0.520000 -0.375247
v -0.548932 0.520000 -0.450124
v -0.487244 0.520000 -0.549920
v -0.384470 0.520000 -0.618743
v -0.281966 0.520000 -0.711599
v -0.142409 0.520000 -0.737289
v -0.000000 0.520000 -0.698913
v 0.127855 0.520000 -0.661940
v 0.266799 0.520000 -0.673320
v 0.391938 0.520000 -0.630762
v 0.444403 0.520000 -0.501568
v 0.598069 0.520000 -0.490417
v 0.713943 0.520000 -0.425342
v 0.783934 0.520000 -0.327536
v 0.801422 0.520000 -0.213526
v 0.889104 0.520000 -0.115473
v 0.005486 0.000000 -0.006012
v 0.001468 0.520000 -0.004057
v -0.200000 0.515000 0.290000
v -0.248946 0.515000 0.391638
v -0.358928 0.515000 0.416741
v -0.447126 0.515000 0.346405
v -0.447126 0.515000 0.233595
v -0.358928 0.515000 0.163259
v -0.248946 0.515000 0.188362
v -0.253700 0.817400 0.290000
v -0.286494 0.817400 0.358098
v -0.360182 0.817400 0.374916
v -0.419274 0.817400 0.327791
v -0.419274 0.817400 0.252209
v -0.360182 0.817400 0.205084
v -0.286494 0.817400 0.221902
v -0.318250 0.914000 0.290000
v -0.328039 0.914000 0.310328
v -0.350036 0.914000 0.315348
v -0.367675 0.914000 0.301281
v -0.367675 0.914000 0.278719
v -0.350036 0.914000 0.264652
v -0.328039 0.914000 0.269672
v -0.341750 0.935000 0.290000
v -0.342974 0.935000 0.292541
v -0.345723 0.935000 0.293169
v -0.347928 0.935000 0.291410
v -0.347928 0.935000 0.288590
v -0.345723 0.935000 0.286831
v -0.342974 0.935000 0.287459
v -0.330000 0.515000 0.290000
v -0.345000 0.935000 0.290000
v 0.190000 0.515000 0.380000
v 0.118463 0.515000 0.528548
v -0.042279 0.515000 0.565236
v -0.171184 0.515000 0.462438
v -0.171184 0.515000 0.297562
v -0.042279 0.515000 0.194764
v 0.118463 0.515000 0.231452
v 0.145300 1.033400 0.380000
v 0.097370 1.033400 0.479527
v -0.010327 1.033400 0.504108
v -0.096693 1.033400 0.435233
v -0.096693 1.033400 0.324767
v -0.010327 1.033400 0.255892
v 0.097370 1.033400 0.280473
v 0.061750 1.199000 0.380000
v 0.047443 1.199000 0.409710
v 0.015294 1.199000 0.417047
v -0.010487 1.199000 0.396488
v -0.010487 1.199000 0.363512
v 0.015294 1.199000 0.342953
v 0.047443 1.199000 0.350290
v 0.029750 1.235000 0.380000
v 0.027962 1.235000 0.383714
v 0.023943 1.235000 0.384631
v 0.020720 1.235000 0.382061
v 0.020720 1.235000 0.377939
v 0.023943 1.235000 0.375369
v 0.027962 1.235000 0.376286
v -0.000000 0.515000 0.380000
v 0.025000 1.235000 0.380000
v 0.470000 0.515000 0.320000
v 0.424819 0.515000 0.413820
v 0.323297 0.515000 0.436991
v 0.241884 0.515000 0.372066
v 0.241884 0.515000 0.267934
v 0.323297 0.515000 0.203009
v 0.424819 0.515000 0.226180
v 0.441200 0.781400 0.320000
v 0.410929 0.781400 0.382859
v 0.342909 0.781400 0.398384
v 0.288362 0.781400 0.354884
v 0.288362 0.781400 0.285116
v 0.342909 0.781400 0.241616
v 0.410929 0.781400 0.257141
v 0.388250 0.866500 0.320000
v 0.379214 0.866500 0.338764
v 0.358909 0.866500 0.343398
v 0.342627 0.866500 0.330413
v 0.342627 0.866500 0.309587
v 0.358909 0.866500 0.296602
v 0.379214 0.866500 0.301236
v 0.368000 0.885000 0.320000
v 0.366870 0.885000 0.322345
v 0.364332 0.885000 0.322925
v 0.362297 0.885000 0.321302
v 0.362297 0.885000 0.318698
v 0.364332 0.885000 0.317075
v 0.366870 0.885000 0.317655
v 0.350000 0.515000 0.320000
v 0.365000 0.885000 0.320000
vt 0.926223 0.500000
vt 0.938408 0.567291
vt 0.943835 0.639753
vt 0.897721 0.696385
vt 0.829733 0.732161
vt 0.779000 0.770376
vt 0.730602 0.807586
vt 0.690349 0.862034
vt 0.621058 0.861061
vt 0.573465 0.949502
vt 0.500000 0.961898
vt 0.429360 0.932219
vt 0.364619 0.903782
vt 0.307395 0.866325
vt 0.258564 0.822037
vt 0.193043 0.797469
vt 0.190223 0.718109
vt 0.156956 0.669387
vt 0.041869 0.644255
vt 0.044159 0.569967
vt 0.044728 0.500000
vt 0.078559 0.435313
vt 0.101092 0.374393
vt 0.107746 0.306314
vt 0.183774 0.277350
vt 0.224403 0.232921
vt 0.255374 0.173708
vt 0.291710 0.103844
vt 0.347242 0.044392
vt 0.422849 0.027943
vt 0.500000 0.085304
vt 0.564191 0.107242
vt 0.633949 0.100490
vt 0.696777 0.125741
vt 0.723117 0.202397
vt 0.800267 0.209014
vt 0.886785 0.227670
vt 0.924703 0.290292
vt 0.934177 0.363288
vt 0.946384 0.431485
vt 0.934581 0.500000
vt 0.947005 0.568610
vt 0.952537 0.642493
vt 0.905520 0.700236
vt 0.836199 0.736713
vt 0.784471 0.775678
vt 0.735124 0.813617
vt 0.694081 0.869133
vt 0.623431 0.868141
vt 0.574905 0.958315
vt 0.500000 0.970955
vt 0.427975 0.940694
vt 0.361964 0.911699
vt 0.303618 0.873508
vt 0.253830 0.828351
vt 0.187024 0.803302
vt 0.184149 0.722386
vt 0.150230 0.672708
vt 0.032886 0.647083
vt 0.035221 0.571338
vt 0.035801 0.500000
vt 0.070295 0.434045
vt 0.093270 0.371930
vt 0.100055 0.302516
vt 0.177573 0.272984
vt 0.218999 0.227685
vt 0.250578 0.167311
vt 0.287626 0.096076
vt 0.344247 0.035458
vt 0.421336 0.018687
vt 0.500000 0.077173
vt 0.565450 0.099541
vt 0.636575 0.092656
vt 0.700635 0.118403
vt 0.727492 0.196562
vt 0.806154 0.203309
vt 0.894369 0.222331
vt 0.933030 0.286180
vt 0.942690 0.360607
vt 0.955136 0.430142
vt 0.827809 0.500000
vt 0.837180 0.551753
vt 0.841354 0.607484
vt 0.830074 0.662983
vt 0.773650 0.692673
vt 0.731546 0.724389
vt 0.691380 0.755270
vt 0.657973 0.800457
vt 0.600467 0.799649
vt 0.556502 0.845712
vt 0.500000 0.855246
vt 0.445671 0.832420
vt 0.387645 0.835104
vt 0.340154 0.804018
vt 0.299629 0.767262
vt 0.245252 0.746874
vt 0.242912 0.681012
vt 0.215303 0.640577
vt 0.147651 0.610947
vt 0.149412 0.553811
vt 0.149850 0.500000
vt 0.150240 0.446316
vt 0.168941 0.395757
vt 0.174463 0.339258
vt 0.237560 0.315219
vt 0.271278 0.278348
vt 0.296982 0.229206
vt 0.339804 0.195316
vt 0.382514 0.149591
vt 0.440663 0.136941
vt 0.500000 0.155838
vt 0.553273 0.174045
vt 0.611166 0.168441
vt 0.663308 0.189397
vt 0.685168 0.253016
vt 0.749195 0.258507
vt 0.797476 0.290551
vt 0.826639 0.338713
vt 0.833926 0.394855
vt 0.870460 0.443139
vt 0.813399 0.500000
vt 0.822359 0.549479
vt 0.826349 0.602760
vt 0.815565 0.655819
vt 0.761622 0.684204
vt 0.721368 0.714526
vt 0.682968 0.744049
vt 0.651029 0.787250
vt 0.596051 0.786478
vt 0.554018 0.830516
vt 0.500000 0.839631
vt 0.448059 0.817808
vt 0.392584 0.820374
vt 0.347181 0.790654
vt 0.308437 0.755515
vt 0.256450 0.736022
vt 0.254213 0.673055
vt 0.227817 0.634397
vt 0.163139 0.606070
vt 0.164823 0.551446
vt 0.165241 0.500000
vt 0.165614 0.448676
vt 0.183493 0.400339
vt 0.188772 0.346323
vt 0.249095 0.323342
vt 0.281332 0.288091
vt 0.305906 0.241109
vt 0.346846 0.208708
vt 0.387678 0.164994
vt 0.443271 0.152900
vt 0.500000 0.170966
vt 0.550931 0.188372
vt 0.606280 0.183015
vt 0.656129 0.203050
vt 0.677029 0.263872
vt 0.738242 0.269122
vt 0.784401 0.299758
vt 0.812281 0.345803
vt 0.819248 0.399476
vt 0.854176 0.445638
vt 0.802593 0.500000
vt 0.811243 0.547772
vt 0.815096 0.599216
vt 0.804684 0.650446
vt 0.752600 0.677852
vt 0.713735 0.707128
vt 0.676658 0.735634
vt 0.645822 0.777345
vt 0.592739 0.776599
vt 0.552156 0.819119
vt 0.500000 0.827919
vt 0.449850 0.806850
vt 0.396288 0.809326
vt 0.352450 0.780632
vt 0.315042 0.746704
vt 0.264848 0.727884
vt 0.262688 0.667088
vt 0.237203 0.629763
vt 0.174755 0.602412
vt 0.176380 0.549672
vt 0.176784 0.500000
vt 0.177145 0.450445
vt 0.194407 0.403776
vt 0.199504 0.351622
vt 0.257747 0.329433
vt 0.288872 0.295398
vt 0.312599 0.250037
vt 0.352127 0.218753
vt 0.391551 0.176546
vt 0.445227 0.164868
vt 0.500000 0.182312
vt 0.549175 0.199118
vt 0.602615 0.193946
vt 0.650745 0.213290
vt 0.670924 0.272014
vt 0.730027 0.277083
vt 0.774594 0.306663
vt 0.801513 0.351120
vt 0.808239 0.402943
vt 0.841963 0.447512
vt 0.502110 0.497267
vt 0.500565 0.498156
vt 0.423077 0.631818
vt 0.404251 0.678017
vt 0.361951 0.689428
vt 0.328028 0.657457
vt 0.328028 0.606180
vt 0.361951 0.574209
vt 0.404251 0.585619
vt 0.402423 0.631818
vt 0.389810 0.662772
vt 0.361469 0.670416
vt 0.338741 0.648996
vt 0.338741 0.614640
vt 0.361469 0.593220
vt 0.389810 0.600865
vt 0.377596 0.631818
vt 0.373831 0.641058
vt 0.365371 0.643340
vt 0.358586 0.636946
vt 0.358586 0.626690
vt 0.365371 0.620296
vt 0.373831 0.622578
vt 0.368558 0.631818
vt 0.368087 0.632973
vt 0.367030 0.633258
vt 0.366181 0.632459
vt 0.366181 0.631177
vt 0.367030 0.630378
vt 0.368087 0.630663
vt 0.373077 0.631818
vt 0.367308 0.631818
vt 0.573077 0.672727
vt 0.545563 0.740249
vt 0.483739 0.756926
vt 0.434160 0.710199
vt 0.434160 0.635255
vt 0.483739 0.588529
vt 0.545563 0.605205
vt 0.555885 0.672727
vt 0.537450 0.717967
vt 0.496028 0.729140
vt 0.462810 0.697833
vt 0.462810 0.647621
vt 0.496028 0.616314
vt 0.537450 0.627488
vt 0.523750 0.672727
vt 0.518247 0.686232
vt 0.505882 0.689567
vt 0.495967 0.680222
vt 0.495967 0.665233
vt 0.505882 0.655888
vt 0.518247 0.659223
vt 0.511442 0.672727
vt 0.510754 0.674415
vt 0.509209 0.674832
vt 0.507969 0.673664
vt 0.507969 0.671790
vt 0.509209 0.670622
vt 0.510754 0.671039
vt 0.500000 0.672727
vt 0.509615 0.672727
vt 0.680769 0.645455
vt 0.663392 0.688100
vt 0.624345 0.698632
vt 0.593032 0.669121
vt 0.593032 0.621788
vt 0.624345 0.592277
vt 0.663392 0.602809
vt 0.669692 0.645455
vt 0.658049 0.674027
vt 0.631888 0.681084
vt 0.610909 0.661311
vt 0.610909 0.629598
vt 0.631888 0.609825
vt 0.658049 0.616882
vt 0.649327 0.645455
vt 0.645851 0.653984
vt 0.638042 0.656090
vt 0.631780 0.650188
vt 0.631780 0.640721
vt 0.638042 0.634819
vt 0.645851 0.636925
vt 0.641538 0.645455
vt 0.641104 0.646521
vt 0.640128 0.646784
vt 0.639345 0.646046
vt 0.639345 0.644863
vt 0.640128 0.644125
vt 0.641104 0.644388
vt 0.634615 0.645455
vt 0.640385 0.645455
vn 0.970322 -0.140561 -0.196771
vn 0.969523 -0.130294 -0.207482
vn 0.985731 -0.134441 -0.101295
vn 0.984781 -0.150371 -0.087153
vn 0.715600 -0.140417 0.684252
vn 0.713040 -0.144041 0.686168
vn 0.394456 -0.111740 0.912096
vn 0.404725 -0.099713 0.908986
vn 0.536914 -0.109096 0.836554
vn 0.534095 -0.112104 0.837959
vn 0.552122 -0.112866 0.826089
vn 0.540981 -0.125831 0.831568
vn 0.740749 -0.126333 0.659796
vn 0.747963 -0.116116 0.653505
vn -0.018039 -0.102112 0.994609
vn -0.011830 -0.095489 0.995360
vn 0.844143 -0.083289 0.529609
vn 0.840107 -0.093579 0.534287
vn 0.142319 -0.135421 0.980513
vn 0.139980 -0.138556 0.980412
vn -0.343726 -0.131407 0.929830
vn -0.332671 -0.116708 0.935794
vn -0.342925 -0.116509 0.932110
vn -0.345864 -0.120299 0.930541
vn -0.471107 -0.119514 0.873942
vn -0.480186 -0.133292 0.866980
vn -0.611562 -0.132680 0.779992
vn -0.604281 -0.121853 0.787398
vn -0.306754 -0.112102 0.945164
vn -0.300755 -0.104478 0.947961
vn -0.993610 -0.100391 0.051588
vn -0.992875 -0.111630 0.041689
vn -0.770562 -0.125357 0.624915
vn -0.771849 -0.127775 0.622835
vn -0.185582 -0.073661 0.979864
vn -0.181324 -0.064636 0.981297
vn -0.989207 -0.143196 -0.031057
vn -0.988296 -0.148239 -0.036002
vn -0.988800 -0.149133 0.005793
vn -0.986125 -0.165736 -0.009480
vn -0.836452 -0.140581 -0.529702
vn -0.843471 -0.129470 -0.521339
vn -0.904036 -0.135933 -0.405268
vn -0.908760 -0.127878 -0.397243
vn -0.986841 -0.127710 -0.099175
vn -0.983116 -0.143480 -0.113563
vn -0.306264 -0.097721 -0.946917
vn -0.305306 -0.099040 -0.947090
vn -0.661967 -0.125540 -0.738945
vn -0.674905 -0.111640 -0.729410
vn -0.847684 -0.111635 -0.518622
vn -0.844837 -0.116284 -0.522234
vn -0.851358 -0.115843 -0.511635
vn -0.844791 -0.129255 -0.519252
vn -0.657325 -0.142170 -0.740075
vn -0.665717 -0.129462 -0.734888
vn -0.173098 -0.135357 -0.975559
vn -0.179562 -0.127589 -0.975437
vn 0.524210 -0.094117 -0.846372
vn 0.529547 -0.105083 -0.841747
vn 0.274874 -0.119106 -0.954074
vn 0.275779 -0.120283 -0.953665
vn -0.069411 -0.116746 -0.990733
vn -0.081195 -0.103046 -0.991357
vn 0.315539 -0.114628 -0.941964
vn 0.319654 -0.119800 -0.939931
vn 0.918682 -0.100265 -0.382060
vn 0.920825 -0.110668 -0.373943
vn 0.078743 -0.098757 -0.991991
vn 0.072091 -0.089291 -0.993393
vn 0.182399 -0.099146 -0.978213
vn 0.178713 -0.093318 -0.979466
vn 0.796519 -0.140407 -0.588085
vn 0.803015 -0.157976 -0.574640
vn 0.976008 -0.157338 -0.150509
vn 0.975991 -0.158205 -0.149708
vn 0.969656 -0.158721 -0.185944
vn 0.968575 -0.141006 -0.204889
vn 0.939532 -0.127271 0.317933
vn 0.935801 -0.135560 0.325423
vn 0.035782 0.993330 -0.109611
vn 0.046140 0.995146 -0.086920
vn 0.017053 0.990588 0.135810
vn 0.006858 0.994617 0.103396
vn 0.024359 0.998970 0.038275
vn 0.027010 0.998002 0.057125
vn 0.087640 0.992196 -0.088697
vn 0.085598 0.995489 -0.040931
vn 0.011535 0.996442 0.083484
vn 0.012594 0.997251 0.073023
vn -0.056318 0.986138 0.156076
vn -0.050063 0.991318 0.121584
vn 0.113103 0.993321 -0.022830
vn 0.110267 0.993898 -0.002733
vn 0.074347 0.997036 0.019793
vn 0.060219 0.997287 0.042324
vn -0.067730 0.993382 0.092764
vn -0.056066 0.997120 0.051080
vn -0.016517 0.998916 0.043514
vn -0.011546 0.999163 0.039251
vn 0.118033 0.992244 0.038979
vn 0.079473 0.995199 0.057130
vn -0.032963 0.998824 0.035565
vn -0.045493 0.998114 0.041206
vn -0.134746 0.990865 0.005410
vn -0.106854 0.994274 -0.001359
vn 0.047035 0.994435 0.094274
vn 0.024058 0.995152 0.095363
vn 0.040207 0.993171 0.109524
vn 0.025696 0.993448 0.111361
vn -0.156599 0.981299 -0.111928
vn -0.119599 0.988537 -0.092146
vn -0.056403 0.998295 0.015002
vn -0.051898 0.998507 0.017038
vn 0.028035 0.978258 0.205487
vn 0.022045 0.978346 0.205801
vn -0.046141 0.997797 -0.047672
vn -0.038325 0.998612 -0.036116
vn -0.050871 0.989530 -0.135068
vn -0.033528 0.994187 -0.102315
vn -0.033500 0.993369 0.109978
vn -0.055226 0.996906 0.055937
vn -0.056518 0.996208 0.066144
vn -0.063045 0.996930 0.046442
vn -0.012335 0.989716 -0.142512
vn -0.003042 0.993291 -0.115604
vn -0.015255 0.996116 -0.086724
vn -0.015724 0.996601 -0.080863
vn -0.120940 0.987941 0.096675
vn -0.119388 0.991229 0.056664
vn -0.016608 0.997462 -0.069238
vn -0.016799 0.998151 -0.058418
vn 0.057462 0.990659 -0.123664
vn 0.044170 0.996347 -0.073081
vn -0.104067 0.994386 0.019119
vn -0.093890 0.995580 -0.002447
vn -0.065898 0.997733 -0.013624
vn -0.053016 0.998197 -0.028129
vn 0.132023 0.989209 -0.063524
vn 0.122827 0.990776 -0.057249
vn 0.027213 0.997965 -0.057664
vn 0.024802 0.998117 -0.056104
vn -0.128963 0.987984 -0.085186
vn -0.107741 0.988932 -0.102006
vn 0.063200 0.997395 -0.034779
vn 0.052487 0.998131 -0.031291
vn 0.166966 0.985123 0.040675
vn 0.130470 0.990805 0.035823
vn -0.072491 0.986963 -0.143696
vn -0.056589 0.987021 -0.150290
vn -0.015294 0.994812 -0.100571
vn -0.020811 0.994648 -0.101204
vn 0.098219 0.990240 0.098884
vn 0.068898 0.994503 0.078852
vn 0.036593 0.999330 0.001115
vn 0.035252 0.999378 -0.000332
vn -0.008753 0.986458 -0.163780
vn 0.028696 0.991633 -0.125858
vn 0.063028 0.988186 0.139697
vn 0.035880 0.996048 0.081249
vn 0.968984 0.113443 -0.219546
vn 0.969122 0.113278 -0.219023
vn 0.990486 0.118173 -0.070523
vn 0.990404 0.118428 -0.071234
vn 0.963727 0.125147 0.235729
vn 0.963762 0.125213 0.235553
vn 0.415404 0.093534 0.904815
vn 0.414927 0.093249 0.905064
vn 0.531596 0.100920 0.840964
vn 0.531728 0.100991 0.840872
vn 0.530600 0.100946 0.841590
vn 0.531084 0.101196 0.841254
vn 0.755572 0.101565 0.647144
vn 0.755295 0.101404 0.647493
vn -0.004783 0.090157 0.995916
vn -0.005105 0.090002 0.995929
vn 0.652455 0.091532 0.752280
vn 0.652784 0.091733 0.751969
vn 0.138087 0.105668 0.984767
vn 0.138193 0.105717 0.984747
vn -0.320735 0.101102 0.941758
vn -0.321328 0.100823 0.941585
vn 0.035343 0.099212 0.994438
vn 0.035497 0.099279 0.994426
vn -0.493086 0.107215 0.863349
vn -0.492600 0.107463 0.863596
vn -0.596813 0.107128 0.795197
vn -0.597215 0.106940 0.794920
vn -0.293935 0.097827 0.950806
vn -0.294256 0.097700 0.950720
vn -0.995232 0.092791 0.030068
vn -0.995193 0.093047 0.030550
vn -0.775546 0.105258 0.622454
vn -0.775472 0.105295 0.622540
vn -0.339248 0.074332 0.937756
vn -0.339588 0.074171 0.937645
vn -0.991471 0.123355 -0.042065
vn -0.991468 0.123462 -0.041809
vn -0.991941 0.123760 -0.027142
vn -0.991925 0.124044 -0.026407
vn -0.992254 0.124085 0.005879
vn -0.992285 0.123866 0.005221
vn -0.913778 0.120438 -0.387948
vn -0.913612 0.120257 -0.388397
vn -0.983950 0.120484 -0.131625
vn -0.984015 0.120762 -0.130882
vn -0.304807 0.081533 -0.948918
vn -0.304850 0.081560 -0.948902
vn -0.687877 0.104581 -0.718253
vn -0.687322 0.104294 -0.718826
vn -0.843081 0.104208 -0.527593
vn -0.843199 0.104295 -0.527388
vn -0.542156 0.107507 -0.833372
vn -0.542605 0.107747 -0.833049
vn -0.674985 0.105851 -0.730199
vn -0.674663 0.105666 -0.730524
vn -0.187062 0.111204 -0.976034
vn -0.186742 0.111052 -0.976112
vn 0.270148 0.099348 -0.957680
vn 0.269676 0.099614 -0.957785
vn 0.277434 0.099386 -0.955590
vn 0.277389 0.099407 -0.955601
vn -0.093542 0.095836 -0.990992
vn -0.092976 0.095610 -0.991067
vn 0.325287 0.107053 -0.939536
vn 0.325061 0.107153 -0.939603
vn 0.926398 0.088388 -0.366025
vn 0.926236 0.088600 -0.366384
vn 0.065287 0.078565 -0.994769
vn 0.065600 0.078434 -0.994759
vn 0.480774 0.106307 -0.870376
vn 0.481056 0.106190 -0.870235
vn 0.817332 0.122470 -0.563001
vn 0.816882 0.122764 -0.563590
vn 0.981213 0.121759 -0.149651
vn 0.981206 0.121774 -0.149688
vn 0.731124 0.108595 -0.673546
vn 0.731602 0.108362 -0.673065
vn 0.741660 0.086697 0.665150
vn 0.741812 0.086847 0.664960
vn 0.806025 0.566190 -0.172493
vn 0.696877 0.681857 -0.222337
vn 0.702566 0.708897 -0.062177
vn 0.839718 0.543004 0.004419
vn 0.808516 0.555507 0.194200
vn 0.823578 0.524618 0.215628
vn 0.370549 0.412418 0.832229
vn 0.388277 0.613955 0.687240
vn 0.419635 0.624856 0.658378
vn 0.424631 0.567801 0.705188
vn 0.447182 0.572304 0.687384
vn 0.443277 0.423065 0.790267
vn 0.680508 0.428248 0.594569
vn 0.675461 0.519170 0.523655
vn -0.010430 0.479379 0.877546
vn 0.038713 0.614475 0.787986
vn 0.524735 0.611800 0.591907
vn 0.553647 0.445121 0.703805
vn 0.123401 0.487610 0.864297
vn 0.114544 0.462251 0.879320
vn -0.300156 0.443858 0.844332
vn -0.180875 0.630043 0.755202
vn 0.030670 0.620261 0.783795
vn 0.012052 0.563460 0.826055
vn -0.390980 0.590603 0.705919
vn -0.480081 0.447720 0.754367
vn -0.544912 0.446000 0.710039
vn -0.464993 0.547746 0.695526
vn -0.258865 0.516966 0.815926
vn -0.191509 0.622794 0.758585
vn -0.783538 0.620472 0.032900
vn -0.903604 0.428065 -0.016130
vn -0.681384 0.483111 0.549835
vn -0.696811 0.463391 0.547470
vn -0.325894 0.347115 0.879377
vn -0.256539 0.482744 0.837344
vn -0.708035 0.705706 -0.025793
vn -0.767759 0.638041 -0.058730
vn -0.766312 0.642426 -0.007367
vn -0.862956 0.499020 -0.079285
vn -0.865657 0.500582 -0.007440
vn -0.792720 0.606262 0.063577
vn -0.733611 0.599149 -0.320680
vn -0.662939 0.715135 -0.221572
vn -0.697442 0.712098 -0.080564
vn -0.823380 0.539646 -0.175577
vn -0.282478 0.390317 -0.876276
vn -0.279967 0.374433 -0.883979
vn -0.602983 0.460135 -0.651680
vn -0.589944 0.648127 -0.481558
vn -0.650176 0.644781 -0.401905
vn -0.679905 0.574431 -0.455805
vn -0.451845 0.583583 -0.674734
vn -0.450829 0.447676 -0.772230
vn -0.602228 0.441996 -0.664802
vn -0.600042 0.545035 -0.585565
vn -0.148417 0.572659 -0.806247
vn -0.176083 0.681176 -0.710629
vn 0.199502 0.641972 -0.740318
vn 0.282889 0.452093 -0.845923
vn 0.247129 0.456726 -0.854592
vn 0.253247 0.445471 -0.858733
vn -0.073550 0.433772 -0.898016
vn -0.141740 0.596508 -0.789992
vn 0.242514 0.657775 -0.713105
vn 0.290116 0.580014 -0.761194
vn 0.799207 0.505898 -0.324554
vn 0.873462 0.374108 -0.311619
vn 0.067974 0.343561 -0.936667
vn 0.027549 0.431242 -0.901816
vn 0.405428 0.560760 -0.721926
vn 0.333474 0.651574 -0.681356
vn 0.568705 0.714810 -0.406967
vn 0.727719 0.538733 -0.424491
vn 0.837795 0.530645 -0.128510
vn 0.842542 0.523794 -0.125549
vn 0.652630 0.483210 -0.583595
vn 0.514029 0.636143 -0.575409
vn 0.608590 0.581862 0.539496
vn 0.646354 0.454029 0.613257
vn 0.000000 -1.000000 0.000000
vn 0.000000 -1.000000 0.000000
vn 0.000000 -1.000000 0.000000
vn 0.000000 -1.000000 0.000000
vn 0.000000 -1.000000 0.000000
vn 0.000000 -1.000000 0.000000
vn 0.000000 -1.000000 0.000000
vn 0.000000 -1.000000 0.000000
vn 0.000000 -1.000000 0.000000
vn 0.000000 -1.000000 0.000000
vn 0.000000 -1.000000 0.000000
vn 0.000000 -1.000000 0.000000
vn 0.000000 -1.000000 0.000000
vn 0.000000 -1.000000 0.000000
vn 0.000000 -1.000000 0.000000
vn 0.000000 -1.000000 0.000000
vn 0.000000 -1.000000 0.000000
vn 0.000000 -1.000000 0.000000
vn 0.000000 -1.000000 0.000000
vn 0.000000 -1.000000 0.000000
vn -0.000000 -1.000000 0.000000
vn 0.000000 -1.000000 0.000000
vn 0.000000 -1.000000 0.000000
vn 0.000000 -1.000000 0.000000
vn 0.000000 -1.000000 0.000000
vn 0.000000 -1.000000 0.000000
vn 0.000000 -1.000000 0.000000
vn 0.000000 -1.000000 0.000000
vn 0.000000 -1.000000 0.000000
vn 0.000000 -1.000000 0.000000
vn 0.000000 -1.000000 -0.000000
vn 0.000000 -1.000000 0.000000
vn 0.000000 -1.000000 0.000000
vn 0.000000 -1.000000 0.000000
vn 0.000000 -1.000000 0.000000
vn 0.000000 -1.000000 0.000000
vn 0.000000 -1.000000 0.000000
vn 0.000000 -1.000000 0.000000
vn 0.000000 -1.000000 0.000000
vn 0.000000 -1.000000 0.000000
vn 0.000000 1.000000 0.000000
vn 0.000000 1.000000 0.000000
vn 0.000000 1.000000 0.000000
vn 0.000000 1.000000 0.000000
vn 0.000000 1.000000 0.000000
vn 0.000000 1.000000 0.000000
vn 0.000000 1.000000 0.000000
vn 0.000000 1.000000 0.000000
vn 0.000000 1.000000 0.000000
vn 0.000000 1.000000 -0.000000
vn 0.000000 1.000000 0.000000
vn 0.000000 1.000000 0.000000
vn 0.000000 1.000000 0.000000
vn 0.000000 1.000000 0.000000
vn 0.000000 1.000000 0.000000
vn 0.000000 1.000000 0.000000
vn 0.000000 1.000000 0.000000
vn 0.000000 1.000000 0.000000
vn 0.000000 1.000000 0.000000
vn 0.000000 1.000000 0.000000
vn 0.000000 1.000000 0.000000
vn 0.000000 1.000000 0.000000
vn 0.000000 1.000000 0.000000
vn 0.000000 1.000000 0.000000
vn 0.000000 1.000000 0.000000
vn 0.000000 1.000000 0.000000
vn 0.000000 1.000000 0.000000
vn 0.000000 1.000000 0.000000
vn 0.000000 1.000000 0.000000
vn 0.000000 1.000000 0.000000
vn 0.000000 1.000000 0.000000
vn 0.000000 1.000000 0.000000
vn 0.000000 1.000000 0.000000
vn 0.000000 1.000000 0.000000
vn 0.000000 1.000000 0.000000
vn 0.000000 1.000000 0.000000
vn 0.000000 1.000000 0.000000
vn 0.000000 1.000000 0.000000
vn 0.000000 1.000000 0.000000
vn -0.000000 1.000000 0.000000
vn 0.889654 0.157984 0.428435
vn 0.889654 0.157984 0.428435
vn 0.220498 0.134529 0.966065
vn 0.220498 0.134529 0.966065
vn -0.620046 0.104965 0.777513
vn -0.620046 0.104965 0.777513
vn -0.995785 0.091714 0.000000
vn -0.995785 0.091714 0.000000
vn -0.620046 0.104965 -0.777513
vn -0.620046 0.104965 -0.777513
vn 0.220498 0.134529 -0.966065
vn 0.220498 0.134529 -0.966065
vn 0.889654 0.157984 -0.428435
vn 0.889654 0.157984 -0.428435
vn 0.771877 0.515783 0.371716
vn 0.771877 0.515783 0.371716
vn 0.192670 0.500302 0.844143
vn 0.192670 0.500302 0.844143
vn -0.546865 0.480302 0.685747
vn -0.546865 0.480302 0.685747
vn -0.882052 0.471151 0.000000
vn -0.882052 0.471151 0.000000
vn -0.546865 0.480302 -0.685747
vn -0.546865 0.480302 -0.685747
vn 0.192670 0.500302 -0.844143
vn 0.192670 0.500302 -0.844143
vn 0.771877 0.515783 -0.371716
vn 0.771877 0.515783 -0.371716
vn 0.634466 0.709998 0.305543
vn 0.634466 0.709998 0.305543
vn 0.158610 0.701380 0.694916
vn 0.158610 0.701380 0.694916
vn -0.451177 0.690187 0.565758
vn -0.451177 0.690187 0.565758
vn -0.728506 0.685040 0.000000
vn -0.728506 0.685040 0.000000
vn -0.451177 0.690187 -0.565758
vn -0.451177 0.690187 -0.565758
vn 0.158610 0.701380 -0.694916
vn 0.158610 0.701380 -0.694916
vn 0.634466 0.709998 -0.305543
vn 0.634466 0.709998 -0.305543
vn 0.000000 -1.000000 0.000000
vn 0.000000 -1.000000 0.000000
vn 0.000000 -1.000000 0.000000
vn -0.000000 -1.000000 0.000000
vn 0.000000 -1.000000 0.000000
vn 0.000000 -1.000000 -0.000000
vn 0.000000 -1.000000 0.000000
vn -0.000000 1.000000 -0.000000
vn -0.000000 1.000000 -0.000000
vn 0.000000 1.000000 -0.000000
vn 0.000000 1.000000 0.000000
vn 0.000000 1.000000 0.000000
vn -0.000000 1.000000 0.000000
vn -0.000000 1.000000 0.000000
vn 0.898262 0.077454 0.432580
vn 0.898262 0.077454 0.432580
vn 0.221389 0.100730 0.969969
vn 0.221389 0.100730 0.969969
vn -0.618238 0.129520 0.775246
vn -0.618238 0.129520 0.775246
vn -0.989833 0.142233 0.000000
vn -0.989833 0.142233 0.000000
vn -0.618238 0.129520 -0.775246
vn -0.618238 0.129520 -0.775246
vn 0.221389 0.100730 -0.969969
vn 0.221389 0.100730 -0.969969
vn 0.898262 0.077454 -0.432580
vn 0.898262 0.077454 -0.432580
vn 0.820206 0.413818 0.394990
vn 0.820206 0.413818 0.394990
vn 0.200755 0.431354 0.879563
vn 0.200755 0.431354 0.879563
vn -0.555989 0.452554 0.697188
vn -0.555989 0.452554 0.697188
vn -0.887009 0.461751 0.000000
vn -0.887009 0.461751 0.000000
vn -0.555989 0.452554 -0.697188
vn -0.555989 0.452554 -0.697188
vn 0.200755 0.431354 -0.879563
vn 0.200755 0.431354 -0.879563
vn 0.820206 0.413818 -0.394990
vn 0.820206 0.413818 -0.394990
vn 0.703243 0.625105 0.338664
vn 0.703243 0.625105 0.338664
vn 0.171696 0.636116 0.752248
vn 0.171696 0.636116 0.752248
vn -0.474173 0.649322 0.594594
vn -0.474173 0.649322 0.594594
vn -0.755614 0.655017 0.000000
vn -0.755614 0.655017 0.000000
vn -0.474173 0.649322 -0.594594
vn -0.474173 0.649322 -0.594594
vn 0.171696 0.636116 -0.752248
vn 0.171696 0.636116 -0.752248
vn 0.703243 0.625105 -0.338664
vn 0.703243 0.625105 -0.338664
vn 0.000000 -1.000000 0.000000
vn 0.000000 -1.000000 0.000000
vn 0.000000 -1.000000 0.000000
vn -0.000000 -1.000000 0.000000
vn 0.000000 -1.000000 0.000000
vn 0.000000 -1.000000 -0.000000
vn 0.000000 -1.000000 0.000000
vn 0.000000 1.000000 0.000000
vn 0.000000 1.000000 -0.000000
vn 0.000000 1.000000 0.000000
vn 0.000000 1.000000 0.000000
vn 0.000000 1.000000 0.000000
vn 0.000000 1.000000 0.000000
vn -0.000000 1.000000 0.000000
vn 0.896725 0.096943 0.431840
vn 0.896725 0.096943 0.431840
vn 0.220805 0.123944 0.967411
vn 0.220805 0.123944 0.967411
vn -0.615735 0.157224 0.772108
vn -0.615735 0.157224 0.772108
vn -0.985119 0.171872 0.000000
vn -0.985119 0.171872 0.000000
vn -0.615735 0.157224 -0.772108
vn -0.615735 0.157224 -0.772108
vn 0.220805 0.123944 -0.967411
vn 0.220805 0.123944 -0.967411
vn 0.896725 0.096943 -0.431840
vn 0.896725 0.096943 -0.431840
vn 0.785903 0.488996 0.378471
vn 0.785903 0.488996 0.378471
vn 0.191810 0.506931 0.840375
vn 0.191810 0.506931 0.840375
vn -0.529337 0.528407 0.663768
vn -0.529337 0.528407 0.663768
vn -0.843167 0.537652 0.000000
vn -0.843167 0.537652 0.000000
vn -0.529337 0.528407 -0.663768
vn -0.529337 0.528407 -0.663768
vn 0.191810 0.506931 -0.840375
vn 0.191810 0.506931 -0.840375
vn 0.785903 0.488996 -0.378471
vn 0.785903 0.488996 -0.378471
vn 0.641494 0.702175 0.308927
vn 0.641494 0.702175 0.308927
vn 0.156272 0.711901 0.684672
vn 0.156272 0.711901 0.684672
vn -0.430423 0.723480 0.539734
vn -0.430423 0.723480 0.539734
vn -0.685104 0.728445 0.000000
vn -0.685104 0.728445 0.000000
vn -0.430423 0.723480 -0.539734
vn -0.430423 0.723480 -0.539734
vn 0.156272 0.711901 -0.684672
vn 0.156272 0.711901 -0.684672
vn 0.641494 0.702175 -0.308927
vn 0.641494 0.702175 -0.308927
vn 0.000000 -1.000000 0.000000
vn 0.000000 -1.000000 0.000000
vn 0.000000 -1.000000 0.000000
vn -0.000000 -1.000000 0.000000
vn 0.000000 -1.000000 0.000000
vn 0.000000 -1.000000 -0.000000
vn 0.000000 -1.000000 0.000000
vn 0.000000 1.000000 0.000000
vn 0.000000 1.000000 -0.000000
vn 0.000000 1.000000 0.000000
vn 0.000000 1.000000 0.000000
vn 0.000000 1.000000 0.000000
vn 0.000000 1.000000 0.000000
vn -0.000000 1.000000 0.000000
usemtl BlueIce
f 1/1/1 41/41/1 42/42/1
f 1/1/2 42/42/2 2/2/2
f 2/2/3 42/42/3 43/43/3
f 2/2/4 43/43/4 3/3/4
f 3/3/5 43/43/5 44/44/5
f 3/3/6 44/44/6 4/4/6
f 4/4/7 44/44/7 45/45/7
f 4/4/8 45/45/8 5/5/8
f 5/5/9 45/45/9 46/46/9
f 5/5/10 46/46/10 6/6/10
f 6/6/11 46/46/11 47/47/11
f 6/6/12 47/47/12 7/7/12
f 7/7/13 47/47/13 48/48/13
f 7/7/14 48/48/14 8/8/14
f 8/8/15 48/48/15 49/49/15
f 8/8/16 49/49/16 9/9/16
f 9/9/17 49/49/17 50/50/17
f 9/9/18 50/50/18 10/10/18
f 10/10/19 50/50/19 51/51/19
f 10/10/20 51/51/20 11/11/20
f 11/11/21 51/51/21 52/52/21
f 11/11/22 52/52/22 12/12/22
f 12/12/23 52/52/23 53/53/23
f 12/12/24 53/53/24 13/13/24
f 13/13/25 53/53/25 54/54/25
f 13/13/26 54/54/26 14/14/26
f 14/14/27 54/54/27 55/55/27
f 14/14/28 55/55/28 15/15/28
f 15/15/29 55/55/29 56/56/29
f 15/15/30 56/56/30 16/16/30
f 16/16/31 56/56/31 57/57/31
f 16/16/32 57/57/32 17/17/32
f 17/17/33 57/57/33 58/58/33
f 17/17/34 58/58/34 18/18/34
f 18/18/35 58/58/35 59/59/35
f 18/18/36 59/59/36 19/19/36
f 19/19/37 59/59/37 60/60/37
f 19/19/38 60/60/38 20/20/38
f 20/20/39 60/60/39 61/61/39
f 20/20/40 61/61/40 21/21/40
f 21/21/41 61/61/41 62/62/41
f 21/21/42 62/62/42 22/22/42
f 22/22/43 62/62/43 63/63/43
f 22/22/44 63/63/44 23/23/44
f 23/23/45 63/63/45 64/64/45
f 23/23/46 64/64/46 24/24/46
f 24/24/47 64/64/47 65/65/47
f 24/24/48 65/65/48 25/25/48
f 25/25/49 65/65/49 66/66/49
f 25/25/50 66/66/50 26/26/50
f 26/26/51 66/66/51 67/67/51
f 26/26/52 67/67/52 27/27/52
f 27/27/53 67/67/53 68/68/53
f 27/27/54 68/68/54 28/28/54
f 28/28/55 68/68/55 69/69/55
f 28/28/56 69/69/56 29/29/56
f 29/29/57 69/69/57 70/70/57
f 29/29/58 70/70/58 30/30/58
f 30/30/59 70/70/59 71/71/59
f 30/30/60 71/71/60 31/31/60
f 31/31/61 71/71/61 72/72/61
f 31/31/62 72/72/62 32/32/62
f 32/32/63 72/72/63 73/73/63
f 32/32/64 73/73/64 33/33/64
f 33/33/65 73/73/65 74/74/65
f 33/33/66 74/74/66 34/34/66
f 34/34/67 74/74/67 75/75/67
f 34/34/68 75/75/68 35/35/68
f 35/35/69 75/75/69 76/76/69
f 35/35/70 76/76/70 36/36/70
f 36/36/71 76/76/71 77/77/71
f 36/36/72 77/77/72 37/37/72
f 37/37/73 77/77/73 78/78/73
f 37/37/74 78/78/74 38/38/74
f 38/38/75 78/78/75 79/79/75
f 38/38/76 79/79/76 39/39/76
f 39/39/77 79/79/77 80/80/77
f 39/39/78 80/80/78 40/40/78
f 40/40/79 80/80/79 41/41/79
f 40/40/80 41/41/80 1/1/80
usemtl Snow
f 41/41/81 81/81/81 82/82/81
f 41/41/82 82/82/82 42/42/82
f 42/42/83 82/82/83 83/83/83
f 42/42/84 83/83/84 43/43/84
f 43/43/85 83/83/85 84/84/85
f 43/43/86 84/84/86 44/44/86
f 44/44/87 84/84/87 85/85/87
f 44/44/88 85/85/88 45/45/88
f 45/45/89 85/85/89 86/86/89
f 45/45/90 86/86/90 46/46/90
f 46/46/91 86/86/91 87/87/91
f 46/46/92 87/87/92 47/47/92
f 47/47/93 87/87/93 88/88/93
f 47/47/94 88/88/94 48/48/94
f 48/48/95 88/88/95 89/89/95
f 48/48/96 89/89/96 49/49/96
f 49/49/97 89/89/97 90/90/97
f 49/49/98 90/90/98 50/50/98
f 50/50/99 90/90/99 91/91/99
f 50/50/100 91/91/100 51/51/100
f 51/51/101 91/91/101 92/92/101
f 51/51/102 92/92/102 52/52/102
f 52/52/103 92/92/103 93/93/103
f 52/52/104 93/93/104 53/53/104
f 53/53/105 93/93/105 94/94/105
f 53/53/106 94/94/106 54/54/106
f 54/54/107 94/94/107 95/95/107
f 54/54/108 95/95/108 55/55/108
f 55/55/109 95/95/109 96/96/109
f 55/55/110 96/96/110 56/56/110
f 56/56/111 96/96/111 97/97/111
f 56/56/112 97/97/112 57/57/112
f 57/57/113 97/97/113 98/98/113
f 57/57/114 98/98/114 58/58/114
f 58/58/115 98/98/115 99/99/115
f 58/58/116 99/99/116 59/59/116
f 59/59/117 99/99/117 100/100/117
f 59/59/118 100/100/118 60/60/118
f 60/60/119 100/100/119 101/101/119
f 60/60/120 101/101/120 61/61/120
f 61/61/121 101/101/121 102/102/121
f 61/61/122 102/102/122 62/62/122
f 62/62/123 102/102/123 103/103/123
f 62/62/124 103/103/124 63/63/124
f 63/63/125 103/103/125 104/104/125
f 63/63/126 104/104/126 64/64/126
f 64/64/127 104/104/127 105/105/127
f 64/64/128 105/105/128 65/65/128
f 65/65/129 105/105/129 106/106/129
f 65/65/130 106/106/130 66/66/130
f 66/66/131 106/106/131 107/107/131
f 66/66/132 107/107/132 67/67/132
f 67/67/133 107/107/133 108/108/133
f 67/67/134 108/108/134 68/68/134
f 68/68/135 108/108/135 109/109/135
f 68/68/136 109/109/136 69/69/136
f 69/69/137 109/109/137 110/110/137
f 69/69/138 110/110/138 70/70/138
f 70/70/139 110/110/139 111/111/139
f 70/70/140 111/111/140 71/71/140
f 71/71/141 111/111/141 112/112/141
f 71/71/142 112/112/142 72/72/142
f 72/72/143 112/112/143 113/113/143
f 72/72/144 113/113/144 73/73/144
f 73/73/145 113/113/145 114/114/145
f 73/73/146 114/114/146 74/74/146
f 74/74/147 114/114/147 115/115/147
f 74/74/148 115/115/148 75/75/148
f 75/75/149 115/115/149 116/116/149
f 75/75/150 116/116/150 76/76/150
f 76/76/151 116/116/151 117/117/151
f 76/76/152 117/117/152 77/77/152
f 77/77/153 117/117/153 118/118/153
f 77/77/154 118/118/154 78/78/154
f 78/78/155 118/118/155 119/119/155
f 78/78/156 119/119/156 79/79/156
f 79/79/157 119/119/157 120/120/157
f 79/79/158 120/120/158 80/80/158
f 80/80/159 120/120/159 81/81/159
f 80/80/160 81/81/160 41/41/160
usemtl BlueIce
f 81/81/161 121/121/161 122/122/161
f 81/81/162 122/122/162 82/82/162
f 82/82/163 122/122/163 123/123/163
f 82/82/164 123/123/164 83/83/164
f 83/83/165 123/123/165 124/124/165
f 83/83/166 124/124/166 84/84/166
f 84/84/167 124/124/167 125/125/167
f 84/84/168 125/125/168 85/85/168
f 85/85/169 125/125/169 126/126/169
f 85/85/170 126/126/170 86/86/170
f 86/86/171 126/126/171 127/127/171
f 86/86/172 127/127/172 87/87/172
f 87/87/173 127/127/173 128/128/173
f 87/87/174 128/128/174 88/88/174
f 88/88/175 128/128/175 129/129/175
f 88/88/176 129/129/176 89/89/176
f 89/89/177 129/129/177 130/130/177
f 89/89/178 130/130/178 90/90/178
f 90/90/179 130/130/179 131/131/179
f 90/90/180 131/131/180 91/91/180
f 91/91/181 131/131/181 132/132/181
f 91/91/182 132/132/182 92/92/182
f 92/92/183 132/132/183 133/133/183
f 92/92/184 133/133/184 93/93/184
f 93/93/185 133/133/185 134/134/185
f 93/93/186 134/134/186 94/94/186
f 94/94/187 134/134/187 135/135/187
f 94/94/188 135/135/188 95/95/188
f 95/95/189 135/135/189 136/136/189
f 95/95/190 136/136/190 96/96/190
f 96/96/191 136/136/191 137/137/191
f 96/96/192 137/137/192 97/97/192
f 97/97/193 137/137/193 138/138/193
f 97/97/194 138/138/194 98/98/194
f 98/98/195 138/138/195 139/139/195
f 98/98/196 139/139/196 99/99/196
f 99/99/197 139/139/197 140/140/197
f 99/99/198 140/140/198 100/100/198
f 100/100/199 140/140/199 141/141/199
f 100/100/200 141/141/200 101/101/200
f 101/101/201 141/141/201 142/142/201
f 101/101/202 142/142/202 102/102/202
f 102/102/203 142/142/203 143/143/203
f 102/102/204 143/143/204 103/103/204
f 103/103/205 143/143/205 144/144/205
f 103/103/206 144/144/206 104/104/206
f 104/104/207 144/144/207 145/145/207
f 104/104/208 145/145/208 105/105/208
f 105/105/209 145/145/209 146/146/209
f 105/105/210 146/146/210 106/106/210
f 106/106/211 146/146/211 147/147/211
f 106/106/212 147/147/212 107/107/212
f 107/107/213 147/147/213 148/148/213
f 107/107/214 148/148/214 108/108/214
f 108/108/215 148/148/215 149/149/215
f 108/108/216 149/149/216 109/109/216
f 109/109/217 149/149/217 150/150/217
f 109/109/218 150/150/218 110/110/218
f 110/110/219 150/150/219 151/151/219
f 110/110/220 151/151/220 111/111/220
f 111/111/221 151/151/221 152/152/221
f 111/111/222 152/152/222 112/112/222
f 112/112/223 152/152/223 153/153/223
f 112/112/224 153/153/224 113/113/224
f 113/113/225 153/153/225 154/154/225
f 113/113/226 154/154/226 114/114/226
f 114/114/227 154/154/227 155/155/227
f 114/114/228 155/155/228 115/115/228
f 115/115/229 155/155/229 156/156/229
f 115/115/230 156/156/230 116/116/230
f 116/116/231 156/156/231 157/157/231
f 116/116/232 157/157/232 117/117/232
f 117/117/233 157/157/233 158/158/233
f 117/117/234 158/158/234 118/118/234
f 118/118/235 158/158/235 159/159/235
f 118/118/236 159/159/236 119/119/236
f 119/119/237 159/159/237 160/160/237
f 119/119/238 160/160/238 120/120/238
f 120/120/239 160/160/239 121/121/239
f 120/120/240 121/121/240 81/81/240
usemtl Snow
f 121/121/241 161/161/241 162/162/241
f 121/121/242 162/162/242 122/122/242
f 122/122/243 162/162/243 163/163/243
f 122/122/244 163/163/244 123/123/244
f 123/123/245 163/163/245 164/164/245
f 123/123/246 164/164/246 124/124/246
f 124/124/247 164/164/247 165/165/247
f 124/124/248 165/165/248 125/125/248
f 125/125/249 165/165/249 166/166/249
f 125/125/250 166/166/250 126/126/250
f 126/126/251 166/166/251 167/167/251
f 126/126/252 167/167/252 127/127/252
f 127/127/253 167/167/253 168/168/253
f 127/127/254 168/168/254 128/128/254
f 128/128/255 168/168/255 169/169/255
f 128/128/256 169/169/256 129/129/256
f 129/129/257 169/169/257 170/170/257
f 129/129/258 170/170/258 130/130/258
f 130/130/259 170/170/259 171/171/259
f 130/130/260 171/171/260 131/131/260
f 131/131/261 171/171/261 172/172/261
f 131/131/262 172/172/262 132/132/262
f 132/132/263 172/172/263 173/173/263
f 132/132/264 173/173/264 133/133/264
f 133/133/265 173/173/265 174/174/265
f 133/133/266 174/174/266 134/134/266
f 134/134/267 174/174/267 175/175/267
f 134/134/268 175/175/268 135/135/268
f 135/135/269 175/175/269 176/176/269
f 135/135/270 176/176/270 136/136/270
f 136/136/271 176/176/271 177/177/271
f 136/136/272 177/177/272 137/137/272
f 137/137/273 177/177/273 178/178/273
f 137/137/274 178/178/274 138/138/274
f 138/138/275 178/178/275 179/179/275
f 138/138/276 179/179/276 139/139/276
f 139/139/277 179/179/277 180/180/277
f 139/139/278 180/180/278 140/140/278
f 140/140/279 180/180/279 181/181/279
f 140/140/280 181/181/280 141/141/280
f 141/141/281 181/181/281 182/182/281
f 141/141/282 182/182/282 142/142/282
f 142/142/283 182/182/283 183/183/283
f 142/142/284 183/183/284 143/143/284
f 143/143/285 183/183/285 184/184/285
f 143/143/286 184/184/286 144/144/286
f 144/144/287 184/184/287 185/185/287
f 144/144/288 185/185/288 145/145/288
f 145/145/289 185/185/289 186/186/289
f 145/145/290 186/186/290 146/146/290
f 146/146/291 186/186/291 187/187/291
f 146/146/292 187/187/292 147/147/292
f 147/147/293 187/187/293 188/188/293
f 147/147/294 188/188/294 148/148/294
f 148/148/295 188/188/295 189/189/295
f 148/148/296 189/189/296 149/149/296
f 149/149/297 189/189/297 190/190/297
f 149/149/298 190/190/298 150/150/298
f 150/150/299 190/190/299 191/191/299
f 150/150/300 191/191/300 151/151/300
f 151/151/301 191/191/301 192/192/301
f 151/151/302 192/192/302 152/152/302
f 152/152/303 192/192/303 193/193/303
f 152/152/304 193/193/304 153/153/304
f 153/153/305 193/193/305 194/194/305
f 153/153/306 194/194/306 154/154/306
f 154/154/307 194/194/307 195/195/307
f 154/154/308 195/195/308 155/155/308
f 155/155/309 195/195/309 196/196/309
f 155/155/310 196/196/310 156/156/310
f 156/156/311 196/196/311 197/197/311
f 156/156/312 197/197/312 157/157/312
f 157/157/313 197/197/313 198/198/313
f 157/157/314 198/198/314 158/158/314
f 158/158/315 198/198/315 199/199/315
f 158/158/316 199/199/316 159/159/316
f 159/159/317 199/199/317 200/200/317
f 159/159/318 200/200/318 160/160/318
f 160/160/319 200/200/319 161/161/319
f 160/160/320 161/161/320 121/121/320
usemtl BlueIce
f 201/201/321 1/1/321 2/2/321
f 201/201/322 2/2/322 3/3/322
f 201/201/323 3/3/323 4/4/323
f 201/201/324 4/4/324 5/5/324
f 201/201/325 5/5/325 6/6/325
f 201/201/326 6/6/326 7/7/326
f 201/201/327 7/7/327 8/8/327
f 201/201/328 8/8/328 9/9/328
f 201/201/329 9/9/329 10/10/329
f 201/201/330 10/10/330 11/11/330
f 201/201/331 11/11/331 12/12/331
f 201/201/332 12/12/332 13/13/332
f 201/201/333 13/13/333 14/14/333
f 201/201/334 14/14/334 15/15/334
f 201/201/335 15/15/335 16/16/335
f 201/201/336 16/16/336 17/17/336
f 201/201/337 17/17/337 18/18/337
f 201/201/338 18/18/338 19/19/338
f 201/201/339 19/19/339 20/20/339
f 201/201/340 20/20/340 21/21/340
f 201/201/341 21/21/341 22/22/341
f 201/201/342 22/22/342 23/23/342
f 201/201/343 23/23/343 24/24/343
f 201/201/344 24/24/344 25/25/344
f 201/201/345 25/25/345 26/26/345
f 201/201/346 26/26/346 27/27/346
f 201/201/347 27/27/347 28/28/347
f 201/201/348 28/28/348 29/29/348
f 201/201/349 29/29/349 30/30/349
f 201/201/350 30/30/350 31/31/350
f 201/201/351 31/31/351 32/32/351
f 201/201/352 32/32/352 33/33/352
f 201/201/353 33/33/353 34/34/353
f 201/201/354 34/34/354 35/35/354
f 201/201/355 35/35/355 36/36/355
f 201/201/356 36/36/356 37/37/356
f 201/201/357 37/37/357 38/38/357
f 201/201/358 38/38/358 39/39/358
f 201/201/359 39/39/359 40/40/359
f 201/201/360 40/40/360 1/1/360
usemtl Snow
f 202/202/361 162/162/361 161/161/361
f 202/202/362 163/163/362 162/162/362
f 202/202/363 164/164/363 163/163/363
f 202/202/364 165/165/364 164/164/364
f 202/202/365 166/166/365 165/165/365
f 202/202/366 167/167/366 166/166/366
f 202/202/367 168/168/367 167/167/367
f 202/202/368 169/169/368 168/168/368
f 202/202/369 170/170/369 169/169/369
f 202/202/370 171/171/370 170/170/370
f 202/202/371 172/172/371 171/171/371
f 202/202/372 173/173/372 172/172/372
f 202/202/373 174/174/373 173/173/373
f 202/202/374 175/175/374 174/174/374
f 202/202/375 176/176/375 175/175/375
f 202/202/376 177/177/376 176/176/376
f 202/202/377 178/178/377 177/177/377
f 202/202/378 179/179/378 178/178/378
f 202/202/379 180/180/379 179/179/379
f 202/202/380 181/181/380 180/180/380
f 202/202/381 182/182/381 181/181/381
f 202/202/382 183/183/382 182/182/382
f 202/202/383 184/184/383 183/183/383
f 202/202/384 185/185/384 184/184/384
f 202/202/385 186/186/385 185/185/385
f 202/202/386 187/187/386 186/186/386
f 202/202/387 188/188/387 187/187/387
f 202/202/388 189/189/388 188/188/388
f 202/202/389 190/190/389 189/189/389
f 202/202/390 191/191/390 190/190/390
f 202/202/391 192/192/391 191/191/391
f 202/202/392 193/193/392 192/192/392
f 202/202/393 194/194/393 193/193/393
f 202/202/394 195/195/394 194/194/394
f 202/202/395 196/196/395 195/195/395
f 202/202/396 197/197/396 196/196/396
f 202/202/397 198/198/397 197/197/397
f 202/202/398 199/199/398 198/198/398
f 202/202/399 200/200/399 199/199/399
f 202/202/400 161/161/400 200/200/400
usemtl BlueIce
f 203/203/401 210/210/401 211/211/401
f 203/203/402 211/211/402 204/204/402
f 204/204/403 211/211/403 212/212/403
f 204/204/404 212/212/404 205/205/404
f 205/205/405 212/212/405 213/213/405
f 205/205/406 213/213/406 206/206/406
f 206/206/407 213/213/407 214/214/407
f 206/206/408 214/214/408 207/207/408
f 207/207/409 214/214/409 215/215/409
f 207/207/410 215/215/410 208/208/410
f 208/208/411 215/215/411 216/216/411
f 208/208/412 216/216/412 209/209/412
f 209/209/413 216/216/413 210/210/413
f 209/209/414 210/210/414 203/203/414
f 210/210/415 217/217/415 218/218/415
f 210/210/416 218/218/416 211/211/416
f 211/211/417 218/218/417 219/219/417
f 211/211/418 219/219/418 212/212/418
f 212/212/419 219/219/419 220/220/419
f 212/212/420 220/220/420 213/213/420
f 213/213/421 220/220/421 221/221/421
f 213/213/422 221/221/422 214/214/422
f 214/214/423 221/221/423 222/222/423
f 214/214/424 222/222/424 215/215/424
f 215/215/425 222/222/425 223/223/425
f 215/215/426 223/223/426 216/216/426
f 216/216/427 223/223/427 217/217/427
f 216/216/428 217/217/428 210/210/428
f 217/217/429 224/224/429 225/225/429
f 217/217/430 225/225/430 218/218/430
f 218/218/431 225/225/431 226/226/431
f 218/218/432 226/226/432 219/219/432
f 219/219/433 226/226/433 227/227/433
f 219/219/434 227/227/434 220/220/434
f 220/220/435 227/227/435 228/228/435
f 220/220/436 228/228/436 221/221/436
f 221/221/437 228/228/437 229/229/437
f 221/221/438 229/229/438 222/222/438
f 222/222/439 229/229/439 230/230/439
f 222/222/440 230/230/440 223/223/440
f 223/223/441 230/230/441 224/224/441
f 223/223/442 224/224/442 217/217/442
f 231/231/443 203/203/443 204/204/443
f 231/231/444 204/204/444 205/205/444
f 231/231/445 205/205/445 206/206/445
f 231/231/446 206/206/446 207/207/446
f 231/231/447 207/207/447 208/208/447
f 231/231/448 208/208/448 209/209/448
f 231/231/449 209/209/449 203/203/449
usemtl Snow
f 232/232/450 225/225/450 224/224/450
f 232/232/451 226/226/451 225/225/451
f 232/232/452 227/227/452 226/226/452
f 232/232/453 228/228/453 227/227/453
f 232/232/454 229/229/454 228/228/454
f 232/232/455 230/230/455 229/229/455
f 232/232/456 224/224/456 230/230/456
usemtl BlueIce
f 233/233/457 240/240/457 241/241/457
f 233/233/458 241/241/458 234/234/458
f 234/234/459 241/241/459 242/242/459
f 234/234/460 242/242/460 235/235/460
f 235/235/461 242/242/461 243/243/461
f 235/235/462 243/243/462 236/236/462
f 236/236/463 243/243/463 244/244/463
f 236/236/464 244/244/464 237/237/464
f 237/237/465 244/244/465 245/245/465
f 237/237/466 245/245/466 238/238/466
f 238/238/467 245/245/467 246/246/467
f 238/238/468 246/246/468 239/239/468
f 239/239/469 246/246/469 240/240/469
f 239/239/470 240/240/470 233/233/470
f 240/240/471 247/247/471 248/248/471
f 240/240/472 248/248/472 241/241/472
f 241/241/473 248/248/473 249/249/473
f 241/241/474 249/249/474 242/242/474
f 242/242/475 249/249/475 250/250/475
f 242/242/476 250/250/476 243/243/476
f 243/243/477 250/250/477 251/251/477
f 243/243/478 251/251/478 244/244/478
f 244/244/479 251/251/479 252/252/479
f 244/244/480 252/252/480 245/245/480
f 245/245/481 252/252/481 253/253/481
f 245/245/482 253/253/482 246/246/482
f 246/246/483 253/253/483 247/247/483
f 246/246/484 247/247/484 240/240/484
f 247/247/485 254/254/485 255/255/485
f 247/247/486 255/255/486 248/248/486
f 248/248/487 255/255/487 256/256/487
f 248/248/488 256/256/488 249/249/488
f 249/249/489 256/256/489 257/257/489
f 249/249/490 257/257/490 250/250/490
f 250/250/491 257/257/491 258/258/491
f 250/250/492 258/258/492 251/251/492
f 251/251/493 258/258/493 259/259/493
f 251/251/494 259/259/494 252/252/494
f 252/252/495 259/259/495 260/260/495
f 252/252/496 260/260/496 253/253/496
f 253/253/497 260/260/497 254/254/497
f 253/253/498 254/254/498 247/247/498
f 261/261/499 233/233/499 234/234/499
f 261/261/500 234/234/500 235/235/500
f 261/261/501 235/235/501 236/236/501
f 261/261/502 236/236/502 237/237/502
f 261/261/503 237/237/503 238/238/503
f 261/261/504 238/238/504 239/239/504
f 261/261/505 239/239/505 233/233/505
usemtl Snow
f 262/262/506 255/255/506 254/254/506
f 262/262/507 256/256/507 255/255/507
f 262/262/508 257/257/508 256/256/508
f 262/262/509 258/258/509 257/257/509
f 262/262/510 259/259/510 258/258/510
f 262/262/511 260/260/511 259/259/511
f 262/262/512 254/254/512 260/260/512
usemtl BlueIce
f 263/263/513 270/270/513 271/271/513
f 263/263/514 271/271/514 264/264/514
f 264/264/515 271/271/515 272/272/515
f 264/264/516 272/272/516 265/265/516
f 265/265/517 272/272/517 273/273/517
f 265/265/518 273/273/518 266/266/518
f 266/266/519 273/273/519 274/274/519
f 266/266/520 274/274/520 267/267/520
f 267/267/521 274/274/521 275/275/521
f 267/267/522 275/275/522 268/268/522
f 268/268/523 275/275/523 276/276/523
f 268/268/524 276/276/524 269/269/524
f 269/269/525 276/276/525 270/270/525
f 269/269/526 270/270/526 263/263/526
f 270/270/527 277/277/527 278/278/527
f 270/270/528 278/278/528 271/271/528
f 271/271/529 278/278/529 279/279/529
f 271/271/530 279/279/530 272/272/530
f 272/272/531 279/279/531 280/280/531
f 272/272/532 280/280/532 273/273/532
f 273/273/533 280/280/533 281/281/533
f 273/273/534 281/281/534 274/274/534
f 274/274/535 281/281/535 282/282/535
f 274/274/536 282/282/536 275/275/536
f 275/275/537 282/282/537 283/283/537
f 275/275/538 283/283/538 276/276/538
f 276/276/539 283/283/539 277/277/539
f 276/276/540 277/277/540 270/270/540
f 277/277/541 284/284/541 285/285/541
f 277/277/542 285/285/542 278/278/542
f 278/278/543 285/285/543 286/286/543
f 278/278/544 286/286/544 279/279/544
f 279/279/545 286/286/545 287/287/545
f 279/279/546 287/287/546 280/280/546
f 280/280/547 287/287/547 288/288/547
f 280/280/548 288/288/548 281/281/548
f 281/281/549 288/288/549 289/289/549
f 281/281/550 289/289/550 282/282/550
f 282/282/551 289/289/551 290/290/551
f 282/282/552 290/290/552 283/283/552
f 283/283/553 290/290/553 284/284/553
f 283/283/554 284/284/554 277/277/554
f 291/291/555 263/263/555 264/264/555
f 291/291/556 264/264/556 265/265/556
f 291/291/557 265/265/557 266/266/557
f 291/291/558 266/266/558 267/267/558
f 291/291/559 267/267/559 268/268/559
f 291/291/560 268/268/560 269/269/560
f 291/291/561 269/269/561 263/263/561
usemtl Snow
f 292/292/562 285/285/562 284/284/562
f 292/292/563 286/286/563 285/285/563
f 292/292/564 287/287/564 286/286/564
f 292/292/565 288/288/565 287/287/565
f 292/292/566 289/289/566 288/288/566
f 292/292/567 290/290/567 289/289/567
f 292/292/568 284/284/568 290/290/568
