mtllib ice.mtl
o ice_arch
usemtl Ice
s off
v 0.500000 0.000000 -0.500000
v 0.310000 0.000000 -0.500000
v 0.500000 0.000000 0.500000
v 0.310000 0.000000 0.500000
v 0.500000 0.430000 -0.500000
v 0.310000 0.430000 -0.500000
v 0.500000 0.430000 0.500000
v 0.310000 0.430000 0.500000
v 0.482963 0.577527 -0.500000
v 0.299437 0.520587 -0.500000
v 0.482963 0.577527 0.500000
v 0.299437 0.520587 0.500000
v 0.433013 0.715000 -0.500000
v 0.268468 0.605000 -0.500000
v 0.433013 0.715000 0.500000
v 0.268468 0.605000 0.500000
v 0.353553 0.833051 -0.500000
v 0.219203 0.677487 -0.500000
v 0.353553 0.833051 0.500000
v 0.219203 0.677487 0.500000
v 0.250000 0.923634 -0.500000
v 0.155000 0.733109 -0.500000
v 0.250000 0.923634 0.500000
v 0.155000 0.733109 0.500000
v 0.129410 0.980578 -0.500000
v 0.080234 0.768074 -0.500000
v 0.129410 0.980578 0.500000
v 0.080234 0.768074 0.500000
v 0.000000 1.000000 -0.500000
v 0.000000 0.780000 -0.500000
v 0.000000 1.000000 0.500000
v 0.000000 0.780000 0.500000
v -0.129410 0.980578 -0.500000
v -0.080234 0.768074 -0.500000
v -0.129410 0.980578 0.500000
v -0.080234 0.768074 0.500000
v -0.250000 0.923634 -0.500000
v -0.155000 0.733109 -0.500000
v -0.250000 0.923634 0.500000
v -0.155000 0.733109 0.500000
v -0.353553 0.833051 -0.500000
v -0.219203 0.677487 -0.500000
v -0.353553 0.833051 0.500000
v -0.219203 0.677487 0.500000
v -0.433013 0.715000 -0.500000
v -0.268468 0.605000 -0.500000
v -0.433013 0.715000 0.500000
v -0.268468 0.605000 0.500000
v -0.482963 0.577527 -0.500000
v -0.299437 0.520587 -0.500000
v -0.482963 0.577527 0.500000
v -0.299437 0.520587 0.500000
v -0.500000 0.430000 -0.500000
v -0.310000 0.430000 -0.500000
v -0.500000 0.430000 0.500000
v -0.310000 0.430000 0.500000
v -0.500000 0.000000 -0.500000
v -0.310000 0.000000 -0.500000
v -0.500000 0.000000 0.500000
v -0.310000 0.000000 0.500000
vt 1.000000 0.000000
vt 0.810000 0.000000
vt 1.000000 0.000000
vt 0.810000 0.000000
vt 1.000000 0.430000
vt 0.810000 0.430000
vt 1.000000 0.430000
vt 0.810000 0.430000
vt 0.982963 0.577527
vt 0.799437 0.520587
vt 0.982963 0.577527
vt 0.799437 0.520587
vt 0.933013 0.715000
vt 0.768468 0.605000
vt 0.933013 0.715000
vt 0.768468 0.605000
vt 0.853553 0.833051
vt 0.719203 0.677487
vt 0.853553 0.833051
vt 0.719203 0.677487
vt 0.750000 0.923634
vt 0.655000 0.733109
vt 0.750000 0.923634
vt 0.655000 0.733109
vt 0.629410 0.980578
vt 0.580234 0.768074
vt 0.629410 0.980578
vt 0.580234 0.768074
vt 0.500000 1.000000
vt 0.500000 0.780000
vt 0.500000 1.000000
vt 0.500000 0.780000
vt 0.370590 0.980578
vt 0.419766 0.768074
vt 0.370590 0.980578
vt 0.419766 0.768074
vt 0.250000 0.923634
vt 0.345000 0.733109
vt 0.250000 0.923634
vt 0.345000 0.733109
vt 0.146447 0.833051
vt 0.280797 0.677487
vt 0.146447 0.833051
vt 0.280797 0.677487
vt 0.066987 0.715000
vt 0.231532 0.605000
vt 0.066987 0.715000
vt 0.231532 0.605000
vt 0.017037 0.577527
vt 0.200563 0.520587
vt 0.017037 0.577527
vt 0.200563 0.520587
vt 0.000000 0.430000
vt 0.190000 0.430000
vt 0.000000 0.430000
vt 0.190000 0.430000
vt 0.000000 0.000000
vt 0.190000 0.000000
vt 0.000000 0.000000
vt 0.190000 0.000000
vn 0.000000 0.000000 -1.000000
vn 0.000000 0.000000 -1.000000
vn 0.000000 -0.000000 1.000000
vn 0.000000 0.000000 1.000000
vn 1.000000 0.000000 0.000000
vn 1.000000 0.000000 0.000000
vn -1.000000 0.000000 0.000000
vn -1.000000 0.000000 0.000000
vn 0.000000 0.000000 -1.000000
vn 0.000000 0.000000 -1.000000
vn 0.000000 0.000000 1.000000
vn 0.000000 0.000000 1.000000
vn 0.993398 0.114722 0.000000
vn 0.993398 0.114722 -0.000000
vn -0.993270 -0.115822 0.000000
vn -0.993270 -0.115822 0.000000
vn -0.000000 0.000000 -1.000000
vn 0.000000 0.000000 -1.000000
vn 0.000000 0.000000 1.000000
vn 0.000000 0.000000 1.000000
vn 0.939881 0.341501 0.000000
vn 0.939881 0.341501 -0.000000
vn -0.938813 -0.344427 0.000000
vn -0.938813 -0.344427 0.000000
vn 0.000000 0.000000 -1.000000
vn -0.000000 0.000000 -1.000000
vn 0.000000 0.000000 1.000000
vn 0.000000 0.000000 1.000000
vn 0.829581 0.558386 0.000000
vn 0.829581 0.558386 -0.000000
vn -0.827068 -0.562102 0.000000
vn -0.827068 -0.562102 0.000000
vn 0.000000 0.000000 -1.000000
vn -0.000000 0.000000 -1.000000
vn 0.000000 0.000000 1.000000
vn 0.000000 0.000000 1.000000
vn 0.658399 0.752669 0.000000
vn 0.658399 0.752669 -0.000000
vn -0.654788 -0.755812 0.000000
vn -0.654788 -0.755812 0.000000
vn 0.000000 0.000000 -1.000000
vn -0.000000 0.000000 -1.000000
vn 0.000000 0.000000 1.000000
vn 0.000000 0.000000 1.000000
vn 0.426992 0.904255 0.000000
vn 0.426992 0.904255 -0.000000
vn -0.423625 -0.905838 0.000000
vn -0.423625 -0.905838 0.000000
vn 0.000000 0.000000 -1.000000
vn -0.000000 0.000000 -1.000000
vn 0.000000 0.000000 1.000000
vn 0.000000 0.000000 1.000000
vn 0.148422 0.988924 0.000000
vn 0.148422 0.988924 -0.000000
vn -0.147025 -0.989133 0.000000
vn -0.147025 -0.989133 0.000000
vn 0.000000 0.000000 -1.000000
vn 0.000000 0.000000 -1.000000
vn 0.000000 0.000000 1.000000
vn 0.000000 0.000000 1.000000
vn -0.148422 0.988924 0.000000
vn -0.148422 0.988924 0.000000
vn 0.147025 -0.989133 0.000000
vn 0.147025 -0.989133 0.000000
vn 0.000000 -0.000000 -1.000000
vn 0.000000 0.000000 -1.000000
vn 0.000000 0.000000 1.000000
vn 0.000000 0.000000 1.000000
vn -0.426992 0.904255 0.000000
vn -0.426992 0.904255 0.000000
vn 0.423625 -0.905838 0.000000
vn 0.423625 -0.905838 0.000000
vn 0.000000 0.000000 -1.000000
vn 0.000000 -0.000000 -1.000000
vn 0.000000 0.000000 1.000000
vn 0.000000 0.000000 1.000000
vn -0.658399 0.752669 0.000000
vn -0.658399 0.752669 0.000000
vn 0.654788 -0.755812 0.000000
vn 0.654788 -0.755812 0.000000
vn 0.000000 0.000000 -1.000000
vn 0.000000 -0.000000 -1.000000
vn 0.000000 0.000000 1.000000
vn 0.000000 0.000000 1.000000
vn -0.829581 0.558386 0.000000
vn -0.829581 0.558386 0.000000
vn 0.827068 -0.562102 0.000000
vn 0.827068 -0.562102 0.000000
vn 0.000000 0.000000 -1.000000
vn 0.000000 -0.000000 -1.000000
vn 0.000000 0.000000 1.000000
vn 0.000000 0.000000 1.000000
vn -0.939881 0.341501 0.000000
vn -0.939881 0.341501 0.000000
vn 0.938813 -0.344427 0.000000
vn 0.938813 -0.344427 0.000000
vn 0.000000 0.000000 -1.000000
vn 0.000000 -0.000000 -1.000000
vn 0.000000 0.000000 1.000000
vn 0.000000 0.000000 1.000000
vn -0.993398 0.114722 0.000000
vn -0.993398 0.114722 0.000000
vn 0.993270 -0.115822 0.000000
vn 0.993270 -0.115822 0.000000
vn 0.000000 0.000000 -1.000000
vn 0.000000 0.000000 -1.000000
vn 0.000000 0.000000 1.000000
vn -0.000000 0.000000 1.000000
vn -1.000000 0.000000 0.000000
vn -1.000000 0.000000 0.000000
vn 1.000000 0.000000 -0.000000
vn 1.000000 0.000000 0.000000
vn 0.000000 -1.000000 0.000000
vn 0.000000 -1.000000 0.000000
vn 0.000000 -1.000000 0.000000
vn 0.000000 -1.000000 0.000000
f 1/1/1 2/2/1 6/6/1
f 1/1/2 6/6/2 5/5/2
f 3/3/3 7/7/3 8/8/3
f 3/3/4 8/8/4 4/4/4
f 1/1/5 5/5/5 7/7/5
f 1/1/6 7/7/6 3/3/6
f 2/2/7 4/4/7 8/8/7
f 2/2/8 8/8/8 6/6/8
f 5/5/9 6/6/9 10/10/9
f 5/5/10 10/10/10 9/9/10
f 7/7/11 11/11/11 12/12/11
f 7/7/12 12/12/12 8/8/12
f 5/5/13 9/9/13 11/11/13
f 5/5/14 11/11/14 7/7/14
f 6/6/15 8/8/15 12/12/15
f 6/6/16 12/12/16 10/10/16
f 9/9/17 10/10/17 14/14/17
f 9/9/18 14/14/18 13/13/18
f 11/11/19 15/15/19 16/16/19
f 11/11/20 16/16/20 12/12/20
f 9/9/21 13/13/21 15/15/21
f 9/9/22 15/15/22 11/11/22
f 10/10/23 12/12/23 16/16/23
f 10/10/24 16/16/24 14/14/24
f 13/13/25 14/14/25 18/18/25
f 13/13/26 18/18/26 17/17/26
f 15/15/27 19/19/27 20/20/27
f 15/15/28 20/20/28 16/16/28
f 13/13/29 17/17/29 19/19/29
f 13/13/30 19/19/30 15/15/30
f 14/14/31 16/16/31 20/20/31
f 14/14/32 20/20/32 18/18/32
f 17/17/33 18/18/33 22/22/33
f 17/17/34 22/22/34 21/21/34
f 19/19/35 23/23/35 24/24/35
f 19/19/36 24/24/36 20/20/36
f 17/17/37 21/21/37 23/23/37
f 17/17/38 23/23/38 19/19/38
f 18/18/39 20/20/39 24/24/39
f 18/18/40 24/24/40 22/22/40
f 21/21/41 22/22/41 26/26/41
f 21/21/42 26/26/42 25/25/42
f 23/23/43 27/27/43 28/28/43
f 23/23/44 28/28/44 24/24/44
f 21/21/45 25/25/45 27/27/45
f 21/21/46 27/27/46 23/23/46
f 22/22/47 24/24/47 28/28/47
f 22/22/48 28/28/48 26/26/48
f 25/25/49 26/26/49 30/30/49
f 25/25/50 30/30/50 29/29/50
f 27/27/51 31/31/51 32/32/51
f 27/27/52 32/32/52 28/28/52
f 25/25/53 29/29/53 31/31/53
f 25/25/54 31/31/54 27/27/54
f 26/26/55 28/28/55 32/32/55
f 26/26/56 32/32/56 30/30/56
f 29/29/57 30/30/57 34/34/57
f 29/29/58 34/34/58 33/33/58
f 31/31/59 35/35/59 36/36/59
f 31/31/60 36/36/60 32/32/60
f 29/29/61 33/33/61 35/35/61
f 29/29/62 35/35/62 31/31/62
f 30/30/63 32/32/63 36/36/63
f 30/30/64 36/36/64 34/34/64
f 33/33/65 34/34/65 38/38/65
f 33/33/66 38/38/66 37/37/66
f 35/35/67 39/39/67 40/40/67
f 35/35/68 40/40/68 36/36/68
f 33/33/69 37/37/69 39/39/69
f 33/33/70 39/39/70 35/35/70
f 34/34/71 36/36/71 40/40/71
f 34/34/72 40/40/72 38/38/72
f 37/37/73 38/38/73 42/42/73
f 37/37/74 42/42/74 41/41/74
f 39/39/75 43/43/75 44/44/75
f 39/39/76 44/44/76 40/40/76
f 37/37/77 41/41/77 43/43/77
f 37/37/78 43/43/78 39/39/78
f 38/38/79 40/40/79 44/44/79
f 38/38/80 44/44/80 42/42/80
f 41/41/81 42/42/81 46/46/81
f 41/41/82 46/46/82 45/45/82
f 43/43/83 47/47/83 48/48/83
f 43/43/84 48/48/84 44/44/84
f 41/41/85 45/45/85 47/47/85
f 41/41/86 47/47/86 43/43/86
f 42/42/87 44/44/87 48/48/87
f 42/42/88 48/48/88 46/46/88
f 45/45/89 46/46/89 50/50/89
f 45/45/90 50/50/90 49/49/90
f 47/47/91 51/51/91 52/52/91
f 47/47/92 52/52/92 48/48/92
f 45/45/93 49/49/93 51/51/93
f 45/45/94 51/51/94 47/47/94
f 46/46/95 48/48/95 52/52/95
f 46/46/96 52/52/96 50/50/96
f 49/49/97 50/50/97 54/54/97
f 49/49/98 54/54/98 53/53/98
f 51/51/99 55/55/99 56/56/99
f 51/51/100 56/56/100 52/52/100
f 49/49/101 53/53/101 55/55/101
f 49/49/102 55/55/102 51/51/102
f 50/50/103 52/52/103 56/56/103
f 50/50/104 56/56/104 54/54/104
f 53/53/105 54/54/105 58/58/105
f 53/53/106 58/58/106 57/57/106
f 55/55/107 59/59/107 60/60/107
f 55/55/108 60/60/108 56/56/108
f 53/53/109 57/57/109 59/59/109
f 53/53/110 59/59/110 55/55/110
f 54/54/111 56/56/111 60/60/111
f 54/54/112 60/60/112 58/58/112
f 1/1/113 3/3/113 4/4/113
f 1/1/114 4/4/114 2/2/114
f 57/57/115 58/58/115 60/60/115
f 57/57/116 60/60/116 59/59/116
