# Blender 4.4.1
# www.blender.org
mtllib star.mtl
o ICO球
v 0.000000 -1.000000 0.000000
v 1.213811 -0.447220 0.525725
v -0.276388 -0.584507 1.324756
v -1.536282 -0.706325 0.000000
v -0.276388 -0.447220 -1.471542
v 1.150446 -0.580090 -0.525725
v 0.276388 0.447220 0.850649
v -0.723607 0.447220 0.525725
v -0.723607 0.447220 -0.525725
v 0.276388 0.447220 -0.850649
v 0.894426 0.447216 0.000000
v 0.000000 1.653295 0.000000
v -0.162456 -0.850654 0.499995
v 0.530806 -1.224078 0.351046
v 0.262869 -0.525738 0.809012
v 0.850648 -0.525736 0.000000
v 0.425323 -0.850654 -0.309011
v -0.525730 -0.848990 0.000000
v -0.688189 -0.525736 0.499997
v -0.162456 -1.403288 -0.154266
v -0.688189 -0.525736 -0.499997
v 0.262869 -0.525738 -0.809012
v 0.951058 0.000000 0.309013
v 0.951058 0.000000 -0.309013
v 0.000000 0.000000 1.000000
v 0.587786 0.000000 0.809017
v -0.951058 0.000000 0.309013
v -0.587786 0.000000 0.809017
v -0.587786 0.000000 -0.809017
v -0.951058 0.000000 -0.309013
v 0.737827 0.115594 -0.876165
v 0.000000 0.000000 -1.000000
v 0.980123 0.679697 0.894375
v -0.262869 0.525738 1.343254
v -1.592257 0.525736 0.000000
v -0.451281 0.525738 -1.352621
v 1.196486 0.525736 -0.685258
v 0.162456 0.850654 0.499995
v 0.525730 0.850652 0.000000
v -0.425323 0.850654 0.309011
v -0.425323 0.850654 -0.309011
v 0.162456 0.850654 -0.499995
vn -0.4512 -0.8846 0.1176
vn 0.7262 -0.5439 -0.4204
vn -0.2709 -0.9429 0.1936
vn -0.0928 -0.3229 0.9419
vn 0.6190 -0.4855 0.6174
vn 0.7949 0.1874 -0.5771
vn 0.6845 0.0790 0.7247
vn -0.5155 0.0529 0.8553
vn -0.9176 -0.0560 -0.3935
vn 0.2736 -0.2984 -0.9144
vn 0.6441 0.6052 0.4679
vn -0.2562 0.5592 0.7885
vn -0.7700 0.6380 -0.0000
vn -0.1984 0.7666 -0.6107
vn 0.8828 0.3972 -0.2509
vn -0.2444 0.5959 0.7650
vn -0.6740 0.6679 0.3157
vn -0.3580 0.6333 -0.6861
vn 0.4781 0.6492 -0.5916
vn 0.6847 0.6258 0.3735
vn 0.7149 0.4682 -0.5194
vn 0.2629 0.9457 -0.1910
vn 0.0765 0.6663 -0.7417
vn -0.2731 0.4682 -0.8404
vn -0.0954 0.9511 -0.2937
vn -0.7411 0.6461 -0.1827
vn -0.8836 0.4682 -0.0000
vn -0.2682 0.9634 -0.0000
vn -0.3580 0.6333 0.6861
vn -0.2731 0.4682 0.8404
vn -0.1016 0.9444 0.3127
vn 0.5750 0.6232 0.5301
vn 0.7149 0.4682 0.5194
vn 0.1521 0.9822 0.1105
vn 0.7168 0.6551 -0.2390
vn 0.9109 -0.1502 0.3843
vn 0.6990 -0.6023 -0.3856
vn 0.1470 0.2776 -0.9494
vn 0.5612 -0.0714 -0.8246
vn -0.2293 -0.6703 -0.7058
vn -0.9440 -0.0847 -0.3189
vn -0.5219 -0.1421 -0.8411
vn -0.6340 -0.7733 -0.0000
vn -0.5219 -0.1421 0.8411
vn -0.8721 0.0438 0.4873
vn -0.2442 -0.6128 0.7516
vn 0.6536 -0.1566 0.7405
vn -0.0253 -0.1101 0.9936
vn 0.7116 -0.4757 0.5170
vn 0.9928 0.0509 -0.1083
vn 0.1230 0.2451 -0.9617
vn 0.1978 -0.2458 -0.9489
vn 0.7744 0.1653 -0.6107
vn -0.8026 0.1256 -0.5831
vn -0.7947 -0.1876 -0.5773
vn -0.5155 0.0529 -0.8553
vn -0.8026 0.1256 0.5831
vn -0.7947 -0.1876 0.5773
vn -0.8937 -0.0879 0.4400
vn 0.3066 0.1256 0.9435
vn 0.3035 -0.1876 0.9342
vn 0.2945 -0.1820 0.9382
vn 0.9921 0.1256 -0.0000
vn 0.9822 -0.1876 -0.0000
vn 0.8678 0.1180 0.4827
vn 0.1323 -0.8110 -0.5700
vn 0.4696 -0.6628 -0.5833
vn 0.5465 -0.6546 -0.5224
vn -0.7324 -0.5796 -0.3573
vn -0.8432 -0.5330 -0.0706
vn -0.1201 -0.8510 -0.5112
vn -0.1201 -0.8510 0.5112
vn -0.4916 -0.7954 0.3545
vn -0.5153 -0.8338 0.1979
vn 0.4142 -0.8505 0.3241
vn 0.7238 -0.5445 -0.4237
vn -0.0468 -0.8726 -0.4862
vn 0.4092 -0.8503 0.3309
vn -0.1400 -0.5800 0.8025
vn 0.2892 -0.4449 0.8476
vt 0.399401 0.999921
vt 0.342238 0.932346
vt 0.446499 0.945864
vt 0.312818 0.797698
vt 0.178040 0.844795
vt 0.239768 0.735200
vt 0.512773 0.000079
vt 0.543911 0.067491
vt 0.461113 0.053506
vt 0.143080 0.112654
vt 0.198460 0.165800
vt 0.103005 0.163495
vt 0.037104 0.617785
vt 0.000079 0.567475
vt 0.107697 0.595589
vt 0.340721 0.724822
vt 0.545537 0.884683
vt 0.442544 0.857327
vt 0.508894 0.791636
vt 0.338377 0.127561
vt 0.488990 0.142415
vt 0.441103 0.232311
vt 0.154057 0.397718
vt 0.243456 0.255861
vt 0.278094 0.357773
vt 0.196899 0.654905
vt 0.164357 0.522402
vt 0.271734 0.567846
vt 0.421938 0.767289
vt 0.593526 0.785725
vt 0.349271 0.277134
vt 0.241502 0.456236
vt 0.284619 0.648621
vt 0.479632 0.721844
vt 0.423818 0.695910
vt 0.491001 0.652675
vt 0.625277 0.716898
vt 0.541567 0.735526
vt 0.592345 0.644632
vt 0.362174 0.361192
vt 0.423586 0.308082
vt 0.423323 0.416882
vt 0.311664 0.505880
vt 0.318674 0.426253
vt 0.391453 0.502373
vt 0.360410 0.647232
vt 0.321218 0.592942
vt 0.417887 0.599173
vt 0.391120 0.511834
vt 0.532871 0.516161
vt 0.422318 0.413036
vt 0.538192 0.503069
vt 0.512552 0.370921
vt 0.535491 0.525049
vt 0.502661 0.288702
vt 0.501927 0.651325
vt 0.537297 0.515085
vt 0.422267 0.606360
vt 0.524708 0.528494
vt 0.534229 0.222761
vt 0.625277 0.154290
vt 0.147904 0.751289
vt 0.101676 0.804020
s 0
usemtl マテリアル
f 1/1/1 14/2/1 13/3/1
f 2/4/2 14/5/2 16/6/2
f 1/7/3 13/8/3 18/9/3
f 1/10/4 18/11/4 20/12/4
f 1/13/5 20/14/5 17/15/5
f 2/4/6 16/6/6 23/16/6
f 3/17/7 15/18/7 25/19/7
f 4/20/8 19/21/8 27/22/8
f 5/23/9 21/24/9 29/25/9
f 6/26/10 22/27/10 31/28/10
f 2/4/11 23/16/11 26/29/11
f 3/17/12 25/19/12 28/30/12
f 4/20/13 27/22/13 30/31/13
f 5/23/14 29/25/14 32/32/14
f 6/26/15 31/28/15 24/33/15
f 7/34/16 33/35/16 38/36/16
f 8/37/17 34/38/17 40/39/17
f 9/40/18 35/41/18 41/42/18
f 10/43/19 36/44/19 42/45/19
f 11/46/20 37/47/20 39/48/20
f 39/48/21 42/49/21 12/50/21
f 39/48/22 37/47/22 42/49/22
f 37/47/23 10/43/23 42/49/23
f 42/45/24 41/51/24 12/52/24
f 42/45/25 36/44/25 41/51/25
f 36/44/26 9/40/26 41/51/26
f 41/42/27 40/53/27 12/54/27
f 41/42/28 35/41/28 40/53/28
f 35/41/29 8/55/29 40/53/29
f 40/39/30 38/56/30 12/57/30
f 40/39/31 34/38/31 38/56/31
f 34/38/32 7/34/32 38/56/32
f 38/36/33 39/58/33 12/59/33
f 38/36/34 33/35/34 39/58/34
f 33/35/35 11/46/35 39/58/35
f 24/33/36 37/47/36 11/46/36
f 24/33/37 31/28/37 37/47/37
f 31/28/38 10/43/38 37/47/38
f 32/32/39 36/44/39 10/43/39
f 32/32/40 29/25/40 36/44/40
f 29/25/41 9/40/41 36/44/41
f 30/31/42 35/41/42 9/40/42
f 30/31/43 27/22/43 35/41/43
f 27/22/44 8/55/44 35/41/44
f 28/30/45 34/38/45 8/37/45
f 28/30/46 25/19/46 34/38/46
f 25/19/47 7/34/47 34/38/47
f 26/29/48 33/35/48 7/34/48
f 26/29/49 23/16/49 33/35/49
f 23/16/50 11/46/50 33/35/50
f 31/28/51 32/32/51 10/43/51
f 31/28/52 22/27/52 32/32/52
f 22/27/53 5/23/53 32/32/53
f 29/25/54 30/31/54 9/40/54
f 29/25/55 21/24/55 30/31/55
f 21/24/56 4/20/56 30/31/56
f 27/22/57 28/60/57 8/55/57
f 27/22/58 19/21/58 28/60/58
f 19/21/59 3/61/59 28/60/59
f 25/19/60 26/29/60 7/34/60
f 25/19/61 15/18/61 26/29/61
f 15/18/62 2/4/62 26/29/62
f 23/16/63 24/33/63 11/46/63
f 23/16/64 16/6/64 24/33/64
f 16/6/65 6/26/65 24/33/65
f 17/15/66 22/27/66 6/26/66
f 17/15/67 20/14/67 22/27/67
f 20/14/68 5/23/68 22/27/68
f 20/12/69 21/24/69 5/23/69
f 20/12/70 18/11/70 21/24/70
f 18/11/71 4/20/71 21/24/71
f 18/9/72 19/21/72 4/20/72
f 18/9/73 13/8/73 19/21/73
f 13/8/74 3/61/74 19/21/74
f 16/6/75 17/62/75 6/26/75
f 16/6/76 14/5/76 17/62/76
f 14/5/77 1/63/77 17/62/77
f 13/3/78 15/18/78 3/17/78
f 13/3/79 14/2/79 15/18/79
f 14/2/80 2/4/80 15/18/80
