# Procedurally generated low-poly ocean scenery
mtllib ocean_palette.mtl
o CoralGarden
v 6.001668 -1.800000 0.000000
v 3.721034 0.124460 0.000000
v 1.939733 0.209148 1.939733
v 6.001668 -1.800000 0.000000
v 1.939733 0.209148 1.939733
v 3.128602 -1.800000 3.128602
v 3.128602 -1.800000 3.128602
v 1.939733 0.209148 1.939733
v 0.000000 0.168049 3.223268
v 3.128602 -1.800000 3.128602
v 0.000000 0.168049 3.223268
v 0.000000 -1.800000 5.198819
v 0.000000 -1.800000 5.198819
v 0.000000 0.168049 3.223268
v -2.635871 0.167124 2.635871
v 0.000000 -1.800000 5.198819
v -2.635871 0.167124 2.635871
v -4.251405 -1.800000 4.251405
v -4.251405 -1.800000 4.251405
v -2.635871 0.167124 2.635871
v -3.577840 0.323630 0.000000
v -4.251405 -1.800000 4.251405
v -3.577840 0.323630 0.000000
v -5.770710 -1.800000 0.000000
v -5.770710 -1.800000 0.000000
v -3.577840 0.323630 0.000000
v -2.361291 0.183392 -2.361291
v -5.770710 -1.800000 0.000000
v -2.361291 0.183392 -2.361291
v -3.808535 -1.800000 -3.808535
v -3.808535 -1.800000 -3.808535
v -2.361291 0.183392 -2.361291
v -0.000000 -0.113505 -2.836159
v -3.808535 -1.800000 -3.808535
v -0.000000 -0.113505 -2.836159
v -0.000000 -1.800000 -4.574450
v -0.000000 -1.800000 -4.574450
v -0.000000 -0.113505 -2.836159
v 2.330326 0.265475 -2.330326
v -0.000000 -1.800000 -4.574450
v 2.330326 0.265475 -2.330326
v 3.758590 -1.800000 -3.758590
v 3.758590 -1.800000 -3.758590
v 2.330326 0.265475 -2.330326
v 3.721034 0.124460 0.000000
v 3.758590 -1.800000 -3.758590
v 3.721034 0.124460 0.000000
v 6.001668 -1.800000 0.000000
v 3.721034 0.124460 0.000000
v 0.243289 1.200000 0.621085
v 1.939733 0.209148 1.939733
v 1.939733 0.209148 1.939733
v 0.243289 1.200000 0.621085
v 0.000000 0.168049 3.223268
v 0.000000 0.168049 3.223268
v 0.243289 1.200000 0.621085
v -2.635871 0.167124 2.635871
v -2.635871 0.167124 2.635871
v 0.243289 1.200000 0.621085
v -3.577840 0.323630 0.000000
v -3.577840 0.323630 0.000000
v 0.243289 1.200000 0.621085
v -2.361291 0.183392 -2.361291
v -2.361291 0.183392 -2.361291
v 0.243289 1.200000 0.621085
v -0.000000 -0.113505 -2.836159
v -0.000000 -0.113505 -2.836159
v 0.243289 1.200000 0.621085
v 2.330326 0.265475 -2.330326
v 2.330326 0.265475 -2.330326
v 0.243289 1.200000 0.621085
v 3.721034 0.124460 0.000000
v -2.200000 -0.018744 -0.349766
v -2.000000 7.985380 -0.384817
v -1.493533 7.980036 -0.092092
v -2.200000 -0.018744 -0.349766
v -1.493533 7.980036 -0.092092
v -1.550684 -0.025595 0.025523
v -1.550684 -0.025595 0.025523
v -1.493533 7.980036 -0.092092
v -1.493533 7.994656 0.492725
v -1.550684 -0.025595 0.025523
v -1.493533 7.994656 0.492725
v -1.550684 -0.006851 0.775288
v -1.550684 -0.006851 0.775288
v -1.493533 7.994656 0.492725
v -2.000000 8.014620 0.784817
v -1.550684 -0.006851 0.775288
v -2.000000 8.014620 0.784817
v -2.200000 0.018744 1.149766
v -2.200000 0.018744 1.149766
v -2.000000 8.014620 0.784817
v -2.506467 8.019964 0.492092
v -2.200000 0.018744 1.149766
v -2.506467 8.019964 0.492092
v -2.849316 0.025595 0.774477
v -2.849316 0.025595 0.774477
v -2.506467 8.019964 0.492092
v -2.506467 8.005344 -0.092725
v -2.849316 0.025595 0.774477
v -2.506467 8.005344 -0.092725
v -2.849316 0.006851 0.024712
v -2.849316 0.006851 0.024712
v -2.506467 8.005344 -0.092725
v -2.000000 7.985380 -0.384817
v -2.849316 0.006851 0.024712
v -2.000000 7.985380 -0.384817
v -2.200000 -0.018744 -0.349766
v -2.000000 7.985380 -0.384817
v -2.000000 8.000000 0.200000
v -1.493533 7.980036 -0.092092
v -1.493533 7.980036 -0.092092
v -2.000000 8.000000 0.200000
v -1.493533 7.994656 0.492725
v -1.493533 7.994656 0.492725
v -2.000000 8.000000 0.200000
v -2.000000 8.014620 0.784817
v -2.000000 8.014620 0.784817
v -2.000000 8.000000 0.200000
v -2.506467 8.019964 0.492092
v -2.506467 8.019964 0.492092
v -2.000000 8.000000 0.200000
v -2.506467 8.005344 -0.092725
v -2.506467 8.005344 -0.092725
v -2.000000 8.000000 0.200000
v -2.000000 7.985380 -0.384817
v -2.054727 4.500000 -0.347270
v -5.042687 8.500000 0.073129
v -4.726130 8.723625 0.257043
v -2.054727 4.500000 -0.347270
v -4.726130 8.723625 0.257043
v -1.648884 4.786698 -0.111483
v -1.648884 4.786698 -0.111483
v -4.726130 8.723625 0.257043
v -4.683442 8.723625 0.683914
v -1.648884 4.786698 -0.111483
v -4.683442 8.723625 0.683914
v -1.594157 4.786698 0.435787
v -1.594157 4.786698 0.435787
v -4.683442 8.723625 0.683914
v -4.957313 8.500000 0.926871
v -1.594157 4.786698 0.435787
v -4.957313 8.500000 0.926871
v -1.945273 4.500000 0.747270
v -1.945273 4.500000 0.747270
v -4.957313 8.500000 0.926871
v -5.273870 8.276375 0.742957
v -1.945273 4.500000 0.747270
v -5.273870 8.276375 0.742957
v -2.351116 4.213302 0.511483
v -2.351116 4.213302 0.511483
v -5.273870 8.276375 0.742957
v -5.316558 8.276375 0.316086
v -2.351116 4.213302 0.511483
v -5.316558 8.276375 0.316086
v -2.405843 4.213302 -0.035787
v -2.405843 4.213302 -0.035787
v -5.316558 8.276375 0.316086
v -5.042687 8.500000 0.073129
v -2.405843 4.213302 -0.035787
v -5.042687 8.500000 0.073129
v -2.054727 4.500000 -0.347270
v -5.042687 8.500000 0.073129
v -5.000000 8.500000 0.500000
v -4.726130 8.723625 0.257043
v -4.726130 8.723625 0.257043
v -5.000000 8.500000 0.500000
v -4.683442 8.723625 0.683914
v -4.683442 8.723625 0.683914
v -5.000000 8.500000 0.500000
v -4.957313 8.500000 0.926871
v -4.957313 8.500000 0.926871
v -5.000000 8.500000 0.500000
v -5.273870 8.276375 0.742957
v -5.273870 8.276375 0.742957
v -5.000000 8.500000 0.500000
v -5.316558 8.276375 0.316086
v -5.316558 8.276375 0.316086
v -5.000000 8.500000 0.500000
v -5.042687 8.500000 0.073129
v -1.887981 5.200000 0.666746
v 0.587375 10.000000 -0.035938
v 0.265758 10.153093 -0.151266
v -1.887981 5.200000 0.666746
v 0.265758 10.153093 -0.151266
v -2.300310 5.396273 0.518890
v -2.300310 5.396273 0.518890
v 0.265758 10.153093 -0.151266
v 0.178383 10.153093 -0.515328
v -2.300310 5.396273 0.518890
v 0.178383 10.153093 -0.515328
v -2.412329 5.396273 0.052144
v -2.412329 5.396273 0.052144
v 0.178383 10.153093 -0.515328
v 0.412625 10.000000 -0.764062
v -2.412329 5.396273 0.052144
v 0.412625 10.000000 -0.764062
v -2.112019 5.200000 -0.266746
v -2.112019 5.200000 -0.266746
v 0.412625 10.000000 -0.764062
v 0.734242 9.846907 -0.648734
v -2.112019 5.200000 -0.266746
v 0.734242 9.846907 -0.648734
v -1.699690 5.003727 -0.118890
v -1.699690 5.003727 -0.118890
v 0.734242 9.846907 -0.648734
v 0.821617 9.846907 -0.284672
v -1.699690 5.003727 -0.118890
v 0.821617 9.846907 -0.284672
v -1.587671 5.003727 0.347856
v -1.587671 5.003727 0.347856
v 0.821617 9.846907 -0.284672
v 0.587375 10.000000 -0.035938
v -1.587671 5.003727 0.347856
v 0.587375 10.000000 -0.035938
v -1.887981 5.200000 0.666746
v 0.587375 10.000000 -0.035938
v 0.500000 10.000000 -0.400000
v 0.265758 10.153093 -0.151266
v 0.265758 10.153093 -0.151266
v 0.500000 10.000000 -0.400000
v 0.178383 10.153093 -0.515328
v 0.178383 10.153093 -0.515328
v 0.500000 10.000000 -0.400000
v 0.412625 10.000000 -0.764062
v 0.412625 10.000000 -0.764062
v 0.500000 10.000000 -0.400000
v 0.734242 9.846907 -0.648734
v 0.734242 9.846907 -0.648734
v 0.500000 10.000000 -0.400000
v 0.821617 9.846907 -0.284672
v 0.821617 9.846907 -0.284672
v 0.500000 10.000000 -0.400000
v 0.587375 10.000000 -0.035938
v 2.000000 0.055221 -0.717879
v 2.400000 6.543073 -0.059946
v 2.885447 6.491838 0.217743
v 2.000000 0.055221 -0.717879
v 2.885447 6.491838 0.217743
v 2.622368 -0.010464 -0.361868
v 2.622368 -0.010464 -0.361868
v 2.885447 6.491838 0.217743
v 2.885447 6.448766 0.777688
v 2.622368 -0.010464 -0.361868
v 2.885447 6.448766 0.777688
v 2.622368 -0.065685 0.356011
v 2.622368 -0.065685 0.356011
v 2.885447 6.448766 0.777688
v 2.400000 6.456927 1.059946
v 2.622368 -0.065685 0.356011
v 2.400000 6.456927 1.059946
v 2.000000 -0.055221 0.717879
v 2.000000 -0.055221 0.717879
v 2.400000 6.456927 1.059946
v 1.914553 6.508162 0.782257
v 2.000000 -0.055221 0.717879
v 1.914553 6.508162 0.782257
v 1.377632 0.010464 0.361868
v 1.377632 0.010464 0.361868
v 1.914553 6.508162 0.782257
v 1.914553 6.551234 0.222312
v 1.377632 0.010464 0.361868
v 1.914553 6.551234 0.222312
v 1.377632 0.065685 -0.356011
v 1.377632 0.065685 -0.356011
v 1.914553 6.551234 0.222312
v 2.400000 6.543073 -0.059946
v 1.377632 0.065685 -0.356011
v 2.400000 6.543073 -0.059946
v 2.000000 0.055221 -0.717879
v 2.400000 6.543073 -0.059946
v 2.400000 6.500000 0.500000
v 2.885447 6.491838 0.217743
v 2.885447 6.491838 0.217743
v 2.400000 6.500000 0.500000
v 2.885447 6.448766 0.777688
v 2.885447 6.448766 0.777688
v 2.400000 6.500000 0.500000
v 2.400000 6.456927 1.059946
v 2.400000 6.456927 1.059946
v 2.400000 6.500000 0.500000
v 1.914553 6.508162 0.782257
v 1.914553 6.508162 0.782257
v 2.400000 6.500000 0.500000
v 1.914553 6.551234 0.222312
v 1.914553 6.551234 0.222312
v 2.400000 6.500000 0.500000
v 2.400000 6.543073 -0.059946
v 2.163638 3.800000 0.860223
v 4.893637 7.400000 1.558974
v 4.701954 7.599772 1.306934
v 2.163638 3.800000 0.860223
v 4.701954 7.599772 1.306934
v 1.917889 4.056117 0.537095
v 1.917889 4.056117 0.537095
v 4.701954 7.599772 1.306934
v 4.808316 7.599772 0.947960
v 1.917889 4.056117 0.537095
v 4.808316 7.599772 0.947960
v 2.054252 4.056117 0.076872
v 2.054252 4.056117 0.076872
v 4.808316 7.599772 0.947960
v 5.106363 7.400000 0.841026
v 2.054252 4.056117 0.076872
v 5.106363 7.400000 0.841026
v 2.436362 3.800000 -0.060223
v 2.436362 3.800000 -0.060223
v 5.106363 7.400000 0.841026
v 5.298046 7.200228 1.093066
v 2.436362 3.800000 -0.060223
v 5.298046 7.200228 1.093066
v 2.682111 3.543883 0.262905
v 2.682111 3.543883 0.262905
v 5.298046 7.200228 1.093066
v 5.191684 7.200228 1.452040
v 2.682111 3.543883 0.262905
v 5.191684 7.200228 1.452040
v 2.545748 3.543883 0.723128
v 2.545748 3.543883 0.723128
v 5.191684 7.200228 1.452040
v 4.893637 7.400000 1.558974
v 2.545748 3.543883 0.723128
v 4.893637 7.400000 1.558974
v 2.163638 3.800000 0.860223
v 4.893637 7.400000 1.558974
v 5.000000 7.400000 1.200000
v 4.701954 7.599772 1.306934
v 4.701954 7.599772 1.306934
v 5.000000 7.400000 1.200000
v 4.808316 7.599772 0.947960
v 4.808316 7.599772 0.947960
v 5.000000 7.400000 1.200000
v 5.106363 7.400000 0.841026
v 5.106363 7.400000 0.841026
v 5.000000 7.400000 1.200000
v 5.298046 7.200228 1.093066
v 5.298046 7.200228 1.093066
v 5.000000 7.400000 1.200000
v 5.191684 7.200228 1.452040
v 5.191684 7.200228 1.452040
v 5.000000 7.400000 1.200000
v 4.893637 7.400000 1.558974
v 0.000000 -0.047148 -2.648288
v 0.400000 5.463224 -2.905664
v 0.837924 5.449931 -2.650528
v 0.000000 -0.047148 -2.648288
v 0.837924 5.449931 -2.650528
v 0.561441 -0.064191 -2.321190
v 0.561441 -0.064191 -2.321190
v 0.837924 5.449931 -2.650528
v 0.837924 5.486706 -2.144864
v 0.561441 -0.064191 -2.321190
v 0.837924 5.486706 -2.144864
v 0.561441 -0.017043 -1.672902
v 0.561441 -0.017043 -1.672902
v 0.837924 5.486706 -2.144864
v 0.400000 5.536776 -1.894336
v 0.561441 -0.017043 -1.672902
v 0.400000 5.536776 -1.894336
v 0.000000 0.047148 -1.351712
v 0.000000 0.047148 -1.351712
v 0.400000 5.536776 -1.894336
v -0.037924 5.550069 -2.149472
v 0.000000 0.047148 -1.351712
v -0.037924 5.550069 -2.149472
v -0.561441 0.064191 -1.678810
v -0.561441 0.064191 -1.678810
v -0.037924 5.550069 -2.149472
v -0.037924 5.513294 -2.655136
v -0.561441 0.064191 -1.678810
v -0.037924 5.513294 -2.655136
v -0.561441 0.017043 -2.327098
v -0.561441 0.017043 -2.327098
v -0.037924 5.513294 -2.655136
v 0.400000 5.463224 -2.905664
v -0.561441 0.017043 -2.327098
v 0.400000 5.463224 -2.905664
v 0.000000 -0.047148 -2.648288
v 0.400000 5.463224 -2.905664
v 0.400000 5.500000 -2.400000
v 0.837924 5.449931 -2.650528
v 0.837924 5.449931 -2.650528
v 0.400000 5.500000 -2.400000
v 0.837924 5.486706 -2.144864
v 0.837924 5.486706 -2.144864
v 0.400000 5.500000 -2.400000
v 0.400000 5.536776 -1.894336
v 0.400000 5.536776 -1.894336
v 0.400000 5.500000 -2.400000
v -0.037924 5.550069 -2.149472
v -0.037924 5.550069 -2.149472
v 0.400000 5.500000 -2.400000
v -0.037924 5.513294 -2.655136
v -0.037924 5.513294 -2.655136
v 0.400000 5.500000 -2.400000
v 0.400000 5.463224 -2.905664
v 0.481211 3.000000 -2.678896
v -1.858655 6.000000 -3.695539
v -1.734298 6.183724 -3.454494
v 0.481211 3.000000 -2.678896
v -1.734298 6.183724 -3.454494
v 0.640644 3.235543 -2.369865
v 0.640644 3.235543 -2.369865
v -1.734298 6.183724 -3.454494
v -1.875643 6.183724 -3.158955
v 0.640644 3.235543 -2.369865
v -1.875643 6.183724 -3.158955
v 0.459433 3.235543 -1.990968
v 0.459433 3.235543 -1.990968
v -1.875643 6.183724 -3.158955
v -2.141345 6.000000 -3.104461
v 0.459433 3.235543 -1.990968
v -2.141345 6.000000 -3.104461
v 0.118789 3.000000 -1.921104
v 0.118789 3.000000 -1.921104
v -2.141345 6.000000 -3.104461
v -2.265702 5.816276 -3.345506
v 0.118789 3.000000 -1.921104
v -2.265702 5.816276 -3.345506
v -0.040644 2.764457 -2.230135
v -0.040644 2.764457 -2.230135
v -2.265702 5.816276 -3.345506
v -2.124357 5.816276 -3.641045
v -0.040644 2.764457 -2.230135
v -2.124357 5.816276 -3.641045
v 0.140567 2.764457 -2.609032
v 0.140567 2.764457 -2.609032
v -2.124357 5.816276 -3.641045
v -1.858655 6.000000 -3.695539
v 0.140567 2.764457 -2.609032
v -1.858655 6.000000 -3.695539
v 0.481211 3.000000 -2.678896
v -1.858655 6.000000 -3.695539
v -2.000000 6.000000 -3.400000
v -1.734298 6.183724 -3.454494
v -1.734298 6.183724 -3.454494
v -2.000000 6.000000 -3.400000
v -1.875643 6.183724 -3.158955
v -1.875643 6.183724 -3.158955
v -2.000000 6.000000 -3.400000
v -2.141345 6.000000 -3.104461
v -2.141345 6.000000 -3.104461
v -2.000000 6.000000 -3.400000
v -2.265702 5.816276 -3.345506
v -2.265702 5.816276 -3.345506
v -2.000000 6.000000 -3.400000
v -2.124357 5.816276 -3.641045
v -2.124357 5.816276 -3.641045
v -2.000000 6.000000 -3.400000
v -1.858655 6.000000 -3.695539
vn 0.562956 0.667147 0.487848
vn 0.565069 0.641424 0.518915
vn 0.417864 0.632927 0.651761
vn 0.423138 0.641902 0.639465
vn -0.155606 0.699821 0.697164
vn -0.155331 0.700016 0.697030
vn -0.625532 0.733064 0.267070
vn -0.675124 0.697136 0.241266
vn -0.645677 0.666729 -0.372253
vn -0.634002 0.700962 -0.326641
vn -0.077875 0.624111 -0.777445
vn -0.138683 0.710784 -0.689604
vn 0.034407 0.717294 -0.695921
vn 0.163833 0.635206 -0.754766
vn 0.644566 0.683125 -0.343331
vn 0.601868 0.713260 -0.359187
vn 0.327460 0.908082 0.261068
vn 0.230631 0.896931 0.377260
vn -0.080753 0.929100 0.360905
vn -0.243383 0.959192 0.143929
vn -0.196165 0.967670 -0.158536
vn 0.045372 0.932779 -0.357582
vn -0.076020 0.933865 -0.349452
vn 0.276256 0.955101 -0.107070
vn 0.500210 -0.016290 -0.865751
vn 0.500210 -0.016290 -0.865751
vn 0.999975 -0.007136 0.000178
vn 0.999975 -0.007136 0.000178
vn 0.500210 0.026991 0.865483
vn 0.500210 0.026991 0.865483
vn -0.499318 0.051963 0.864859
vn -0.499318 0.051963 0.864859
vn -0.999083 0.042809 -0.001070
vn -0.999083 0.042809 -0.001070
vn -0.499318 0.008683 -0.866375
vn -0.499318 0.008683 -0.866375
vn 0.024984 0.999376 -0.024984
vn 0.024984 0.999376 -0.024984
vn 0.024984 0.999376 -0.024984
vn 0.024984 0.999376 -0.024984
vn 0.024984 0.999376 -0.024984
vn 0.024984 0.999376 -0.024984
vn 0.298533 0.317592 -0.900008
vn 0.298533 0.317592 -0.900008
vn 0.781900 0.618481 -0.078190
vn 0.781900 0.618481 -0.078190
vn 0.470841 0.317592 0.823070
vn 0.470841 0.317592 0.823070
vn -0.323586 -0.284187 0.902513
vn -0.323586 -0.284187 0.902513
vn -0.806954 -0.585076 0.080695
vn -0.806954 -0.585076 0.080695
vn -0.495894 -0.284187 -0.820565
vn -0.495894 -0.284187 -0.820565
vn -0.598923 0.798564 0.059892
vn -0.598923 0.798564 0.059892
vn -0.598923 0.798564 0.059892
vn -0.598923 0.798564 0.059892
vn -0.598923 0.798564 0.059892
vn -0.598923 0.798564 0.059892
vn -0.218737 0.250849 0.942989
vn -0.218737 0.250849 0.942989
vn -0.849342 0.486896 0.203842
vn -0.849342 0.486896 0.203842
vn -0.622894 0.250849 -0.740998
vn -0.622894 0.250849 -0.740998
vn 0.234157 -0.221243 -0.946690
vn 0.234157 -0.221243 -0.946690
vn 0.864761 -0.457290 -0.207543
vn 0.864761 -0.457290 -0.207543
vn 0.638314 -0.221243 0.737297
vn 0.638314 -0.221243 0.737297
vn 0.459122 0.881513 -0.110189
vn 0.459122 0.881513 -0.110189
vn 0.459122 0.881513 -0.110189
vn 0.459122 0.881513 -0.110189
vn 0.459122 0.881513 -0.110189
vn 0.459122 0.881513 -0.110189
vn 0.500237 0.056779 -0.864025
vn 0.500237 0.056779 -0.864025
vn 0.999189 -0.040151 -0.003089
vn 0.999189 -0.040151 -0.003089
vn 0.500237 -0.076034 0.862544
vn 0.500237 -0.076034 0.862544
vn -0.497665 -0.014985 0.867240
vn -0.497665 -0.014985 0.867240
vn -0.996617 0.081945 0.006303
vn -0.996617 0.081945 0.006303
vn -0.497665 0.117827 -0.859329
vn -0.497665 0.117827 -0.859329
vn 0.061242 0.995183 0.076553
vn 0.061242 0.995183 0.076553
vn 0.061242 0.995183 0.076553
vn 0.061242 0.995183 0.076553
vn 0.061242 0.995183 0.076553
vn 0.061242 0.995183 0.076553
vn -0.611684 0.323757 0.721820
vn -0.611684 0.323757 0.721820
vn -0.743229 0.631757 -0.220216
vn -0.743229 0.631757 -0.220216
vn -0.119727 0.323757 -0.938535
vn -0.119727 0.323757 -0.938535
vn 0.635319 -0.292243 -0.714817
vn 0.635319 -0.292243 -0.714817
vn 0.766864 -0.600243 0.227219
vn 0.766864 -0.600243 0.227219
vn 0.143362 -0.292243 0.945538
vn 0.143362 -0.292243 0.945538
vn 0.590738 0.787650 0.175033
vn 0.590738 0.787650 0.175033
vn 0.590738 0.787650 0.175033
vn 0.590738 0.787650 0.175033
vn 0.590738 0.787650 0.175033
vn 0.590738 0.787650 0.175033
vn 0.500185 -0.076595 -0.862524
vn 0.500185 -0.076595 -0.862524
vn 0.998750 -0.049862 0.003626
vn 0.998750 -0.049862 0.003626
vn 0.500185 0.049009 0.864531
vn 0.500185 0.049009 0.864531
vn -0.496945 0.121146 0.859284
vn -0.496945 0.121146 0.859284
vn -0.995509 0.094412 -0.006866
vn -0.995509 0.094412 -0.006866
vn -0.496945 -0.004458 -0.867771
vn -0.496945 -0.004458 -0.867771
vn 0.072346 0.994752 -0.072346
vn 0.072346 0.994752 -0.072346
vn 0.072346 0.994752 -0.072346
vn 0.072346 0.994752 -0.072346
vn 0.072346 0.994752 -0.072346
vn 0.072346 0.994752 -0.072346
vn 0.705345 0.339206 -0.622437
vn 0.705345 0.339206 -0.622437
vn 0.675413 0.662927 0.323024
vn 0.675413 0.662927 0.323024
vn -0.041803 0.339206 0.939783
vn -0.041803 0.339206 0.939783
vn -0.729088 -0.308237 0.611081
vn -0.729088 -0.308237 0.611081
vn -0.699157 -0.631958 -0.334379
vn -0.699157 -0.631958 -0.334379
vn 0.018060 -0.308237 -0.951138
vn 0.018060 -0.308237 -0.951138
vn -0.584201 0.762001 -0.279400
vn -0.584201 0.762001 -0.279400
vn -0.584201 0.762001 -0.279400
vn -0.584201 0.762001 -0.279400
vn -0.584201 0.762001 -0.279400
vn -0.584201 0.762001 -0.279400
usemtl rock_light
f 1//1 2//1 3//1
f 4//2 5//2 6//2
f 7//3 8//3 9//3
f 10//4 11//4 12//4
f 13//5 14//5 15//5
f 16//6 17//6 18//6
f 19//7 20//7 21//7
f 22//8 23//8 24//8
f 25//9 26//9 27//9
f 28//10 29//10 30//10
f 31//11 32//11 33//11
f 34//12 35//12 36//12
f 37//13 38//13 39//13
f 40//14 41//14 42//14
f 43//15 44//15 45//15
f 46//16 47//16 48//16
f 49//17 50//17 51//17
f 52//18 53//18 54//18
f 55//19 56//19 57//19
f 58//20 59//20 60//20
f 61//21 62//21 63//21
f 64//22 65//22 66//22
f 67//23 68//23 69//23
f 70//24 71//24 72//24
usemtl coral_orange
f 73//25 74//25 75//25
f 76//26 77//26 78//26
f 79//27 80//27 81//27
f 82//28 83//28 84//28
f 85//29 86//29 87//29
f 88//30 89//30 90//30
f 91//31 92//31 93//31
f 94//32 95//32 96//32
f 97//33 98//33 99//33
f 100//34 101//34 102//34
f 103//35 104//35 105//35
f 106//36 107//36 108//36
f 109//37 110//37 111//37
f 112//38 113//38 114//38
f 115//39 116//39 117//39
f 118//40 119//40 120//40
f 121//41 122//41 123//41
f 124//42 125//42 126//42
f 127//43 128//43 129//43
f 130//44 131//44 132//44
f 133//45 134//45 135//45
f 136//46 137//46 138//46
f 139//47 140//47 141//47
f 142//48 143//48 144//48
f 145//49 146//49 147//49
f 148//50 149//50 150//50
f 151//51 152//51 153//51
f 154//52 155//52 156//52
f 157//53 158//53 159//53
f 160//54 161//54 162//54
f 163//55 164//55 165//55
f 166//56 167//56 168//56
f 169//57 170//57 171//57
f 172//58 173//58 174//58
f 175//59 176//59 177//59
f 178//60 179//60 180//60
f 181//61 182//61 183//61
f 184//62 185//62 186//62
f 187//63 188//63 189//63
f 190//64 191//64 192//64
f 193//65 194//65 195//65
f 196//66 197//66 198//66
f 199//67 200//67 201//67
f 202//68 203//68 204//68
f 205//69 206//69 207//69
f 208//70 209//70 210//70
f 211//71 212//71 213//71
f 214//72 215//72 216//72
f 217//73 218//73 219//73
f 220//74 221//74 222//74
f 223//75 224//75 225//75
f 226//76 227//76 228//76
f 229//77 230//77 231//77
f 232//78 233//78 234//78
usemtl coral_pink
f 235//79 236//79 237//79
f 238//80 239//80 240//80
f 241//81 242//81 243//81
f 244//82 245//82 246//82
f 247//83 248//83 249//83
f 250//84 251//84 252//84
f 253//85 254//85 255//85
f 256//86 257//86 258//86
f 259//87 260//87 261//87
f 262//88 263//88 264//88
f 265//89 266//89 267//89
f 268//90 269//90 270//90
f 271//91 272//91 273//91
f 274//92 275//92 276//92
f 277//93 278//93 279//93
f 280//94 281//94 282//94
f 283//95 284//95 285//95
f 286//96 287//96 288//96
f 289//97 290//97 291//97
f 292//98 293//98 294//98
f 295//99 296//99 297//99
f 298//100 299//100 300//100
f 301//101 302//101 303//101
f 304//102 305//102 306//102
f 307//103 308//103 309//103
f 310//104 311//104 312//104
f 313//105 314//105 315//105
f 316//106 317//106 318//106
f 319//107 320//107 321//107
f 322//108 323//108 324//108
f 325//109 326//109 327//109
f 328//110 329//110 330//110
f 331//111 332//111 333//111
f 334//112 335//112 336//112
f 337//113 338//113 339//113
f 340//114 341//114 342//114
usemtl coral_gold
f 343//115 344//115 345//115
f 346//116 347//116 348//116
f 349//117 350//117 351//117
f 352//118 353//118 354//118
f 355//119 356//119 357//119
f 358//120 359//120 360//120
f 361//121 362//121 363//121
f 364//122 365//122 366//122
f 367//123 368//123 369//123
f 370//124 371//124 372//124
f 373//125 374//125 375//125
f 376//126 377//126 378//126
f 379//127 380//127 381//127
f 382//128 383//128 384//128
f 385//129 386//129 387//129
f 388//130 389//130 390//130
f 391//131 392//131 393//131
f 394//132 395//132 396//132
f 397//133 398//133 399//133
f 400//134 401//134 402//134
f 403//135 404//135 405//135
f 406//136 407//136 408//136
f 409//137 410//137 411//137
f 412//138 413//138 414//138
f 415//139 416//139 417//139
f 418//140 419//140 420//140
f 421//141 422//141 423//141
f 424//142 425//142 426//142
f 427//143 428//143 429//143
f 430//144 431//144 432//144
f 433//145 434//145 435//145
f 436//146 437//146 438//146
f 439//147 440//147 441//147
f 442//148 443//148 444//148
f 445//149 446//149 447//149
f 448//150 449//150 450//150
