# Procedurally generated low-poly ocean scenery
mtllib ocean_palette.mtl
o CoralFan
v 5.233113 -1.500000 0.000000
v 3.244530 0.373602 0.000000
v 2.480771 0.478431 2.480771
v 5.233113 -1.500000 0.000000
v 2.480771 0.478431 2.480771
v 4.001243 -1.500000 4.001243
v 4.001243 -1.500000 4.001243
v 2.480771 0.478431 2.480771
v 0.000000 0.500035 3.082452
v 4.001243 -1.500000 4.001243
v 0.000000 0.500035 3.082452
v 0.000000 -1.500000 4.971696
v 0.000000 -1.500000 4.971696
v 0.000000 0.500035 3.082452
v -1.865989 0.433902 1.865989
v 0.000000 -1.500000 4.971696
v -1.865989 0.433902 1.865989
v -3.009660 -1.500000 3.009660
v -3.009660 -1.500000 3.009660
v -1.865989 0.433902 1.865989
v -3.215821 0.296055 0.000000
v -3.009660 -1.500000 3.009660
v -3.215821 0.296055 0.000000
v -5.186809 -1.500000 0.000000
v -5.186809 -1.500000 0.000000
v -3.215821 0.296055 0.000000
v -2.457107 0.404824 -2.457107
v -5.186809 -1.500000 0.000000
v -2.457107 0.404824 -2.457107
v -3.963077 -1.500000 -3.963077
v -3.963077 -1.500000 -3.963077
v -2.457107 0.404824 -2.457107
v -0.000000 0.123165 -3.406255
v -3.963077 -1.500000 -3.963077
v -0.000000 0.123165 -3.406255
v -0.000000 -1.500000 -5.493960
v -0.000000 -1.500000 -5.493960
v -0.000000 0.123165 -3.406255
v 1.677708 0.191972 -1.677708
v -0.000000 -1.500000 -5.493960
v 1.677708 0.191972 -1.677708
v 2.705980 -1.500000 -2.705980
v 2.705980 -1.500000 -2.705980
v 1.677708 0.191972 -1.677708
v 3.244530 0.373602 0.000000
v 2.705980 -1.500000 -2.705980
v 3.244530 0.373602 0.000000
v 5.233113 -1.500000 0.000000
v 3.244530 0.373602 0.000000
v 0.325957 1.300000 0.816826
v 2.480771 0.478431 2.480771
v 2.480771 0.478431 2.480771
v 0.325957 1.300000 0.816826
v 0.000000 0.500035 3.082452
v 0.000000 0.500035 3.082452
v 0.325957 1.300000 0.816826
v -1.865989 0.433902 1.865989
v -1.865989 0.433902 1.865989
v 0.325957 1.300000 0.816826
v -3.215821 0.296055 0.000000
v -3.215821 0.296055 0.000000
v 0.325957 1.300000 0.816826
v -2.457107 0.404824 -2.457107
v -2.457107 0.404824 -2.457107
v 0.325957 1.300000 0.816826
v -0.000000 0.123165 -3.406255
v -0.000000 0.123165 -3.406255
v 0.325957 1.300000 0.816826
v 1.677708 0.191972 -1.677708
v 1.677708 0.191972 -1.677708
v 0.325957 1.300000 0.816826
v 3.244530 0.373602 0.000000
v -0.045385 0.000000 -0.417541
v -2.795400 3.840000 -0.025682
v -2.519929 4.022545 0.172075
v -0.045385 0.000000 -0.417541
v -2.519929 4.022545 0.172075
v 0.307784 0.234032 -0.164006
v 0.307784 0.234032 -0.164006
v -2.519929 4.022545 0.172075
v -2.576228 3.952819 0.546620
v 0.307784 0.234032 -0.164006
v -2.576228 3.952819 0.546620
v 0.235606 0.144640 0.316179
v 0.235606 0.144640 0.316179
v -2.576228 3.952819 0.546620
v -2.886494 3.727181 0.580344
v 0.235606 0.144640 0.316179
v -2.886494 3.727181 0.580344
v -0.162171 -0.144640 0.359416
v -0.162171 -0.144640 0.359416
v -2.886494 3.727181 0.580344
v -3.021950 3.657455 0.226643
v -0.162171 -0.144640 0.359416
v -3.021950 3.657455 0.226643
v -0.335833 -0.234032 -0.094048
v -0.335833 -0.234032 -0.094048
v -3.021950 3.657455 0.226643
v -2.795400 3.840000 -0.025682
v -0.335833 -0.234032 -0.094048
v -2.795400 3.840000 -0.025682
v -0.045385 0.000000 -0.417541
v -2.795400 3.840000 -0.025682
v -2.760000 3.840000 0.300000
v -2.519929 4.022545 0.172075
v -2.519929 4.022545 0.172075
v -2.760000 3.840000 0.300000
v -2.576228 3.952819 0.546620
v -2.576228 3.952819 0.546620
v -2.760000 3.840000 0.300000
v -2.886494 3.727181 0.580344
v -2.886494 3.727181 0.580344
v -2.760000 3.840000 0.300000
v -3.021950 3.657455 0.226643
v -3.021950 3.657455 0.226643
v -2.760000 3.840000 0.300000
v -2.795400 3.840000 -0.025682
v -2.760000 3.840000 0.020000
v -6.000000 8.000000 0.081600
v -5.836128 8.127631 0.232511
v -2.760000 3.840000 0.020000
v -5.836128 8.127631 0.232511
v -2.549908 4.003630 0.213475
v -2.549908 4.003630 0.213475
v -5.836128 8.127631 0.232511
v -5.898722 8.078880 0.476689
v -2.549908 4.003630 0.213475
v -5.898722 8.078880 0.476689
v -2.630156 3.941129 0.526525
v -2.630156 3.941129 0.526525
v -5.898722 8.078880 0.476689
v -6.101278 7.921120 0.476689
v -2.630156 3.941129 0.526525
v -6.101278 7.921120 0.476689
v -2.889844 3.738871 0.526525
v -2.889844 3.738871 0.526525
v -6.101278 7.921120 0.476689
v -6.163872 7.872369 0.232511
v -2.889844 3.738871 0.526525
v -6.163872 7.872369 0.232511
v -2.970092 3.676370 0.213475
v -2.970092 3.676370 0.213475
v -6.163872 7.872369 0.232511
v -6.000000 8.000000 0.081600
v -2.970092 3.676370 0.213475
v -6.000000 8.000000 0.081600
v -2.760000 3.840000 0.020000
v -6.000000 8.000000 0.081600
v -6.000000 8.000000 0.300000
v -5.836128 8.127631 0.232511
v -5.836128 8.127631 0.232511
v -6.000000 8.000000 0.300000
v -5.898722 8.078880 0.476689
v -5.898722 8.078880 0.476689
v -6.000000 8.000000 0.300000
v -6.101278 7.921120 0.476689
v -6.101278 7.921120 0.476689
v -6.000000 8.000000 0.300000
v -6.163872 7.872369 0.232511
v -6.163872 7.872369 0.232511
v -6.000000 8.000000 0.300000
v -6.000000 8.000000 0.081600
v -3.681335 4.960000 0.475798
v -2.325841 6.510000 0.137123
v -2.443565 6.599382 0.063682
v -3.681335 4.960000 0.475798
v -2.443565 6.599382 0.063682
v -3.832262 5.074593 0.381644
v -3.832262 5.074593 0.381644
v -2.443565 6.599382 0.063682
v -2.440277 6.565241 -0.097765
v -3.832262 5.074593 0.381644
v -2.440277 6.565241 -0.097765
v -3.828047 5.030822 0.174660
v -3.828047 5.030822 0.174660
v -2.440277 6.565241 -0.097765
v -2.320521 6.454759 -0.124104
v -3.828047 5.030822 0.174660
v -2.320521 6.454759 -0.124104
v -3.674515 4.889178 0.140892
v -3.674515 4.889178 0.140892
v -2.320521 6.454759 -0.124104
v -2.249796 6.420618 0.021064
v -3.674515 4.889178 0.140892
v -2.249796 6.420618 0.021064
v -3.583841 4.845407 0.327006
v -3.583841 4.845407 0.327006
v -2.249796 6.420618 0.021064
v -2.325841 6.510000 0.137123
v -3.583841 4.845407 0.327006
v -2.325841 6.510000 0.137123
v -3.681335 4.960000 0.475798
v -2.325841 6.510000 0.137123
v -2.356000 6.510000 0.000000
v -2.443565 6.599382 0.063682
v -2.443565 6.599382 0.063682
v -2.356000 6.510000 0.000000
v -2.440277 6.565241 -0.097765
v -2.440277 6.565241 -0.097765
v -2.356000 6.510000 0.000000
v -2.320521 6.454759 -0.124104
v -2.320521 6.454759 -0.124104
v -2.356000 6.510000 0.000000
v -2.249796 6.420618 0.021064
v -2.249796 6.420618 0.021064
v -2.356000 6.510000 0.000000
v -2.325841 6.510000 0.137123
v 0.000000 0.000000 -0.420000
v -1.748000 5.040000 -0.327600
v -1.453636 5.142093 -0.101234
v 0.000000 0.000000 -0.420000
v -1.453636 5.142093 -0.101234
v 0.377390 0.130889 -0.129787
v 0.377390 0.130889 -0.129787
v -1.453636 5.142093 -0.101234
v -1.566073 5.103097 0.265034
v 0.377390 0.130889 -0.129787
v -1.566073 5.103097 0.265034
v 0.233240 0.080894 0.339787
v 0.233240 0.080894 0.339787
v -1.566073 5.103097 0.265034
v -1.929927 4.976903 0.265034
v 0.233240 0.080894 0.339787
v -1.929927 4.976903 0.265034
v -0.233240 -0.080894 0.339787
v -0.233240 -0.080894 0.339787
v -1.929927 4.976903 0.265034
v -2.042364 4.937907 -0.101234
v -0.233240 -0.080894 0.339787
v -2.042364 4.937907 -0.101234
v -0.377390 -0.130889 -0.129787
v -0.377390 -0.130889 -0.129787
v -2.042364 4.937907 -0.101234
v -1.748000 5.040000 -0.327600
v -0.377390 -0.130889 -0.129787
v -1.748000 5.040000 -0.327600
v 0.000000 0.000000 -0.420000
v -1.748000 5.040000 -0.327600
v -1.748000 5.040000 0.000000
v -1.453636 5.142093 -0.101234
v -1.453636 5.142093 -0.101234
v -1.748000 5.040000 0.000000
v -1.566073 5.103097 0.265034
v -1.566073 5.103097 0.265034
v -1.748000 5.040000 0.000000
v -1.929927 4.976903 0.265034
v -1.929927 4.976903 0.265034
v -1.748000 5.040000 0.000000
v -2.042364 4.937907 -0.101234
v -2.042364 4.937907 -0.101234
v -1.748000 5.040000 0.000000
v -1.748000 5.040000 -0.327600
v -1.748000 5.040000 -0.280000
v -3.800000 10.500000 -0.218400
v -3.605567 10.573073 -0.067489
v -1.748000 5.040000 -0.280000
v -3.605567 10.573073 -0.067489
v -1.498727 5.133683 -0.086525
v -1.498727 5.133683 -0.086525
v -3.605567 10.573073 -0.067489
v -3.679834 10.545161 0.176689
v -1.498727 5.133683 -0.086525
v -3.679834 10.545161 0.176689
v -1.593941 5.097899 0.226525
v -1.593941 5.097899 0.226525
v -3.679834 10.545161 0.176689
v -3.920166 10.454839 0.176689
v -1.593941 5.097899 0.226525
v -3.920166 10.454839 0.176689
v -1.902059 4.982101 0.226525
v -1.902059 4.982101 0.226525
v -3.920166 10.454839 0.176689
v -3.994433 10.426927 -0.067489
v -1.902059 4.982101 0.226525
v -3.994433 10.426927 -0.067489
v -1.997273 4.946317 -0.086525
v -1.997273 4.946317 -0.086525
v -3.994433 10.426927 -0.067489
v -3.800000 10.500000 -0.218400
v -1.997273 4.946317 -0.086525
v -3.800000 10.500000 -0.218400
v -1.748000 5.040000 -0.280000
v -3.800000 10.500000 -0.218400
v -3.800000 10.500000 0.000000
v -3.605567 10.573073 -0.067489
v -3.605567 10.573073 -0.067489
v -3.800000 10.500000 0.000000
v -3.679834 10.545161 0.176689
v -3.679834 10.545161 0.176689
v -3.800000 10.500000 0.000000
v -3.920166 10.454839 0.176689
v -3.920166 10.454839 0.176689
v -3.800000 10.500000 0.000000
v -3.994433 10.426927 -0.067489
v -3.994433 10.426927 -0.067489
v -3.800000 10.500000 0.000000
v -3.800000 10.500000 -0.218400
v -2.378163 6.510000 0.178630
v -0.761287 7.440000 0.339332
v -0.815182 7.555880 0.234887
v -2.378163 6.510000 0.178630
v -0.815182 7.555880 0.234887
v -2.447259 6.658564 0.044727
v -2.447259 6.658564 0.044727
v -0.815182 7.555880 0.234887
v -0.770706 7.511618 0.082230
v -2.447259 6.658564 0.044727
v -0.770706 7.511618 0.082230
v -2.390239 6.601818 -0.150988
v -2.390239 6.601818 -0.150988
v -0.770706 7.511618 0.082230
v -0.689323 7.368382 0.092327
v -2.390239 6.601818 -0.150988
v -0.689323 7.368382 0.092327
v -2.285901 6.418182 -0.138042
v -2.285901 6.418182 -0.138042
v -0.689323 7.368382 0.092327
v -0.683502 7.324120 0.251225
v -2.285901 6.418182 -0.138042
v -0.683502 7.324120 0.251225
v -2.278438 6.361436 0.065673
v -2.278438 6.361436 0.065673
v -0.683502 7.324120 0.251225
v -0.761287 7.440000 0.339332
v -2.278438 6.361436 0.065673
v -0.761287 7.440000 0.339332
v -2.378163 6.510000 0.178630
v -0.761287 7.440000 0.339332
v -0.744000 7.440000 0.200000
v -0.815182 7.555880 0.234887
v -0.815182 7.555880 0.234887
v -0.744000 7.440000 0.200000
v -0.770706 7.511618 0.082230
v -0.770706 7.511618 0.082230
v -0.744000 7.440000 0.200000
v -0.689323 7.368382 0.092327
v -0.689323 7.368382 0.092327
v -0.744000 7.440000 0.200000
v -0.683502 7.324120 0.251225
v -0.683502 7.324120 0.251225
v -0.744000 7.440000 0.200000
v -0.761287 7.440000 0.339332
v 0.000000 0.014575 -0.419747
v -0.552000 5.771368 -0.127403
v -0.241853 5.793200 0.099858
v 0.000000 0.014575 -0.419747
v -0.241853 5.793200 0.099858
v 0.397624 0.042564 -0.128387
v 0.397624 0.042564 -0.128387
v -0.241853 5.793200 0.099858
v -0.360319 5.769150 0.465511
v 0.397624 0.042564 -0.128387
v -0.360319 5.769150 0.465511
v 0.245745 0.011731 0.340399
v 0.245745 0.011731 0.340399
v -0.360319 5.769150 0.465511
v -0.743681 5.732456 0.464237
v 0.245745 0.011731 0.340399
v -0.743681 5.732456 0.464237
v -0.245745 -0.035313 0.338766
v -0.245745 -0.035313 0.338766
v -0.743681 5.732456 0.464237
v -0.862147 5.733826 0.097796
v -0.245745 -0.035313 0.338766
v -0.862147 5.733826 0.097796
v -0.397624 -0.033556 -0.131030
v -0.397624 -0.033556 -0.131030
v -0.862147 5.733826 0.097796
v -0.552000 5.771368 -0.127403
v -0.397624 -0.033556 -0.131030
v -0.552000 5.771368 -0.127403
v 0.000000 0.014575 -0.419747
v -0.552000 5.771368 -0.127403
v -0.552000 5.760000 0.200000
v -0.241853 5.793200 0.099858
v -0.241853 5.793200 0.099858
v -0.552000 5.760000 0.200000
v -0.360319 5.769150 0.465511
v -0.360319 5.769150 0.465511
v -0.552000 5.760000 0.200000
v -0.743681 5.732456 0.464237
v -0.743681 5.732456 0.464237
v -0.552000 5.760000 0.200000
v -0.862147 5.733826 0.097796
v -0.862147 5.733826 0.097796
v -0.552000 5.760000 0.200000
v -0.552000 5.771368 -0.127403
v -0.552000 5.760000 -0.080000
v -1.200000 12.000000 -0.018400
v -0.993400 12.021455 0.132511
v -0.552000 5.760000 -0.080000
v -0.993400 12.021455 0.132511
v -0.287129 5.787506 0.113475
v -0.287129 5.787506 0.113475
v -0.993400 12.021455 0.132511
v -1.072314 12.013260 0.376689
v -0.287129 5.787506 0.113475
v -1.072314 12.013260 0.376689
v -0.388300 5.777000 0.426525
v -0.388300 5.777000 0.426525
v -1.072314 12.013260 0.376689
v -1.327686 11.986740 0.376689
v -0.388300 5.777000 0.426525
v -1.327686 11.986740 0.376689
v -0.715700 5.743000 0.426525
v -0.715700 5.743000 0.426525
v -1.327686 11.986740 0.376689
v -1.406600 11.978545 0.132511
v -0.715700 5.743000 0.426525
v -1.406600 11.978545 0.132511
v -0.816871 5.732494 0.113475
v -0.816871 5.732494 0.113475
v -1.406600 11.978545 0.132511
v -1.200000 12.000000 -0.018400
v -0.816871 5.732494 0.113475
v -1.200000 12.000000 -0.018400
v -0.552000 5.760000 -0.080000
v -1.200000 12.000000 -0.018400
v -1.200000 12.000000 0.200000
v -0.993400 12.021455 0.132511
v -0.993400 12.021455 0.132511
v -1.200000 12.000000 0.200000
v -1.072314 12.013260 0.376689
v -1.072314 12.013260 0.376689
v -1.200000 12.000000 0.200000
v -1.327686 11.986740 0.376689
v -1.327686 11.986740 0.376689
v -1.200000 12.000000 0.200000
v -1.406600 11.978545 0.132511
v -1.406600 11.978545 0.132511
v -1.200000 12.000000 0.200000
v -1.200000 12.000000 -0.018400
v -0.702167 7.440000 0.375071
v 0.962630 7.130000 -0.063444
v 0.963105 7.261414 -0.163303
v -0.702167 7.440000 0.375071
v 0.963105 7.261414 -0.163303
v -0.701558 7.608479 0.247048
v -0.701558 7.608479 0.247048
v 0.963105 7.261414 -0.163303
v 0.917830 7.211218 -0.313876
v -0.701558 7.608479 0.247048
v 0.917830 7.211218 -0.313876
v -0.759603 7.544126 0.054006
v -0.759603 7.544126 0.054006
v 0.917830 7.211218 -0.313876
v 0.889374 7.048782 -0.307076
v -0.759603 7.544126 0.054006
v 0.889374 7.048782 -0.307076
v -0.796085 7.335874 0.062723
v -0.796085 7.335874 0.062723
v 0.889374 7.048782 -0.307076
v 0.917062 6.998586 -0.152301
v -0.796085 7.335874 0.062723
v 0.917062 6.998586 -0.152301
v -0.760588 7.271521 0.261153
v -0.760588 7.271521 0.261153
v 0.917062 6.998586 -0.152301
v 0.962630 7.130000 -0.063444
v -0.760588 7.271521 0.261153
v 0.962630 7.130000 -0.063444
v -0.702167 7.440000 0.375071
v 0.962630 7.130000 -0.063444
v 0.930000 7.130000 -0.200000
v 0.963105 7.261414 -0.163303
v 0.963105 7.261414 -0.163303
v 0.930000 7.130000 -0.200000
v 0.917830 7.211218 -0.313876
v 0.917830 7.211218 -0.313876
v 0.930000 7.130000 -0.200000
v 0.889374 7.048782 -0.307076
v 0.889374 7.048782 -0.307076
v 0.930000 7.130000 -0.200000
v 0.917062 6.998586 -0.152301
v 0.917062 6.998586 -0.152301
v 0.930000 7.130000 -0.200000
v 0.962630 7.130000 -0.063444
v 0.000000 -0.015207 -0.419725
v 0.690000 5.508138 -0.527385
v 0.999163 5.477740 -0.299769
v 0.000000 -0.015207 -0.419725
v 0.999163 5.477740 -0.299769
v 0.396363 -0.054180 -0.127909
v 0.396363 -0.054180 -0.127909
v 0.999163 5.477740 -0.299769
v 0.881073 5.505744 0.065724
v 0.396363 -0.054180 -0.127909
v 0.881073 5.505744 0.065724
v 0.244966 -0.018278 0.340672
v 0.244966 -0.018278 0.340672
v 0.881073 5.505744 0.065724
v 0.498927 5.553449 0.063996
v 0.244966 -0.018278 0.340672
v 0.498927 5.553449 0.063996
v -0.244966 0.042884 0.338456
v -0.244966 0.042884 0.338456
v 0.498927 5.553449 0.063996
v 0.380837 5.554929 -0.302566
v -0.244966 0.042884 0.338456
v 0.380837 5.554929 -0.302566
v -0.396363 0.044781 -0.131495
v -0.396363 0.044781 -0.131495
v 0.380837 5.554929 -0.302566
v 0.690000 5.508138 -0.527385
v -0.396363 0.044781 -0.131495
v 0.690000 5.508138 -0.527385
v 0.000000 -0.015207 -0.419725
v 0.690000 5.508138 -0.527385
v 0.690000 5.520000 -0.200000
v 0.999163 5.477740 -0.299769
v 0.999163 5.477740 -0.299769
v 0.690000 5.520000 -0.200000
v 0.881073 5.505744 0.065724
v 0.881073 5.505744 0.065724
v 0.690000 5.520000 -0.200000
v 0.498927 5.553449 0.063996
v 0.498927 5.553449 0.063996
v 0.690000 5.520000 -0.200000
v 0.380837 5.554929 -0.302566
v 0.380837 5.554929 -0.302566
v 0.690000 5.520000 -0.200000
v 0.690000 5.508138 -0.527385
v 0.690000 5.520000 -0.480000
v 1.500000 11.500000 -0.418400
v 1.705831 11.472120 -0.267489
v 0.690000 5.520000 -0.480000
v 1.705831 11.472120 -0.267489
v 0.953886 5.484256 -0.286525
v 0.953886 5.484256 -0.286525
v 1.705831 11.472120 -0.267489
v 1.627211 11.482769 -0.023311
v 0.953886 5.484256 -0.286525
v 1.627211 11.482769 -0.023311
v 0.853091 5.497909 0.026525
v 0.853091 5.497909 0.026525
v 1.627211 11.482769 -0.023311
v 1.372789 11.517231 -0.023311
v 0.853091 5.497909 0.026525
v 1.372789 11.517231 -0.023311
v 0.526909 5.542091 0.026525
v 0.526909 5.542091 0.026525
v 1.372789 11.517231 -0.023311
v 1.294169 11.527880 -0.267489
v 0.526909 5.542091 0.026525
v 1.294169 11.527880 -0.267489
v 0.426114 5.555744 -0.286525
v 0.426114 5.555744 -0.286525
v 1.294169 11.527880 -0.267489
v 1.500000 11.500000 -0.418400
v 0.426114 5.555744 -0.286525
v 1.500000 11.500000 -0.418400
v 0.690000 5.520000 -0.480000
v 1.500000 11.500000 -0.418400
v 1.500000 11.500000 -0.200000
v 1.705831 11.472120 -0.267489
v 1.705831 11.472120 -0.267489
v 1.500000 11.500000 -0.200000
v 1.627211 11.482769 -0.023311
v 1.627211 11.482769 -0.023311
v 1.500000 11.500000 -0.200000
v 1.372789 11.517231 -0.023311
v 1.372789 11.517231 -0.023311
v 1.500000 11.500000 -0.200000
v 1.294169 11.527880 -0.267489
v 1.294169 11.527880 -0.267489
v 1.500000 11.500000 -0.200000
v 1.500000 11.500000 -0.418400
v 0.898248 7.130000 -0.022823
v 2.579233 6.200000 0.238198
v 2.659408 6.317155 0.154007
v 0.898248 7.130000 -0.022823
v 2.659408 6.317155 0.154007
v 1.001036 7.280199 -0.130760
v 1.001036 7.280199 -0.130760
v 2.659408 6.317155 0.154007
v 2.663011 6.272406 -0.004820
v 1.001036 7.280199 -0.130760
v 2.663011 6.272406 -0.004820
v 1.005655 7.222828 -0.334385
v 1.005655 7.222828 -0.334385
v 2.663011 6.272406 -0.004820
v 2.585063 6.127594 -0.018789
v 1.005655 7.222828 -0.334385
v 2.585063 6.127594 -0.018789
v 0.905722 7.037172 -0.352294
v 0.905722 7.037172 -0.352294
v 2.585063 6.127594 -0.018789
v 2.533286 6.082845 0.131404
v 0.905722 7.037172 -0.352294
v 2.533286 6.082845 0.131404
v 0.839341 6.979801 -0.159738
v 0.839341 6.979801 -0.159738
v 2.533286 6.082845 0.131404
v 2.579233 6.200000 0.238198
v 0.839341 6.979801 -0.159738
v 2.579233 6.200000 0.238198
v 0.898248 7.130000 -0.022823
v 2.579233 6.200000 0.238198
v 2.604000 6.200000 0.100000
v 2.659408 6.317155 0.154007
v 2.659408 6.317155 0.154007
v 2.604000 6.200000 0.100000
v 2.663011 6.272406 -0.004820
v 2.663011 6.272406 -0.004820
v 2.604000 6.200000 0.100000
v 2.585063 6.127594 -0.018789
v 2.585063 6.127594 -0.018789
v 2.604000 6.200000 0.100000
v 2.533286 6.082845 0.131404
v 2.533286 6.082845 0.131404
v 2.604000 6.200000 0.100000
v 2.579233 6.200000 0.238198
v 0.000000 0.008748 -0.419909
v 1.932000 4.806824 -0.227529
v 2.221041 4.685820 -0.003635
v 0.000000 0.008748 -0.419909
v 2.221041 4.685820 -0.003635
v 0.370565 -0.146384 -0.132865
v 0.370565 -0.146384 -0.132865
v 2.221041 4.685820 -0.003635
v 2.110637 4.722609 0.363479
v 0.370565 -0.146384 -0.132865
v 2.110637 4.722609 0.363479
v 0.229022 -0.099219 0.337794
v 0.229022 -0.099219 0.337794
v 2.110637 4.722609 0.363479
v 1.753363 4.866350 0.366474
v 0.229022 -0.099219 0.337794
v 1.753363 4.866350 0.366474
v -0.229022 0.085064 0.341633
v -0.229022 0.085064 0.341633
v 1.753363 4.866350 0.366474
v 1.642959 4.918397 0.001211
v -0.229022 0.085064 0.341633
v 1.642959 4.918397 0.001211
v -0.370565 0.151791 -0.126653
v -0.370565 0.151791 -0.126653
v 1.642959 4.918397 0.001211
v 1.932000 4.806824 -0.227529
v -0.370565 0.151791 -0.126653
v 1.932000 4.806824 -0.227529
v 0.000000 0.008748 -0.419909
v 1.932000 4.806824 -0.227529
v 1.932000 4.800000 0.100000
v 2.221041 4.685820 -0.003635
v 2.221041 4.685820 -0.003635
v 1.932000 4.800000 0.100000
v 2.110637 4.722609 0.363479
v 2.110637 4.722609 0.363479
v 1.932000 4.800000 0.100000
v 1.753363 4.866350 0.366474
v 1.753363 4.866350 0.366474
v 1.932000 4.800000 0.100000
v 1.642959 4.918397 0.001211
v 1.642959 4.918397 0.001211
v 1.932000 4.800000 0.100000
v 1.932000 4.806824 -0.227529
v 1.932000 4.800000 -0.180000
v 4.200000 10.000000 -0.118400
v 4.390390 9.916961 0.032511
v 1.932000 4.800000 -0.180000
v 4.390390 9.916961 0.032511
v 2.176089 4.693539 0.013475
v 2.176089 4.693539 0.013475
v 4.390390 9.916961 0.032511
v 4.317667 9.948679 0.276689
v 2.176089 4.693539 0.013475
v 4.317667 9.948679 0.276689
v 2.082856 4.734204 0.326525
v 2.082856 4.734204 0.326525
v 4.317667 9.948679 0.276689
v 4.082333 10.051321 0.276689
v 2.082856 4.734204 0.326525
v 4.082333 10.051321 0.276689
v 1.781144 4.865796 0.326525
v 1.781144 4.865796 0.326525
v 4.082333 10.051321 0.276689
v 4.009610 10.083039 0.032511
v 1.781144 4.865796 0.326525
v 4.009610 10.083039 0.032511
v 1.687911 4.906461 0.013475
v 1.687911 4.906461 0.013475
v 4.009610 10.083039 0.032511
v 4.200000 10.000000 -0.118400
v 1.687911 4.906461 0.013475
v 4.200000 10.000000 -0.118400
v 1.932000 4.800000 -0.180000
v 4.200000 10.000000 -0.118400
v 4.200000 10.000000 0.100000
v 4.390390 9.916961 0.032511
v 4.390390 9.916961 0.032511
v 4.200000 10.000000 0.100000
v 4.317667 9.948679 0.276689
v 4.317667 9.948679 0.276689
v 4.200000 10.000000 0.100000
v 4.082333 10.051321 0.276689
v 4.082333 10.051321 0.276689
v 4.200000 10.000000 0.100000
v 4.009610 10.083039 0.032511
v 4.009610 10.083039 0.032511
v 4.200000 10.000000 0.100000
v 4.200000 10.000000 -0.118400
v 2.632662 6.200000 0.277703
v 3.866356 4.650000 0.038609
v 3.953328 4.734067 -0.073687
v 2.632662 6.200000 0.277703
v 3.953328 4.734067 -0.073687
v 2.744164 6.307778 0.133735
v 2.744164 6.307778 0.133735
v 3.953328 4.734067 -0.073687
v 3.889212 4.701956 -0.222346
v 2.744164 6.307778 0.133735
v 3.889212 4.701956 -0.222346
v 2.661964 6.266610 -0.056854
v 2.661964 6.266610 -0.056854
v 3.889212 4.701956 -0.222346
v 3.762615 4.598044 -0.201927
v 2.661964 6.266610 -0.056854
v 3.762615 4.598044 -0.201927
v 2.499660 6.133390 -0.030676
v 2.499660 6.133390 -0.030676
v 3.762615 4.598044 -0.201927
v 3.748489 4.565933 -0.040648
v 2.499660 6.133390 -0.030676
v 3.748489 4.565933 -0.040648
v 2.481550 6.092222 0.176092
v 2.481550 6.092222 0.176092
v 3.748489 4.565933 -0.040648
v 3.866356 4.650000 0.038609
v 2.481550 6.092222 0.176092
v 3.866356 4.650000 0.038609
v 2.632662 6.200000 0.277703
v 3.866356 4.650000 0.038609
v 3.844000 4.650000 -0.100000
v 3.953328 4.734067 -0.073687
v 3.953328 4.734067 -0.073687
v 3.844000 4.650000 -0.100000
v 3.889212 4.701956 -0.222346
v 3.889212 4.701956 -0.222346
v 3.844000 4.650000 -0.100000
v 3.762615 4.598044 -0.201927
v 3.762615 4.598044 -0.201927
v 3.844000 4.650000 -0.100000
v 3.748489 4.565933 -0.040648
v 3.748489 4.565933 -0.040648
v 3.844000 4.650000 -0.100000
v 3.866356 4.650000 0.038609
v 0.014717 0.000000 0.419742
v 2.863480 3.600000 0.227399
v 2.611539 3.793546 0.009727
v 0.014717 0.000000 0.419742
v 2.611539 3.793546 0.009727
v -0.308283 0.248136 0.140676
v -0.308283 0.248136 0.140676
v 2.611539 3.793546 0.009727
v 2.691907 3.719618 -0.359583
v -0.308283 0.248136 0.140676
v 2.691907 3.719618 -0.359583
v -0.205247 0.153357 -0.332799
v -0.205247 0.153357 -0.332799
v 2.691907 3.719618 -0.359583
v 2.993518 3.480382 -0.370159
v -0.205247 0.153357 -0.332799
v 2.993518 3.480382 -0.370159
v 0.181434 -0.153357 -0.346358
v 0.181434 -0.153357 -0.346358
v 2.993518 3.480382 -0.370159
v 3.099556 3.406454 -0.007384
v 0.181434 -0.153357 -0.346358
v 3.099556 3.406454 -0.007384
v 0.317379 -0.248136 0.118739
v 0.317379 -0.248136 0.118739
v 3.099556 3.406454 -0.007384
v 2.863480 3.600000 0.227399
v 0.317379 -0.248136 0.118739
v 2.863480 3.600000 0.227399
v 0.014717 0.000000 0.419742
v 2.863480 3.600000 0.227399
v 2.852000 3.600000 -0.100000
v 2.611539 3.793546 0.009727
v 2.611539 3.793546 0.009727
v 2.852000 3.600000 -0.100000
v 2.691907 3.719618 -0.359583
v 2.691907 3.719618 -0.359583
v 2.852000 3.600000 -0.100000
v 2.993518 3.480382 -0.370159
v 2.993518 3.480382 -0.370159
v 2.852000 3.600000 -0.100000
v 3.099556 3.406454 -0.007384
v 3.099556 3.406454 -0.007384
v 2.852000 3.600000 -0.100000
v 2.863480 3.600000 0.227399
v 2.852000 3.600000 0.180000
v 6.200000 7.500000 0.118400
v 6.042397 7.635296 -0.032511
v 2.852000 3.600000 0.180000
v 6.042397 7.635296 -0.032511
v 2.649945 3.773457 -0.013475
v 2.649945 3.773457 -0.013475
v 6.042397 7.635296 -0.032511
v 6.102596 7.583618 -0.276689
v 2.649945 3.773457 -0.013475
v 6.102596 7.583618 -0.276689
v 2.727123 3.707202 -0.326525
v 2.727123 3.707202 -0.326525
v 6.102596 7.583618 -0.276689
v 6.297404 7.416382 -0.276689
v 2.727123 3.707202 -0.326525
v 6.297404 7.416382 -0.276689
v 2.976877 3.492798 -0.326525
v 2.976877 3.492798 -0.326525
v 6.297404 7.416382 -0.276689
v 6.357603 7.364704 -0.032511
v 2.976877 3.492798 -0.326525
v 6.357603 7.364704 -0.032511
v 3.054055 3.426543 -0.013475
v 3.054055 3.426543 -0.013475
v 6.357603 7.364704 -0.032511
v 6.200000 7.500000 0.118400
v 3.054055 3.426543 -0.013475
v 6.200000 7.500000 0.118400
v 2.852000 3.600000 0.180000
v 6.200000 7.500000 0.118400
v 6.200000 7.500000 -0.100000
v 6.042397 7.635296 -0.032511
v 6.042397 7.635296 -0.032511
v 6.200000 7.500000 -0.100000
v 6.102596 7.583618 -0.276689
v 6.102596 7.583618 -0.276689
v 6.200000 7.500000 -0.100000
v 6.297404 7.416382 -0.276689
v 6.297404 7.416382 -0.276689
v 6.200000 7.500000 -0.100000
v 6.357603 7.364704 -0.032511
v 6.357603 7.364704 -0.032511
v 6.200000 7.500000 -0.100000
v 6.200000 7.500000 0.118400
vn 0.674862 0.716278 0.177504
vn 0.689233 0.692770 0.212195
vn 0.177992 0.681973 0.709388
vn 0.173636 0.676255 0.715912
vn -0.445959 0.614620 0.650663
vn -0.422631 0.633323 0.648294
vn -0.648516 0.633286 0.422345
vn -0.605497 0.664471 0.438009
vn -0.663433 0.728050 -0.172629
vn -0.679467 0.703068 -0.209808
vn -0.187815 0.696231 -0.692812
vn -0.230706 0.768166 -0.597240
vn 0.514508 0.676953 -0.526323
vn 0.544228 0.651766 -0.528221
vn 0.517927 0.651593 -0.554237
vn 0.577477 0.612916 -0.539309
vn 0.316615 0.946812 0.057468
vn 0.091383 0.934801 0.343214
vn -0.225459 0.928399 0.295370
vn -0.301207 0.941955 0.148304
vn -0.264189 0.963685 -0.038918
vn 0.006532 0.963146 -0.268901
vn 0.248124 0.928051 -0.277769
vn 0.211821 0.930586 -0.298567
vn 0.376886 0.357121 -0.854647
vn 0.376886 0.357121 -0.854647
vn 0.790315 0.569934 0.224895
vn 0.790315 0.569934 0.224895
vn 0.098858 0.012783 0.995019
vn 0.098858 0.012783 0.995019
vn -0.741915 -0.544368 0.391441
vn -0.741915 -0.544368 0.391441
vn -0.570084 -0.331555 -0.751715
vn -0.570084 -0.331555 -0.751715
vn -0.582465 0.810386 0.063311
vn -0.582465 0.810386 0.063311
vn -0.582465 0.810386 0.063311
vn -0.582465 0.810386 0.063311
vn -0.582465 0.810386 0.063311
vn 0.457901 0.368614 -0.808981
vn 0.457901 0.368614 -0.808981
vn 0.744489 0.591822 0.309003
vn 0.744489 0.591822 0.309003
vn -0.005807 0.007456 0.999955
vn -0.005807 0.007456 0.999955
vn -0.756104 -0.576909 0.309003
vn -0.756104 -0.576909 0.309003
vn -0.469516 -0.353702 -0.808981
vn -0.469516 -0.353702 -0.808981
vn -0.614466 0.788944 0.000000
vn -0.614466 0.788944 0.000000
vn -0.614466 0.788944 0.000000
vn -0.614466 0.788944 0.000000
vn -0.614466 0.788944 0.000000
vn -0.242629 0.404817 0.881620
vn -0.242629 0.404817 0.881620
vn -0.746311 0.647958 -0.152221
vn -0.746311 0.647958 -0.152221
vn -0.204744 0.011406 -0.978749
vn -0.204744 0.011406 -0.978749
vn 0.633643 -0.625145 -0.455730
vn 0.633643 -0.625145 -0.455730
vn 0.610229 -0.382004 0.694041
vn 0.610229 -0.382004 0.694041
vn 0.653763 0.742912 -0.143789
vn 0.653763 0.742912 -0.143789
vn 0.653763 0.742912 -0.143789
vn 0.653763 0.742912 -0.143789
vn 0.653763 0.742912 -0.143789
vn 0.550688 0.205823 -0.808938
vn 0.550688 0.205823 -0.808938
vn 0.893869 0.324847 0.308987
vn 0.893869 0.324847 0.308987
vn -0.004591 0.013238 0.999902
vn -0.004591 0.013238 0.999902
vn -0.903052 -0.298371 0.308987
vn -0.903052 -0.298371 0.308987
vn -0.559870 -0.179347 -0.808938
vn -0.559870 -0.179347 -0.808938
vn -0.327677 0.944790 0.000000
vn -0.327677 0.944790 0.000000
vn -0.327677 0.944790 0.000000
vn -0.327677 0.944790 -0.000000
vn -0.327677 0.944790 0.000000
vn 0.547186 0.214773 -0.808987
vn 0.547186 0.214773 -0.808987
vn 0.887222 0.342567 0.309006
vn 0.887222 0.342567 0.309006
vn -0.003006 0.007997 0.999964
vn -0.003006 0.007997 0.999964
vn -0.893234 -0.326572 0.309006
vn -0.893234 -0.326572 0.309006
vn -0.553197 -0.198778 -0.808987
vn -0.553197 -0.198778 -0.808987
vn -0.351800 0.936075 0.000000
vn -0.351800 0.936075 -0.000000
vn -0.351800 0.936075 0.000000
vn -0.351800 0.936075 0.000000
vn -0.351800 0.936075 0.000000
vn -0.374641 0.518526 0.768619
vn -0.374641 0.518526 0.768619
vn -0.416098 0.833737 -0.362966
vn -0.416098 0.833737 -0.362966
vn 0.137846 0.008503 -0.990417
vn 0.137846 0.008503 -0.990417
vn 0.521660 -0.816731 -0.246619
vn 0.521660 -0.816731 -0.246619
vn 0.204926 -0.501520 0.840526
vn 0.204926 -0.501520 0.840526
vn 0.861227 0.496862 0.106852
vn 0.861227 0.496862 0.106852
vn 0.861227 0.496862 0.106852
vn 0.861227 0.496862 0.106852
vn 0.861227 0.496862 0.106852
vn 0.583828 0.096916 -0.806072
vn 0.583828 0.096916 -0.806072
vn 0.945415 0.092732 0.312397
vn 0.945415 0.092732 0.312397
vn -0.001231 -0.021855 0.999760
vn -0.001231 -0.021855 0.999760
vn -0.947876 -0.088490 0.306105
vn -0.947876 -0.088490 0.306105
vn -0.586290 -0.015086 -0.809961
vn -0.586290 -0.015086 -0.809961
vn -0.095339 0.994845 0.034543
vn -0.095339 0.994845 0.034543
vn -0.095339 0.994845 0.034543
vn -0.095339 0.994845 0.034543
vn -0.095339 0.994845 0.034543
vn 0.583802 0.068612 -0.808991
vn 0.583802 0.068612 -0.808991
vn 0.945119 0.106133 0.309007
vn 0.945119 0.106133 0.309007
vn -0.000820 0.007901 0.999968
vn -0.000820 0.007901 0.999968
vn -0.946760 -0.090331 0.309007
vn -0.946760 -0.090331 0.309007
vn -0.585443 -0.052810 -0.808991
vn -0.585443 -0.052810 -0.808991
vn -0.103291 0.994651 0.000000
vn -0.103291 0.994651 -0.000000
vn -0.103291 0.994651 0.000000
vn -0.103291 0.994651 0.000000
vn -0.103291 0.994651 0.000000
vn 0.306844 0.575133 0.758333
vn 0.306844 0.575133 0.758333
vn 0.109670 0.932591 -0.343869
vn 0.109670 0.932591 -0.343869
vn -0.214834 -0.003247 -0.976645
vn -0.214834 -0.003247 -0.976645
vn -0.218216 -0.939085 -0.265521
vn -0.218216 -0.939085 -0.265521
vn 0.104199 -0.581627 0.806755
vn 0.104199 -0.581627 0.806755
vn 0.957216 -0.177262 -0.228725
vn 0.957216 -0.177262 -0.228725
vn 0.957216 -0.177262 -0.228725
vn 0.957216 -0.177262 -0.228725
vn 0.957216 -0.177262 -0.228725
vn 0.584864 -0.088779 -0.806258
vn 0.584864 -0.088779 -0.806258
vn 0.945301 -0.093297 0.312572
vn 0.945301 -0.093297 0.312572
vn 0.001664 0.049520 0.998772
vn 0.001664 0.049520 0.998772
vn -0.941972 0.142303 0.304036
vn -0.941972 0.142303 0.304036
vn -0.581535 0.056830 -0.811534
vn -0.581535 0.056830 -0.811534
vn 0.123955 0.991637 -0.035929
vn 0.123955 0.991637 -0.035929
vn 0.123955 0.991637 -0.035929
vn 0.123955 0.991637 -0.035929
vn 0.123955 0.991637 -0.035929
vn 0.583555 -0.070710 -0.808989
vn 0.583555 -0.070710 -0.808989
vn 0.943526 -0.119469 0.309006
vn 0.943526 -0.119469 0.309006
vn 0.001108 0.008183 0.999966
vn 0.001108 0.008183 0.999966
vn -0.941310 0.135835 0.309006
vn -0.941310 0.135835 0.309006
vn -0.581338 0.087077 -0.808989
vn -0.581338 0.087077 -0.808989
vn 0.134226 0.990951 -0.000000
vn 0.134226 0.990951 -0.000000
vn 0.134226 0.990951 -0.000000
vn 0.134226 0.990951 0.000000
vn 0.134226 0.990951 0.000000
vn 0.149134 0.507713 0.848520
vn 0.149134 0.507713 0.848520
vn 0.517867 0.826398 -0.221090
vn 0.517867 0.826398 -0.221090
vn 0.190649 -0.007929 -0.981626
vn 0.190649 -0.007929 -0.981626
vn -0.380316 -0.842256 -0.382054
vn -0.380316 -0.842256 -0.382054
vn -0.405974 -0.523571 0.749038
vn -0.405974 -0.523571 0.749038
vn 0.863624 -0.479791 0.154771
vn 0.863624 -0.479791 0.154771
vn 0.863624 -0.479791 0.154771
vn 0.863624 -0.479791 0.154771
vn 0.863624 -0.479791 0.154771
vn 0.550625 -0.189116 -0.813048
vn 0.550625 -0.189116 -0.813048
vn 0.887598 -0.347974 0.301802
vn 0.887598 -0.347974 0.301802
vn 0.005392 -0.007431 0.999958
vn 0.005392 -0.007431 0.999958
vn -0.876814 0.361894 0.316591
vn -0.876814 0.361894 0.316591
vn -0.539841 0.249606 -0.803908
vn -0.539841 0.249606 -0.803908
vn 0.373319 0.927502 0.019323
vn 0.373319 0.927502 0.019323
vn 0.373319 0.927502 0.019323
vn 0.373319 0.927502 0.019323
vn 0.373319 0.927502 0.019323
vn 0.542261 -0.226926 -0.808986
vn 0.542261 -0.226926 -0.808986
vn 0.875226 -0.372150 0.309005
vn 0.875226 -0.372150 0.309005
vn 0.003512 0.008052 0.999961
vn 0.003512 0.008052 0.999961
vn -0.868202 0.388253 0.309005
vn -0.868202 0.388253 0.309005
vn -0.535237 0.243029 -0.808986
vn -0.535237 0.243029 -0.808986
vn 0.399783 0.916610 -0.000000
vn 0.399783 0.916610 -0.000000
vn 0.399783 0.916610 0.000000
vn 0.399783 0.916610 0.000000
vn 0.399783 0.916610 0.000000
vn 0.589571 0.357536 0.724275
vn 0.589571 0.357536 0.724275
vn 0.690168 0.586215 -0.424288
vn 0.690168 0.586215 -0.424288
vn -0.149232 -0.012475 -0.988724
vn -0.149232 -0.012475 -0.988724
vn -0.768607 -0.611165 -0.189001
vn -0.768607 -0.611165 -0.189001
vn -0.312001 -0.382485 0.869690
vn -0.312001 -0.382485 0.869690
vn 0.621548 -0.776935 -0.100250
vn 0.621548 -0.776935 -0.100250
vn 0.621548 -0.776935 -0.100250
vn 0.621548 -0.776935 -0.100250
vn 0.621548 -0.776935 -0.100250
vn -0.421827 0.377837 0.824198
vn -0.421827 0.377837 0.824198
vn -0.745463 0.603473 -0.283028
vn -0.745463 0.603473 -0.283028
vn -0.024936 0.012750 -0.999608
vn -0.024936 0.012750 -0.999608
vn 0.744011 -0.577973 -0.335253
vn 0.744011 -0.577973 -0.335253
vn 0.498719 -0.352337 0.791920
vn 0.498719 -0.352337 0.791920
vn 0.620823 0.783648 -0.021768
vn 0.620823 0.783648 -0.021768
vn 0.620823 0.783648 -0.021768
vn 0.620823 0.783648 -0.021768
vn 0.620823 0.783648 -0.021768
vn -0.439653 0.390203 0.808979
vn -0.439653 0.390203 0.808979
vn -0.715276 0.626815 -0.309002
vn -0.715276 0.626815 -0.309002
vn 0.006315 0.007356 -0.999953
vn 0.006315 0.007356 -0.999953
vn 0.727907 -0.612102 -0.309002
vn 0.727907 -0.612102 -0.309002
vn 0.452283 -0.375490 0.808979
vn 0.452283 -0.375490 0.808979
vn 0.651368 0.758762 0.000000
vn 0.651368 0.758762 -0.000000
vn 0.651368 0.758762 0.000000
vn 0.651368 0.758762 0.000000
vn 0.651368 0.758762 0.000000
usemtl rock_light
f 1//1 2//1 3//1
f 4//2 5//2 6//2
f 7//3 8//3 9//3
f 10//4 11//4 12//4
f 13//5 14//5 15//5
f 16//6 17//6 18//6
f 19//7 20//7 21//7
f 22//8 23//8 24//8
f 25//9 26//9 27//9
f 28//10 29//10 30//10
f 31//11 32//11 33//11
f 34//12 35//12 36//12
f 37//13 38//13 39//13
f 40//14 41//14 42//14
f 43//15 44//15 45//15
f 46//16 47//16 48//16
f 49//17 50//17 51//17
f 52//18 53//18 54//18
f 55//19 56//19 57//19
f 58//20 59//20 60//20
f 61//21 62//21 63//21
f 64//22 65//22 66//22
f 67//23 68//23 69//23
f 70//24 71//24 72//24
usemtl coral_pink
f 73//25 74//25 75//25
f 76//26 77//26 78//26
f 79//27 80//27 81//27
f 82//28 83//28 84//28
f 85//29 86//29 87//29
f 88//30 89//30 90//30
f 91//31 92//31 93//31
f 94//32 95//32 96//32
f 97//33 98//33 99//33
f 100//34 101//34 102//34
f 103//35 104//35 105//35
f 106//36 107//36 108//36
f 109//37 110//37 111//37
f 112//38 113//38 114//38
f 115//39 116//39 117//39
f 118//40 119//40 120//40
f 121//41 122//41 123//41
f 124//42 125//42 126//42
f 127//43 128//43 129//43
f 130//44 131//44 132//44
f 133//45 134//45 135//45
f 136//46 137//46 138//46
f 139//47 140//47 141//47
f 142//48 143//48 144//48
f 145//49 146//49 147//49
f 148//50 149//50 150//50
f 151//51 152//51 153//51
f 154//52 155//52 156//52
f 157//53 158//53 159//53
f 160//54 161//54 162//54
usemtl coral_gold
f 163//55 164//55 165//55
f 166//56 167//56 168//56
f 169//57 170//57 171//57
f 172//58 173//58 174//58
f 175//59 176//59 177//59
f 178//60 179//60 180//60
f 181//61 182//61 183//61
f 184//62 185//62 186//62
f 187//63 188//63 189//63
f 190//64 191//64 192//64
f 193//65 194//65 195//65
f 196//66 197//66 198//66
f 199//67 200//67 201//67
f 202//68 203//68 204//68
f 205//69 206//69 207//69
usemtl coral_orange
f 208//70 209//70 210//70
f 211//71 212//71 213//71
f 214//72 215//72 216//72
f 217//73 218//73 219//73
f 220//74 221//74 222//74
f 223//75 224//75 225//75
f 226//76 227//76 228//76
f 229//77 230//77 231//77
f 232//78 233//78 234//78
f 235//79 236//79 237//79
f 238//80 239//80 240//80
f 241//81 242//81 243//81
f 244//82 245//82 246//82
f 247//83 248//83 249//83
f 250//84 251//84 252//84
f 253//85 254//85 255//85
f 256//86 257//86 258//86
f 259//87 260//87 261//87
f 262//88 263//88 264//88
f 265//89 266//89 267//89
f 268//90 269//90 270//90
f 271//91 272//91 273//91
f 274//92 275//92 276//92
f 277//93 278//93 279//93
f 280//94 281//94 282//94
f 283//95 284//95 285//95
f 286//96 287//96 288//96
f 289//97 290//97 291//97
f 292//98 293//98 294//98
f 295//99 296//99 297//99
usemtl coral_gold
f 298//100 299//100 300//100
f 301//101 302//101 303//101
f 304//102 305//102 306//102
f 307//103 308//103 309//103
f 310//104 311//104 312//104
f 313//105 314//105 315//105
f 316//106 317//106 318//106
f 319//107 320//107 321//107
f 322//108 323//108 324//108
f 325//109 326//109 327//109
f 328//110 329//110 330//110
f 331//111 332//111 333//111
f 334//112 335//112 336//112
f 337//113 338//113 339//113
f 340//114 341//114 342//114
usemtl coral_pink
f 343//115 344//115 345//115
f 346//116 347//116 348//116
f 349//117 350//117 351//117
f 352//118 353//118 354//118
f 355//119 356//119 357//119
f 358//120 359//120 360//120
f 361//121 362//121 363//121
f 364//122 365//122 366//122
f 367//123 368//123 369//123
f 370//124 371//124 372//124
f 373//125 374//125 375//125
f 376//126 377//126 378//126
f 379//127 380//127 381//127
f 382//128 383//128 384//128
f 385//129 386//129 387//129
f 388//130 389//130 390//130
f 391//131 392//131 393//131
f 394//132 395//132 396//132
f 397//133 398//133 399//133
f 400//134 401//134 402//134
f 403//135 404//135 405//135
f 406//136 407//136 408//136
f 409//137 410//137 411//137
f 412//138 413//138 414//138
f 415//139 416//139 417//139
f 418//140 419//140 420//140
f 421//141 422//141 423//141
f 424//142 425//142 426//142
f 427//143 428//143 429//143
f 430//144 431//144 432//144
usemtl coral_gold
f 433//145 434//145 435//145
f 436//146 437//146 438//146
f 439//147 440//147 441//147
f 442//148 443//148 444//148
f 445//149 446//149 447//149
f 448//150 449//150 450//150
f 451//151 452//151 453//151
f 454//152 455//152 456//152
f 457//153 458//153 459//153
f 460//154 461//154 462//154
f 463//155 464//155 465//155
f 466//156 467//156 468//156
f 469//157 470//157 471//157
f 472//158 473//158 474//158
f 475//159 476//159 477//159
usemtl coral_orange
f 478//160 479//160 480//160
f 481//161 482//161 483//161
f 484//162 485//162 486//162
f 487//163 488//163 489//163
f 490//164 491//164 492//164
f 493//165 494//165 495//165
f 496//166 497//166 498//166
f 499//167 500//167 501//167
f 502//168 503//168 504//168
f 505//169 506//169 507//169
f 508//170 509//170 510//170
f 511//171 512//171 513//171
f 514//172 515//172 516//172
f 517//173 518//173 519//173
f 520//174 521//174 522//174
f 523//175 524//175 525//175
f 526//176 527//176 528//176
f 529//177 530//177 531//177
f 532//178 533//178 534//178
f 535//179 536//179 537//179
f 538//180 539//180 540//180
f 541//181 542//181 543//181
f 544//182 545//182 546//182
f 547//183 548//183 549//183
f 550//184 551//184 552//184
f 553//185 554//185 555//185
f 556//186 557//186 558//186
f 559//187 560//187 561//187
f 562//188 563//188 564//188
f 565//189 566//189 567//189
usemtl coral_gold
f 568//190 569//190 570//190
f 571//191 572//191 573//191
f 574//192 575//192 576//192
f 577//193 578//193 579//193
f 580//194 581//194 582//194
f 583//195 584//195 585//195
f 586//196 587//196 588//196
f 589//197 590//197 591//197
f 592//198 593//198 594//198
f 595//199 596//199 597//199
f 598//200 599//200 600//200
f 601//201 602//201 603//201
f 604//202 605//202 606//202
f 607//203 608//203 609//203
f 610//204 611//204 612//204
usemtl coral_pink
f 613//205 614//205 615//205
f 616//206 617//206 618//206
f 619//207 620//207 621//207
f 622//208 623//208 624//208
f 625//209 626//209 627//209
f 628//210 629//210 630//210
f 631//211 632//211 633//211
f 634//212 635//212 636//212
f 637//213 638//213 639//213
f 640//214 641//214 642//214
f 643//215 644//215 645//215
f 646//216 647//216 648//216
f 649//217 650//217 651//217
f 652//218 653//218 654//218
f 655//219 656//219 657//219
f 658//220 659//220 660//220
f 661//221 662//221 663//221
f 664//222 665//222 666//222
f 667//223 668//223 669//223
f 670//224 671//224 672//224
f 673//225 674//225 675//225
f 676//226 677//226 678//226
f 679//227 680//227 681//227
f 682//228 683//228 684//228
f 685//229 686//229 687//229
f 688//230 689//230 690//230
f 691//231 692//231 693//231
f 694//232 695//232 696//232
f 697//233 698//233 699//233
f 700//234 701//234 702//234
usemtl coral_gold
f 703//235 704//235 705//235
f 706//236 707//236 708//236
f 709//237 710//237 711//237
f 712//238 713//238 714//238
f 715//239 716//239 717//239
f 718//240 719//240 720//240
f 721//241 722//241 723//241
f 724//242 725//242 726//242
f 727//243 728//243 729//243
f 730//244 731//244 732//244
f 733//245 734//245 735//245
f 736//246 737//246 738//246
f 739//247 740//247 741//247
f 742//248 743//248 744//248
f 745//249 746//249 747//249
usemtl coral_orange
f 748//250 749//250 750//250
f 751//251 752//251 753//251
f 754//252 755//252 756//252
f 757//253 758//253 759//253
f 760//254 761//254 762//254
f 763//255 764//255 765//255
f 766//256 767//256 768//256
f 769//257 770//257 771//257
f 772//258 773//258 774//258
f 775//259 776//259 777//259
f 778//260 779//260 780//260
f 781//261 782//261 783//261
f 784//262 785//262 786//262
f 787//263 788//263 789//263
f 790//264 791//264 792//264
f 793//265 794//265 795//265
f 796//266 797//266 798//266
f 799//267 800//267 801//267
f 802//268 803//268 804//268
f 805//269 806//269 807//269
f 808//270 809//270 810//270
f 811//271 812//271 813//271
f 814//272 815//272 816//272
f 817//273 818//273 819//273
f 820//274 821//274 822//274
f 823//275 824//275 825//275
f 826//276 827//276 828//276
f 829//277 830//277 831//277
f 832//278 833//278 834//278
f 835//279 836//279 837//279
