# Procedurally generated low-poly ocean scenery
mtllib ocean_palette.mtl
o PalmIslet
v 12.353502 -2.316834 0.000000
v 16.843138 -0.209955 0.000000
v 13.244865 -0.007735 6.916501
v 12.353502 -2.316834 0.000000
v 13.244865 -0.007735 6.916501
v 11.802490 -2.372201 6.351860
v 11.802490 -2.372201 6.351860
v 13.244865 -0.007735 6.916501
v 5.171099 -0.085082 11.438911
v 11.802490 -2.372201 6.351860
v 5.171099 -0.085082 11.438911
v 3.731614 -2.429168 8.507204
v 3.731614 -2.429168 8.507204
v 5.171099 -0.085082 11.438911
v -4.452242 0.207762 9.848737
v 3.731614 -2.429168 8.507204
v -4.452242 0.207762 9.848737
v -3.742160 -2.370211 8.531249
v -3.742160 -2.370211 8.531249
v -4.452242 0.207762 9.848737
v -11.999475 0.135744 6.266155
v -3.742160 -2.370211 8.531249
v -11.999475 0.135744 6.266155
v -10.883515 -2.375121 5.857286
v -10.883515 -2.375121 5.857286
v -11.999475 0.135744 6.266155
v -16.955542 -0.019590 0.000000
v -10.883515 -2.375121 5.857286
v -16.955542 -0.019590 0.000000
v -13.767990 -2.714759 0.000000
v -13.767990 -2.714759 0.000000
v -16.955542 -0.019590 0.000000
v -12.228320 -0.066792 -6.385659
v -13.767990 -2.714759 0.000000
v -12.228320 -0.066792 -6.385659
v -10.619048 -2.560236 -5.714955
v -10.619048 -2.560236 -5.714955
v -12.228320 -0.066792 -6.385659
v -5.181765 -0.211690 -11.462505
v -10.619048 -2.560236 -5.714955
v -5.181765 -0.211690 -11.462505
v -4.443581 -2.456296 -10.130322
v -4.443581 -2.456296 -10.130322
v -5.181765 -0.211690 -11.462505
v 4.774342 -0.079068 -10.561252
v -4.443581 -2.456296 -10.130322
v 4.774342 -0.079068 -10.561252
v 3.786652 -2.620372 -8.632678
v 3.786652 -2.620372 -8.632678
v 4.774342 -0.079068 -10.561252
v 13.741728 0.071730 -7.175964
v 3.786652 -2.620372 -8.632678
v 13.741728 0.071730 -7.175964
v 12.209628 -2.697024 -6.570973
v 12.209628 -2.697024 -6.570973
v 13.741728 0.071730 -7.175964
v 16.843138 -0.209955 0.000000
v 12.209628 -2.697024 -6.570973
v 16.843138 -0.209955 0.000000
v 12.353502 -2.316834 0.000000
v 16.843138 -0.209955 0.000000
v 10.964727 1.496826 0.000000
v 9.262893 1.495476 4.486591
v 16.843138 -0.209955 0.000000
v 9.262893 1.495476 4.486591
v 13.244865 -0.007735 6.916501
v 13.244865 -0.007735 6.916501
v 9.262893 1.495476 4.486591
v 2.935414 1.344554 6.022850
v 13.244865 -0.007735 6.916501
v 2.935414 1.344554 6.022850
v 5.171099 -0.085082 11.438911
v 5.171099 -0.085082 11.438911
v 2.935414 1.344554 6.022850
v -3.204106 1.423600 6.574150
v 5.171099 -0.085082 11.438911
v -3.204106 1.423600 6.574150
v -4.452242 0.207762 9.848737
v -4.452242 0.207762 9.848737
v -3.204106 1.423600 6.574150
v -8.678649 1.651833 4.203605
v -4.452242 0.207762 9.848737
v -8.678649 1.651833 4.203605
v -11.999475 0.135744 6.266155
v -11.999475 0.135744 6.266155
v -8.678649 1.651833 4.203605
v -11.405383 1.365409 0.000000
v -11.999475 0.135744 6.266155
v -11.405383 1.365409 0.000000
v -16.955542 -0.019590 0.000000
v -16.955542 -0.019590 0.000000
v -11.405383 1.365409 0.000000
v -8.368762 1.702565 -4.053507
v -16.955542 -0.019590 0.000000
v -8.368762 1.702565 -4.053507
v -12.228320 -0.066792 -6.385659
v -12.228320 -0.066792 -6.385659
v -8.368762 1.702565 -4.053507
v -3.312214 1.414078 -6.795965
v -12.228320 -0.066792 -6.385659
v -3.312214 1.414078 -6.795965
v -5.181765 -0.211690 -11.462505
v -5.181765 -0.211690 -11.462505
v -3.312214 1.414078 -6.795965
v 2.976958 1.368964 -6.108089
v -5.181765 -0.211690 -11.462505
v 2.976958 1.368964 -6.108089
v 4.774342 -0.079068 -10.561252
v 4.774342 -0.079068 -10.561252
v 2.976958 1.368964 -6.108089
v 7.673193 1.416070 -3.716601
v 4.774342 -0.079068 -10.561252
v 7.673193 1.416070 -3.716601
v 13.741728 0.071730 -7.175964
v 13.741728 0.071730 -7.175964
v 7.673193 1.416070 -3.716601
v 10.964727 1.496826 0.000000
v 13.741728 0.071730 -7.175964
v 10.964727 1.496826 0.000000
v 16.843138 -0.209955 0.000000
v 10.964727 1.496826 0.000000
v 0.000000 2.000000 0.000000
v 9.262893 1.495476 4.486591
v 9.262893 1.495476 4.486591
v 0.000000 2.000000 0.000000
v 2.935414 1.344554 6.022850
v 2.935414 1.344554 6.022850
v 0.000000 2.000000 0.000000
v -3.204106 1.423600 6.574150
v -3.204106 1.423600 6.574150
v 0.000000 2.000000 0.000000
v -8.678649 1.651833 4.203605
v -8.678649 1.651833 4.203605
v 0.000000 2.000000 0.000000
v -11.405383 1.365409 0.000000
v -11.405383 1.365409 0.000000
v 0.000000 2.000000 0.000000
v -8.368762 1.702565 -4.053507
v -8.368762 1.702565 -4.053507
v 0.000000 2.000000 0.000000
v -3.312214 1.414078 -6.795965
v -3.312214 1.414078 -6.795965
v 0.000000 2.000000 0.000000
v 2.976958 1.368964 -6.108089
v 2.976958 1.368964 -6.108089
v 0.000000 2.000000 0.000000
v 7.673193 1.416070 -3.716601
v 7.673193 1.416070 -3.716601
v 0.000000 2.000000 0.000000
v 10.964727 1.496826 0.000000
v -3.500000 1.700000 -0.050000
v -4.130000 6.500000 0.071000
v -3.797446 6.543648 0.232523
v -3.500000 1.700000 -0.050000
v -3.797446 6.543648 0.232523
v -3.073649 1.755959 0.157081
v -3.073649 1.755959 0.157081
v -3.797446 6.543648 0.232523
v -3.715312 6.554428 0.595461
v -3.073649 1.755959 0.157081
v -3.715312 6.554428 0.595461
v -2.968349 1.769779 0.622387
v -2.968349 1.769779 0.622387
v -3.715312 6.554428 0.595461
v -3.945447 6.524223 0.886516
v -2.968349 1.769779 0.622387
v -3.945447 6.524223 0.886516
v -3.263393 1.731055 0.995533
v -3.263393 1.731055 0.995533
v -3.945447 6.524223 0.886516
v -4.314553 6.475777 0.886516
v -3.263393 1.731055 0.995533
v -4.314553 6.475777 0.886516
v -3.736607 1.668945 0.995533
v -3.736607 1.668945 0.995533
v -4.314553 6.475777 0.886516
v -4.544688 6.445572 0.595461
v -3.736607 1.668945 0.995533
v -4.544688 6.445572 0.595461
v -4.031651 1.630221 0.622387
v -4.031651 1.630221 0.622387
v -4.544688 6.445572 0.595461
v -4.462554 6.456352 0.232523
v -4.031651 1.630221 0.622387
v -4.462554 6.456352 0.232523
v -3.926351 1.644041 0.157081
v -3.926351 1.644041 0.157081
v -4.462554 6.456352 0.232523
v -4.130000 6.500000 0.071000
v -3.926351 1.644041 0.157081
v -4.130000 6.500000 0.071000
v -3.500000 1.700000 -0.050000
v -4.130000 6.500000 0.071000
v -4.130000 6.500000 0.500000
v -3.797446 6.543648 0.232523
v -3.797446 6.543648 0.232523
v -4.130000 6.500000 0.500000
v -3.715312 6.554428 0.595461
v -3.715312 6.554428 0.595461
v -4.130000 6.500000 0.500000
v -3.945447 6.524223 0.886516
v -3.945447 6.524223 0.886516
v -4.130000 6.500000 0.500000
v -4.314553 6.475777 0.886516
v -4.314553 6.475777 0.886516
v -4.130000 6.500000 0.500000
v -4.544688 6.445572 0.595461
v -4.544688 6.445572 0.595461
v -4.130000 6.500000 0.500000
v -4.462554 6.456352 0.232523
v -4.462554 6.456352 0.232523
v -4.130000 6.500000 0.500000
v -4.130000 6.500000 0.071000
v -4.130000 6.466345 0.051260
v -5.030000 10.673749 -0.165017
v -4.761636 10.740818 -0.037521
v -4.130000 6.466345 0.051260
v -4.761636 10.740818 -0.037521
v -3.785943 6.552330 0.214717
v -3.785943 6.552330 0.214717
v -4.761636 10.740818 -0.037521
v -4.695355 10.777150 0.257538
v -3.785943 6.552330 0.214717
v -4.695355 10.777150 0.257538
v -3.700968 6.598910 0.592997
v -3.700968 6.598910 0.592997
v -4.695355 10.777150 0.257538
v -4.881069 10.755387 0.497974
v -3.700968 6.598910 0.592997
v -4.881069 10.755387 0.497974
v -3.939063 6.571009 0.901249
v -3.939063 6.571009 0.901249
v -4.881069 10.755387 0.497974
v -5.178931 10.691916 0.502735
v -3.939063 6.571009 0.901249
v -5.178931 10.691916 0.502735
v -4.320937 6.489636 0.907352
v -4.320937 6.489636 0.907352
v -5.178931 10.691916 0.502735
v -5.364645 10.634533 0.268234
v -4.320937 6.489636 0.907352
v -5.364645 10.634533 0.268234
v -4.559032 6.416068 0.606711
v -4.559032 6.416068 0.606711
v -5.364645 10.634533 0.268234
v -5.298364 10.626448 -0.028943
v -4.559032 6.416068 0.606711
v -5.298364 10.626448 -0.028943
v -4.474057 6.405702 0.225714
v -4.474057 6.405702 0.225714
v -5.298364 10.626448 -0.028943
v -5.030000 10.673749 -0.165017
v -4.474057 6.405702 0.225714
v -5.030000 10.673749 -0.165017
v -4.130000 6.466345 0.051260
v -5.030000 10.673749 -0.165017
v -5.030000 10.700000 0.185000
v -4.761636 10.740818 -0.037521
v -4.761636 10.740818 -0.037521
v -5.030000 10.700000 0.185000
v -4.695355 10.777150 0.257538
v -4.695355 10.777150 0.257538
v -5.030000 10.700000 0.185000
v -4.881069 10.755387 0.497974
v -4.881069 10.755387 0.497974
v -5.030000 10.700000 0.185000
v -5.178931 10.691916 0.502735
v -5.178931 10.691916 0.502735
v -5.030000 10.700000 0.185000
v -5.364645 10.634533 0.268234
v -5.364645 10.634533 0.268234
v -5.030000 10.700000 0.185000
v -5.298364 10.626448 -0.028943
v -5.298364 10.626448 -0.028943
v -5.030000 10.700000 0.185000
v -5.030000 10.673749 -0.165017
v -5.030000 10.700000 0.185000
v -2.496816 10.550000 -0.996305
v -1.921950 9.700000 -3.731635
v -5.030000 10.700000 0.185000
v -1.921950 9.700000 -3.731635
v -4.455134 10.550000 -2.550330
v -1.921950 9.700000 -3.731635
v -2.496816 10.550000 -0.996305
v -5.030000 10.700000 0.185000
v -4.455134 10.550000 -2.550330
v -1.921950 9.700000 -3.731635
v -5.030000 10.700000 0.185000
v -5.030000 10.700000 0.185000
v -2.127006 10.550000 1.428030
v 0.769983 9.700000 0.171068
v -5.030000 10.700000 0.185000
v 0.769983 9.700000 0.171068
v -2.133011 10.550000 -1.071962
v 0.769983 9.700000 0.171068
v -2.127006 10.550000 1.428030
v -5.030000 10.700000 0.185000
v -2.133011 10.550000 -1.071962
v 0.769983 9.700000 0.171068
v -5.030000 10.700000 0.185000
v -5.030000 10.700000 0.185000
v -4.441999 10.550000 2.917536
v -1.903170 9.700000 4.086658
v -5.030000 10.700000 0.185000
v -1.903170 9.700000 4.086658
v -2.491170 10.550000 1.354121
v -1.903170 9.700000 4.086658
v -4.441999 10.550000 2.917536
v -5.030000 10.700000 0.185000
v -2.491170 10.550000 1.354121
v -1.903170 9.700000 4.086658
v -5.030000 10.700000 0.185000
v -5.030000 10.700000 0.185000
v -6.887842 10.550000 2.738610
v -6.307035 9.700000 5.842666
v -5.030000 10.700000 0.185000
v -6.307035 9.700000 5.842666
v -4.449193 10.550000 3.289056
v -6.307035 9.700000 5.842666
v -6.887842 10.550000 2.738610
v -5.030000 10.700000 0.185000
v -4.449193 10.550000 3.289056
v -6.307035 9.700000 5.842666
v -5.030000 10.700000 0.185000
v -5.030000 10.700000 0.185000
v -7.824868 10.550000 0.150212
v -9.529620 9.700000 2.365234
v -5.030000 10.700000 0.185000
v -9.529620 9.700000 2.365234
v -6.734752 10.550000 2.400022
v -9.529620 9.700000 2.365234
v -7.824868 10.550000 0.150212
v -5.030000 10.700000 0.185000
v -6.734752 10.550000 2.400022
v -9.529620 9.700000 2.365234
v -5.030000 10.700000 0.185000
v -5.030000 10.700000 0.185000
v -7.106177 10.550000 -2.194494
v -10.261649 9.700000 -2.318966
v -5.030000 10.700000 0.185000
v -10.261649 9.700000 -2.318966
v -8.185472 10.550000 0.060528
v -10.261649 9.700000 -2.318966
v -7.106177 10.550000 -2.194494
v -5.030000 10.700000 0.185000
v -8.185472 10.550000 0.060528
v -10.261649 9.700000 -2.318966
v -5.030000 10.700000 0.185000
v -5.030000 10.700000 0.185000
v -4.374167 10.550000 -2.532054
v -6.154311 9.700000 -4.686953
v -5.030000 10.700000 0.185000
v -6.154311 9.700000 -4.686953
v -6.810144 10.550000 -1.969899
v -6.154311 9.700000 -4.686953
v -4.374167 10.550000 -2.532054
v -5.030000 10.700000 0.185000
v -6.810144 10.550000 -1.969899
v -6.154311 9.700000 -4.686953
v -5.030000 10.700000 0.185000
v 3.800000 1.500000 -2.350000
v 4.290000 6.300000 -2.229000
v 4.623672 6.265938 -2.067477
v 3.800000 1.500000 -2.350000
v 4.623672 6.265938 -2.067477
v 4.227784 1.456330 -2.142919
v 4.227784 1.456330 -2.142919
v 4.623672 6.265938 -2.067477
v 4.706082 6.257525 -1.704539
v 4.227784 1.456330 -2.142919
v 4.706082 6.257525 -1.704539
v 4.333438 1.445545 -1.677613
v 4.333438 1.445545 -1.677613
v 4.706082 6.257525 -1.704539
v 4.475174 6.281097 -1.413484
v 4.333438 1.445545 -1.677613
v 4.475174 6.281097 -1.413484
v 4.037402 1.475765 -1.304467
v 4.037402 1.475765 -1.304467
v 4.475174 6.281097 -1.413484
v 4.104826 6.318903 -1.413484
v 4.037402 1.475765 -1.304467
v 4.104826 6.318903 -1.413484
v 3.562598 1.524235 -1.304467
v 3.562598 1.524235 -1.304467
v 4.104826 6.318903 -1.413484
v 3.873918 6.342475 -1.704539
v 3.562598 1.524235 -1.304467
v 3.873918 6.342475 -1.704539
v 3.266562 1.554455 -1.677613
v 3.266562 1.554455 -1.677613
v 3.873918 6.342475 -1.704539
v 3.956328 6.334062 -2.067477
v 3.266562 1.554455 -1.677613
v 3.956328 6.334062 -2.067477
v 3.372216 1.543670 -2.142919
v 3.372216 1.543670 -2.142919
v 3.956328 6.334062 -2.067477
v 4.290000 6.300000 -2.229000
v 3.372216 1.543670 -2.142919
v 4.290000 6.300000 -2.229000
v 3.800000 1.500000 -2.350000
v 4.290000 6.300000 -2.229000
v 4.290000 6.300000 -1.800000
v 4.623672 6.265938 -2.067477
v 4.623672 6.265938 -2.067477
v 4.290000 6.300000 -1.800000
v 4.706082 6.257525 -1.704539
v 4.706082 6.257525 -1.704539
v 4.290000 6.300000 -1.800000
v 4.475174 6.281097 -1.413484
v 4.475174 6.281097 -1.413484
v 4.290000 6.300000 -1.800000
v 4.104826 6.318903 -1.413484
v 4.104826 6.318903 -1.413484
v 4.290000 6.300000 -1.800000
v 3.873918 6.342475 -1.704539
v 3.873918 6.342475 -1.704539
v 4.290000 6.300000 -1.800000
v 3.956328 6.334062 -2.067477
v 3.956328 6.334062 -2.067477
v 4.290000 6.300000 -1.800000
v 4.290000 6.300000 -2.229000
v 4.290000 6.326205 -2.249236
v 4.990000 10.520440 -1.905404
v 5.260701 10.467780 -1.776096
v 4.290000 6.326205 -2.249236
v 5.260701 10.467780 -1.776096
v 4.637053 6.258693 -2.083457
v 4.637053 6.258693 -2.083457
v 5.260701 10.467780 -1.776096
v 5.327559 10.439383 -1.480298
v 4.637053 6.258693 -2.083457
v 5.327559 10.439383 -1.480298
v 4.722768 6.222285 -1.704229
v 4.722768 6.222285 -1.704229
v 5.327559 10.439383 -1.480298
v 5.140228 10.456631 -1.240752
v 4.722768 6.222285 -1.704229
v 5.140228 10.456631 -1.240752
v 4.482600 6.244399 -1.397118
v 4.482600 6.244399 -1.397118
v 5.140228 10.456631 -1.240752
v 4.839772 10.506537 -1.237841
v 4.482600 6.244399 -1.397118
v 4.839772 10.506537 -1.237841
v 4.097400 6.308381 -1.393386
v 4.097400 6.308381 -1.393386
v 4.839772 10.506537 -1.237841
v 4.652441 10.551521 -1.473757
v 4.097400 6.308381 -1.393386
v 4.652441 10.551521 -1.473757
v 3.857232 6.366052 -1.695842
v 3.857232 6.366052 -1.695842
v 4.652441 10.551521 -1.473757
v 4.719299 10.557708 -1.770851
v 3.857232 6.366052 -1.695842
v 4.719299 10.557708 -1.770851
v 3.942947 6.373985 -2.076732
v 3.942947 6.373985 -2.076732
v 4.719299 10.557708 -1.770851
v 4.990000 10.520440 -1.905404
v 3.942947 6.373985 -2.076732
v 4.990000 10.520440 -1.905404
v 4.290000 6.326205 -2.249236
v 4.990000 10.520440 -1.905404
v 4.990000 10.500000 -1.555000
v 5.260701 10.467780 -1.776096
v 5.260701 10.467780 -1.776096
v 4.990000 10.500000 -1.555000
v 5.327559 10.439383 -1.480298
v 5.327559 10.439383 -1.480298
v 4.990000 10.500000 -1.555000
v 5.140228 10.456631 -1.240752
v 5.140228 10.456631 -1.240752
v 4.990000 10.500000 -1.555000
v 4.839772 10.506537 -1.237841
v 4.839772 10.506537 -1.237841
v 4.990000 10.500000 -1.555000
v 4.652441 10.551521 -1.473757
v 4.652441 10.551521 -1.473757
v 4.990000 10.500000 -1.555000
v 4.719299 10.557708 -1.770851
v 4.719299 10.557708 -1.770851
v 4.990000 10.500000 -1.555000
v 4.990000 10.520440 -1.905404
v 4.990000 10.500000 -1.555000
v 6.096833 10.350000 1.011597
v 8.814211 9.500000 1.666088
v 4.990000 10.500000 -1.555000
v 8.814211 9.500000 1.666088
v 7.707378 10.350000 -0.900509
v 8.814211 9.500000 1.666088
v 6.096833 10.350000 1.011597
v 4.990000 10.500000 -1.555000
v 7.707378 10.350000 -0.900509
v 8.814211 9.500000 1.666088
v 4.990000 10.500000 -1.555000
v 4.990000 10.500000 -1.555000
v 3.662734 10.350000 1.310461
v 4.834569 9.500000 4.242917
v 4.990000 10.500000 -1.555000
v 4.834569 9.500000 4.242917
v 6.161836 10.350000 1.377456
v 4.834569 9.500000 4.242917
v 3.662734 10.350000 1.310461
v 4.990000 10.500000 -1.555000
v 6.161836 10.350000 1.377456
v 4.834569 9.500000 4.242917
v 4.990000 10.500000 -1.555000
v 4.990000 10.500000 -1.555000
v 2.241459 10.350000 -1.047039
v 0.998704 9.500000 1.456570
v 4.990000 10.500000 -1.555000
v 0.998704 9.500000 1.456570
v 3.747245 10.350000 0.948609
v 0.998704 9.500000 1.456570
v 2.241459 10.350000 -1.047039
v 4.990000 10.500000 -1.555000
v 3.747245 10.350000 0.948609
v 0.998704 9.500000 1.456570
v 4.990000 10.500000 -1.555000
v 4.990000 10.500000 -1.555000
v 2.491727 10.350000 -3.486614
v -0.627965 9.500000 -2.996691
v 4.990000 10.500000 -1.555000
v -0.627965 9.500000 -2.996691
v 1.870308 10.350000 -1.065078
v -0.627965 9.500000 -2.996691
v 2.491727 10.350000 -3.486614
v 4.990000 10.500000 -1.555000
v 1.870308 10.350000 -1.065078
v -0.627965 9.500000 -2.996691
v 4.990000 10.500000 -1.555000
v 4.990000 10.500000 -1.555000
v 5.106382 10.350000 -4.347661
v 2.942083 9.500000 -6.116363
v 4.990000 10.500000 -1.555000
v 2.942083 9.500000 -6.116363
v 2.825701 10.350000 -3.323702
v 2.942083 9.500000 -6.116363
v 5.106382 10.350000 -4.347661
v 4.990000 10.500000 -1.555000
v 2.825701 10.350000 -3.323702
v 2.942083 9.500000 -6.116363
v 4.990000 10.500000 -1.555000
v 4.990000 10.500000 -1.555000
v 7.429102 10.350000 -3.560811
v 7.645660 9.500000 -6.711304
v 4.990000 10.500000 -1.555000
v 7.645660 9.500000 -6.711304
v 5.206558 10.350000 -4.705492
v 7.645660 9.500000 -6.711304
v 7.429102 10.350000 -3.560811
v 4.990000 10.500000 -1.555000
v 5.206558 10.350000 -4.705492
v 7.645660 9.500000 -6.711304
v 4.990000 10.500000 -1.555000
v 4.990000 10.500000 -1.555000
v 7.686746 10.350000 -0.820110
v 9.892705 9.500000 -2.536573
v 4.990000 10.500000 -1.555000
v 9.892705 9.500000 -2.536573
v 7.195959 10.350000 -3.271463
v 9.892705 9.500000 -2.536573
v 7.686746 10.350000 -0.820110
v 4.990000 10.500000 -1.555000
v 7.195959 10.350000 -3.271463
v 9.892705 9.500000 -2.536573
v 4.990000 10.500000 -1.555000
v 0.800000 1.800000 2.650000
v 0.905000 6.600000 2.771000
v 1.240325 6.592665 2.932523
v 0.800000 1.800000 2.650000
v 1.240325 6.592665 2.932523
v 1.229904 1.790596 2.857081
v 1.229904 1.790596 2.857081
v 1.240325 6.592665 2.932523
v 1.323144 6.590853 3.295461
v 1.229904 1.790596 2.857081
v 1.323144 6.590853 3.295461
v 1.336082 1.788273 3.322387
v 1.336082 1.788273 3.322387
v 1.323144 6.590853 3.295461
v 1.091092 6.595929 3.586516
v 1.336082 1.788273 3.322387
v 1.091092 6.595929 3.586516
v 1.038579 1.794781 3.695533
v 1.038579 1.794781 3.695533
v 1.091092 6.595929 3.586516
v 0.718908 6.604071 3.586516
v 1.038579 1.794781 3.695533
v 0.718908 6.604071 3.586516
v 0.561421 1.805219 3.695533
v 0.561421 1.805219 3.695533
v 0.718908 6.604071 3.586516
v 0.486856 6.609147 3.295461
v 0.561421 1.805219 3.695533
v 0.486856 6.609147 3.295461
v 0.263918 1.811727 3.322387
v 0.263918 1.811727 3.322387
v 0.486856 6.609147 3.295461
v 0.569675 6.607335 2.932523
v 0.263918 1.811727 3.322387
v 0.569675 6.607335 2.932523
v 0.370096 1.809404 2.857081
v 0.370096 1.809404 2.857081
v 0.569675 6.607335 2.932523
v 0.905000 6.600000 2.771000
v 0.370096 1.809404 2.857081
v 0.905000 6.600000 2.771000
v 0.800000 1.800000 2.650000
v 0.905000 6.600000 2.771000
v 0.905000 6.600000 3.200000
v 1.240325 6.592665 2.932523
v 1.240325 6.592665 2.932523
v 0.905000 6.600000 3.200000
v 1.323144 6.590853 3.295461
v 1.323144 6.590853 3.295461
v 0.905000 6.600000 3.200000
v 1.091092 6.595929 3.586516
v 1.091092 6.595929 3.586516
v 0.905000 6.600000 3.200000
v 0.718908 6.604071 3.586516
v 0.718908 6.604071 3.586516
v 0.905000 6.600000 3.200000
v 0.486856 6.609147 3.295461
v 0.486856 6.609147 3.295461
v 0.905000 6.600000 3.200000
v 0.569675 6.607335 2.932523
v 0.569675 6.607335 2.932523
v 0.905000 6.600000 3.200000
v 0.905000 6.600000 2.771000
v 0.905000 6.605625 2.750035
v 1.055000 10.804387 2.901527
v 1.329248 10.792942 3.033550
v 0.905000 6.605625 2.750035
v 1.329248 10.792942 3.033550
v 1.256600 6.590952 2.919295
v 1.256600 6.590952 2.919295
v 1.329248 10.792942 3.033550
v 1.396982 10.786812 3.330446
v 1.256600 6.590952 2.919295
v 1.396982 10.786812 3.330446
v 1.343438 6.583092 3.299931
v 1.343438 6.583092 3.299931
v 1.396982 10.786812 3.330446
v 1.207196 10.790613 3.568647
v 1.343438 6.583092 3.299931
v 1.207196 10.790613 3.568647
v 1.100123 6.587965 3.605317
v 1.100123 6.587965 3.605317
v 1.207196 10.790613 3.568647
v 0.902804 10.801482 3.568783
v 1.100123 6.587965 3.605317
v 0.902804 10.801482 3.568783
v 0.709877 6.601900 3.605491
v 0.709877 6.601900 3.605491
v 0.902804 10.801482 3.568783
v 0.713018 10.811235 3.330751
v 0.709877 6.601900 3.605491
v 0.713018 10.811235 3.330751
v 0.466562 6.614404 3.300322
v 0.466562 6.614404 3.300322
v 0.713018 10.811235 3.330751
v 0.780752 10.812528 3.033795
v 0.466562 6.614404 3.300322
v 0.780752 10.812528 3.033795
v 0.553400 6.616062 2.919608
v 0.553400 6.616062 2.919608
v 0.780752 10.812528 3.033795
v 1.055000 10.804387 2.901527
v 0.553400 6.616062 2.919608
v 1.055000 10.804387 2.901527
v 0.905000 6.605625 2.750035
v 1.055000 10.804387 2.901527
v 1.055000 10.800000 3.252500
v 1.329248 10.792942 3.033550
v 1.329248 10.792942 3.033550
v 1.055000 10.800000 3.252500
v 1.396982 10.786812 3.330446
v 1.396982 10.786812 3.330446
v 1.055000 10.800000 3.252500
v 1.207196 10.790613 3.568647
v 1.207196 10.790613 3.568647
v 1.055000 10.800000 3.252500
v 0.902804 10.801482 3.568783
v 0.902804 10.801482 3.568783
v 1.055000 10.800000 3.252500
v 0.713018 10.811235 3.330751
v 0.713018 10.811235 3.330751
v 1.055000 10.800000 3.252500
v 0.780752 10.812528 3.033795
v 0.780752 10.812528 3.033795
v 1.055000 10.800000 3.252500
v 1.055000 10.804387 2.901527
v 1.055000 10.800000 3.252500
v 3.340130 10.650000 4.862059
v 5.998855 9.800000 3.999691
v 1.055000 10.800000 3.252500
v 5.998855 9.800000 3.999691
v 3.713725 10.650000 2.390131
v 5.998855 9.800000 3.999691
v 3.340130 10.650000 4.862059
v 1.055000 10.800000 3.252500
v 3.713725 10.650000 2.390131
v 5.998855 9.800000 3.999691
v 1.055000 10.800000 3.252500
v 1.055000 10.800000 3.252500
v 1.421213 10.650000 6.389121
v 3.952989 9.800000 8.276608
v 1.055000 10.800000 3.252500
v 3.952989 9.800000 8.276608
v 3.586776 10.650000 5.139987
v 3.952989 9.800000 8.276608
v 1.421213 10.650000 6.389121
v 1.055000 10.800000 3.252500
v 3.586776 10.650000 5.139987
v 3.952989 9.800000 8.276608
v 1.055000 10.800000 3.252500
v 1.055000 10.800000 3.252500
v -1.022693 10.650000 5.122176
v -0.773568 9.800000 7.906137
v 1.055000 10.800000 3.252500
v -0.773568 9.800000 7.906137
v 1.304125 10.650000 6.036461
v -0.773568 9.800000 7.906137
v -1.022693 10.650000 5.122176
v 1.055000 10.800000 3.252500
v 1.304125 10.650000 6.036461
v -0.773568 9.800000 7.906137
v 1.055000 10.800000 3.252500
v 1.055000 10.800000 3.252500
v -2.084469 10.650000 2.911567
v -4.488006 9.800000 4.959861
v 1.055000 10.800000 3.252500
v -4.488006 9.800000 4.959861
v -1.348537 10.650000 5.300794
v -4.488006 9.800000 4.959861
v -2.084469 10.650000 2.911567
v 1.055000 10.800000 3.252500
v -1.348537 10.650000 5.300794
v -4.488006 9.800000 4.959861
v 1.055000 10.800000 3.252500
v 1.055000 10.800000 3.252500
v -0.305469 10.650000 0.810857
v -3.075066 9.800000 0.434246
v 1.055000 10.800000 3.252500
v -3.075066 9.800000 0.434246
v -1.714596 10.650000 2.875889
v -3.075066 9.800000 0.434246
v -0.305469 10.650000 0.810857
v 1.055000 10.800000 3.252500
v -1.714596 10.650000 2.875889
v -3.075066 9.800000 0.434246
v 1.055000 10.800000 3.252500
v 1.055000 10.800000 3.252500
v 2.085983 10.650000 0.267609
v 0.623881 9.800000 -2.531455
v 1.055000 10.800000 3.252500
v 0.623881 9.800000 -2.531455
v -0.407102 10.650000 0.453436
v 0.623881 9.800000 -2.531455
v 2.085983 10.650000 0.267609
v 1.055000 10.800000 3.252500
v -0.407102 10.650000 0.453436
v 0.623881 9.800000 -2.531455
v 1.055000 10.800000 3.252500
v 1.055000 10.800000 3.252500
v 3.738159 10.650000 2.469457
v 4.721621 9.800000 -0.146896
v 1.055000 10.800000 3.252500
v 4.721621 9.800000 -0.146896
v 2.038461 10.650000 0.636147
v 4.721621 9.800000 -0.146896
v 3.738159 10.650000 2.469457
v 1.055000 10.800000 3.252500
v 2.038461 10.650000 0.636147
v 4.721621 9.800000 -0.146896
v 1.055000 10.800000 3.252500
vn 0.412383 -0.878765 0.240233
vn 0.844316 -0.531435 0.068610
vn 0.438959 -0.453065 0.775916
vn 0.157484 -0.807560 0.568370
vn -0.131237 -0.741852 0.657596
vn -0.000727 -0.455231 0.890373
vn -0.367096 -0.501487 0.783423
vn -0.334919 -0.294598 0.895009
vn -0.710737 -0.409079 0.572282
vn -0.607062 -0.717967 0.340585
vn -0.583816 -0.690474 -0.427088
vn -0.713019 -0.570007 -0.408285
vn -0.508374 -0.513959 -0.690943
vn -0.475874 -0.559336 -0.678739
vn 0.085148 -0.487672 -0.868865
vn 0.126785 -0.630443 -0.765811
vn 0.278808 -0.646962 -0.709722
vn 0.222156 -0.323879 -0.919646
vn 0.781693 -0.510754 -0.357892
vn 0.424431 -0.904437 0.043037
vn 0.277277 0.954984 0.105463
vn 0.285319 0.950810 0.120636
vn 0.081512 0.901834 0.424324
vn 0.109084 0.971302 0.211359
vn 0.034202 0.969711 0.241849
vn -0.027359 0.940473 0.338765
vn -0.096546 0.944534 0.313902
vn -0.184885 0.909962 0.371196
vn -0.331183 0.931346 0.151367
vn -0.238793 0.956925 0.165146
vn -0.240900 0.965367 -0.100170
vn -0.291757 0.930167 -0.222860
vn -0.167935 0.899114 -0.404219
vn -0.169843 0.949771 -0.262845
vn 0.044405 0.937740 -0.344488
vn 0.014810 0.952625 -0.303787
vn 0.123524 0.957287 -0.261424
vn 0.075563 0.967019 -0.243237
vn 0.136260 0.980446 -0.141979
vn 0.277881 0.957064 -0.082530
vn 0.045835 0.998792 0.017687
vn 0.002285 0.994247 0.107087
vn 0.021588 0.994976 0.097758
vn 0.003063 0.996043 0.088823
vn -0.055525 0.997945 -0.031980
vn -0.055506 0.997600 0.041395
vn 0.008107 0.995925 -0.089816
vn 0.017457 0.995388 -0.094327
vn 0.033966 0.995689 -0.086312
vn 0.045753 0.997015 -0.062184
vn 0.427155 0.078770 -0.900741
vn 0.427155 0.078770 -0.900741
vn 0.963463 0.149161 -0.222465
vn 0.963463 0.149161 -0.222465
vn 0.772057 0.124039 0.623332
vn 0.772057 0.124039 0.623332
vn -0.002930 0.022322 0.999747
vn -0.002930 0.022322 0.999747
vn -0.777916 -0.079395 0.623332
vn -0.777916 -0.079395 0.623332
vn -0.969322 -0.104517 -0.222465
vn -0.969322 -0.104517 -0.222465
vn -0.433015 -0.034127 -0.900741
vn -0.433015 -0.034127 -0.900741
vn -0.130134 0.991496 0.000000
vn -0.130134 0.991496 -0.000000
vn -0.130134 0.991496 0.000000
vn -0.130134 0.991496 -0.000000
vn -0.130134 0.991496 -0.000000
vn -0.130134 0.991496 0.000000
vn -0.130134 0.991496 0.000000
vn 0.419887 0.043217 -0.906547
vn 0.419887 0.043217 -0.906547
vn 0.948873 0.206668 -0.238598
vn 0.948873 0.206668 -0.238598
vn 0.760080 0.229698 0.607880
vn 0.760080 0.229698 0.607880
vn -0.004327 0.094966 0.995471
vn -0.004327 0.094966 0.995471
vn -0.768733 -0.096073 0.632312
vn -0.768733 -0.096073 0.632312
vn -0.957526 -0.199561 -0.208131
vn -0.957526 -0.199561 -0.208131
vn -0.428541 -0.137572 -0.892988
vn -0.428541 -0.137572 -0.892988
vn -0.208968 0.975184 -0.073139
vn -0.208968 0.975184 -0.073139
vn -0.208968 0.975184 -0.073139
vn -0.208968 0.975184 -0.073139
vn -0.208968 0.975184 -0.073139
vn -0.208968 0.975184 -0.073139
vn -0.208968 0.975184 -0.073139
vn -0.089840 0.945587 -0.312721
vn 0.324954 0.945587 0.016439
vn 0.089840 -0.945587 0.312721
vn -0.324954 -0.945587 -0.016439
vn 0.163147 0.949960 -0.266381
vn 0.164425 0.949960 0.265595
vn -0.163147 -0.949960 0.266381
vn -0.164425 -0.949960 -0.265595
vn 0.324872 0.945587 -0.018000
vn -0.088336 0.945587 0.313149
vn -0.324872 -0.945587 0.018000
vn 0.088336 -0.945587 -0.313149
vn 0.223399 0.949960 0.218332
vn -0.295524 0.949960 0.101202
vn -0.223399 -0.949960 -0.218332
vn 0.295524 -0.949960 -0.101202
vn -0.054742 0.945587 0.320732
vn -0.285641 0.945587 -0.155804
vn 0.054742 -0.945587 -0.320732
vn 0.285641 -0.945587 0.155804
vn -0.262569 0.949960 0.169215
vn -0.032904 0.949960 -0.310634
vn 0.262569 -0.949960 -0.169215
vn 0.032904 -0.949960 0.310634
vn -0.300509 0.945587 -0.124739
vn 0.215459 0.945587 -0.243810
vn 0.300509 -0.945587 0.124739
vn -0.215459 -0.945587 0.243810
vn 0.433824 -0.021580 -0.900739
vn 0.433824 -0.021580 -0.900739
vn 0.971934 -0.076512 -0.222464
vn 0.971934 -0.076512 -0.222464
vn 0.779885 -0.056907 0.623331
vn 0.779885 -0.056907 0.623331
vn 0.002294 0.022472 0.999745
vn 0.002294 0.022472 0.999745
vn -0.775297 0.101851 0.623331
vn -0.775297 0.101851 0.623331
vn -0.967346 0.121456 -0.222464
vn -0.967346 0.121456 -0.222464
vn -0.429236 0.066524 -0.900739
vn -0.429236 0.066524 -0.900739
vn 0.101556 0.994830 -0.000000
vn 0.101556 0.994830 0.000000
vn 0.101556 0.994830 -0.000000
vn 0.101556 0.994830 0.000000
vn 0.101556 0.994830 0.000000
vn 0.101556 0.994830 -0.000000
vn 0.101556 0.994830 0.000000
vn 0.431338 0.001970 -0.902188
vn 0.431338 0.001970 -0.902188
vn 0.964929 -0.126160 -0.230210
vn 0.964929 -0.126160 -0.230210
vn 0.774492 -0.143784 0.616026
vn 0.774492 -0.143784 0.616026
vn 0.003432 -0.037631 0.999286
vn 0.003432 -0.037631 0.999286
vn -0.767629 0.112364 0.630968
vn -0.767629 0.112364 0.630968
vn -0.958065 0.193252 -0.211577
vn -0.958065 0.193252 -0.211577
vn -0.424475 0.144122 -0.893896
vn -0.424475 0.144122 -0.893896
vn 0.164128 0.984765 0.057445
vn 0.164128 0.984765 0.057445
vn 0.164128 0.984765 0.057445
vn 0.164128 0.984765 0.057445
vn 0.164128 0.984765 0.057445
vn 0.164128 0.984765 0.057445
vn 0.164128 0.984765 0.057445
vn 0.315211 0.945587 -0.080670
vn -0.025921 0.945587 0.324336
vn -0.315211 -0.945587 0.080670
vn 0.025921 -0.945587 -0.324336
vn 0.261504 0.949960 0.170855
vn -0.270282 0.949960 0.156599
vn -0.261504 -0.949960 -0.170855
vn 0.270282 -0.949960 -0.156599
vn 0.008507 0.945587 0.325259
vn -0.310436 0.945587 -0.097442
vn -0.008507 -0.945587 -0.325259
vn 0.310436 -0.945587 0.097442
vn -0.224762 0.949960 0.216929
vn -0.092530 0.949960 -0.298353
vn 0.224762 -0.949960 -0.216929
vn 0.092530 -0.949960 0.298353
vn -0.318997 0.945587 -0.064084
vn 0.164078 0.945587 -0.280970
vn 0.318997 -0.945587 0.064084
vn -0.164078 -0.945587 0.280970
vn -0.161476 0.949960 -0.267398
vn 0.311462 0.949960 -0.023820
vn 0.161476 -0.949960 0.267398
vn -0.311462 -0.949960 0.023820
vn 0.133460 0.945587 -0.296739
vn 0.237414 0.945587 0.222486
vn -0.133460 -0.945587 0.296739
vn -0.237414 -0.945587 -0.222486
vn 0.434165 0.013209 -0.900737
vn 0.434165 0.013209 -0.900737
vn 0.974940 0.001379 -0.222464
vn 0.974940 0.001379 -0.222464
vn 0.781940 0.005601 0.623329
vn 0.781940 0.005601 0.623329
vn 0.000496 0.022695 0.999742
vn 0.000496 0.022695 0.999742
vn -0.780947 0.039789 0.623329
vn -0.780947 0.039789 0.623329
vn -0.973947 0.044011 -0.222464
vn -0.973947 0.044011 -0.222464
vn -0.433172 0.032182 -0.900737
vn -0.433172 0.032182 -0.900737
vn 0.021870 0.999761 -0.000000
vn 0.021870 0.999761 -0.000000
vn 0.021870 0.999761 0.000000
vn 0.021870 0.999761 -0.000000
vn 0.021870 0.999761 -0.000000
vn 0.021870 0.999761 0.000000
vn 0.021870 0.999761 0.000000
vn 0.434267 0.016981 -0.900624
vn 0.434267 0.016981 -0.900624
vn 0.974845 -0.010801 -0.222623
vn 0.974845 -0.010801 -0.222623
vn 0.781915 -0.014483 0.623217
vn 0.781915 -0.014483 0.623217
vn 0.000757 0.008706 0.999962
vn 0.000757 0.008706 0.999962
vn -0.780400 0.041305 0.623914
vn -0.780400 0.041305 0.623914
vn -0.973330 0.058766 -0.221754
vn -0.973330 0.058766 -0.221754
vn -0.432753 0.047941 -0.900237
vn -0.432753 0.047941 -0.900237
vn 0.035689 0.999285 0.012491
vn 0.035689 0.999285 0.012491
vn 0.035689 0.999285 0.012491
vn 0.035689 0.999285 0.012491
vn 0.035689 0.999285 0.012491
vn 0.035689 0.999285 0.012491
vn 0.035689 0.999285 0.012491
vn 0.226560 0.945587 -0.233530
vn 0.147428 0.945587 0.290053
vn -0.226560 -0.945587 0.233530
vn -0.147428 -0.945587 -0.290053
vn 0.312243 0.949960 0.008974
vn -0.148570 0.949960 0.274778
vn -0.312243 -0.949960 -0.008974
vn 0.148570 -0.949960 -0.274778
vn 0.177261 0.945587 0.272845
vn -0.315586 0.945587 0.079189
vn -0.177261 -0.945587 -0.272845
vn 0.315586 -0.945587 -0.079189
vn -0.078229 0.949960 0.302417
vn -0.234829 0.949960 -0.205989
vn 0.078229 -0.949960 -0.302417
vn 0.234829 -0.949960 0.205989
vn -0.305448 0.945587 0.112103
vn -0.006979 0.945587 -0.325295
vn 0.305448 -0.945587 -0.112103
vn 0.006979 -0.945587 0.325295
vn -0.277427 0.949960 -0.143562
vn 0.253079 0.949960 -0.183104
vn 0.277427 -0.949960 0.143562
vn -0.253079 -0.949960 0.183104
vn -0.041323 0.945587 -0.322735
vn 0.318692 0.945587 0.065581
vn 0.041323 -0.945587 0.322735
vn -0.318692 -0.945587 -0.065581
usemtl rock_light
f 1//1 2//1 3//1
f 4//2 5//2 6//2
f 7//3 8//3 9//3
f 10//4 11//4 12//4
f 13//5 14//5 15//5
f 16//6 17//6 18//6
f 19//7 20//7 21//7
f 22//8 23//8 24//8
f 25//9 26//9 27//9
f 28//10 29//10 30//10
f 31//11 32//11 33//11
f 34//12 35//12 36//12
f 37//13 38//13 39//13
f 40//14 41//14 42//14
f 43//15 44//15 45//15
f 46//16 47//16 48//16
f 49//17 50//17 51//17
f 52//18 53//18 54//18
f 55//19 56//19 57//19
f 58//20 59//20 60//20
usemtl sand
f 61//21 62//21 63//21
f 64//22 65//22 66//22
f 67//23 68//23 69//23
f 70//24 71//24 72//24
f 73//25 74//25 75//25
f 76//26 77//26 78//26
f 79//27 80//27 81//27
f 82//28 83//28 84//28
f 85//29 86//29 87//29
f 88//30 89//30 90//30
f 91//31 92//31 93//31
f 94//32 95//32 96//32
f 97//33 98//33 99//33
f 100//34 101//34 102//34
f 103//35 104//35 105//35
f 106//36 107//36 108//36
f 109//37 110//37 111//37
f 112//38 113//38 114//38
f 115//39 116//39 117//39
f 118//40 119//40 120//40
f 121//41 122//41 123//41
f 124//42 125//42 126//42
f 127//43 128//43 129//43
f 130//44 131//44 132//44
f 133//45 134//45 135//45
f 136//46 137//46 138//46
f 139//47 140//47 141//47
f 142//48 143//48 144//48
f 145//49 146//49 147//49
f 148//50 149//50 150//50
usemtl wood_light
f 151//51 152//51 153//51
f 154//52 155//52 156//52
f 157//53 158//53 159//53
f 160//54 161//54 162//54
f 163//55 164//55 165//55
f 166//56 167//56 168//56
f 169//57 170//57 171//57
f 172//58 173//58 174//58
f 175//59 176//59 177//59
f 178//60 179//60 180//60
f 181//61 182//61 183//61
f 184//62 185//62 186//62
f 187//63 188//63 189//63
f 190//64 191//64 192//64
f 193//65 194//65 195//65
f 196//66 197//66 198//66
f 199//67 200//67 201//67
f 202//68 203//68 204//68
f 205//69 206//69 207//69
f 208//70 209//70 210//70
f 211//71 212//71 213//71
f 214//72 215//72 216//72
f 217//73 218//73 219//73
f 220//74 221//74 222//74
f 223//75 224//75 225//75
f 226//76 227//76 228//76
f 229//77 230//77 231//77
f 232//78 233//78 234//78
f 235//79 236//79 237//79
f 238//80 239//80 240//80
f 241//81 242//81 243//81
f 244//82 245//82 246//82
f 247//83 248//83 249//83
f 250//84 251//84 252//84
f 253//85 254//85 255//85
f 256//86 257//86 258//86
f 259//87 260//87 261//87
f 262//88 263//88 264//88
f 265//89 266//89 267//89
f 268//90 269//90 270//90
f 271//91 272//91 273//91
f 274//92 275//92 276//92
usemtl leaf_green
f 277//93 278//93 279//93
f 280//94 281//94 282//94
f 283//95 284//95 285//95
f 286//96 287//96 288//96
f 289//97 290//97 291//97
f 292//98 293//98 294//98
f 295//99 296//99 297//99
f 298//100 299//100 300//100
f 301//101 302//101 303//101
f 304//102 305//102 306//102
f 307//103 308//103 309//103
f 310//104 311//104 312//104
f 313//105 314//105 315//105
f 316//106 317//106 318//106
f 319//107 320//107 321//107
f 322//108 323//108 324//108
f 325//109 326//109 327//109
f 328//110 329//110 330//110
f 331//111 332//111 333//111
f 334//112 335//112 336//112
f 337//113 338//113 339//113
f 340//114 341//114 342//114
f 343//115 344//115 345//115
f 346//116 347//116 348//116
f 349//117 350//117 351//117
f 352//118 353//118 354//118
f 355//119 356//119 357//119
f 358//120 359//120 360//120
usemtl wood_light
f 361//121 362//121 363//121
f 364//122 365//122 366//122
f 367//123 368//123 369//123
f 370//124 371//124 372//124
f 373//125 374//125 375//125
f 376//126 377//126 378//126
f 379//127 380//127 381//127
f 382//128 383//128 384//128
f 385//129 386//129 387//129
f 388//130 389//130 390//130
f 391//131 392//131 393//131
f 394//132 395//132 396//132
f 397//133 398//133 399//133
f 400//134 401//134 402//134
f 403//135 404//135 405//135
f 406//136 407//136 408//136
f 409//137 410//137 411//137
f 412//138 413//138 414//138
f 415//139 416//139 417//139
f 418//140 419//140 420//140
f 421//141 422//141 423//141
f 424//142 425//142 426//142
f 427//143 428//143 429//143
f 430//144 431//144 432//144
f 433//145 434//145 435//145
f 436//146 437//146 438//146
f 439//147 440//147 441//147
f 442//148 443//148 444//148
f 445//149 446//149 447//149
f 448//150 449//150 450//150
f 451//151 452//151 453//151
f 454//152 455//152 456//152
f 457//153 458//153 459//153
f 460//154 461//154 462//154
f 463//155 464//155 465//155
f 466//156 467//156 468//156
f 469//157 470//157 471//157
f 472//158 473//158 474//158
f 475//159 476//159 477//159
f 478//160 479//160 480//160
f 481//161 482//161 483//161
f 484//162 485//162 486//162
usemtl leaf_green
f 487//163 488//163 489//163
f 490//164 491//164 492//164
f 493//165 494//165 495//165
f 496//166 497//166 498//166
f 499//167 500//167 501//167
f 502//168 503//168 504//168
f 505//169 506//169 507//169
f 508//170 509//170 510//170
f 511//171 512//171 513//171
f 514//172 515//172 516//172
f 517//173 518//173 519//173
f 520//174 521//174 522//174
f 523//175 524//175 525//175
f 526//176 527//176 528//176
f 529//177 530//177 531//177
f 532//178 533//178 534//178
f 535//179 536//179 537//179
f 538//180 539//180 540//180
f 541//181 542//181 543//181
f 544//182 545//182 546//182
f 547//183 548//183 549//183
f 550//184 551//184 552//184
f 553//185 554//185 555//185
f 556//186 557//186 558//186
f 559//187 560//187 561//187
f 562//188 563//188 564//188
f 565//189 566//189 567//189
f 568//190 569//190 570//190
usemtl wood_light
f 571//191 572//191 573//191
f 574//192 575//192 576//192
f 577//193 578//193 579//193
f 580//194 581//194 582//194
f 583//195 584//195 585//195
f 586//196 587//196 588//196
f 589//197 590//197 591//197
f 592//198 593//198 594//198
f 595//199 596//199 597//199
f 598//200 599//200 600//200
f 601//201 602//201 603//201
f 604//202 605//202 606//202
f 607//203 608//203 609//203
f 610//204 611//204 612//204
f 613//205 614//205 615//205
f 616//206 617//206 618//206
f 619//207 620//207 621//207
f 622//208 623//208 624//208
f 625//209 626//209 627//209
f 628//210 629//210 630//210
f 631//211 632//211 633//211
f 634//212 635//212 636//212
f 637//213 638//213 639//213
f 640//214 641//214 642//214
f 643//215 644//215 645//215
f 646//216 647//216 648//216
f 649//217 650//217 651//217
f 652//218 653//218 654//218
f 655//219 656//219 657//219
f 658//220 659//220 660//220
f 661//221 662//221 663//221
f 664//222 665//222 666//222
f 667//223 668//223 669//223
f 670//224 671//224 672//224
f 673//225 674//225 675//225
f 676//226 677//226 678//226
f 679//227 680//227 681//227
f 682//228 683//228 684//228
f 685//229 686//229 687//229
f 688//230 689//230 690//230
f 691//231 692//231 693//231
f 694//232 695//232 696//232
usemtl leaf_green
f 697//233 698//233 699//233
f 700//234 701//234 702//234
f 703//235 704//235 705//235
f 706//236 707//236 708//236
f 709//237 710//237 711//237
f 712//238 713//238 714//238
f 715//239 716//239 717//239
f 718//240 719//240 720//240
f 721//241 722//241 723//241
f 724//242 725//242 726//242
f 727//243 728//243 729//243
f 730//244 731//244 732//244
f 733//245 734//245 735//245
f 736//246 737//246 738//246
f 739//247 740//247 741//247
f 742//248 743//248 744//248
f 745//249 746//249 747//249
f 748//250 749//250 750//250
f 751//251 752//251 753//251
f 754//252 755//252 756//252
f 757//253 758//253 759//253
f 760//254 761//254 762//254
f 763//255 764//255 765//255
f 766//256 767//256 768//256
f 769//257 770//257 771//257
f 772//258 773//258 774//258
f 775//259 776//259 777//259
f 778//260 779//260 780//260
