# Procedurally generated low-poly ocean scenery
mtllib ocean_palette.mtl
o ReefCluster
v 7.651483 -5.000000 0.000000
v 4.743920 5.242466 0.000000
v 3.603917 5.425287 3.603917
v 7.651483 -5.000000 0.000000
v 3.603917 5.425287 3.603917
v 5.812769 -5.000000 5.812769
v 5.812769 -5.000000 5.812769
v 3.603917 5.425287 3.603917
v 0.000000 5.614405 6.140705
v 5.812769 -5.000000 5.812769
v 0.000000 5.614405 6.140705
v 0.000000 -5.000000 9.904364
v 0.000000 -5.000000 9.904364
v 0.000000 5.614405 6.140705
v -3.564970 4.167713 3.564970
v 0.000000 -5.000000 9.904364
v -3.564970 4.167713 3.564970
v -5.749952 -5.000000 5.749952
v -5.749952 -5.000000 5.749952
v -3.564970 4.167713 3.564970
v -4.322379 5.589887 0.000000
v -5.749952 -5.000000 5.749952
v -4.322379 5.589887 0.000000
v -6.971578 -5.000000 0.000000
v -6.971578 -5.000000 0.000000
v -4.322379 5.589887 0.000000
v -3.256387 4.536121 -3.256387
v -6.971578 -5.000000 0.000000
v -3.256387 4.536121 -3.256387
v -5.252238 -5.000000 -5.252238
v -5.252238 -5.000000 -5.252238
v -3.256387 4.536121 -3.256387
v -0.000000 4.139530 -5.995051
v -5.252238 -5.000000 -5.252238
v -0.000000 4.139530 -5.995051
v -0.000000 -5.000000 -9.669436
v -0.000000 -5.000000 -9.669436
v -0.000000 4.139530 -5.995051
v 2.959151 5.846135 -2.959151
v -0.000000 -5.000000 -9.669436
v 2.959151 5.846135 -2.959151
v 4.772824 -5.000000 -4.772824
v 4.772824 -5.000000 -4.772824
v 2.959151 5.846135 -2.959151
v 4.743920 5.242466 0.000000
v 4.772824 -5.000000 -4.772824
v 4.743920 5.242466 0.000000
v 7.651483 -5.000000 0.000000
v 4.743920 5.242466 0.000000
v -0.043646 11.000000 -1.115949
v 3.603917 5.425287 3.603917
v 3.603917 5.425287 3.603917
v -0.043646 11.000000 -1.115949
v 0.000000 5.614405 6.140705
v 0.000000 5.614405 6.140705
v -0.043646 11.000000 -1.115949
v -3.564970 4.167713 3.564970
v -3.564970 4.167713 3.564970
v -0.043646 11.000000 -1.115949
v -4.322379 5.589887 0.000000
v -4.322379 5.589887 0.000000
v -0.043646 11.000000 -1.115949
v -3.256387 4.536121 -3.256387
v -3.256387 4.536121 -3.256387
v -0.043646 11.000000 -1.115949
v -0.000000 4.139530 -5.995051
v -0.000000 4.139530 -5.995051
v -0.043646 11.000000 -1.115949
v 2.959151 5.846135 -2.959151
v 2.959151 5.846135 -2.959151
v -0.043646 11.000000 -1.115949
v 4.743920 5.242466 0.000000
v -2.932914 -4.000000 3.000000
v -4.478407 2.758070 3.000000
v -4.807281 1.970320 5.749582
v -2.932914 -4.000000 3.000000
v -4.807281 1.970320 5.749582
v -3.463357 -4.000000 7.434810
v -3.463357 -4.000000 7.434810
v -4.807281 1.970320 5.749582
v -7.682206 1.640745 5.988939
v -3.463357 -4.000000 7.434810
v -7.682206 1.640745 5.988939
v -8.100332 -4.000000 7.820870
v -8.100332 -4.000000 7.820870
v -7.682206 1.640745 5.988939
v -9.257639 2.976542 4.087221
v -8.100332 -4.000000 7.820870
v -9.257639 2.976542 4.087221
v -10.641353 -4.000000 4.753583
v -10.641353 -4.000000 4.753583
v -9.257639 2.976542 4.087221
v -9.375282 2.710651 1.856125
v -10.641353 -4.000000 4.753583
v -9.375282 2.710651 1.856125
v -10.831099 -4.000000 1.155040
v -10.831099 -4.000000 1.155040
v -9.375282 2.710651 1.856125
v -7.624522 2.835969 0.263790
v -10.831099 -4.000000 1.155040
v -7.624522 2.835969 0.263790
v -8.007294 -4.000000 -1.413242
v -8.007294 -4.000000 -1.413242
v -7.624522 2.835969 0.263790
v -5.393564 2.876781 0.985592
v -8.007294 -4.000000 -1.413242
v -5.393564 2.876781 0.985592
v -4.408973 -4.000000 -0.249045
v -4.408973 -4.000000 -0.249045
v -5.393564 2.876781 0.985592
v -4.478407 2.758070 3.000000
v -4.408973 -4.000000 -0.249045
v -4.478407 2.758070 3.000000
v -2.932914 -4.000000 3.000000
v -4.478407 2.758070 3.000000
v -7.624897 6.000000 2.416984
v -4.807281 1.970320 5.749582
v -4.807281 1.970320 5.749582
v -7.624897 6.000000 2.416984
v -7.682206 1.640745 5.988939
v -7.682206 1.640745 5.988939
v -7.624897 6.000000 2.416984
v -9.257639 2.976542 4.087221
v -9.257639 2.976542 4.087221
v -7.624897 6.000000 2.416984
v -9.375282 2.710651 1.856125
v -9.375282 2.710651 1.856125
v -7.624897 6.000000 2.416984
v -7.624522 2.835969 0.263790
v -7.624522 2.835969 0.263790
v -7.624897 6.000000 2.416984
v -5.393564 2.876781 0.985592
v -5.393564 2.876781 0.985592
v -7.624897 6.000000 2.416984
v -4.478407 2.758070 3.000000
v 10.669704 -4.000000 4.000000
v 8.895216 1.911027 4.000000
v 7.960670 1.467871 6.458602
v 10.669704 -4.000000 4.000000
v 7.960670 1.467871 6.458602
v 9.162370 -4.000000 7.965487
v 9.162370 -4.000000 7.965487
v 7.960670 1.467871 6.458602
v 5.361192 1.983475 6.798802
v 9.162370 -4.000000 7.965487
v 5.361192 1.983475 6.798802
v 4.969664 -4.000000 8.514197
v 4.969664 -4.000000 8.514197
v 5.361192 1.983475 6.798802
v 3.932846 1.212379 4.995489
v 4.969664 -4.000000 8.514197
v 3.932846 1.212379 4.995489
v 2.665881 -4.000000 5.605627
v 2.665881 -4.000000 5.605627
v 3.932846 1.212379 4.995489
v 3.894788 1.404405 2.986183
v 2.665881 -4.000000 5.605627
v 3.894788 1.404405 2.986183
v 2.604496 -4.000000 2.364812
v 2.604496 -4.000000 2.364812
v 3.894788 1.404405 2.986183
v 5.344456 1.474105 1.127876
v 2.604496 -4.000000 2.364812
v 5.344456 1.474105 1.127876
v 4.942672 -4.000000 -0.632458
v 4.942672 -4.000000 -0.632458
v 5.344456 1.474105 1.127876
v 7.884495 1.994867 1.636918
v 4.942672 -4.000000 -0.632458
v 7.884495 1.994867 1.636918
v 9.039508 -4.000000 0.188578
v 9.039508 -4.000000 0.188578
v 7.884495 1.994867 1.636918
v 8.895216 1.911027 4.000000
v 9.039508 -4.000000 0.188578
v 8.895216 1.911027 4.000000
v 10.669704 -4.000000 4.000000
v 8.895216 1.911027 4.000000
v 5.961626 4.500000 3.423532
v 7.960670 1.467871 6.458602
v 7.960670 1.467871 6.458602
v 5.961626 4.500000 3.423532
v 5.361192 1.983475 6.798802
v 5.361192 1.983475 6.798802
v 5.961626 4.500000 3.423532
v 3.932846 1.212379 4.995489
v 3.932846 1.212379 4.995489
v 5.961626 4.500000 3.423532
v 3.894788 1.404405 2.986183
v 3.894788 1.404405 2.986183
v 5.961626 4.500000 3.423532
v 5.344456 1.474105 1.127876
v 5.344456 1.474105 1.127876
v 5.961626 4.500000 3.423532
v 7.884495 1.994867 1.636918
v 7.884495 1.994867 1.636918
v 5.961626 4.500000 3.423532
v 8.895216 1.911027 4.000000
v 6.723652 -4.000000 -5.000000
v 5.308664 0.967709 -5.000000
v 4.311439 -0.007840 -3.355508
v 6.723652 -4.000000 -5.000000
v 4.311439 -0.007840 -3.355508
v 5.115223 -4.000000 -2.347594
v 5.115223 -4.000000 -2.347594
v 4.311439 -0.007840 -3.355508
v 2.567593 0.990002 -3.105500
v 5.115223 -4.000000 -2.347594
v 2.567593 0.990002 -3.105500
v 2.302569 -4.000000 -1.944355
v 2.302569 -4.000000 -1.944355
v 2.567593 0.990002 -3.105500
v 1.129012 0.130001 -4.098980
v 2.302569 -4.000000 -1.944355
v 1.129012 0.130001 -4.098980
v -0.017723 -4.000000 -3.546741
v -0.017723 -4.000000 -3.546741
v 1.129012 0.130001 -4.098980
v 1.171374 0.452148 -5.880620
v -0.017723 -4.000000 -3.546741
v 1.171374 0.452148 -5.880620
v 0.050603 -4.000000 -6.420355
v 0.050603 -4.000000 -6.420355
v 1.171374 0.452148 -5.880620
v 2.464706 0.934989 -7.345277
v 0.050603 -4.000000 -6.420355
v 2.464706 0.934989 -7.345277
v 2.136622 -4.000000 -8.782705
v 2.136622 -4.000000 -8.782705
v 2.464706 0.934989 -7.345277
v 4.480655 0.424101 -6.856683
v 2.136622 -4.000000 -8.782705
v 4.480655 0.424101 -6.856683
v 5.388154 -4.000000 -7.994650
v 5.388154 -4.000000 -7.994650
v 4.480655 0.424101 -6.856683
v 5.308664 0.967709 -5.000000
v 5.388154 -4.000000 -7.994650
v 5.308664 0.967709 -5.000000
v 6.723652 -4.000000 -5.000000
v 5.308664 0.967709 -5.000000
v 2.666835 3.000000 -4.469754
v 4.311439 -0.007840 -3.355508
v 4.311439 -0.007840 -3.355508
v 2.666835 3.000000 -4.469754
v 2.567593 0.990002 -3.105500
v 2.567593 0.990002 -3.105500
v 2.666835 3.000000 -4.469754
v 1.129012 0.130001 -4.098980
v 1.129012 0.130001 -4.098980
v 2.666835 3.000000 -4.469754
v 1.171374 0.452148 -5.880620
v 1.171374 0.452148 -5.880620
v 2.666835 3.000000 -4.469754
v 2.464706 0.934989 -7.345277
v 2.464706 0.934989 -7.345277
v 2.666835 3.000000 -4.469754
v 4.480655 0.424101 -6.856683
v 4.480655 0.424101 -6.856683
v 2.666835 3.000000 -4.469754
v 5.308664 0.967709 -5.000000
vn 0.923813 0.262246 0.278920
vn 0.921417 0.256979 0.291466
vn 0.561862 0.283685 0.777067
vn 0.552830 0.278482 0.785384
vn -0.632499 0.258853 0.730028
vn -0.555686 0.315743 0.769103
vn -0.906297 0.289410 0.308005
vn -0.950134 0.237689 0.201864
vn -0.901928 0.225629 -0.368263
vn -0.918887 0.255273 -0.300801
vn -0.597141 0.282133 -0.750882
vn -0.615185 0.294079 -0.731481
vn 0.593158 0.300310 -0.746979
vn 0.696882 0.230117 -0.679265
vn 0.854365 0.221477 -0.470116
vn 0.832076 0.236204 -0.501854
vn 0.734141 0.649089 0.199299
vn 0.418241 0.730607 0.539711
vn -0.603917 0.638296 0.477350
vn -0.680690 0.619118 0.391603
vn -0.754040 0.511308 -0.412297
vn -0.524878 0.491094 -0.695219
vn 0.446538 0.520461 -0.727822
vn 0.754352 0.561274 -0.340476
vn 0.959337 0.219389 0.177600
vn 0.961665 0.248939 0.115024
vn 0.047557 0.281246 0.958457
vn 0.079080 0.302611 0.949828
vn -0.632595 0.281248 0.721611
vn -0.753078 0.208953 0.623869
vn -0.979986 0.197061 0.028189
vn -0.977071 0.206585 0.051520
vn -0.665057 0.218872 -0.713999
vn -0.657244 0.214082 -0.722634
vn 0.297340 0.211747 -0.930995
vn 0.300958 0.210096 -0.930206
vn 0.896541 0.199380 -0.395554
vn 0.891334 0.203838 -0.404938
vn 0.663749 0.694255 0.278293
vn -0.008270 0.633844 0.773417
vn -0.363873 0.593210 0.718122
vn -0.882069 0.471022 -0.009624
vn -0.620970 0.440939 -0.648050
vn 0.249076 0.544894 -0.800657
vn 0.712800 0.640366 -0.286091
vn 0.884343 0.265479 0.384002
vn 0.894497 0.290291 0.340010
vn 0.181778 0.298188 0.937038
vn 0.125096 0.265850 0.955863
vn -0.808141 0.210576 0.550060
vn -0.758072 0.254549 0.600444
vn -0.969753 0.240558 0.041358
vn -0.972974 0.230177 0.018429
vn -0.767751 0.251078 -0.589507
vn -0.763893 0.247699 -0.595914
vn 0.129259 0.294956 -0.946727
vn 0.189479 0.264928 -0.945469
vn 0.890774 0.261429 -0.371721
vn 0.886290 0.266064 -0.379078
vn 0.579272 0.734901 0.352653
vn 0.230287 0.760076 0.607662
vn -0.730126 0.603653 0.320187
vn -0.834150 0.547316 0.068106
vn -0.679964 0.526145 -0.510706
vn 0.037447 0.599129 -0.799777
vn 0.667116 0.697895 -0.260574
vn 0.770980 0.219604 0.597799
vn 0.818311 0.290044 0.496227
vn 0.296114 0.289432 0.910245
vn 0.138518 0.217470 0.966188
vn -0.636639 0.206692 0.742946
vn -0.548914 0.258692 0.794840
vn -0.962316 0.270681 0.026062
vn -0.968823 0.246681 -0.023036
vn -0.764532 0.263763 -0.588150
vn -0.728452 0.235787 -0.643243
vn 0.287476 0.250180 -0.924536
vn 0.225716 0.285852 -0.931311
vn 0.839448 0.290352 -0.459372
vn 0.883879 0.251761 -0.394176
vn 0.542283 0.536147 0.646897
vn 0.397313 0.501854 0.768300
vn -0.673236 0.437728 0.595943
vn -0.875990 0.477851 0.065574
vn -0.679190 0.617950 -0.396029
vn 0.328770 0.755998 -0.566019
vn 0.490747 0.752521 -0.439181
usemtl rock_dark
f 1//1 2//1 3//1
f 4//2 5//2 6//2
f 7//3 8//3 9//3
f 10//4 11//4 12//4
f 13//5 14//5 15//5
f 16//6 17//6 18//6
f 19//7 20//7 21//7
f 22//8 23//8 24//8
f 25//9 26//9 27//9
f 28//10 29//10 30//10
f 31//11 32//11 33//11
f 34//12 35//12 36//12
f 37//13 38//13 39//13
f 40//14 41//14 42//14
f 43//15 44//15 45//15
f 46//16 47//16 48//16
f 49//17 50//17 51//17
f 52//18 53//18 54//18
f 55//19 56//19 57//19
f 58//20 59//20 60//20
f 61//21 62//21 63//21
f 64//22 65//22 66//22
f 67//23 68//23 69//23
f 70//24 71//24 72//24
usemtl rock_light
f 73//25 74//25 75//25
f 76//26 77//26 78//26
f 79//27 80//27 81//27
f 82//28 83//28 84//28
f 85//29 86//29 87//29
f 88//30 89//30 90//30
f 91//31 92//31 93//31
f 94//32 95//32 96//32
f 97//33 98//33 99//33
f 100//34 101//34 102//34
f 103//35 104//35 105//35
f 106//36 107//36 108//36
f 109//37 110//37 111//37
f 112//38 113//38 114//38
f 115//39 116//39 117//39
f 118//40 119//40 120//40
f 121//41 122//41 123//41
f 124//42 125//42 126//42
f 127//43 128//43 129//43
f 130//44 131//44 132//44
f 133//45 134//45 135//45
f 136//46 137//46 138//46
f 139//47 140//47 141//47
f 142//48 143//48 144//48
f 145//49 146//49 147//49
f 148//50 149//50 150//50
f 151//51 152//51 153//51
f 154//52 155//52 156//52
f 157//53 158//53 159//53
f 160//54 161//54 162//54
f 163//55 164//55 165//55
f 166//56 167//56 168//56
f 169//57 170//57 171//57
f 172//58 173//58 174//58
f 175//59 176//59 177//59
f 178//60 179//60 180//60
f 181//61 182//61 183//61
f 184//62 185//62 186//62
f 187//63 188//63 189//63
f 190//64 191//64 192//64
f 193//65 194//65 195//65
f 196//66 197//66 198//66
usemtl rock_dark
f 199//67 200//67 201//67
f 202//68 203//68 204//68
f 205//69 206//69 207//69
f 208//70 209//70 210//70
f 211//71 212//71 213//71
f 214//72 215//72 216//72
f 217//73 218//73 219//73
f 220//74 221//74 222//74
f 223//75 224//75 225//75
f 226//76 227//76 228//76
f 229//77 230//77 231//77
f 232//78 233//78 234//78
f 235//79 236//79 237//79
f 238//80 239//80 240//80
f 241//81 242//81 243//81
f 244//82 245//82 246//82
f 247//83 248//83 249//83
f 250//84 251//84 252//84
f 253//85 254//85 255//85
f 256//86 257//86 258//86
f 259//87 260//87 261//87
