# Procedurally generated low-poly ocean scenery
mtllib ocean_palette.mtl
o RockArch
v -1.938103 -5.000000 0.000000
v -4.241624 11.340921 0.000000
v -4.833815 10.341945 3.166185
v -1.938103 -5.000000 0.000000
v -4.833815 10.341945 3.166185
v -2.893250 -5.000000 5.106750
v -2.893250 -5.000000 5.106750
v -4.833815 10.341945 3.166185
v -8.000000 12.712572 4.684876
v -2.893250 -5.000000 5.106750
v -8.000000 12.712572 4.684876
v -8.000000 -5.000000 7.556252
v -8.000000 -5.000000 7.556252
v -8.000000 12.712572 4.684876
v -10.459779 10.076446 2.459779
v -8.000000 -5.000000 7.556252
v -10.459779 10.076446 2.459779
v -11.967385 -5.000000 3.967385
v -11.967385 -5.000000 3.967385
v -10.459779 10.076446 2.459779
v -12.733936 9.578570 0.000000
v -11.967385 -5.000000 3.967385
v -12.733936 9.578570 0.000000
v -15.635380 -5.000000 0.000000
v -15.635380 -5.000000 0.000000
v -12.733936 9.578570 0.000000
v -10.946409 12.109875 -2.946409
v -15.635380 -5.000000 0.000000
v -10.946409 12.109875 -2.946409
v -12.752272 -5.000000 -4.752272
v -12.752272 -5.000000 -4.752272
v -10.946409 12.109875 -2.946409
v -8.000000 11.917476 -4.100983
v -12.752272 -5.000000 -4.752272
v -8.000000 11.917476 -4.100983
v -8.000000 -5.000000 -6.614489
v -8.000000 -5.000000 -6.614489
v -8.000000 11.917476 -4.100983
v -4.767241 10.744658 -3.232759
v -8.000000 -5.000000 -6.614489
v -4.767241 10.744658 -3.232759
v -2.785872 -5.000000 -5.214128
v -2.785872 -5.000000 -5.214128
v -4.767241 10.744658 -3.232759
v -4.241624 11.340921 0.000000
v -2.785872 -5.000000 -5.214128
v -4.241624 11.340921 0.000000
v -1.938103 -5.000000 0.000000
v -4.241624 11.340921 0.000000
v -7.996882 20.000000 0.074269
v -4.833815 10.341945 3.166185
v -4.833815 10.341945 3.166185
v -7.996882 20.000000 0.074269
v -8.000000 12.712572 4.684876
v -8.000000 12.712572 4.684876
v -7.996882 20.000000 0.074269
v -10.459779 10.076446 2.459779
v -10.459779 10.076446 2.459779
v -7.996882 20.000000 0.074269
v -12.733936 9.578570 0.000000
v -12.733936 9.578570 0.000000
v -7.996882 20.000000 0.074269
v -10.946409 12.109875 -2.946409
v -10.946409 12.109875 -2.946409
v -7.996882 20.000000 0.074269
v -8.000000 11.917476 -4.100983
v -8.000000 11.917476 -4.100983
v -7.996882 20.000000 0.074269
v -4.767241 10.744658 -3.232759
v -4.767241 10.744658 -3.232759
v -7.996882 20.000000 0.074269
v -4.241624 11.340921 0.000000
v 13.198180 -5.000000 0.000000
v 11.222872 10.979013 0.000000
v 10.746253 9.536606 2.746253
v 13.198180 -5.000000 0.000000
v 10.746253 9.536606 2.746253
v 12.429440 -5.000000 4.429440
v 12.429440 -5.000000 4.429440
v 10.746253 9.536606 2.746253
v 8.000000 9.109447 3.464784
v 12.429440 -5.000000 4.429440
v 8.000000 9.109447 3.464784
v 8.000000 -5.000000 5.588362
v 8.000000 -5.000000 5.588362
v 8.000000 9.109447 3.464784
v 5.543860 8.454396 2.456140
v 8.000000 -5.000000 5.588362
v 5.543860 8.454396 2.456140
v 4.038484 -5.000000 3.961516
v 4.038484 -5.000000 3.961516
v 5.543860 8.454396 2.456140
v 4.428381 9.401139 0.000000
v 4.038484 -5.000000 3.961516
v 4.428381 9.401139 0.000000
v 2.239324 -5.000000 0.000000
v 2.239324 -5.000000 0.000000
v 4.428381 9.401139 0.000000
v 4.968083 8.495823 -3.031917
v 2.239324 -5.000000 0.000000
v 4.968083 8.495823 -3.031917
v 3.109811 -5.000000 -4.890189
v 3.109811 -5.000000 -4.890189
v 4.968083 8.495823 -3.031917
v 8.000000 10.496894 -4.187510
v 3.109811 -5.000000 -4.890189
v 8.000000 10.496894 -4.187510
v 8.000000 -5.000000 -6.754049
v 8.000000 -5.000000 -6.754049
v 8.000000 10.496894 -4.187510
v 11.084164 8.134032 -3.084164
v 8.000000 -5.000000 -6.754049
v 11.084164 8.134032 -3.084164
v 12.974458 -5.000000 -4.974458
v 12.974458 -5.000000 -4.974458
v 11.084164 8.134032 -3.084164
v 11.222872 10.979013 0.000000
v 12.974458 -5.000000 -4.974458
v 11.222872 10.979013 0.000000
v 13.198180 -5.000000 0.000000
v 11.222872 10.979013 0.000000
v 7.447336 18.000000 -0.543676
v 10.746253 9.536606 2.746253
v 10.746253 9.536606 2.746253
v 7.447336 18.000000 -0.543676
v 8.000000 9.109447 3.464784
v 8.000000 9.109447 3.464784
v 7.447336 18.000000 -0.543676
v 5.543860 8.454396 2.456140
v 5.543860 8.454396 2.456140
v 7.447336 18.000000 -0.543676
v 4.428381 9.401139 0.000000
v 4.428381 9.401139 0.000000
v 7.447336 18.000000 -0.543676
v 4.968083 8.495823 -3.031917
v 4.968083 8.495823 -3.031917
v 7.447336 18.000000 -0.543676
v 8.000000 10.496894 -4.187510
v 8.000000 10.496894 -4.187510
v 7.447336 18.000000 -0.543676
v 11.084164 8.134032 -3.084164
v 11.084164 8.134032 -3.084164
v 7.447336 18.000000 -0.543676
v 11.222872 10.979013 0.000000
v -7.000000 15.000000 3.600000
v 7.000000 14.000000 2.808000
v 7.141465 15.980510 1.985556
v -7.000000 15.000000 3.600000
v 7.141465 15.980510 1.985556
v -6.818635 17.539115 2.545584
v -6.818635 17.539115 2.545584
v 7.141465 15.980510 1.985556
v 7.200062 16.800864 0.000000
v -6.818635 17.539115 2.545584
v 7.200062 16.800864 0.000000
v -6.743511 18.590851 0.000000
v -6.743511 18.590851 0.000000
v 7.200062 16.800864 0.000000
v 7.141465 15.980510 -1.985556
v -6.743511 18.590851 0.000000
v 7.141465 15.980510 -1.985556
v -6.818635 17.539115 -2.545584
v -6.818635 17.539115 -2.545584
v 7.141465 15.980510 -1.985556
v 7.000000 14.000000 -2.808000
v -6.818635 17.539115 -2.545584
v 7.000000 14.000000 -2.808000
v -7.000000 15.000000 -3.600000
v -7.000000 15.000000 -3.600000
v 7.000000 14.000000 -2.808000
v 6.858535 12.019490 -1.985556
v -7.000000 15.000000 -3.600000
v 6.858535 12.019490 -1.985556
v -7.181365 12.460885 -2.545584
v -7.181365 12.460885 -2.545584
v 6.858535 12.019490 -1.985556
v 6.799938 11.199136 -0.000000
v -7.181365 12.460885 -2.545584
v 6.799938 11.199136 -0.000000
v -7.256489 11.409149 -0.000000
v -7.256489 11.409149 -0.000000
v 6.799938 11.199136 -0.000000
v 6.858535 12.019490 1.985556
v -7.256489 11.409149 -0.000000
v 6.858535 12.019490 1.985556
v -7.181365 12.460885 2.545584
v -7.181365 12.460885 2.545584
v 6.858535 12.019490 1.985556
v 7.000000 14.000000 2.808000
v -7.181365 12.460885 2.545584
v 7.000000 14.000000 2.808000
v -7.000000 15.000000 3.600000
v 7.000000 14.000000 2.808000
v 7.000000 14.000000 0.000000
v 7.141465 15.980510 1.985556
v 7.141465 15.980510 1.985556
v 7.000000 14.000000 0.000000
v 7.200062 16.800864 0.000000
v 7.200062 16.800864 0.000000
v 7.000000 14.000000 0.000000
v 7.141465 15.980510 -1.985556
v 7.141465 15.980510 -1.985556
v 7.000000 14.000000 0.000000
v 7.000000 14.000000 -2.808000
v 7.000000 14.000000 -2.808000
v 7.000000 14.000000 0.000000
v 6.858535 12.019490 -1.985556
v 6.858535 12.019490 -1.985556
v 7.000000 14.000000 0.000000
v 6.799938 11.199136 -0.000000
v 6.799938 11.199136 -0.000000
v 7.000000 14.000000 0.000000
v 6.858535 12.019490 1.985556
v 6.858535 12.019490 1.985556
v 7.000000 14.000000 0.000000
v 7.000000 14.000000 2.808000
v -8.975743 -5.000000 3.000000
v -10.504961 0.348484 3.000000
v -11.732138 -0.282032 4.589849
v -8.975743 -5.000000 3.000000
v -11.732138 -0.282032 4.589849
v -10.955061 -5.000000 5.564273
v -10.955061 -5.000000 5.564273
v -11.732138 -0.282032 4.589849
v -13.499404 -0.292715 5.188033
v -10.955061 -5.000000 5.564273
v -13.499404 -0.292715 5.188033
v -13.805491 -5.000000 6.529085
v -13.805491 -5.000000 6.529085
v -13.499404 -0.292715 5.188033
v -15.026501 0.380725 3.975912
v -13.805491 -5.000000 6.529085
v -15.026501 0.380725 3.975912
v -16.268550 -5.000000 4.574051
v -16.268550 -5.000000 4.574051
v -15.026501 0.380725 3.975912
v -14.975923 -0.402123 2.048446
v -16.268550 -5.000000 4.574051
v -14.975923 -0.402123 2.048446
v -16.186972 -5.000000 1.465235
v -16.186972 -5.000000 1.465235
v -14.975923 -0.402123 2.048446
v -13.564152 0.616670 0.528290
v -16.186972 -5.000000 1.465235
v -13.564152 0.616670 0.528290
v -13.909922 -5.000000 -0.986629
v -13.909922 -5.000000 -0.986629
v -13.564152 0.616670 0.528290
v -11.826043 -0.435580 1.527905
v -13.909922 -5.000000 -0.986629
v -11.826043 -0.435580 1.527905
v -11.106521 -5.000000 0.625653
v -11.106521 -5.000000 0.625653
v -11.826043 -0.435580 1.527905
v -10.504961 0.348484 3.000000
v -11.106521 -5.000000 0.625653
v -10.504961 0.348484 3.000000
v -8.975743 -5.000000 3.000000
v -10.504961 0.348484 3.000000
v -12.374248 3.000000 3.201792
v -11.732138 -0.282032 4.589849
v -11.732138 -0.282032 4.589849
v -12.374248 3.000000 3.201792
v -13.499404 -0.292715 5.188033
v -13.499404 -0.292715 5.188033
v -12.374248 3.000000 3.201792
v -15.026501 0.380725 3.975912
v -15.026501 0.380725 3.975912
v -12.374248 3.000000 3.201792
v -14.975923 -0.402123 2.048446
v -14.975923 -0.402123 2.048446
v -12.374248 3.000000 3.201792
v -13.564152 0.616670 0.528290
v -13.564152 0.616670 0.528290
v -12.374248 3.000000 3.201792
v -11.826043 -0.435580 1.527905
v -11.826043 -0.435580 1.527905
v -12.374248 3.000000 3.201792
v -10.504961 0.348484 3.000000
vn 0.965173 0.136057 0.223450
vn 0.972421 0.146004 0.181878
vn 0.527745 0.171967 0.831813
vn 0.427935 0.144628 0.892163
vn -0.728820 0.109567 0.675882
vn -0.664251 0.139853 0.734310
vn -0.741003 0.139776 0.656793
vn -0.726552 0.144599 0.671724
vn -0.901874 0.179492 -0.392945
vn -0.846117 0.143482 -0.513322
vn -0.353849 0.135029 -0.925504
vn -0.361405 0.137028 -0.922285
vn 0.303886 0.140011 -0.942364
vn 0.256350 0.152378 -0.954498
vn 0.971920 0.145576 -0.184876
vn 0.977621 0.137812 -0.158952
vn 0.880448 0.379393 0.284380
vn 0.627328 0.416176 0.658223
vn -0.800926 0.320378 0.505841
vn -0.726171 0.325766 0.605435
vn -0.892938 0.407252 -0.191852
vn -0.303180 0.437448 -0.846594
vn 0.375456 0.425266 -0.823518
vn 0.894814 0.389926 -0.217408
vn 0.965765 0.119387 0.230316
vn 0.976558 0.132700 0.169484
vn 0.230514 0.138220 0.963202
vn 0.250479 0.144087 0.957340
vn -0.407158 0.135936 0.903185
vn -0.375892 0.144472 0.915332
vn -0.877395 0.149188 0.455983
vn -0.901902 0.137094 0.409607
vn -0.965379 0.146743 -0.215661
vn -0.972205 0.157694 -0.173059
vn -0.453055 0.182532 -0.872596
vn -0.351961 0.152936 -0.923436
vn 0.431349 0.147409 -0.890061
vn 0.331279 0.180954 -0.926018
vn 0.965800 0.167489 -0.197936
vn 0.991459 0.122563 -0.044590
vn 0.801656 0.460597 0.381048
vn 0.169651 0.413809 0.894416
vn -0.434034 0.347728 0.831084
vn -0.812010 0.316107 0.490628
vn -0.917351 0.305970 -0.254656
vn -0.522804 0.340929 -0.781309
vn 0.562211 0.394416 -0.726880
vn 0.815511 0.406654 -0.411794
vn 0.079157 0.377484 0.922627
vn 0.079157 0.377484 0.922627
vn 0.117664 0.916573 0.382164
vn 0.117664 0.916573 0.382164
vn 0.117664 0.916573 -0.382164
vn 0.117664 0.916573 -0.382164
vn 0.079157 0.377484 -0.922627
vn 0.079157 0.377484 -0.922627
vn 0.024701 -0.384903 -0.922627
vn 0.024701 -0.384903 -0.922627
vn -0.013805 -0.923991 -0.382164
vn -0.013805 -0.923991 -0.382164
vn -0.013805 -0.923991 0.382164
vn -0.013805 -0.923991 0.382164
vn 0.024701 -0.384903 0.922627
vn 0.024701 -0.384903 0.922627
vn 0.997459 -0.071247 0.000000
vn 0.997459 -0.071247 0.000000
vn 0.997459 -0.071247 -0.000000
vn 0.997459 -0.071247 0.000000
vn 0.997459 -0.071247 0.000000
vn 0.997459 -0.071247 0.000000
vn 0.997459 -0.071247 -0.000000
vn 0.997459 -0.071247 0.000000
vn 0.732162 0.209337 0.648164
vn 0.766771 0.248531 0.591857
vn 0.309855 0.240992 0.919735
vn 0.311112 0.241624 0.919145
vn -0.525276 0.264562 0.808759
vn -0.605806 0.224683 0.763228
vn -0.970949 0.211735 -0.111476
vn -0.965911 0.257629 -0.025346
vn -0.789578 0.277400 -0.547372
vn -0.714311 0.222900 -0.663382
vn 0.570358 0.180988 -0.801208
vn 0.483668 0.242483 -0.840992
vn 0.653258 0.244615 -0.716531
vn 0.727951 0.208133 -0.653275
vn 0.640804 0.401984 0.654048
vn 0.288639 0.420295 0.860256
vn -0.342993 0.568348 0.747888
vn -0.714751 0.641234 -0.279196
vn -0.727609 0.640073 -0.246762
vn 0.629832 0.419119 -0.653950
vn 0.541558 0.436471 -0.718476
usemtl rock_dark
f 1//1 2//1 3//1
f 4//2 5//2 6//2
f 7//3 8//3 9//3
f 10//4 11//4 12//4
f 13//5 14//5 15//5
f 16//6 17//6 18//6
f 19//7 20//7 21//7
f 22//8 23//8 24//8
f 25//9 26//9 27//9
f 28//10 29//10 30//10
f 31//11 32//11 33//11
f 34//12 35//12 36//12
f 37//13 38//13 39//13
f 40//14 41//14 42//14
f 43//15 44//15 45//15
f 46//16 47//16 48//16
f 49//17 50//17 51//17
f 52//18 53//18 54//18
f 55//19 56//19 57//19
f 58//20 59//20 60//20
f 61//21 62//21 63//21
f 64//22 65//22 66//22
f 67//23 68//23 69//23
f 70//24 71//24 72//24
f 73//25 74//25 75//25
f 76//26 77//26 78//26
f 79//27 80//27 81//27
f 82//28 83//28 84//28
f 85//29 86//29 87//29
f 88//30 89//30 90//30
f 91//31 92//31 93//31
f 94//32 95//32 96//32
f 97//33 98//33 99//33
f 100//34 101//34 102//34
f 103//35 104//35 105//35
f 106//36 107//36 108//36
f 109//37 110//37 111//37
f 112//38 113//38 114//38
f 115//39 116//39 117//39
f 118//40 119//40 120//40
f 121//41 122//41 123//41
f 124//42 125//42 126//42
f 127//43 128//43 129//43
f 130//44 131//44 132//44
f 133//45 134//45 135//45
f 136//46 137//46 138//46
f 139//47 140//47 141//47
f 142//48 143//48 144//48
usemtl rock_light
f 145//49 146//49 147//49
f 148//50 149//50 150//50
f 151//51 152//51 153//51
f 154//52 155//52 156//52
f 157//53 158//53 159//53
f 160//54 161//54 162//54
f 163//55 164//55 165//55
f 166//56 167//56 168//56
f 169//57 170//57 171//57
f 172//58 173//58 174//58
f 175//59 176//59 177//59
f 178//60 179//60 180//60
f 181//61 182//61 183//61
f 184//62 185//62 186//62
f 187//63 188//63 189//63
f 190//64 191//64 192//64
f 193//65 194//65 195//65
f 196//66 197//66 198//66
f 199//67 200//67 201//67
f 202//68 203//68 204//68
f 205//69 206//69 207//69
f 208//70 209//70 210//70
f 211//71 212//71 213//71
f 214//72 215//72 216//72
f 217//73 218//73 219//73
f 220//74 221//74 222//74
f 223//75 224//75 225//75
f 226//76 227//76 228//76
f 229//77 230//77 231//77
f 232//78 233//78 234//78
f 235//79 236//79 237//79
f 238//80 239//80 240//80
f 241//81 242//81 243//81
f 244//82 245//82 246//82
f 247//83 248//83 249//83
f 250//84 251//84 252//84
f 253//85 254//85 255//85
f 256//86 257//86 258//86
f 259//87 260//87 261//87
f 262//88 263//88 264//88
f 265//89 266//89 267//89
f 268//90 269//90 270//90
f 271//91 272//91 273//91
f 274//92 275//92 276//92
f 277//93 278//93 279//93
