# Procedurally generated low-poly ocean scenery
mtllib ocean_palette.mtl
o SeaStack
v 7.679928 -8.000000 0.000000
v 4.761555 12.153188 0.000000
v 4.613321 14.544027 3.871036
v 7.679928 -8.000000 0.000000
v 4.613321 14.544027 3.871036
v 7.440841 -8.000000 6.243607
v 7.440841 -8.000000 6.243607
v 4.613321 14.544027 3.871036
v 1.141778 14.088372 6.475346
v 7.440841 -8.000000 6.243607
v 1.141778 14.088372 6.475346
v 1.841578 -8.000000 10.444107
v 1.841578 -8.000000 10.444107
v 1.141778 14.088372 6.475346
v -3.205520 13.381346 5.552124
v 1.841578 -8.000000 10.444107
v -3.205520 13.381346 5.552124
v -5.170194 -8.000000 8.955039
v -5.170194 -8.000000 8.955039
v -3.205520 13.381346 5.552124
v -4.427458 12.920695 1.611463
v -5.170194 -8.000000 8.955039
v -4.427458 12.920695 1.611463
v -7.141061 -8.000000 2.599134
v -7.141061 -8.000000 2.599134
v -4.427458 12.920695 1.611463
v -4.717845 16.448625 -1.717155
v -7.141061 -8.000000 2.599134
v -4.717845 16.448625 -1.717155
v -7.609427 -8.000000 -2.769605
v -7.609427 -8.000000 -2.769605
v -4.717845 16.448625 -1.717155
v -2.189727 16.409968 -3.792718
v -7.609427 -8.000000 -2.769605
v -2.189727 16.409968 -3.792718
v -3.531817 -8.000000 -6.117287
v -3.531817 -8.000000 -6.117287
v -2.189727 16.409968 -3.792718
v 1.140861 13.457805 -6.470142
v -3.531817 -8.000000 -6.117287
v 1.140861 13.457805 -6.470142
v 1.840098 -8.000000 -10.435712
v 1.840098 -8.000000 -10.435712
v 1.140861 13.457805 -6.470142
v 3.800040 12.442879 -3.188613
v 1.840098 -8.000000 -10.435712
v 3.800040 12.442879 -3.188613
v 6.129098 -8.000000 -5.142923
v 6.129098 -8.000000 -5.142923
v 3.800040 12.442879 -3.188613
v 4.761555 12.153188 0.000000
v 6.129098 -8.000000 -5.142923
v 4.761555 12.153188 0.000000
v 7.679928 -8.000000 0.000000
v 4.761555 12.153188 0.000000
v 0.172841 26.000000 -0.445245
v 4.613321 14.544027 3.871036
v 4.613321 14.544027 3.871036
v 0.172841 26.000000 -0.445245
v 1.141778 14.088372 6.475346
v 1.141778 14.088372 6.475346
v 0.172841 26.000000 -0.445245
v -3.205520 13.381346 5.552124
v -3.205520 13.381346 5.552124
v 0.172841 26.000000 -0.445245
v -4.427458 12.920695 1.611463
v -4.427458 12.920695 1.611463
v 0.172841 26.000000 -0.445245
v -4.717845 16.448625 -1.717155
v -4.717845 16.448625 -1.717155
v 0.172841 26.000000 -0.445245
v -2.189727 16.409968 -3.792718
v -2.189727 16.409968 -3.792718
v 0.172841 26.000000 -0.445245
v 1.140861 13.457805 -6.470142
v 1.140861 13.457805 -6.470142
v 0.172841 26.000000 -0.445245
v 3.800040 12.442879 -3.188613
v 3.800040 12.442879 -3.188613
v 0.172841 26.000000 -0.445245
v 4.761555 12.153188 0.000000
v -1.229670 -5.000000 3.500000
v -2.662395 3.185832 3.500000
v -3.187992 4.164897 5.772186
v -1.229670 -5.000000 3.500000
v -3.187992 4.164897 5.772186
v -2.077406 -5.000000 7.164817
v -2.077406 -5.000000 7.164817
v -3.187992 4.164897 5.772186
v -5.611452 3.555030 6.178948
v -2.077406 -5.000000 7.164817
v -5.611452 3.555030 6.178948
v -5.986214 -5.000000 7.820884
v -5.986214 -5.000000 7.820884
v -5.611452 3.555030 6.178948
v -7.061640 4.188291 4.492833
v -5.986214 -5.000000 7.820884
v -7.061640 4.188291 4.492833
v -8.325225 -5.000000 5.101344
v -8.325225 -5.000000 5.101344
v -7.061640 4.188291 4.492833
v -7.024139 4.945875 2.525226
v -8.325225 -5.000000 5.101344
v -7.024139 4.945875 2.525226
v -8.264740 -5.000000 1.927784
v -8.264740 -5.000000 1.927784
v -7.024139 4.945875 2.525226
v -5.614633 3.912079 0.807116
v -8.264740 -5.000000 1.927784
v -5.614633 3.912079 0.807116
v -5.991344 -5.000000 -0.843362
v -5.991344 -5.000000 -0.843362
v -5.614633 3.912079 0.807116
v -3.250885 4.064849 1.306679
v -5.991344 -5.000000 -0.843362
v -3.250885 4.064849 1.306679
v -2.178847 -5.000000 -0.037614
v -2.178847 -5.000000 -0.037614
v -3.250885 4.064849 1.306679
v -2.662395 3.185832 3.500000
v -2.178847 -5.000000 -0.037614
v -2.662395 3.185832 3.500000
v -1.229670 -5.000000 3.500000
v -2.662395 3.185832 3.500000
v -5.597501 9.000000 3.383920
v -3.187992 4.164897 5.772186
v -3.187992 4.164897 5.772186
v -5.597501 9.000000 3.383920
v -5.611452 3.555030 6.178948
v -5.611452 3.555030 6.178948
v -5.597501 9.000000 3.383920
v -7.061640 4.188291 4.492833
v -7.061640 4.188291 4.492833
v -5.597501 9.000000 3.383920
v -7.024139 4.945875 2.525226
v -7.024139 4.945875 2.525226
v -5.597501 9.000000 3.383920
v -5.614633 3.912079 0.807116
v -5.614633 3.912079 0.807116
v -5.597501 9.000000 3.383920
v -3.250885 4.064849 1.306679
v -3.250885 4.064849 1.306679
v -5.597501 9.000000 3.383920
v -2.662395 3.185832 3.500000
vn 0.988412 0.143131 -0.050552
vn 0.991011 0.128288 0.037949
vn 0.579414 0.156844 0.799800
vn 0.592304 0.160627 0.789541
vn -0.230492 0.165004 0.958982
vn -0.204632 0.172160 0.963580
vn -0.951050 0.131871 0.279490
vn -0.946184 0.136580 0.293397
vn -0.964126 0.135823 0.228066
vn -0.989796 0.113348 0.086349
vn -0.629870 0.107608 -0.769210
vn -0.630836 0.107858 -0.768383
vn -0.562345 0.108978 -0.819690
vn -0.621808 0.122686 -0.773500
vn 0.789878 0.136243 -0.597938
vn 0.768482 0.147086 -0.622737
vn 0.952005 0.134736 -0.274833
vn 0.948347 0.137330 -0.285971
vn 0.939480 0.306407 -0.153268
vn 0.490493 0.467267 0.735580
vn -0.255841 0.469999 0.844776
vn -0.903727 0.355395 0.238687
vn -0.817303 0.358411 0.451173
vn -0.580131 0.392120 -0.713926
vn -0.347214 0.384155 -0.855492
vn 0.782349 0.317721 -0.535709
vn 0.921275 0.297238 -0.250803
vn 0.973613 0.170407 0.151787
vn 0.963167 0.150569 0.222797
vn 0.123104 0.163650 0.978808
vn 0.162852 0.179085 0.970262
vn -0.717408 0.161491 0.677677
vn -0.750047 0.145870 0.645098
vn -0.989779 0.138395 0.034422
vn -0.991993 0.124872 -0.018907
vn -0.726306 0.131128 -0.674748
vn -0.764554 0.148477 -0.627226
vn 0.193162 0.170770 -0.966192
vn 0.203867 0.167161 -0.964622
vn 0.968668 0.144512 -0.201987
vn 0.952327 0.166681 -0.255519
vn 0.892535 0.450813 0.012208
vn 0.034401 0.456331 0.889145
vn -0.640126 0.352144 0.682813
vn -0.944956 0.310982 0.101727
vn -0.601698 0.362487 -0.711732
vn 0.157427 0.445759 -0.881201
vn 0.891604 0.448915 -0.059315
usemtl rock_dark
f 1//1 2//1 3//1
f 4//2 5//2 6//2
f 7//3 8//3 9//3
f 10//4 11//4 12//4
f 13//5 14//5 15//5
f 16//6 17//6 18//6
f 19//7 20//7 21//7
f 22//8 23//8 24//8
f 25//9 26//9 27//9
f 28//10 29//10 30//10
f 31//11 32//11 33//11
f 34//12 35//12 36//12
f 37//13 38//13 39//13
f 40//14 41//14 42//14
f 43//15 44//15 45//15
f 46//16 47//16 48//16
f 49//17 50//17 51//17
f 52//18 53//18 54//18
f 55//19 56//19 57//19
f 58//20 59//20 60//20
f 61//21 62//21 63//21
f 64//22 65//22 66//22
f 67//23 68//23 69//23
f 70//24 71//24 72//24
f 73//25 74//25 75//25
f 76//26 77//26 78//26
f 79//27 80//27 81//27
usemtl rock_light
f 82//28 83//28 84//28
f 85//29 86//29 87//29
f 88//30 89//30 90//30
f 91//31 92//31 93//31
f 94//32 95//32 96//32
f 97//33 98//33 99//33
f 100//34 101//34 102//34
f 103//35 104//35 105//35
f 106//36 107//36 108//36
f 109//37 110//37 111//37
f 112//38 113//38 114//38
f 115//39 116//39 117//39
f 118//40 119//40 120//40
f 121//41 122//41 123//41
f 124//42 125//42 126//42
f 127//43 128//43 129//43
f 130//44 131//44 132//44
f 133//45 134//45 135//45
f 136//46 137//46 138//46
f 139//47 140//47 141//47
f 142//48 143//48 144//48
