# Procedurally generated low-poly ocean scenery
mtllib ocean_palette.mtl
o TropicalIsland
v 18.203667 -9.786281 0.000000
v 23.726338 -1.197707 0.000000
v 21.181441 -1.291345 9.171833
v 18.203667 -9.786281 0.000000
v 21.181441 -1.291345 9.171833
v 14.067897 -9.870747 6.211021
v 14.067897 -9.870747 6.211021
v 21.181441 -1.291345 9.171833
v 11.267247 -1.343096 14.636584
v 14.067897 -9.870747 6.211021
v 11.267247 -1.343096 14.636584
v 7.279365 -9.956432 9.641588
v 7.279365 -9.956432 9.641588
v 11.267247 -1.343096 14.636584
v 0.000000 -1.352460 20.126343
v 7.279365 -9.956432 9.641588
v 0.000000 -1.352460 20.126343
v 0.000000 -9.837660 13.613130
v 0.000000 -9.837660 13.613130
v 0.000000 -1.352460 20.126343
v -11.278581 -0.999184 14.651307
v 0.000000 -9.837660 13.613130
v -11.278581 -0.999184 14.651307
v -8.688413 -9.986077 11.507885
v -8.688413 -9.986077 11.507885
v -11.278581 -0.999184 14.651307
v -23.152249 -1.045223 10.025218
v -8.688413 -9.986077 11.507885
v -23.152249 -1.045223 10.025218
v -14.787657 -9.940304 6.528797
v -14.787657 -9.940304 6.528797
v -23.152249 -1.045223 10.025218
v -26.489841 -1.299011 0.000000
v -14.787657 -9.940304 6.528797
v -26.489841 -1.299011 0.000000
v -14.686534 -9.912706 0.000000
v -14.686534 -9.912706 0.000000
v -26.489841 -1.299011 0.000000
v -21.038316 -1.168504 -9.109858
v -14.686534 -9.912706 0.000000
v -21.038316 -1.168504 -9.109858
v -13.220136 -9.856606 -5.836732
v -13.220136 -9.856606 -5.836732
v -21.038316 -1.168504 -9.109858
v -11.347010 -0.991534 -14.740198
v -13.220136 -9.856606 -5.836732
v -11.347010 -0.991534 -14.740198
v -7.386413 -9.966696 -9.783373
v -7.386413 -9.966696 -9.783373
v -11.347010 -0.991534 -14.740198
v -0.000000 -1.145711 -19.730107
v -7.386413 -9.966696 -9.783373
v -0.000000 -1.145711 -19.730107
v -0.000000 -10.064482 -14.982450
v -0.000000 -10.064482 -14.982450
v -0.000000 -1.145711 -19.730107
v 11.797664 -1.412902 -15.325615
v -0.000000 -10.064482 -14.982450
v 11.797664 -1.412902 -15.325615
v 7.913051 -10.150711 -10.480911
v 7.913051 -10.150711 -10.480911
v 11.797664 -1.412902 -15.325615
v 22.946353 -1.005935 -9.936062
v 7.913051 -10.150711 -10.480911
v 22.946353 -1.005935 -9.936062
v 15.150625 -9.979760 -6.689049
v 15.150625 -9.979760 -6.689049
v 22.946353 -1.005935 -9.936062
v 23.726338 -1.197707 0.000000
v 15.150625 -9.979760 -6.689049
v 23.726338 -1.197707 0.000000
v 18.203667 -9.786281 0.000000
v 23.726338 -1.197707 0.000000
v 25.516182 0.577434 0.000000
v 21.704585 0.547674 9.582643
v 23.726338 -1.197707 0.000000
v 21.704585 0.547674 9.582643
v 21.181441 -1.291345 9.171833
v 21.181441 -1.291345 9.171833
v 21.704585 0.547674 9.582643
v 13.865360 0.547127 18.364800
v 21.181441 -1.291345 9.171833
v 13.865360 0.547127 18.364800
v 11.267247 -1.343096 14.636584
v 11.267247 -1.343096 14.636584
v 13.865360 0.547127 18.364800
v 0.000000 0.436663 19.567364
v 11.267247 -1.343096 14.636584
v 0.000000 0.436663 19.567364
v 0.000000 -1.352460 20.126343
v 0.000000 -1.352460 20.126343
v 0.000000 0.436663 19.567364
v -13.559049 0.234028 17.959088
v 0.000000 -1.352460 20.126343
v -13.559049 0.234028 17.959088
v -11.278581 -0.999184 14.651307
v -11.278581 -0.999184 14.651307
v -13.559049 0.234028 17.959088
v -21.898069 0.508699 9.668066
v -11.278581 -0.999184 14.651307
v -21.898069 0.508699 9.668066
v -23.152249 -1.045223 10.025218
v -23.152249 -1.045223 10.025218
v -21.898069 0.508699 9.668066
v -23.965919 0.258287 0.000000
v -23.152249 -1.045223 10.025218
v -23.965919 0.258287 0.000000
v -26.489841 -1.299011 0.000000
v -26.489841 -1.299011 0.000000
v -23.965919 0.258287 0.000000
v -21.991581 0.587705 -9.709352
v -26.489841 -1.299011 0.000000
v -21.991581 0.587705 -9.709352
v -21.038316 -1.168504 -9.109858
v -21.038316 -1.168504 -9.109858
v -21.991581 0.587705 -9.709352
v -13.534884 0.345044 -17.927082
v -21.038316 -1.168504 -9.109858
v -13.534884 0.345044 -17.927082
v -11.347010 -0.991534 -14.740198
v -11.347010 -0.991534 -14.740198
v -13.534884 0.345044 -17.927082
v -0.000000 0.368789 -20.679537
v -11.347010 -0.991534 -14.740198
v -0.000000 0.368789 -20.679537
v -0.000000 -1.145711 -19.730107
v -0.000000 -1.145711 -19.730107
v -0.000000 0.368789 -20.679537
v 13.266122 0.271265 -17.571103
v -0.000000 -1.145711 -19.730107
v 13.266122 0.271265 -17.571103
v 11.797664 -1.412902 -15.325615
v 11.797664 -1.412902 -15.325615
v 13.266122 0.271265 -17.571103
v 24.108507 0.575128 -10.643982
v 11.797664 -1.412902 -15.325615
v 24.108507 0.575128 -10.643982
v 22.946353 -1.005935 -9.936062
v 22.946353 -1.005935 -9.936062
v 24.108507 0.575128 -10.643982
v 25.516182 0.577434 0.000000
v 22.946353 -1.005935 -9.936062
v 25.516182 0.577434 0.000000
v 23.726338 -1.197707 0.000000
v 25.516182 0.577434 0.000000
v 17.972745 3.167660 0.000000
v 16.137104 3.036750 6.654829
v 25.516182 0.577434 0.000000
v 16.137104 3.036750 6.654829
v 21.704585 0.547674 9.582643
v 21.704585 0.547674 9.582643
v 16.137104 3.036750 6.654829
v 8.896939 3.410510 11.007107
v 21.704585 0.547674 9.582643
v 8.896939 3.410510 11.007107
v 13.865360 0.547127 18.364800
v 13.865360 0.547127 18.364800
v 8.896939 3.410510 11.007107
v 0.000000 3.329295 11.307260
v 13.865360 0.547127 18.364800
v 0.000000 3.329295 11.307260
v 0.000000 0.436663 19.567364
v 0.000000 0.436663 19.567364
v 0.000000 3.329295 11.307260
v -8.392250 3.115543 10.382717
v 0.000000 0.436663 19.567364
v -8.392250 3.115543 10.382717
v -13.559049 0.234028 17.959088
v -13.559049 0.234028 17.959088
v -8.392250 3.115543 10.382717
v -15.230169 3.172229 6.280816
v -13.559049 0.234028 17.959088
v -15.230169 3.172229 6.280816
v -21.898069 0.508699 9.668066
v -21.898069 0.508699 9.668066
v -15.230169 3.172229 6.280816
v -19.492831 3.387610 0.000000
v -21.898069 0.508699 9.668066
v -19.492831 3.387610 0.000000
v -23.965919 0.258287 0.000000
v -23.965919 0.258287 0.000000
v -19.492831 3.387610 0.000000
v -16.956597 3.268925 -6.992783
v -23.965919 0.258287 0.000000
v -16.956597 3.268925 -6.992783
v -21.991581 0.587705 -9.709352
v -21.991581 0.587705 -9.709352
v -16.956597 3.268925 -6.992783
v -8.867096 3.378124 -10.970187
v -21.991581 0.587705 -9.709352
v -8.867096 3.378124 -10.970187
v -13.534884 0.345044 -17.927082
v -13.534884 0.345044 -17.927082
v -8.867096 3.378124 -10.970187
v -0.000000 3.293212 -13.713011
v -13.534884 0.345044 -17.927082
v -0.000000 3.293212 -13.713011
v -0.000000 0.368789 -20.679537
v -0.000000 0.368789 -20.679537
v -0.000000 3.293212 -13.713011
v 7.673221 3.072323 -9.493149
v -0.000000 0.368789 -20.679537
v 7.673221 3.072323 -9.493149
v 13.266122 0.271265 -17.571103
v 13.266122 0.271265 -17.571103
v 7.673221 3.072323 -9.493149
v 13.801174 3.043429 -5.691508
v 13.266122 0.271265 -17.571103
v 13.801174 3.043429 -5.691508
v 24.108507 0.575128 -10.643982
v 24.108507 0.575128 -10.643982
v 13.801174 3.043429 -5.691508
v 17.972745 3.167660 0.000000
v 24.108507 0.575128 -10.643982
v 17.972745 3.167660 0.000000
v 25.516182 0.577434 0.000000
v 17.972745 3.167660 0.000000
v 0.000000 4.800000 0.000000
v 16.137104 3.036750 6.654829
v 16.137104 3.036750 6.654829
v 0.000000 4.800000 0.000000
v 8.896939 3.410510 11.007107
v 8.896939 3.410510 11.007107
v 0.000000 4.800000 0.000000
v 0.000000 3.329295 11.307260
v 0.000000 3.329295 11.307260
v 0.000000 4.800000 0.000000
v -8.392250 3.115543 10.382717
v -8.392250 3.115543 10.382717
v 0.000000 4.800000 0.000000
v -15.230169 3.172229 6.280816
v -15.230169 3.172229 6.280816
v 0.000000 4.800000 0.000000
v -19.492831 3.387610 0.000000
v -19.492831 3.387610 0.000000
v 0.000000 4.800000 0.000000
v -16.956597 3.268925 -6.992783
v -16.956597 3.268925 -6.992783
v 0.000000 4.800000 0.000000
v -8.867096 3.378124 -10.970187
v -8.867096 3.378124 -10.970187
v 0.000000 4.800000 0.000000
v -0.000000 3.293212 -13.713011
v -0.000000 3.293212 -13.713011
v 0.000000 4.800000 0.000000
v 7.673221 3.072323 -9.493149
v 7.673221 3.072323 -9.493149
v 0.000000 4.800000 0.000000
v 13.801174 3.043429 -5.691508
v 13.801174 3.043429 -5.691508
v 0.000000 4.800000 0.000000
v 17.972745 3.167660 0.000000
v -3.312676 3.000000 1.500000
v -4.523859 8.076560 1.500000
v -5.058053 8.343118 3.308144
v -3.312676 3.000000 1.500000
v -5.058053 8.343118 3.308144
v -4.174280 3.000000 4.416361
v -4.174280 3.000000 4.416361
v -5.058053 8.343118 3.308144
v -7.077803 8.640659 4.031520
v -4.174280 3.000000 4.416361
v -7.077803 8.640659 4.031520
v -7.431940 3.000000 5.583097
v -7.431940 3.000000 5.583097
v -7.077803 8.640659 4.031520
v -8.942747 8.715980 2.676365
v -7.431940 3.000000 5.583097
v -8.942747 8.715980 2.676365
v -10.439915 3.000000 3.397363
v -10.439915 3.000000 3.397363
v -8.942747 8.715980 2.676365
v -8.903130 7.718763 0.342714
v -10.439915 3.000000 3.397363
v -8.903130 7.718763 0.342714
v -10.376016 3.000000 -0.366591
v -10.376016 3.000000 -0.366591
v -8.903130 7.718763 0.342714
v -7.109279 7.608828 -1.169426
v -10.376016 3.000000 -0.366591
v -7.109279 7.608828 -1.169426
v -7.482708 3.000000 -2.805525
v -7.482708 3.000000 -2.805525
v -7.109279 7.608828 -1.169426
v -4.825734 8.035258 -0.599464
v -7.482708 3.000000 -2.805525
v -4.825734 8.035258 -0.599464
v -3.799570 3.000000 -1.886232
v -3.799570 3.000000 -1.886232
v -4.825734 8.035258 -0.599464
v -4.523859 8.076560 1.500000
v -3.799570 3.000000 -1.886232
v -4.523859 8.076560 1.500000
v -3.312676 3.000000 1.500000
v -4.523859 8.076560 1.500000
v -6.150335 11.000000 2.014491
v -5.058053 8.343118 3.308144
v -5.058053 8.343118 3.308144
v -6.150335 11.000000 2.014491
v -7.077803 8.640659 4.031520
v -7.077803 8.640659 4.031520
v -6.150335 11.000000 2.014491
v -8.942747 8.715980 2.676365
v -8.942747 8.715980 2.676365
v -6.150335 11.000000 2.014491
v -8.903130 7.718763 0.342714
v -8.903130 7.718763 0.342714
v -6.150335 11.000000 2.014491
v -7.109279 7.608828 -1.169426
v -7.109279 7.608828 -1.169426
v -6.150335 11.000000 2.014491
v -4.825734 8.035258 -0.599464
v -4.825734 8.035258 -0.599464
v -6.150335 11.000000 2.014491
v -4.523859 8.076560 1.500000
v 9.035235 2.200000 -3.500000
v 8.261846 6.175986 -3.500000
v 7.878296 5.794484 -2.398651
v 9.035235 2.200000 -3.500000
v 7.878296 5.794484 -2.398651
v 8.416607 2.200000 -1.723631
v 8.416607 2.200000 -1.723631
v 7.878296 5.794484 -2.398651
v 6.603563 5.810986 -1.763095
v 8.416607 2.200000 -1.723631
v 6.603563 5.810986 -1.763095
v 6.360585 2.200000 -0.698540
v 6.360585 2.200000 -0.698540
v 6.603563 5.810986 -1.763095
v 5.615612 6.078596 -2.833314
v 6.360585 2.200000 -0.698540
v 5.615612 6.078596 -2.833314
v 4.767116 2.200000 -2.424700
v 4.767116 2.200000 -2.424700
v 5.615612 6.078596 -2.833314
v 5.465314 6.165514 -4.239066
v 4.767116 2.200000 -2.424700
v 5.465314 6.165514 -4.239066
v 4.524700 2.200000 -4.692041
v 4.524700 2.200000 -4.692041
v 5.465314 6.165514 -4.239066
v 6.623286 5.701511 -5.150494
v 4.524700 2.200000 -4.692041
v 6.623286 5.701511 -5.150494
v 6.392396 2.200000 -6.162087
v 6.392396 2.200000 -6.162087
v 6.623286 5.701511 -5.150494
v 8.141031 5.408600 -4.930807
v 6.392396 2.200000 -6.162087
v 8.141031 5.408600 -4.930807
v 8.840372 2.200000 -5.807754
v 8.840372 2.200000 -5.807754
v 8.141031 5.408600 -4.930807
v 8.261846 6.175986 -3.500000
v 8.840372 2.200000 -5.807754
v 8.261846 6.175986 -3.500000
v 9.035235 2.200000 -3.500000
v 8.261846 6.175986 -3.500000
v 7.332565 7.900000 -3.111531
v 7.878296 5.794484 -2.398651
v 7.878296 5.794484 -2.398651
v 7.332565 7.900000 -3.111531
v 6.603563 5.810986 -1.763095
v 6.603563 5.810986 -1.763095
v 7.332565 7.900000 -3.111531
v 5.615612 6.078596 -2.833314
v 5.615612 6.078596 -2.833314
v 7.332565 7.900000 -3.111531
v 5.465314 6.165514 -4.239066
v 5.465314 6.165514 -4.239066
v 7.332565 7.900000 -3.111531
v 6.623286 5.701511 -5.150494
v 6.623286 5.701511 -5.150494
v 7.332565 7.900000 -3.111531
v 8.141031 5.408600 -4.930807
v 8.141031 5.408600 -4.930807
v 7.332565 7.900000 -3.111531
v 8.261846 6.175986 -3.500000
vn 0.820094 -0.527341 0.222167
vn 0.628023 -0.661933 0.409184
vn 0.396974 -0.575810 0.714741
vn 0.370606 -0.588355 0.718673
vn 0.355143 -0.586546 0.727899
vn 0.389465 -0.560818 0.730616
vn -0.374701 -0.564535 0.735458
vn -0.212077 -0.376552 0.901794
vn -0.332133 -0.395280 0.856412
vn -0.472667 -0.669650 0.572848
vn -0.659305 -0.713361 0.237554
vn -0.589444 -0.807712 -0.012544
vn -0.553875 -0.758972 -0.342323
vn -0.696006 -0.694708 -0.181539
vn -0.389549 -0.610380 -0.689702
vn -0.465342 -0.576354 -0.671768
vn -0.338570 -0.564970 -0.752449
vn -0.531547 -0.398013 -0.747692
vn 0.303834 -0.447679 -0.840993
vn 0.400158 -0.574009 -0.714414
vn 0.374018 -0.571330 -0.730542
vn 0.385241 -0.591084 -0.708667
vn 0.740154 -0.668678 -0.071008
vn 0.789295 -0.507537 -0.345573
vn 0.678475 -0.684094 0.267746
vn 0.914960 -0.316268 0.250644
vn 0.701714 -0.339533 0.626350
vn 0.189780 -0.922704 0.335562
vn 0.044235 -0.903137 0.427068
vn 0.421505 0.270430 0.865564
vn -0.116866 0.296172 0.947958
vn -0.152043 -0.955832 0.251533
vn -0.228273 -0.953248 0.198014
vn -0.325135 0.453186 0.830006
vn -0.753492 0.641370 0.144548
vn -0.519042 0.841215 0.151504
vn -0.523517 0.848468 -0.077667
vn -0.718939 -0.539738 -0.437960
vn -0.598749 -0.529987 -0.600510
vn -0.152165 -0.944360 -0.291599
vn -0.068605 -0.935933 -0.345431
vn -0.355064 -0.496543 -0.792070
vn 0.191039 -0.521369 -0.831672
vn 0.173549 -0.838974 -0.515755
vn 0.302963 -0.846877 -0.437051
vn 0.368257 -0.591759 -0.717083
vn 0.778930 -0.618614 -0.102880
vn 0.702515 -0.708334 -0.068819
vn 0.322878 0.940309 0.107559
vn 0.342317 0.929239 0.139046
vn 0.240473 0.915908 0.321379
vn 0.235480 0.948863 0.210256
vn 0.003649 0.932741 0.360530
vn 0.021142 0.943591 0.330439
vn -0.060340 0.942082 0.329911
vn -0.052493 0.944763 0.323523
vn -0.148810 0.953732 0.261249
vn -0.236457 0.933733 0.268759
vn -0.266981 0.939773 0.213421
vn -0.570313 0.815211 0.100866
vn -0.559634 0.799947 -0.216552
vn -0.443809 0.894116 -0.059910
vn -0.227017 0.869920 -0.437839
vn -0.224604 0.939434 -0.258876
vn -0.096960 0.934542 -0.342387
vn -0.080073 0.919093 -0.385819
vn 0.232827 0.896714 -0.376425
vn 0.072943 0.956848 -0.281287
vn 0.147880 0.961635 -0.231063
vn 0.120355 0.965544 -0.230735
vn 0.165266 0.975910 -0.142432
vn 0.324460 0.944916 -0.043115
vn 0.090361 0.994915 0.044496
vn 0.085361 0.994743 0.056576
vn -0.004701 0.991636 0.128979
vn -0.039436 0.990876 0.128881
vn -0.059469 0.991832 0.112843
vn -0.072018 0.993947 0.082962
vn -0.072200 0.996459 -0.043099
vn -0.054982 0.994904 -0.084511
vn -0.024260 0.993725 -0.109191
vn 0.088335 0.990132 -0.108796
vn 0.077557 0.990041 -0.117491
vn 0.090102 0.992064 -0.087694
vn 0.942951 0.224973 0.245418
vn 0.937134 0.212430 0.276865
vn 0.358738 0.246092 0.900414
vn 0.328032 0.231342 0.915902
vn -0.562194 0.251965 0.787687
vn -0.569474 0.248014 0.783702
vn -0.964162 0.237665 -0.117927
vn -0.953759 0.300134 -0.016192
vn -0.604119 0.299566 -0.738445
vn -0.613201 0.307920 -0.727440
vn 0.173544 0.316945 -0.932431
vn 0.232125 0.284970 -0.930005
vn 0.962023 0.232575 -0.142901
vn 0.963323 0.229833 -0.138513
vn 0.871670 0.451348 0.190986
vn 0.354622 0.523128 0.774971
vn -0.412743 0.680170 0.605815
vn -0.644914 0.698762 -0.309544
vn -0.450634 0.675449 -0.583693
vn 0.057701 0.674617 -0.735909
vn 0.855986 0.499624 -0.132908
vn 0.908870 0.176789 0.377757
vn 0.925460 0.199122 0.322296
vn 0.436732 0.228788 0.870012
vn 0.434479 0.227672 0.871432
vn -0.679781 0.249106 0.689815
vn -0.715742 0.226186 0.660722
vn -0.967503 0.224011 0.117293
vn -0.970348 0.218314 0.103746
vn -0.546621 0.221891 -0.807447
vn -0.597438 0.258685 -0.759046
vn 0.187469 0.261201 -0.946905
vn 0.137146 0.288854 -0.947499
vn 0.938469 0.265059 -0.221402
vn 0.978248 0.190284 -0.082602
vn 0.836606 0.357403 0.415155
vn 0.415528 0.386482 0.823388
vn -0.518397 0.584075 0.624596
vn -0.713361 0.690625 0.118971
vn -0.246380 0.700582 -0.669688
vn 0.228405 0.621395 -0.749466
vn 0.794692 0.504438 -0.337648
usemtl rock_dark
f 1//1 2//1 3//1
f 4//2 5//2 6//2
f 7//3 8//3 9//3
f 10//4 11//4 12//4
f 13//5 14//5 15//5
f 16//6 17//6 18//6
f 19//7 20//7 21//7
f 22//8 23//8 24//8
f 25//9 26//9 27//9
f 28//10 29//10 30//10
f 31//11 32//11 33//11
f 34//12 35//12 36//12
f 37//13 38//13 39//13
f 40//14 41//14 42//14
f 43//15 44//15 45//15
f 46//16 47//16 48//16
f 49//17 50//17 51//17
f 52//18 53//18 54//18
f 55//19 56//19 57//19
f 58//20 59//20 60//20
f 61//21 62//21 63//21
f 64//22 65//22 66//22
f 67//23 68//23 69//23
f 70//24 71//24 72//24
usemtl sand
f 73//25 74//25 75//25
f 76//26 77//26 78//26
f 79//27 80//27 81//27
f 82//28 83//28 84//28
f 85//29 86//29 87//29
f 88//30 89//30 90//30
f 91//31 92//31 93//31
f 94//32 95//32 96//32
f 97//33 98//33 99//33
f 100//34 101//34 102//34
f 103//35 104//35 105//35
f 106//36 107//36 108//36
f 109//37 110//37 111//37
f 112//38 113//38 114//38
f 115//39 116//39 117//39
f 118//40 119//40 120//40
f 121//41 122//41 123//41
f 124//42 125//42 126//42
f 127//43 128//43 129//43
f 130//44 131//44 132//44
f 133//45 134//45 135//45
f 136//46 137//46 138//46
f 139//47 140//47 141//47
f 142//48 143//48 144//48
usemtl grass
f 145//49 146//49 147//49
f 148//50 149//50 150//50
f 151//51 152//51 153//51
f 154//52 155//52 156//52
f 157//53 158//53 159//53
f 160//54 161//54 162//54
f 163//55 164//55 165//55
f 166//56 167//56 168//56
f 169//57 170//57 171//57
f 172//58 173//58 174//58
f 175//59 176//59 177//59
f 178//60 179//60 180//60
f 181//61 182//61 183//61
f 184//62 185//62 186//62
f 187//63 188//63 189//63
f 190//64 191//64 192//64
f 193//65 194//65 195//65
f 196//66 197//66 198//66
f 199//67 200//67 201//67
f 202//68 203//68 204//68
f 205//69 206//69 207//69
f 208//70 209//70 210//70
f 211//71 212//71 213//71
f 214//72 215//72 216//72
f 217//73 218//73 219//73
f 220//74 221//74 222//74
f 223//75 224//75 225//75
f 226//76 227//76 228//76
f 229//77 230//77 231//77
f 232//78 233//78 234//78
f 235//79 236//79 237//79
f 238//80 239//80 240//80
f 241//81 242//81 243//81
f 244//82 245//82 246//82
f 247//83 248//83 249//83
f 250//84 251//84 252//84
usemtl rock_light
f 253//85 254//85 255//85
f 256//86 257//86 258//86
f 259//87 260//87 261//87
f 262//88 263//88 264//88
f 265//89 266//89 267//89
f 268//90 269//90 270//90
f 271//91 272//91 273//91
f 274//92 275//92 276//92
f 277//93 278//93 279//93
f 280//94 281//94 282//94
f 283//95 284//95 285//95
f 286//96 287//96 288//96
f 289//97 290//97 291//97
f 292//98 293//98 294//98
f 295//99 296//99 297//99
f 298//100 299//100 300//100
f 301//101 302//101 303//101
f 304//102 305//102 306//102
f 307//103 308//103 309//103
f 310//104 311//104 312//104
f 313//105 314//105 315//105
usemtl rock_dark
f 316//106 317//106 318//106
f 319//107 320//107 321//107
f 322//108 323//108 324//108
f 325//109 326//109 327//109
f 328//110 329//110 330//110
f 331//111 332//111 333//111
f 334//112 335//112 336//112
f 337//113 338//113 339//113
f 340//114 341//114 342//114
f 343//115 344//115 345//115
f 346//116 347//116 348//116
f 349//117 350//117 351//117
f 352//118 353//118 354//118
f 355//119 356//119 357//119
f 358//120 359//120 360//120
f 361//121 362//121 363//121
f 364//122 365//122 366//122
f 367//123 368//123 369//123
f 370//124 371//124 372//124
f 373//125 374//125 375//125
f 376//126 377//126 378//126
