# Smooth jellyfish link; taper and waves are applied by the shared VS.
mtllib IceJellyfish.mtl
o IceJellyfishSoftSegment
usemtl JellyfishIce
s 1
v 0.4500000 0.0300000 0.0000000
vt 0.0000000 0.0000000
vn 1.0000000 0.0000000 0.0000000
v 0.4157458 0.0300000 0.1722075
vt 0.0625000 0.0000000
vn 0.9238795 0.0000000 0.3826834
v 0.3181981 0.0300000 0.3181981
vt 0.1250000 0.0000000
vn 0.7071068 0.0000000 0.7071068
v 0.1722075 0.0300000 0.4157458
vt 0.1875000 0.0000000
vn 0.3826834 0.0000000 0.9238795
v 0.0000000 0.0300000 0.4500000
vt 0.2500000 0.0000000
vn 0.0000000 0.0000000 1.0000000
v -0.1722075 0.0300000 0.4157458
vt 0.3125000 0.0000000
vn -0.3826834 0.0000000 0.9238795
v -0.3181981 0.0300000 0.3181981
vt 0.3750000 0.0000000
vn -0.7071068 0.0000000 0.7071068
v -0.4157458 0.0300000 0.1722075
vt 0.4375000 0.0000000
vn -0.9238795 0.0000000 0.3826834
v -0.4500000 0.0300000 0.0000000
vt 0.5000000 0.0000000
vn -1.0000000 0.0000000 0.0000000
v -0.4157458 0.0300000 -0.1722075
vt 0.5625000 0.0000000
vn -0.9238795 0.0000000 -0.3826834
v -0.3181981 0.0300000 -0.3181981
vt 0.6250000 0.0000000
vn -0.7071068 0.0000000 -0.7071068
v -0.1722075 0.0300000 -0.4157458
vt 0.6875000 0.0000000
vn -0.3826834 0.0000000 -0.9238795
v -0.0000000 0.0300000 -0.4500000
vt 0.7500000 0.0000000
vn -0.0000000 0.0000000 -1.0000000
v 0.1722075 0.0300000 -0.4157458
vt 0.8125000 0.0000000
vn 0.3826834 0.0000000 -0.9238795
v 0.3181981 0.0300000 -0.3181981
vt 0.8750000 0.0000000
vn 0.7071068 0.0000000 -0.7071068
v 0.4157458 0.0300000 -0.1722075
vt 0.9375000 0.0000000
vn 0.9238795 0.0000000 -0.3826834
v 0.4500000 0.0300000 -0.0000000
vt 1.0000000 0.0000000
vn 1.0000000 0.0000000 -0.0000000
v 0.4500000 -0.0583333 0.0000000
vt 0.0000000 0.0833333
vn 1.0000000 0.0000000 0.0000000
v 0.4157458 -0.0583333 0.1722075
vt 0.0625000 0.0833333
vn 0.9238795 0.0000000 0.3826834
v 0.3181981 -0.0583333 0.3181981
vt 0.1250000 0.0833333
vn 0.7071068 0.0000000 0.7071068
v 0.1722075 -0.0583333 0.4157458
vt 0.1875000 0.0833333
vn 0.3826834 0.0000000 0.9238795
v 0.0000000 -0.0583333 0.4500000
vt 0.2500000 0.0833333
vn 0.0000000 0.0000000 1.0000000
v -0.1722075 -0.0583333 0.4157458
vt 0.3125000 0.0833333
vn -0.3826834 0.0000000 0.9238795
v -0.3181981 -0.0583333 0.3181981
vt 0.3750000 0.0833333
vn -0.7071068 0.0000000 0.7071068
v -0.4157458 -0.0583333 0.1722075
vt 0.4375000 0.0833333
vn -0.9238795 0.0000000 0.3826834
v -0.4500000 -0.0583333 0.0000000
vt 0.5000000 0.0833333
vn -1.0000000 0.0000000 0.0000000
v -0.4157458 -0.0583333 -0.1722075
vt 0.5625000 0.0833333
vn -0.9238795 0.0000000 -0.3826834
v -0.3181981 -0.0583333 -0.3181981
vt 0.6250000 0.0833333
vn -0.7071068 0.0000000 -0.7071068
v -0.1722075 -0.0583333 -0.4157458
vt 0.6875000 0.0833333
vn -0.3826834 0.0000000 -0.9238795
v -0.0000000 -0.0583333 -0.4500000
vt 0.7500000 0.0833333
vn -0.0000000 0.0000000 -1.0000000
v 0.1722075 -0.0583333 -0.4157458
vt 0.8125000 0.0833333
vn 0.3826834 0.0000000 -0.9238795
v 0.3181981 -0.0583333 -0.3181981
vt 0.8750000 0.0833333
vn 0.7071068 0.0000000 -0.7071068
v 0.4157458 -0.0583333 -0.1722075
vt 0.9375000 0.0833333
vn 0.9238795 0.0000000 -0.3826834
v 0.4500000 -0.0583333 -0.0000000
vt 1.0000000 0.0833333
vn 1.0000000 0.0000000 -0.0000000
v 0.4500000 -0.1466667 0.0000000
vt 0.0000000 0.1666667
vn 1.0000000 0.0000000 0.0000000
v 0.4157458 -0.1466667 0.1722075
vt 0.0625000 0.1666667
vn 0.9238795 0.0000000 0.3826834
v 0.3181981 -0.1466667 0.3181981
vt 0.1250000 0.1666667
vn 0.7071068 0.0000000 0.7071068
v 0.1722075 -0.1466667 0.4157458
vt 0.1875000 0.1666667
vn 0.3826834 0.0000000 0.9238795
v 0.0000000 -0.1466667 0.4500000
vt 0.2500000 0.1666667
vn 0.0000000 0.0000000 1.0000000
v -0.1722075 -0.1466667 0.4157458
vt 0.3125000 0.1666667
vn -0.3826834 0.0000000 0.9238795
v -0.3181981 -0.1466667 0.3181981
vt 0.3750000 0.1666667
vn -0.7071068 0.0000000 0.7071068
v -0.4157458 -0.1466667 0.1722075
vt 0.4375000 0.1666667
vn -0.9238795 0.0000000 0.3826834
v -0.4500000 -0.1466667 0.0000000
vt 0.5000000 0.1666667
vn -1.0000000 0.0000000 0.0000000
v -0.4157458 -0.1466667 -0.1722075
vt 0.5625000 0.1666667
vn -0.9238795 0.0000000 -0.3826834
v -0.3181981 -0.1466667 -0.3181981
vt 0.6250000 0.1666667
vn -0.7071068 0.0000000 -0.7071068
v -0.1722075 -0.1466667 -0.4157458
vt 0.6875000 0.1666667
vn -0.3826834 0.0000000 -0.9238795
v -0.0000000 -0.1466667 -0.4500000
vt 0.7500000 0.1666667
vn -0.0000000 0.0000000 -1.0000000
v 0.1722075 -0.1466667 -0.4157458
vt 0.8125000 0.1666667
vn 0.3826834 0.0000000 -0.9238795
v 0.3181981 -0.1466667 -0.3181981
vt 0.8750000 0.1666667
vn 0.7071068 0.0000000 -0.7071068
v 0.4157458 -0.1466667 -0.1722075
vt 0.9375000 0.1666667
vn 0.9238795 0.0000000 -0.3826834
v 0.4500000 -0.1466667 -0.0000000
vt 1.0000000 0.1666667
vn 1.0000000 0.0000000 -0.0000000
v 0.4500000 -0.2350000 0.0000000
vt 0.0000000 0.2500000
vn 1.0000000 0.0000000 0.0000000
v 0.4157458 -0.2350000 0.1722075
vt 0.0625000 0.2500000
vn 0.9238795 0.0000000 0.3826834
v 0.3181981 -0.2350000 0.3181981
vt 0.1250000 0.2500000
vn 0.7071068 0.0000000 0.7071068
v 0.1722075 -0.2350000 0.4157458
vt 0.1875000 0.2500000
vn 0.3826834 0.0000000 0.9238795
v 0.0000000 -0.2350000 0.4500000
vt 0.2500000 0.2500000
vn 0.0000000 0.0000000 1.0000000
v -0.1722075 -0.2350000 0.4157458
vt 0.3125000 0.2500000
vn -0.3826834 0.0000000 0.9238795
v -0.3181981 -0.2350000 0.3181981
vt 0.3750000 0.2500000
vn -0.7071068 0.0000000 0.7071068
v -0.4157458 -0.2350000 0.1722075
vt 0.4375000 0.2500000
vn -0.9238795 0.0000000 0.3826834
v -0.4500000 -0.2350000 0.0000000
vt 0.5000000 0.2500000
vn -1.0000000 0.0000000 0.0000000
v -0.4157458 -0.2350000 -0.1722075
vt 0.5625000 0.2500000
vn -0.9238795 0.0000000 -0.3826834
v -0.3181981 -0.2350000 -0.3181981
vt 0.6250000 0.2500000
vn -0.7071068 0.0000000 -0.7071068
v -0.1722075 -0.2350000 -0.4157458
vt 0.6875000 0.2500000
vn -0.3826834 0.0000000 -0.9238795
v -0.0000000 -0.2350000 -0.4500000
vt 0.7500000 0.2500000
vn -0.0000000 0.0000000 -1.0000000
v 0.1722075 -0.2350000 -0.4157458
vt 0.8125000 0.2500000
vn 0.3826834 0.0000000 -0.9238795
v 0.3181981 -0.2350000 -0.3181981
vt 0.8750000 0.2500000
vn 0.7071068 0.0000000 -0.7071068
v 0.4157458 -0.2350000 -0.1722075
vt 0.9375000 0.2500000
vn 0.9238795 0.0000000 -0.3826834
v 0.4500000 -0.2350000 -0.0000000
vt 1.0000000 0.2500000
vn 1.0000000 0.0000000 -0.0000000
v 0.4500000 -0.3233333 0.0000000
vt 0.0000000 0.3333333
vn 1.0000000 0.0000000 0.0000000
v 0.4157458 -0.3233333 0.1722075
vt 0.0625000 0.3333333
vn 0.9238795 0.0000000 0.3826834
v 0.3181981 -0.3233333 0.3181981
vt 0.1250000 0.3333333
vn 0.7071068 0.0000000 0.7071068
v 0.1722075 -0.3233333 0.4157458
vt 0.1875000 0.3333333
vn 0.3826834 0.0000000 0.9238795
v 0.0000000 -0.3233333 0.4500000
vt 0.2500000 0.3333333
vn 0.0000000 0.0000000 1.0000000
v -0.1722075 -0.3233333 0.4157458
vt 0.3125000 0.3333333
vn -0.3826834 0.0000000 0.9238795
v -0.3181981 -0.3233333 0.3181981
vt 0.3750000 0.3333333
vn -0.7071068 0.0000000 0.7071068
v -0.4157458 -0.3233333 0.1722075
vt 0.4375000 0.3333333
vn -0.9238795 0.0000000 0.3826834
v -0.4500000 -0.3233333 0.0000000
vt 0.5000000 0.3333333
vn -1.0000000 0.0000000 0.0000000
v -0.4157458 -0.3233333 -0.1722075
vt 0.5625000 0.3333333
vn -0.9238795 0.0000000 -0.3826834
v -0.3181981 -0.3233333 -0.3181981
vt 0.6250000 0.3333333
vn -0.7071068 0.0000000 -0.7071068
v -0.1722075 -0.3233333 -0.4157458
vt 0.6875000 0.3333333
vn -0.3826834 0.0000000 -0.9238795
v -0.0000000 -0.3233333 -0.4500000
vt 0.7500000 0.3333333
vn -0.0000000 0.0000000 -1.0000000
v 0.1722075 -0.3233333 -0.4157458
vt 0.8125000 0.3333333
vn 0.3826834 0.0000000 -0.9238795
v 0.3181981 -0.3233333 -0.3181981
vt 0.8750000 0.3333333
vn 0.7071068 0.0000000 -0.7071068
v 0.4157458 -0.3233333 -0.1722075
vt 0.9375000 0.3333333
vn 0.9238795 0.0000000 -0.3826834
v 0.4500000 -0.3233333 -0.0000000
vt 1.0000000 0.3333333
vn 1.0000000 0.0000000 -0.0000000
v 0.4500000 -0.4116667 0.0000000
vt 0.0000000 0.4166667
vn 1.0000000 0.0000000 0.0000000
v 0.4157458 -0.4116667 0.1722075
vt 0.0625000 0.4166667
vn 0.9238795 0.0000000 0.3826834
v 0.3181981 -0.4116667 0.3181981
vt 0.1250000 0.4166667
vn 0.7071068 0.0000000 0.7071068
v 0.1722075 -0.4116667 0.4157458
vt 0.1875000 0.4166667
vn 0.3826834 0.0000000 0.9238795
v 0.0000000 -0.4116667 0.4500000
vt 0.2500000 0.4166667
vn 0.0000000 0.0000000 1.0000000
v -0.1722075 -0.4116667 0.4157458
vt 0.3125000 0.4166667
vn -0.3826834 0.0000000 0.9238795
v -0.3181981 -0.4116667 0.3181981
vt 0.3750000 0.4166667
vn -0.7071068 0.0000000 0.7071068
v -0.4157458 -0.4116667 0.1722075
vt 0.4375000 0.4166667
vn -0.9238795 0.0000000 0.3826834
v -0.4500000 -0.4116667 0.0000000
vt 0.5000000 0.4166667
vn -1.0000000 0.0000000 0.0000000
v -0.4157458 -0.4116667 -0.1722075
vt 0.5625000 0.4166667
vn -0.9238795 0.0000000 -0.3826834
v -0.3181981 -0.4116667 -0.3181981
vt 0.6250000 0.4166667
vn -0.7071068 0.0000000 -0.7071068
v -0.1722075 -0.4116667 -0.4157458
vt 0.6875000 0.4166667
vn -0.3826834 0.0000000 -0.9238795
v -0.0000000 -0.4116667 -0.4500000
vt 0.7500000 0.4166667
vn -0.0000000 0.0000000 -1.0000000
v 0.1722075 -0.4116667 -0.4157458
vt 0.8125000 0.4166667
vn 0.3826834 0.0000000 -0.9238795
v 0.3181981 -0.4116667 -0.3181981
vt 0.8750000 0.4166667
vn 0.7071068 0.0000000 -0.7071068
v 0.4157458 -0.4116667 -0.1722075
vt 0.9375000 0.4166667
vn 0.9238795 0.0000000 -0.3826834
v 0.4500000 -0.4116667 -0.0000000
vt 1.0000000 0.4166667
vn 1.0000000 0.0000000 -0.0000000
v 0.4500000 -0.5000000 0.0000000
vt 0.0000000 0.5000000
vn 1.0000000 0.0000000 0.0000000
v 0.4157458 -0.5000000 0.1722075
vt 0.0625000 0.5000000
vn 0.9238795 0.0000000 0.3826834
v 0.3181981 -0.5000000 0.3181981
vt 0.1250000 0.5000000
vn 0.7071068 0.0000000 0.7071068
v 0.1722075 -0.5000000 0.4157458
vt 0.1875000 0.5000000
vn 0.3826834 0.0000000 0.9238795
v 0.0000000 -0.5000000 0.4500000
vt 0.2500000 0.5000000
vn 0.0000000 0.0000000 1.0000000
v -0.1722075 -0.5000000 0.4157458
vt 0.3125000 0.5000000
vn -0.3826834 0.0000000 0.9238795
v -0.3181981 -0.5000000 0.3181981
vt 0.3750000 0.5000000
vn -0.7071068 0.0000000 0.7071068
v -0.4157458 -0.5000000 0.1722075
vt 0.4375000 0.5000000
vn -0.9238795 0.0000000 0.3826834
v -0.4500000 -0.5000000 0.0000000
vt 0.5000000 0.5000000
vn -1.0000000 0.0000000 0.0000000
v -0.4157458 -0.5000000 -0.1722075
vt 0.5625000 0.5000000
vn -0.9238795 0.0000000 -0.3826834
v -0.3181981 -0.5000000 -0.3181981
vt 0.6250000 0.5000000
vn -0.7071068 0.0000000 -0.7071068
v -0.1722075 -0.5000000 -0.4157458
vt 0.6875000 0.5000000
vn -0.3826834 0.0000000 -0.9238795
v -0.0000000 -0.5000000 -0.4500000
vt 0.7500000 0.5000000
vn -0.0000000 0.0000000 -1.0000000
v 0.1722075 -0.5000000 -0.4157458
vt 0.8125000 0.5000000
vn 0.3826834 0.0000000 -0.9238795
v 0.3181981 -0.5000000 -0.3181981
vt 0.8750000 0.5000000
vn 0.7071068 0.0000000 -0.7071068
v 0.4157458 -0.5000000 -0.1722075
vt 0.9375000 0.5000000
vn 0.9238795 0.0000000 -0.3826834
v 0.4500000 -0.5000000 -0.0000000
vt 1.0000000 0.5000000
vn 1.0000000 0.0000000 -0.0000000
v 0.4500000 -0.5883333 0.0000000
vt 0.0000000 0.5833333
vn 1.0000000 0.0000000 0.0000000
v 0.4157458 -0.5883333 0.1722075
vt 0.0625000 0.5833333
vn 0.9238795 0.0000000 0.3826834
v 0.3181981 -0.5883333 0.3181981
vt 0.1250000 0.5833333
vn 0.7071068 0.0000000 0.7071068
v 0.1722075 -0.5883333 0.4157458
vt 0.1875000 0.5833333
vn 0.3826834 0.0000000 0.9238795
v 0.0000000 -0.5883333 0.4500000
vt 0.2500000 0.5833333
vn 0.0000000 0.0000000 1.0000000
v -0.1722075 -0.5883333 0.4157458
vt 0.3125000 0.5833333
vn -0.3826834 0.0000000 0.9238795
v -0.3181981 -0.5883333 0.3181981
vt 0.3750000 0.5833333
vn -0.7071068 0.0000000 0.7071068
v -0.4157458 -0.5883333 0.1722075
vt 0.4375000 0.5833333
vn -0.9238795 0.0000000 0.3826834
v -0.4500000 -0.5883333 0.0000000
vt 0.5000000 0.5833333
vn -1.0000000 0.0000000 0.0000000
v -0.4157458 -0.5883333 -0.1722075
vt 0.5625000 0.5833333
vn -0.9238795 0.0000000 -0.3826834
v -0.3181981 -0.5883333 -0.3181981
vt 0.6250000 0.5833333
vn -0.7071068 0.0000000 -0.7071068
v -0.1722075 -0.5883333 -0.4157458
vt 0.6875000 0.5833333
vn -0.3826834 0.0000000 -0.9238795
v -0.0000000 -0.5883333 -0.4500000
vt 0.7500000 0.5833333
vn -0.0000000 0.0000000 -1.0000000
v 0.1722075 -0.5883333 -0.4157458
vt 0.8125000 0.5833333
vn 0.3826834 0.0000000 -0.9238795
v 0.3181981 -0.5883333 -0.3181981
vt 0.8750000 0.5833333
vn 0.7071068 0.0000000 -0.7071068
v 0.4157458 -0.5883333 -0.1722075
vt 0.9375000 0.5833333
vn 0.9238795 0.0000000 -0.3826834
v 0.4500000 -0.5883333 -0.0000000
vt 1.0000000 0.5833333
vn 1.0000000 0.0000000 -0.0000000
v 0.4500000 -0.6766667 0.0000000
vt 0.0000000 0.6666667
vn 1.0000000 0.0000000 0.0000000
v 0.4157458 -0.6766667 0.1722075
vt 0.0625000 0.6666667
vn 0.9238795 0.0000000 0.3826834
v 0.3181981 -0.6766667 0.3181981
vt 0.1250000 0.6666667
vn 0.7071068 0.0000000 0.7071068
v 0.1722075 -0.6766667 0.4157458
vt 0.1875000 0.6666667
vn 0.3826834 0.0000000 0.9238795
v 0.0000000 -0.6766667 0.4500000
vt 0.2500000 0.6666667
vn 0.0000000 0.0000000 1.0000000
v -0.1722075 -0.6766667 0.4157458
vt 0.3125000 0.6666667
vn -0.3826834 0.0000000 0.9238795
v -0.3181981 -0.6766667 0.3181981
vt 0.3750000 0.6666667
vn -0.7071068 0.0000000 0.7071068
v -0.4157458 -0.6766667 0.1722075
vt 0.4375000 0.6666667
vn -0.9238795 0.0000000 0.3826834
v -0.4500000 -0.6766667 0.0000000
vt 0.5000000 0.6666667
vn -1.0000000 0.0000000 0.0000000
v -0.4157458 -0.6766667 -0.1722075
vt 0.5625000 0.6666667
vn -0.9238795 0.0000000 -0.3826834
v -0.3181981 -0.6766667 -0.3181981
vt 0.6250000 0.6666667
vn -0.7071068 0.0000000 -0.7071068
v -0.1722075 -0.6766667 -0.4157458
vt 0.6875000 0.6666667
vn -0.3826834 0.0000000 -0.9238795
v -0.0000000 -0.6766667 -0.4500000
vt 0.7500000 0.6666667
vn -0.0000000 0.0000000 -1.0000000
v 0.1722075 -0.6766667 -0.4157458
vt 0.8125000 0.6666667
vn 0.3826834 0.0000000 -0.9238795
v 0.3181981 -0.6766667 -0.3181981
vt 0.8750000 0.6666667
vn 0.7071068 0.0000000 -0.7071068
v 0.4157458 -0.6766667 -0.1722075
vt 0.9375000 0.6666667
vn 0.9238795 0.0000000 -0.3826834
v 0.4500000 -0.6766667 -0.0000000
vt 1.0000000 0.6666667
vn 1.0000000 0.0000000 -0.0000000
v 0.4500000 -0.7650000 0.0000000
vt 0.0000000 0.7500000
vn 1.0000000 0.0000000 0.0000000
v 0.4157458 -0.7650000 0.1722075
vt 0.0625000 0.7500000
vn 0.9238795 0.0000000 0.3826834
v 0.3181981 -0.7650000 0.3181981
vt 0.1250000 0.7500000
vn 0.7071068 0.0000000 0.7071068
v 0.1722075 -0.7650000 0.4157458
vt 0.1875000 0.7500000
vn 0.3826834 0.0000000 0.9238795
v 0.0000000 -0.7650000 0.4500000
vt 0.2500000 0.7500000
vn 0.0000000 0.0000000 1.0000000
v -0.1722075 -0.7650000 0.4157458
vt 0.3125000 0.7500000
vn -0.3826834 0.0000000 0.9238795
v -0.3181981 -0.7650000 0.3181981
vt 0.3750000 0.7500000
vn -0.7071068 0.0000000 0.7071068
v -0.4157458 -0.7650000 0.1722075
vt 0.4375000 0.7500000
vn -0.9238795 0.0000000 0.3826834
v -0.4500000 -0.7650000 0.0000000
vt 0.5000000 0.7500000
vn -1.0000000 0.0000000 0.0000000
v -0.4157458 -0.7650000 -0.1722075
vt 0.5625000 0.7500000
vn -0.9238795 0.0000000 -0.3826834
v -0.3181981 -0.7650000 -0.3181981
vt 0.6250000 0.7500000
vn -0.7071068 0.0000000 -0.7071068
v -0.1722075 -0.7650000 -0.4157458
vt 0.6875000 0.7500000
vn -0.3826834 0.0000000 -0.9238795
v -0.0000000 -0.7650000 -0.4500000
vt 0.7500000 0.7500000
vn -0.0000000 0.0000000 -1.0000000
v 0.1722075 -0.7650000 -0.4157458
vt 0.8125000 0.7500000
vn 0.3826834 0.0000000 -0.9238795
v 0.3181981 -0.7650000 -0.3181981
vt 0.8750000 0.7500000
vn 0.7071068 0.0000000 -0.7071068
v 0.4157458 -0.7650000 -0.1722075
vt 0.9375000 0.7500000
vn 0.9238795 0.0000000 -0.3826834
v 0.4500000 -0.7650000 -0.0000000
vt 1.0000000 0.7500000
vn 1.0000000 0.0000000 -0.0000000
v 0.4500000 -0.8533333 0.0000000
vt 0.0000000 0.8333333
vn 1.0000000 0.0000000 0.0000000
v 0.4157458 -0.8533333 0.1722075
vt 0.0625000 0.8333333
vn 0.9238795 0.0000000 0.3826834
v 0.3181981 -0.8533333 0.3181981
vt 0.1250000 0.8333333
vn 0.7071068 0.0000000 0.7071068
v 0.1722075 -0.8533333 0.4157458
vt 0.1875000 0.8333333
vn 0.3826834 0.0000000 0.9238795
v 0.0000000 -0.8533333 0.4500000
vt 0.2500000 0.8333333
vn 0.0000000 0.0000000 1.0000000
v -0.1722075 -0.8533333 0.4157458
vt 0.3125000 0.8333333
vn -0.3826834 0.0000000 0.9238795
v -0.3181981 -0.8533333 0.3181981
vt 0.3750000 0.8333333
vn -0.7071068 0.0000000 0.7071068
v -0.4157458 -0.8533333 0.1722075
vt 0.4375000 0.8333333
vn -0.9238795 0.0000000 0.3826834
v -0.4500000 -0.8533333 0.0000000
vt 0.5000000 0.8333333
vn -1.0000000 0.0000000 0.0000000
v -0.4157458 -0.8533333 -0.1722075
vt 0.5625000 0.8333333
vn -0.9238795 0.0000000 -0.3826834
v -0.3181981 -0.8533333 -0.3181981
vt 0.6250000 0.8333333
vn -0.7071068 0.0000000 -0.7071068
v -0.1722075 -0.8533333 -0.4157458
vt 0.6875000 0.8333333
vn -0.3826834 0.0000000 -0.9238795
v -0.0000000 -0.8533333 -0.4500000
vt 0.7500000 0.8333333
vn -0.0000000 0.0000000 -1.0000000
v 0.1722075 -0.8533333 -0.4157458
vt 0.8125000 0.8333333
vn 0.3826834 0.0000000 -0.9238795
v 0.3181981 -0.8533333 -0.3181981
vt 0.8750000 0.8333333
vn 0.7071068 0.0000000 -0.7071068
v 0.4157458 -0.8533333 -0.1722075
vt 0.9375000 0.8333333
vn 0.9238795 0.0000000 -0.3826834
v 0.4500000 -0.8533333 -0.0000000
vt 1.0000000 0.8333333
vn 1.0000000 0.0000000 -0.0000000
v 0.4500000 -0.9416667 0.0000000
vt 0.0000000 0.9166667
vn 1.0000000 0.0000000 0.0000000
v 0.4157458 -0.9416667 0.1722075
vt 0.0625000 0.9166667
vn 0.9238795 0.0000000 0.3826834
v 0.3181981 -0.9416667 0.3181981
vt 0.1250000 0.9166667
vn 0.7071068 0.0000000 0.7071068
v 0.1722075 -0.9416667 0.4157458
vt 0.1875000 0.9166667
vn 0.3826834 0.0000000 0.9238795
v 0.0000000 -0.9416667 0.4500000
vt 0.2500000 0.9166667
vn 0.0000000 0.0000000 1.0000000
v -0.1722075 -0.9416667 0.4157458
vt 0.3125000 0.9166667
vn -0.3826834 0.0000000 0.9238795
v -0.3181981 -0.9416667 0.3181981
vt 0.3750000 0.9166667
vn -0.7071068 0.0000000 0.7071068
v -0.4157458 -0.9416667 0.1722075
vt 0.4375000 0.9166667
vn -0.9238795 0.0000000 0.3826834
v -0.4500000 -0.9416667 0.0000000
vt 0.5000000 0.9166667
vn -1.0000000 0.0000000 0.0000000
v -0.4157458 -0.9416667 -0.1722075
vt 0.5625000 0.9166667
vn -0.9238795 0.0000000 -0.3826834
v -0.3181981 -0.9416667 -0.3181981
vt 0.6250000 0.9166667
vn -0.7071068 0.0000000 -0.7071068
v -0.1722075 -0.9416667 -0.4157458
vt 0.6875000 0.9166667
vn -0.3826834 0.0000000 -0.9238795
v -0.0000000 -0.9416667 -0.4500000
vt 0.7500000 0.9166667
vn -0.0000000 0.0000000 -1.0000000
v 0.1722075 -0.9416667 -0.4157458
vt 0.8125000 0.9166667
vn 0.3826834 0.0000000 -0.9238795
v 0.3181981 -0.9416667 -0.3181981
vt 0.8750000 0.9166667
vn 0.7071068 0.0000000 -0.7071068
v 0.4157458 -0.9416667 -0.1722075
vt 0.9375000 0.9166667
vn 0.9238795 0.0000000 -0.3826834
v 0.4500000 -0.9416667 -0.0000000
vt 1.0000000 0.9166667
vn 1.0000000 0.0000000 -0.0000000
v 0.4500000 -1.0300000 0.0000000
vt 0.0000000 1.0000000
vn 1.0000000 0.0000000 0.0000000
v 0.4157458 -1.0300000 0.1722075
vt 0.0625000 1.0000000
vn 0.9238795 0.0000000 0.3826834
v 0.3181981 -1.0300000 0.3181981
vt 0.1250000 1.0000000
vn 0.7071068 0.0000000 0.7071068
v 0.1722075 -1.0300000 0.4157458
vt 0.1875000 1.0000000
vn 0.3826834 0.0000000 0.9238795
v 0.0000000 -1.0300000 0.4500000
vt 0.2500000 1.0000000
vn 0.0000000 0.0000000 1.0000000
v -0.1722075 -1.0300000 0.4157458
vt 0.3125000 1.0000000
vn -0.3826834 0.0000000 0.9238795
v -0.3181981 -1.0300000 0.3181981
vt 0.3750000 1.0000000
vn -0.7071068 0.0000000 0.7071068
v -0.4157458 -1.0300000 0.1722075
vt 0.4375000 1.0000000
vn -0.9238795 0.0000000 0.3826834
v -0.4500000 -1.0300000 0.0000000
vt 0.5000000 1.0000000
vn -1.0000000 0.0000000 0.0000000
v -0.4157458 -1.0300000 -0.1722075
vt 0.5625000 1.0000000
vn -0.9238795 0.0000000 -0.3826834
v -0.3181981 -1.0300000 -0.3181981
vt 0.6250000 1.0000000
vn -0.7071068 0.0000000 -0.7071068
v -0.1722075 -1.0300000 -0.4157458
vt 0.6875000 1.0000000
vn -0.3826834 0.0000000 -0.9238795
v -0.0000000 -1.0300000 -0.4500000
vt 0.7500000 1.0000000
vn -0.0000000 0.0000000 -1.0000000
v 0.1722075 -1.0300000 -0.4157458
vt 0.8125000 1.0000000
vn 0.3826834 0.0000000 -0.9238795
v 0.3181981 -1.0300000 -0.3181981
vt 0.8750000 1.0000000
vn 0.7071068 0.0000000 -0.7071068
v 0.4157458 -1.0300000 -0.1722075
vt 0.9375000 1.0000000
vn 0.9238795 0.0000000 -0.3826834
v 0.4500000 -1.0300000 -0.0000000
vt 1.0000000 1.0000000
vn 1.0000000 0.0000000 -0.0000000
f 1/1/1 2/2/2 18/18/18
f 2/2/2 19/19/19 18/18/18
f 2/2/2 3/3/3 19/19/19
f 3/3/3 20/20/20 19/19/19
f 3/3/3 4/4/4 20/20/20
f 4/4/4 21/21/21 20/20/20
f 4/4/4 5/5/5 21/21/21
f 5/5/5 22/22/22 21/21/21
f 5/5/5 6/6/6 22/22/22
f 6/6/6 23/23/23 22/22/22
f 6/6/6 7/7/7 23/23/23
f 7/7/7 24/24/24 23/23/23
f 7/7/7 8/8/8 24/24/24
f 8/8/8 25/25/25 24/24/24
f 8/8/8 9/9/9 25/25/25
f 9/9/9 26/26/26 25/25/25
f 9/9/9 10/10/10 26/26/26
f 10/10/10 27/27/27 26/26/26
f 10/10/10 11/11/11 27/27/27
f 11/11/11 28/28/28 27/27/27
f 11/11/11 12/12/12 28/28/28
f 12/12/12 29/29/29 28/28/28
f 12/12/12 13/13/13 29/29/29
f 13/13/13 30/30/30 29/29/29
f 13/13/13 14/14/14 30/30/30
f 14/14/14 31/31/31 30/30/30
f 14/14/14 15/15/15 31/31/31
f 15/15/15 32/32/32 31/31/31
f 15/15/15 16/16/16 32/32/32
f 16/16/16 33/33/33 32/32/32
f 16/16/16 17/17/17 33/33/33
f 17/17/17 34/34/34 33/33/33
f 18/18/18 19/19/19 35/35/35
f 19/19/19 36/36/36 35/35/35
f 19/19/19 20/20/20 36/36/36
f 20/20/20 37/37/37 36/36/36
f 20/20/20 21/21/21 37/37/37
f 21/21/21 38/38/38 37/37/37
f 21/21/21 22/22/22 38/38/38
f 22/22/22 39/39/39 38/38/38
f 22/22/22 23/23/23 39/39/39
f 23/23/23 40/40/40 39/39/39
f 23/23/23 24/24/24 40/40/40
f 24/24/24 41/41/41 40/40/40
f 24/24/24 25/25/25 41/41/41
f 25/25/25 42/42/42 41/41/41
f 25/25/25 26/26/26 42/42/42
f 26/26/26 43/43/43 42/42/42
f 26/26/26 27/27/27 43/43/43
f 27/27/27 44/44/44 43/43/43
f 27/27/27 28/28/28 44/44/44
f 28/28/28 45/45/45 44/44/44
f 28/28/28 29/29/29 45/45/45
f 29/29/29 46/46/46 45/45/45
f 29/29/29 30/30/30 46/46/46
f 30/30/30 47/47/47 46/46/46
f 30/30/30 31/31/31 47/47/47
f 31/31/31 48/48/48 47/47/47
f 31/31/31 32/32/32 48/48/48
f 32/32/32 49/49/49 48/48/48
f 32/32/32 33/33/33 49/49/49
f 33/33/33 50/50/50 49/49/49
f 33/33/33 34/34/34 50/50/50
f 34/34/34 51/51/51 50/50/50
f 35/35/35 36/36/36 52/52/52
f 36/36/36 53/53/53 52/52/52
f 36/36/36 37/37/37 53/53/53
f 37/37/37 54/54/54 53/53/53
f 37/37/37 38/38/38 54/54/54
f 38/38/38 55/55/55 54/54/54
f 38/38/38 39/39/39 55/55/55
f 39/39/39 56/56/56 55/55/55
f 39/39/39 40/40/40 56/56/56
f 40/40/40 57/57/57 56/56/56
f 40/40/40 41/41/41 57/57/57
f 41/41/41 58/58/58 57/57/57
f 41/41/41 42/42/42 58/58/58
f 42/42/42 59/59/59 58/58/58
f 42/42/42 43/43/43 59/59/59
f 43/43/43 60/60/60 59/59/59
f 43/43/43 44/44/44 60/60/60
f 44/44/44 61/61/61 60/60/60
f 44/44/44 45/45/45 61/61/61
f 45/45/45 62/62/62 61/61/61
f 45/45/45 46/46/46 62/62/62
f 46/46/46 63/63/63 62/62/62
f 46/46/46 47/47/47 63/63/63
f 47/47/47 64/64/64 63/63/63
f 47/47/47 48/48/48 64/64/64
f 48/48/48 65/65/65 64/64/64
f 48/48/48 49/49/49 65/65/65
f 49/49/49 66/66/66 65/65/65
f 49/49/49 50/50/50 66/66/66
f 50/50/50 67/67/67 66/66/66
f 50/50/50 51/51/51 67/67/67
f 51/51/51 68/68/68 67/67/67
f 52/52/52 53/53/53 69/69/69
f 53/53/53 70/70/70 69/69/69
f 53/53/53 54/54/54 70/70/70
f 54/54/54 71/71/71 70/70/70
f 54/54/54 55/55/55 71/71/71
f 55/55/55 72/72/72 71/71/71
f 55/55/55 56/56/56 72/72/72
f 56/56/56 73/73/73 72/72/72
f 56/56/56 57/57/57 73/73/73
f 57/57/57 74/74/74 73/73/73
f 57/57/57 58/58/58 74/74/74
f 58/58/58 75/75/75 74/74/74
f 58/58/58 59/59/59 75/75/75
f 59/59/59 76/76/76 75/75/75
f 59/59/59 60/60/60 76/76/76
f 60/60/60 77/77/77 76/76/76
f 60/60/60 61/61/61 77/77/77
f 61/61/61 78/78/78 77/77/77
f 61/61/61 62/62/62 78/78/78
f 62/62/62 79/79/79 78/78/78
f 62/62/62 63/63/63 79/79/79
f 63/63/63 80/80/80 79/79/79
f 63/63/63 64/64/64 80/80/80
f 64/64/64 81/81/81 80/80/80
f 64/64/64 65/65/65 81/81/81
f 65/65/65 82/82/82 81/81/81
f 65/65/65 66/66/66 82/82/82
f 66/66/66 83/83/83 82/82/82
f 66/66/66 67/67/67 83/83/83
f 67/67/67 84/84/84 83/83/83
f 67/67/67 68/68/68 84/84/84
f 68/68/68 85/85/85 84/84/84
f 69/69/69 70/70/70 86/86/86
f 70/70/70 87/87/87 86/86/86
f 70/70/70 71/71/71 87/87/87
f 71/71/71 88/88/88 87/87/87
f 71/71/71 72/72/72 88/88/88
f 72/72/72 89/89/89 88/88/88
f 72/72/72 73/73/73 89/89/89
f 73/73/73 90/90/90 89/89/89
f 73/73/73 74/74/74 90/90/90
f 74/74/74 91/91/91 90/90/90
f 74/74/74 75/75/75 91/91/91
f 75/75/75 92/92/92 91/91/91
f 75/75/75 76/76/76 92/92/92
f 76/76/76 93/93/93 92/92/92
f 76/76/76 77/77/77 93/93/93
f 77/77/77 94/94/94 93/93/93
f 77/77/77 78/78/78 94/94/94
f 78/78/78 95/95/95 94/94/94
f 78/78/78 79/79/79 95/95/95
f 79/79/79 96/96/96 95/95/95
f 79/79/79 80/80/80 96/96/96
f 80/80/80 97/97/97 96/96/96
f 80/80/80 81/81/81 97/97/97
f 81/81/81 98/98/98 97/97/97
f 81/81/81 82/82/82 98/98/98
f 82/82/82 99/99/99 98/98/98
f 82/82/82 83/83/83 99/99/99
f 83/83/83 100/100/100 99/99/99
f 83/83/83 84/84/84 100/100/100
f 84/84/84 101/101/101 100/100/100
f 84/84/84 85/85/85 101/101/101
f 85/85/85 102/102/102 101/101/101
f 86/86/86 87/87/87 103/103/103
f 87/87/87 104/104/104 103/103/103
f 87/87/87 88/88/88 104/104/104
f 88/88/88 105/105/105 104/104/104
f 88/88/88 89/89/89 105/105/105
f 89/89/89 106/106/106 105/105/105
f 89/89/89 90/90/90 106/106/106
f 90/90/90 107/107/107 106/106/106
f 90/90/90 91/91/91 107/107/107
f 91/91/91 108/108/108 107/107/107
f 91/91/91 92/92/92 108/108/108
f 92/92/92 109/109/109 108/108/108
f 92/92/92 93/93/93 109/109/109
f 93/93/93 110/110/110 109/109/109
f 93/93/93 94/94/94 110/110/110
f 94/94/94 111/111/111 110/110/110
f 94/94/94 95/95/95 111/111/111
f 95/95/95 112/112/112 111/111/111
f 95/95/95 96/96/96 112/112/112
f 96/96/96 113/113/113 112/112/112
f 96/96/96 97/97/97 113/113/113
f 97/97/97 114/114/114 113/113/113
f 97/97/97 98/98/98 114/114/114
f 98/98/98 115/115/115 114/114/114
f 98/98/98 99/99/99 115/115/115
f 99/99/99 116/116/116 115/115/115
f 99/99/99 100/100/100 116/116/116
f 100/100/100 117/117/117 116/116/116
f 100/100/100 101/101/101 117/117/117
f 101/101/101 118/118/118 117/117/117
f 101/101/101 102/102/102 118/118/118
f 102/102/102 119/119/119 118/118/118
f 103/103/103 104/104/104 120/120/120
f 104/104/104 121/121/121 120/120/120
f 104/104/104 105/105/105 121/121/121
f 105/105/105 122/122/122 121/121/121
f 105/105/105 106/106/106 122/122/122
f 106/106/106 123/123/123 122/122/122
f 106/106/106 107/107/107 123/123/123
f 107/107/107 124/124/124 123/123/123
f 107/107/107 108/108/108 124/124/124
f 108/108/108 125/125/125 124/124/124
f 108/108/108 109/109/109 125/125/125
f 109/109/109 126/126/126 125/125/125
f 109/109/109 110/110/110 126/126/126
f 110/110/110 127/127/127 126/126/126
f 110/110/110 111/111/111 127/127/127
f 111/111/111 128/128/128 127/127/127
f 111/111/111 112/112/112 128/128/128
f 112/112/112 129/129/129 128/128/128
f 112/112/112 113/113/113 129/129/129
f 113/113/113 130/130/130 129/129/129
f 113/113/113 114/114/114 130/130/130
f 114/114/114 131/131/131 130/130/130
f 114/114/114 115/115/115 131/131/131
f 115/115/115 132/132/132 131/131/131
f 115/115/115 116/116/116 132/132/132
f 116/116/116 133/133/133 132/132/132
f 116/116/116 117/117/117 133/133/133
f 117/117/117 134/134/134 133/133/133
f 117/117/117 118/118/118 134/134/134
f 118/118/118 135/135/135 134/134/134
f 118/118/118 119/119/119 135/135/135
f 119/119/119 136/136/136 135/135/135
f 120/120/120 121/121/121 137/137/137
f 121/121/121 138/138/138 137/137/137
f 121/121/121 122/122/122 138/138/138
f 122/122/122 139/139/139 138/138/138
f 122/122/122 123/123/123 139/139/139
f 123/123/123 140/140/140 139/139/139
f 123/123/123 124/124/124 140/140/140
f 124/124/124 141/141/141 140/140/140
f 124/124/124 125/125/125 141/141/141
f 125/125/125 142/142/142 141/141/141
f 125/125/125 126/126/126 142/142/142
f 126/126/126 143/143/143 142/142/142
f 126/126/126 127/127/127 143/143/143
f 127/127/127 144/144/144 143/143/143
f 127/127/127 128/128/128 144/144/144
f 128/128/128 145/145/145 144/144/144
f 128/128/128 129/129/129 145/145/145
f 129/129/129 146/146/146 145/145/145
f 129/129/129 130/130/130 146/146/146
f 130/130/130 147/147/147 146/146/146
f 130/130/130 131/131/131 147/147/147
f 131/131/131 148/148/148 147/147/147
f 131/131/131 132/132/132 148/148/148
f 132/132/132 149/149/149 148/148/148
f 132/132/132 133/133/133 149/149/149
f 133/133/133 150/150/150 149/149/149
f 133/133/133 134/134/134 150/150/150
f 134/134/134 151/151/151 150/150/150
f 134/134/134 135/135/135 151/151/151
f 135/135/135 152/152/152 151/151/151
f 135/135/135 136/136/136 152/152/152
f 136/136/136 153/153/153 152/152/152
f 137/137/137 138/138/138 154/154/154
f 138/138/138 155/155/155 154/154/154
f 138/138/138 139/139/139 155/155/155
f 139/139/139 156/156/156 155/155/155
f 139/139/139 140/140/140 156/156/156
f 140/140/140 157/157/157 156/156/156
f 140/140/140 141/141/141 157/157/157
f 141/141/141 158/158/158 157/157/157
f 141/141/141 142/142/142 158/158/158
f 142/142/142 159/159/159 158/158/158
f 142/142/142 143/143/143 159/159/159
f 143/143/143 160/160/160 159/159/159
f 143/143/143 144/144/144 160/160/160
f 144/144/144 161/161/161 160/160/160
f 144/144/144 145/145/145 161/161/161
f 145/145/145 162/162/162 161/161/161
f 145/145/145 146/146/146 162/162/162
f 146/146/146 163/163/163 162/162/162
f 146/146/146 147/147/147 163/163/163
f 147/147/147 164/164/164 163/163/163
f 147/147/147 148/148/148 164/164/164
f 148/148/148 165/165/165 164/164/164
f 148/148/148 149/149/149 165/165/165
f 149/149/149 166/166/166 165/165/165
f 149/149/149 150/150/150 166/166/166
f 150/150/150 167/167/167 166/166/166
f 150/150/150 151/151/151 167/167/167
f 151/151/151 168/168/168 167/167/167
f 151/151/151 152/152/152 168/168/168
f 152/152/152 169/169/169 168/168/168
f 152/152/152 153/153/153 169/169/169
f 153/153/153 170/170/170 169/169/169
f 154/154/154 155/155/155 171/171/171
f 155/155/155 172/172/172 171/171/171
f 155/155/155 156/156/156 172/172/172
f 156/156/156 173/173/173 172/172/172
f 156/156/156 157/157/157 173/173/173
f 157/157/157 174/174/174 173/173/173
f 157/157/157 158/158/158 174/174/174
f 158/158/158 175/175/175 174/174/174
f 158/158/158 159/159/159 175/175/175
f 159/159/159 176/176/176 175/175/175
f 159/159/159 160/160/160 176/176/176
f 160/160/160 177/177/177 176/176/176
f 160/160/160 161/161/161 177/177/177
f 161/161/161 178/178/178 177/177/177
f 161/161/161 162/162/162 178/178/178
f 162/162/162 179/179/179 178/178/178
f 162/162/162 163/163/163 179/179/179
f 163/163/163 180/180/180 179/179/179
f 163/163/163 164/164/164 180/180/180
f 164/164/164 181/181/181 180/180/180
f 164/164/164 165/165/165 181/181/181
f 165/165/165 182/182/182 181/181/181
f 165/165/165 166/166/166 182/182/182
f 166/166/166 183/183/183 182/182/182
f 166/166/166 167/167/167 183/183/183
f 167/167/167 184/184/184 183/183/183
f 167/167/167 168/168/168 184/184/184
f 168/168/168 185/185/185 184/184/184
f 168/168/168 169/169/169 185/185/185
f 169/169/169 186/186/186 185/185/185
f 169/169/169 170/170/170 186/186/186
f 170/170/170 187/187/187 186/186/186
f 171/171/171 172/172/172 188/188/188
f 172/172/172 189/189/189 188/188/188
f 172/172/172 173/173/173 189/189/189
f 173/173/173 190/190/190 189/189/189
f 173/173/173 174/174/174 190/190/190
f 174/174/174 191/191/191 190/190/190
f 174/174/174 175/175/175 191/191/191
f 175/175/175 192/192/192 191/191/191
f 175/175/175 176/176/176 192/192/192
f 176/176/176 193/193/193 192/192/192
f 176/176/176 177/177/177 193/193/193
f 177/177/177 194/194/194 193/193/193
f 177/177/177 178/178/178 194/194/194
f 178/178/178 195/195/195 194/194/194
f 178/178/178 179/179/179 195/195/195
f 179/179/179 196/196/196 195/195/195
f 179/179/179 180/180/180 196/196/196
f 180/180/180 197/197/197 196/196/196
f 180/180/180 181/181/181 197/197/197
f 181/181/181 198/198/198 197/197/197
f 181/181/181 182/182/182 198/198/198
f 182/182/182 199/199/199 198/198/198
f 182/182/182 183/183/183 199/199/199
f 183/183/183 200/200/200 199/199/199
f 183/183/183 184/184/184 200/200/200
f 184/184/184 201/201/201 200/200/200
f 184/184/184 185/185/185 201/201/201
f 185/185/185 202/202/202 201/201/201
f 185/185/185 186/186/186 202/202/202
f 186/186/186 203/203/203 202/202/202
f 186/186/186 187/187/187 203/203/203
f 187/187/187 204/204/204 203/203/203
f 188/188/188 189/189/189 205/205/205
f 189/189/189 206/206/206 205/205/205
f 189/189/189 190/190/190 206/206/206
f 190/190/190 207/207/207 206/206/206
f 190/190/190 191/191/191 207/207/207
f 191/191/191 208/208/208 207/207/207
f 191/191/191 192/192/192 208/208/208
f 192/192/192 209/209/209 208/208/208
f 192/192/192 193/193/193 209/209/209
f 193/193/193 210/210/210 209/209/209
f 193/193/193 194/194/194 210/210/210
f 194/194/194 211/211/211 210/210/210
f 194/194/194 195/195/195 211/211/211
f 195/195/195 212/212/212 211/211/211
f 195/195/195 196/196/196 212/212/212
f 196/196/196 213/213/213 212/212/212
f 196/196/196 197/197/197 213/213/213
f 197/197/197 214/214/214 213/213/213
f 197/197/197 198/198/198 214/214/214
f 198/198/198 215/215/215 214/214/214
f 198/198/198 199/199/199 215/215/215
f 199/199/199 216/216/216 215/215/215
f 199/199/199 200/200/200 216/216/216
f 200/200/200 217/217/217 216/216/216
f 200/200/200 201/201/201 217/217/217
f 201/201/201 218/218/218 217/217/217
f 201/201/201 202/202/202 218/218/218
f 202/202/202 219/219/219 218/218/218
f 202/202/202 203/203/203 219/219/219
f 203/203/203 220/220/220 219/219/219
f 203/203/203 204/204/204 220/220/220
f 204/204/204 221/221/221 220/220/220
# Closed end caps with separate flat normals.
v 0.0000000 0.0300000 0.0000000
vt 0.5000000 0.5000000
vn 0.0000000 1.0000000 0.0000000
v 0.4500000 0.0300000 0.0000000
vt 1.0000000 0.5000000
vn 0.0000000 1.0000000 0.0000000
v 0.4157458 0.0300000 0.1722075
vt 0.9619398 0.6913417
vn 0.0000000 1.0000000 0.0000000
v 0.3181981 0.0300000 0.3181981
vt 0.8535534 0.8535534
vn 0.0000000 1.0000000 0.0000000
v 0.1722075 0.0300000 0.4157458
vt 0.6913417 0.9619398
vn 0.0000000 1.0000000 0.0000000
v 0.0000000 0.0300000 0.4500000
vt 0.5000000 1.0000000
vn 0.0000000 1.0000000 0.0000000
v -0.1722075 0.0300000 0.4157458
vt 0.3086583 0.9619398
vn 0.0000000 1.0000000 0.0000000
v -0.3181981 0.0300000 0.3181981
vt 0.1464466 0.8535534
vn 0.0000000 1.0000000 0.0000000
v -0.4157458 0.0300000 0.1722075
vt 0.0380602 0.6913417
vn 0.0000000 1.0000000 0.0000000
v -0.4500000 0.0300000 0.0000000
vt 0.0000000 0.5000000
vn 0.0000000 1.0000000 0.0000000
v -0.4157458 0.0300000 -0.1722075
vt 0.0380602 0.3086583
vn 0.0000000 1.0000000 0.0000000
v -0.3181981 0.0300000 -0.3181981
vt 0.1464466 0.1464466
vn 0.0000000 1.0000000 0.0000000
v -0.1722075 0.0300000 -0.4157458
vt 0.3086583 0.0380602
vn 0.0000000 1.0000000 0.0000000
v -0.0000000 0.0300000 -0.4500000
vt 0.5000000 0.0000000
vn 0.0000000 1.0000000 0.0000000
v 0.1722075 0.0300000 -0.4157458
vt 0.6913417 0.0380602
vn 0.0000000 1.0000000 0.0000000
v 0.3181981 0.0300000 -0.3181981
vt 0.8535534 0.1464466
vn 0.0000000 1.0000000 0.0000000
v 0.4157458 0.0300000 -0.1722075
vt 0.9619398 0.3086583
vn 0.0000000 1.0000000 0.0000000
f 222/222/222 224/224/224 223/223/223
f 222/222/222 225/225/225 224/224/224
f 222/222/222 226/226/226 225/225/225
f 222/222/222 227/227/227 226/226/226
f 222/222/222 228/228/228 227/227/227
f 222/222/222 229/229/229 228/228/228
f 222/222/222 230/230/230 229/229/229
f 222/222/222 231/231/231 230/230/230
f 222/222/222 232/232/232 231/231/231
f 222/222/222 233/233/233 232/232/232
f 222/222/222 234/234/234 233/233/233
f 222/222/222 235/235/235 234/234/234
f 222/222/222 236/236/236 235/235/235
f 222/222/222 237/237/237 236/236/236
f 222/222/222 238/238/238 237/237/237
f 222/222/222 223/223/223 238/238/238
v 0.0000000 -1.0300000 0.0000000
vt 0.5000000 0.5000000
vn 0.0000000 -1.0000000 0.0000000
v 0.4500000 -1.0300000 0.0000000
vt 1.0000000 0.5000000
vn 0.0000000 -1.0000000 0.0000000
v 0.4157458 -1.0300000 0.1722075
vt 0.9619398 0.6913417
vn 0.0000000 -1.0000000 0.0000000
v 0.3181981 -1.0300000 0.3181981
vt 0.8535534 0.8535534
vn 0.0000000 -1.0000000 0.0000000
v 0.1722075 -1.0300000 0.4157458
vt 0.6913417 0.9619398
vn 0.0000000 -1.0000000 0.0000000
v 0.0000000 -1.0300000 0.4500000
vt 0.5000000 1.0000000
vn 0.0000000 -1.0000000 0.0000000
v -0.1722075 -1.0300000 0.4157458
vt 0.3086583 0.9619398
vn 0.0000000 -1.0000000 0.0000000
v -0.3181981 -1.0300000 0.3181981
vt 0.1464466 0.8535534
vn 0.0000000 -1.0000000 0.0000000
v -0.4157458 -1.0300000 0.1722075
vt 0.0380602 0.6913417
vn 0.0000000 -1.0000000 0.0000000
v -0.4500000 -1.0300000 0.0000000
vt 0.0000000 0.5000000
vn 0.0000000 -1.0000000 0.0000000
v -0.4157458 -1.0300000 -0.1722075
vt 0.0380602 0.3086583
vn 0.0000000 -1.0000000 0.0000000
v -0.3181981 -1.0300000 -0.3181981
vt 0.1464466 0.1464466
vn 0.0000000 -1.0000000 0.0000000
v -0.1722075 -1.0300000 -0.4157458
vt 0.3086583 0.0380602
vn 0.0000000 -1.0000000 0.0000000
v -0.0000000 -1.0300000 -0.4500000
vt 0.5000000 0.0000000
vn 0.0000000 -1.0000000 0.0000000
v 0.1722075 -1.0300000 -0.4157458
vt 0.6913417 0.0380602
vn 0.0000000 -1.0000000 0.0000000
v 0.3181981 -1.0300000 -0.3181981
vt 0.8535534 0.1464466
vn 0.0000000 -1.0000000 0.0000000
v 0.4157458 -1.0300000 -0.1722075
vt 0.9619398 0.3086583
vn 0.0000000 -1.0000000 0.0000000
f 239/239/239 240/240/240 241/241/241
f 239/239/239 241/241/241 242/242/242
f 239/239/239 242/242/242 243/243/243
f 239/239/239 243/243/243 244/244/244
f 239/239/239 244/244/244 245/245/245
f 239/239/239 245/245/245 246/246/246
f 239/239/239 246/246/246 247/247/247
f 239/239/239 247/247/247 248/248/248
f 239/239/239 248/248/248 249/249/249
f 239/239/239 249/249/249 250/250/250
f 239/239/239 250/250/250 251/251/251
f 239/239/239 251/251/251 252/252/252
f 239/239/239 252/252/252 253/253/253
f 239/239/239 253/253/253 254/254/254
f 239/239/239 254/254/254 255/255/255
f 239/239/239 255/255/255 240/240/240
