# KohakuEngine ice jellyfish. Y up; tentacle pivot at root, length along -Y.
mtllib IceJellyfish.mtl
o IceJellyfishCore
usemtl JellyfishCore
s off
v 0.0000000 0.0000000 -3.5999999
vt 0.5000000 0.4181818
vn 0.1037566 -0.2737057 -0.9562008
v 1.5311617 -1.2978479 -3.0623550
vt 0.5347991 0.4304010
vn 0.1037566 -0.2737057 -0.9562008
v -0.5848400 -2.0999801 -3.0623560
vt 0.4867082 0.4304010
vn 0.1037566 -0.2737057 -0.9562008
f 1/1/1 2/2/2 3/3/3
v 2.6049862 -2.2080462 -1.6099902
vt 0.5592042 0.4634093
vn 0.7069941 -0.2319628 -0.6680964
v 1.5311617 -1.2978479 -3.0623550
vt 0.5347991 0.4304010
vn 0.7069941 -0.2319628 -0.6680964
v 3.0623324 0.0000000 -1.8926493
vt 0.5695985 0.4569852
vn 0.7069941 -0.2319628 -0.6680964
f 4/4/4 5/5/5 6/6/6
v 0.0000000 0.0000000 -3.5999999
vt 0.5000000 0.4181818
vn -0.2693928 -0.1677630 -0.9483054
v -0.5848400 -2.0999801 -3.0623560
vt 0.4867082 0.4304010
vn -0.2693928 -0.1677630 -0.9483054
v -1.8926272 0.0000000 -3.0623460
vt 0.4569857 0.4304012
vn -0.2693928 -0.1677630 -0.9483054
f 7/7/7 8/8/8 9/9/9
v 0.0000000 0.0000000 -3.5999999
vt 0.5000000 0.4181818
vn -0.2693928 0.1677630 -0.9483054
v -1.8926272 0.0000000 -3.0623460
vt 0.4569857 0.4304012
vn -0.2693928 0.1677630 -0.9483054
v -0.5848400 2.0999801 -3.0623560
vt 0.4867082 0.4304010
vn -0.2693928 0.1677630 -0.9483054
f 10/10/10 11/11/11 12/12/12
v 0.0000000 0.0000000 -3.5999999
vt 0.5000000 0.4181818
vn 0.1037566 0.2737057 -0.9562008
v -0.5848400 2.0999801 -3.0623560
vt 0.4867082 0.4304010
vn 0.1037566 0.2737057 -0.9562008
v 1.5311617 1.2978479 -3.0623550
vt 0.5347991 0.4304010
vn 0.1037566 0.2737057 -0.9562008
f 13/13/13 14/14/14 15/15/15
v 2.6049862 -2.2080462 -1.6099902
vt 0.5592042 0.4634093
vn 0.9137387 -0.2319625 -0.3335789
v 3.0623324 0.0000000 -1.8926493
vt 0.5695985 0.4569852
vn 0.9137387 -0.2319625 -0.3335789
v 3.4238083 -1.2978530 0.0000000
vt 0.5778138 0.5000000
vn 0.9137387 -0.2319625 -0.3335789
f 16/16/16 17/17/17 18/18/18
v -0.9949968 -3.5727267 -1.6099914
vt 0.4773864 0.4634093
vn 0.0283153 -0.9253598 -0.3780311
v 0.9463277 -3.3978488 -1.8926555
vt 0.5215074 0.4569851
vn 0.0283153 -0.9253598 -0.3780311
v 0.0000000 -4.1999998 0.0000000
vt 0.5000000 0.5000000
vn 0.0283153 -0.9253598 -0.3780311
f 19/19/19 20/20/20 21/21/21
v -3.2199345 0.0000000 -1.6099762
vt 0.4268197 0.4634096
vn -0.9016516 -0.2737100 -0.3348239
v -2.4774818 -2.0999870 -1.8926504
vt 0.4436936 0.4569852
vn -0.9016516 -0.2737100 -0.3348239
v -3.4238083 -1.2978530 0.0000000
vt 0.4221862 0.5000000
vn -0.9016516 -0.2737100 -0.3348239
f 22/22/22 23/23/23 24/24/24
v -0.9949968 3.5727267 -1.6099914
vt 0.4773864 0.4634093
vn -0.6227858 0.6956346 -0.3580926
v -2.4774818 2.0999870 -1.8926504
vt 0.4436936 0.4569852
vn -0.6227858 0.6956346 -0.3580926
v -2.1160281 3.3978701 0.0000000
vt 0.4519085 0.5000000
vn -0.6227858 0.6956346 -0.3580926
f 25/25/25 26/26/26 27/27/27
v 2.6049862 2.2080462 -1.6099902
vt 0.5592042 0.4634093
vn 0.5834542 0.7277036 -0.3605950
v 0.9463277 3.3978488 -1.8926555
vt 0.5215074 0.4569851
vn 0.5834542 0.7277036 -0.3605950
v 2.1160281 3.3978701 0.0000000
vt 0.5480915 0.5000000
vn 0.5834542 0.7277036 -0.3605950
f 28/28/28 29/29/29 30/30/30
v 2.6049862 -2.2080462 -1.6099902
vt 0.5592042 0.4634093
vn 0.8414617 -0.5240182 -0.1317087
v 3.4238083 -1.2978530 0.0000000
vt 0.5778138 0.5000000
vn 0.8414617 -0.5240182 -0.1317087
v 2.1160281 -3.3978701 0.0000000
vt 0.5480915 0.5000000
vn 0.8414617 -0.5240182 -0.1317087
f 31/31/31 32/32/32 33/33/33
v -0.9949968 -3.5727267 -1.6099914
vt 0.4773864 0.4634093
vn -0.3507793 -0.9253600 -0.1437456
v 0.0000000 -4.1999998 0.0000000
vt 0.5000000 0.5000000
vn -0.3507793 -0.9253600 -0.1437456
v -2.1160281 -3.3978701 0.0000000
vt 0.4519085 0.5000000
vn -0.3507793 -0.9253600 -0.1437456
f 34/34/34 35/35/35 36/36/36
v -3.2199345 0.0000000 -1.6099762
vt 0.4268197 0.4634096
vn -0.9920774 0.0000000 -0.1256284
v -3.4238083 -1.2978530 0.0000000
vt 0.4221862 0.5000000
vn -0.9920774 0.0000000 -0.1256284
v -3.4238083 1.2978530 0.0000000
vt 0.4221862 0.5000000
vn -0.9920774 0.0000000 -0.1256284
f 37/37/37 38/38/38 39/39/39
v -0.9949968 3.5727267 -1.6099914
vt 0.4773864 0.4634093
vn -0.3507793 0.9253600 -0.1437456
v -2.1160281 3.3978701 0.0000000
vt 0.4519085 0.5000000
vn -0.3507793 0.9253600 -0.1437456
v 0.0000000 4.1999998 0.0000000
vt 0.5000000 0.5000000
vn -0.3507793 0.9253600 -0.1437456
f 40/40/40 41/41/41 42/42/42
v 2.6049862 2.2080462 -1.6099902
vt 0.5592042 0.4634093
vn 0.8414617 0.5240182 -0.1317087
v 2.1160281 3.3978701 0.0000000
vt 0.5480915 0.5000000
vn 0.8414617 0.5240182 -0.1317087
v 3.4238083 1.2978530 0.0000000
vt 0.5778138 0.5000000
vn 0.8414617 0.5240182 -0.1317087
f 43/43/43 44/44/44 45/45/45
v 0.9949968 -3.5727267 1.6099914
vt 0.5226136 0.5365907
vn 0.4322150 -0.5692992 0.6993488
v 2.4774818 -2.0999870 1.8926504
vt 0.5563064 0.5430148
vn 0.4322150 -0.5692992 0.6993488
v 0.5848400 -2.0999801 3.0623558
vt 0.5132918 0.5695990
vn 0.4322150 -0.5692992 0.6993488
f 46/46/46 47/47/47 48/48/48
v -2.6049862 -2.2080462 1.6099902
vt 0.4407958 0.5365907
vn -0.4941141 -0.5240140 0.6937296
v -0.9463277 -3.3978488 1.8926555
vt 0.4784926 0.5430149
vn -0.4941141 -0.5240140 0.6937296
v -1.5311617 -1.2978479 3.0623550
vt 0.4652009 0.5695990
vn -0.4941141 -0.5240140 0.6937296
f 49/49/49 50/50/50 51/51/51
v -2.6049862 2.2080462 1.6099902
vt 0.4407958 0.5365907
vn -0.7069941 0.2319628 0.6680964
v -3.0623324 0.0000000 1.8926493
vt 0.4304015 0.5430148
vn -0.7069941 0.2319628 0.6680964
v -1.5311617 1.2978479 3.0623550
vt 0.4652009 0.5695990
vn -0.7069941 0.2319628 0.6680964
f 52/52/52 53/53/53 54/54/54
v 0.9949968 3.5727267 1.6099914
vt 0.5226136 0.5365907
vn 0.0417614 0.6956297 0.7171857
v -0.9463277 3.3978488 1.8926555
vt 0.4784926 0.5430149
vn 0.0417614 0.6956297 0.7171857
v 0.5848400 2.0999801 3.0623558
vt 0.5132918 0.5695990
vn 0.0417614 0.6956297 0.7171857
f 55/55/55 56/56/56 57/57/57
v 3.2199345 0.0000000 1.6099762
vt 0.5731803 0.5365904
vn 0.7277122 0.1677627 0.6650494
v 2.4774818 2.0999870 1.8926504
vt 0.5563064 0.5430148
vn 0.7277122 0.1677627 0.6650494
v 1.8926272 0.0000000 3.0623460
vt 0.5430143 0.5695988
vn 0.7277122 0.1677627 0.6650494
f 58/58/58 59/59/59 60/60/60
v 1.8926272 0.0000000 3.0623460
vt 0.5430143 0.5695988
vn 0.2693928 0.1677631 0.9483054
v 0.5848400 2.0999801 3.0623558
vt 0.5132918 0.5695990
vn 0.2693928 0.1677631 0.9483054
v 0.0000000 0.0000000 3.5999999
vt 0.5000000 0.5818182
vn 0.2693928 0.1677631 0.9483054
f 61/61/61 62/62/62 63/63/63
v 1.8926272 0.0000000 3.0623460
vt 0.5430143 0.5695988
vn 0.4996304 0.3111469 0.8084288
v 2.4774818 2.0999870 1.8926504
vt 0.5563064 0.5430148
vn 0.4996304 0.3111469 0.8084288
v 0.5848400 2.0999801 3.0623558
vt 0.5132918 0.5695990
vn 0.4996304 0.3111469 0.8084288
f 64/64/64 65/65/65 66/66/66
v 2.4774818 2.0999870 1.8926504
vt 0.5563064 0.5430148
vn 0.4322150 0.5692992 0.6993488
v 0.9949968 3.5727267 1.6099914
vt 0.5226136 0.5365907
vn 0.4322150 0.5692992 0.6993488
v 0.5848400 2.0999801 3.0623558
vt 0.5132918 0.5695990
vn 0.4322150 0.5692992 0.6993488
f 67/67/67 68/68/68 69/69/69
v 0.5848400 2.0999801 3.0623558
vt 0.5132918 0.5695990
vn -0.1037565 0.2737058 0.9562007
v -1.5311617 1.2978479 3.0623550
vt 0.4652009 0.5695990
vn -0.1037565 0.2737058 0.9562007
v 0.0000000 0.0000000 3.5999999
vt 0.5000000 0.5818182
vn -0.1037565 0.2737058 0.9562007
f 70/70/70 71/71/71 72/72/72
v 0.5848400 2.0999801 3.0623558
vt 0.5132918 0.5695990
vn -0.1964832 0.5183163 0.8323116
v -0.9463277 3.3978488 1.8926555
vt 0.4784926 0.5430149
vn -0.1964832 0.5183163 0.8323116
v -1.5311617 1.2978479 3.0623550
vt 0.4652009 0.5695990
vn -0.1964832 0.5183163 0.8323116
f 73/73/73 74/74/74 75/75/75
v -0.9463277 3.3978488 1.8926555
vt 0.4784926 0.5430149
vn -0.4941141 0.5240140 0.6937296
v -2.6049862 2.2080462 1.6099902
vt 0.4407958 0.5365907
vn -0.4941141 0.5240140 0.6937296
v -1.5311617 1.2978479 3.0623550
vt 0.4652009 0.5695990
vn -0.4941141 0.5240140 0.6937296
f 76/76/76 77/77/77 78/78/78
v -1.5311617 1.2978479 3.0623550
vt 0.4652009 0.5695990
vn -0.3313045 0.0000000 0.9435239
v -1.5311617 -1.2978479 3.0623550
vt 0.4652009 0.5695990
vn -0.3313045 0.0000000 0.9435239
v 0.0000000 0.0000000 3.5999999
vt 0.5000000 0.5818182
vn -0.3313045 0.0000000 0.9435239
f 79/79/79 80/80/80 81/81/81
v -1.5311617 1.2978479 3.0623550
vt 0.4652009 0.5695990
vn -0.6070606 0.0000000 0.7946556
v -3.0623324 0.0000000 1.8926493
vt 0.4304015 0.5430148
vn -0.6070606 0.0000000 0.7946556
v -1.5311617 -1.2978479 3.0623550
vt 0.4652009 0.5695990
vn -0.6070606 0.0000000 0.7946556
f 82/82/82 83/83/83 84/84/84
v -3.0623324 0.0000000 1.8926493
vt 0.4304015 0.5430148
vn -0.7069941 -0.2319628 0.6680964
v -2.6049862 -2.2080462 1.6099902
vt 0.4407958 0.5365907
vn -0.7069941 -0.2319628 0.6680964
v -1.5311617 -1.2978479 3.0623550
vt 0.4652009 0.5695990
vn -0.7069941 -0.2319628 0.6680964
f 85/85/85 86/86/86 87/87/87
v -1.5311617 -1.2978479 3.0623550
vt 0.4652009 0.5695990
vn -0.1037565 -0.2737058 0.9562007
v 0.5848400 -2.0999801 3.0623558
vt 0.5132918 0.5695990
vn -0.1037565 -0.2737058 0.9562007
v 0.0000000 0.0000000 3.5999999
vt 0.5000000 0.5818182
vn -0.1037565 -0.2737058 0.9562007
f 88/88/88 89/89/89 90/90/90
v -1.5311617 -1.2978479 3.0623550
vt 0.4652009 0.5695990
vn -0.1964832 -0.5183163 0.8323116
v -0.9463277 -3.3978488 1.8926555
vt 0.4784926 0.5430149
vn -0.1964832 -0.5183163 0.8323116
v 0.5848400 -2.0999801 3.0623558
vt 0.5132918 0.5695990
vn -0.1964832 -0.5183163 0.8323116
f 91/91/91 92/92/92 93/93/93
v -0.9463277 -3.3978488 1.8926555
vt 0.4784926 0.5430149
vn 0.0417614 -0.6956297 0.7171857
v 0.9949968 -3.5727267 1.6099914
vt 0.5226136 0.5365907
vn 0.0417614 -0.6956297 0.7171857
v 0.5848400 -2.0999801 3.0623558
vt 0.5132918 0.5695990
vn 0.0417614 -0.6956297 0.7171857
f 94/94/94 95/95/95 96/96/96
v 0.5848400 -2.0999801 3.0623558
vt 0.5132918 0.5695990
vn 0.2693928 -0.1677631 0.9483054
v 1.8926272 0.0000000 3.0623460
vt 0.5430143 0.5695988
vn 0.2693928 -0.1677631 0.9483054
v 0.0000000 0.0000000 3.5999999
vt 0.5000000 0.5818182
vn 0.2693928 -0.1677631 0.9483054
f 97/97/97 98/98/98 99/99/99
v 0.5848400 -2.0999801 3.0623558
vt 0.5132918 0.5695990
vn 0.4996304 -0.3111469 0.8084288
v 2.4774818 -2.0999870 1.8926504
vt 0.5563064 0.5430148
vn 0.4996304 -0.3111469 0.8084288
v 1.8926272 0.0000000 3.0623460
vt 0.5430143 0.5695988
vn 0.4996304 -0.3111469 0.8084288
f 100/100/100 101/101/101 102/102/102
v 2.4774818 -2.0999870 1.8926504
vt 0.5563064 0.5430148
vn 0.7277122 -0.1677627 0.6650494
v 3.2199345 0.0000000 1.6099762
vt 0.5731803 0.5365904
vn 0.7277122 -0.1677627 0.6650494
v 1.8926272 0.0000000 3.0623460
vt 0.5430143 0.5695988
vn 0.7277122 -0.1677627 0.6650494
f 103/103/103 104/104/104 105/105/105
v 3.4238083 1.2978530 0.0000000
vt 0.5778138 0.5000000
vn 0.9016516 0.2737100 0.3348239
v 2.4774818 2.0999870 1.8926504
vt 0.5563064 0.5430148
vn 0.9016516 0.2737100 0.3348239
v 3.2199345 0.0000000 1.6099762
vt 0.5731803 0.5365904
vn 0.9016516 0.2737100 0.3348239
f 106/106/106 107/107/107 108/108/108
v 3.4238083 1.2978530 0.0000000
vt 0.5778138 0.5000000
vn 0.8323098 0.5183188 0.1964841
v 2.1160281 3.3978701 0.0000000
vt 0.5480915 0.5000000
vn 0.8323098 0.5183188 0.1964841
v 2.4774818 2.0999870 1.8926504
vt 0.5563064 0.5430148
vn 0.8323098 0.5183188 0.1964841
f 109/109/109 110/110/110 111/111/111
v 2.1160281 3.3978701 0.0000000
vt 0.5480915 0.5000000
vn 0.6227859 0.6956346 0.3580926
v 0.9949968 3.5727267 1.6099914
vt 0.5226136 0.5365907
vn 0.6227859 0.6956346 0.3580926
v 2.4774818 2.0999870 1.8926504
vt 0.5563064 0.5430148
vn 0.6227859 0.6956346 0.3580926
f 112/112/112 113/113/113 114/114/114
v 0.0000000 4.1999998 0.0000000
vt 0.5000000 0.5000000
vn -0.0283153 0.9253598 0.3780311
v -0.9463277 3.3978488 1.8926555
vt 0.4784926 0.5430149
vn -0.0283153 0.9253598 0.3780311
v 0.9949968 3.5727267 1.6099914
vt 0.5226136 0.5365907
vn -0.0283153 0.9253598 0.3780311
f 115/115/115 116/116/116 117/117/117
v 0.0000000 4.1999998 0.0000000
vt 0.5000000 0.5000000
vn -0.3462489 0.9134090 0.2139993
v -2.1160281 3.3978701 0.0000000
vt 0.4519085 0.5000000
vn -0.3462489 0.9134090 0.2139993
v -0.9463277 3.3978488 1.8926555
vt 0.4784926 0.5430149
vn -0.3462489 0.9134090 0.2139993
f 118/118/118 119/119/119 120/120/120
v -2.1160281 3.3978701 0.0000000
vt 0.4519085 0.5000000
vn -0.5834542 0.7277036 0.3605950
v -2.6049862 2.2080462 1.6099902
vt 0.4407958 0.5365907
vn -0.5834542 0.7277036 0.3605950
v -0.9463277 3.3978488 1.8926555
vt 0.4784926 0.5430149
vn -0.5834542 0.7277036 0.3605950
f 121/121/121 122/122/122 123/123/123
v -3.4238083 1.2978530 0.0000000
vt 0.4221862 0.5000000
vn -0.9137387 0.2319625 0.3335789
v -3.0623324 0.0000000 1.8926493
vt 0.4304015 0.5430148
vn -0.9137387 0.2319625 0.3335789
v -2.6049862 2.2080462 1.6099902
vt 0.4407958 0.5365907
vn -0.9137387 0.2319625 0.3335789
f 124/124/124 125/125/125 126/126/126
v -3.4238083 1.2978530 0.0000000
vt 0.4221862 0.5000000
vn -0.9822457 0.0000000 0.1875985
v -3.4238083 -1.2978530 0.0000000
vt 0.4221862 0.5000000
vn -0.9822457 0.0000000 0.1875985
v -3.0623324 0.0000000 1.8926493
vt 0.4304015 0.5430148
vn -0.9822457 0.0000000 0.1875985
f 127/127/127 128/128/128 129/129/129
v -3.4238083 -1.2978530 0.0000000
vt 0.4221862 0.5000000
vn -0.9137387 -0.2319626 0.3335789
v -2.6049862 -2.2080462 1.6099902
vt 0.4407958 0.5365907
vn -0.9137387 -0.2319626 0.3335789
v -3.0623324 0.0000000 1.8926493
vt 0.4304015 0.5430148
vn -0.9137387 -0.2319626 0.3335789
f 130/130/130 131/131/131 132/132/132
v -2.1160281 -3.3978701 0.0000000
vt 0.4519085 0.5000000
vn -0.5834542 -0.7277036 0.3605950
v -0.9463277 -3.3978488 1.8926555
vt 0.4784926 0.5430149
vn -0.5834542 -0.7277036 0.3605950
v -2.6049862 -2.2080462 1.6099902
vt 0.4407958 0.5365907
vn -0.5834542 -0.7277036 0.3605950
f 133/133/133 134/134/134 135/135/135
v -2.1160281 -3.3978701 0.0000000
vt 0.4519085 0.5000000
vn -0.3462489 -0.9134090 0.2139993
v 0.0000000 -4.1999998 0.0000000
vt 0.5000000 0.5000000
vn -0.3462489 -0.9134090 0.2139993
v -0.9463277 -3.3978488 1.8926555
vt 0.4784926 0.5430149
vn -0.3462489 -0.9134090 0.2139993
f 136/136/136 137/137/137 138/138/138
v 0.0000000 -4.1999998 0.0000000
vt 0.5000000 0.5000000
vn -0.0283153 -0.9253598 0.3780312
v 0.9949968 -3.5727267 1.6099914
vt 0.5226136 0.5365907
vn -0.0283153 -0.9253598 0.3780312
v -0.9463277 -3.3978488 1.8926555
vt 0.4784926 0.5430149
vn -0.0283153 -0.9253598 0.3780312
f 139/139/139 140/140/140 141/141/141
v 2.1160281 -3.3978701 0.0000000
vt 0.5480915 0.5000000
vn 0.6227858 -0.6956346 0.3580926
v 2.4774818 -2.0999870 1.8926504
vt 0.5563064 0.5430148
vn 0.6227858 -0.6956346 0.3580926
v 0.9949968 -3.5727267 1.6099914
vt 0.5226136 0.5365907
vn 0.6227858 -0.6956346 0.3580926
f 142/142/142 143/143/143 144/144/144
v 2.1160281 -3.3978701 0.0000000
vt 0.5480915 0.5000000
vn 0.8323098 -0.5183188 0.1964841
v 3.4238083 -1.2978530 0.0000000
vt 0.5778138 0.5000000
vn 0.8323098 -0.5183188 0.1964841
v 2.4774818 -2.0999870 1.8926504
vt 0.5563064 0.5430148
vn 0.8323098 -0.5183188 0.1964841
f 145/145/145 146/146/146 147/147/147
v 3.4238083 -1.2978530 0.0000000
vt 0.5778138 0.5000000
vn 0.9016517 -0.2737100 0.3348240
v 3.2199345 0.0000000 1.6099762
vt 0.5731803 0.5365904
vn 0.9016517 -0.2737100 0.3348240
v 2.4774818 -2.0999870 1.8926504
vt 0.5563064 0.5430148
vn 0.9016517 -0.2737100 0.3348240
f 148/148/148 149/149/149 150/150/150
v 2.1160281 3.3978701 0.0000000
vt 0.5480915 0.5000000
vn 0.3507793 0.9253600 0.1437456
v 0.0000000 4.1999998 0.0000000
vt 0.5000000 0.5000000
vn 0.3507793 0.9253600 0.1437456
v 0.9949968 3.5727267 1.6099914
vt 0.5226136 0.5365907
vn 0.3507793 0.9253600 0.1437456
f 151/151/151 152/152/152 153/153/153
v 2.1160281 3.3978701 0.0000000
vt 0.5480915 0.5000000
vn 0.3462489 0.9134090 -0.2139993
v 0.9463277 3.3978488 -1.8926555
vt 0.5215074 0.4569851
vn 0.3462489 0.9134090 -0.2139993
v 0.0000000 4.1999998 0.0000000
vt 0.5000000 0.5000000
vn 0.3462489 0.9134090 -0.2139993
f 154/154/154 155/155/155 156/156/156
v 0.9463277 3.3978488 -1.8926555
vt 0.5215074 0.4569851
vn 0.0283153 0.9253598 -0.3780312
v -0.9949968 3.5727267 -1.6099914
vt 0.4773864 0.4634093
vn 0.0283153 0.9253598 -0.3780312
v 0.0000000 4.1999998 0.0000000
vt 0.5000000 0.5000000
vn 0.0283153 0.9253598 -0.3780312
f 157/157/157 158/158/158 159/159/159
v -2.1160281 3.3978701 0.0000000
vt 0.4519085 0.5000000
vn -0.8414617 0.5240182 0.1317087
v -3.4238083 1.2978530 0.0000000
vt 0.4221862 0.5000000
vn -0.8414617 0.5240182 0.1317087
v -2.6049862 2.2080462 1.6099902
vt 0.4407958 0.5365907
vn -0.8414617 0.5240182 0.1317087
f 160/160/160 161/161/161 162/162/162
v -2.1160281 3.3978701 0.0000000
vt 0.4519085 0.5000000
vn -0.8323098 0.5183188 -0.1964841
v -2.4774818 2.0999870 -1.8926504
vt 0.4436936 0.4569852
vn -0.8323098 0.5183188 -0.1964841
v -3.4238083 1.2978530 0.0000000
vt 0.4221862 0.5000000
vn -0.8323098 0.5183188 -0.1964841
f 163/163/163 164/164/164 165/165/165
v -2.4774818 2.0999870 -1.8926504
vt 0.4436936 0.4569852
vn -0.9016517 0.2737100 -0.3348240
v -3.2199345 0.0000000 -1.6099762
vt 0.4268197 0.4634096
vn -0.9016517 0.2737100 -0.3348240
v -3.4238083 1.2978530 0.0000000
vt 0.4221862 0.5000000
vn -0.9016517 0.2737100 -0.3348240
f 166/166/166 167/167/167 168/168/168
v -3.4238083 -1.2978530 0.0000000
vt 0.4221862 0.5000000
vn -0.8414617 -0.5240182 0.1317087
v -2.1160281 -3.3978701 0.0000000
vt 0.4519085 0.5000000
vn -0.8414617 -0.5240182 0.1317087
v -2.6049862 -2.2080462 1.6099902
vt 0.4407958 0.5365907
vn -0.8414617 -0.5240182 0.1317087
f 169/169/169 170/170/170 171/171/171
v -3.4238083 -1.2978530 0.0000000
vt 0.4221862 0.5000000
vn -0.8323098 -0.5183188 -0.1964841
v -2.4774818 -2.0999870 -1.8926504
vt 0.4436936 0.4569852
vn -0.8323098 -0.5183188 -0.1964841
v -2.1160281 -3.3978701 0.0000000
vt 0.4519085 0.5000000
vn -0.8323098 -0.5183188 -0.1964841
f 172/172/172 173/173/173 174/174/174
v -2.4774818 -2.0999870 -1.8926504
vt 0.4436936 0.4569852
vn -0.6227859 -0.6956346 -0.3580926
v -0.9949968 -3.5727267 -1.6099914
vt 0.4773864 0.4634093
vn -0.6227859 -0.6956346 -0.3580926
v -2.1160281 -3.3978701 0.0000000
vt 0.4519085 0.5000000
vn -0.6227859 -0.6956346 -0.3580926
f 175/175/175 176/176/176 177/177/177
v 0.0000000 -4.1999998 0.0000000
vt 0.5000000 0.5000000
vn 0.3507793 -0.9253600 0.1437456
v 2.1160281 -3.3978701 0.0000000
vt 0.5480915 0.5000000
vn 0.3507793 -0.9253600 0.1437456
v 0.9949968 -3.5727267 1.6099914
vt 0.5226136 0.5365907
vn 0.3507793 -0.9253600 0.1437456
f 178/178/178 179/179/179 180/180/180
v 0.0000000 -4.1999998 0.0000000
vt 0.5000000 0.5000000
vn 0.3462489 -0.9134090 -0.2139993
v 0.9463277 -3.3978488 -1.8926555
vt 0.5215074 0.4569851
vn 0.3462489 -0.9134090 -0.2139993
v 2.1160281 -3.3978701 0.0000000
vt 0.5480915 0.5000000
vn 0.3462489 -0.9134090 -0.2139993
f 181/181/181 182/182/182 183/183/183
v 0.9463277 -3.3978488 -1.8926555
vt 0.5215074 0.4569851
vn 0.5834542 -0.7277036 -0.3605950
v 2.6049862 -2.2080462 -1.6099902
vt 0.5592042 0.4634093
vn 0.5834542 -0.7277036 -0.3605950
v 2.1160281 -3.3978701 0.0000000
vt 0.5480915 0.5000000
vn 0.5834542 -0.7277036 -0.3605950
f 184/184/184 185/185/185 186/186/186
v 3.4238083 -1.2978530 0.0000000
vt 0.5778138 0.5000000
vn 0.9920774 0.0000000 0.1256284
v 3.4238083 1.2978530 0.0000000
vt 0.5778138 0.5000000
vn 0.9920774 0.0000000 0.1256284
v 3.2199345 0.0000000 1.6099762
vt 0.5731803 0.5365904
vn 0.9920774 0.0000000 0.1256284
f 187/187/187 188/188/188 189/189/189
v 3.4238083 -1.2978530 0.0000000
vt 0.5778138 0.5000000
vn 0.9822457 0.0000000 -0.1875985
v 3.0623324 0.0000000 -1.8926493
vt 0.5695985 0.4569852
vn 0.9822457 0.0000000 -0.1875985
v 3.4238083 1.2978530 0.0000000
vt 0.5778138 0.5000000
vn 0.9822457 0.0000000 -0.1875985
f 190/190/190 191/191/191 192/192/192
v 3.0623324 0.0000000 -1.8926493
vt 0.5695985 0.4569852
vn 0.9137387 0.2319626 -0.3335789
v 2.6049862 2.2080462 -1.6099902
vt 0.5592042 0.4634093
vn 0.9137387 0.2319626 -0.3335789
v 3.4238083 1.2978530 0.0000000
vt 0.5778138 0.5000000
vn 0.9137387 0.2319626 -0.3335789
f 193/193/193 194/194/194 195/195/195
v 1.5311617 1.2978479 -3.0623550
vt 0.5347991 0.4304010
vn 0.4941141 0.5240140 -0.6937296
v 0.9463277 3.3978488 -1.8926555
vt 0.5215074 0.4569851
vn 0.4941141 0.5240140 -0.6937296
v 2.6049862 2.2080462 -1.6099902
vt 0.5592042 0.4634093
vn 0.4941141 0.5240140 -0.6937296
f 196/196/196 197/197/197 198/198/198
v 1.5311617 1.2978479 -3.0623550
vt 0.5347991 0.4304010
vn 0.1964833 0.5183163 -0.8323116
v -0.5848400 2.0999801 -3.0623560
vt 0.4867082 0.4304010
vn 0.1964833 0.5183163 -0.8323116
v 0.9463277 3.3978488 -1.8926555
vt 0.5215074 0.4569851
vn 0.1964833 0.5183163 -0.8323116
f 199/199/199 200/200/200 201/201/201
v -0.5848400 2.0999801 -3.0623560
vt 0.4867082 0.4304010
vn -0.0417614 0.6956298 -0.7171857
v -0.9949968 3.5727267 -1.6099914
vt 0.4773864 0.4634093
vn -0.0417614 0.6956298 -0.7171857
v 0.9463277 3.3978488 -1.8926555
vt 0.5215074 0.4569851
vn -0.0417614 0.6956298 -0.7171857
f 202/202/202 203/203/203 204/204/204
v -0.5848400 2.0999801 -3.0623560
vt 0.4867082 0.4304010
vn -0.4322150 0.5692992 -0.6993487
v -2.4774818 2.0999870 -1.8926504
vt 0.4436936 0.4569852
vn -0.4322150 0.5692992 -0.6993487
v -0.9949968 3.5727267 -1.6099914
vt 0.4773864 0.4634093
vn -0.4322150 0.5692992 -0.6993487
f 205/205/205 206/206/206 207/207/207
v -0.5848400 2.0999801 -3.0623560
vt 0.4867082 0.4304010
vn -0.4996305 0.3111469 -0.8084288
v -1.8926272 0.0000000 -3.0623460
vt 0.4569857 0.4304012
vn -0.4996305 0.3111469 -0.8084288
v -2.4774818 2.0999870 -1.8926504
vt 0.4436936 0.4569852
vn -0.4996305 0.3111469 -0.8084288
f 208/208/208 209/209/209 210/210/210
v -1.8926272 0.0000000 -3.0623460
vt 0.4569857 0.4304012
vn -0.7277122 0.1677627 -0.6650494
v -3.2199345 0.0000000 -1.6099762
vt 0.4268197 0.4634096
vn -0.7277122 0.1677627 -0.6650494
v -2.4774818 2.0999870 -1.8926504
vt 0.4436936 0.4569852
vn -0.7277122 0.1677627 -0.6650494
f 211/211/211 212/212/212 213/213/213
v -1.8926272 0.0000000 -3.0623460
vt 0.4569857 0.4304012
vn -0.7277122 -0.1677627 -0.6650494
v -2.4774818 -2.0999870 -1.8926504
vt 0.4436936 0.4569852
vn -0.7277122 -0.1677627 -0.6650494
v -3.2199345 0.0000000 -1.6099762
vt 0.4268197 0.4634096
vn -0.7277122 -0.1677627 -0.6650494
f 214/214/214 215/215/215 216/216/216
v -1.8926272 0.0000000 -3.0623460
vt 0.4569857 0.4304012
vn -0.4996305 -0.3111469 -0.8084287
v -0.5848400 -2.0999801 -3.0623560
vt 0.4867082 0.4304010
vn -0.4996305 -0.3111469 -0.8084287
v -2.4774818 -2.0999870 -1.8926504
vt 0.4436936 0.4569852
vn -0.4996305 -0.3111469 -0.8084287
f 217/217/217 218/218/218 219/219/219
v -0.5848400 -2.0999801 -3.0623560
vt 0.4867082 0.4304010
vn -0.4322150 -0.5692992 -0.6993487
v -0.9949968 -3.5727267 -1.6099914
vt 0.4773864 0.4634093
vn -0.4322150 -0.5692992 -0.6993487
v -2.4774818 -2.0999870 -1.8926504
vt 0.4436936 0.4569852
vn -0.4322150 -0.5692992 -0.6993487
f 220/220/220 221/221/221 222/222/222
v 3.0623324 0.0000000 -1.8926493
vt 0.5695985 0.4569852
vn 0.7069941 0.2319628 -0.6680964
v 1.5311617 1.2978479 -3.0623550
vt 0.5347991 0.4304010
vn 0.7069941 0.2319628 -0.6680964
v 2.6049862 2.2080462 -1.6099902
vt 0.5592042 0.4634093
vn 0.7069941 0.2319628 -0.6680964
f 223/223/223 224/224/224 225/225/225
v 3.0623324 0.0000000 -1.8926493
vt 0.5695985 0.4569852
vn 0.6070606 0.0000000 -0.7946556
v 1.5311617 -1.2978479 -3.0623550
vt 0.5347991 0.4304010
vn 0.6070606 0.0000000 -0.7946556
v 1.5311617 1.2978479 -3.0623550
vt 0.5347991 0.4304010
vn 0.6070606 0.0000000 -0.7946556
f 226/226/226 227/227/227 228/228/228
v 1.5311617 -1.2978479 -3.0623550
vt 0.5347991 0.4304010
vn 0.3313045 0.0000000 -0.9435239
v 0.0000000 0.0000000 -3.5999999
vt 0.5000000 0.4181818
vn 0.3313045 0.0000000 -0.9435239
v 1.5311617 1.2978479 -3.0623550
vt 0.5347991 0.4304010
vn 0.3313045 0.0000000 -0.9435239
f 229/229/229 230/230/230 231/231/231
v -0.5848400 -2.0999801 -3.0623560
vt 0.4867082 0.4304010
vn -0.0417614 -0.6956298 -0.7171857
v 0.9463277 -3.3978488 -1.8926555
vt 0.5215074 0.4569851
vn -0.0417614 -0.6956298 -0.7171857
v -0.9949968 -3.5727267 -1.6099914
vt 0.4773864 0.4634093
vn -0.0417614 -0.6956298 -0.7171857
f 232/232/232 233/233/233 234/234/234
v -0.5848400 -2.0999801 -3.0623560
vt 0.4867082 0.4304010
vn 0.1964833 -0.5183163 -0.8323116
v 1.5311617 -1.2978479 -3.0623550
vt 0.5347991 0.4304010
vn 0.1964833 -0.5183163 -0.8323116
v 0.9463277 -3.3978488 -1.8926555
vt 0.5215074 0.4569851
vn 0.1964833 -0.5183163 -0.8323116
f 235/235/235 236/236/236 237/237/237
v 1.5311617 -1.2978479 -3.0623550
vt 0.5347991 0.4304010
vn 0.4941141 -0.5240140 -0.6937296
v 2.6049862 -2.2080462 -1.6099902
vt 0.5592042 0.4634093
vn 0.4941141 -0.5240140 -0.6937296
v 0.9463277 -3.3978488 -1.8926555
vt 0.5215074 0.4569851
vn 0.4941141 -0.5240140 -0.6937296
f 238/238/238 239/239/239 240/240/240
